<?xml version="1.0" encoding="UTF-8"?><svg id="Layer_1" xmlns="http://www.w3.org/2000/svg" viewBox="0 0 141.39 42.38"><rect x="0" y="0" width="141.39" height="42.38" rx="21.19" ry="21.19" style="fill:#89c761;"/><path d="M31.43,26.72v1.43c0,2.52-1.19,3.78-3.56,3.78h-1.92c-2.38,0-3.56-1.26-3.56-3.78v-14.69c0-2.52,1.19-3.78,3.56-3.78h1.92c2.38,0,3.56,1.26,3.56,3.78v2.51h-2.98v-2.29c0-.87-.44-1.3-1.33-1.3h-.59c-.79,0-1.18.43-1.18,1.3v14.26c0,.87.39,1.3,1.18,1.3h.74c.79,0,1.18-.43,1.18-1.3v-1.21h2.98Z" style="fill:#133c46;"/><path d="M37.2,31.93c-2.4,0-3.6-1.26-3.6-3.78v-14.66c0-2.54,1.19-3.81,3.56-3.81h2.85c2.38,0,3.56,1.27,3.56,3.81v14.66c0,2.52-1.2,3.78-3.6,3.78h-2.79ZM37.91,29.23h1.52c.79,0,1.18-.43,1.18-1.3v-14.26c0-.87-.44-1.3-1.33-1.3h-1.4c-.87,0-1.3.43-1.3,1.3v14.26c0,.87.44,1.3,1.33,1.3Z" style="fill:#133c46;"/><path d="M52.39,20.42v-10.76h2.98v22.26h-2.98v-4.43l-3.19-10.14v14.57h-2.98V9.67h2.98l3.19,10.76Z" style="fill:#133c46;"/><path d="M64.32,20.42v-10.76h2.98v22.26h-2.98v-4.43l-3.19-10.14v14.57h-2.98V9.67h2.98l3.19,10.76Z" style="fill:#133c46;"/><path d="M70.09,31.93V9.67h7.38v2.7h-4.4v6.76h3.91v2.7h-3.91v7.41h4.4v2.7h-7.38Z" style="fill:#133c46;"/><path d="M88.5,26.72v1.43c0,2.52-1.19,3.78-3.56,3.78h-1.92c-2.38,0-3.57-1.26-3.57-3.78v-14.69c0-2.52,1.19-3.78,3.57-3.78h1.92c2.38,0,3.56,1.26,3.56,3.78v2.51h-2.98v-2.29c0-.87-.44-1.3-1.33-1.3h-.59c-.79,0-1.18.43-1.18,1.3v14.26c0,.87.39,1.3,1.18,1.3h.74c.79,0,1.18-.43,1.18-1.3v-1.21h2.98Z" style="fill:#133c46;"/><path d="M95.57,12.36v19.56h-2.98V12.36h-2.85v-2.7h8.68v2.7h-2.85Z" style="fill:#133c46;"/><path d="M100.13,31.93V9.67h7.38v2.7h-4.4v6.76h3.91v2.7h-3.91v7.41h4.4v2.7h-7.38Z" style="fill:#133c46;"/><path d="M109.65,31.93V9.67h5.18c2.79,0,4.18,1.43,4.18,4.28v14.76c0,2.15-1.19,3.22-3.56,3.22h-5.8ZM112.62,29.23h2.23c.79,0,1.18-.33,1.18-.99v-14.26c0-1.07-.44-1.61-1.33-1.61h-2.08v16.86Z" style="fill:#133c46;"/></svg>