<?xml version="1.0" encoding="UTF-8"?><svg id="a" xmlns="http://www.w3.org/2000/svg" viewBox="0 0 31.926 48.474"><rect y=".001" width="31.926" height="48.472" fill="#b9b6b0"/><g><rect x="1.066" y=".996" width="28.955" height="45.033" fill="#fff"/><path d="m31.017,47.024H.071V0h30.946v47.024Zm-28.954-1.992h26.962V1.992H2.063v43.041Z" fill="#b9b6b0"/></g><g><g><path d="m26.81,32.156c.004.007.01.01.013.019-.011-.013-.003-.019-.013-.019Z" fill="#2e879e"/><path d="m26.442,29.045s-.009-.006-.014-.003l-.151.126s-.003.01,0,.014c0,0,0,0,.001,0,0,0,0,0,0,0h0s0,0,0,0c-.001,0-.001.001-.002.002-.001,0-.003-.001-.004,0l.002.002s-.002,0-.002.002h0c-.013.011-.028.024-.04.033l-.007-.009c.022-.025.046-.049.072-.071l.051-.043s.004-.004.003-.006h-.008s-.019-.023-.019-.023c.002-.002.004-.004.003-.006-.002-.002-.006-.003-.008,0h-.001s-.025-.008-.025-.008c-.009-.029-.028-.016-.045-.011l.026-.021h-.008s-.024.02-.024.02c-.006.003-.008-.009-.014-.003l-.098.082-.007-.009-.005-.01.007.008c.004-.026.021-.033.044-.056.011-.011.021-.026.034-.036l.035-.03s.004-.004.003-.006h-.008s-.007-.01-.007-.01l-.125.104h0c.053-.02.099-.056.127-.106l-.022-.011s0-.001,0-.002c0,0-.001,0-.002,0h-.002s-.001,0-.002,0l-.015-.018c-.022.009-.036.025-.057.043l.055-.046-.009-.011c-.005-.006-.013-.007-.02-.008,0-.001,0-.003-.001-.004-.002-.002-.004-.004-.006-.003l-.002.002-.006-.007c-.008-.009-.016-.017-.029-.02,0-.002.002-.004,0-.005-.002-.002-.006-.003-.008,0l-.022-.027-.015-.009h0s0,0,0,0l-.021-.012-.011-.013s.003-.006,0-.008c-.002-.002-.004,0-.006.002l.004-.018s-.001.001-.002.002l-.013-.015.002-.002s.003-.006,0-.008c-.002-.002-.004,0-.006.002l-.002.002c.006-.02-.012-.032-.023-.045-.041.02-.076.051-.106.085h0c.037-.028.072-.057.108-.087v-.007s.007-.006.007-.006v-.008s-.007,0-.007,0h0l-.03-.035s-.006.004-.009.004l.007-.006c.002-.009-.005-.011-.011-.013.003-.002.003-.006,0-.008h-.008s-.002,0-.002,0c-.005-.017-.013-.034-.025-.047,0,0,.001-.001.002-.002l-.008-.027.003-.002v-.008s-.005-.003-.007,0h0c-.011-.011-.014-.021-.039-.027h.001s-.006-.008-.006-.008l-.002.002-.006-.007c-.01.006-.012.019-.022.024-.003.001-.005.002-.007.004.011-.009.018-.021.028-.03l.002-.002-.007-.032.004-.003v-.008s-.006,0-.006,0l-.002-.01s.002-.005.003-.007l.059-.049s.003-.01,0-.014l-1.208-1.445s-.01-.007-.014-.003l-.129.108s-.003.007-.002.01h0s0,0,0,0c0,.001-.002.002,0,.004,0,.001.002,0,.003,0,.004.01.012.018.017.028h0s0,0,0,0c.018.038.037.075.064.108,0,.001.001.003,0,.004,0,0,0,0-.001,0h0s0,0-.001,0v-.002s-.002,0-.002,0c-.001,0-.002-.002-.003-.001-.002.002-.004.004-.003.006h0l-.039.033-.014.012h0l-.007.006s0,0,0,0c-.037-.026-.05-.078-.096-.093-.021-.016-.029-.048-.061-.051l-.088-.043c-.006.003-.005.007-.007.01l-.002-.003.009-.007c-.031-.024-.07-.036-.11-.032h-.016c-.022-.006-.044-.014-.068.003l.009.011s-.004.003-.006.003c.003-.005.006-.01-.003-.014-.063-.008-.127.009-.179.048-.008.003-.016.007-.024.012-.002.002-.004.003-.006.005-.009.007-.02.009-.029.017-.142.119-.284.237-.427.353l-.004-.004-.016.013c-.019-.002-.036.003-.053.013l-.006-.008-.016.013h0c-.03.008-.059.021-.082.041,0,0-.002,0-.003.001l-.003-.004-.015.013h0c-.01.003-.021.003-.027.014l-.028.024-.005-.007-.015.013h.001c-.014,0-.022.01-.03.017l-.02.017-.011.009-.004-.004-.002.002s-.001-.002-.002-.002c-.001,0-.007.005-.008.005-.029-.012-.032-.03-.074-.068-.038-.034-.063-.082-.11-.106,0,0,0-.002,0-.002-.001-.001-.003,0-.004,0,0,0,0,0,0,0l-.005-.003c-.007-.003-.01-.011-.019-.012-.036-.015-.042-.037-.016-.069.016-.027.03-.055.042-.084-.011-.036-.048-.054-.06-.089l-.065-.077c-.002-.021-.018-.03-.031-.046-.003.002-.003.004-.006.006v-.002c-.01-.029-.031-.054-.058-.071-.047-.047-.074-.111-.135-.143-.062.025-.125.048-.183.078-.051.019-.089.06-.126.099-.022.006-.037.015-.031.021-.002,0-.002.002-.004.002l-.011.009c-.021.019-.023.051-.007.073.006.015.019.024.029.035l-.028-.033c-.005.029.022.042.037.062-.003.003-.005.007-.003.011-.013.012-.017.012-.026.02,0-.005.003-.014-.009-.002-.013.014-.027.026-.04.039-.016.003-.029-.009-.053-.033,0,0,0,.001,0,.001,0-.001-.002-.002-.001-.003-.002-.006-.007-.009-.016-.006-.01-.006-.018.002-.031-.001-.003-.002-.007-.005-.01-.002,0,0-.001.001-.002.002-.02-.003-.045-.016-.047-.002-.051.039-.104.065-.137.129-.032.065-.096.11-.107.187.023.06.065.1.104.147.069.088.144.171.224.25q.024.025.067.012c.04-.012.072-.044.117-.032h0s.002.003.002.003c.002.002.005.001.007.002.005.012.011.024.018.035-.002,0-.004-.002-.006,0-.004.004-.007.01-.003.014.002.003.012-.003.015,0,0,0,0,.002.001.002-.009.026.015.036.026.054.04.048.086.095.109.153,0,.002-.001.004,0,.006-.002.002-.004.004-.005.006l-.012.014-.007.006h0s-.043.05-.043.05c0,.001,0,.002,0,.003-.007.004-.015.007-.012.018h0l-.008.007h.001c-.016.013-.027.03-.037.047l-.002-.003-.016.013.005.006s-.002.002-.002.003c-.016.021-.046.035-.029.069-.016.027-.037.051-.062.07-.172.144-.342.29-.514.434h0s-.031.026-.031.026c0,.002-.003.004-.004.005v-.003s-.069.059-.069.059c-.035.016-.061.044-.076.078-.026.039-.058.007-.089.004-.005.012.003.022.006.033-.005-.009-.011-.016-.017-.023-.047-.006-.056.032-.071.059.013.057.062.088.093.129.049.099.126.173.196.257l2.999,3.587c.037.044.068.09.118.119l.076.091.007.009c.009.019.025.021.044.016.016-.016.036-.028.058-.034,0-.031-.007-.081-.019-.086.128-.08.249-.17.362-.269.14-.117.281-.232.421-.348.015-.01.031-.021.048-.027h.001s.002,0,.002,0h0c.026.007.052-.003.074-.019h.001s.003-.001.003-.001c.002-.001.004,0,.006-.002.032-.008.062-.023.086-.046,0,0,.002,0,.003-.001l.002.003.009-.007s.001,0,.003-.001c.012,0,.024-.006.032-.016l.031-.026v.004s.003.004.003.004l.006.003s.018-.012.024-.014c.049.035.085.081.122.125.015.014.023.041.05.037,0,.001.002,0,.003.002,0,0-.001.003-.001.004h0s-.004.004-.004.004c-.004.003-.004.009-.001.012.001.001.003.001.004,0l.046.024c0,.043-.033.072-.049.107-.018.037-.012.025.006.052.056.089.119.174.186.254.041.053.091.1.146.14-.003.004-.005.008-.008.012.08.005.136-.049.203-.072s.106-.066.153-.109c.027,0,.024-.057.01-.091.005-.008.005-.012-.003-.017-.016-.023-.02-.035-.019-.048.002-.001.002-.002.003-.003.005-.004.005-.011.001-.016.003-.005.016-.014.022-.019h0s.009.005.012.002c.016-.014.031-.029.045-.043h.003c.012.019.035.03.054.044.018.014.041.019.063.009,0,.002-.002.004-.001.007.003-.001.004-.005.007-.006.001,0,.003.002.004,0,.009-.007.007-.006.006-.005.006.005.015-.006.025-.025.047-.029.094-.058.123-.105l.107-.169c-.023-.068-.058-.106-.096-.16-.019-.03-.047-.054-.08-.069l-.013.005s.012-.005.016-.011c-.011-.013-.016-.047-.034-.054l-.067-.072c-.029-.017-.046-.055-.078-.07-.032.007-.063.019-.091.035-.038.017-.072.004-.079-.036.005-.004.006-.011.001-.016-.002-.003-.012.003-.015.001-.004-.009-.01-.018-.019-.021.003,0,.004,0,.006,0-.02-.039-.045-.058-.071-.103-.027-.048-.041-.043-.049-.07.022-.022.054-.051.067-.066.004-.003.008-.007.009-.012l.061-.066c.011-.006.019-.018.019-.031.018-.013.03-.032.041-.051h0s.016-.012.016-.012l-.004-.005c.023-.019.032-.05.023-.079.005-.004.01-.009.013-.015l.005-.004.004-.004h0l.042-.035s.002-.008,0-.011c.105-.089.209-.178.314-.266.027-.022.087-.076.089-.082.001-.003-.009,0-.018,0,.016-.01.035-.017.036-.042.009-.011.012-.025.02-.037.01-.014.024-.024.03-.043.003-.009.005-.02.009-.03,0,0,0,0,0,0,0,0,0,0,0,0,.023-.068.042-.14.017-.213,0-.003.002-.004.003-.007-.006-.052-.023-.127-.069-.164,0-.005-.002.002-.003.007-.004-.021-.009-.042-.025-.057,0,0,.001-.001.002-.004l-.053-.072s0,0,0,0l-.002-.002s.008,0,.01-.001l.058-.048h0c.032.017.056.05.088.07l.011.013.002.002s.004-.004.003-.006h0s.007.002.011-.001l.129-.107s.004-.009.001-.012l-1.208-1.445Zm1.182,1.451c0-.007-.007-.016-.016-.026l.02.024-.003.003Zm-.537,2.302s.01-.004.014-.007l.042.043s-.008.008-.013.012c-.008-.022-.022-.039-.044-.048Zm-.911-.507l.002-.002c.004.008.011.013.016.02-.001-.001-.003-.002-.005-.003l-.013-.015Zm.082-.028h0c-.007-.008-.012-.017-.02-.024h0l.02.024Zm.021.025s0,0,0,0l.01.012h0s-.008-.008-.01-.012Zm.015.017s-.002-.002-.003-.004c.002.002.004.003.005.005,0,0,0,0,0,0,0,0-.001-.001-.002-.002Zm.166-.14s0,0,0-.001c0,0,0,0,0,0,0,0,0,0,0,0Zm-.106.056c.001.006-.002.014-.006.021.006-.007.007-.016.005-.025,0,.001,0,.003.001.004Zm-.022.032s-.001,0-.002-.001l-.045-.054.002-.002c.008.024.023.043.045.057Zm-.275.136s0,0,0,0l.043.051s-.001.001-.002.002c-.004-.024-.018-.043-.041-.052Zm.253-.066c.005.037.028.065.063.078,0,0,0,0,0,0l-.064-.077s.001-.001.002-.002Zm.766.412c-.003-.028-.019-.053-.048-.057h0l.048.057h0Zm-.419-.847h0s0,0,0,0h0Zm.009-.008l.002-.002h0s-.001.001-.002.002h0Zm-.78.653s0,0,0,0l.024.028s-.002,0-.002.001c-.002-.013-.011-.022-.022-.029Zm.8-.575s0,0,0,0c-.004-.002-.009,0-.012.003,0,0-.002.002-.002.002-.001-.025-.01-.046-.027-.06h0s.045.053.045.053l-.002.002h0Zm-.027-.068h0s.043.051.043.051l.009-.007-.043-.051h.002c.008.021.018.044.041.051l.007-.006s-.011.01-.015.014l-.044-.052Zm.115-.025l.005-.005-.005.005h0Zm-1.688,1.159h0s.004-.002.005-.004h0l-.004.004Zm-3.381-3.918s-.004.001-.006.003c.001,0,0-.003,0-.003l.003-.003.002.003Zm5.613,2.063c-.006.006-.013.009-.02.015.014-.013.023-.03.036-.045-.007.01-.008.021-.016.031Zm-5.867-1.968c.002.006.005.012.008.017-.003-.003-.006-.004-.008-.006.002-.003,0-.007,0-.011Zm4.624-.144s.001-.001,0-.002c.002.001-.002.004.001.004l.003-.002s0,0,0,0l-.003.002-.002-.002Zm1.088,1.324s0,0,0,0l.009.011h0s-.008-.01-.008-.01Zm-.508-.693l.006.007s-.004-.005-.007-.006c0,0,0-.001.001-.001Zm.553.729s-.003.003-.004.004l-.071-.086s.006.002.009.002l.105.08c-.013,0-.025-.002-.038,0Zm-.01.006h0s0,0,0,0c0,0,0,0,0,0Zm-.036-.081c.006.004.005.001.01.005.002.002.004.005.006.008.008.013.024.018.039.026.004.003.007.008.011.011l.003.003-.069-.053Zm-2.441-2.891h0Zm.146.052s.003.006.004.009c-.01-.014-.019-.028-.03-.043l.011.013c.005.007.01.014.015.021Zm.09.226l.008.01h.002s.003.001.004.003l.022.027.021.025s-.002.001-.002.002l-.047-.057c-.003-.005-.01-.008-.014-.012l-.009-.01s.01.008.014.013Zm.85,1.012l-.004.004-.008-.01s.006.003.01.003l.003.003Zm-1.188-1.725l.011-.009s-.004.005-.006.007c-.001.001-.004,0-.005.002Zm-.038.054c-.003.006-.009.009-.012.015l-.004-.004s.011-.007.015-.011Zm1.872,2.02c-.008-.008-.015-.018-.024-.025l.002-.002.022.027Zm-.375-.016h0s.005-.005.008-.004l-.004-.005h.001s0,.004.003.005c-.003,0-.005.003-.008.004Zm-1.4-2.107l1.197,1.431-.046.038c.036-.036.019-.05-.025-.111l-1.114-1.332s.001-.001.002-.002c-.001,0-.002.001-.003,0l-.018-.021.007-.006Zm-2.217,1.284s.004.003.006.005c.005.005.005.012.01.017h0s-.009-.01-.009-.01c-.003-.003-.003-.008-.006-.012Zm-.113-1.132s0,0,0,0c-.004-.03-.02-.05-.047-.063,0,0,0,0,0,0l.047.063Zm.104.072l.002.002s0,0,.001,0c0,.002,0,.004,0,.006l-.004-.005s0-.003,0-.004Zm.157.696s0,0,0,0c.008.04.032.075.073.083h-.004s-.069-.083-.069-.083Zm.177.052s.004.001.005.002c-.01-.005-.02-.006-.029,0,.009-.003.018-.006.024-.003Zm-.09.052h0l.051.061h0c-.012-.024-.028-.046-.051-.061Zm.002-.002s.001-.001.002-.002c.016.023.031.046.057.056l-.002.002c-.016-.021-.034-.041-.057-.056Zm.064-.02s-.002-.003-.003-.005c.01.018.021.035.039.045l-.002.002-.035-.041Zm-.357-.832s0-.002.002-.002l.04.048c-.004-.023-.018-.042-.042-.046Zm.043-.04c-.015.005-.026.015-.034.029,0,0,0,0,0,0l.034-.028h0Zm.008.889l.004.005s-.002-.003-.004-.004c0,0,0,0,0,0Zm-.749.977h0Zm-.061.056s0,.003,0,.004c-.002.001-.001.003-.003.005.001-.002-.002-.001-.001-.003,0-.002.003-.004.004-.006Zm5.103,2.873l.002.002-.004.004s0,0,0,.001c0,0-.001,0-.001,0-.001.001-.004.004-.005.005.009-.005.02-.009.017-.022.002-.002.003-.003.004-.005h.001s-.012.015-.012.015Zm.073-.084s.003.009-.007.014l-.004.004-.007.007c.007-.011.012-.023.021-.03,0,.002-.003.004-.003.006Zm.028-.039c.008-.01.018-.019.024-.031h.001c-.006.013-.016.021-.025.031Zm.035-.049c.005-.004.004-.012.007-.017-.003.006,0,.014-.005.02l-.002-.003Zm.452-1.141h0s0,0,0,0h0Z" fill="#2e879e"/></g><path d="m23.452,27.481l-.004-.004-.016.013c-.019-.002-.036.003-.053.013l-.006-.008-.016.013h0c-.03.008-.084.042-.085.042l-.003-.004-.015.013h0c-.01.003-.021.003-.027.014l-.028.024-.005-.007-.015.013h.001c-.014,0-.022.01-.03.017l-.02.017-.011.009-.004-.004-.002.002s-.001-.002-.002-.002c-.001,0-.007.005-.008.005-.029-.012-.032-.03-.074-.068-.038-.034-.063-.082-.11-.106,0,0,0-.002,0-.002-.001-.001-.003,0-.004,0,0,0,0,0,0,0l-.005-.003c-.007-.003-.01-.011-.019-.012-.036-.015-.042-.037-.016-.069.016-.027.03-.055.042-.084-.011-.036-.048-.054-.06-.089l-.065-.077c-.002-.021-.018-.03-.031-.046-.003.002-.003.004-.006.006v-.002c-.01-.029-.031-.054-.058-.071-.047-.047-.074-.111-.135-.143-.062.025-.125.048-.183.078-.051.019-.089.06-.126.099-.022.006-.037.015-.031.021-.002,0-.002.002-.004.002l-.011.009c-.021.019-.023.051-.007.073.006.015.019.024.029.035l-.028-.033c-.005.029.022.042.037.062-.003.003-.005.007-.003.011-.013.012-.017.012-.026.02,0-.005.003-.014-.009-.002-.013.014-.027.026-.04.039-.016.003-.029-.009-.053-.033,0,0,0,.001,0,.001,0-.001-.002-.002-.001-.003-.002-.006-.007-.009-.016-.006-.01-.006-.018.002-.031-.001-.003-.002-.007-.005-.01-.002,0,0-.001.001-.002.002-.02-.003-.045-.016-.047-.002-.051.039-.104.065-.137.129-.032.065-.096.11-.107.187.023.06.065.1.104.147.069.088.144.171.224.25q.024.025.067.012c.04-.012.072-.044.117-.032h0s.002.003.002.003c.002.002.005.001.007.002.005.012.011.024.018.035-.002,0-.004-.002-.006,0-.004.004-.007.01-.003.014.002.003.012-.003.015,0,0,0,0,.002.001.002-.009.026.015.036.026.054.04.048.086.095.109.153,0,.002-.001.004,0,.006-.002.002-.004.004-.005.006l-.012.014-.007.006h0s-.043.05-.043.05c0,.001,0,.002,0,.003-.007.004-.015.007-.012.018h0l-.008.007h.001c-.016.013-.027.03-.037.047l-.018.01.005.006s-.002.002-.002.003c-.016.021-.046.035-.029.069-.016.027-.037.051-.062.07m3.593.222l-.004.004-.008-.01s.006.003.01.003l.003.003Zm-3.346-.489s.004.003.006.005c.005.005.005.012.01.017h0s-.009-.01-.009-.01c-.003-.003-.003-.008-.006-.012Zm-.113-1.132s0,0,0,0c-.004-.03-.02-.05-.047-.063,0,0,0,0,0,0l.047.063Zm.104.072l.002.002s0,0,.001,0c0,.002,0,.004,0,.006l-.004-.005s0-.003,0-.004Zm.157.696s0,0,0,0c.008.04.032.075.073.083h-.004s-.069-.083-.069-.083Zm.177.052s.004.001.005.002c-.01-.005-.02-.006-.029,0,.009-.003.018-.006.024-.003Zm-.09.052h0l.051.061h0c-.012-.024-.028-.046-.051-.061Zm.002-.002s.001-.001.002-.002c.016.023.031.046.057.056l-.002.002c-.016-.021-.034-.041-.057-.056Zm.064-.02s-.002-.003-.003-.005c.01.018.021.035.039.045l-.002.002-.035-.041Zm-.357-.832s0-.002.002-.002l.04.048c-.004-.023-.018-.042-.042-.046Zm.043-.04c-.015.005-.026.015-.034.029,0,0,0,0,0,0l.034-.028h0Zm.008.889l.004.005s-.002-.003-.004-.004c0,0,0,0,0,0Z" fill="#e0dd1f"/><path d="m27.34,30.578s0,0,0,0l-.002-.002s.008,0,.01-.001l.058-.048h0c.032.017.056.05.088.07l.011.013.002.002s.004-.004.003-.006h0s.007.002.011-.001l.129-.107s.004-.009.001-.012l-1.208-1.445s-.009-.006-.014-.003l-.151.126s-.003.01,0,.014c0,0,0,0,.001,0,0,0,0,0,0,0h0s0,0,0,0c-.001,0-.001.001-.002.002-.001,0-.003-.001-.004,0l.002.002s-.002,0-.002.002h0c-.013.011-.028.024-.04.033l-.007-.009c.022-.025.046-.049.072-.071l.051-.043s.004-.004.003-.006h-.008s-.019-.023-.019-.023c.002-.002.004-.004.003-.006-.002-.002-.006-.003-.008,0h-.001s-.025-.008-.025-.008c-.009-.029-.028-.016-.045-.011l.026-.021h-.008s-.024.02-.024.02c-.006.003-.008-.009-.014-.003l-.098.082-.007-.009-.005-.01.007.008c.004-.026.021-.033.044-.056.011-.011.021-.026.034-.036l.035-.03s.004-.004.003-.006h-.008s-.007-.01-.007-.01l-.125.104h0c.053-.02.099-.056.127-.106l-.022-.011s0-.001,0-.002c0,0-.001,0-.002,0h-.002s-.001,0-.002,0l-.015-.018c-.022.009-.036.025-.057.043l.055-.046-.009-.011c-.005-.006-.013-.007-.02-.008,0-.001,0-.003-.001-.004-.002-.002-.004-.004-.006-.003l-.002.002-.006-.007c-.008-.009-.016-.017-.029-.02,0-.002.002-.004,0-.005-.002-.002-.006-.003-.008,0l-.022-.027-.015-.009h0s0,0,0,0l-.021-.012-.011-.013s.003-.006,0-.008c-.002-.002-.004,0-.006.002l.004-.018s-.001.001-.002.002l-.013-.015.002-.002s.003-.006,0-.008c-.002-.002-.004,0-.006.002l-.002.002c.006-.02-.012-.032-.023-.045-.041.02-.076.051-.106.085h0c.037-.028.072-.057.108-.087v-.007s.007-.006.007-.006v-.008s-.007,0-.007,0h0l-.03-.035s-.006.004-.009.004l.007-.006c.002-.009-.005-.011-.011-.013.003-.002.003-.006,0-.008h-.008s-.002,0-.002,0c-.005-.017-.013-.034-.025-.047,0,0,.001-.001.002-.002l-.008-.027.003-.002v-.008s-.005-.003-.007,0h0c-.011-.011-.014-.021-.039-.027h.001s-.006-.008-.006-.008l-.002.002-.006-.007c-.01.006-.012.019-.022.024-.003.001-.005.002-.007.004.011-.009.018-.021.028-.03l.002-.002-.007-.032.004-.003v-.008s-.006,0-.006,0l-.002-.01s.002-.005.003-.007l.059-.049s.003-.01,0-.014l-1.208-1.445s-.01-.007-.014-.003l-.129.108s-.003.007-.002.01h0s0,0,0,0c0,.001-.002.002,0,.004,0,.001.002,0,.003,0,.004.01.012.018.017.028h0s0,0,0,0c.018.038.037.075.064.108,0,.001.001.003,0,.004,0,0,0,0-.001,0h0s0,0-.001,0v-.002s-.002,0-.002,0c-.001,0-.002-.002-.003-.001-.002.002-.004.004-.003.006h0l-.039.033-.014.012h0l-.007.006s0,0,0,0m3.065,3.235c0-.007-.007-.016-.016-.026l.02.024-.003.003Zm-1.548-1.439s.001-.001,0-.002c.002.001-.002.004.001.004l.003-.002s0,0,0,0l-.003.002-.002-.002Zm1.088,1.324s0,0,0,0l.009.011h0s-.008-.01-.008-.01Zm-.508-.693l.006.007s-.004-.005-.007-.006c0,0,0-.001.001-.001Zm.553.729s-.003.003-.004.004l-.071-.086s.006.002.009.002l.105.08c-.013,0-.025-.002-.038,0Zm-.01.006h0s0,0,0,0c0,0,0,0,0,0Zm-.036-.081c.006.004.005.001.01.005.002.002.004.005.006.008.008.013.024.018.039.026.004.003.007.008.011.011l.003.003-.069-.053Zm-2.441-2.891h0Zm.146.052s.003.006.004.009c-.01-.014-.019-.028-.03-.043l.011.013c.005.007.01.014.015.021Zm.09.226l.008.01h.002s.003.001.004.003l.022.027.021.025s-.002.001-.002.002l-.047-.057c-.003-.005-.01-.008-.014-.012l-.009-.01s.01.008.014.013Zm.85,1.012l-.004.004-.008-.01s.006.003.01.003l.003.003Zm-1.188-1.725l.011-.009s-.004.005-.006.007c-.001.001-.004,0-.005.002Zm-.038.054c-.003.006-.009.009-.012.015l-.004-.004s.011-.007.015-.011Zm1.872,2.02c-.008-.008-.015-.018-.024-.025l.002-.002.022.027Zm-.375-.016h0s.005-.005.008-.004l-.004-.005h.001s0,.004.003.005c-.003,0-.005.003-.008.004Zm-1.4-2.107l1.197,1.431-.046.038c.036-.036.019-.05-.025-.111l-1.114-1.332s.001-.001.002-.002c-.001,0-.002.001-.003,0l-.018-.021.007-.006Zm2.659,3.612h0s0,0,0,0h0Z" fill="#bbbab0"/><g><path d="m26.807,32.152c.004.007.01.01.013.019-.011-.013-.003-.019-.013-.019Z" fill="#e0dd1f"/><path d="m25.704,32.659c.015-.01.031-.021.048-.027h.001s.002,0,.002,0h0c.026.007.052-.003.074-.019h.001s.003-.001.003-.001c.002-.001.004,0,.006-.002.032-.008.062-.023.086-.046,0,0,.002,0,.003-.001l.002.003.009-.007s.001,0,.003-.001c.012,0,.024-.006.032-.016l.031-.026v.004s.003.004.003.004l.006.003s.018-.012.024-.014c.049.035.085.081.122.125.015.014.023.041.05.037,0,.001.002,0,.003.002,0,0-.001.003-.001.004h0s-.004.004-.004.004c-.004.003-.004.009-.001.012.001.001.003.001.004,0l.046.024c0,.043-.033.072-.049.107-.018.037-.012.025.006.052.056.089.119.174.186.254.041.053.091.1.146.14-.003.004-.005.008-.008.012.08.005.136-.049.203-.072s.106-.066.153-.109c.027,0,.024-.057.01-.091.005-.008.005-.012-.003-.017-.016-.023-.02-.035-.019-.048.002-.001.002-.002.003-.003.005-.004.005-.011.001-.016.003-.005.016-.014.022-.019h0s.009.005.012.002c.016-.014.031-.029.045-.043h.003c.012.019.035.03.054.044.018.014.041.019.063.009,0,.002-.002.004-.001.007.003-.001.004-.005.007-.006.001,0,.003.002.004,0,.009-.007.007-.006.006-.005.006.005.015-.006.025-.025.047-.029.094-.058.123-.105l.107-.169c-.023-.068-.058-.106-.096-.16-.019-.03-.047-.054-.08-.069l-.013.005s.012-.005.016-.011c-.011-.013-.016-.047-.034-.054l-.067-.072c-.029-.017-.046-.055-.078-.07-.032.007-.063.019-.091.035-.038.017-.072.004-.079-.036.005-.004.006-.011.001-.016-.002-.003-.012.003-.015.001-.004-.009-.01-.018-.019-.021.003,0,.004,0,.006,0-.02-.039-.045-.058-.071-.103-.027-.048-.041-.043-.049-.07.022-.022.054-.051.067-.066.004-.003.008-.007.009-.012l.061-.066c.011-.006.019-.018.019-.031.018-.013.03-.032.041-.051h0s.016-.012.016-.012l-.004-.005c.023-.019.032-.05.023-.079.005-.004.01-.009.013-.015l.005-.004.004-.004h0l.042-.035s.002-.008,0-.011m.098,1.207s.01-.004.014-.007l.042.043s-.008.008-.013.012c-.008-.022-.022-.039-.044-.048Zm-.911-.507l.002-.002c.004.008.011.013.016.02-.001-.001-.003-.002-.005-.003l-.013-.015Zm.082-.028h0c-.007-.008-.012-.017-.02-.024h0l.02.024Zm.021.025s0,0,0,0l.01.012h0s-.008-.008-.01-.012Zm.015.017s-.002-.002-.003-.004c.002.002.004.003.005.005,0,0,0,0,0,0,0,0-.001-.001-.002-.002Zm.166-.14s0,0,0-.001c0,0,0,0,0,0,0,0,0,0,0,0Zm-.106.056c.001.006-.002.014-.006.021.006-.007.007-.016.005-.025,0,.001,0,.003.001.004Zm-.022.032s-.001,0-.002-.001l-.045-.054.002-.002c.008.024.023.043.045.057Zm-.275.136s0,0,0,0l.043.051s-.001.001-.002.002c-.004-.024-.018-.043-.041-.052Zm.253-.066c.005.037.028.065.063.078,0,0,0,0,0,0l-.064-.077s.001-.001.002-.002Zm.766.412c-.003-.028-.019-.053-.048-.057h0l.048.057h0Zm-.419-.847h0s0,0,0,0h0Zm.009-.008l.002-.002h0s-.001.001-.002.002h0Zm-.78.653s0,0,0,0l.024.028s-.002,0-.002.001c-.002-.013-.011-.022-.022-.029Zm.8-.575s0,0,0,0c-.004-.002-.009,0-.012.003,0,0-.002.002-.002.002-.001-.025-.01-.046-.027-.06h0s.045.053.045.053l-.002.002h0Zm-.027-.068h0s.043.051.043.051l.009-.007-.043-.051h.002c.008.021.018.044.041.051l.007-.006s-.011.01-.015.014l-.044-.052Zm.115-.025l.005-.005-.005.005h0Zm-.025.028l.002.002-.004.004s0,0,0,.001c0,0-.001,0-.001,0-.001.001-.004.004-.005.005.009-.005.02-.009.017-.022.002-.002.003-.003.004-.005h.001s-.012.015-.012.015Zm.073-.084s.003.009-.007.014l-.004.004-.007.007c.007-.011.012-.023.021-.03,0,.002-.003.004-.003.006Zm.028-.039c.008-.01.018-.019.024-.031h.001c-.006.013-.016.021-.025.031Zm.035-.049c.005-.004.004-.012.007-.017-.003.006,0,.014-.005.02l-.002-.003Z" fill="#e0dd1f"/></g></g><path d="m22.081,38.23c-.815-.246-1.619-.489-2.432-.735.147-.08.295-.16.457-.248.825.249,1.642.496,2.468.745-.173.084-.332.16-.492.238Z" fill="#e42320"/><path d="m15.47,36.329c-.854-.23-1.693-.456-2.544-.685.142-.084.281-.166.431-.255.85.229,1.695.457,2.552.687-.149.085-.291.167-.44.253Z" fill="#e42320"/><path d="m18.821,37.26c-.838-.234-1.667-.466-2.511-.702.145-.083.289-.165.441-.252.844.236,1.676.468,2.522.704-.152.084-.298.165-.452.25Z" fill="#e42320"/><path d="m23.35,38.266c.94.308,1.404.695,1.393,1.171h-.769c-.002-.188-.088-.363-.284-.529-.196-.167-.511-.294-.858-.417.174-.076.343-.149.518-.225Z" fill="#e42320"/><path d="m14.973,42.301c-.09-.104-.17-.198-.25-.291.954-.143,1.898-.284,2.852-.426.094.087.191.178.302.282-.968.145-1.926.288-2.905.435Z" fill="#e42320"/><path d="m13.758,42.135c.077.094.155.188.239.291-.99.117-1.969.232-2.965.349-.072-.101-.139-.196-.209-.295.979-.115,1.952-.23,2.934-.346Z" fill="#e42320"/><path d="m5.873,42.961c.055.098.109.193.168.299-1.008.082-2.009.164-3.026.246-.051-.103-.098-.199-.148-.301,1.002-.082,1.995-.162,3.006-.245Z" fill="#e42320"/><path d="m12.519,35.158c-.157.093-.297.175-.433.255-1.072-.225-1.787-.549-1.921-1.048.255-.009.504-.018.771-.028.097.4.723.643,1.583.821Z" fill="#e42320"/><path d="m10.041,42.88c-1.004.098-1.997.194-3.001.292-.06-.103-.116-.197-.175-.298.994-.097,1.981-.193,2.977-.29.065.097.128.191.198.296Z" fill="#e42320"/><path d="m18.817,41.696c-.108-.093-.213-.183-.309-.266.892-.189,1.773-.376,2.665-.565.124.076.26.159.4.245-.884.225-1.802.413-2.756.587Z" fill="#e42320"/><path d="m22.424,40.867c-.155-.08-.305-.158-.46-.238.738-.238,1.451-.483,1.837-.847.234.034.468.068.7.102-.053.218-1.269.794-2.078.984Z" fill="#e42320"/><path d="m12.47,32.939c.12.094.232.182.349.274-.841.174-1.509.406-1.803.781-.244-.027-.484-.054-.745-.082.356-.458,1.152-.753,2.199-.972Z" fill="#e42320"/><path d="m16.494,32.502c.053.082.101.158.153.238-.99.107-1.967.212-2.953.318-.068-.087-.134-.17-.204-.259,1.004-.1,1.998-.198,3.003-.298Z" fill="#e42320"/><path d="m20.476,32.119c.044.067.084.128.128.195-.989.108-1.97.216-2.965.325-.052-.078-.102-.154-.156-.237.997-.094,1.986-.188,2.994-.283Z" fill="#e42320"/><path d="m23.031,32.121c-.515.032-1.007.062-1.512.094-.04-.06-.078-.118-.121-.182.232-.017.456-.034.681-.05.163-.012.342-.043.487-.027.136.015.237.081.353.124.03.011.061.023.112.041Z" fill="#e42320"/><g><circle cx="15.909" cy="15.037" r="9.821" fill="#e03132"/><path d="m15.91,25.578c-5.813,0-10.541-4.728-10.541-10.541S10.097,4.495,15.91,4.495s10.541,4.728,10.541,10.541-4.728,10.541-10.541,10.541Zm0-19.643c-5.019,0-9.102,4.083-9.102,9.102s4.083,9.102,9.102,9.102,9.102-4.083,9.102-9.102-4.083-9.102-9.102-9.102Z" fill="#9a1915"/></g><g><path d="m11.888,16.538v.348c0,.615-.29.923-.87.923h-.469c-.58,0-.87-.307-.87-.923v-3.586c0-.615.29-.923.87-.923h.469c.58,0,.87.307.87.923v.612h-.726v-.559c0-.212-.109-.318-.326-.318h-.143c-.192,0-.287.106-.287.318v3.48c0,.212.095.318.287.318h.182c.191,0,.287-.106.287-.318v-.295h.726Z" fill="#fff"/><path d="m14.181,17.808h-1.725v-5.431h.726v4.773h.999v.658Z" fill="#fff"/><path d="m14.596,17.808v-5.431h1.8v.658h-1.074v1.649h.953v.658h-.953v1.808h1.074v.658h-1.8Z" fill="#fff"/><path d="m17.608,17.808h-.726v-4.501c0-.62.29-.93.87-.93h.544c.58,0,.87.31.87.93v4.501h-.726v-1.989h-.832v1.989Zm.832-2.648v-1.808c0-.212-.106-.318-.318-.318h-.197c-.212,0-.318.106-.318.318v1.808h.832Z" fill="#fff"/><path d="m19.809,12.377h1.422c.555,0,.832.31.832.93v1.339c0,.474-.143.774-.431.9l.507,2.262h-.689l-.476-2.194h-.439v2.194h-.726v-5.431Zm.726,2.617h.476c.216,0,.325-.131.325-.394v-1.172c0-.262-.109-.393-.325-.393h-.476v1.959Z" fill="#fff"/></g></svg>