<?xml version="1.0" encoding="UTF-8"?><svg id="a" xmlns="http://www.w3.org/2000/svg" viewBox="0 0 64 64"><rect x=".015" y=".002" width="43.985" height="28.472" fill="#b9b6b0"/><g><rect x=".998" y=".999" width="60.498" height="45.127" fill="#fff"/><path d="m62.494,47.124H0V0h62.494v47.124Zm-60.498-1.996h58.502V1.996H1.996v43.132Z" fill="#b9b6b0"/></g><g><g><path d="m53.082,13.64c.007.013.018.018.023.034-.02-.024-.006-.034-.023-.034Z" fill="#2e879e"/><path d="m52.412,7.969c-.006-.008-.017-.01-.026-.006l-.275.23c-.008.007-.005.018.001.026,0,0,.001,0,.002,0,0,0,0,0,0,0h-.002s0,0-.001,0c-.002,0-.002.003-.004.004-.002,0-.005-.002-.007,0l.003.004s-.004.002-.004.004h0c-.024.02-.052.044-.073.061l-.014-.016c.04-.046.084-.09.13-.13l.094-.078s.008-.007.005-.011h-.015s-.034-.042-.034-.042c.004-.003.008-.007.005-.011-.004-.004-.01-.005-.015-.001l-.002.002-.045-.017c-.016-.053-.051-.03-.083-.02l.047-.039h-.015s-.045.036-.045.036c-.01.005-.014-.016-.025-.006l-.178.149-.013-.016-.008-.018.012.015c.008-.048.039-.06.08-.101.021-.021.038-.047.062-.066l.065-.054s.008-.007.005-.011h-.015s-.013-.018-.013-.018l-.227.19h0c.097-.036.181-.103.231-.194l-.039-.019s0-.002,0-.003c-.001-.001-.003,0-.004,0l-.004-.002s-.002.003-.004.003l-.027-.032c-.041.017-.065.046-.103.079l.1-.083-.017-.02c-.009-.011-.023-.013-.037-.014,0-.003,0-.005-.002-.008-.003-.004-.007-.008-.011-.005l-.004.003-.01-.012c-.014-.017-.03-.03-.053-.036.001-.004.003-.007,0-.01-.004-.004-.01-.005-.015-.001l-.041-.048-.027-.016-.002-.002h0s-.039-.022-.039-.022l-.02-.024s.005-.01.001-.015c-.003-.004-.007,0-.011.003l.007-.033s-.003.002-.004.003l-.023-.028.004-.003s.005-.01.001-.015c-.003-.004-.007,0-.011.003l-.004.003c.011-.036-.021-.058-.041-.082-.075.037-.138.093-.193.155h0c.067-.051.132-.104.197-.158v-.013s.014-.012.014-.012v-.015s-.014-.001-.014-.001h0l-.054-.065c-.007-.002-.01.007-.017.007l.013-.011c.004-.017-.01-.019-.02-.024.005-.004.005-.01.001-.015h-.015s-.003.002-.003.002c-.009-.032-.024-.061-.045-.085.001-.001.003-.002.004-.004l-.015-.049.005-.004v-.015s-.009-.005-.014-.001h-.001c-.02-.02-.025-.039-.071-.05l.002-.002-.01-.012-.004.003-.01-.012c-.019.011-.021.035-.041.044-.005.002-.009.004-.013.007.02-.016.034-.037.051-.055l.004-.004-.012-.058.007-.006v-.015s-.012-.001-.012-.001l-.004-.019s.003-.009.006-.012l.108-.09c.008-.007.005-.018-.001-.026l-2.202-2.633c-.007-.008-.018-.013-.026-.006l-.234.196c-.006.005-.005.012-.004.018h-.001s0,0,0,0c0,.002-.003.004-.002.006.002.002.004,0,.006,0,.007.019.022.033.03.051h0s0,0,0,.001c.033.069.067.138.116.196-.001.003.002.005.001.008,0,0-.001,0-.002,0h0s-.002,0-.002,0v-.003s-.003.002-.003.002c-.002,0-.003-.004-.005-.002-.004.004-.008.007-.005.011h0l-.071.06-.026.021h0l-.012.01s0,0,0,0c-.067-.047-.092-.143-.175-.169-.038-.03-.052-.087-.111-.092l-.161-.078c-.011.005-.009.012-.012.018l-.004-.005.016-.014c-.057-.044-.128-.065-.2-.059l-.03-.003c-.04-.007-.08-.022-.124.008l.017.02s-.006.006-.011.006c.005-.009.01-.019-.006-.026-.116-.014-.232.017-.326.087-.015.005-.03.013-.043.022-.004.003-.007.006-.011.009-.016.012-.037.017-.052.03-.259.216-.518.432-.779.644l-.007-.008-.029.024c-.034-.003-.066.005-.097.025l-.011-.014-.029.023.002.002c-.055.013-.107.037-.15.073-.001.001-.004.001-.005.002l-.006-.007-.027.023h0c-.019.005-.039.006-.049.026l-.052.043-.01-.012-.027.023.002.002c-.025-.004-.041.016-.055.028l-.036.03-.02.017-.007-.008-.003.003s-.002-.004-.004-.004c-.003,0-.012.009-.015.009-.053-.021-.058-.054-.135-.124-.069-.062-.115-.15-.2-.193,0,0,.002-.004.001-.004-.002-.002-.005.001-.007,0,0,0,0,0,0,0l-.009-.005c-.013-.005-.018-.019-.034-.022-.065-.028-.076-.067-.03-.126.029-.05.055-.101.077-.154-.02-.065-.088-.098-.109-.163l-.118-.141c-.004-.038-.032-.055-.056-.084-.005.003-.006.008-.011.011l.003-.004c-.021-.054-.059-.099-.108-.129-.086-.086-.135-.203-.246-.261-.112.046-.228.088-.334.142-.094.034-.162.109-.229.181-.04.011-.068.028-.057.039-.003,0-.004.004-.007.004l-.02.017c-.037.035-.043.093-.012.134.01.027.034.043.054.064l-.05-.06c-.008.052.04.076.068.112-.005.006-.009.013-.005.02-.023.021-.03.022-.047.037,0-.008.005-.025-.016-.004-.024.025-.049.048-.073.071-.03.006-.052-.016-.096-.06,0,0,0,.002,0,.002,0-.002-.003-.004-.003-.006-.003-.011-.014-.016-.029-.01-.018-.011-.032.004-.057-.002-.006-.004-.012-.009-.018-.004-.001,0-.002.002-.004.003-.036-.005-.082-.029-.086-.004-.092.07-.19.118-.249.236-.059.118-.175.201-.195.341.043.109.118.182.189.267.126.16.262.312.408.455q.045.045.121.022c.073-.022.131-.08.214-.057v.002s.004.004.004.004c.003.004.009.002.013.003.01.021.02.043.032.064-.004,0-.007-.003-.01,0-.008.007-.013.018-.006.026.004.005.022-.005.028-.002.001.001,0,.003.002.004-.016.047.028.066.047.098.073.087.156.173.199.279-.002.004-.002.007,0,.011-.003.004-.007.007-.009.012l-.023.026-.013.011.002.002-.078.089s0,.004,0,.006c-.012.008-.028.014-.022.033h0l-.015.013.002.002c-.029.022-.049.052-.068.083l-.004-.005-.029.023.009.011s-.003.003-.004.005c-.03.039-.084.064-.052.126-.029.05-.067.093-.112.128-.314.262-.624.529-.938.791h0s-.057.047-.057.047c-.001.003-.006.006-.007.009l.003-.005-.129.108c-.064.028-.112.081-.139.141-.048.072-.105.012-.162.007-.009.022.005.04.012.06-.009-.016-.021-.029-.032-.043-.085-.011-.102.058-.129.108.025.103.113.16.17.236.089.18.23.316.358.469l5.467,6.539c.068.081.124.164.216.217l.139.166.014.016c.016.035.045.038.08.029.03-.029.066-.05.106-.061.001-.056-.013-.147-.035-.156.233-.146.453-.31.661-.49.255-.213.512-.423.767-.635.028-.019.056-.037.088-.049l.002.002.004-.003h0c.048.012.095-.005.134-.034l.002.003.006-.005s.008,0,.011-.003c.059-.014.113-.042.157-.083.002-.001.004-.002.006-.002l.004.005.016-.013s.002,0,.005-.002c.023-.001.044-.011.059-.028l.057-.047v.007s.006.008.006.008l.011.005c.007,0,.033-.022.043-.026.089.064.155.147.223.229.028.025.042.075.091.068.001.002.004.002.005.004,0,.002-.003.006-.002.008h0s-.008.007-.008.007c-.007.006-.007.016-.002.022.002.002.005.003.007,0l.083.044c0,.078-.06.132-.089.194-.032.068-.023.046.01.094.103.162.216.317.34.464.076.097.166.183.266.254-.005.007-.01.015-.015.022.145.009.247-.09.371-.131s.194-.121.279-.199c.049,0,.043-.105.019-.167.009-.014.009-.021-.005-.03-.03-.042-.036-.063-.035-.087.003-.002.003-.003.006-.005.009-.007.01-.02.003-.029.005-.009.028-.025.04-.036h0c.006.008.016.009.022.003.029-.025.056-.052.082-.079h.006c.023.035.065.055.099.081.034.026.074.034.116.017,0,.004-.003.008-.002.012.005-.002.007-.008.012-.011.003-.002.005.003.007.001.017-.012.013-.01.011-.01.011.008.028-.011.045-.046.085-.052.172-.106.224-.192l.196-.308c-.041-.123-.106-.193-.176-.292-.035-.055-.086-.098-.146-.125l-.024.009c.009-.009.021-.01.029-.02-.02-.024-.03-.085-.062-.099l-.123-.131c-.053-.031-.084-.101-.142-.128-.058.013-.114.035-.166.064-.07.031-.132.007-.144-.065.009-.007.01-.021.003-.03-.004-.005-.023.006-.028.002-.006-.017-.019-.033-.036-.039.005,0,.008,0,.01,0-.036-.071-.082-.105-.129-.189-.049-.088-.075-.079-.089-.127.041-.04.098-.094.123-.12.008-.005.014-.012.017-.021l.112-.121c.021-.012.034-.033.035-.057.032-.024.054-.059.074-.094h.001s.029-.022.029-.022l-.007-.008c.041-.035.059-.092.043-.144.01-.007.018-.017.025-.027l.008-.007.008-.007h0l.077-.064c.006-.005.003-.014-.001-.021.191-.162.381-.324.573-.485.048-.04.158-.139.163-.15.002-.006-.017,0-.032.001.029-.019.064-.031.065-.077.017-.019.022-.045.036-.067.019-.026.043-.043.055-.078.006-.017.01-.036.016-.054,0,0,0,0,0,0,0,0,0,0,0,0,.042-.124.076-.255.031-.388,0-.005.004-.008.005-.012-.01-.094-.043-.232-.127-.299,0-.008-.004.004-.005.012-.007-.038-.016-.077-.045-.103,0-.002.002-.002.003-.007l-.097-.132s0,0,0,0l-.003-.004s.015.001.019-.002l.105-.088v-.002c.059.034.102.093.161.129l.02.024.003.004s.008-.007.005-.011h0c.006.001.013.003.02-.002l.234-.196c.007-.006.007-.016.002-.022l-2.202-2.633Zm2.154,2.646c0-.013-.013-.03-.03-.048l.036.043-.006.005Zm-.98,4.197c.008-.006.018-.008.026-.013l.077.079c-.008.007-.015.014-.023.021-.015-.04-.039-.072-.08-.087Zm-1.661-.925l.003-.003c.007.014.02.024.029.037-.002-.003-.006-.003-.009-.006l-.024-.028Zm.15-.05h0c-.013-.015-.022-.032-.037-.044h0l.037.044Zm.039.046s0,0,0,0l.019.022h0c-.004-.009-.014-.014-.019-.022Zm.028.03s-.004-.004-.005-.007c.003.003.007.006.01.01,0,0,0,0,0,0-.001-.001-.003-.003-.004-.004Zm.303-.256s0-.002.001-.002c0,0,0,0,0,.001,0,0,0,0-.001.001Zm-.193.103c.002.011-.004.025-.011.038.012-.013.013-.029.009-.046.001.002.001.005.002.008Zm-.04.058s-.002-.001-.003-.002l-.082-.098.003-.003c.015.044.043.079.082.103Zm-.502.248s0,0,0,0l.078.093s-.002.002-.003.003c-.007-.045-.034-.078-.075-.095Zm.462-.121c.008.067.052.118.114.143,0,0,0,0,0,0l-.117-.14s.002-.002.004-.003Zm1.396.75c-.005-.051-.035-.097-.087-.104h0l.087.104h0Zm-.763-1.545h0s0,0,0,0h0Zm.016-.014l.003-.003h0s-.002.002-.003.003h0Zm-1.423,1.19s0,0,.001,0l.043.052s-.003.001-.004.002c-.003-.024-.02-.039-.04-.053Zm1.459-1.048s-.001,0-.002,0c-.008-.004-.017-.001-.021.006,0,0-.003.003-.004.004-.003-.045-.019-.083-.05-.11h0s.081.097.081.097l-.004.004h0Zm-.049-.125h0s.078.093.078.093l.016-.014-.078-.093.003-.002c.014.04.032.083.075.095l.013-.011c-.007.007-.019.019-.027.026l-.08-.095Zm.21-.045l.01-.008-.009.009h-.001Zm-3.078,2.112h0s.006-.003.008-.007h0l-.008.007Zm-6.164-7.143s-.007.002-.01.005c.002,0,0-.005,0-.005l.006-.005.004.005Zm10.233,3.761c-.01.012-.025.017-.036.027.026-.023.042-.055.065-.083-.013.018-.014.038-.029.056Zm-10.696-3.588c.004.011.009.021.014.032-.005-.005-.01-.007-.015-.011.004-.006,0-.013,0-.02Zm8.43-.262s.002-.002.002-.004c.004.002-.003.006.002.008l.005-.004s0,0,0,0l-.005.004-.003-.004Zm1.983,2.413s0,0,0,0l.016.02h0s-.015-.019-.015-.019Zm-.926-1.263l.011.013c-.005-.002-.008-.009-.013-.01.002,0,.001-.002.003-.003Zm1.009,1.33s-.005.005-.008.007l-.13-.156s.011.003.016.004l.191.146c-.023-.001-.046-.003-.069,0Zm-.018.012l.002.002h0l-.002-.002s0,0,0,0Zm-.066-.147c.011.007.01.002.019.008.004.004.007.009.011.014.014.023.045.033.07.048.007.006.013.014.021.02l.005.006-.126-.097Zm-4.45-5.27h0Zm.267.095s.005.011.007.016c-.019-.025-.035-.051-.054-.078l.02.024c.009.013.018.025.027.038Zm.164.413l.015.018.003-.002s.006.004.008.007l.041.048.038.045s-.003.003-.003.004l-.086-.103c-.006-.01-.018-.014-.025-.022l-.016-.019c.009.008.018.014.026.023Zm1.549,1.845l-.008.007-.015-.017c.005.004.011.006.018.005l.005.006Zm-2.166-3.144l.02-.016s-.007.009-.011.014c-.003.002-.007.001-.009.003Zm-.07.098c-.005.011-.017.016-.021.027l-.007-.008c.009-.007.019-.012.028-.019Zm3.412,3.683c-.015-.015-.028-.033-.044-.046l.004-.003.041.049Zm-.684-.03l-.002-.002s.01-.006.015-.006l-.007-.008.002-.002s0,.008.005.01c-.006,0-.009.005-.014.008Zm-2.552-3.84l2.182,2.609-.084.07c.065-.065.035-.091-.046-.201l-2.03-2.428s.003-.002.004-.003c-.002,0-.003.002-.005.002l-.032-.039.012-.01Zm-4.041,2.341s.007.005.011.008c.008.009.009.022.018.031h0s-.016-.019-.016-.019c-.005-.006-.006-.015-.012-.021Zm-.206-2.065s0,0,0,0c-.007-.054-.037-.091-.087-.114,0,0,0,0,0,0l.086.114Zm.19.131l.004.004s.001.001.002.001c0,.004.002.007.002.011l-.008-.009s0-.005,0-.007Zm.286,1.269s0,0,0,0c.015.072.058.137.132.151h-.007s-.126-.151-.126-.151Zm.323.095s.007.002.009.004c-.018-.009-.036-.011-.053,0,.016-.006.032-.01.044-.005Zm-.165.094h0l.093.111h0c-.022-.044-.052-.084-.093-.111Zm.003-.003s.002-.002.004-.004c.029.042.056.084.104.102l-.004.003c-.03-.038-.062-.075-.104-.102Zm.116-.036s-.003-.006-.005-.009c.018.033.038.064.072.081l-.003.003-.063-.075Zm-.65-1.517s.002-.003.003-.004l.073.087c-.006-.042-.034-.076-.076-.083Zm.078-.073c-.027.01-.047.028-.062.052,0,0,0,0,0,0l.062-.052h0Zm.014,1.621l.007.008s-.004-.006-.008-.008c0,0,0,0,.001,0Zm-1.366,1.781h0Zm-.11.102s0,.005,0,.008c-.003.002-.002.006-.005.009.002-.003-.004-.002-.002-.005.002-.003.005-.007.008-.011Zm9.303,5.237l.003.004-.008.007s0,.002-.001.002c0,0-.002,0-.003.001-.002.002-.007.007-.009.009.016-.009.037-.016.031-.041.004-.003.005-.006.007-.009l.002.003-.022.024Zm.133-.153c.007.008.006.016-.013.025l-.008.007-.012.013c.012-.02.021-.041.038-.055-.002.004-.005.007-.005.011Zm.052-.071c.015-.018.033-.035.044-.056l.002.002c-.012.021-.029.036-.046.054Zm.064-.089c.01-.008.007-.021.013-.031-.006.011-.001.025-.009.036l-.004-.005Zm.824-2.081h0s0,0,0,0h0Z" fill="#2e879e"/></g><path d="m46.959,5.117l-.007-.008-.029.024c-.034-.003-.066.005-.097.025l-.011-.014-.029.023.002.002c-.055.013-.154.074-.155.075l-.006-.007-.027.023h0c-.019.005-.039.006-.049.026l-.052.043-.01-.012-.027.023.002.002c-.025-.004-.041.016-.055.028l-.036.03-.02.017-.007-.008-.003.003s-.002-.004-.004-.004c-.003,0-.012.009-.015.009-.053-.021-.058-.054-.135-.124-.069-.062-.115-.15-.2-.193,0,0,.002-.004.001-.004-.002-.002-.005.001-.007,0,0,0,0,0,0,0l-.009-.005c-.013-.005-.018-.019-.034-.022-.065-.028-.076-.067-.03-.126.029-.05.055-.101.077-.154-.02-.065-.088-.098-.109-.163l-.118-.141c-.004-.038-.032-.055-.056-.084-.005.003-.006.008-.011.011l.003-.004c-.021-.054-.059-.099-.108-.129-.086-.086-.135-.203-.246-.261-.112.046-.228.088-.334.142-.094.034-.162.109-.229.181-.04.011-.068.028-.057.039-.003,0-.004.004-.007.004l-.02.017c-.037.035-.043.093-.012.134.01.027.034.043.054.064l-.05-.06c-.008.052.04.076.068.112-.005.006-.009.013-.005.02-.023.021-.03.022-.047.037,0-.008.005-.025-.016-.004-.024.025-.049.048-.073.071-.03.006-.052-.016-.096-.06,0,0,0,.002,0,.002,0-.002-.003-.004-.003-.006-.003-.011-.014-.016-.029-.01-.018-.011-.032.004-.057-.002-.006-.004-.012-.009-.018-.004-.001,0-.002.002-.004.003-.036-.005-.082-.029-.086-.004-.092.07-.19.118-.249.236-.059.118-.175.201-.195.341.043.109.118.182.189.267.126.16.262.312.408.455q.045.045.121.022c.073-.022.131-.08.214-.057v.002s.004.004.004.004c.003.004.009.002.013.003.01.021.02.043.032.064-.004,0-.007-.003-.01,0-.008.007-.013.018-.006.026.004.005.022-.005.028-.002.001.001,0,.003.002.004-.016.047.028.066.047.098.073.087.156.173.199.279-.002.004-.002.007,0,.011-.003.004-.007.007-.009.012l-.023.026-.013.011.002.002-.078.089s0,.004,0,.006c-.012.008-.028.014-.022.033h0l-.015.013.002.002c-.029.022-.049.052-.068.083l-.033.018.009.011s-.003.003-.004.005c-.03.039-.084.064-.052.126-.029.05-.067.093-.112.128m6.55.405l-.008.007-.015-.017c.005.004.011.006.018.005l.005.006Zm-6.1-.892s.007.005.011.008c.008.009.009.022.018.031h0s-.016-.019-.016-.019c-.005-.006-.006-.015-.012-.021Zm-.206-2.065s0,0,0,0c-.007-.054-.037-.091-.087-.114,0,0,0,0,0,0l.086.114Zm.19.131l.004.004s.001.001.002.001c0,.004.002.007.002.011l-.008-.009s0-.005,0-.007Zm.286,1.269s0,0,0,0c.015.072.058.137.132.151h-.007s-.126-.151-.126-.151Zm.323.095s.007.002.009.004c-.018-.009-.036-.011-.053,0,.016-.006.032-.01.044-.005Zm-.165.094h0l.093.111h0c-.022-.044-.052-.084-.093-.111Zm.003-.003s.002-.002.004-.004c.029.042.056.084.104.102l-.004.003c-.03-.038-.062-.075-.104-.102Zm.116-.036s-.003-.006-.005-.009c.018.033.038.064.072.081l-.003.003-.063-.075Zm-.65-1.517s.002-.003.003-.004l.073.087c-.006-.042-.034-.076-.076-.083Zm.078-.073c-.027.01-.047.028-.062.052,0,0,0,0,0,0l.062-.052h0Zm.014,1.621l.007.008s-.004-.006-.008-.008c0,0,0,0,.001,0Z" fill="#e0dd1f"/><path d="m54.049,10.763s0,0,0,0l-.003-.004s.015.001.019-.002l.105-.088v-.002c.059.034.102.093.161.129l.02.024.003.004s.008-.007.005-.011h0c.006.001.013.003.02-.002l.234-.196c.007-.006.007-.016.002-.022l-2.202-2.633c-.006-.008-.017-.01-.026-.006l-.275.23c-.008.007-.005.018.001.026,0,0,.001,0,.002,0,0,0,0,0,0,0h-.002s0,0-.001,0c-.002,0-.002.003-.004.004-.002,0-.005-.002-.007,0l.003.004s-.004.002-.004.004h0c-.024.02-.052.044-.073.061l-.014-.016c.04-.046.084-.09.13-.13l.094-.078s.008-.007.005-.011h-.015s-.034-.042-.034-.042c.004-.003.008-.007.005-.011-.004-.004-.01-.005-.015-.001l-.002.002-.045-.017c-.016-.053-.051-.03-.083-.02l.047-.039h-.015s-.045.036-.045.036c-.01.005-.014-.016-.025-.006l-.178.149-.013-.016-.008-.018.012.015c.008-.048.039-.06.08-.101.021-.021.038-.047.062-.066l.065-.054s.008-.007.005-.011h-.015s-.013-.018-.013-.018l-.227.19h0c.097-.036.181-.103.231-.194l-.039-.019s0-.002,0-.003c-.001-.001-.003,0-.004,0l-.004-.002s-.002.003-.004.003l-.027-.032c-.041.017-.065.046-.103.079l.1-.083-.017-.02c-.009-.011-.023-.013-.037-.014,0-.003,0-.005-.002-.008-.003-.004-.007-.008-.011-.005l-.004.003-.01-.012c-.014-.017-.03-.03-.053-.036.001-.004.003-.007,0-.01-.004-.004-.01-.005-.015-.001l-.041-.048-.027-.016-.002-.002h0s-.039-.022-.039-.022l-.02-.024s.005-.01.001-.015c-.003-.004-.007,0-.011.003l.007-.033s-.003.002-.004.003l-.023-.028.004-.003s.005-.01.001-.015c-.003-.004-.007,0-.011.003l-.004.003c.011-.036-.021-.058-.041-.082-.075.037-.138.093-.193.155h0c.067-.051.132-.104.197-.158v-.013s.014-.012.014-.012v-.015s-.014-.001-.014-.001h0l-.054-.065c-.007-.002-.01.007-.017.007l.013-.011c.004-.017-.01-.019-.02-.024.005-.004.005-.01.001-.015h-.015s-.003.002-.003.002c-.009-.032-.024-.061-.045-.085.001-.001.003-.002.004-.004l-.015-.049.005-.004v-.015s-.009-.005-.014-.001h-.001c-.02-.02-.025-.039-.071-.05l.002-.002-.01-.012-.004.003-.01-.012c-.019.011-.021.035-.041.044-.005.002-.009.004-.013.007.02-.016.034-.037.051-.055l.004-.004-.012-.058.007-.006v-.015s-.012-.001-.012-.001l-.004-.019s.003-.009.006-.012l.108-.09c.008-.007.005-.018-.001-.026l-2.202-2.633c-.007-.008-.018-.013-.026-.006l-.234.196c-.006.005-.005.012-.004.018h-.001s0,0,0,0c0,.002-.003.004-.002.006.002.002.004,0,.006,0,.007.019.022.033.03.051h0s0,0,0,.001c.033.069.067.138.116.196-.001.003.002.005.001.008,0,0-.001,0-.002,0h0s-.002,0-.002,0v-.003s-.003.002-.003.002c-.002,0-.003-.004-.005-.002-.004.004-.008.007-.005.011h0l-.071.06-.026.021h0l-.012.01s0,0,0,0m5.587,5.898c0-.013-.013-.03-.03-.048l.036.043-.006.005Zm-2.821-2.623s.002-.002.002-.004c.004.002-.003.006.002.008l.005-.004s0,0,0,0l-.005.004-.003-.004Zm1.983,2.413s0,0,0,0l.016.02h0s-.015-.019-.015-.019Zm-.926-1.263l.011.013c-.005-.002-.008-.009-.013-.01.002,0,.001-.002.003-.003Zm1.009,1.33s-.005.005-.008.007l-.13-.156s.011.003.016.004l.191.146c-.023-.001-.046-.003-.069,0Zm-.018.012l.002.002h0l-.002-.002s0,0,0,0Zm-.066-.147c.011.007.01.002.019.008.004.004.007.009.011.014.014.023.045.033.07.048.007.006.013.014.021.02l.005.006-.126-.097Zm-4.45-5.27h0Zm.267.095s.005.011.007.016c-.019-.025-.035-.051-.054-.078l.02.024c.009.013.018.025.027.038Zm.164.413l.015.018.003-.002s.006.004.008.007l.041.048.038.045s-.003.003-.003.004l-.086-.103c-.006-.01-.018-.014-.025-.022l-.016-.019c.009.008.018.014.026.023Zm1.549,1.845l-.008.007-.015-.017c.005.004.011.006.018.005l.005.006Zm-2.166-3.144l.02-.016s-.007.009-.011.014c-.003.002-.007.001-.009.003Zm-.07.098c-.005.011-.017.016-.021.027l-.007-.008c.009-.007.019-.012.028-.019Zm3.412,3.683c-.015-.015-.028-.033-.044-.046l.004-.003.041.049Zm-.684-.03l-.002-.002s.01-.006.015-.006l-.007-.008.002-.002s0,.008.005.01c-.006,0-.009.005-.014.008Zm-2.552-3.84l2.182,2.609-.084.07c.065-.065.035-.091-.046-.201l-2.03-2.428s.003-.002.004-.003c-.002,0-.003.002-.005.002l-.032-.039.012-.01Zm4.847,6.585h0s0,0,0,0h0Z" fill="#bbbab0"/><g><path d="m53.076,13.633c.007.013.018.018.023.034-.02-.024-.006-.034-.023-.034Z" fill="#e0dd1f"/><path d="m51.066,14.557c.028-.019.056-.037.088-.049l.002.002.004-.003h0c.048.012.095-.005.134-.034l.002.003.006-.005s.008,0,.011-.003c.059-.014.113-.042.157-.083.002-.001.004-.002.006-.002l.004.005.016-.013s.002,0,.005-.002c.023-.001.044-.011.059-.028l.057-.047v.007s.006.008.006.008l.011.005c.007,0,.033-.022.043-.026.089.064.155.147.223.229.028.025.042.075.091.068.001.002.004.002.005.004,0,.002-.003.006-.002.008h0s-.008.007-.008.007c-.007.006-.007.016-.002.022.002.002.005.003.007,0l.083.044c0,.078-.06.132-.089.194-.032.068-.023.046.01.094.103.162.216.317.34.464.076.097.166.183.266.254-.005.007-.01.015-.015.022.145.009.247-.09.371-.131s.194-.121.279-.199c.049,0,.043-.105.019-.167.009-.014.009-.021-.005-.03-.03-.042-.036-.063-.035-.087.003-.002.003-.003.006-.005.009-.007.01-.02.003-.029.005-.009.028-.025.04-.036h0c.006.008.016.009.022.003.029-.025.056-.052.082-.079h.006c.023.035.065.055.099.081.034.026.074.034.116.017,0,.004-.003.008-.002.012.005-.002.007-.008.012-.011.003-.002.005.003.007.001.017-.012.013-.01.011-.01.011.008.028-.011.045-.046.085-.052.172-.106.224-.192l.196-.308c-.041-.123-.106-.193-.176-.292-.035-.055-.086-.098-.146-.125l-.024.009c.009-.009.021-.01.029-.02-.02-.024-.03-.085-.062-.099l-.123-.131c-.053-.031-.084-.101-.142-.128-.058.013-.114.035-.166.064-.07.031-.132.007-.144-.065.009-.007.01-.021.003-.03-.004-.005-.023.006-.028.002-.006-.017-.019-.033-.036-.039.005,0,.008,0,.01,0-.036-.071-.082-.105-.129-.189-.049-.088-.075-.079-.089-.127.041-.04.098-.094.123-.12.008-.005.014-.012.017-.021l.112-.121c.021-.012.034-.033.035-.057.032-.024.054-.059.074-.094h.001s.029-.022.029-.022l-.007-.008c.041-.035.059-.092.043-.144.01-.007.018-.017.025-.027l.008-.007.008-.007h0l.077-.064c.006-.005.003-.014-.001-.021m.179,2.2c.008-.006.018-.008.026-.013l.077.079c-.008.007-.015.014-.023.021-.015-.04-.039-.072-.08-.087Zm-1.661-.925l.003-.003c.007.014.02.024.029.037-.002-.003-.006-.003-.009-.006l-.024-.028Zm.15-.05h0c-.013-.015-.022-.032-.037-.044h0l.037.044Zm.039.046s0,0,0,0l.019.022h0c-.004-.009-.014-.014-.019-.022Zm.028.03s-.004-.004-.005-.007c.003.003.007.006.01.01,0,0,0,0,0,0-.001-.001-.003-.003-.004-.004Zm.303-.256s0-.002.001-.002c0,0,0,0,0,.001,0,0,0,0-.001.001Zm-.193.103c.002.011-.004.025-.011.038.012-.013.013-.029.009-.046.001.002.001.005.002.008Zm-.04.058s-.002-.001-.003-.002l-.082-.098.003-.003c.015.044.043.079.082.103Zm-.502.248s0,0,0,0l.078.093s-.002.002-.003.003c-.007-.045-.034-.078-.075-.095Zm.462-.121c.008.067.052.118.114.143,0,0,0,0,0,0l-.117-.14s.002-.002.004-.003Zm1.396.75c-.005-.051-.035-.097-.087-.104h0l.087.104h0Zm-.763-1.545h0s0,0,0,0h0Zm.016-.014l.003-.003h0s-.002.002-.003.003h0Zm-1.423,1.19s0,0,.001,0l.043.052s-.003.001-.004.002c-.003-.024-.02-.039-.04-.053Zm1.459-1.048s-.001,0-.002,0c-.008-.004-.017-.001-.021.006,0,0-.003.003-.004.004-.003-.045-.019-.083-.05-.11h0s.081.097.081.097l-.004.004h0Zm-.049-.125h0s.078.093.078.093l.016-.014-.078-.093.003-.002c.014.04.032.083.075.095l.013-.011c-.007.007-.019.019-.027.026l-.08-.095Zm.21-.045l.01-.008-.009.009h-.001Zm-.046.051l.003.004-.008.007s0,.002-.001.002c0,0-.002,0-.003.001-.002.002-.007.007-.009.009.016-.009.037-.016.031-.041.004-.003.005-.006.007-.009l.002.003-.022.024Zm.133-.153c.007.008.006.016-.013.025l-.008.007-.012.013c.012-.02.021-.041.038-.055-.002.004-.005.007-.005.011Zm.052-.071c.015-.018.033-.035.044-.056l.002.002c-.012.021-.029.036-.046.054Zm.064-.089c.01-.008.007-.021.013-.031-.006.011-.001.025-.009.036l-.004-.005Z" fill="#e0dd1f"/></g></g><path d="m43.61,27.87c-1.486-.601-2.952-1.194-4.434-1.794.268-.195.537-.39.832-.604,1.504.608,2.993,1.21,4.499,1.818-.316.204-.606.392-.897.58Z" fill="#e42320"/><path d="m31.558,23.231c-1.556-.561-3.086-1.113-4.637-1.673.258-.204.512-.404.787-.622,1.55.559,3.091,1.115,4.652,1.678-.271.208-.53.407-.801.616Z" fill="#e42320"/><path d="m37.667,25.503c-1.528-.572-3.039-1.137-4.578-1.713.265-.203.527-.403.803-.615,1.539.575,3.056,1.143,4.597,1.719-.278.206-.543.402-.823.609Z" fill="#e42320"/><path d="m45.923,27.959c1.713.752,2.56,1.697,2.539,2.859h-1.402c-.004-.458-.16-.885-.517-1.291-.357-.407-.931-.717-1.564-1.019.318-.185.625-.363.944-.549Z" fill="#e42320"/><path d="m30.652,37.807c-.164-.255-.31-.483-.456-.709,1.739-.348,3.459-.692,5.2-1.04.17.213.348.435.551.688-1.764.354-3.512.704-5.295,1.062Z" fill="#e42320"/><path d="m28.437,37.402c.141.23.282.46.436.711-1.804.284-3.59.566-5.405.852-.131-.247-.253-.479-.381-.72,1.784-.281,3.558-.561,5.35-.843Z" fill="#e42320"/><path d="m14.062,39.418c.101.24.198.472.306.73-1.838.2-3.662.399-5.516.601-.092-.251-.179-.487-.27-.734,1.827-.199,3.636-.396,5.48-.597Z" fill="#e42320"/><path d="m26.176,20.374c-.287.227-.542.428-.789.623-1.955-.549-3.258-1.341-3.501-2.558.466-.023.919-.045,1.405-.068.177.977,1.318,1.57,2.885,2.003Z" fill="#e42320"/><path d="m21.661,39.221c-1.831.238-3.64.474-5.471.712-.11-.25-.211-.482-.319-.728,1.812-.236,3.612-.471,5.428-.707.118.236.233.465.361.723Z" fill="#e42320"/><path d="m37.658,36.33c-.197-.228-.388-.447-.564-.65,1.625-.461,3.233-.918,4.858-1.379.226.184.473.387.73.597-1.611.549-3.286,1.009-5.025,1.432Z" fill="#e42320"/><path d="m44.234,34.308c-.282-.196-.556-.385-.838-.581,1.346-.582,2.646-1.178,3.349-2.068.426.083.853.166,1.277.248-.096.532-2.313,1.938-3.788,2.401Z" fill="#e42320"/><path d="m26.089,14.957c.218.229.423.445.636.669-1.533.425-2.751.992-3.287,1.905-.445-.066-.883-.131-1.359-.201.649-1.118,2.1-1.838,4.009-2.373Z" fill="#e42320"/><path d="m33.423,13.889c.096.2.185.385.28.582-1.805.26-3.586.517-5.383.776-.124-.211-.244-.414-.372-.631,1.831-.243,3.642-.483,5.475-.726Z" fill="#e42320"/><path d="m40.683,12.956c.08.163.154.313.233.475-1.803.265-3.592.527-5.406.794-.094-.191-.185-.376-.285-.579,1.817-.23,3.62-.458,5.458-.69Z" fill="#e42320"/><path d="m45.34,12.96c-.939.078-1.836.152-2.756.228-.073-.146-.143-.288-.221-.444.423-.042.832-.084,1.242-.123.298-.028.624-.105.887-.065.249.037.432.198.644.304.056.028.112.055.204.1Z" fill="#e42320"/></svg>