<?xml version="1.0" encoding="UTF-8"?><svg id="a" xmlns="http://www.w3.org/2000/svg" viewBox="0 0 64 64"><rect x="3.868" y="3.954" width="60.132" height="45.554" fill="#b9b6b0"/><g><rect x="4.791" y="4.891" width="56.855" height="42.41" fill="#fff"/><path d="m62.583,48.239H3.853V3.953h58.73v44.286Zm-56.854-1.876h54.979V5.829H5.729v40.534Z" fill="#fff"/></g><rect x=".015" y="0" width="60.132" height="45.554" fill="#b9b6b0"/><g><rect x=".938" y=".938" width="56.855" height="42.41" fill="#fff"/><path d="m58.731,44.287H0V0h58.731v44.287Zm-56.856-1.876h54.98V1.876H1.876v40.535Z" fill="#b9b6b0"/></g><path d="m40.985,26.191c-1.397-.565-2.775-1.123-4.167-1.686.252-.183.505-.366.782-.568,1.413.571,2.813,1.137,4.228,1.709-.297.192-.569.368-.843.545Z" fill="#b9b6b0"/><path d="m29.658,21.832c-1.462-.527-2.901-1.046-4.358-1.572.243-.192.481-.38.739-.584,1.457.525,2.904,1.047,4.372,1.577-.255.196-.498.383-.753.579Z" fill="#b9b6b0"/><path d="m35.399,23.967c-1.436-.537-2.856-1.069-4.302-1.61.249-.191.495-.379.755-.578,1.446.541,2.872,1.074,4.321,1.615-.261.193-.51.378-.774.572Z" fill="#b9b6b0"/><path d="m43.159,26.275c1.61.706,2.406,1.594,2.386,2.687h-1.318c-.004-.431-.151-.832-.486-1.213-.336-.382-.875-.674-1.47-.957.299-.174.587-.341.888-.516Z" fill="#b9b6b0"/><path d="m28.807,35.53c-.154-.239-.292-.454-.428-.666,1.635-.327,3.251-.65,4.887-.978.16.2.327.408.518.646-1.658.332-3.3.662-4.976.998Z" fill="#b9b6b0"/><path d="m26.725,35.149c.133.216.265.432.41.669-1.695.267-3.374.532-5.08.801-.123-.232-.238-.45-.358-.677,1.677-.264,3.344-.527,5.027-.793Z" fill="#b9b6b0"/><path d="m13.216,37.044c.094.225.186.443.288.686-1.727.188-3.441.375-5.184.565-.087-.236-.168-.458-.253-.69,1.717-.187,3.417-.373,5.15-.561Z" fill="#b9b6b0"/><path d="m24.601,19.146c-.27.213-.509.402-.742.585-1.837-.516-3.061-1.26-3.29-2.404.438-.021.864-.042,1.321-.064.166.918,1.239,1.476,2.711,1.882Z" fill="#b9b6b0"/><path d="m20.357,36.859c-1.721.224-3.421.445-5.141.669-.103-.235-.198-.453-.299-.684,1.703-.222,3.394-.442,5.101-.665.111.222.219.437.34.68Z" fill="#b9b6b0"/><path d="m35.391,34.142c-.186-.214-.364-.42-.53-.611,1.528-.434,3.038-.862,4.566-1.296.212.173.445.364.686.561-1.514.516-3.088.948-4.722,1.346Z" fill="#b9b6b0"/><path d="m41.571,32.242c-.265-.184-.522-.362-.788-.546,1.265-.547,2.486-1.107,3.147-1.943.4.078.801.156,1.2.233-.091.5-2.174,1.821-3.56,2.256Z" fill="#b9b6b0"/><path d="m24.519,14.056c.205.216.398.418.598.628-1.441.399-2.586.932-3.089,1.791-.418-.062-.83-.123-1.277-.189.609-1.051,1.974-1.727,3.768-2.23Z" fill="#b9b6b0"/><path d="m31.411,13.053c.09.188.174.362.263.547-1.697.244-3.37.486-5.059.729-.117-.199-.229-.389-.349-.593,1.721-.228,3.423-.454,5.145-.682Z" fill="#b9b6b0"/><path d="m38.235,12.175c.075.153.144.294.219.447-1.695.249-3.375.496-5.08.746-.088-.179-.174-.354-.268-.544,1.708-.216,3.402-.43,5.129-.649Z" fill="#b9b6b0"/><path d="m42.611,12.179c-.883.073-1.726.143-2.59.215-.068-.137-.134-.27-.207-.417.397-.039.782-.079,1.167-.115.28-.027.586-.098.834-.061.234.035.406.186.605.285.052.026.105.052.192.094Z" fill="#b9b6b0"/><g><path d="m49.887,12.755c.006.012.017.017.022.032-.019-.022-.006-.032-.022-.032Z" fill="#b9b6b0"/><path d="m49.257,7.425c-.006-.007-.016-.01-.024-.006l-.258.216c-.008.006-.005.017.001.025,0,0,.001,0,.002,0,0,0,0,0,0,0h-.002s0,0-.001,0c-.002,0-.002.002-.003.003-.002,0-.004-.002-.006,0l.003.004s-.004.001-.004.003h0c-.022.019-.049.042-.069.057l-.013-.015c.038-.043.078-.084.123-.122l.088-.074s.008-.006.004-.01h-.014s-.032-.039-.032-.039c.004-.003.008-.006.004-.01-.004-.004-.01-.005-.014-.001l-.002.002-.042-.016c-.015-.049-.048-.028-.078-.019l.044-.037h-.014s-.042.034-.042.034c-.01.005-.013-.015-.024-.006l-.167.14-.013-.015-.008-.017.012.014c.008-.045.037-.056.075-.095.019-.019.036-.044.058-.062l.061-.051s.008-.006.004-.01h-.014s-.013-.016-.013-.016l-.214.179h0c.092-.034.17-.097.217-.182l-.037-.018s0-.002,0-.003c-.001-.001-.002,0-.004,0l-.003-.002s-.002.003-.004.003l-.025-.03c-.039.016-.061.044-.097.074l.094-.078-.016-.019c-.008-.011-.022-.012-.035-.013,0-.002,0-.005-.002-.007-.003-.004-.006-.008-.01-.004l-.004.003-.009-.011c-.013-.016-.028-.029-.05-.034.001-.003.003-.006,0-.009-.003-.004-.01-.005-.014-.001l-.038-.046-.025-.015v-.002s-.002,0-.002,0l-.036-.021-.019-.023s.005-.01.001-.014c-.003-.004-.007,0-.011.003l.006-.031s-.002.002-.004.003l-.022-.026.004-.003s.005-.01.001-.014c-.003-.004-.007,0-.011.003l-.004.003c.01-.034-.02-.054-.039-.077-.071.034-.13.087-.181.146h0c.063-.048.124-.098.185-.149v-.013s.013-.011.013-.011v-.014s-.013-.001-.013-.001h0l-.051-.061c-.007-.002-.01.006-.016.007l.012-.01c.004-.016-.009-.018-.019-.023.004-.004.005-.01.001-.014h-.014s-.003.001-.003.001c-.008-.03-.022-.057-.043-.08.001-.001.002-.002.004-.003l-.014-.046.005-.004v-.014s-.008-.005-.013-.001h-.001c-.019-.019-.024-.036-.067-.047l.002-.002-.01-.011-.004.003-.01-.011c-.017.01-.02.033-.038.041-.004.002-.008.004-.013.006.018-.015.032-.035.048-.051l.004-.003-.012-.055.007-.005v-.014s-.011-.001-.011-.001l-.004-.018s.003-.008.006-.011l.101-.085c.008-.006.005-.017-.001-.025l-2.069-2.475c-.006-.008-.016-.012-.024-.006l-.22.184c-.005.004-.005.011-.004.017h-.001s0,0,0,0c0,.002-.003.004-.001.006.001.002.004,0,.006,0,.007.017.02.031.029.048h0s0,0,0,.001c.031.065.063.129.109.184-.001.002.002.005.001.007,0,0-.001,0-.002,0h0s-.002,0-.002,0v-.003s-.003.002-.003.002c-.002,0-.003-.004-.005-.002-.004.003-.008.006-.004.01h0l-.067.056-.024.02h0l-.011.01s0,0,0,0c-.063-.044-.086-.134-.165-.159-.036-.028-.049-.082-.105-.087l-.152-.073c-.01.005-.009.012-.012.017l-.004-.004.015-.013c-.053-.042-.121-.061-.188-.055l-.028-.002c-.038-.007-.075-.021-.116.007l.016.019s-.006.005-.01.006c.004-.008.01-.018-.006-.024-.109-.013-.218.016-.306.081-.014.005-.028.012-.041.021-.003.003-.007.006-.01.008-.015.012-.034.016-.049.029-.243.203-.486.406-.732.606l-.006-.008-.027.023c-.032-.003-.062.005-.091.023l-.011-.013-.027.022.002.002c-.052.012-.1.035-.141.068-.001.001-.003.001-.005.002l-.006-.007-.026.022h0c-.018.005-.036.006-.046.025l-.048.04-.009-.011-.026.022.002.002c-.023-.003-.039.015-.052.026l-.034.029-.019.016-.006-.008-.003.003s-.002-.003-.004-.003c-.002,0-.011.008-.014.009-.05-.02-.054-.051-.127-.116-.065-.058-.108-.141-.188-.181,0,0,.002-.003.001-.004-.002-.002-.004.001-.007,0,0,0,0,0,0,0l-.008-.004c-.012-.005-.017-.018-.032-.02-.061-.026-.072-.063-.028-.118.027-.047.051-.095.073-.145-.019-.061-.083-.092-.102-.153l-.111-.133c-.004-.036-.031-.052-.053-.078-.005.003-.006.008-.01.01l.002-.004c-.02-.05-.055-.093-.102-.121-.081-.081-.127-.19-.231-.245-.106.043-.215.083-.314.133-.088.032-.152.102-.215.17-.038.01-.064.026-.054.037-.003,0-.003.003-.006.004l-.019.016c-.035.033-.04.087-.011.125.01.025.032.041.05.06l-.047-.056c-.008.049.038.071.064.105-.004.006-.008.012-.004.018-.021.02-.029.021-.044.034,0-.008.004-.024-.015-.004-.022.023-.046.045-.069.067-.028.005-.049-.015-.09-.056,0,0,0,.002,0,.002,0-.002-.003-.004-.002-.006-.003-.011-.013-.015-.027-.009-.017-.01-.03.004-.053-.002-.006-.003-.011-.008-.016-.004-.001,0-.002.002-.003.003-.034-.005-.077-.027-.081-.004-.087.066-.178.111-.234.222-.056.111-.164.189-.183.321.04.102.111.171.178.251.118.151.246.293.383.428q.042.042.114.021c.068-.02.123-.076.201-.054v.002s.004.004.004.004c.003.004.009.002.012.003.009.02.019.041.03.061-.003,0-.007-.003-.009,0-.008.006-.012.017-.006.024.004.005.021-.005.026-.002.001.001,0,.003.002.004-.015.044.026.062.044.092.069.082.147.163.187.262-.001.003-.002.006,0,.01-.003.003-.006.007-.008.011l-.021.024-.013.011.002.002-.073.084s0,.004,0,.006c-.011.007-.026.013-.02.031h0l-.014.012.002.002c-.027.021-.046.049-.064.078l-.004-.005-.027.022.008.01s-.003.003-.004.005c-.028.036-.079.06-.049.119-.027.047-.063.087-.106.121-.295.246-.587.497-.881.743h0s-.053.044-.053.044c-.001.003-.005.006-.006.008l.002-.005-.121.102c-.06.027-.105.076-.131.133-.045.067-.099.012-.152.007-.009.02.005.038.011.056-.008-.015-.019-.027-.03-.04-.08-.011-.096.055-.122.102.023.097.106.15.159.222.083.169.216.297.337.441l5.138,6.146c.063.076.116.154.203.204l.13.156.013.015c.015.033.042.035.075.028.028-.027.062-.047.1-.058.001-.053-.012-.138-.033-.147.219-.137.426-.291.621-.461.239-.2.481-.398.721-.597.026-.017.053-.035.082-.046l.002.002.004-.003h0c.045.012.089-.005.126-.032l.002.002.005-.004s.007,0,.01-.003c.055-.013.106-.04.148-.078.001-.001.004-.001.006-.002l.004.005.015-.012s.002,0,.004-.002c.021-.001.041-.011.055-.027l.053-.044v.007s.006.008.006.008l.01.004c.007,0,.031-.02.041-.024.083.06.145.138.209.215.026.023.039.07.086.064.001.002.003.002.004.003,0,.002-.002.006-.002.007h0s-.008.006-.008.006c-.006.005-.007.015-.002.021.002.002.005.002.007,0l.078.042c0,.073-.056.124-.084.183-.03.064-.021.044.01.089.097.152.203.298.319.436.071.092.156.172.25.239-.004.007-.009.014-.014.021.136.009.232-.085.348-.123s.182-.114.263-.187c.046,0,.04-.098.017-.157.008-.013.009-.02-.004-.029-.028-.04-.034-.06-.033-.081.003-.002.003-.003.005-.005.008-.007.009-.019.002-.027.005-.008.027-.024.037-.033h0c.005.007.015.008.021.003.027-.023.052-.049.077-.074h.005c.021.033.061.052.093.076.032.024.07.032.109.016,0,.004-.003.007-.002.011.005-.002.007-.008.011-.01.002-.001.004.003.007.001.016-.011.012-.009.01-.009.01.008.026-.01.043-.043.08-.049.161-.1.21-.181l.184-.289c-.039-.116-.1-.181-.165-.275-.033-.052-.081-.093-.137-.118l-.023.009c.008-.008.02-.009.027-.019-.019-.023-.028-.08-.058-.093l-.115-.123c-.05-.029-.079-.095-.133-.121-.055.012-.107.033-.156.06-.066.029-.124.007-.135-.061.008-.007.009-.019.002-.028-.004-.005-.021.005-.026.002-.006-.016-.018-.031-.033-.037.005,0,.007,0,.01,0-.034-.067-.077-.099-.121-.177-.046-.083-.071-.074-.084-.119.038-.038.092-.088.115-.113.007-.004.013-.011.016-.02l.105-.114c.019-.011.032-.031.033-.053.031-.023.051-.055.07-.088h.001s.027-.02.027-.02l-.006-.008c.039-.033.055-.086.04-.135.009-.007.017-.016.023-.026l.008-.007.008-.006h0l.072-.06c.006-.005.003-.013-.001-.02.18-.152.358-.305.539-.456.046-.038.149-.131.153-.141.002-.005-.016,0-.03.001.027-.018.06-.029.061-.072.016-.018.021-.043.034-.063.018-.024.041-.041.052-.074.006-.016.009-.034.015-.051,0,0,0,0,0,0,0,0,0,0,0,0,.04-.116.072-.24.029-.365,0-.004.004-.007.005-.012-.01-.089-.04-.218-.119-.281,0-.008-.004.003-.005.012-.006-.036-.015-.072-.042-.097,0-.002.002-.002.003-.006l-.091-.124s0,0,0,0l-.003-.004s.014.001.018-.002l.099-.082v-.002c.056.032.096.087.151.122l.019.022.003.004s.008-.006.004-.01h0c.006.001.013.003.018-.002l.22-.184c.006-.005.007-.015.002-.021l-2.069-2.475Zm2.024,2.487c0-.012-.012-.028-.028-.045l.034.04-.006.005Zm-.921,3.945c.007-.006.017-.008.025-.013l.072.074c-.007.007-.014.013-.022.02-.014-.038-.037-.067-.075-.082Zm-1.561-.869l.003-.003c.007.013.019.023.027.035-.002-.002-.006-.003-.008-.005l-.022-.026Zm.141-.047h0c-.012-.014-.021-.03-.035-.042h0l.035.042Zm.036.043s0,0,0,0l.017.021h0c-.004-.008-.013-.013-.018-.021Zm.026.029s-.004-.004-.004-.006c.003.003.007.006.009.009,0,0,0,0,0,0-.001-.001-.002-.002-.004-.003Zm.285-.24s0-.001.001-.002c0,0,0,0,0,.001,0,0,0,0-.001.001Zm-.182.097c.002.011-.004.023-.011.036.011-.013.012-.027.008-.043.001.002.001.005.002.007Zm-.037.055s-.002-.001-.003-.002l-.077-.093.003-.003c.014.041.04.074.077.097Zm-.472.233s0,0,0,0l.073.087s-.002.002-.003.003c-.007-.042-.032-.073-.071-.09Zm.434-.114c.008.063.049.111.107.134,0,0,0,0,0,0l-.11-.132s.002-.002.003-.003Zm1.312.705c-.004-.048-.033-.092-.082-.098h0l.082.098h0Zm-.717-1.452h0s0,0,0,0h0Zm.015-.013l.003-.003h0s-.002.002-.003.003h0Zm-1.337,1.118s0,0,.001,0l.041.049s-.003.001-.004.002c-.003-.023-.019-.037-.038-.05Zm1.371-.985s-.001,0-.001,0c-.007-.004-.016-.001-.02.006,0,0-.003.003-.004.004-.002-.042-.018-.078-.047-.103h0s.076.091.076.091l-.004.004h0Zm-.046-.117h0s.073.087.073.087l.015-.013-.073-.087.003-.002c.013.038.03.078.07.09l.012-.01c-.007.007-.018.017-.025.025l-.075-.089Zm.197-.042l.009-.008-.008.009h-.001Zm-2.893,1.985h0s.006-.003.008-.006h0l-.008.006Zm-5.793-6.712s-.007.002-.009.005c.002,0,0-.005,0-.005l.005-.004.004.005Zm9.617,3.534c-.01.011-.023.016-.034.025.024-.022.039-.052.061-.078-.013.017-.013.036-.027.053Zm-10.052-3.372c.003.01.008.02.013.03-.005-.005-.01-.007-.014-.011.003-.006,0-.013,0-.019Zm7.923-.247s.002-.002.001-.004c.003.002-.003.006.002.007l.005-.004s0,0,0,0l-.005.004-.003-.004Zm1.864,2.268s0,0,0,0l.015.018h0s-.014-.018-.014-.018Zm-.87-1.187l.01.012c-.005-.002-.007-.008-.013-.01.001,0,.001-.002.002-.002Zm.948,1.25s-.005.005-.008.006l-.122-.147s.01.003.015.004l.18.137c-.021-.001-.043-.003-.064,0Zm-.017.011v.002h.001v-.002h-.001Zm-.062-.138c.011.007.009.002.018.008.004.004.006.009.01.013.014.022.042.031.066.045.007.006.012.014.019.019l.005.006-.118-.091Zm-4.182-4.953h0Zm.251.089s.004.011.006.015c-.018-.024-.033-.048-.051-.073l.019.022c.009.012.017.023.026.036Zm.154.388l.014.017.003-.002s.006.004.008.007l.038.046.036.043s-.003.002-.003.004l-.081-.097c-.006-.009-.016-.013-.024-.021l-.015-.018c.008.007.017.013.024.021Zm1.456,1.734l-.008.006-.014-.016c.005.004.01.005.017.005l.005.005Zm-2.035-2.955l.018-.015s-.006.009-.01.013c-.002.002-.006.001-.009.003Zm-.065.092c-.005.01-.016.015-.02.026l-.006-.007c.008-.006.018-.012.026-.018Zm3.207,3.461c-.014-.014-.026-.031-.042-.043l.003-.003.038.046Zm-.642-.028l-.002-.002s.009-.006.014-.006l-.006-.008.002-.002s0,.008.004.009c-.006,0-.008.005-.013.008Zm-2.398-3.609l2.05,2.452-.079.066c.061-.061.033-.086-.044-.189l-1.908-2.282s.002-.002.004-.003c-.002,0-.003.002-.005.002l-.031-.036.011-.01Zm-3.798,2.2s.007.005.01.008c.008.008.009.021.016.029h0s-.015-.017-.015-.017c-.005-.006-.006-.014-.011-.02Zm-.194-1.94s0,0,0,0c-.006-.051-.034-.086-.081-.107,0,0,0,0,0,0l.081.108Zm.178.123l.003.004s.001.001.002.001c0,.003.001.007.002.01l-.007-.008s0-.005,0-.007Zm.269,1.193s0,0,0,0c.014.068.055.129.124.142h-.007s-.118-.142-.118-.142Zm.303.089s.006.002.009.004c-.017-.009-.034-.01-.05,0,.015-.006.03-.01.042-.005Zm-.155.089h0l.087.104h0c-.02-.042-.049-.078-.087-.104Zm.003-.003s.002-.002.004-.003c.027.039.052.079.098.096l-.004.003c-.028-.036-.058-.07-.098-.096Zm.109-.034s-.003-.006-.005-.008c.017.031.036.06.067.076l-.003.003-.059-.071Zm-.611-1.426s.002-.003.003-.004l.069.082c-.006-.039-.032-.071-.071-.078Zm.074-.069c-.025.009-.045.026-.058.049,0,0,0,0,0,0l.058-.049h0Zm.014,1.523l.006.008s-.004-.006-.008-.007c0,0,0,0,.001,0Zm-1.284,1.673h0Zm-.104.096s0,.005,0,.007c-.003.002-.002.006-.005.008.002-.003-.004-.002-.002-.005.001-.003.004-.007.007-.01Zm8.743,4.922l.003.004-.008.006s0,.002-.001.002c0,0-.002,0-.002.001-.002.002-.007.007-.009.009.015-.009.035-.015.029-.038.003-.003.005-.006.007-.009l.002.002-.021.023Zm.125-.143c.006.008.006.015-.013.023l-.008.006-.011.012c.011-.018.02-.039.036-.052-.002.004-.005.006-.004.01Zm.048-.067c.014-.017.031-.033.041-.053l.002.002c-.011.019-.028.034-.043.05Zm.06-.084c.009-.007.007-.02.012-.029-.006.011-.001.024-.008.034l-.004-.005Zm.775-1.955h0s0,0,0,0h0Z" fill="#b9b6b0"/></g></svg>