<?xml version="1.0" encoding="UTF-8"?><svg id="a" xmlns="http://www.w3.org/2000/svg" width="71.066666" viewBox="-20 0 155.8181 93.0762"
   height="65.400002"><path d="M119.9505,51.1723c3.2246,8.6751,2.7123,18.4315-2.5864,27.1507-8.612,14.2835-27.2269,18.5575-41.5103,9.9455-14.2265-8.827-18.5006-27.4419-9.8886-41.7253,8.612-14.2835,27.2269-18.5575,41.5103-9.9455,3.7432,2.3712,6.8856,5.2734,9.3136,9.1368h0l12.5511-6.5694-32.7843-20.4109,3.2564-5.3492,42.3066,26.1523-22.1684,11.615" fill="#f2f2f1" stroke="#000" stroke-linecap="round" stroke-miterlimit="10" stroke-width=".5"/><circle cx="92.2369" cy="62.0095" r="7.5611" fill="#1d1d1b"/><path d="M13.9655,23.1161L.4473,2.0541,50.1521,.259l.1264,6.4747-38.589,1.517,7.657,11.9189h0c4.0214-2.1561,8.1314-2.9085,12.6143-3.332,16.6736-.4171,30.7357,12.5072,31.1529,29.1808,.4171,16.6736-12.5072,30.7357-29.1808,31.1529-16.6736,.4171-30.7357-12.5072-31.1529-29.1808-.2907-10.1989,4.0912-18.9309,11.1856-24.8744" fill="#f2f2f1" stroke="#000" stroke-linecap="round" stroke-miterlimit="10" stroke-width=".5"/><circle cx="32.9512" cy="47.0121" r="7.5611" fill="#1d1d1b"/><polygon points="50.5503 6.5757 4.5128 8.4214 .5042 1.8391 50.367 .3159 50.5503 6.5757" fill="#1d1d1b"/><polygon points="99.5974 13.3481 142.1759 39.3424 135.4356 43.0791 96.341 18.6973 99.5974 13.3481" fill="#1d1d1b"/><circle cx="38.0479" cy="27.7587" r="4.3921" fill="#39c449"/><circle cx="27.8544" cy="66.2654" r="4.3921" fill="#39c449"/><circle cx="13.6978" cy="41.9154" r="4.3921" fill="#c4c439"/><circle cx="52.2045" cy="52.1088" r="4.3921" fill="#c4c439"/><circle cx="13.8407" cy="52.0139" r="4.3921" fill="#39c449"/><circle cx="19.1043" cy="60.9683" r="4.3921" fill="#c4c439"/><circle cx="18.5728" cy="33.1452" r="4.3921" fill="#39c449"/><circle cx="27.9357" cy="27.6069" r="4.3921" fill="#c4c439"/><circle cx="52.1951" cy="42.0456" r="4.3921" fill="#39c449"/><circle cx="47.0217" cy="33.2175" r="4.3921" fill="#c4c439"/><circle cx="38.2594" cy="66.3181" r="4.3921" fill="#c4c439"/><circle cx="47.2174" cy="60.8493" r="4.3921" fill="#39c449"/><circle cx="97.2767" cy="42.9712" r="4.3921" fill="#c4c439"/><circle cx="87.0833" cy="81.4779" r="4.3921" fill="#c4c439"/><circle cx="72.9266" cy="57.1278" r="4.3921" fill="#39c449"/><circle cx="111.4333" cy="67.3212" r="4.3921" fill="#39c449"/><circle cx="73.0695" cy="67.2263" r="4.3921" fill="#c4c439"/><circle cx="78.3331" cy="76.1807" r="4.3921" fill="#39c449"/><circle cx="77.8017" cy="48.3576" r="4.3921" fill="#c4c439"/><circle cx="87.1645" cy="42.8193" r="4.3921" fill="#39c449"/><circle cx="111.4239" cy="57.2581" r="4.3921" fill="#c4c439"/><circle cx="106.2506" cy="48.4299" r="4.3921" fill="#39c449"/><circle cx="97.4882" cy="81.5305" r="4.3921" fill="#39c449"/><circle cx="106.4462" cy="76.0617" r="4.3921" fill="#c4c439"/></svg>