<?xml version="1.0" encoding="UTF-8" standalone="no"?>
<svg
   width="76.339561"
   height="67.040359"
   viewBox="0 0 76.339561 67.040359"
   version="1.1"
   id="svg26"
   xmlns="http://www.w3.org/2000/svg"
   xmlns:svg="http://www.w3.org/2000/svg"
   xmlns:rdf="http://www.w3.org/1999/02/22-rdf-syntax-ns#"
   xmlns:cc="http://creativecommons.org/ns#"
   xmlns:dc="http://purl.org/dc/elements/1.1/">
  <metadata
     id="metadata32">
    <rdf:RDF>
      <cc:Work
         rdf:about="">
        <dc:format>image/svg+xml</dc:format>
        <dc:type
           rdf:resource="http://purl.org/dc/dcmitype/StillImage" />
        <dc:title />
      </cc:Work>
    </rdf:RDF>
  </metadata>
  <defs
     id="defs30">
    <clipPath
       clipPathUnits="userSpaceOnUse"
       id="clipPath913">
      <rect
         style="opacity:1;fill:#333333;fill-opacity:1;stroke:#333333;stroke-width:1.8518;stroke-linecap:round;stroke-miterlimit:4;stroke-dasharray:none;stroke-dashoffset:0;stroke-opacity:1"
         id="rect915"
         width="16.919491"
         height="33.838982"
         x="48.940678"
         y="15.800847" />
    </clipPath>
  </defs>
  <path
     fill="#ffae1f"
     d="m 9.7729491,65.460088 c -4.649,0 -8.727,-3.84 -8.727,-8.214 0,0 0.014,-5.809 0.014,-9.332 0,-1.347 0.13,-2.725 1.092,-2.725 0.554,0 1.032,0.544 1.579,1.36 0.711,1.062 1.735,1.622 3.13,1.711 0.081,0.005 0.161,0.008 0.239,0.008 1.004,0 1.589,-0.41 2.378,-1.218 1.2319999,-1.264 1.2889999,-3.469 1.3519999,-13.67 -0.062,-10.193 -0.119,-12.396 -1.3519999,-13.661 -0.789,-0.807 -1.373,-1.217 -2.373,-1.217 -0.079,0 -0.16,0.002 -0.244,0.008 -1.393,0.086 -2.417,0.645 -3.13,1.708 -0.547,0.817 -1.025,1.361 -1.58,1.361 -0.961,0 -1.091,-1.378 -1.091,-2.726 0,-3.519 -0.014,-9.3309999 -0.014,-9.3309999 0,-4.376 4.078,-8.214 8.727,-8.214 H 57.320949 c 4.434,0 8.039,3.684 8.039,8.213 0,0 0.106,9.5429999 0.106,9.7489999 0,3.011 0.919,3.011 1.81,3.011 0.978,0 1.312,-0.513 1.771,-1.223 0.521,-0.804 1.176,-1.804 2.921,-1.804 3.013,0 3.022,4.76 3.04,11.966 l 0.008,2.265 -0.008,2.065 c -0.018,7.207 -0.027,11.968 -3.04,11.968 -1.746,0 -2.396,-1.002 -2.921,-1.808 -0.462,-0.711 -0.796,-1.226 -1.771,-1.226 -0.891,0 -1.81,0 -1.81,3.015 0,0.207 -0.106,9.752 -0.106,9.752 0,4.522 -3.605,8.209 -8.039,8.209 z"
     id="path2" />
  <path
     fill="#a8721b"
     d="m 57.320949,1.8080881 c 4.164,0 7.539,3.455 7.539,7.713 0,0 0.105,9.5429999 0.105,9.7489999 0,3.113 0.977,3.511 2.311,3.511 2.564,0 1.824,-3.027 4.691,-3.027 2.762,0 2.502,5.619 2.549,13.531 v 0.2 c -0.047,7.91 0.213,13.533 -2.549,13.533 -2.867,0 -2.127,-3.03 -4.691,-3.03 -1.334,0 -2.311,0.399 -2.311,3.514 0,0.207 -0.105,9.746 -0.105,9.746 0,4.263 -3.375,7.716 -7.539,7.716 H 9.7729491 c -4.164,0 -8.227,-3.453 -8.227,-7.716 0,0 0.014,-5.81 0.014,-9.332 0,-1.685 0.255,-2.226 0.592,-2.226 0.364,0 0.825,0.634 1.164,1.14 0.586,0.875 1.588,1.81 3.514,1.933 0.093,0.006 0.183,0.009 0.271,0.009 1.242,0 1.945,-0.561 2.735,-1.368 1.3849999,-1.42 1.4299999,-3.54 1.4939999,-14.017 -0.065,-10.477 -0.11,-12.595 -1.4949999,-14.015 -0.789,-0.809 -1.491,-1.37 -2.731,-1.37 -0.089,0 -0.18,0.003 -0.275,0.009 -1.926,0.119 -2.928,1.055 -3.514,1.928 -0.339,0.506 -0.8,1.14 -1.165,1.14 -0.337,0 -0.591,-0.542 -0.591,-2.226 0,-3.52 -0.014,-9.3319999 -0.014,-9.3319999 0.001,-4.258 4.063,-7.713 8.228,-7.713 H 57.320949 m 0,-1.00000001 H 9.7729491 c -4.915,0 -9.22699996,4.07100001 -9.22699996,8.71300001 0,0.002 0.014,5.8129999 0.014,9.3319999 0,0.965 0,3.226 1.59099996,3.226 0.862,0 1.482,-0.817 1.995,-1.583 0.396,-0.589 1.111,-1.385 2.745,-1.486 0.074,-0.004 0.145,-0.007 0.213,-0.007 0.833,0 1.294,0.329 2.016,1.067 1.0969999,1.124 1.1479999,3.287 1.2089999,13.32 -0.062,10.023 -0.113,12.188 -1.2099999,13.312 -0.72,0.735 -1.183,1.064 -2.02,1.064 -0.068,0 -0.138,-0.003 -0.21,-0.007 -1.634,-0.104 -2.349,-0.9 -2.743,-1.49 -0.514,-0.767 -1.133,-1.582 -1.995,-1.582 -0.305,0 -1.05,0.116 -1.37799996,1.188 -0.144,0.47 -0.213,1.136 -0.213,2.037 0,3.521 -0.014,9.33 -0.014,9.33 0,4.645 4.31199996,8.717 9.22699996,8.717 H 57.320949 c 4.709,0 8.539,-3.909 8.539,-8.715 0.004,-0.379 0.106,-9.537 0.106,-9.746 0,-2.516 0.55,-2.516 1.31,-2.516 0.672,0 0.873,0.258 1.354,0.997 0.525,0.812 1.322,2.034 3.34,2.034 3.512,0 3.521,-4.96 3.54,-12.467 10e-4,-0.667 0.003,-1.354 0.009,-2.06 v -0.206 c -0.006,-0.711 -0.008,-1.399 -0.009,-2.066 -0.019,-7.506 -0.028,-12.465 -3.54,-12.465 -2.017,0 -2.812,1.222 -3.34,2.031 -0.48,0.74 -0.684,0.996 -1.354,0.996 -0.76,0 -1.31,0 -1.31,-2.511 0,-0.209 -0.104,-9.3709999 -0.106,-9.7599999 0,-4.788 -3.832,-8.69700001 -8.539,-8.69700001 z"
     id="path4" />
  <linearGradient
     id="a"
     gradientUnits="userSpaceOnUse"
     x1="41.970001"
     y1="545.771"
     x2="38.390999"
     y2="564.19397"
     gradientTransform="translate(0.04594914,-544.69191)">
    <stop
       offset="0"
       stop-color="#ff0"
       id="stop6" />
    <stop
       offset="1"
       stop-color="#ff0"
       stop-opacity=".17"
       id="stop8" />
  </linearGradient>
  <path
     opacity="0.5"
     fill="url(#a)"
     d="m 2.5379491,19.339088 c 0.973,-1.426 2.395,-2.207 4.232,-2.32 a 5.56,5.56 0 0 1 0.335,-0.011 c 1.66,0 2.6,0.82 3.4179999,1.659 1.607,1.645 1.707,6.123 1.768,15.424 18.041,4.051 26.215,-1.793 45.276,-1.793 11.388,0 8.021,0.691 15.976,1.906 0.002,-0.242 0.002,-0.476 0.006,-0.722 0,0 -0.01,-1.608 -0.01,-2.284 -0.017,-5.375 -0.022,-10.453 -1.568,-10.453 -0.954,0 -1.219,0.401 -1.692,1.135 -0.521,0.799 -1.231,1.893 -3,1.893 -2.301,0 -3.276,-1.348 -3.276,-4.504 -0.002,-0.191 -0.074,-6.452 -0.108,-9.7499999 0,-3.703 -2.947,-6.719 -6.568,-6.719 H 9.7729491 c -3.797,0 -7.256,3.203 -7.256,6.719 0,0 0.014,5.8109999 0.014,9.3319999 -10e-4,0.185 0.003,0.346 0.007,0.488 z"
     id="path11"
     style="fill:url(#a)" />
  <linearGradient
     id="b"
     gradientUnits="userSpaceOnUse"
     x1="37.985001"
     y1="608.78003"
     x2="37.985001"
     y2="556.422"
     gradientTransform="translate(0.04594914,-544.69191)">
    <stop
       offset=".127"
       stop-color="#ff0"
       stop-opacity=".35"
       id="stop13" />
    <stop
       offset=".267"
       stop-color="#ff0"
       stop-opacity=".16"
       id="stop15" />
    <stop
       offset=".539"
       stop-color="#ff0"
       stop-opacity="0"
       id="stop17" />
  </linearGradient>
  <path
     d="m 9.7729491,63.968088 c -3.797,0 -9.7729491,-3.203 -9.7729491,-6.723 0,0 2.5309491,-5.811 2.5309491,-9.332 0,-0.184 0.004,-0.342 0.008,-0.484 0.973,1.426 2.395,2.207 4.232,2.32 0.115,0.006 0.227,0.01 0.334,0.01 1.66,0 2.6,-0.82 3.4179999,-1.658 1.699,-1.74 1.713,-3.975 1.777,-14.709 -0.064,-10.75 -0.078,-12.984 -1.777,-14.725 -0.8189999,-0.838 -1.7579999,-1.659 -3.4179999,-1.659 -0.107,0 -0.219,0.004 -0.334,0.011 -1.838,0.113 -3.26,0.895 -4.232,2.32 -0.005,-0.161953 -0.00766,-0.32397 -0.008,-0.486 0,-3.521 -0.014,-9.3319999 -0.014,-9.3319999 0,-3.516 3.4655507,-6.4960588 7.256,-6.719 L 57.320949,0.00547794 c 3.614753,-0.21260736 6.567,5.81261016 6.567,9.51561016 0.035,3.2979999 0.107,9.5589999 0.109,9.7499999 0,3.156 0.978,4.504 3.276,4.504 1.769,0 2.479,-1.094 3,-1.893 0.476,-0.733 0.737,-1.135 1.692,-1.135 1.545,0 1.554,5.078 1.567,10.453 0,0.676 2.80761,2.284 2.80761,2.284 -0.008,0.71 -2.80761,1.41 -2.80761,2.085 -0.016,5.373 -0.022,10.453 -1.567,10.453 -0.955,0 -1.219,-0.403 -1.692,-1.135 -0.521,-0.804 -1.231,-1.896 -3,-1.896 -2.301,0 -3.276,1.349 -3.276,4.506 -0.002,0.188 -0.074,6.449 -0.109,9.735 0,3.718 -2.946,6.732 -6.567,6.732 l -45.870034,3.076271 z"
     id="path20"
     fill="url(#b)"
     opacity="0.33"
     style="fill:url(#b)" />
  <path
     fill="#ffffff"
     d="M 9.7729491,4.2060881 H 57.320949 c 3.621,0 6.567,3.014 6.567,6.7189999 0.035,3.295 0.107,9.557 0.109,9.75 0,3.153 0.978,4.504 3.276,4.504 1.769,0 2.479,-1.096 3,-1.895 0.476,-0.732 0.737,-1.136 1.692,-1.136 1.545,0 1.554,5.077 1.567,10.454 0,0.393 0.003,1.1 0.005,1.623 0,-0.25 0,-0.49 0.006,-0.742 0,0 -0.011,-1.608 -0.011,-2.284 -0.016,-5.375 -0.022,-10.453 -1.567,-10.453 -0.955,0 -1.219,0.401 -1.692,1.135 -0.521,0.799 -1.231,1.893 -3,1.893 -2.301,0 -3.276,-1.348 -3.276,-4.504 -0.002,-0.191 -0.074,-6.452 -0.109,-9.7499999 0,-3.703 -2.946,-6.719 -6.567,-6.719 H 9.7729491 c -3.797,0 -7.256,3.203 -7.256,6.719 0,0 0.002,0.5289999 0.002,1.3549999 0.033,-3.4959999 3.474,-6.6689999 7.254,-6.6689999 z"
     id="path22" />
  <path
     opacity="0.69"
     fill="#ffffff"
     d="m 2.5299491,49.318088 c 0,-0.184 0.004,-0.344 0.008,-0.486 0.973,1.428 2.395,2.207 4.232,2.32 0.115,0.008 0.227,0.012 0.334,0.012 1.66,0 2.6,-0.818 3.4179999,-1.66 1.699,-1.736 1.713,-3.977 1.777,-14.711 0,-0.238 -0.002,-0.471 -0.004,-0.699 -0.062,10.129 -0.111,12.307 -1.773,14.01 -0.8179999,0.838 -1.7579999,1.658 -3.4179999,1.658 a 4.83,4.83 0 0 1 -0.334,-0.012 c -1.838,-0.111 -3.26,-0.895 -4.232,-2.318 -0.004,0.145 -0.008,0.303 -0.008,0.482 0,3.523 -0.014,9.332 -0.014,9.332 l 0.002,0.049 c 0.005,-1.928 0.012,-5.514 0.012,-7.977 z"
     id="path24" />
  <g
     id="g935"
     transform="matrix(0.84368483,0,0,0.84368483,2.3986249,6.2094945)">
    <rect
       y="19.575386"
       x="15.658364"
       height="27.410316"
       width="13.705158"
       id="rect839"
       style="opacity:1;fill:none;fill-opacity:1;stroke:#333333;stroke-width:1.21503;stroke-linecap:round;stroke-miterlimit:4;stroke-dasharray:none;stroke-dashoffset:0;stroke-opacity:1" />
    <text
       transform="scale(0.95738727,1.0445094)"
       id="text843"
       y="40.054977"
       x="16.333349"
       style="font-style:normal;font-variant:normal;font-weight:normal;font-stretch:normal;font-size:22.5517px;line-height:1.25;font-family:Lato;-inkscape-font-specification:Lato;letter-spacing:0px;word-spacing:0px;fill:#333333;fill-opacity:1;stroke:none;stroke-width:0.563792"
       xml:space="preserve"><tspan
         style="font-style:normal;font-variant:normal;font-weight:normal;font-stretch:normal;font-family:sans-serif;-inkscape-font-specification:sans-serif;fill:#333333;fill-opacity:1;stroke-width:0.563792"
         y="40.054977"
         x="16.333349"
         id="tspan841">0</tspan></text>
    <rect
       y="19.575386"
       x="29.363523"
       height="27.410316"
       width="13.705158"
       id="rect839-9"
       style="opacity:1;fill:none;fill-opacity:1;stroke:#333333;stroke-width:1.21503;stroke-linecap:round;stroke-miterlimit:4;stroke-dasharray:none;stroke-dashoffset:0;stroke-opacity:1" />
    <text
       transform="scale(0.95738727,1.0445094)"
       id="text843-9"
       y="40.054977"
       x="30.648514"
       style="font-style:normal;font-variant:normal;font-weight:normal;font-stretch:normal;font-size:22.5517px;line-height:1.25;font-family:Lato;-inkscape-font-specification:Lato;letter-spacing:0px;word-spacing:0px;fill:#333333;fill-opacity:1;stroke:none;stroke-width:0.563792"
       xml:space="preserve"><tspan
         style="font-style:normal;font-variant:normal;font-weight:normal;font-stretch:normal;font-family:sans-serif;-inkscape-font-specification:sans-serif;fill:#333333;fill-opacity:1;stroke-width:0.563792"
         y="40.054977"
         x="30.648514"
         id="tspan841-1">0</tspan></text>
    <rect
       y="19.575386"
       x="43.06868"
       height="27.410316"
       width="13.705158"
       id="rect839-1"
       style="opacity:1;fill:none;fill-opacity:1;stroke:#333333;stroke-width:1.21503;stroke-linecap:round;stroke-miterlimit:4;stroke-dasharray:none;stroke-dashoffset:0;stroke-opacity:1" />
    <g
       clip-path="url(#clipPath913)"
       transform="matrix(0.81002189,0,0,0.81002189,3.4256604,6.7763543)"
       id="g895">
      <text
         xml:space="preserve"
         style="font-style:normal;font-variant:normal;font-weight:normal;font-stretch:normal;font-size:27.8408px;line-height:1.25;font-family:Lato;-inkscape-font-specification:Lato;letter-spacing:0px;word-spacing:0px;fill:#333333;fill-opacity:1;stroke:none;stroke-width:0.696021"
         x="51.091885"
         y="27.256964"
         id="text843-8"
         transform="scale(0.95738727,1.0445094)"><tspan
           id="tspan841-3"
           x="51.091885"
           y="27.256964"
           style="font-style:normal;font-variant:normal;font-weight:normal;font-stretch:normal;font-family:sans-serif;-inkscape-font-specification:sans-serif;fill:#333333;fill-opacity:1;stroke-width:0.696021">2</tspan></text>
      <text
         transform="scale(0.95738727,1.0445094)"
         id="text889"
         y="54.1959"
         x="51.091885"
         style="font-style:normal;font-variant:normal;font-weight:normal;font-stretch:normal;font-size:27.8408px;line-height:1.25;font-family:Lato;-inkscape-font-specification:Lato;letter-spacing:0px;word-spacing:0px;fill:#333333;fill-opacity:1;stroke:none;stroke-width:0.696021"
         xml:space="preserve"><tspan
           style="font-style:normal;font-variant:normal;font-weight:normal;font-stretch:normal;font-family:sans-serif;-inkscape-font-specification:sans-serif;fill:#333333;fill-opacity:1;stroke-width:0.696021"
           y="54.1959"
           x="51.091885"
           id="tspan887">3</tspan></text>
    </g>
    <text
       id="text919"
       y="43.148693"
       x="58.139069"
       style="font-style:normal;font-variant:normal;font-weight:normal;font-stretch:normal;font-size:26.468px;line-height:1.25;font-family:Lato;-inkscape-font-specification:Lato;letter-spacing:0px;word-spacing:0px;fill:#333333;fill-opacity:1;stroke:none;stroke-width:0.6617"
       xml:space="preserve"><tspan
         style="stroke-width:0.6617"
         y="43.148693"
         x="58.139069"
         id="tspan917">+</tspan></text>
  </g>
</svg>
