<?xml version="1.0" encoding="UTF-8" standalone="no"?>
<svg
   width="76.89888"
   height="66.205307"
   viewBox="0 0 76.89888 66.205307"
   version="1.1"
   id="svg26"
   xmlns="http://www.w3.org/2000/svg"
   xmlns:svg="http://www.w3.org/2000/svg"
   xmlns:rdf="http://www.w3.org/1999/02/22-rdf-syntax-ns#"
   xmlns:cc="http://creativecommons.org/ns#"
   xmlns:dc="http://purl.org/dc/elements/1.1/">
  <metadata
     id="metadata32">
    <rdf:RDF>
      <cc:Work
         rdf:about="">
        <dc:format>image/svg+xml</dc:format>
        <dc:type
           rdf:resource="http://purl.org/dc/dcmitype/StillImage" />
        <dc:title />
      </cc:Work>
    </rdf:RDF>
  </metadata>
  <defs
     id="defs30">
    <linearGradient
       id="b-8"
       gradientUnits="userSpaceOnUse"
       x1="37.985001"
       y1="608.78003"
       x2="37.985001"
       y2="556.422"
       gradientTransform="translate(0.88493384,-544.97237)">
      <stop
         offset=".127"
         stop-color="#ff0"
         stop-opacity=".35"
         id="stop13-4" />
      <stop
         offset=".267"
         stop-color="#ff0"
         stop-opacity=".16"
         id="stop15-8" />
      <stop
         offset=".539"
         stop-color="#ff0"
         stop-opacity="0"
         id="stop17-1" />
    </linearGradient>
    <linearGradient
       id="a-1"
       gradientUnits="userSpaceOnUse"
       x1="41.970001"
       y1="545.771"
       x2="38.390999"
       y2="564.19397"
       gradientTransform="translate(0.88493384,-544.97237)">
      <stop
         offset="0"
         stop-color="#ff0"
         id="stop6-1" />
      <stop
         offset="1"
         stop-color="#ff0"
         stop-opacity=".17"
         id="stop8-0" />
    </linearGradient>
  </defs>
  <linearGradient
     id="a"
     gradientUnits="userSpaceOnUse"
     x1="41.970001"
     y1="545.771"
     x2="38.390999"
     y2="564.19397"
     gradientTransform="translate(84.73584,-544.05789)">
    <stop
       offset="0"
       stop-color="#ff0"
       id="stop6" />
    <stop
       offset="1"
       stop-color="#ff0"
       stop-opacity=".17"
       id="stop8" />
  </linearGradient>
  <linearGradient
     id="b"
     gradientUnits="userSpaceOnUse"
     x1="37.985001"
     y1="608.78003"
     x2="37.985001"
     y2="556.422"
     gradientTransform="translate(84.73584,-544.05789)">
    <stop
       offset=".127"
       stop-color="#ff0"
       stop-opacity=".35"
       id="stop13" />
    <stop
       offset=".267"
       stop-color="#ff0"
       stop-opacity=".16"
       id="stop15" />
    <stop
       offset=".539"
       stop-color="#ff0"
       stop-opacity="0"
       id="stop17" />
  </linearGradient>
  <path
     style="fill:#ffae1f"
     d="m 10.611934,65.179628 c -4.6490002,0 -8.7270002,-3.84 -8.7270002,-8.214 0,0 0.014,-5.809 0.014,-9.332 0,-1.347 0.13,-2.725 1.092,-2.725 0.554,0 1.032,0.544 1.579,1.36 0.711,1.062 1.735,1.622 3.13,1.711 0.081,0.005 0.161,0.008 0.239,0.008 1.004,0 1.589,-0.41 2.3780002,-1.218 1.232,-1.264 1.289,-3.469 1.352,-13.67 -0.062,-10.193 -0.119,-12.396 -1.352,-13.661 -0.7890002,-0.807 -1.3730002,-1.217 -2.3730002,-1.217 -0.079,0 -0.16,0.002 -0.244,0.008 -1.393,0.086 -2.417,0.645 -3.13,1.708 -0.547,0.817 -1.025,1.361 -1.58,1.361 -0.961,0 -1.091,-1.378 -1.091,-2.726 0,-3.519 -0.014,-9.3309998 -0.014,-9.3309998 0,-4.376 4.078,-8.214 8.7270002,-8.214 h 47.548 c 4.434,0 8.038999,3.684 8.038999,8.213 0,0 0.106,9.5429998 0.106,9.7489998 0,3.011 0.919,3.011 1.81,3.011 0.978,0 1.312,-0.513 1.771,-1.223 0.521,-0.804 1.176,-1.804 2.921,-1.804 3.013,0 3.022,4.76 3.04,11.966 l 0.008,2.265 -0.008,2.065 c -0.018,7.207 -0.027,11.968 -3.04,11.968 -1.746,0 -2.396,-1.002 -2.921,-1.808 -0.462,-0.711 -0.796,-1.226 -1.771,-1.226 -0.891,0 -1.81,0 -1.81,3.015 0,0.207 -0.106,9.752 -0.106,9.752 0,4.522 -3.604999,8.209 -8.038999,8.209 z"
     id="path2-1" />
  <path
     style="fill:#a8721b"
     d="m 58.159934,1.5276282 c 4.164,0 7.538999,3.455 7.538999,7.713 0,0 0.105,9.5429998 0.105,9.7489998 0,3.113 0.977,3.511 2.311,3.511 2.564,0 1.824,-3.027 4.691,-3.027 2.762,0 2.502,5.619 2.549,13.531 v 0.2 c -0.047,7.91 0.213,13.533 -2.549,13.533 -2.867,0 -2.127,-3.03 -4.691,-3.03 -1.334,0 -2.311,0.399 -2.311,3.514 0,0.207 -0.105,9.746 -0.105,9.746 0,4.263 -3.374999,7.716 -7.538999,7.716 h -47.548 c -4.1640002,0 -8.2270002,-3.453 -8.2270002,-7.716 0,0 0.014,-5.81 0.014,-9.332 0,-1.685 0.255,-2.226 0.592,-2.226 0.364,0 0.825,0.634 1.164,1.14 0.586,0.875 1.588,1.81 3.514,1.933 0.093,0.006 0.183,0.009 0.271,0.009 1.242,0 1.945,-0.561 2.7350002,-1.368 1.385,-1.42 1.43,-3.54 1.494,-14.017 -0.065,-10.477 -0.11,-12.595 -1.495,-14.015 -0.7890002,-0.809 -1.4910002,-1.37 -2.7310002,-1.37 -0.089,0 -0.18,0.003 -0.275,0.009 -1.926,0.119 -2.928,1.055 -3.514,1.928 -0.339,0.506 -0.8,1.14 -1.165,1.14 -0.337,0 -0.591,-0.542 -0.591,-2.226 0,-3.52 -0.014,-9.3319998 -0.014,-9.3319998 0.001,-4.258 4.063,-7.713 8.2280002,-7.713 h 47.548 m 0,-1.00000004 h -47.548 c -4.9150002,0 -9.2270002,4.07100004 -9.2270002,8.71300004 0,0.002 0.014,5.8129998 0.014,9.3319998 0,0.965 0,3.226 1.591,3.226 0.862,0 1.482,-0.817 1.995,-1.583 0.396,-0.589 1.111,-1.385 2.745,-1.486 0.074,-0.004 0.145,-0.007 0.213,-0.007 0.833,0 1.294,0.329 2.016,1.067 1.0970002,1.124 1.1480002,3.287 1.2090002,13.32 -0.062,10.023 -0.113,12.188 -1.2100002,13.312 -0.72,0.735 -1.183,1.064 -2.02,1.064 -0.068,0 -0.138,-0.003 -0.21,-0.007 -1.634,-0.104 -2.349,-0.9 -2.743,-1.49 -0.514,-0.767 -1.133,-1.582 -1.995,-1.582 -0.305,0 -1.05,0.116 -1.378,1.188 -0.144,0.47 -0.213,1.136 -0.213,2.037 0,3.521 -0.014,9.33 -0.014,9.33 0,4.645 4.312,8.717 9.2270002,8.717 h 47.548 c 4.709,0 8.538999,-3.909 8.538999,-8.715 0.004,-0.379 0.106,-9.537 0.106,-9.746 0,-2.516 0.55,-2.516 1.31,-2.516 0.672,0 0.873,0.258 1.354,0.997 0.525,0.812 1.322,2.034 3.34,2.034 3.512,0 3.521,-4.96 3.54,-12.467 10e-4,-0.667 0.003,-1.354 0.009,-2.06 v -0.206 c -0.006,-0.711 -0.008,-1.399 -0.009,-2.066 -0.019,-7.506 -0.028,-12.465 -3.54,-12.465 -2.017,0 -2.812,1.222 -3.34,2.031 -0.48,0.74 -0.684,0.996 -1.354,0.996 -0.76,0 -1.31,0 -1.31,-2.511 0,-0.209 -0.104,-9.3709998 -0.106,-9.7599998 0,-4.788 -3.831999,-8.69700004 -8.538999,-8.69700004 z"
     id="path4-1" />
  <path
     style="opacity:0.5;fill:url(#a-1)"
     d="m 3.3769338,19.058628 c 0.973,-1.426 2.395,-2.207 4.232,-2.32 a 5.56,5.56 0 0 1 0.335,-0.011 c 1.66,0 2.6000002,0.82 3.4180002,1.659 1.607,1.645 1.707,6.123 1.768,15.424 18.041,4.051 26.215,-1.793 45.276,-1.793 11.387999,0 8.020999,0.691 15.975999,1.906 0.002,-0.242 0.002,-0.476 0.006,-0.722 0,0 -0.01,-1.608 -0.01,-2.284 -0.017,-5.375 -0.022,-10.453 -1.568,-10.453 -0.954,0 -1.219,0.401 -1.692,1.135 -0.521,0.799 -1.231,1.893 -3,1.893 -2.301,0 -3.276,-1.348 -3.276,-4.504 -0.002,-0.191 -0.074,-6.452 -0.108,-9.7499998 0,-3.703 -2.946999,-6.719 -6.567999,-6.719 h -47.554 c -3.7970002,0 -7.2560002,3.203 -7.2560002,6.719 0,0 0.014,5.8109998 0.014,9.3319998 -10e-4,0.185 0.003,0.346 0.007,0.488 z"
     id="path11-9" />
  <path
     style="opacity:0.33;fill:url(#b-8)"
     d="m 10.611934,63.687628 c -3.7970002,0 -7.2560002,-3.203 -7.2560002,-6.723 0,0 0.014,-5.811 0.014,-9.332 0,-0.184 0.004,-0.342 0.008,-0.484 0.973,1.426 2.395,2.207 4.232,2.32 0.115,0.006 0.227,0.01 0.334,0.01 1.66,0 2.6000002,-0.82 3.4180002,-1.658 1.699,-1.74 1.713,-3.975 1.777,-14.709 -0.064,-10.75 -0.078,-12.984 -1.777,-14.725 -0.819,-0.838 -1.7580002,-1.659 -3.4180002,-1.659 -0.107,0 -0.219,0.004 -0.334,0.011 -1.838,0.113 -3.26,0.895 -4.232,2.32 -0.005,-0.161953 -0.0077,-0.32397 -0.008,-0.486 0,-3.521 -3.36993195625,-9.6116608 -3.36993195625,-9.6116608 0,-3.516 6.82024095625,-6.2386262 10.61193215625,-6.439339 l 47.548,-2.51694915 c 3.615937,-0.19140936 6.566999,5.53294915 6.566999,9.23594915 0.035,3.2979998 0.107,9.5589998 0.109,9.7499998 0,3.156 0.978,4.504 3.276,4.504 1.769,0 2.479,-1.094 3,-1.893 0.476,-0.733 0.737,-1.135 1.692,-1.135 1.545,0 1.554,5.078 1.567,10.453 0,0.676 2.527949,2.284 2.527949,2.284 -0.008,0.71 -2.527949,1.41 -2.527949,2.085 -0.016,5.373 -0.022,10.453 -1.567,10.453 -0.955,0 -1.219,-0.403 -1.692,-1.135 -0.521,-0.804 -1.231,-1.896 -3,-1.896 -2.301,0 -3.276,1.349 -3.276,4.506 -0.002,0.188 -0.074,6.449 -0.109,9.735 0,3.718 -3.230783,9.441488 -6.84666,9.248949 L 10.611934,63.683628 Z"
     id="path20-0" />
  <path
     style="fill:#ffffff"
     d="m 10.611934,3.9256282 h 47.548 c 3.621,0 6.566999,3.014 6.566999,6.7189998 0.035,3.295 0.107,9.557 0.109,9.75 0,3.153 0.978,4.504 3.276,4.504 1.769,0 2.479,-1.096 3,-1.895 0.476,-0.732 0.737,-1.136 1.692,-1.136 1.545,0 1.554,5.077 1.567,10.454 0,0.393 0.003,1.1 0.005,1.623 0,-0.25 0,-0.49 0.006,-0.742 0,0 -0.011,-1.608 -0.011,-2.284 -0.016,-5.375 -0.022,-10.453 -1.567,-10.453 -0.955,0 -1.219,0.401 -1.692,1.135 -0.521,0.799 -1.231,1.893 -3,1.893 -2.301,0 -3.276,-1.348 -3.276,-4.504 -0.002,-0.191 -0.074,-6.452 -0.109,-9.7499998 0,-3.703 -2.945999,-6.719 -6.566999,-6.719 h -47.548 c -3.7970002,0 -7.2560002,3.203 -7.2560002,6.719 0,0 0.002,0.529 0.002,1.3549998 0.033,-3.4959998 3.474,-6.6689998 7.2540002,-6.6689998 z"
     id="path22-5" />
  <path
     style="opacity:0.69;fill:#ffffff"
     d="m 3.3689338,49.037628 c 0,-0.184 0.004,-0.344 0.008,-0.486 0.973,1.428 2.395,2.207 4.232,2.32 0.115,0.008 0.227,0.012 0.334,0.012 1.66,0 2.6000002,-0.818 3.4180002,-1.66 1.699,-1.736 1.713,-3.977 1.777,-14.711 0,-0.238 -0.002,-0.471 -0.004,-0.699 -0.062,10.129 -0.111,12.307 -1.773,14.01 -0.818,0.838 -1.7580002,1.658 -3.4180002,1.658 a 4.83,4.83 0 0 1 -0.334,-0.012 c -1.838,-0.111 -3.26,-0.895 -4.232,-2.318 -0.004,0.145 -0.008,0.303 -0.008,0.482 0,3.523 -0.014,9.332 -0.014,9.332 l 0.002,0.049 c 0.005,-1.928 0.012,-5.514 0.012,-7.977 z"
     id="path24-0" />
  <g
     id="g1147"
     transform="translate(89.284094,0.94211119)">
    <rect
       y="21.502378"
       x="-68.287506"
       height="23.125668"
       width="11.562834"
       id="rect839-7"
       style="opacity:1;fill:none;fill-opacity:1;stroke:#333333;stroke-width:1.0251;stroke-linecap:round;stroke-miterlimit:4;stroke-dasharray:none;stroke-dashoffset:0;stroke-opacity:1" />
    <text
       transform="scale(0.95738727,1.0445094)"
       id="text843-2"
       y="38.568195"
       x="-71.345467"
       style="font-style:normal;font-variant:normal;font-weight:normal;font-stretch:normal;font-size:19.0265px;line-height:1.25;font-family:Lato;-inkscape-font-specification:Lato;letter-spacing:0px;word-spacing:0px;fill:#333333;fill-opacity:1;stroke:none;stroke-width:0.475663"
       xml:space="preserve"><tspan
         style="font-style:normal;font-variant:normal;font-weight:normal;font-stretch:normal;font-family:sans-serif;-inkscape-font-specification:sans-serif;fill:#333333;fill-opacity:1;stroke-width:0.475663"
         y="38.568195"
         x="-71.345467"
         id="tspan841-6">0</tspan></text>
    <rect
       y="21.502378"
       x="-56.72467"
       height="23.125668"
       width="11.562834"
       id="rect839-9-6"
       style="opacity:1;fill:none;fill-opacity:1;stroke:#333333;stroke-width:1.0251;stroke-linecap:round;stroke-miterlimit:4;stroke-dasharray:none;stroke-dashoffset:0;stroke-opacity:1" />
    <text
       transform="scale(0.95738727,1.0445094)"
       id="text843-9-8"
       y="38.568195"
       x="-59.267982"
       style="font-style:normal;font-variant:normal;font-weight:normal;font-stretch:normal;font-size:19.0265px;line-height:1.25;font-family:Lato;-inkscape-font-specification:Lato;letter-spacing:0px;word-spacing:0px;fill:#333333;fill-opacity:1;stroke:none;stroke-width:0.475663"
       xml:space="preserve"><tspan
         style="font-style:normal;font-variant:normal;font-weight:normal;font-stretch:normal;font-family:sans-serif;-inkscape-font-specification:sans-serif;fill:#333333;fill-opacity:1;stroke-width:0.475663"
         y="38.568195"
         x="-59.267982"
         id="tspan841-1-8">0</tspan></text>
    <rect
       y="21.502377"
       x="-45.161835"
       height="23.125668"
       width="11.562834"
       id="rect839-9-6-0"
       style="opacity:1;fill:none;fill-opacity:1;stroke:#333333;stroke-width:1.0251;stroke-linecap:round;stroke-miterlimit:4;stroke-dasharray:none;stroke-dashoffset:0;stroke-opacity:1" />
    <text
       transform="scale(0.95738727,1.0445094)"
       id="text843-9-8-5"
       y="38.568192"
       x="-47.190495"
       style="font-style:normal;font-variant:normal;font-weight:normal;font-stretch:normal;font-size:19.0265px;line-height:1.25;font-family:Lato;-inkscape-font-specification:Lato;letter-spacing:0px;word-spacing:0px;fill:#333333;fill-opacity:1;stroke:none;stroke-width:0.475663"
       xml:space="preserve"><tspan
         style="font-style:normal;font-variant:normal;font-weight:normal;font-stretch:normal;font-family:sans-serif;-inkscape-font-specification:sans-serif;fill:#333333;fill-opacity:1;stroke-width:0.475663"
         y="38.568192"
         x="-47.190495"
         id="tspan841-1-8-5">0</tspan></text>
  </g>
</svg>
