<?xml version="1.0" encoding="UTF-8"?><svg xmlns="http://www.w3.org/2000/svg"  xmlns:xlink="http://www.w3.org/1999/xlink"    width="76.339561"
   height="67.040359"
   viewBox="0 0 76.339561 67.040359"><defs><linearGradient id="linear-gradient" x1="41.97" y1="-478.5" x2="38.39" y2="-496.92" gradientTransform="translate(0 -477.72) scale(1 -1)" gradientUnits="userSpaceOnUse"><stop offset="0" stop-color="#ff0"/><stop offset="1" stop-color="#ff0" stop-opacity=".17"/></linearGradient><linearGradient id="linear-gradient-2" x1="37.98" y1="-541.5" x2="37.98" y2="-489.15" gradientTransform="translate(0 -477.72) scale(1 -1)" gradientUnits="userSpaceOnUse"><stop offset=".13" stop-color="#ff0" stop-opacity=".35"/><stop offset=".27" stop-color="#ff0" stop-opacity=".16"/><stop offset=".54" stop-color="#ff0" stop-opacity="0"/></linearGradient></defs><g id="Layer_1"><path d="M9.73,65.15c-4.65,0-8.73-3.84-8.73-8.21,0,0,.01-5.81.01-9.33,0-1.35.13-2.72,1.09-2.72.55,0,1.03.54,1.58,1.36.71,1.06,1.74,1.62,3.13,1.71.08,0,.16,0,.24,0,1,0,1.59-.41,2.38-1.22,1.23-1.26,1.29-3.47,1.35-13.67-.06-10.19-.12-12.4-1.35-13.66-.79-.81-1.37-1.22-2.37-1.22-.08,0-.16,0-.24,0-1.39.09-2.42.65-3.13,1.71-.55.82-1.03,1.36-1.58,1.36-.96,0-1.09-1.38-1.09-2.73,0-3.52-.01-9.33-.01-9.33C1,4.84,5.08,1,9.73,1h47.55c4.43,0,8.04,3.68,8.04,8.21,0,0,.11,9.54.11,9.75,0,3.01.92,3.01,1.81,3.01.98,0,1.31-.51,1.77-1.22.52-.8,1.18-1.8,2.92-1.8,3.01,0,3.02,4.76,3.04,11.97v2.26s0,2.06,0,2.06c-.02,7.21-.03,11.97-3.04,11.97-1.75,0-2.4-1-2.92-1.81-.46-.71-.8-1.23-1.77-1.23-.89,0-1.81,0-1.81,3.01,0,.21-.11,9.75-.11,9.75,0,4.52-3.6,8.21-8.04,8.21,0,0-47.55,0-47.55,0Z" style="fill:#ffae1f;"/><path d="M57.28,1.5c4.16,0,7.54,3.45,7.54,7.71,0,0,.11,9.54.11,9.75,0,3.11.98,3.51,2.31,3.51,2.56,0,1.82-3.03,4.69-3.03s2.5,5.62,2.55,13.53v.2c-.05,7.91.21,13.53-2.55,13.53s-2.13-3.03-4.69-3.03c-1.33,0-2.31.4-2.31,3.51,0,.21-.11,9.75-.11,9.75,0,4.26-3.38,7.72-7.54,7.72H9.73c-4.16,0-8.23-3.45-8.23-7.72,0,0,.01-5.81.01-9.33,0-1.69.25-2.23.59-2.23.36,0,.83.63,1.16,1.14.59.88,1.59,1.81,3.51,1.93.09,0,.18,0,.27,0,1.24,0,1.95-.56,2.74-1.37,1.39-1.42,1.43-3.54,1.49-14.02-.06-10.48-.11-12.6-1.49-14.01-.79-.81-1.49-1.37-2.73-1.37-.09,0-.18,0-.28,0-1.93.12-2.93,1.06-3.51,1.93-.34.51-.8,1.14-1.16,1.14-.34,0-.59-.54-.59-2.23,0-3.52-.01-9.33-.01-9.33,0-4.26,4.06-7.71,8.23-7.71h47.55M57.28.5H9.73C4.81.5.5,4.57.5,9.21c0,0,.01,5.81.01,9.33,0,.97,0,3.23,1.59,3.23.86,0,1.48-.82,1.99-1.58.4-.59,1.11-1.39,2.74-1.49.07,0,.14,0,.21,0,.83,0,1.29.33,2.02,1.07,1.1,1.12,1.15,3.29,1.21,13.32-.06,10.02-.11,12.19-1.21,13.31-.72.74-1.18,1.06-2.02,1.06-.07,0-.14,0-.21,0-1.63-.1-2.35-.9-2.74-1.49-.51-.77-1.13-1.58-1.99-1.58-.31,0-1.05.12-1.38,1.19-.14.47-.21,1.14-.21,2.04,0,3.52-.01,9.33-.01,9.33,0,4.65,4.31,8.72,9.23,8.72h47.55c4.71,0,8.54-3.91,8.54-8.72,0-.38.11-9.54.11-9.75,0-2.52.55-2.52,1.31-2.52.67,0,.87.26,1.35,1,.53.81,1.32,2.03,3.34,2.03,3.51,0,3.52-4.96,3.54-12.47,0-.67,0-1.35,0-2.06v-.21c0-.71,0-1.4,0-2.07-.02-7.51-.03-12.47-3.54-12.47-2.02,0-2.81,1.22-3.34,2.03-.48.74-.68,1-1.35,1-.76,0-1.31,0-1.31-2.51,0-.21-.1-9.37-.11-9.76,0-4.79-3.83-8.7-8.54-8.7Z" style="fill:#a8721b;"/><path d="M2.49,19.03c.97-1.43,2.39-2.21,4.23-2.32.11,0,.22-.01.34-.01,1.66,0,2.6.82,3.42,1.66,1.61,1.65,1.71,6.12,1.77,15.42,18.04,4.05,26.21-1.79,45.28-1.79,11.39,0,8.02.69,15.98,1.91,0-.24,0-.48,0-.72,0,0-.01-1.61-.01-2.28-.02-5.38-.02-10.45-1.57-10.45-.95,0-1.22.4-1.69,1.14-.52.8-1.23,1.89-3,1.89-2.3,0-3.28-1.35-3.28-4.5,0-.19-.07-6.45-.11-9.75,0-3.7-2.95-6.72-6.57-6.72H9.73c-3.8,0-7.26,3.2-7.26,6.72,0,0,.01,5.81.01,9.33,0,.18,0,.35,0,.49Z" style="fill:url(#linear-gradient); isolation:isolate; opacity:.5;"/><path d="M9.73,63.66c-3.8,0-7.26-3.2-7.26-6.72,0,0,.01-5.81.01-9.33,0-.18,0-.34,0-.48.97,1.43,2.39,2.21,4.23,2.32.11,0,.23,0,.33,0,1.66,0,2.6-.82,3.42-1.66,1.7-1.74,1.71-3.97,1.78-14.71-.06-10.75-.08-12.98-1.78-14.73-.82-.84-1.76-1.66-3.42-1.66-.11,0-.22,0-.33.01-1.84.11-3.26.9-4.23,2.32,0-.16,0-.32,0-.49,0-3.52-.01-9.33-.01-9.33,0-3.52,3.46-6.72,7.26-6.72h47.55c3.62,0,6.57,3.02,6.57,6.72.03,3.3.11,9.56.11,9.75,0,3.16.98,4.5,3.28,4.5,1.77,0,2.48-1.09,3-1.89.48-.73.74-1.14,1.69-1.14,1.54,0,1.55,5.08,1.57,10.45,0,.68.01,2.28.01,2.28,0,.71-.01,1.41-.01,2.08-.02,5.37-.02,10.45-1.57,10.45-.96,0-1.22-.4-1.69-1.13-.52-.8-1.23-1.9-3-1.9-2.3,0-3.28,1.35-3.28,4.51,0,.19-.07,6.45-.11,9.74,0,3.72-2.95,6.73-6.57,6.73H9.73Z" style="fill:url(#linear-gradient-2); isolation:isolate; opacity:.33;"/><path d="M9.73,3.9h47.55c3.62,0,6.57,3.01,6.57,6.72.03,3.3.11,9.56.11,9.75,0,3.15.98,4.5,3.28,4.5,1.77,0,2.48-1.1,3-1.9.48-.73.74-1.14,1.69-1.14,1.54,0,1.55,5.08,1.57,10.45,0,.39,0,1.1,0,1.62,0-.25,0-.49,0-.74,0,0-.01-1.61-.01-2.28-.02-5.38-.02-10.45-1.57-10.45-.96,0-1.22.4-1.69,1.14-.52.8-1.23,1.89-3,1.89-2.3,0-3.28-1.35-3.28-4.5,0-.19-.07-6.45-.11-9.75,0-3.7-2.95-6.72-6.57-6.72H9.73c-3.8,0-7.26,3.2-7.26,6.72,0,0,0,.53,0,1.35.03-3.5,3.47-6.67,7.25-6.67Z" style="fill:#fff;"/><path d="M2.48,49.01c0-.18,0-.34,0-.49.97,1.43,2.4,2.21,4.23,2.32.11,0,.23.01.33.01,1.66,0,2.6-.82,3.42-1.66,1.7-1.74,1.71-3.98,1.78-14.71,0-.24,0-.47,0-.7-.06,10.13-.11,12.31-1.77,14.01-.82.84-1.76,1.66-3.42,1.66-.11,0-.22,0-.33-.01-1.84-.11-3.26-.9-4.23-2.32,0,.15,0,.3,0,.48,0,3.52-.01,9.33-.01,9.33v.05c0-1.93.01-5.51.01-7.98Z" style="fill:#fff; isolation:isolate; opacity:.69;"/></g><g id="Layer_2"><rect x="14.35" y="18.47" width="47.26" height="29.23" rx="10.79" ry="10.79" style="fill:#fff; isolation:isolate; opacity:.58;"/><path d="M22.3,40.67c-1.62,0-2.43-.87-2.43-2.6v-9.99c0-1.74.81-2.6,2.43-2.6h1.42c1.62,0,2.43.87,2.43,2.6v9.99c0,1.74-.81,2.6-2.43,2.6h-1.42ZM22.7,27.32c-.54,0-.8.3-.8.89v9.74c0,.59.3.89.91.89h.51c.54,0,.8-.3.8-.89v-9.74c0-.59-.3-.89-.91-.89,0,0-.51,0-.51,0Z" style="fill:#fff;"/><path d="M23.72,41.04h-1.42c-1.84,0-2.81-1.03-2.81-2.98v-9.99c0-1.95.97-2.98,2.81-2.98h1.42c1.84,0,2.81,1.03,2.81,2.98v9.99c0,1.95-.97,2.98-2.81,2.98ZM22.3,25.86c-1.4,0-2.06.71-2.06,2.23v9.99c0,1.52.65,2.23,2.06,2.23h1.42c1.41,0,2.06-.71,2.06-2.23v-9.99c0-1.52-.65-2.23-2.06-2.23,0,0-1.42,0-1.42,0ZM23.32,39.2h-.51c-.82,0-1.28-.46-1.28-1.26v-9.74c0-.8.43-1.26,1.18-1.26h.51c.82,0,1.29.46,1.29,1.26v9.74c0,.8-.43,1.26-1.18,1.26h0ZM22.7,27.7c-.24,0-.43.04-.43.51v9.74c0,.38.13.51.53.51h.51c.24,0,.43-.04.43-.51v-9.74c0-.38-.13-.51-.54-.51h-.51,0Z" style="fill:#a8721b;"/><path d="M37.28,40.67c-1.62,0-2.43-.87-2.43-2.6v-9.99c0-1.74.81-2.6,2.43-2.6h1.42c1.62,0,2.43.87,2.43,2.6v9.99c0,1.74-.81,2.6-2.43,2.6h-1.42ZM37.68,27.32c-.54,0-.8.3-.8.89v9.74c0,.59.3.89.91.89h.51c.54,0,.8-.3.8-.89v-9.74c0-.59-.3-.89-.91-.89,0,0-.51,0-.51,0Z" style="fill:#fff;"/><path d="M38.7,41.04h-1.42c-1.84,0-2.81-1.03-2.81-2.98v-9.99c0-1.95.97-2.98,2.81-2.98h1.42c1.84,0,2.81,1.03,2.81,2.98v9.99c0,1.95-.97,2.98-2.81,2.98ZM37.28,25.86c-1.4,0-2.06.71-2.06,2.23v9.99c0,1.52.65,2.23,2.06,2.23h1.42c1.41,0,2.06-.71,2.06-2.23v-9.99c0-1.52-.65-2.23-2.06-2.23,0,0-1.42,0-1.42,0ZM38.29,39.2h-.51c-.82,0-1.28-.46-1.28-1.26v-9.74c0-.8.43-1.26,1.18-1.26h.51c.82,0,1.29.46,1.29,1.26v9.74c0,.8-.43,1.26-1.18,1.26h-.01ZM37.68,27.7c-.24,0-.43.04-.43.51v9.74c0,.38.13.51.53.51h.51c.24,0,.43-.04.43-.51v-9.74c0-.38-.13-.51-.54-.51h-.51.01Z" style="fill:#a8721b;"/><path d="M67.87,33.93v2.37h-1.86v-2.37h-2.33v-1.78h2.33v-2.46h1.86v2.46h2.18v1.78h-2.18Z" style="fill:#fff;"/><path d="M67.87,36.67h-1.86c-.21,0-.38-.17-.38-.38v-2h-1.95c-.21,0-.38-.17-.38-.38v-1.78c0-.21.17-.38.38-.38h1.95v-2.08c0-.21.17-.38.38-.38h1.86c.21,0,.38.17.38.38v2.08h1.81c.21,0,.38.17.38.38v1.78c0,.21-.17.38-.38.38h-1.81v2c0,.21-.17.38-.38.38ZM66.39,35.92h1.11v-2c0-.21.17-.38.38-.38h1.81v-1.03h-1.81c-.21,0-.38-.17-.38-.38v-2.08h-1.11v2.08c0,.21-.17.38-.38.38h-1.95v1.03h1.95c.21,0,.38.17.38.38v2Z" style="fill:#a8721b;"/><path d="M54.64,43.78c.89-.21,1.33-.79,1.33-1.75v-3.03c0-1.73-.81-2.6-2.43-2.6h-1.18c-1.63,0-2.44.87-2.44,2.6v1.69h2.03v-1.54c0-.59.27-.89.81-.89h.27c.61,0,.91.3.91.89v2.88c0,.66-.39.99-1.18.99h-.3v1.72h.55c.69,0,1.08.25,1.17.75.65-.15,1.27-.4,1.84-.73-.25-.47-.71-.8-1.38-.98Z" style="fill:#fff;"/><path d="M54.18,45.86c-.07,0-.14-.02-.21-.06-.08-.06-.14-.15-.16-.25-.03-.14-.08-.44-.8-.44h-.55c-.21,0-.38-.17-.38-.38v-1.72c0-.21.17-.38.38-.38h.3c.74,0,.81-.32.81-.62v-2.88c0-.38-.13-.51-.54-.51h-.27c-.24,0-.43.04-.43.51v1.54c0,.21-.17.38-.38.38h-2.03c-.21,0-.38-.17-.38-.38v-1.69c0-1.95.97-2.97,2.82-2.97h1.18c1.83,0,2.8,1.03,2.8,2.97v3.03c0,.78-.26,1.37-.77,1.74.34.21.6.48.78.82.09.18.03.4-.14.5-.61.36-1.27.62-1.94.77h-.08v.02ZM52.83,44.36h.17c.84,0,1.23.34,1.41.68.36-.1.71-.24,1.05-.41-.22-.22-.52-.38-.92-.49-.17-.04-.28-.2-.28-.37s.12-.32.29-.36c.72-.17,1.04-.6,1.04-1.38v-3.03c0-1.52-.65-2.22-2.05-2.22h-1.18c-1.41,0-2.07.71-2.07,2.22v1.32h1.28v-1.17c0-.8.43-1.26,1.18-1.26h.27c.82,0,1.29.46,1.29,1.26v2.88c0,.85-.54,1.34-1.48,1.36,0,0,0,.97,0,.97Z" style="fill:#a8721b;"/><path d="M52.5,25.58c0-.17,0-.3,0-.4,0-.1.04-.2.08-.3.04-.1.2-.28.49-.55l2.24-2.16c.32-.31.52-.57.6-.78,0-.02,0-.03,0-.05-.63-.35-1.32-.6-2.04-.74-.03.06-.08.14-.15.22-.09.11-.21.25-.37.4l-2.05,1.97c-.27.27-.46.48-.56.62-.11.15-.18.31-.23.48-.04.17-.06.38-.06.63v4.68h5.46v-1.82h-3.43s0-2.2,0-2.2Z" style="fill:#fff;"/><path d="M55.93,29.97h-5.46c-.21,0-.38-.17-.38-.38v-4.68c0-.28.02-.52.07-.72.07-.25.17-.44.29-.61.11-.16.32-.38.6-.66l2.05-1.98c.15-.14.26-.27.34-.37.05-.06.09-.12.1-.15.07-.15.24-.24.41-.2.76.15,1.49.41,2.15.78.12.07.19.19.19.33,0,.06-.02.16-.05.21-.09.23-.31.53-.68.88l-2.24,2.16c-.34.32-.4.42-.41.43-.03.07-.05.13-.05.19v2.19h3.05c.21,0,.38.17.38.38v1.82c0,.21-.17.38-.38.38h.02ZM50.84,29.22h4.71v-1.07h-3.05c-.21,0-.38-.17-.38-.38v-2.6c.02-.16.05-.29.11-.44.05-.12.15-.28.58-.69l2.24-2.16c.17-.17.29-.3.36-.4-.43-.21-.89-.37-1.36-.48,0,.02-.02.03-.04.05-.09.11-.22.26-.4.43l-2.05,1.97c-.31.31-.45.48-.52.57-.08.1-.13.22-.17.37-.03.12-.05.31-.05.52v4.3h.02Z" style="fill:#a8721b;"/><path d="M52.54,18.47h-29.11c-5.01,0-9.08,4.08-9.08,9.08v11.07c0,5.01,4.07,9.08,9.08,9.08h29.1c5.02,0,9.09-4.07,9.09-9.09v-11.06c0-5.01-4.07-9.08-9.08-9.08ZM29.44,39.68c0,3.32-2.69,6.01-6.01,6.01h0c-3.9,0-7.08-3.18-7.08-7.09v-11.06c0-3.89,3.19-7.08,7.08-7.08h0c3.32,0,6.01,2.69,6.01,6.01v13.21ZM37.99,20.47h0c3.61,0,6.55,2.93,6.55,6.55v12.14c0,3.61-2.93,6.55-6.55,6.55h0c-3.61,0-6.55-2.93-6.55-6.55v-12.14c0-3.61,2.93-6.55,6.55-6.55ZM59.62,38.6c0,3.92-3.17,7.09-7.09,7.09h0c-3.31,0-6-2.69-6-6v-13.23c0-3.31,2.69-6,6-6h0c3.9,0,7.09,3.19,7.09,7.09v11.05Z" style="fill:#fff;"/><path d="M52.53,48.06h-29.1c-5.21,0-9.46-4.24-9.46-9.46v-11.07c0-5.21,4.24-9.46,9.46-9.46h29.11c5.21,0,9.46,4.24,9.46,9.46v11.06c0,5.22-4.25,9.46-9.46,9.46h-.01ZM23.43,18.84c-4.8,0-8.71,3.91-8.71,8.71v11.07c0,4.8,3.91,8.71,8.71,8.71h29.1c4.81,0,8.71-3.91,8.71-8.71v-11.06c0-4.8-3.91-8.71-8.71-8.71h-29.11.01ZM52.53,46.06c-3.52,0-6.38-2.86-6.38-6.38v-13.23c0-3.52,2.86-6.38,6.38-6.38,4.12,0,7.46,3.35,7.46,7.46v11.05c0,4.12-3.35,7.46-7.46,7.46v.02ZM52.53,20.84c-3.1,0-5.62,2.52-5.62,5.62v13.23c0,3.1,2.52,5.62,5.62,5.62,3.7,0,6.71-3.01,6.71-6.71v-11.05c0-3.7-3.01-6.71-6.71-6.71ZM37.99,46.06c-3.82,0-6.92-3.1-6.92-6.92v-12.14c0-3.82,3.1-6.92,6.92-6.92s6.92,3.1,6.92,6.92v12.14c0,3.82-3.1,6.92-6.92,6.92ZM37.99,20.84c-3.4,0-6.17,2.77-6.17,6.17v12.14c0,3.4,2.77,6.17,6.17,6.17s6.17-2.77,6.17-6.17v-12.14c0-3.4-2.77-6.17-6.17-6.17ZM23.43,46.06c-4.11,0-7.46-3.35-7.46-7.46v-11.06c0-4.11,3.34-7.46,7.46-7.46,3.52,0,6.39,2.86,6.39,6.39v13.21c0,3.52-2.86,6.38-6.39,6.38ZM23.43,20.84c-3.7,0-6.71,3.01-6.71,6.71v11.06c0,3.7,3.01,6.71,6.71,6.71,3.11,0,5.64-2.53,5.64-5.63v-13.21c0-3.11-2.53-5.64-5.64-5.64Z" style="fill:#a8721b;"/></g></svg>