<?xml version="1.0" encoding="UTF-8" standalone="no"?>
<svg
   xmlns:dc="http://purl.org/dc/elements/1.1/"
   xmlns:cc="http://creativecommons.org/ns#"
   xmlns:rdf="http://www.w3.org/1999/02/22-rdf-syntax-ns#"
   xmlns:svg="http://www.w3.org/2000/svg"
   xmlns="http://www.w3.org/2000/svg"
   viewBox="0 0 100.15747 86.92907"
   height="86.92907"
   width="100.15747"
   xml:space="preserve"
   id="svg2"
   version="1.1"><metadata
     id="metadata8"><rdf:RDF><cc:Work
         rdf:about=""><dc:format>image/svg+xml</dc:format><dc:type
           rdf:resource="http://purl.org/dc/dcmitype/StillImage" /></cc:Work></rdf:RDF></metadata><defs
     id="defs6"><clipPath
       id="clipPath18"
       clipPathUnits="userSpaceOnUse"><path
         id="path16"
         d="M 0,65.197 H 75.118 V 0 H 0 Z" /></clipPath><clipPath
       id="clipPath34"
       clipPathUnits="userSpaceOnUse"><path
         id="path32"
         d="M 1.97821,63.0641 H 73.0032 V 1.89914 H 1.97821 Z" /></clipPath><clipPath
       id="clipPath38"
       clipPathUnits="userSpaceOnUse"><path
         id="path36"
         d="m 9.233,1.899 c -3.797,0 -7.255,3.203 -7.255,6.722 0,0 0.013,5.812 0.013,9.332 0,0.184 0.004,0.342 0.008,0.485 0.973,-1.427 2.396,-2.208 4.232,-2.319 0.115,-0.008 0.227,-0.011 0.333,-0.011 1.663,0 2.601,0.82 3.419,1.658 1.7,1.739 1.713,3.976 1.778,14.709 -0.065,10.749 -0.078,12.984 -1.778,14.724 -0.819,0.838 -1.756,1.659 -3.419,1.659 -0.106,0 -0.218,-0.004 -0.333,-0.01 -1.838,-0.113 -3.26,-0.895 -4.232,-2.32 -0.005,0.162 -0.007,0.324 -0.008,0.485 0,3.521 -0.013,9.332 -0.013,9.332 0,3.516 3.458,6.719 7.255,6.719 h 47.546 c 3.623,0 6.573,-3.016 6.573,-6.719 0.031,-3.298 0.103,-9.558 0.105,-9.749 0,-3.157 0.98,-4.504 3.276,-4.504 1.769,0 2.479,1.093 3,1.893 0.476,0.732 0.737,1.135 1.692,1.135 1.545,0 1.554,-5.079 1.567,-10.454 0,-0.675 0.011,-2.283 0.011,-2.283 -0.008,-0.71 -0.011,-1.409 -0.011,-2.085 -0.015,-5.374 -0.022,-10.453 -1.567,-10.453 -0.955,0 -1.219,0.405 -1.692,1.135 -0.521,0.803 -1.231,1.896 -3,1.896 -2.298,0 -3.276,-1.349 -3.276,-4.507 -0.002,-0.188 -0.074,-6.449 -0.105,-9.734 0,-3.718 -2.95,-6.732 -6.573,-6.732 H 9.233 Z" /></clipPath><linearGradient
       id="linearGradient54"
       spreadMethod="pad"
       gradientTransform="matrix(0,52.356018,-52.356018,0,37.490715,1.7821367)"
       gradientUnits="userSpaceOnUse"
       y2="0"
       x2="1"
       y1="0"
       x1="0"><stop
         id="stop44"
         offset="0"
         style="stop-opacity:1;stop-color:#ffffff" /><stop
         id="stop46"
         offset="0.127"
         style="stop-opacity:1;stop-color:#ffffff" /><stop
         id="stop48"
         offset="0.267"
         style="stop-opacity:0.15999084;stop-color:#ffffff" /><stop
         id="stop50"
         offset="0.539"
         style="stop-opacity:0;stop-color:#ffffff" /><stop
         id="stop52"
         offset="1"
         style="stop-opacity:0;stop-color:#ffffff" /></linearGradient><mask
       id="mask56"
       height="1"
       width="1"
       y="0"
       x="0"
       maskUnits="userSpaceOnUse"><g
         id="g66"><g
           id="g64"><g
             id="g62"><g
               id="g60"><path
                 id="path58"
                 style="fill:url(#linearGradient54);stroke:none"
                 d="M -32768,32767 H 32767 V -32768 H -32768 Z" /></g></g></g></g></mask><linearGradient
       id="linearGradient78"
       spreadMethod="pad"
       gradientTransform="matrix(0,52.356018,-52.356018,0,37.490715,1.7821367)"
       gradientUnits="userSpaceOnUse"
       y2="0"
       x2="1"
       y1="0"
       x1="0"><stop
         id="stop68"
         offset="0"
         style="stop-opacity:1;stop-color:#95d2e1" /><stop
         id="stop70"
         offset="0.127"
         style="stop-opacity:1;stop-color:#95d2e1" /><stop
         id="stop72"
         offset="0.267"
         style="stop-opacity:1;stop-color:#95d2e1" /><stop
         id="stop74"
         offset="0.539"
         style="stop-opacity:1;stop-color:#95d2e1" /><stop
         id="stop76"
         offset="1"
         style="stop-opacity:1;stop-color:#95d2e1" /></linearGradient><clipPath
       id="clipPath104"
       clipPathUnits="userSpaceOnUse"><path
         id="path102"
         d="M 1.97821,63.0661 H 73.0082 V 30.3463 H 1.97821 Z" /></clipPath><clipPath
       id="clipPath108"
       clipPathUnits="userSpaceOnUse"><path
         id="path106"
         d="m 1.998,46.528 c 0.973,1.426 2.395,2.207 4.232,2.32 0.115,0.006 0.227,0.01 0.333,0.01 1.663,0 2.601,-0.82 3.419,-1.659 1.607,-1.645 1.707,-6.122 1.768,-15.423 18.04,-4.051 26.213,1.793 45.277,1.793 11.387,0 8.021,-0.692 15.975,-1.907 0.004,0.244 0.004,0.478 0.006,0.723 0,0 -0.01,1.608 -0.01,2.283 -0.016,5.375 -0.022,10.454 -1.567,10.454 -0.955,0 -1.22,-0.402 -1.694,-1.135 -0.521,-0.8 -1.23,-1.893 -3,-1.893 -2.299,0 -3.275,1.347 -3.275,4.504 -0.002,0.191 -0.073,6.451 -0.105,9.749 0,3.703 -2.949,6.719 -6.572,6.719 H 9.233 c -3.797,0 -7.255,-3.203 -7.255,-6.719 0,0 0.013,-5.811 0.013,-9.332 C 1.99,46.83 1.994,46.67 1.998,46.528" /></clipPath><linearGradient
       id="linearGradient118"
       spreadMethod="pad"
       gradientTransform="matrix(-5.4759989,-24.301025,24.301025,-5.4759989,42.292473,65.620087)"
       gradientUnits="userSpaceOnUse"
       y2="0"
       x2="1"
       y1="0"
       x1="0"><stop
         id="stop114"
         offset="0"
         style="stop-opacity:1;stop-color:#ffffff" /><stop
         id="stop116"
         offset="1"
         style="stop-opacity:0.17000076;stop-color:#ffffff" /></linearGradient><mask
       id="mask120"
       height="1"
       width="1"
       y="0"
       x="0"
       maskUnits="userSpaceOnUse"><g
         id="g130"><g
           id="g128"><g
             id="g126"><g
               id="g124"><path
                 id="path122"
                 style="fill:url(#linearGradient118);stroke:none"
                 d="M -32768,32767 H 32767 V -32768 H -32768 Z" /></g></g></g></g></mask><linearGradient
       id="linearGradient136"
       spreadMethod="pad"
       gradientTransform="matrix(-5.4759989,-24.301025,24.301025,-5.4759989,42.292473,65.620087)"
       gradientUnits="userSpaceOnUse"
       y2="0"
       x2="1"
       y1="0"
       x1="0"><stop
         id="stop132"
         offset="0"
         style="stop-opacity:1;stop-color:#95d2e1" /><stop
         id="stop134"
         offset="1"
         style="stop-opacity:1;stop-color:#95d2e1" /></linearGradient><clipPath
       id="clipPath162"
       clipPathUnits="userSpaceOnUse"><path
         id="path160"
         d="M 1.97821,63.0641 H 73.0032 V 8.57214 H 1.97821 Z" /></clipPath></defs><g
     transform="matrix(1.3333333,0,0,-1.3333333,0,86.929067)"
     id="g10"><g
       id="g12"><g
         clip-path="url(#clipPath18)"
         id="g14"><g
           transform="translate(9.2334,0.4078)"
           id="g20"><path
             id="path22"
             style="fill:#5fc5ef;fill-opacity:1;fill-rule:nonzero;stroke:none"
             d="m 0,0 c -4.649,0 -8.727,3.838 -8.727,8.212 0,0 0.013,5.81 0.013,9.332 0,1.349 0.13,2.726 1.092,2.726 0.555,0 1.033,-0.544 1.58,-1.361 0.712,-1.061 1.736,-1.622 3.13,-1.71 0.083,-0.005 0.163,-0.008 0.242,-0.008 1.003,0 1.587,0.411 2.375,1.217 1.233,1.264 1.289,3.469 1.352,13.67 -0.063,10.194 -0.119,12.398 -1.352,13.662 -0.788,0.807 -1.372,1.218 -2.375,1.218 -0.078,0 -0.159,-0.003 -0.242,-0.009 -1.393,-0.086 -2.416,-0.645 -3.129,-1.708 -0.547,-0.817 -1.025,-1.362 -1.58,-1.362 -0.962,0 -1.092,1.378 -1.092,2.726 -0.001,3.52 -0.014,9.332 -0.014,9.332 0,4.376 4.078,8.213 8.727,8.213 h 47.546 c 4.434,0 8.041,-3.684 8.041,-8.212 0,0 0.103,-9.542 0.103,-9.75 0,-3.01 0.921,-3.01 1.813,-3.01 0.978,0 1.311,0.513 1.771,1.224 0.523,0.805 1.178,1.805 2.92,1.805 3.012,0 3.022,-4.752 3.039,-11.947 l 0.01,-2.284 -0.01,-2.084 c -0.018,-7.196 -0.027,-11.949 -3.039,-11.949 -1.742,0 -2.395,1.001 -2.92,1.807 -0.461,0.711 -0.795,1.227 -1.771,1.227 -0.892,0 -1.813,0 -1.813,-3.016 0,-0.207 -0.103,-9.752 -0.103,-9.752 C 55.587,3.688 51.98,0 47.546,0 Z" /></g><g
           transform="translate(56.7793,65.0582)"
           id="g24"><path
             id="path26"
             style="fill:#308a9f;fill-opacity:1;fill-rule:nonzero;stroke:none"
             d="m 0,0 h -47.546 c -4.915,0 -9.227,-4.071 -9.227,-8.713 0,-0.002 0.013,-5.812 0.013,-9.332 0,-0.965 0,-3.226 1.592,-3.226 0.863,0 1.483,0.818 1.996,1.584 0.395,0.589 1.11,1.385 2.744,1.486 0.073,0.004 0.143,0.007 0.211,0.007 0.835,0 1.297,-0.329 2.018,-1.067 1.097,-1.125 1.148,-3.288 1.209,-13.321 -0.062,-10.023 -0.113,-12.189 -1.21,-13.312 -0.719,-0.734 -1.181,-1.063 -2.017,-1.063 -0.069,0 -0.139,0.002 -0.212,0.007 -1.634,0.1 -2.348,0.897 -2.744,1.487 -0.513,0.766 -1.132,1.582 -1.995,1.582 -0.305,0 -1.05,-0.115 -1.379,-1.188 -0.144,-0.472 -0.213,-1.138 -0.213,-2.037 0,-3.521 -0.013,-9.331 -0.013,-9.331 0,-4.645 4.312,-8.716 9.227,-8.716 H 0 c 4.711,0 8.541,3.908 8.541,8.715 0.004,0.379 0.104,9.537 0.104,9.746 0,2.514 0.552,2.514 1.312,2.514 0.672,0 0.873,-0.256 1.354,-0.997 0.525,-0.81 1.322,-2.033 3.339,-2.033 3.509,0 3.521,4.951 3.538,12.446 0.002,0.674 0.005,1.367 0.01,2.08 v 0.206 c -0.005,0.719 -0.008,1.413 -0.01,2.086 -0.02,7.494 -0.029,12.445 -3.538,12.445 -2.017,0 -2.812,-1.222 -3.339,-2.031 -0.48,-0.74 -0.684,-0.996 -1.354,-0.996 -0.76,0 -1.312,0 -1.312,2.51 0,0.21 -0.103,9.37 -0.104,9.76 C 8.541,-3.909 4.709,0 0,0 m 0,-1 c 4.166,0 7.541,-3.454 7.541,-7.713 0,0 0.104,-9.542 0.104,-9.749 0,-3.113 0.979,-3.51 2.312,-3.51 2.565,0 1.824,3.027 4.69,3.027 2.763,0 2.5,-5.62 2.55,-13.531 v -0.201 c -0.05,-7.909 0.213,-13.532 -2.55,-13.532 -2.866,0 -2.125,3.029 -4.69,3.029 -1.332,0 -2.312,-0.399 -2.312,-3.512 0,-0.207 -0.104,-9.748 -0.104,-9.748 0,-4.263 -3.375,-7.713 -7.541,-7.713 h -47.546 c -4.164,0 -8.227,3.45 -8.227,7.713 0,0 0.013,5.811 0.013,9.332 0,1.685 0.255,2.226 0.592,2.226 0.365,0 0.826,-0.634 1.165,-1.14 0.586,-0.874 1.588,-1.81 3.514,-1.932 0.094,-0.006 0.185,-0.009 0.273,-0.009 1.241,0 1.944,0.562 2.732,1.367 1.385,1.42 1.43,3.54 1.494,14.017 -0.064,10.479 -0.109,12.598 -1.494,14.017 -0.789,0.809 -1.491,1.369 -2.733,1.369 -0.088,0 -0.179,-0.003 -0.273,-0.009 -1.926,-0.119 -2.928,-1.055 -3.514,-1.928 -0.339,-0.507 -0.8,-1.141 -1.165,-1.141 -0.337,0 -0.592,0.542 -0.592,2.226 0,3.521 -0.013,9.332 -0.013,9.332 10e-4,4.259 4.063,7.713 8.228,7.713 L 0,-1" /></g><g
           id="g28"><g
             id="g30" /><g
             id="g96"><g
               style="opacity:0.19999701"
               id="g94"
               clip-path="url(#clipPath34)"><g
                 id="g92"><g
                   id="g90"
                   clip-path="url(#clipPath38)"><g
                     id="g88"><g
                       id="g80" /><g
                       id="g86"
                       mask="url(#mask56)"><g
                         id="g84"><path
                           id="path82"
                           style="fill:url(#linearGradient78);stroke:none"
                           d="m 9.233,1.899 c -3.797,0 -7.255,3.203 -7.255,6.722 0,0 0.013,5.812 0.013,9.332 0,0.184 0.004,0.342 0.008,0.485 0.973,-1.427 2.396,-2.208 4.232,-2.319 0.115,-0.008 0.227,-0.011 0.333,-0.011 1.663,0 2.601,0.82 3.419,1.658 1.7,1.739 1.713,3.976 1.778,14.709 -0.065,10.749 -0.078,12.984 -1.778,14.724 -0.819,0.838 -1.756,1.659 -3.419,1.659 -0.106,0 -0.218,-0.004 -0.333,-0.01 -1.838,-0.113 -3.26,-0.895 -4.232,-2.32 -0.005,0.162 -0.007,0.324 -0.008,0.485 0,3.521 -0.013,9.332 -0.013,9.332 0,3.516 3.458,6.719 7.255,6.719 h 47.546 c 3.623,0 6.573,-3.016 6.573,-6.719 0.031,-3.298 0.103,-9.558 0.105,-9.749 0,-3.157 0.98,-4.504 3.276,-4.504 1.769,0 2.479,1.093 3,1.893 0.476,0.732 0.737,1.135 1.692,1.135 1.545,0 1.554,-5.079 1.567,-10.454 0,-0.675 0.011,-2.283 0.011,-2.283 -0.008,-0.71 -0.011,-1.409 -0.011,-2.085 -0.015,-5.374 -0.022,-10.453 -1.567,-10.453 -0.955,0 -1.219,0.405 -1.692,1.135 -0.521,0.803 -1.231,1.896 -3,1.896 -2.298,0 -3.276,-1.349 -3.276,-4.507 -0.002,-0.188 -0.074,-6.449 -0.105,-9.734 0,-3.718 -2.95,-6.732 -6.573,-6.732 H 9.233 Z" /></g></g></g></g></g></g></g></g><g
           id="g98"><g
             id="g100" /><g
             id="g154"><g
               style="opacity:0.75"
               id="g152"
               clip-path="url(#clipPath104)"><g
                 id="g150"><g
                   id="g148"
                   clip-path="url(#clipPath108)"><g
                     id="g146"><g
                       id="g138" /><g
                       id="g144"
                       mask="url(#mask120)"><g
                         id="g142"><path
                           id="path140"
                           style="fill:url(#linearGradient136);stroke:none"
                           d="m 1.998,46.528 c 0.973,1.426 2.395,2.207 4.232,2.32 0.115,0.006 0.227,0.01 0.333,0.01 1.663,0 2.601,-0.82 3.419,-1.659 1.607,-1.645 1.707,-6.122 1.768,-15.423 18.04,-4.051 26.213,1.793 45.277,1.793 11.387,0 8.021,-0.692 15.975,-1.907 0.004,0.244 0.004,0.478 0.006,0.723 0,0 -0.01,1.608 -0.01,2.283 -0.016,5.375 -0.022,10.454 -1.567,10.454 -0.955,0 -1.22,-0.402 -1.694,-1.135 -0.521,-0.8 -1.23,-1.893 -3,-1.893 -2.299,0 -3.275,1.347 -3.275,4.504 -0.002,0.191 -0.073,6.451 -0.105,9.749 0,3.703 -2.949,6.719 -6.572,6.719 H 9.233 c -3.797,0 -7.255,-3.203 -7.255,-6.719 0,0 0.013,-5.811 0.013,-9.332 C 1.99,46.83 1.994,46.67 1.998,46.528" /></g></g></g></g></g></g></g></g><g
           id="g156"><g
             id="g158" /><g
             id="g170"><g
               style="opacity:0.89999402"
               id="g168"
               clip-path="url(#clipPath162)"><g
                 id="g166"
                 transform="translate(1.9902,16.5494)"><path
                   id="path164"
                   style="fill:#ffffff;fill-opacity:1;fill-rule:nonzero;stroke:none"
                   d="m 0,0 c 0,0.183 0.004,0.343 0.008,0.484 0.973,-1.426 2.396,-2.207 4.232,-2.318 0.115,-0.009 0.227,-0.014 0.333,-0.014 1.663,0 2.601,0.819 3.419,1.661 1.7,1.737 1.713,3.977 1.778,14.71 L 9.765,15.224 C 9.703,5.094 9.654,2.916 7.992,1.214 7.174,0.379 6.237,-0.441 4.574,-0.441 c -0.106,0 -0.218,0.003 -0.333,0.01 C 2.405,-0.319 0.981,0.465 0.009,1.889 0.004,1.728 0.001,1.565 0.001,1.403 c 0,-3.52 -0.013,-9.332 -0.013,-9.332 L -0.01,-7.978 C -0.005,-6.05 0,-2.464 0,0 m 7.243,45.112 h 47.546 c 3.623,0 6.572,-3.014 6.572,-6.719 0.032,-3.296 0.104,-9.558 0.106,-9.75 0,-3.154 0.979,-4.504 3.276,-4.504 1.769,0 2.479,1.096 3,1.895 0.476,0.731 0.736,1.135 1.692,1.135 1.544,0 1.554,-5.077 1.567,-10.453 0,-0.393 0.003,-1.102 0.005,-1.625 0,0.252 0,0.491 0.006,0.743 0,0 -0.011,1.608 -0.011,2.283 -0.016,5.375 -0.023,10.454 -1.567,10.454 -0.956,0 -1.219,-0.402 -1.692,-1.135 -0.521,-0.8 -1.231,-1.893 -3,-1.893 -2.299,0 -3.276,1.347 -3.276,4.504 -0.002,0.191 -0.074,6.451 -0.106,9.749 0,3.703 -2.949,6.719 -6.572,6.719 H 7.243 c -3.797,0 -7.255,-3.203 -7.255,-6.719 l 0.002,-1.355 c 0.031,3.497 3.473,6.671 7.253,6.671" /></g></g></g></g><g
           transform="translate(58.3828,27.2398)"
           id="g172"><path
             id="path174"
             style="fill:#ffffff;fill-opacity:1;fill-rule:nonzero;stroke:none"
             d="m 0,0 0.052,0.119 c 0.007,0.007 0.013,0.012 0.02,0.018 z m -1.776,-0.34 0.001,0.001 -0.006,-0.015 z m -40.078,0.477 c 0.006,-0.006 0.013,-0.011 0.02,-0.017 l 0.051,-0.119 z m 16.348,-9.18 0.05,-6.585 h -2.634 l 0.142,6.618 c 0.012,-0.004 0.025,-0.007 0.038,-0.007 z m 8.984,-6.676 0.146,6.779 2.384,-0.026 h 0.002 c 0.018,0 0.035,0.004 0.051,0.012 l 0.051,-6.764 z M 0.479,3.025 -1.16,4.348 C -1.36,4.51 -1.622,4.582 -1.877,4.546 L -2.235,4.495 -6.031,15.33 c -0.148,0.419 -0.546,0.701 -0.99,0.701 h -1.238 v 0.335 c 0,0.157 -0.08,0.297 -0.201,0.379 0.123,0.094 0.203,0.242 0.203,0.409 v 6.139 c 0,0.284 -0.231,0.516 -0.516,0.516 h -0.03 c -0.105,0 -0.204,-0.032 -0.286,-0.087 v 1.881 c 0,0.639 -0.52,1.159 -1.16,1.159 h -0.319 l 0.079,0.092 c 0.003,-10e-4 0.006,-0.003 0.009,-0.003 h 0.002 c 0.025,0 0.045,0.027 0.062,0.061 l 0.617,0.8 c 0.003,0.005 0.006,0.013 0.007,0.019 0.003,0.011 0.024,0.041 0.037,0.06 0.033,0.045 0.057,0.078 0.042,0.11 -0.007,0.016 -0.021,0.027 -0.041,0.029 l -8.62,0.914 c -0.031,0.004 -0.062,-0.005 -0.086,-0.025 -0.025,-0.019 -0.041,-0.048 -0.045,-0.08 l -0.076,-0.677 c -0.001,-0.012 0,-0.024 0.002,-0.036 0.005,-0.057 0.049,-0.104 0.105,-0.109 l 6.647,-0.742 -0.372,-0.413 h -17.614 l -0.354,0.435 6.437,0.72 c 0.031,0.002 0.059,0.018 0.079,0.042 0.02,0.025 0.029,0.057 0.026,0.087 l -0.076,0.678 c -0.004,0.031 -0.019,0.059 -0.044,0.079 -0.025,0.02 -0.055,0.029 -0.087,0.025 l -8.621,-0.913 c -0.019,-0.003 -0.033,-0.013 -0.04,-0.029 -0.006,-0.011 -0.005,-0.023 -0.002,-0.035 -0.016,-0.008 -0.029,-0.022 -0.036,-0.039 -0.011,-0.028 -0.006,-0.059 0.014,-0.081 l 0.867,-0.979 c -0.573,-0.07 -1.017,-0.559 -1.017,-1.149 v -1.9 c -0.087,0.066 -0.195,0.106 -0.312,0.106 h -0.03 c -0.285,0 -0.516,-0.232 -0.516,-0.516 v -6.139 c 0,-0.167 0.08,-0.315 0.203,-0.409 -0.121,-0.082 -0.201,-0.222 -0.201,-0.379 v -0.335 h -1.24 c -0.444,0 -0.842,-0.282 -0.99,-0.701 l -3.796,-10.835 -0.357,0.051 c -0.255,0.037 -0.516,-0.036 -0.716,-0.198 l -1.639,-1.323 c -0.25,-0.203 -0.357,-0.533 -0.274,-0.842 l 0.445,-1.654 0.002,-0.004 0.033,-0.17 c 10e-4,-0.002 0.002,-0.006 0.004,-0.009 l 0.675,-1.289 0.132,-0.308 c 0.024,-0.054 0.059,-0.102 0.101,-0.139 l 0.02,-0.038 c 0.004,-0.007 0.01,-0.011 0.016,-0.015 h 10e-4 c 0.005,-0.003 0.012,-0.005 0.018,-0.005 h 0.004 c 0.001,10e-4 0.001,0 0.002,0 l 0.022,0.003 c 0.054,-0.027 0.114,-0.042 0.176,-0.042 h 0.346 c 0.021,0 0.041,0.005 0.059,0.013 0.006,-0.004 0.011,-0.007 0.017,-0.009 0.008,-0.003 0.016,-0.004 0.025,-0.004 0.032,0 0.062,0.02 0.074,0.052 l 0.163,0.482 c 0.026,0.096 0.015,0.197 -0.031,0.285 l -0.607,1.139 c -0.014,0.025 -0.041,0.04 -0.069,0.04 -0.038,0.068 -0.103,0.12 -0.182,0.14 l -0.176,0.578 0.429,0.336 0.958,0.753 1.876,-0.16 0.02,-0.2 c 0.025,-0.25 -0.087,-0.497 -0.293,-0.645 l -0.959,-0.68 C -39.383,0.525 -39.56,0.47 -39.744,0.477 l -0.217,0.004 c -0.122,0.004 -0.223,-0.08 -0.248,-0.197 L -40.28,-0.05 c -0.013,-0.068 0.002,-0.137 0.044,-0.192 0.009,-0.013 0.02,-0.024 0.031,-0.033 0,-0.001 0,-0.002 10e-4,-0.003 l 0.492,-1.118 c 0.016,-0.03 0.036,-0.058 0.057,-0.084 l 0.041,-0.115 c 0.006,-0.014 0.019,-0.024 0.034,-0.025 l 0.089,-0.006 c 0.091,-0.054 0.196,-0.083 0.306,-0.083 h 0.424 c 0.017,0 0.034,0.006 0.047,0.016 l 1.983,1.517 c 0.065,0.053 0.118,0.116 0.162,0.185 l 0.095,0.074 c 10e-4,0.001 0.002,0.002 0.003,0.003 0.003,0.003 0.006,0.006 0.008,0.01 l 0.002,0.005 c 0.002,0.004 0.002,0.008 0.002,0.013 0,0.001 0.001,0.002 0.001,0.003 l -0.014,0.131 c 0.017,0.077 0.024,0.156 0.015,0.237 l -0.205,2.048 c -0.002,0.011 -0.005,0.021 -0.01,0.03 l -0.689,1.229 3.002,7.756 h 0.851 c 0.052,-0.196 0.23,-0.341 0.443,-0.341 h 0.144 c 0.191,0 0.354,0.117 0.423,0.283 0.204,-0.335 0.571,-0.56 0.991,-0.56 h 0.885 v -0.768 h -0.361 c -0.129,0 -0.248,-0.043 -0.346,-0.114 h -0.095 V 9.961 C -31.516,9.857 -31.571,9.722 -31.571,9.573 V -1.285 c 0,-0.255 0.208,-0.463 0.463,-0.463 h 0.787 v -1.844 h -0.133 c -0.259,0 -0.504,-0.098 -0.688,-0.279 -0.014,-0.014 -0.026,-0.029 -0.037,-0.046 -0.169,-0.149 -0.26,-0.452 -0.26,-0.662 v -1.515 c 0,-0.172 0.019,-0.343 0.055,-0.509 0.121,-0.538 0.357,-1.461 0.659,-2.001 -0.053,-0.048 -0.106,-0.096 -0.159,-0.143 -0.308,-0.314 -0.476,-0.73 -0.473,-1.172 l 0.049,-4.823 c 0.003,-0.31 0.084,-0.615 0.233,-0.886 h -0.764 c -0.277,0 -0.509,-0.208 -0.537,-0.479 l -0.365,-2.607 c 0,0 0,-0.001 0,-0.002 -0.011,-0.053 -0.011,-0.105 -0.003,-0.156 v -1.294 c -0.021,-0.122 0.011,-0.247 0.09,-0.344 0.082,-0.101 0.203,-0.159 0.333,-0.159 h 3.325 c 0.032,0 0.063,0.014 0.085,0.037 0.019,0.021 0.03,0.046 0.032,0.073 h 2.681 c 0.003,-0.061 0.054,-0.11 0.117,-0.11 h 3.062 c 0.141,0 0.271,0.056 0.369,0.156 0.097,0.101 0.149,0.233 0.144,0.367 l 0.049,2.25 c 0.001,0.028 -0.009,0.053 -0.025,0.074 l 0.053,2.074 c 0,0.015 -0.003,0.028 -0.007,0.041 0.131,0.253 0.205,0.533 0.211,0.818 l 0.116,4.824 c 0.009,0.371 -0.111,0.737 -0.336,1.034 0.452,0.196 0.721,1.293 0.941,2.327 0.014,0.068 0.027,0.13 0.038,0.181 0.027,0.117 0.04,0.237 0.04,0.357 v 1.734 c 0,0.297 -0.144,0.595 -0.36,0.745 -0.019,0.016 -0.039,0.03 -0.063,0.039 -0.096,0.037 -0.199,0.056 -0.306,0.056 h -0.576 v 1.842 h 0.815 c 0.271,0 0.492,0.221 0.492,0.491 V 9.552 c 0,0.337 -0.274,0.611 -0.611,0.611 h -0.693 v 0.767 h 3.189 v -0.768 h -0.363 c -0.116,0 -0.224,-0.035 -0.315,-0.093 h -0.074 V 10.013 C -20.413,9.905 -20.49,9.749 -20.49,9.573 V -1.285 c 0,-0.255 0.208,-0.463 0.464,-0.463 h 0.787 V -3.592 H -19.8 c -0.106,0 -0.209,-0.019 -0.305,-0.056 -0.03,-0.012 -0.056,-0.03 -0.078,-0.052 -0.206,-0.154 -0.344,-0.443 -0.344,-0.732 v -1.734 c 0,-0.12 0.013,-0.241 0.04,-0.357 0.011,-0.051 0.024,-0.112 0.038,-0.18 0.223,-1.054 0.499,-2.171 0.967,-2.337 -0.201,-0.281 -0.309,-0.616 -0.307,-0.97 l 0.049,-4.823 c 0.003,-0.32 0.09,-0.635 0.248,-0.912 -0.027,-0.023 -0.044,-0.056 -0.043,-0.093 l 0.053,-2.074 c -0.016,-0.021 -0.026,-0.046 -0.025,-0.074 l 0.049,-2.244 c -0.004,-0.14 0.047,-0.272 0.145,-0.373 0.097,-0.1 0.227,-0.156 0.368,-0.156 h 3.062 c 0.063,0 0.113,0.049 0.117,0.111 h 2.681 c 0.002,-0.028 0.013,-0.054 0.032,-0.074 0.022,-0.023 0.053,-0.037 0.085,-0.037 h 3.324 c 0.13,0 0.252,0.058 0.334,0.159 0.079,0.097 0.111,0.222 0.089,0.344 v 1.291 c 0.01,0.051 0.01,0.104 -10e-4,0.153 l -0.365,2.611 c -0.029,0.275 -0.261,0.482 -0.538,0.482 h -0.703 c 0.106,0.232 0.166,0.484 0.172,0.739 l 0.116,4.823 c 0.011,0.435 -0.156,0.865 -0.462,1.183 -0.095,0.088 -0.192,0.177 -0.288,0.266 0.332,0.518 0.593,1.531 0.721,2.105 0.037,0.166 0.055,0.337 0.055,0.509 v 1.515 c 0,0.21 -0.09,0.513 -0.259,0.661 -0.011,0.017 -0.023,0.033 -0.038,0.047 -0.184,0.181 -0.428,0.279 -0.688,0.279 h -0.15 v 1.842 h 0.815 c 0.271,0 0.491,0.221 0.491,0.491 V 9.552 c 0,0.337 -0.274,0.611 -0.611,0.611 h -0.691 v 0.767 h 1.396 c 0.409,0 0.769,0.215 0.976,0.537 0.074,-0.154 0.23,-0.26 0.412,-0.26 h 0.144 c 0.212,0 0.391,0.145 0.443,0.341 h 0.819 L -4.447,3.776 -5.146,2.532 C -5.148,2.527 -5.149,2.521 -5.15,2.517 L -5.393,0.105 C -5.395,0.092 -5.389,0.078 -5.378,0.07 l 2.264,-1.745 c 0.007,-0.005 0.015,-0.008 0.023,-0.008 h 0.003 0.005 l 0.015,-0.01 c 0.013,-0.01 0.03,-0.016 0.047,-0.016 h 0.423 c 0.103,0 0.201,0.026 0.287,0.074 l 0.04,0.002 c 0.014,0.001 0.028,0.011 0.034,0.026 l 0.008,0.025 c 0.066,0.051 0.121,0.115 0.163,0.192 l 0.488,1.112 c 0.001,0.001 0.001,0.002 0.001,0.003 0.012,0.009 0.021,0.02 0.031,0.033 0.041,0.055 0.057,0.124 0.043,0.192 l -0.07,0.335 C -1.599,0.401 -1.704,0.483 -1.822,0.481 L -2.038,0.477 C -2.22,0.472 -2.399,0.525 -2.549,0.633 l -0.958,0.68 C -3.713,1.461 -3.825,1.708 -3.8,1.958 l 0.02,0.2 1.523,0.13 0.283,0.018 1.387,-1.09 -0.181,-0.595 C -0.812,0.594 -0.85,0.556 -0.875,0.511 c -0.028,0 -0.056,-0.014 -0.069,-0.04 l -0.544,-1.02 -0.096,-0.146 c -0.006,-0.01 -0.008,-0.022 -0.005,-0.033 l 0.007,-0.023 C -1.6,-0.817 -1.6,-0.888 -1.581,-0.958 l 0.162,-0.477 c 0.011,-0.032 0.041,-0.052 0.074,-0.052 0.008,0 0.017,0.001 0.025,0.004 0.007,0.002 0.011,0.005 0.016,0.009 0.019,-0.008 0.038,-0.013 0.059,-0.013 h 0.347 c 0.052,0 0.103,0.01 0.149,0.03 0.002,0.001 0.004,0.001 0.006,0.002 0.009,0.005 0.018,0.009 0.027,0.014 0.001,-10e-4 0.002,-0.002 0.004,-0.003 0.006,-0.003 0.012,-0.004 0.018,-0.004 0.014,0 0.027,0.007 0.035,0.02 l 0.019,0.038 c 0.043,0.038 0.078,0.085 0.102,0.14 l 0.132,0.306 0.676,1.29 c 0.001,0.003 0.002,0.007 0.002,0.009 l 0.035,0.169 c 0,0.002 0.001,0.004 0.001,0.005 L 0.753,2.183 C 0.836,2.492 0.729,2.822 0.479,3.025" /></g><g
           transform="translate(58.3828,27.2398)"
           id="g176"><path
             id="path178"
             style="fill:none;stroke:#1b8ea9;stroke-width:0.25;stroke-linecap:butt;stroke-linejoin:miter;stroke-miterlimit:10;stroke-dasharray:none;stroke-opacity:1"
             d="m 0,0 0.052,0.119 c 0.007,0.007 0.013,0.012 0.02,0.018 z m -1.776,-0.34 0.001,0.001 -0.006,-0.015 z m -40.078,0.477 c 0.006,-0.006 0.013,-0.011 0.02,-0.017 l 0.051,-0.119 z m 16.348,-9.18 0.05,-6.585 h -2.634 l 0.142,6.618 c 0.012,-0.004 0.025,-0.007 0.038,-0.007 z m 8.984,-6.676 0.146,6.779 2.384,-0.026 h 0.002 c 0.018,0 0.035,0.004 0.051,0.012 l 0.051,-6.764 z M 0.479,3.025 -1.16,4.348 C -1.36,4.51 -1.622,4.582 -1.877,4.546 L -2.235,4.495 -6.031,15.33 c -0.148,0.419 -0.546,0.701 -0.99,0.701 h -1.238 v 0.335 c 0,0.157 -0.08,0.297 -0.201,0.379 0.123,0.094 0.203,0.242 0.203,0.409 v 6.139 c 0,0.284 -0.231,0.516 -0.516,0.516 h -0.03 c -0.105,0 -0.204,-0.032 -0.286,-0.087 v 1.881 c 0,0.639 -0.52,1.159 -1.16,1.159 h -0.319 l 0.079,0.092 c 0.003,-10e-4 0.006,-0.003 0.009,-0.003 h 0.002 c 0.025,0 0.045,0.027 0.062,0.061 l 0.617,0.8 c 0.003,0.005 0.006,0.013 0.007,0.019 0.003,0.011 0.024,0.041 0.037,0.06 0.033,0.045 0.057,0.078 0.042,0.11 -0.007,0.016 -0.021,0.027 -0.041,0.029 l -8.62,0.914 c -0.031,0.004 -0.062,-0.005 -0.086,-0.025 -0.025,-0.019 -0.041,-0.048 -0.045,-0.08 l -0.076,-0.677 c -0.001,-0.012 0,-0.024 0.002,-0.036 0.005,-0.057 0.049,-0.104 0.105,-0.109 l 6.647,-0.742 -0.372,-0.413 h -17.614 l -0.354,0.435 6.437,0.72 c 0.031,0.002 0.059,0.018 0.079,0.042 0.02,0.025 0.029,0.057 0.026,0.087 l -0.076,0.678 c -0.004,0.031 -0.019,0.059 -0.044,0.079 -0.025,0.02 -0.055,0.029 -0.087,0.025 l -8.621,-0.913 c -0.019,-0.003 -0.033,-0.013 -0.04,-0.029 -0.006,-0.011 -0.005,-0.023 -0.002,-0.035 -0.016,-0.008 -0.029,-0.022 -0.036,-0.039 -0.011,-0.028 -0.006,-0.059 0.014,-0.081 l 0.867,-0.979 c -0.573,-0.07 -1.017,-0.559 -1.017,-1.149 v -1.9 c -0.087,0.066 -0.195,0.106 -0.312,0.106 h -0.03 c -0.285,0 -0.516,-0.232 -0.516,-0.516 v -6.139 c 0,-0.167 0.08,-0.315 0.203,-0.409 -0.121,-0.082 -0.201,-0.222 -0.201,-0.379 v -0.335 h -1.24 c -0.444,0 -0.842,-0.282 -0.99,-0.701 l -3.796,-10.835 -0.357,0.051 c -0.255,0.037 -0.516,-0.036 -0.716,-0.198 l -1.639,-1.323 c -0.25,-0.203 -0.357,-0.533 -0.274,-0.842 l 0.445,-1.654 0.002,-0.004 0.033,-0.17 c 10e-4,-0.002 0.002,-0.006 0.004,-0.009 l 0.675,-1.289 0.132,-0.308 c 0.024,-0.054 0.059,-0.102 0.101,-0.139 l 0.02,-0.038 c 0.004,-0.007 0.01,-0.011 0.016,-0.015 h 10e-4 c 0.005,-0.003 0.012,-0.005 0.018,-0.005 h 0.004 c 0.001,10e-4 0.001,0 0.002,0 l 0.022,0.003 c 0.054,-0.027 0.114,-0.042 0.176,-0.042 h 0.346 c 0.021,0 0.041,0.005 0.059,0.013 0.006,-0.004 0.011,-0.007 0.017,-0.009 0.008,-0.003 0.016,-0.004 0.025,-0.004 0.032,0 0.062,0.02 0.074,0.052 l 0.163,0.482 c 0.026,0.096 0.015,0.197 -0.031,0.285 l -0.607,1.139 c -0.014,0.025 -0.041,0.04 -0.069,0.04 -0.038,0.068 -0.103,0.12 -0.182,0.14 l -0.176,0.578 0.429,0.336 0.958,0.753 1.876,-0.16 0.02,-0.2 c 0.025,-0.25 -0.087,-0.497 -0.293,-0.645 l -0.959,-0.68 C -39.383,0.525 -39.56,0.47 -39.744,0.477 l -0.217,0.004 c -0.122,0.004 -0.223,-0.08 -0.248,-0.197 L -40.28,-0.05 c -0.013,-0.068 0.002,-0.137 0.044,-0.192 0.009,-0.013 0.02,-0.024 0.031,-0.033 0,-0.001 0,-0.002 10e-4,-0.003 l 0.492,-1.118 c 0.016,-0.03 0.036,-0.058 0.057,-0.084 l 0.041,-0.115 c 0.006,-0.014 0.019,-0.024 0.034,-0.025 l 0.089,-0.006 c 0.091,-0.054 0.196,-0.083 0.306,-0.083 h 0.424 c 0.017,0 0.034,0.006 0.047,0.016 l 1.983,1.517 c 0.065,0.053 0.118,0.116 0.162,0.185 l 0.095,0.074 c 10e-4,0.001 0.002,0.002 0.003,0.003 0.003,0.003 0.006,0.006 0.008,0.01 l 0.002,0.005 c 0.002,0.004 0.002,0.008 0.002,0.013 0,0.001 0.001,0.002 0.001,0.003 l -0.014,0.131 c 0.017,0.077 0.024,0.156 0.015,0.237 l -0.205,2.048 c -0.002,0.011 -0.005,0.021 -0.01,0.03 l -0.689,1.229 3.002,7.756 h 0.851 c 0.052,-0.196 0.23,-0.341 0.443,-0.341 h 0.144 c 0.191,0 0.354,0.117 0.423,0.283 0.204,-0.335 0.571,-0.56 0.991,-0.56 h 0.885 v -0.768 h -0.361 c -0.129,0 -0.248,-0.043 -0.346,-0.114 h -0.095 V 9.961 C -31.516,9.857 -31.571,9.722 -31.571,9.573 V -1.285 c 0,-0.255 0.208,-0.463 0.463,-0.463 h 0.787 v -1.844 h -0.133 c -0.259,0 -0.504,-0.098 -0.688,-0.279 -0.014,-0.014 -0.026,-0.029 -0.037,-0.046 -0.169,-0.149 -0.26,-0.452 -0.26,-0.662 v -1.515 c 0,-0.172 0.019,-0.343 0.055,-0.509 0.121,-0.538 0.357,-1.461 0.659,-2.001 -0.053,-0.048 -0.106,-0.096 -0.159,-0.143 -0.308,-0.314 -0.476,-0.73 -0.473,-1.172 l 0.049,-4.823 c 0.003,-0.31 0.084,-0.615 0.233,-0.886 h -0.764 c -0.277,0 -0.509,-0.208 -0.537,-0.479 l -0.365,-2.607 c 0,0 0,-0.001 0,-0.002 -0.011,-0.053 -0.011,-0.105 -0.003,-0.156 v -1.294 c -0.021,-0.122 0.011,-0.247 0.09,-0.344 0.082,-0.101 0.203,-0.159 0.333,-0.159 h 3.325 c 0.032,0 0.063,0.014 0.085,0.037 0.019,0.021 0.03,0.046 0.032,0.073 h 2.681 c 0.003,-0.061 0.054,-0.11 0.117,-0.11 h 3.062 c 0.141,0 0.271,0.056 0.369,0.156 0.097,0.101 0.149,0.233 0.144,0.367 l 0.049,2.25 c 0.001,0.028 -0.009,0.053 -0.025,0.074 l 0.053,2.074 c 0,0.015 -0.003,0.028 -0.007,0.041 0.131,0.253 0.205,0.533 0.211,0.818 l 0.116,4.824 c 0.009,0.371 -0.111,0.737 -0.336,1.034 0.452,0.196 0.721,1.293 0.941,2.327 0.014,0.068 0.027,0.13 0.038,0.181 0.027,0.117 0.04,0.237 0.04,0.357 v 1.734 c 0,0.297 -0.144,0.595 -0.36,0.745 -0.019,0.016 -0.039,0.03 -0.063,0.039 -0.096,0.037 -0.199,0.056 -0.306,0.056 h -0.576 v 1.842 h 0.815 c 0.271,0 0.492,0.221 0.492,0.491 V 9.552 c 0,0.337 -0.274,0.611 -0.611,0.611 h -0.693 v 0.767 h 3.189 v -0.768 h -0.363 c -0.116,0 -0.224,-0.035 -0.315,-0.093 h -0.074 V 10.013 C -20.413,9.905 -20.49,9.749 -20.49,9.573 V -1.285 c 0,-0.255 0.208,-0.463 0.464,-0.463 h 0.787 V -3.592 H -19.8 c -0.106,0 -0.209,-0.019 -0.305,-0.056 -0.03,-0.012 -0.056,-0.03 -0.078,-0.052 -0.206,-0.154 -0.344,-0.443 -0.344,-0.732 v -1.734 c 0,-0.12 0.013,-0.241 0.04,-0.357 0.011,-0.051 0.024,-0.112 0.038,-0.18 0.223,-1.054 0.499,-2.171 0.967,-2.337 -0.201,-0.281 -0.309,-0.616 -0.307,-0.97 l 0.049,-4.823 c 0.003,-0.32 0.09,-0.635 0.248,-0.912 -0.027,-0.023 -0.044,-0.056 -0.043,-0.093 l 0.053,-2.074 c -0.016,-0.021 -0.026,-0.046 -0.025,-0.074 l 0.049,-2.244 c -0.004,-0.14 0.047,-0.272 0.145,-0.373 0.097,-0.1 0.227,-0.156 0.368,-0.156 h 3.062 c 0.063,0 0.113,0.049 0.117,0.111 h 2.681 c 0.002,-0.028 0.013,-0.054 0.032,-0.074 0.022,-0.023 0.053,-0.037 0.085,-0.037 h 3.324 c 0.13,0 0.252,0.058 0.334,0.159 0.079,0.097 0.111,0.222 0.089,0.344 v 1.291 c 0.01,0.051 0.01,0.104 -10e-4,0.153 l -0.365,2.611 c -0.029,0.275 -0.261,0.482 -0.538,0.482 h -0.703 c 0.106,0.232 0.166,0.484 0.172,0.739 l 0.116,4.823 c 0.011,0.435 -0.156,0.865 -0.462,1.183 -0.095,0.088 -0.192,0.177 -0.288,0.266 0.332,0.518 0.593,1.531 0.721,2.105 0.037,0.166 0.055,0.337 0.055,0.509 v 1.515 c 0,0.21 -0.09,0.513 -0.259,0.661 -0.011,0.017 -0.023,0.033 -0.038,0.047 -0.184,0.181 -0.428,0.279 -0.688,0.279 h -0.15 v 1.842 h 0.815 c 0.271,0 0.491,0.221 0.491,0.491 V 9.552 c 0,0.337 -0.274,0.611 -0.611,0.611 h -0.691 v 0.767 h 1.396 c 0.409,0 0.769,0.215 0.976,0.537 0.074,-0.154 0.23,-0.26 0.412,-0.26 h 0.144 c 0.212,0 0.391,0.145 0.443,0.341 h 0.819 L -4.447,3.776 -5.146,2.532 C -5.148,2.527 -5.149,2.521 -5.15,2.517 L -5.393,0.105 C -5.395,0.092 -5.389,0.078 -5.378,0.07 l 2.264,-1.745 c 0.007,-0.005 0.015,-0.008 0.023,-0.008 h 0.003 0.005 l 0.015,-0.01 c 0.013,-0.01 0.03,-0.016 0.047,-0.016 h 0.423 c 0.103,0 0.201,0.026 0.287,0.074 l 0.04,0.002 c 0.014,0.001 0.028,0.011 0.034,0.026 l 0.008,0.025 c 0.066,0.051 0.121,0.115 0.163,0.192 l 0.488,1.112 c 0.001,0.001 0.001,0.002 0.001,0.003 0.012,0.009 0.021,0.02 0.031,0.033 0.041,0.055 0.057,0.124 0.043,0.192 l -0.07,0.335 C -1.599,0.401 -1.704,0.483 -1.822,0.481 L -2.038,0.477 C -2.22,0.472 -2.399,0.525 -2.549,0.633 l -0.958,0.68 C -3.713,1.461 -3.825,1.708 -3.8,1.958 l 0.02,0.2 1.523,0.13 0.283,0.018 1.387,-1.09 -0.181,-0.595 C -0.812,0.594 -0.85,0.556 -0.875,0.511 c -0.028,0 -0.056,-0.014 -0.069,-0.04 l -0.544,-1.02 -0.096,-0.146 c -0.006,-0.01 -0.008,-0.022 -0.005,-0.033 l 0.007,-0.023 C -1.6,-0.817 -1.6,-0.888 -1.581,-0.958 l 0.162,-0.477 c 0.011,-0.032 0.041,-0.052 0.074,-0.052 0.008,0 0.017,0.001 0.025,0.004 0.007,0.002 0.011,0.005 0.016,0.009 0.019,-0.008 0.038,-0.013 0.059,-0.013 h 0.347 c 0.052,0 0.103,0.01 0.149,0.03 0.002,0.001 0.004,0.001 0.006,0.002 0.009,0.005 0.018,0.009 0.027,0.014 0.001,-10e-4 0.002,-0.002 0.004,-0.003 0.006,-0.003 0.012,-0.004 0.018,-0.004 0.014,0 0.027,0.007 0.035,0.02 l 0.019,0.038 c 0.043,0.038 0.078,0.085 0.102,0.14 l 0.132,0.306 0.676,1.29 c 0.001,0.003 0.002,0.007 0.002,0.009 l 0.035,0.169 c 0,0.002 0.001,0.004 0.001,0.005 L 0.753,2.183 C 0.836,2.492 0.729,2.822 0.479,3.025 Z" /></g></g></g></g></svg>