<?xml version="1.0" encoding="UTF-8" standalone="no"?>
<svg
   xmlns:dc="http://purl.org/dc/elements/1.1/"
   xmlns:cc="http://creativecommons.org/ns#"
   xmlns:rdf="http://www.w3.org/1999/02/22-rdf-syntax-ns#"
   xmlns:svg="http://www.w3.org/2000/svg"
   xmlns="http://www.w3.org/2000/svg"
   viewBox="0 0 76 66"
   height="66"
   width="76"
   xml:space="preserve"
   version="1.1"
   id="svg2"><metadata
     id="metadata8"><rdf:RDF><cc:Work
         rdf:about=""><dc:format>image/svg+xml</dc:format><dc:type
           rdf:resource="http://purl.org/dc/dcmitype/StillImage" /><dc:title></dc:title></cc:Work></rdf:RDF></metadata><defs
     id="defs6"><clipPath
       id="clipPath16"
       clipPathUnits="userSpaceOnUse"><path
         id="path18"
         d="m 0,65.197 75.118,0 L 75.118,0 0,0 0,65.197 Z" /></clipPath></defs><g
     transform="matrix(1.25,0,0,-1.25,0,65.999998)"
     id="g10"><g
       style="stroke-width:0.44403926;stroke-miterlimit:4;stroke-dasharray:none"
       transform="matrix(0.90082126,0,0,0.90082126,-3.3732203,-2.6204797)"
       id="g12"><g
         style="stroke-width:0.44403926;stroke-miterlimit:4;stroke-dasharray:none"
         clip-path="url(#clipPath16)"
         id="g14"><g
           style="stroke-width:0.44403926;stroke-miterlimit:4;stroke-dasharray:none"
           transform="translate(34.9648,12.5074)"
           id="g20"><path
             id="path22"
             style="fill:#ffffff;fill-opacity:1;fill-rule:nonzero;stroke:none;stroke-width:0.44403926;stroke-miterlimit:4;stroke-dasharray:none"
             d="m 0,0 0.001,-0.008 -1.666,-0.014 c 0.002,0.003 0.005,0.007 0.008,0.012 0.009,0 0.016,-10e-4 0.028,-10e-4 L 0,0 Z m 2.249,23.641 c -0.046,0.049 -0.13,0.088 -0.231,0.113 0.11,-0.019 0.194,-0.06 0.231,-0.113 M -11.025,4.577 -11.024,4.569 -12.69,4.554 c 0.003,0.005 0.005,0.008 0.008,0.013 0.009,-0.001 0.016,-0.001 0.028,-0.001 l 1.629,0.011 z m -7.281,9.653 c 0.006,-0.005 0.014,-0.01 0.02,-0.016 l 0.053,-0.123 -0.073,0.139 z m 39.96,27.725 -0.001,0 -0.005,0.013 0.006,-0.013 z m 1.751,-0.463 c -0.006,0.006 -0.012,0.01 -0.019,0.016 l -0.049,0.117 0.068,-0.133 z m -32.413,-10.447 0,-0.017 -0.013,0.009 c 0.004,0.003 0.009,0.005 0.013,0.008 M 3.174,0.187 6.446,4.933 c 0.075,0.037 0.203,0.112 0.345,0.208 0.007,0 0.013,-0.002 0.02,-0.002 L 8.972,5.129 5.701,0.216 3.174,0.187 Z M 3.059,0.021 3.06,0.021 3.444,0.023 3.059,0.021 Z m -10.91,4.743 3.272,4.746 c 0.076,0.037 0.204,0.111 0.345,0.208 0.007,-10e-4 0.013,-0.002 0.02,-0.002 l 2.161,-0.01 -3.27,-4.913 -2.528,-0.029 z m -0.115,-0.167 0.001,10e-4 0.389,0.003 -0.39,-0.004 z m 31.99,34.44 c 0.055,0.15 0.068,0.315 0.026,0.475 l -0.422,1.601 c 0,10e-4 -0.001,0.002 -0.001,0.003 l -0.032,0.165 c -10e-4,0.004 -0.002,0.008 -0.004,0.011 l -0.64,1.248 -0.125,0.297 c -0.021,0.049 -0.054,0.09 -0.091,0.125 l -0.024,0.047 c -0.007,0.012 -0.02,0.02 -0.032,0.02 -0.006,0 -0.012,-0.002 -0.018,-0.005 -0.002,-10e-4 0,-0.004 -0.002,-0.006 -0.053,0.029 -0.111,0.048 -0.174,0.048 l -0.329,0 c -0.02,0 -0.04,-0.005 -0.058,-0.015 -0.005,0.004 -0.007,0.01 -0.013,0.012 -0.008,0.002 -0.016,0.003 -0.023,0.003 -0.032,0 -0.06,-0.019 -0.071,-0.05 l -0.153,-0.462 c -0.018,-0.066 -0.013,-0.13 0.002,-0.191 l -0.01,-0.032 c -0.003,-0.011 -10e-4,-0.022 0.005,-0.032 l 0.091,-0.141 0.515,-0.988 c 0.014,-0.025 0.039,-0.034 0.066,-0.034 0.024,-0.045 0.057,-0.083 0.101,-0.11 l 0.172,-0.578 -1.314,-1.055 -0.269,0.017 -1.443,0.126 -0.02,0.194 c -0.023,0.242 0.083,0.481 0.279,0.624 l 0.908,0.659 c 0.141,0.104 0.311,0.156 0.483,0.152 l 0.205,-0.006 c 0.113,-10e-4 0.212,0.078 0.237,0.191 l 0.066,0.324 c 0.013,0.066 -0.002,0.134 -0.041,0.187 -0.008,0.011 -0.02,0.017 -0.03,0.026 -0.001,0.003 10e-4,0.006 0,0.009 l -0.464,1.076 c -0.037,0.072 -0.091,0.129 -0.149,0.177 l -0.012,0.033 c -0.005,0.014 -0.019,0.024 -0.033,0.025 l -0.041,0.002 c -0.081,0.045 -0.172,0.072 -0.267,0.072 l -0.402,0 c -0.016,0 -0.033,-0.005 -0.045,-0.015 l -0.013,-0.011 -0.006,0 c 0,0 -10e-4,10e-4 -0.002,10e-4 -0.008,0 -0.015,-0.003 -0.022,-0.008 l -2.146,-1.69 c -0.01,-0.008 -0.015,-0.021 -0.014,-0.034 l 0.23,-2.335 c 0.001,-0.005 0.002,-0.01 0.005,-0.015 l 0.661,-1.206 -2.85,-7.526 -0.577,0 0,0.211 c 0,0.163 -0.09,0.301 -0.218,0.383 0.129,0.095 0.22,0.241 0.22,0.414 l 0,6.213 c 0,0.102 -0.037,0.191 -0.088,0.272 l 0.099,0.035 c 0.002,-0.002 0.002,-0.006 0.004,-0.008 10e-4,0 0.002,-0.001 0.003,-0.002 0.021,-0.011 0.054,0.002 0.085,0.024 l 0.94,0.4 c 0.006,0.003 0.013,0.009 0.017,0.013 0.007,0.008 0.042,0.024 0.062,0.034 0.051,0.024 0.088,0.042 0.092,0.077 0.001,0.018 -0.007,0.034 -0.022,0.046 l -2.034,1.445 0,10e-4 c 0,0.647 -0.527,1.174 -1.174,1.174 l -0.48,0 -3.464,2.461 C 9.711,43.655 9.68,43.662 9.648,43.657 9.616,43.652 9.589,43.635 9.569,43.608 L 9.167,43.048 C 9.165,43.046 9.166,43.042 9.165,43.04 L 9.16,43.034 C 9.123,42.979 9.136,42.904 9.189,42.868 l 2.355,-1.694 -17.377,0 2.248,1.626 c 0.026,0.018 0.044,0.046 0.049,0.077 0.006,0.032 -0.002,0.065 -0.021,0.09 l -0.404,0.558 c -0.019,0.026 -0.046,0.043 -0.078,0.049 -0.031,0.005 -0.063,-0.003 -0.089,-0.021 l -3.328,-2.379 -0.378,0 c -0.623,0 -1.129,-0.489 -1.166,-1.104 l -2.266,-1.619 c -0.016,-0.011 -0.024,-0.028 -0.022,-0.045 0.002,-0.012 0.012,-0.021 0.02,-0.03 -0.011,-0.016 -0.019,-0.034 -0.016,-0.054 0.004,-0.03 0.024,-0.055 0.053,-0.065 l 1.379,-0.474 c -0.009,-0.039 -0.024,-0.077 -0.024,-0.12 l 0,-6.213 c 0,-0.173 0.09,-0.319 0.22,-0.414 -0.128,-0.082 -0.219,-0.22 -0.219,-0.383 l 0,-0.34 -1.254,0 c -0.449,0 -0.852,-0.285 -1.001,-0.709 l -3.842,-10.964 -0.361,0.051 c -0.258,0.037 -0.522,-0.037 -0.725,-0.201 l -1.659,-1.338 c -0.113,-0.092 -0.193,-0.213 -0.243,-0.342 -0.004,-0.004 -0.006,-0.009 -0.007,-0.014 -0.058,-0.157 -0.073,-0.329 -0.028,-0.497 l 0.451,-1.673 c 0,-10e-4 0.001,-0.002 0.001,-0.003 l 0.035,-0.173 c 0,-0.004 0.002,-0.007 0.003,-0.011 l 0.683,-1.303 0.135,-0.312 c 0.022,-0.052 0.057,-0.094 0.097,-0.131 l 0.025,-0.047 c 0.007,-0.014 0.021,-0.022 0.035,-0.022 0.002,0 0.003,10e-4 0.005,10e-4 10e-4,0 10e-4,-10e-4 10e-4,-10e-4 l 0.028,0.005 c 0.054,-0.026 0.111,-0.044 0.173,-0.044 l 0.35,0 c 0.023,0 0.044,0.006 0.063,0.016 0.005,-0.003 0.007,-0.01 0.014,-0.012 0.008,-0.003 0.017,-0.004 0.025,-0.004 0.033,0 0.063,0.02 0.075,0.054 l 0.165,0.486 c 0.027,0.098 0.015,0.2 -0.032,0.289 l -0.614,1.152 c -0.014,0.027 -0.042,0.037 -0.07,0.037 -0.039,0.069 -0.102,0.122 -0.183,0.143 l -0.178,0.588 0.588,0.462 0.815,0.64 1.898,-0.162 0.021,-0.203 c 0.025,-0.253 -0.089,-0.503 -0.297,-0.652 l -0.97,-0.689 c -0.151,-0.108 -0.33,-0.165 -0.517,-0.158 l -0.219,0.006 c -0.123,0.004 -0.226,-0.082 -0.252,-0.2 l -0.071,-0.339 c -0.014,-0.068 0.003,-0.139 0.044,-0.194 0.009,-0.012 0.022,-0.018 0.032,-0.028 10e-4,-0.003 -0.001,-0.005 10e-4,-0.008 l 0.497,-1.131 c 0.015,-0.028 0.035,-0.049 0.053,-0.073 l 0.047,-0.128 c 0.006,-0.015 0.019,-0.026 0.035,-0.027 l 0.09,-0.005 c 0.092,-0.054 0.198,-0.085 0.309,-0.085 l 0.429,0 c 0.018,0 0.034,0.006 0.048,0.017 l 2.006,1.535 c 0.064,0.052 0.114,0.114 0.157,0.182 l 0.104,0.08 c 0.002,0.001 10e-4,0.004 0.003,0.006 0.006,0.007 0.01,0.014 0.01,0.024 0,0.002 0.003,0.003 0.002,0.005 l -0.014,0.141 c 0.016,0.075 0.025,0.152 0.016,0.231 l -0.208,2.072 c -10e-4,0.011 -0.004,0.022 -0.01,0.032 l -0.697,1.243 3.038,7.849 0.869,0 c 0.054,-0.197 0.226,-0.345 0.44,-0.345 l 0.146,0 c 0.195,0 0.36,0.121 0.429,0.292 0.206,-0.342 0.576,-0.573 1.002,-0.573 l 0.99,0 0,-1.275 -0.321,0 c -0.328,0 -0.595,-0.125 -0.595,-0.28 l 0,-5.171 c 0,-0.079 0.094,-0.146 0.228,-0.185 l 0,-0.015 0.05,0 c 0.058,-0.013 0.123,-0.021 0.191,-0.021 l 0.751,0 0,-3.064 -0.134,0 c -0.263,0 -0.51,-0.101 -0.697,-0.284 C -7.377,14.851 -7.379,14.842 -7.385,14.835 -7.55,14.67 -7.656,14.432 -7.656,14.19 l 0,-1.757 c 0,-0.122 0.014,-0.245 0.044,-0.363 0.013,-0.051 0.027,-0.113 0.043,-0.182 0.068,-0.286 0.138,-0.577 0.217,-0.854 -0.318,-0.127 -0.591,-0.346 -0.782,-0.64 l -2.643,-4.106 c -0.23,-0.355 -0.334,-0.784 -0.295,-1.207 l 0.033,-0.353 -1.503,-0.017 c -0.036,0 -0.059,-0.001 -0.078,-0.001 -0.002,0.001 0.003,0.008 -0.001,0.008 -10e-4,0 -0.209,-0.067 -0.211,-0.067 C -12.896,4.65 -12.978,4.5 -12.976,4.435 l -0.003,-1.896 c -0.029,-0.022 -0.05,-0.053 -0.049,-0.092 l 0.05,-2.271 c -0.005,-0.142 0.047,-0.276 0.145,-0.377 0.099,-0.102 0.231,-0.157 0.374,-0.157 l 3.099,0 c 0.063,0 0.114,0.048 0.118,0.111 l 2.714,0 c 10e-4,-0.027 0.012,-0.054 0.031,-0.074 0.023,-0.025 0.054,-0.037 0.087,-0.037 l 3.364,0 c 0.131,0 0.254,0.058 0.338,0.16 0.08,0.098 0.112,0.224 0.09,0.347 l 0,1.447 c 0,10e-4 -0.002,0.002 -0.002,0.004 0,0.004 0.002,0.008 10e-4,0.012 l -0.173,1.232 c 0.13,0.106 0.25,0.224 0.348,0.362 L 0.389,7.183 C 0.645,7.542 0.749,7.996 0.673,8.437 0.569,8.876 0.461,9.346 0.385,9.694 l 0.906,-0.004 0.003,0 c 0.107,0 0.199,0.028 0.24,0.066 C 1.54,9.755 1.546,9.75 1.553,9.75 c 0.037,0 0.073,0.017 0.096,0.05 0.356,0.499 0.637,1.59 0.772,2.195 0.037,0.168 0.057,0.341 0.057,0.515 l 0,1.533 c 0,0.212 -0.092,0.516 -0.262,0.667 -0.001,10e-4 -0.002,0.003 -0.003,0.004 -0.021,0.017 -0.047,0.022 -0.072,0.024 0.035,0.055 0.052,0.12 0.036,0.184 -0.019,0.073 -0.073,0.133 -0.142,0.16 -0.098,0.038 -0.203,0.058 -0.31,0.058 l -0.583,0 0,3.064 0.87,0 c 0.274,0 0.497,0.105 0.497,0.233 l 0,5.149 c 0,0.161 -0.277,0.291 -0.618,0.291 l -0.721,0 c -0.01,0 -0.017,-0.004 -0.027,-0.005 l 0,0.116 c 0.002,0.007 0.002,0.014 0.002,0.021 l 0,1.142 3.133,0 0,-0.777 -0.367,0 C 3.799,24.374 3.7,24.334 3.61,24.28 l -0.093,0 0,-0.063 C 3.396,24.108 3.316,23.954 3.316,23.778 l 0,-10.988 c 0,-0.259 0.21,-0.469 0.469,-0.469 l 0.796,0 0,-1.856 -0.477,0 c -0.107,0 -0.211,-0.02 -0.309,-0.058 C 3.738,10.386 3.698,10.34 3.672,10.285 3.489,10.12 3.368,9.869 3.368,9.614 l 0,-1.759 C 3.368,7.733 3.383,7.611 3.413,7.493 3.425,7.441 3.44,7.38 3.456,7.311 3.523,7.024 3.594,6.733 3.673,6.457 3.354,6.33 3.081,6.111 2.89,5.816 L 0.248,1.712 C 0.018,1.356 -0.086,0.928 -0.047,0.504 L -0.014,0.151 -1.517,0.134 c -0.036,0 -0.059,0 -0.078,-0.001 -0.002,0.001 0.002,0.008 -0.001,0.008 -10e-4,0 -0.21,-0.066 -0.211,-0.066 -0.065,-0.002 -0.146,-0.152 -0.144,-0.218 l -0.003,-1.895 c -0.029,-0.023 -0.05,-0.053 -0.049,-0.092 l 0.049,-2.27 c -0.004,-0.142 0.048,-0.276 0.146,-0.377 0.099,-0.103 0.231,-0.159 0.373,-0.159 l 3.1,0 c 0.063,0 0.114,0.05 0.118,0.113 l 2.713,0 c 0.002,-0.029 0.013,-0.055 0.032,-0.075 0.023,-0.024 0.054,-0.038 0.086,-0.038 l 3.365,0 c 0.131,0 0.254,0.059 0.337,0.162 0.08,0.097 0.113,0.223 0.091,0.347 l 0,1.446 c 0,0.002 -0.002,0.002 -0.002,0.003 -10e-4,0.004 0.001,0.009 0,0.013 l -0.172,1.232 c 0.13,0.106 0.25,0.225 0.348,0.362 l 2.832,3.977 c 0.256,0.359 0.36,0.814 0.285,1.254 -0.104,0.44 -0.212,0.909 -0.288,1.258 l 0.906,-0.005 0.003,0 c 0.107,0 0.199,0.028 0.24,0.066 0.006,-0.001 0.012,-0.006 0.018,-0.006 0.037,0 0.073,0.017 0.097,0.05 0.356,0.5 0.637,1.589 0.772,2.195 0.037,0.168 0.056,0.342 0.056,0.515 l 0,1.533 c 0,0.213 -0.093,0.521 -0.265,0.671 -0.002,0.002 -0.005,10e-4 -0.008,0.003 -0.009,0.013 -0.015,0.03 -0.028,0.043 -0.186,0.181 -0.433,0.282 -0.696,0.282 l -0.242,0 0,1.854 0.824,0 c 0.274,0 0.498,0.223 0.498,0.497 l 0,10.941 c 0,0.341 -0.277,0.618 -0.618,0.618 l -0.699,0 0,0.776 1.412,0 c 0.416,0 0.779,0.22 0.988,0.548 0.074,-0.157 0.231,-0.267 0.417,-0.267 l 0.145,0 c 0.256,0 0.464,0.207 0.464,0.463 l 0,0.206 0.989,0 c 0.421,0 0.797,0.273 0.937,0.679 l 3.598,10.493 0.34,-0.049 c 0.241,-0.036 0.489,0.034 0.678,0.191 l 1.554,1.281 c 0.106,0.088 0.181,0.203 0.229,0.328 0.002,0.004 0.003,0.008 0.005,0.013" /></g><g
           style="stroke-width:0.44403926;stroke-miterlimit:4;stroke-dasharray:none"
           transform="translate(34.9648,12.5074)"
           id="g24"><path
             id="path26"
             style="fill:none;stroke:#1b8ea9;stroke-width:0.44403926;stroke-linecap:butt;stroke-linejoin:miter;stroke-miterlimit:4;stroke-dasharray:none;stroke-opacity:1"
             d="m 0,0 0.001,-0.008 -1.666,-0.014 c 0.002,0.003 0.005,0.007 0.008,0.012 0.009,0 0.016,-10e-4 0.028,-10e-4 L 0,0 Z m 2.249,23.641 c -0.046,0.049 -0.13,0.088 -0.231,0.113 0.11,-0.019 0.194,-0.06 0.231,-0.113 z M -11.025,4.577 -11.024,4.569 -12.69,4.554 c 0.003,0.005 0.005,0.008 0.008,0.013 0.009,-0.001 0.016,-0.001 0.028,-0.001 l 1.629,0.011 z m -7.281,9.653 c 0.006,-0.005 0.014,-0.01 0.02,-0.016 l 0.053,-0.123 -0.073,0.139 z m 39.96,27.725 -0.001,0 -0.005,0.013 0.006,-0.013 z m 1.751,-0.463 c -0.006,0.006 -0.012,0.01 -0.019,0.016 l -0.049,0.117 0.068,-0.133 z m -32.413,-10.447 0,-0.017 -0.013,0.009 c 0.004,0.003 0.009,0.005 0.013,0.008 z M 3.174,0.187 6.446,4.933 c 0.075,0.037 0.203,0.112 0.345,0.208 0.007,0 0.013,-0.002 0.02,-0.002 L 8.972,5.129 5.701,0.216 3.174,0.187 Z M 3.059,0.021 3.06,0.021 3.444,0.023 3.059,0.021 Z m -10.91,4.743 3.272,4.746 c 0.076,0.037 0.204,0.111 0.345,0.208 0.007,-10e-4 0.013,-0.002 0.02,-0.002 l 2.161,-0.01 -3.27,-4.913 -2.528,-0.029 z m -0.115,-0.167 0.001,10e-4 0.389,0.003 -0.39,-0.004 z m 31.99,34.44 c 0.055,0.15 0.068,0.315 0.026,0.475 l -0.422,1.601 c 0,10e-4 -0.001,0.002 -0.001,0.003 l -0.032,0.165 c -10e-4,0.004 -0.002,0.008 -0.004,0.011 l -0.64,1.248 -0.125,0.297 c -0.021,0.049 -0.054,0.09 -0.091,0.125 l -0.024,0.047 c -0.007,0.012 -0.02,0.02 -0.032,0.02 -0.006,0 -0.012,-0.002 -0.018,-0.005 -0.002,-10e-4 0,-0.004 -0.002,-0.006 -0.053,0.029 -0.111,0.048 -0.174,0.048 l -0.329,0 c -0.02,0 -0.04,-0.005 -0.058,-0.015 -0.005,0.004 -0.007,0.01 -0.013,0.012 -0.008,0.002 -0.016,0.003 -0.023,0.003 -0.032,0 -0.06,-0.019 -0.071,-0.05 l -0.153,-0.462 c -0.018,-0.066 -0.013,-0.13 0.002,-0.191 l -0.01,-0.032 c -0.003,-0.011 -10e-4,-0.022 0.005,-0.032 l 0.091,-0.141 0.515,-0.988 c 0.014,-0.025 0.039,-0.034 0.066,-0.034 0.024,-0.045 0.057,-0.083 0.101,-0.11 l 0.172,-0.578 -1.314,-1.055 -0.269,0.017 -1.443,0.126 -0.02,0.194 c -0.023,0.242 0.083,0.481 0.279,0.624 l 0.908,0.659 c 0.141,0.104 0.311,0.156 0.483,0.152 l 0.205,-0.006 c 0.113,-10e-4 0.212,0.078 0.237,0.191 l 0.066,0.324 c 0.013,0.066 -0.002,0.134 -0.041,0.187 -0.008,0.011 -0.02,0.017 -0.03,0.026 -0.001,0.003 10e-4,0.006 0,0.009 l -0.464,1.076 c -0.037,0.072 -0.091,0.129 -0.149,0.177 l -0.012,0.033 c -0.005,0.014 -0.019,0.024 -0.033,0.025 l -0.041,0.002 c -0.081,0.045 -0.172,0.072 -0.267,0.072 l -0.402,0 c -0.016,0 -0.033,-0.005 -0.045,-0.015 l -0.013,-0.011 -0.006,0 c 0,0 -10e-4,10e-4 -0.002,10e-4 -0.008,0 -0.015,-0.003 -0.022,-0.008 l -2.146,-1.69 c -0.01,-0.008 -0.015,-0.021 -0.014,-0.034 l 0.23,-2.335 c 0.001,-0.005 0.002,-0.01 0.005,-0.015 l 0.661,-1.206 -2.85,-7.526 -0.577,0 0,0.211 c 0,0.163 -0.09,0.301 -0.218,0.383 0.129,0.095 0.22,0.241 0.22,0.414 l 0,6.213 c 0,0.102 -0.037,0.191 -0.088,0.272 l 0.099,0.035 c 0.002,-0.002 0.002,-0.006 0.004,-0.008 10e-4,0 0.002,-0.001 0.003,-0.002 0.021,-0.011 0.054,0.002 0.085,0.024 l 0.94,0.4 c 0.006,0.003 0.013,0.009 0.017,0.013 0.007,0.008 0.042,0.024 0.062,0.034 0.051,0.024 0.088,0.042 0.092,0.077 0.001,0.018 -0.007,0.034 -0.022,0.046 l -2.034,1.445 0,10e-4 c 0,0.647 -0.527,1.174 -1.174,1.174 l -0.48,0 -3.464,2.461 C 9.711,43.655 9.68,43.662 9.648,43.657 9.616,43.652 9.589,43.635 9.569,43.608 L 9.167,43.048 C 9.165,43.046 9.166,43.042 9.165,43.04 L 9.16,43.034 C 9.123,42.979 9.136,42.904 9.189,42.868 l 2.355,-1.694 -17.377,0 2.248,1.626 c 0.026,0.018 0.044,0.046 0.049,0.077 0.006,0.032 -0.002,0.065 -0.021,0.09 l -0.404,0.558 c -0.019,0.026 -0.046,0.043 -0.078,0.049 -0.031,0.005 -0.063,-0.003 -0.089,-0.021 l -3.328,-2.379 -0.378,0 c -0.623,0 -1.129,-0.489 -1.166,-1.104 l -2.266,-1.619 c -0.016,-0.011 -0.024,-0.028 -0.022,-0.045 0.002,-0.012 0.012,-0.021 0.02,-0.03 -0.011,-0.016 -0.019,-0.034 -0.016,-0.054 0.004,-0.03 0.024,-0.055 0.053,-0.065 l 1.379,-0.474 c -0.009,-0.039 -0.024,-0.077 -0.024,-0.12 l 0,-6.213 c 0,-0.173 0.09,-0.319 0.22,-0.414 -0.128,-0.082 -0.219,-0.22 -0.219,-0.383 l 0,-0.34 -1.254,0 c -0.449,0 -0.852,-0.285 -1.001,-0.709 l -3.842,-10.964 -0.361,0.051 c -0.258,0.037 -0.522,-0.037 -0.725,-0.201 l -1.659,-1.338 c -0.113,-0.092 -0.193,-0.213 -0.243,-0.342 -0.004,-0.004 -0.006,-0.009 -0.007,-0.014 -0.058,-0.157 -0.073,-0.329 -0.028,-0.497 l 0.451,-1.673 c 0,-10e-4 0.001,-0.002 0.001,-0.003 l 0.035,-0.173 c 0,-0.004 0.002,-0.007 0.003,-0.011 l 0.683,-1.303 0.135,-0.312 c 0.022,-0.052 0.057,-0.094 0.097,-0.131 l 0.025,-0.047 c 0.007,-0.014 0.021,-0.022 0.035,-0.022 0.002,0 0.003,10e-4 0.005,10e-4 10e-4,0 10e-4,-10e-4 10e-4,-10e-4 l 0.028,0.005 c 0.054,-0.026 0.111,-0.044 0.173,-0.044 l 0.35,0 c 0.023,0 0.044,0.006 0.063,0.016 0.005,-0.003 0.007,-0.01 0.014,-0.012 0.008,-0.003 0.017,-0.004 0.025,-0.004 0.033,0 0.063,0.02 0.075,0.054 l 0.165,0.486 c 0.027,0.098 0.015,0.2 -0.032,0.289 l -0.614,1.152 c -0.014,0.027 -0.042,0.037 -0.07,0.037 -0.039,0.069 -0.102,0.122 -0.183,0.143 l -0.178,0.588 0.588,0.462 0.815,0.64 1.898,-0.162 0.021,-0.203 c 0.025,-0.253 -0.089,-0.503 -0.297,-0.652 l -0.97,-0.689 c -0.151,-0.108 -0.33,-0.165 -0.517,-0.158 l -0.219,0.006 c -0.123,0.004 -0.226,-0.082 -0.252,-0.2 l -0.071,-0.339 c -0.014,-0.068 0.003,-0.139 0.044,-0.194 0.009,-0.012 0.022,-0.018 0.032,-0.028 10e-4,-0.003 -0.001,-0.005 10e-4,-0.008 l 0.497,-1.131 c 0.015,-0.028 0.035,-0.049 0.053,-0.073 l 0.047,-0.128 c 0.006,-0.015 0.019,-0.026 0.035,-0.027 l 0.09,-0.005 c 0.092,-0.054 0.198,-0.085 0.309,-0.085 l 0.429,0 c 0.018,0 0.034,0.006 0.048,0.017 l 2.006,1.535 c 0.064,0.052 0.114,0.114 0.157,0.182 l 0.104,0.08 c 0.002,0.001 10e-4,0.004 0.003,0.006 0.006,0.007 0.01,0.014 0.01,0.024 0,0.002 0.003,0.003 0.002,0.005 l -0.014,0.141 c 0.016,0.075 0.025,0.152 0.016,0.231 l -0.208,2.072 c -10e-4,0.011 -0.004,0.022 -0.01,0.032 l -0.697,1.243 3.038,7.849 0.869,0 c 0.054,-0.197 0.226,-0.345 0.44,-0.345 l 0.146,0 c 0.195,0 0.36,0.121 0.429,0.292 0.206,-0.342 0.576,-0.573 1.002,-0.573 l 0.99,0 0,-1.275 -0.321,0 c -0.328,0 -0.595,-0.125 -0.595,-0.28 l 0,-5.171 c 0,-0.079 0.094,-0.146 0.228,-0.185 l 0,-0.015 0.05,0 c 0.058,-0.013 0.123,-0.021 0.191,-0.021 l 0.751,0 0,-3.064 -0.134,0 c -0.263,0 -0.51,-0.101 -0.697,-0.284 C -7.377,14.851 -7.379,14.842 -7.385,14.835 -7.55,14.67 -7.656,14.432 -7.656,14.19 l 0,-1.757 c 0,-0.122 0.014,-0.245 0.044,-0.363 0.013,-0.051 0.027,-0.113 0.043,-0.182 0.068,-0.286 0.138,-0.577 0.217,-0.854 -0.318,-0.127 -0.591,-0.346 -0.782,-0.64 l -2.643,-4.106 c -0.23,-0.355 -0.334,-0.784 -0.295,-1.207 l 0.033,-0.353 -1.503,-0.017 c -0.036,0 -0.059,-0.001 -0.078,-0.001 -0.002,0.001 0.003,0.008 -0.001,0.008 -10e-4,0 -0.209,-0.067 -0.211,-0.067 C -12.896,4.65 -12.978,4.5 -12.976,4.435 l -0.003,-1.896 c -0.029,-0.022 -0.05,-0.053 -0.049,-0.092 l 0.05,-2.271 c -0.005,-0.142 0.047,-0.276 0.145,-0.377 0.099,-0.102 0.231,-0.157 0.374,-0.157 l 3.099,0 c 0.063,0 0.114,0.048 0.118,0.111 l 2.714,0 c 10e-4,-0.027 0.012,-0.054 0.031,-0.074 0.023,-0.025 0.054,-0.037 0.087,-0.037 l 3.364,0 c 0.131,0 0.254,0.058 0.338,0.16 0.08,0.098 0.112,0.224 0.09,0.347 l 0,1.447 c 0,10e-4 -0.002,0.002 -0.002,0.004 0,0.004 0.002,0.008 10e-4,0.012 l -0.173,1.232 c 0.13,0.106 0.25,0.224 0.348,0.362 L 0.389,7.183 C 0.645,7.542 0.749,7.996 0.673,8.437 0.569,8.876 0.461,9.346 0.385,9.694 l 0.906,-0.004 0.003,0 c 0.107,0 0.199,0.028 0.24,0.066 C 1.54,9.755 1.546,9.75 1.553,9.75 c 0.037,0 0.073,0.017 0.096,0.05 0.356,0.499 0.637,1.59 0.772,2.195 0.037,0.168 0.057,0.341 0.057,0.515 l 0,1.533 c 0,0.212 -0.092,0.516 -0.262,0.667 -0.001,10e-4 -0.002,0.003 -0.003,0.004 -0.021,0.017 -0.047,0.022 -0.072,0.024 0.035,0.055 0.052,0.12 0.036,0.184 -0.019,0.073 -0.073,0.133 -0.142,0.16 -0.098,0.038 -0.203,0.058 -0.31,0.058 l -0.583,0 0,3.064 0.87,0 c 0.274,0 0.497,0.105 0.497,0.233 l 0,5.149 c 0,0.161 -0.277,0.291 -0.618,0.291 l -0.721,0 c -0.01,0 -0.017,-0.004 -0.027,-0.005 l 0,0.116 c 0.002,0.007 0.002,0.014 0.002,0.021 l 0,1.142 3.133,0 0,-0.777 -0.367,0 C 3.799,24.374 3.7,24.334 3.61,24.28 l -0.093,0 0,-0.063 C 3.396,24.108 3.316,23.954 3.316,23.778 l 0,-10.988 c 0,-0.259 0.21,-0.469 0.469,-0.469 l 0.796,0 0,-1.856 -0.477,0 c -0.107,0 -0.211,-0.02 -0.309,-0.058 C 3.738,10.386 3.698,10.34 3.672,10.285 3.489,10.12 3.368,9.869 3.368,9.614 l 0,-1.759 C 3.368,7.733 3.383,7.611 3.413,7.493 3.425,7.441 3.44,7.38 3.456,7.311 3.523,7.024 3.594,6.733 3.673,6.457 3.354,6.33 3.081,6.111 2.89,5.816 L 0.248,1.712 C 0.018,1.356 -0.086,0.928 -0.047,0.504 L -0.014,0.151 -1.517,0.134 c -0.036,0 -0.059,0 -0.078,-0.001 -0.002,0.001 0.002,0.008 -0.001,0.008 -10e-4,0 -0.21,-0.066 -0.211,-0.066 -0.065,-0.002 -0.146,-0.152 -0.144,-0.218 l -0.003,-1.895 c -0.029,-0.023 -0.05,-0.053 -0.049,-0.092 l 0.049,-2.27 c -0.004,-0.142 0.048,-0.276 0.146,-0.377 0.099,-0.103 0.231,-0.159 0.373,-0.159 l 3.1,0 c 0.063,0 0.114,0.05 0.118,0.113 l 2.713,0 c 0.002,-0.029 0.013,-0.055 0.032,-0.075 0.023,-0.024 0.054,-0.038 0.086,-0.038 l 3.365,0 c 0.131,0 0.254,0.059 0.337,0.162 0.08,0.097 0.113,0.223 0.091,0.347 l 0,1.446 c 0,0.002 -0.002,0.002 -0.002,0.003 -10e-4,0.004 0.001,0.009 0,0.013 l -0.172,1.232 c 0.13,0.106 0.25,0.225 0.348,0.362 l 2.832,3.977 c 0.256,0.359 0.36,0.814 0.285,1.254 -0.104,0.44 -0.212,0.909 -0.288,1.258 l 0.906,-0.005 0.003,0 c 0.107,0 0.199,0.028 0.24,0.066 0.006,-0.001 0.012,-0.006 0.018,-0.006 0.037,0 0.073,0.017 0.097,0.05 0.356,0.5 0.637,1.589 0.772,2.195 0.037,0.168 0.056,0.342 0.056,0.515 l 0,1.533 c 0,0.213 -0.093,0.521 -0.265,0.671 -0.002,0.002 -0.005,10e-4 -0.008,0.003 -0.009,0.013 -0.015,0.03 -0.028,0.043 -0.186,0.181 -0.433,0.282 -0.696,0.282 l -0.242,0 0,1.854 0.824,0 c 0.274,0 0.498,0.223 0.498,0.497 l 0,10.941 c 0,0.341 -0.277,0.618 -0.618,0.618 l -0.699,0 0,0.776 1.412,0 c 0.416,0 0.779,0.22 0.988,0.548 0.074,-0.157 0.231,-0.267 0.417,-0.267 l 0.145,0 c 0.256,0 0.464,0.207 0.464,0.463 l 0,0.206 0.989,0 c 0.421,0 0.797,0.273 0.937,0.679 l 3.598,10.493 0.34,-0.049 c 0.241,-0.036 0.489,0.034 0.678,0.191 l 1.554,1.281 c 0.106,0.088 0.181,0.203 0.229,0.328 0.002,0.004 0.003,0.008 0.005,0.013 z" /></g></g></g></g></svg>