<?xml version="1.0" encoding="UTF-8"?><svg id="Layer_2" xmlns="http://www.w3.org/2000/svg" width="76" height="66" viewBox="0 0 76 66"><path d="M19.17,38.64c-2.18,0-4.11-1.09-5.03-2.84-.93-1.77-.68-3.72.68-5.21,1.11-1.21,2.69-1.91,4.34-1.91.85,0,1.68.18,2.46.53.13.06.25.11.36.15,0-.12,0-.27,0-.42v-15.25c0-1.51.12-1.66,1.57-2.03,5.37-1.34,10.73-2.68,16.1-4.02.63-.16,1.05-.26,1.37-.26.93,0,.93.77.93,2.05v9.57c0,1-.01,2-.02,2.99-.02,2.2-.05,4.48.05,6.71.07,1.56-.42,2.93-1.42,3.97-1.05,1.09-2.58,1.72-4.2,1.72-.58,0-1.15-.08-1.7-.24-1.94-.56-3.21-1.75-3.75-3.52-.57-1.85.2-3.88,1.91-5.05,1.1-.76,2.27-1.14,3.46-1.14.86,0,1.75.2,2.65.6.08.04.17.07.24.11,0-.07,0-.15,0-.22,0-3.17,0-6.33,0-9.5,0-.11,0-.28,0-.4-.11.02-.26.05-.36.08l-3.76.92c-3.22.79-6.45,1.59-9.67,2.36-.45.11-.55.23-.55.7.02,4.71.02,9.42,0,14.13,0,2.57-1.63,4.62-4.15,5.22-.5.12-1,.18-1.51.18Z" style="fill:#34332b;"/><path d="M41.01,7.76c.55,0,.55.42.55,1.67v9.57c0,3.24-.11,6.49.03,9.72.15,3.37-2.5,5.3-5.24,5.3-.53,0-1.07-.07-1.59-.22-1.72-.5-2.96-1.52-3.5-3.27-.52-1.68.2-3.56,1.77-4.63,1.05-.72,2.13-1.07,3.25-1.07.82,0,1.65.19,2.49.56.3.13.49.22.6.22.17,0,.17-.19.17-.67,0-3.17,0-6.33,0-9.5,0-.59-.02-.78-.29-.78-.12,0-.3.04-.55.1-4.48,1.1-8.95,2.21-13.43,3.28-.63.15-.84.43-.83,1.07.02,4.71.02,9.42,0,14.13,0,2.43-1.5,4.29-3.86,4.86-.48.11-.95.17-1.42.17-2,0-3.83-.99-4.7-2.64-.86-1.63-.63-3.41.62-4.78,1.06-1.16,2.54-1.78,4.07-1.78.78,0,1.56.16,2.31.49.34.15.55.25.68.25.21,0,.21-.24.21-.85,0-5.08,0-10.17,0-15.25,0-1.34,0-1.34,1.28-1.66,5.37-1.34,10.73-2.68,16.1-4.02.6-.15,1-.25,1.28-.25M41.01,7.01c-.37,0-.8.11-1.46.27-5.37,1.34-10.73,2.68-16.1,4.02-1.61.4-1.85.71-1.85,2.39v4.44s0,10.66,0,10.66c-.78-.32-1.61-.49-2.45-.49-1.76,0-3.44.74-4.62,2.03-1.47,1.61-1.74,3.71-.73,5.63.99,1.87,3.04,3.04,5.37,3.04.54,0,1.07-.06,1.6-.19,2.69-.64,4.43-2.83,4.44-5.58,0-4.27.01-9.24,0-14.14,0-.18.02-.25.03-.26,0,0,0,0,0,0,0,0,.07-.04.23-.08,3.2-.77,6.4-1.55,9.6-2.34l3.75-.92c0,3.03,0,6.05,0,9.08-.85-.34-1.69-.51-2.52-.51-1.27,0-2.51.41-3.68,1.21-1.85,1.27-2.68,3.47-2.06,5.47.59,1.9,1.93,3.17,4.01,3.77.58.17,1.19.25,1.8.25,1.72,0,3.35-.67,4.47-1.84,1.07-1.11,1.59-2.58,1.52-4.24-.1-2.22-.07-4.49-.05-6.69.01-1,.02-2,.02-3v-9.57c0-1.24,0-2.42-1.3-2.42h0Z" style="fill:#64a01f;"/><path d="M19.17,38.64c-2.18,0-4.11-1.09-5.03-2.84-.93-1.77-.68-3.72.68-5.21,1.11-1.21,2.69-1.91,4.34-1.91.85,0,1.68.18,2.46.53.13.06.25.11.36.15,0-.12,0-.27,0-.42v-15.25c0-1.51.12-1.66,1.57-2.03,5.37-1.34,10.73-2.68,16.1-4.02.63-.16,1.05-.26,1.37-.26.93,0,.93.77.93,2.05v9.57c0,1-.01,2-.02,2.99-.02,2.2-.05,4.48.05,6.71.07,1.56-.42,2.93-1.42,3.97-1.05,1.09-2.58,1.72-4.2,1.72-.58,0-1.15-.08-1.7-.24-1.94-.56-3.21-1.75-3.75-3.52-.57-1.85.2-3.88,1.91-5.05,1.1-.76,2.27-1.14,3.46-1.14.86,0,1.75.2,2.65.6.08.04.17.07.24.11,0-.07,0-.15,0-.22,0-3.17,0-6.33,0-9.5,0-.11,0-.28,0-.4-.11.02-.26.05-.36.08l-3.76.92c-3.22.79-6.45,1.59-9.67,2.36-.45.11-.55.23-.55.7.02,4.71.02,9.42,0,14.13,0,2.57-1.63,4.62-4.15,5.22-.5.12-1,.18-1.51.18Z" style="fill:#34332b;"/><path d="M41.01,7.76c.55,0,.55.42.55,1.67v9.57c0,3.24-.11,6.49.03,9.72.15,3.37-2.5,5.3-5.24,5.3-.53,0-1.07-.07-1.59-.22-1.72-.5-2.96-1.52-3.5-3.27-.52-1.68.2-3.56,1.77-4.63,1.05-.72,2.13-1.07,3.25-1.07.82,0,1.65.19,2.49.56.3.13.49.22.6.22.17,0,.17-.19.17-.67,0-3.17,0-6.33,0-9.5,0-.59-.02-.78-.29-.78-.12,0-.3.04-.55.1-4.48,1.1-8.95,2.21-13.43,3.28-.63.15-.84.43-.83,1.07.02,4.71.02,9.42,0,14.13,0,2.43-1.5,4.29-3.86,4.86-.48.11-.95.17-1.42.17-2,0-3.83-.99-4.7-2.64-.86-1.63-.63-3.41.62-4.78,1.06-1.16,2.54-1.78,4.07-1.78.78,0,1.56.16,2.31.49.34.15.55.25.68.25.21,0,.21-.24.21-.85,0-5.08,0-10.17,0-15.25,0-1.34,0-1.34,1.28-1.66,5.37-1.34,10.73-2.68,16.1-4.02.6-.15,1-.25,1.28-.25M41.01,7.01c-.37,0-.8.11-1.46.27-5.37,1.34-10.73,2.68-16.1,4.02-1.61.4-1.85.71-1.85,2.39v4.44s0,10.66,0,10.66c-.78-.32-1.61-.49-2.45-.49-1.76,0-3.44.74-4.62,2.03-1.47,1.61-1.74,3.71-.73,5.63.99,1.87,3.04,3.04,5.37,3.04.54,0,1.07-.06,1.6-.19,2.69-.64,4.43-2.83,4.44-5.58,0-4.27.01-9.24,0-14.14,0-.18.02-.25.03-.26,0,0,0,0,0,0,0,0,.07-.04.23-.08,3.2-.77,6.4-1.55,9.6-2.34l3.75-.92c0,3.03,0,6.05,0,9.08-.85-.34-1.69-.51-2.52-.51-1.27,0-2.51.41-3.68,1.21-1.85,1.27-2.68,3.47-2.06,5.47.59,1.9,1.93,3.17,4.01,3.77.58.17,1.19.25,1.8.25,1.72,0,3.35-.67,4.47-1.84,1.07-1.11,1.59-2.58,1.52-4.24-.1-2.22-.07-4.49-.05-6.69.01-1,.02-2,.02-3v-9.57c0-1.24,0-2.42-1.3-2.42h0Z" style="fill:#64a01f;"/><path d="M43.07,58.6l-.34-.05c-.23-.03-.48-.07-.73-.13-1.4-.33-2.61-1.31-3.24-2.62-.64-1.33-.62-2.84.06-4.26.51-1.1,1.3-2.07,2.34-2.88,1.78-1.39,3.43-2.14,5.21-2.37.42-.06.83-.08,1.22-.08.55,0,1.08.06,1.59.17l-.02-28.99c0-1.06.54-1.6,1.61-1.6h.27c.12,0,.24,0,.35,0h.13c.56,0,.91.26,1.07.42.21.21.46.6.41,1.23-.02.28-.03.57-.02.88.1,2.02.84,3.78,2.27,5.4l.93,1.07c.78.9,1.58,1.81,2.35,2.73,1.42,1.7,2.38,3.23,3.01,4.8.96,2.4,1.14,4.9.54,7.44-.62,2.59-1.44,4.88-2.52,7.01-.18.35-.4.76-.72,1.13-.4.49-.83.59-1.12.59-.31,0-.54-.11-.65-.18-.52-.29-.9-.98-.48-1.82l.54-1.37c.36-.91.73-1.85,1.06-2.79.47-1.33.88-2.77.74-4.3-.21-2.41-.93-4.37-2.2-5.97-.22-.29-.52-.56-.93-.85-.9-.66-1.83-1.19-2.78-1.58v3.23c0,1.85,0,3.7-.02,5.54-.03,2.49-.03,4.98-.03,7.48v4.59c0,.53-.1,1.03-.28,1.55-1.04,3.08-3.26,5.12-6.78,6.24-.52.16-1.03.24-1.54.31l-.38.05h-.91Z" style="fill:#34332b;"/><path d="M51.51,16.15c.4,0,.66.17.8.31.16.16.34.45.3.93-.02.3-.03.61-.02.93.11,2.09.87,3.94,2.36,5.63l.43.49c.94,1.08,1.92,2.18,2.85,3.3,1.4,1.67,2.34,3.17,2.95,4.7.93,2.32,1.11,4.75.53,7.22-.61,2.58-1.43,4.84-2.49,6.92-.17.33-.37.71-.67,1.05-.3.36-.6.47-.84.47-.21,0-.38-.08-.46-.13-.29-.16-.69-.62-.34-1.33.19-.47.36-.93.55-1.4.36-.91.74-1.86,1.07-2.8.45-1.29.91-2.83.76-4.46-.22-2.49-.96-4.51-2.28-6.17-.23-.3-.54-.59-1-.92-1.08-.79-2.21-1.41-3.37-1.82v2.43c0,2.29,0,4.59-.02,6.88-.03,2.49-.03,4.98-.03,7.48v4.59c0,.47-.09.94-.26,1.43-1,2.97-3.14,4.93-6.54,6-.5.15-.99.23-1.47.29l-.36.05h-.88s-.28-.06-.28-.06c-.23-.03-.47-.06-.7-.12-1.29-.3-2.41-1.21-2.99-2.42-.59-1.22-.57-2.62.06-3.94.49-1.05,1.25-1.97,2.23-2.75,1.72-1.34,3.32-2.07,5.02-2.29.4-.05.79-.08,1.17-.08.7,0,1.35.09,1.97.28l-.02-29.48c0-.86.37-1.22,1.24-1.22h.24c.14,0,.27,0,.4,0,.04,0,.07,0,.1,0M51.51,15.4c-.05,0-.1,0-.16,0-.09,0-.19,0-.3,0-.02,0-.03,0-.05,0h-.24c-1.28,0-1.99.7-1.99,1.97l.02,28.54c-.39-.06-.8-.09-1.22-.09s-.84.03-1.27.09c-1.84.24-3.55,1.01-5.38,2.44-1.09.85-1.91,1.87-2.45,3.02-.73,1.52-.75,3.15-.05,4.58.68,1.42,1.99,2.47,3.5,2.82.26.06.52.1.77.13l.26.04h.06s.06.01.06.01h.88s.05,0,.05,0h.05s.36-.06.36-.06c.52-.07,1.04-.15,1.59-.32,3.65-1.15,5.94-3.27,7.03-6.48.19-.55.29-1.1.3-1.66v-4.61c0-2.45,0-4.99.03-7.47.02-1.84.02-3.68.02-5.51v-1.37s0-1.32,0-1.32c.74.35,1.47.78,2.18,1.31.39.28.66.52.86.78,1.23,1.55,1.92,3.44,2.12,5.77.13,1.46-.27,2.85-.72,4.14-.34.95-.72,1.93-1.06,2.77l-.28.7-.26.67c-.47.99-.03,1.9.66,2.28.12.07.42.22.82.22.37,0,.92-.13,1.42-.74.33-.38.57-.81.76-1.19,1.1-2.16,1.93-4.48,2.55-7.09.62-2.62.43-5.2-.56-7.67-.65-1.61-1.62-3.17-3.07-4.9-.77-.92-1.57-1.84-2.35-2.73l-.51-.58-.43-.49c-1.37-1.56-2.08-3.25-2.18-5.18-.01-.27,0-.54.01-.83.05-.6-.13-1.14-.52-1.52-.34-.34-.82-.53-1.33-.53h0Z" style="fill:#64a01f;"/></svg>