<?xml version="1.0" encoding="UTF-8"?>
<svg width="76" height="66" version="1.1" viewBox="0 0 76 66" xml:space="preserve" xmlns="http://www.w3.org/2000/svg">
<style type="text/css">
	.st0{fill:#36ABC8;}
	.st1{fill:#1D1D1B;}
	.st2{fill:#E20613;}
	.st3{fill:#BD1622;}
	.st4{fill:#FFFFFF;}
	.st5{fill:#931820;}
	.st6{fill:none;stroke:#1D1D1B;stroke-miterlimit:10;}
	.st7{fill:#F2F2F1;stroke:#000000;stroke-width:0.5;stroke-linecap:round;stroke-miterlimit:10;}
	.st8{fill:#CECDCE;}
	.st9{fill:#838383;}
	.st10{fill:#353435;}
</style>
<g transform="matrix(.59805 0 0 .59805 14.407 13.388)">
			<path class="st0" d="m66.4 56.9h-53.2c-2.3 0-4.2-1.9-4.3-4.2l-0.8-34c0-2 1.6-3.6 3.6-3.6h56.5c1.9 0 3.4 1.5 3.4 3.4l-1 34.2c0 2.4-1.9 4.2-4.2 4.2z"/>
		<path d="m33 44.1c0.9 0 1.9 0 2.8-0.2 1.6-0.2 3.2-0.5 4.7-1 1.4-0.4 2.8-1 4-1.7-0.1 0.1-5.6 4.7 0.3-0.1 0 0-0.2 0.2-0.1 0.2-0.8 0.6-0.9 0.3-1.8 0.8 0.1 0.2 0.1 0.3 0.2 0.4 0.4 0.9 0.9 1.7 1.1 2.7 0.3 0.9 0.3 1.6 0.3 2.5 0.1 0.8 0.1 1.5-0.1 2.2-0.3 1.4-0.8 2.7-1.7 3.8-0.3 0.5-0.9 0.9-1.4 1.2-0.9 0.5-1.7 0.6-2.7 0.3-0.9-0.2-1.7-0.3-2.6-0.8-0.7-0.3-1.4-0.7-1.8-1.3-0.3-0.4-0.5-0.9-0.7-1.3-0.3-1-0.3-2 0.1-3 0.4-1.3 0.9-2.6 1.5-3.8 0.2-0.3 0.4-0.8 0.6-1.2-0.3 0-0.7 0.1-1 0.1-0.4 0.1-1 0.1-1.7 0.2 0.1 0 0.1 0 0 0zm1.4 8.9c0.1-0.2 0.2-0.3 0.3-0.4 0.2-0.3 0.5-0.4 0.9-0.4h1.2c1.1 0.1 2.2 0.2 3.3 0.4 0.5 0.1 1 0.2 1.5 0.4 0.5 0.3 0.9 0.5 1 1.1 0.1-0.1 0.1-0.1 0.1-0.2 0.3-0.3 0.6-0.8 0.8-1.1 0.4-0.7 0.7-1.5 0.9-2.2v-0.2c-0.2-0.5-0.4-0.9-0.7-1.4-0.8-0.9-1.9-1.4-3.1-1.1-0.9 0.3-1.6 0.8-2.1 1.5l-0.1 0.1c0.3-0.5 0.7-0.9 1.2-1.2-0.6-0.4-1.3-0.7-2.1-0.7-1.5 0.1-2.7 0.9-3.5 2-0.1 0.2-0.2 0.3-0.2 0.5v0.7c-0.2 0.8 0.2 1.5 0.6 2.2zm-0.7-3.4s0.1 0 0 0c0.9-0.9 1.5-1.4 2.3-1.7 1.2-0.4 2.4-0.3 3.5 0.4 0.1-0.1 0.3-0.2 0.3-0.2 1.2-0.5 2.3-0.5 3.4 0.3 0.5 0.4 0.9 1 1.1 1.7 0 0.1 0 0.1 0.1 0.2 0.5-1.4 0.1-5-0.3-5.8h-0.1c-2.8 0.9-5.5 1-8.3 0.5-0.2 0-0.2 0-0.3 0.1-0.5 1.1-1 2.2-1.4 3.4-0.1 0.5-0.2 0.8-0.3 1.1zm5.5 2.9h-0.3c-1-0.2-2.1-0.3-3.2-0.3-0.2 0-0.4 0-0.6 0.1-0.3 0.1-0.5 0.4-0.7 0.7-0.1 0.1-0.1 0.2 0 0.3 0.7 0.8 1.5 1.2 2.4 1.5 0.6 0.2 1.1 0.3 1.7 0.5s1.2 0.2 1.8 0.1c0.8-0.2 1.4-0.5 2-1.1l0.1-0.1c0-0.3-0.1-0.4-0.3-0.6-0.3-0.3-0.7-0.5-1.1-0.7-0.6-0.2-1.2-0.3-1.8-0.4zm4.9-7.9c-0.3-0.9-0.7-1.6-1.1-2.4-0.2 0.1-0.3 0.2-0.5 0.3-0.9 0.4-2 0.8-3 1-1 0.3-2.1 0.5-3.1 0.6-0.1 0-0.2 0.1-0.3 0.2-0.1 0.3-0.3 0.4-0.3 0.6-0.1 0.1-0.1 0.2-0.2 0.3 2.8 0.4 5.7 0.3 8.5-0.6z"/>
		<path class="st1" d="m39.8 55.8c-0.3 0-0.7 0-1-0.1h-0.1c-0.9-0.2-1.7-0.3-2.6-0.8-0.7-0.3-1.4-0.7-2-1.4-0.3-0.4-0.5-0.9-0.8-1.5-0.3-0.9-0.3-2.1 0.1-3.3 0.5-1.5 1-2.8 1.5-3.8l0.3-0.6h-0.3-1.5-0.3-0.2l-0.3-0.1 0.1-0.7h0.3c1.1 0 2 0 2.8-0.1 1.7-0.2 3.2-0.5 4.6-1 1.5-0.5 2.8-1 4-1.7l0.9-0.6-0.3 0.5v0.1h0.6l-0.6 0.8c-0.2 0.2-0.3 0.3-0.4 0.3-0.3 0.3-0.6 0.5-0.9 0.7 0.3 0.8 0.8 1.5 1 2.4 0.3 0.8 0.3 1.6 0.3 2.4v0.2c0.1 0.8 0.1 1.5-0.1 2.4-0.3 1.3-0.8 2.7-1.7 4-0.4 0.5-0.9 0.9-1.5 1.3-0.5 0.4-1.2 0.6-1.9 0.6zm-5-2.7c0.5 0.6 1.2 1 2.2 1.4 0.3 0.2 0.8 0.3 1.2 0.3 0.2 0.1 0.3 0.1 0.5 0.2 0.4 0.2 1 0.2 1.6 0.1s1.1-0.4 1.7-0.9c0-0.1-0.1-0.2-0.1-0.3-0.3-0.3-0.6-0.4-0.9-0.5-0.4-0.1-0.9-0.2-1.3-0.3h-0.2l-0.5-0.1c-1.2-0.2-2.1-0.3-3.1-0.3-0.2 0-0.3 0-0.5 0.1-0.3-0.1-0.4 0.1-0.6 0.3zm1.2-1.3h0.7c1 0.1 2.2 0.2 3.4 0.4h0.2c0.5 0.1 1 0.2 1.5 0.4 0.3 0.2 0.7 0.3 0.9 0.8 0.2-0.3 0.3-0.5 0.5-0.7 0.3-0.6 0.6-1.2 0.8-1.9l0.1-0.3c-0.2-0.5-0.3-0.9-0.7-1.3-0.7-0.9-1.6-1.2-2.7-0.9-0.8 0.2-1.5 0.7-2 1.4 0 0 0 0.1-0.1 0.1l-0.3 0.3-0.6-0.5 0.2-0.3c0.3-0.3 0.5-0.7 0.9-1-0.4-0.3-0.9-0.3-1.5-0.3-1.3 0.1-2.3 0.7-3.3 1.8v0.3 0.2 0.4c0 0.5 0.2 1 0.4 1.5 0.3-0.3 0.7-0.5 1.1-0.5h0.1c0.2 0 0.2 0 0.4 0.1-0.2 0-0.1 0 0 0zm8-1.2zm0-0.1zm-2.6-3c0.8 0 1.5 0.3 2.1 0.8 0.3 0.3 0.6 0.6 0.9 1 0.1-1.4-0.2-3.4-0.4-4.1-2.6 0.8-5.3 0.9-8.2 0.4-0.4 0.9-0.9 1.8-1.2 2.8 0.4-0.3 0.9-0.6 1.4-0.8 1.3-0.5 2.6-0.4 3.7 0.3 0.1 0 0.1-0.1 0.2-0.1 0.4-0.2 0.9-0.3 1.5-0.3zm-5.3-2.7c2.7 0.4 5.1 0.3 7.5-0.4l-0.5-1.2c-0.2 0.2-0.3 0.3-0.4 0.3-0.2 0.1-0.4 0.3-0.7 0.1-0.2-0.3-0.1-0.4 0.3-0.7-0.8 0.3-1.6 0.6-2.7 0.9s-2.1 0.5-3.2 0.6c-0.1 0.1-0.2 0.2-0.3 0.4v0z"/>
		<path class="st2" d="m34.4 53c-0.4-0.7-0.8-1.4-0.8-2.1v-0.7c0-0.2 0.1-0.3 0.2-0.5 0.9-1.1 2.1-1.9 3.5-2 0.8-0.1 1.5 0.2 2.1 0.7-0.5 0.3-0.9 0.7-1.2 1.2l0.1-0.1c0.5-0.8 1.2-1.3 2.1-1.5 1.2-0.3 2.3 0.1 3.1 1.1 0.3 0.4 0.5 0.9 0.7 1.4v0.2c-0.3 0.8-0.5 1.5-0.9 2.2-0.3 0.4-0.5 0.8-0.8 1.1 0 0.1-0.1 0.1-0.1 0.2-0.1-0.6-0.5-0.9-1-1.1-0.5-0.3-1-0.3-1.5-0.4-1.1-0.2-2.2-0.3-3.3-0.4h-1.2c-0.3 0-0.7 0.2-0.9 0.4 0.1 0 0 0.2-0.1 0.3z"/>
		<path class="st1" d="m42.2 55-0.1-0.8c0-0.4-0.3-0.6-0.8-0.9-0.4-0.2-0.9-0.3-1.3-0.3h-0.2c-1.1-0.2-2.2-0.3-3.3-0.4h-0.9-0.3c-0.3 0-0.4 0.1-0.6 0.3-0.1 0.1-0.1 0.2-0.2 0.3 0 0.1-0.1 0.1-0.1 0.2l-0.3 0.5-0.1-0.7c-0.5-0.8-0.8-1.5-0.8-2.4v-0.5-0.2c0-0.3 0.1-0.5 0.3-0.7 1-1.3 2.3-2 3.8-2.1 0.8-0.1 1.5 0.2 2.2 0.7 0.3-0.2 0.6-0.3 0.9-0.3 1.4-0.3 2.7 0.1 3.4 1.2 0.3 0.4 0.6 0.9 0.8 1.5 0 0.1 0.1 0.3 0 0.4v0.2c-0.3 0.7-0.4 1.4-0.9 2.1l-0.6 0.9-0.3 0.3c0 0.1-0.1 0.1-0.1 0.2zm-6.2-3.2h0.7c1 0.1 2.2 0.2 3.4 0.4h0.2c0.5 0.1 1 0.2 1.5 0.4 0.3 0.2 0.7 0.3 0.9 0.8 0.2-0.3 0.3-0.5 0.5-0.7 0.3-0.6 0.6-1.2 0.8-1.9l0.1-0.3c-0.2-0.5-0.3-0.9-0.7-1.3-0.7-0.9-1.6-1.2-2.7-0.9-0.8 0.2-1.5 0.7-2 1.4 0 0 0 0.1-0.1 0.1l-0.3 0.3-0.6-0.5 0.2-0.3c0.3-0.3 0.5-0.7 0.9-1-0.4-0.3-0.9-0.3-1.5-0.3-1.3 0.1-2.3 0.7-3.3 1.8v0.3 0.2 0.4c0 0.5 0.2 1 0.4 1.5 0.3-0.3 0.7-0.5 1.1-0.5h0.1c0.2 0 0.2 0 0.4 0.1-0.2 0-0.1 0 0 0zm8-1.2zm0-0.1z"/>
		<path class="st3" d="m33.7 49.6 0.3-0.9c0.4-1.1 0.9-2.3 1.4-3.4 0.1-0.1 0.1-0.2 0.3-0.1 2.8 0.5 5.6 0.3 8.3-0.5 0.4 0.9 0.9 4.4 0.3 5.8 0-0.1-0.1-0.1-0.1-0.2-0.3-0.7-0.6-1.3-1.1-1.7-1-0.9-2.1-0.9-3.4-0.3-0.1 0.1-0.3 0.1-0.3 0.2-1.1-0.8-2.2-0.9-3.5-0.4-0.7 0.2-1.3 0.6-2.2 1.5 0.1 0 0 0 0 0z"/>
		<path class="st1" d="m44.4 50.7-0.1-0.3s0-0.1-0.1-0.1c-0.3-0.8-0.6-1.3-1.1-1.7-0.9-0.8-2-0.9-3.3-0.3-0.1 0-0.2 0.1-0.3 0.1 0 0-0.1 0-0.1 0.1h-0.2c-1-0.8-2.1-0.9-3.4-0.4-0.9 0.3-1.5 0.8-2.2 1.7v0.1l-0.1-0.1v-0.1l0.1-0.3c0.1-0.2 0.2-0.4 0.2-0.6 0.4-1.3 0.9-2.3 1.4-3.4 0.1-0.2 0.2-0.2 0.3-0.2 2.9 0.3 5.8 0.2 8.3-0.7h0.1 0.1v0.1c0.5 0.9 0.9 4.5 0.3 5.8zm-3-3c0.7 0 1.3 0.3 1.9 0.7 0.5 0.4 0.9 0.9 1.1 1.7 0.3-1.5 0-4.6-0.4-5.4-2.7 0.9-5.5 1-8.3 0.5-0.1 0-0.1 0-0.2 0.1-0.5 1-0.9 2.1-1.4 3.4-0.1 0.2-0.2 0.4-0.2 0.6 0.7-0.8 1.3-1.2 2.1-1.5 1.3-0.5 2.5-0.3 3.5 0.4h0.1c0.1-0.1 0.2-0.1 0.3-0.1 0.5-0.3 0.9-0.4 1.5-0.4z"/>
		<path class="st4" d="m39.2 52.5c0.6 0.2 1.3 0.3 1.9 0.4 0.4 0.1 0.9 0.3 1.1 0.7 0.2 0.2 0.3 0.3 0.3 0.6 0 0 0 0.1-0.1 0.1-0.5 0.5-1.2 0.9-2 1.1-0.6 0.1-1.1 0-1.7-0.1-0.6-0.2-1.2-0.3-1.7-0.5-0.9-0.3-1.8-0.8-2.4-1.5-0.1-0.1-0.1-0.2 0-0.3 0.2-0.3 0.3-0.6 0.7-0.7 0.2-0.1 0.4-0.1 0.6-0.1 1 0 2.1 0.1 3.2 0.2-0.1 0.1 0 0.1 0.1 0.1z"/>
		<path class="st1" d="m39.9 55.6c-0.4 0-0.9-0.1-1.3-0.2-0.3-0.1-0.4-0.1-0.7-0.2s-0.7-0.2-1-0.3c-1.1-0.4-1.9-0.9-2.5-1.6-0.1-0.1-0.2-0.3 0-0.4l0.1-0.1c0.2-0.3 0.3-0.5 0.7-0.7 0.2-0.1 0.4-0.1 0.7-0.1 1.1 0 2.2 0.1 3.2 0.2h0.1l0.3 0.1c0.1 0 0.3 0.1 0.3 0.1 0.4 0.1 0.9 0.2 1.3 0.3 0.5 0.1 0.9 0.3 1.2 0.7 0.2 0.2 0.3 0.4 0.3 0.8 0 0.1-0.1 0.2-0.1 0.3-0.7 0.6-1.3 1-2.1 1.1h-0.5zm-1.2-0.6c0.7 0.1 1.1 0.2 1.7 0.1 0.7-0.1 1.3-0.4 1.9-1 0-0.2-0.1-0.3-0.2-0.4-0.3-0.3-0.6-0.5-1-0.6s-0.9-0.2-1.3-0.3c-0.2 0-0.3-0.1-0.4-0.1l-0.3-0.1h-0.2c-0.9-0.2-2-0.2-3.2-0.2-0.2 0-0.4 0-0.6 0.1-0.3 0.1-0.3 0.3-0.5 0.5l-0.1 0.1c0.5 0.7 1.3 1.1 2.4 1.5 0.3 0.1 0.7 0.2 1 0.3 0.4 0.1 0.5 0.1 0.8 0.1zm3.6-0.9z"/>
		<path class="st4" d="m44 45c-2.8 0.9-5.7 1-8.5 0.5 0.1-0.1 0.1-0.2 0.2-0.3 0.1-0.2 0.3-0.4 0.3-0.6 0.1-0.1 0.1-0.2 0.3-0.2 1-0.1 2.1-0.3 3.1-0.6s2.1-0.6 3-1c0.2-0.1 0.3-0.2 0.5-0.3 0.4 0.9 0.8 1.6 1.1 2.5z"/>
		<path class="st1" d="m38.9 45.8c-1.1 0-2.2-0.1-3.4-0.3h-0.1l0.1-0.2c0-0.1 0.1-0.2 0.1-0.2 0-0.1 0.1-0.2 0.1-0.2 0.1-0.2 0.2-0.3 0.3-0.4 0.1-0.2 0.2-0.2 0.3-0.2 1-0.1 2.1-0.3 3.1-0.6 1.2-0.3 2.1-0.6 3-1 0.1-0.1 0.3-0.1 0.3-0.2l0.3-0.1 1.1 2.6h-0.1c-1.6 0.6-3.3 0.8-5.1 0.8zm-3.2-0.4c2.9 0.5 5.7 0.3 8.3-0.5l-1-2.2-0.1 0.1c-0.1 0.1-0.3 0.1-0.3 0.2-0.9 0.4-1.8 0.7-3 1-1.1 0.3-2.1 0.5-3.2 0.6-0.1 0-0.1 0-0.2 0.1-0.1 0.2-0.2 0.3-0.3 0.4 0 0.1-0.1 0.2-0.1 0.2-0.1-0.1-0.1 0-0.1 0.1z"/>
		<polygon class="st5" points="39.6 48.3 37.4 47.6 38.1 47 38.7 46.7 39.2 46.6 39.3 46.6 39.5 46.6 39.8 46.6 40.1 46.7 40.3 46.7 40.8 46.9 41.5 47.2 42 47.6 42 47.9 41.4 47.8 40.6 47.9"/>
		<path class="st1" d="m39.6 48.3-2.3-0.7 0.8-0.7 0.6-0.3 0.5-0.1h0.9l0.3 0.1 0.5 0.2 0.7 0.3 0.5 0.4 0.1 0.4-0.8 0.1-0.9 0.1zm-2-0.7 2 0.6 0.9-0.3 0.9-0.1 0.5 0.1v-0.2l-0.4-0.4-0.7-0.3-0.5-0.2-0.3-0.2h-0.9l-0.5 0.1-0.6 0.3z"/>
		<path class="st2" d="m34.4 53c-0.4-0.7-0.7-1.4-0.7-2.1v-0.7c0-0.2 0.1-0.3 0.2-0.5 0.9-1.1 2.1-1.9 3.5-2 0.8-0.1 1.5 0.2 2.1 0.7-0.5 0.3-0.9 0.7-1.2 1.2l0.1-0.1c0.5-0.8 1.2-1.3 2.1-1.5 1.2-0.3 2.3 0.1 3.1 1.1 0.3 0.4 0.5 0.9 0.7 1.4v0.2c-0.3 0.8-0.5 1.5-0.9 2.2-0.3 0.4-0.5 0.8-0.8 1.1 0 0.1-0.1 0.1-0.1 0.2-0.1-0.6-0.5-0.9-1-1.1-0.5-0.3-1-0.3-1.5-0.4-1.1-0.2-2.2-0.3-3.3-0.4h-1.2c-0.3 0-0.7 0.2-0.9 0.4 0 0-0.1 0.2-0.2 0.3z"/>
		<path class="st1" d="m42.5 54.4v-0.2c-0.1-0.6-0.5-0.9-0.9-1.1-0.4-0.3-0.9-0.3-1.4-0.4h-0.2c-1.1-0.2-2.2-0.3-3.3-0.4h-0.9-0.3c-0.3 0-0.6 0.2-0.8 0.4-0.1 0.1-0.1 0.2-0.2 0.3 0 0.1-0.1 0.1-0.1 0.2l-0.1 0.1-0.1-0.1c-0.4-0.8-0.7-1.5-0.8-2.2v-0.5-0.2c0-0.2 0.1-0.4 0.2-0.6 1-1.3 2.1-1.9 3.6-2 0.8-0.1 1.5 0.2 2.1 0.7 0.3-0.2 0.7-0.3 1-0.4 1.2-0.3 2.4 0.1 3.2 1.1 0.3 0.4 0.5 0.9 0.7 1.4v0.3l-0.1 0.3c-0.3 0.7-0.4 1.4-0.9 2-0.2 0.3-0.3 0.5-0.6 0.8l-0.3 0.3 0.2-0.2-0.1 0.1zm-6.5-2.4h0.7c1 0.1 2.1 0.2 3.4 0.4h0.2c0.5 0.1 0.9 0.2 1.5 0.4 0.4 0.3 0.9 0.5 1 1l0.3-0.3c0.2-0.3 0.4-0.5 0.6-0.8 0.3-0.6 0.6-1.3 0.9-2l0.1-0.3v-0.1c-0.2-0.5-0.4-0.9-0.7-1.4-0.7-0.9-1.8-1.4-3-1-0.9 0.2-1.5 0.7-2.1 1.5l-0.2 0.2-0.2-0.2v-0.1c0.3-0.4 0.6-0.9 1.1-1.1-0.6-0.4-1.3-0.6-2-0.6-1.4 0.1-2.5 0.7-3.4 1.9-0.2 0.3-0.2 0.4-0.2 0.6v0.2 0.5c0 0.7 0.3 1.3 0.6 2.1 0.1-0.1 0.1-0.2 0.2-0.3 0.3-0.3 0.6-0.5 0.9-0.5 0.1-0.1 0.2-0.1 0.3-0.1-0.1 0 0 0 0 0z"/>
			<path class="st6" d="m31.5 31"/>
			<path class="st7" d="m14.8 23.1-8.3-7.6 21.4-6.5 0.8 2.8-16.6 5.1 4.7 4.3c1.5-1.4 3.2-2.2 5.1-2.9 7.2-2.1 14.8 1.9 16.9 9.1s-1.9 14.8-9.1 16.9-14.8-1.9-16.9-9.1c-1.3-4.4-0.4-8.7 2-12.1"/>
			<polygon class="st1" points="9 17.8 6.5 15.4 28 9 28.8 11.7"/>
			<circle class="st8" cx="53.3" cy="31" r="3.4"/>
			<circle class="st9" cx="53.3" cy="31" r="2"/>
			<circle class="st10" cx="53.3" cy="31.1" r=".8"/>
			<circle class="st8" cx="26.1" cy="31" r="3.4"/>
			<circle class="st9" cx="26.1" cy="31" r="2"/>
			<circle class="st10" cx="26.1" cy="31.1" r=".8"/>
	<path class="st6" d="m31.5 31"/>
	<circle class="st8" cx="53.3" cy="31" r="3.4"/>
	<circle class="st9" cx="53.3" cy="31" r="2"/>
	<circle class="st10" cx="53.3" cy="31.1" r=".8"/>
	<circle class="st9" cx="26.1" cy="31" r="2"/>
	<circle class="st10" cx="26.1" cy="31.1" r=".8"/>
	<circle class="st1" cx="26.1" cy="31" r="3.4"/>
			<path class="st7" d="m64.1 23.1c2.4 3.4 3.3 7.7 2 12.1-2.1 7.2-9.7 11.2-16.9 9.1-7.2-2.2-11.2-9.8-9.1-17s9.7-11.2 16.9-9.1c1.9 0.6 3.6 1.5 5.1 2.9l4.7-4.3-16.6-5.1 0.8-2.7 21.4 6.5-8.3 7.6"/>
			<polygon class="st1" points="72.4 15.4 69.9 17.8 50.1 11.7 50.9 9"/>
	<circle class="st1" cx="53.3" cy="31" r="3.4"/>
</g>
</svg>
