<?xml version="1.0" encoding="UTF-8"?><svg width="71.066666" viewBox="-20 0 155.8181 93.0762"
   height="65.400002" id="a" xmlns="http://www.w3.org/2000/svg" ><path d="M120.1148,51.2423c3.229,8.6871,2.7161,18.4568-2.59,27.1881-8.6239,14.3031-27.2643,18.583-41.5674,9.9592-14.2461-8.8392-18.5261-27.4796-9.9022-41.7827,8.6239-14.3031,27.2643-18.583,41.5674-9.9592,3.7483,2.3744,6.8951,5.2807,9.3264,9.1493h0l12.5684-6.5784-32.8293-20.439,3.2609-5.3565,42.3647,26.1882-22.1989,11.631" fill="#f2f2f1" stroke="#000" stroke-linecap="round" stroke-miterlimit="10" stroke-width=".5"/><circle cx="92.363" cy="62.0944" r="7.5715" fill="#1d1d1b"/><path d="M13.9841,23.1475L.4473,2.0566,50.2204,.259l.1266,6.4836-38.6421,1.5191,7.6675,11.9353h0c4.027-2.159,8.1425-2.9125,12.6317-3.3366,16.6966-.4177,30.778,12.5244,31.1957,29.2209,.4177,16.6966-12.5244,30.778-29.2209,31.1957-16.6966,.4177-30.778-12.5244-31.1957-29.2209-.2911-10.213,4.0968-18.9569,11.201-24.9086" fill="#f2f2f1" stroke="#000" stroke-linecap="round" stroke-miterlimit="10" stroke-width=".5"/><circle cx="32.9958" cy="47.0763" r="7.5715" fill="#1d1d1b"/><polygon points="50.6192 6.5843 4.5184 8.4326 .5042 1.8413 50.4356 .316 50.6192 6.5843" fill="#1d1d1b"/><polygon points="99.7337 13.3661 142.3707 39.3961 135.6211 43.138 96.4728 18.7227 99.7337 13.3661" fill="#1d1d1b"/><circle cx="38.0996" cy="27.7965" r="4.3981" fill="#385ac6"/><circle cx="27.8921" cy="66.3561" r="4.3981" fill="#385ac6"/><circle cx="13.716" cy="41.9726" r="4.3981" fill="#c63838"/><circle cx="52.2756" cy="52.1801" r="4.3981" fill="#c63838"/><circle cx="13.8591" cy="52.085" r="4.3981" fill="#385ac6"/><circle cx="19.1299" cy="61.0517" r="4.3981" fill="#c63838"/><circle cx="18.5977" cy="33.1904" r="4.3981" fill="#385ac6"/><circle cx="27.9734" cy="27.6444" r="4.3981" fill="#c63838"/><circle cx="52.2662" cy="42.1031" r="4.3981" fill="#385ac6"/><circle cx="47.0857" cy="33.2628" r="4.3981" fill="#c63838"/><circle cx="38.3113" cy="66.4089" r="4.3981" fill="#c63838"/><circle cx="47.2816" cy="60.9326" r="4.3981" fill="#385ac6"/><circle cx="97.4098" cy="43.0299" r="4.3981" fill="#385ac6"/><circle cx="87.2023" cy="81.5895" r="4.3981" fill="#385ac6"/><circle cx="73.0262" cy="57.2059" r="4.3981" fill="#c63838"/><circle cx="111.5859" cy="67.4134" r="4.3981" fill="#c63838"/><circle cx="73.1693" cy="67.3183" r="4.3981" fill="#385ac6"/><circle cx="78.4401" cy="76.285" r="4.3981" fill="#c63838"/><circle cx="77.908" cy="48.4237" r="4.3981" fill="#385ac6"/><circle cx="87.2837" cy="42.8778" r="4.3981" fill="#c63838"/><circle cx="111.5764" cy="57.3364" r="4.3981" fill="#385ac6"/><circle cx="106.396" cy="48.4961" r="4.3981" fill="#c63838"/><circle cx="97.6216" cy="81.6422" r="4.3981" fill="#c63838"/><circle cx="106.5919" cy="76.1659" r="4.3981" fill="#385ac6"/></svg>