<?xml version="1.0" encoding="UTF-8"?>
<svg width="76" height="66" version="1.1" viewBox="0 0 76 66" xml:space="preserve" xmlns="http://www.w3.org/2000/svg">
<style type="text/css">
	.st0{fill:#36ABC8;}
	.st1{fill:#1D1D1B;}
	.st2{fill:#E20613;}
	.st3{fill:#BD1622;}
	.st4{fill:#FFFFFF;}
	.st5{fill:#931820;}
	.st6{fill:none;stroke:#1D1D1B;stroke-miterlimit:10;}
	.st7{fill:#F2F2F1;stroke:#000000;stroke-width:0.5;stroke-linecap:round;stroke-miterlimit:10;}
	.st8{fill:#CECDCE;}
	.st9{fill:#838383;}
	.st10{fill:#353435;}
	.st11{fill-rule:evenodd;clip-rule:evenodd;fill:#7C7C7B;stroke:#020202;stroke-width:0.25;stroke-miterlimit:10;}
	.st12{fill:#7C7C7B;stroke:#020202;stroke-width:0.25;stroke-miterlimit:10;}
</style>
<g transform="translate(-2.3674 .35633)"><g transform="matrix(.69772 0 0 .69772 12.076 9.2867)">
			<path class="st0" d="m65.1 59.7h-48.3c-2.1 0-3.8-1.7-3.9-3.8l-0.7-30.8c0-1.8 1.5-3.3 3.3-3.3h51.2c1.7 0 3.1 1.4 3.1 3.1l-0.9 31c0 2.1-1.7 3.8-3.8 3.8z"/>
		<path d="m34.8 48.1c0.9 0 1.7 0 2.6-0.2 1.5-0.2 2.9-0.5 4.3-0.9 1.2-0.4 2.5-0.9 3.7-1.6-0.1 0.1-5.1 4.3 0.2-0.1 0 0-0.2 0.2-0.1 0.2-0.7 0.5-0.8 0.3-1.6 0.7l0.2 0.4c0.4 0.8 0.8 1.6 1 2.4s0.3 1.5 0.3 2.3c0.1 0.7 0.1 1.4-0.1 2-0.3 1.2-0.7 2.4-1.6 3.4-0.3 0.5-0.8 0.8-1.2 1.1-0.8 0.5-1.6 0.5-2.4 0.3s-1.6-0.3-2.3-0.7c-0.6-0.3-1.2-0.6-1.6-1.2-0.3-0.4-0.5-0.8-0.6-1.2-0.3-0.9-0.2-1.8 0.1-2.7 0.4-1.2 0.9-2.3 1.4-3.4 0.2-0.3 0.4-0.7 0.5-1.1-0.3 0-0.6 0.1-0.9 0.1-0.7 0-1.3 0-1.9 0.2 0.1 0 0.1 0 0 0zm1.3 8c0.1-0.2 0.2-0.2 0.2-0.4 0.2-0.2 0.5-0.4 0.8-0.4h1.1c1 0.1 2 0.2 3 0.4 0.5 0.1 0.9 0.2 1.4 0.4s0.9 0.5 0.9 1c0.1-0.1 0.1-0.1 0.1-0.2 0.2-0.3 0.5-0.7 0.7-1 0.4-0.6 0.6-1.3 0.9-2v-0.2c-0.2-0.5-0.4-0.9-0.6-1.2-0.7-0.9-1.7-1.2-2.8-1-0.9 0.2-1.5 0.7-1.9 1.4l-0.3 0.1c0.2-0.5 0.6-0.8 1.1-1.1-0.5-0.4-1.2-0.6-1.9-0.6-1.3 0.1-2.4 0.8-3.2 1.8-0.1 0.2-0.2 0.3-0.2 0.5v0.6c0 0.6 0.3 1.3 0.7 1.9zm-0.7-3.1s0.1 0 0 0c0.8-0.8 1.3-1.2 2.1-1.6 1.1-0.4 2.2-0.3 3.2 0.4 0.1-0.1 0.2-0.2 0.3-0.2 1.1-0.5 2.1-0.5 3 0.3 0.5 0.4 0.8 0.9 1 1.6 0 0.1 0 0.1 0.1 0.2 0.5-1.2 0.1-4.5-0.3-5.2h-0.1c-2.5 0.8-5 0.9-7.6 0.5-0.2 0-0.2 0-0.2 0.1-0.5 1-0.9 2-1.2 3-0.1 0.4-0.2 0.6-0.3 0.9zm5 2.6h-0.2c-0.9-0.2-1.9-0.2-2.9-0.2-0.2 0-0.4 0-0.5 0.1-0.3 0.1-0.5 0.4-0.6 0.6-0.1 0.1-0.1 0.2 0 0.2 0.6 0.7 1.4 1.1 2.2 1.4 0.5 0.2 1 0.3 1.6 0.5 0.5 0.2 1.1 0.2 1.6 0.1 0.7-0.2 1.2-0.5 1.8-1l0.1-0.1c0-0.2-0.1-0.4-0.2-0.5-0.3-0.3-0.6-0.5-1-0.6-0.8-0.2-1.3-0.3-1.9-0.5zm4.5-7.2c-0.3-0.8-0.6-1.5-1-2.2-0.2 0.1-0.3 0.2-0.5 0.2-0.9 0.4-1.8 0.7-2.7 0.9s-1.9 0.5-2.8 0.5c-0.1 0-0.2 0.1-0.2 0.2-0.1 0.2-0.2 0.4-0.3 0.5s-0.1 0.2-0.2 0.2c2.5 0.7 5.1 0.6 7.7-0.3z"/>
		<path class="st1" d="m41 58.7c-0.3 0-0.6 0-0.9-0.1h-0.1c-0.8-0.2-1.6-0.3-2.3-0.7-0.6-0.3-1.2-0.6-1.8-1.2-0.3-0.4-0.5-0.8-0.7-1.3-0.3-0.9-0.3-1.9 0.1-3 0.5-1.4 0.9-2.5 1.4-3.4 0.1-0.2 0.2-0.4 0.3-0.5h-0.3-1.3-0.4-0.2l-0.3-0.1 0.1-0.6h0.3c1 0 1.8 0 2.6-0.1 1.6-0.2 2.9-0.5 4.2-0.9 1.4-0.5 2.6-0.9 3.6-1.6l0.9-0.5-0.3 0.3v0.1h0.5l-0.8 0.5c-0.2 0.2-0.3 0.2-0.4 0.3-0.3 0.2-0.5 0.5-0.8 0.6 0.3 0.7 0.7 1.4 0.9 2.2 0.2 0.7 0.3 1.5 0.3 2.2v0.2c0.1 0.7 0.1 1.4-0.1 2.2-0.3 1.2-0.7 2.4-1.6 3.6-0.4 0.5-0.9 0.9-1.3 1.2-0.4 0.4-1 0.6-1.6 0.6zm-4.5-2.5c0.5 0.5 1.1 0.9 2 1.2 0.3 0.2 0.7 0.2 1.1 0.3 0.2 0.1 0.3 0.1 0.5 0.2 0.3 0.1 0.9 0.1 1.4 0.1 0.5-0.1 1-0.4 1.6-0.9 0-0.1-0.1-0.2-0.1-0.2-0.2-0.2-0.5-0.4-0.9-0.5s-0.8-0.2-1.2-0.2h-0.2l-0.5-0.1c-1.1-0.2-1.9-0.2-2.8-0.2-0.2 0-0.3 0-0.5 0.1-0.2-0.1-0.3 0-0.4 0.2zm1-1.2h0.6c0.9 0.1 2 0.2 3 0.4h0.2c0.5 0.1 0.9 0.2 1.4 0.4 0.2 0.2 0.6 0.3 0.9 0.7 0.2-0.2 0.3-0.5 0.5-0.6 0.3-0.5 0.5-1.1 0.7-1.7l0.1-0.2c-0.2-0.5-0.3-0.8-0.6-1.2-0.6-0.8-1.5-1.1-2.4-0.9-0.7 0.2-1.3 0.6-1.8 1.2 0 0 0 0.1-0.1 0.1l-0.2 0.3-0.6-0.5 0.2-0.2c0.2-0.3 0.5-0.6 0.8-0.9-0.4-0.2-0.9-0.3-1.3-0.3-1.2 0.1-2.1 0.6-3 1.6-0.1 0.1-0.1 0.2-0.1 0.2v0.2 0.4c0 0.5 0.2 0.9 0.4 1.4 0.2-0.3 0.6-0.5 1-0.5h0.1s0.1 0 0.2 0.1c-0.1 0 0 0 0 0zm7.3-1.1zm0-0.1zm-2.4-2.7c0.7 0 1.3 0.2 1.9 0.7 0.3 0.2 0.5 0.5 0.8 0.9 0.1-1.2-0.2-3-0.4-3.7-2.3 0.7-4.8 0.9-7.4 0.4-0.4 0.8-0.8 1.6-1.1 2.6 0.4-0.3 0.8-0.5 1.2-0.7 1.2-0.5 2.3-0.4 3.4 0.3 0.1 0 0.1-0.1 0.2-0.1 0.4-0.3 0.9-0.4 1.4-0.4zm-4.8-2.4c2.4 0.4 4.6 0.2 6.8-0.4l-0.5-1.1c-0.2 0.2-0.3 0.2-0.4 0.3-0.2 0.1-0.4 0.3-0.6 0.1s-0.1-0.4 0.2-0.6c-0.7 0.3-1.5 0.5-2.4 0.8-1 0.2-1.9 0.5-2.9 0.5 0 0.1-0.1 0.2-0.2 0.4v0z"/>
		<path class="st2" d="m36.1 56.1c-0.4-0.6-0.7-1.2-0.7-1.9v-0.6c0-0.2 0.1-0.3 0.2-0.5 0.9-1 1.9-1.7 3.2-1.8 0.7-0.1 1.3 0.2 1.9 0.6-0.5 0.3-0.8 0.6-1.1 1.1l0.1-0.1c0.5-0.7 1.1-1.2 1.9-1.4 1.1-0.3 2.1 0.1 2.8 1 0.3 0.4 0.5 0.8 0.6 1.2v0.2c-0.2 0.7-0.5 1.4-0.9 2-0.2 0.4-0.5 0.7-0.7 1 0 0.1-0.1 0.1-0.1 0.2-0.1-0.5-0.5-0.9-0.9-1-0.5-0.2-0.9-0.3-1.4-0.4-1-0.2-2-0.3-3-0.4h-1.1c-0.3 0-0.6 0.2-0.8 0.4 0.1 0.2 0 0.3 0 0.4z"/>
		<path class="st1" d="m43.2 57.9-0.1-0.7c0-0.4-0.2-0.5-0.7-0.8-0.4-0.2-0.8-0.2-1.2-0.3h-0.2c-1-0.2-2-0.3-3-0.4h-0.8-0.3c-0.2 0-0.4 0.1-0.5 0.3-0.1 0.1-0.1 0.2-0.2 0.2 0 0.1-0.1 0.1-0.1 0.2l-0.3 0.5-0.2-0.6c-0.5-0.7-0.7-1.4-0.7-2.2v-0.5-0.2c0-0.2 0.1-0.5 0.2-0.6 0.9-1.2 2.1-1.8 3.4-1.9 0.7-0.1 1.4 0.2 2 0.6 0.2-0.2 0.5-0.2 0.9-0.3 1.2-0.3 2.4 0.1 3.1 1.1 0.3 0.4 0.5 0.9 0.7 1.3 0 0.1 0.1 0.2 0 0.4l-0.1 0.2c-0.2 0.6-0.4 1.2-0.8 1.9-0.2 0.2-0.4 0.5-0.5 0.8-0.1 0.1-0.2 0.2-0.2 0.3s-0.1 0.1-0.1 0.2zm-5.7-2.9h0.6c0.9 0.1 2 0.2 3 0.4h0.2c0.5 0.1 0.9 0.2 1.4 0.4 0.2 0.2 0.6 0.3 0.9 0.7 0.2-0.2 0.3-0.5 0.5-0.6 0.3-0.5 0.5-1.1 0.7-1.7l0.1-0.2c-0.2-0.5-0.3-0.8-0.6-1.2-0.6-0.8-1.5-1.1-2.4-0.9-0.7 0.2-1.3 0.6-1.8 1.2 0 0 0 0.1-0.1 0.1l-0.2 0.3-0.6-0.5 0.2-0.2c0.2-0.3 0.5-0.6 0.8-0.9-0.4-0.2-0.9-0.3-1.3-0.3-1.2 0.1-2.1 0.6-3 1.6-0.1 0.1-0.1 0.2-0.1 0.2v0.2 0.4c0 0.5 0.2 0.9 0.4 1.4 0.2-0.3 0.6-0.5 1-0.5h0.1s0.1 0 0.2 0.1c-0.1 0 0 0 0 0zm7.3-1.1zm0-0.1z"/>
		<path class="st3" d="m35.4 53c0.1-0.3 0.2-0.5 0.2-0.9 0.4-1 0.8-2.1 1.2-3 0.1-0.1 0.1-0.2 0.2-0.1 2.6 0.5 5.1 0.3 7.6-0.5h0.1c0.4 0.8 0.8 4 0.3 5.2 0-0.1-0.1-0.1-0.1-0.2-0.2-0.6-0.5-1.2-1-1.6-0.9-0.8-1.9-0.8-3-0.3-0.1 0.1-0.2 0.1-0.3 0.2-1-0.7-2-0.9-3.2-0.4-0.6 0.4-1.2 0.8-2 1.6 0.1 0 0 0 0 0z"/>
		<path class="st1" d="m45.2 54-0.1-0.2s0-0.1-0.1-0.1c-0.2-0.7-0.5-1.2-1-1.6-0.9-0.7-1.8-0.8-3-0.3-0.1 0-0.2 0.1-0.2 0.1s-0.1 0-0.1 0.1h-0.2c-0.9-0.7-1.9-0.9-3.1-0.4-0.8 0.3-1.3 0.7-2 1.6v0.1l-0.1-0.1v-0.2l0.1-0.2c0.1-0.2 0.2-0.4 0.2-0.5 0.4-1.2 0.8-2.1 1.2-3 0.1-0.2 0.2-0.2 0.3-0.2 2.7 0.3 5.2 0.2 7.6-0.6h0.1 0.1v0.1c0.5 0.8 0.8 4.1 0.3 5.3zm-2.8-2.7c0.6 0 1.2 0.2 1.7 0.6s0.8 0.9 1 1.6c0.3-1.3 0-4.1-0.4-4.9-2.4 0.8-5 0.9-7.6 0.5-0.1 0-0.1 0-0.2 0.1-0.5 0.9-0.9 1.9-1.2 3-0.1 0.2-0.2 0.4-0.2 0.5 0.6-0.7 1.2-1.1 1.9-1.4 1.2-0.5 2.3-0.3 3.2 0.4h0.1c0.1-0.1 0.2-0.1 0.2-0.1 0.6-0.2 1-0.3 1.5-0.3z"/>
		<path class="st4" d="m40.4 55.6c0.5 0.2 1.2 0.2 1.7 0.4 0.4 0.1 0.8 0.3 1 0.6 0.2 0.2 0.2 0.3 0.2 0.5 0 0 0 0.1-0.1 0.1-0.5 0.5-1.1 0.9-1.8 1-0.5 0.1-1 0-1.6-0.1-0.5-0.2-1.1-0.2-1.6-0.5-0.9-0.3-1.6-0.7-2.2-1.4-0.1-0.1-0.1-0.2 0-0.2 0.2-0.2 0.3-0.5 0.6-0.6 0.2-0.1 0.4-0.1 0.5-0.1 0.9 0 1.9 0.1 2.9 0.2 0.3 0.1 0.3 0.1 0.4 0.1z"/>
		<path class="st1" d="m41.1 58.4c-0.4 0-0.8-0.1-1.2-0.2-0.2-0.1-0.4-0.1-0.6-0.2-0.3-0.1-0.6-0.2-0.9-0.2-1-0.4-1.7-0.9-2.3-1.5-0.1-0.1-0.2-0.2 0-0.4l0.1-0.1c0.2-0.2 0.3-0.5 0.6-0.6 0.2-0.1 0.4-0.1 0.6-0.1 1 0 2 0.1 2.9 0.2h0.1l0.3 0.1c0.1 0 0.2 0.1 0.3 0.1 0.4 0.1 0.8 0.2 1.2 0.2 0.5 0.1 0.9 0.3 1.1 0.6 0.2 0.2 0.2 0.4 0.2 0.7 0 0.1-0.1 0.2-0.1 0.2-0.6 0.5-1.2 0.9-1.9 1-0.1 0.2-0.3 0.2-0.4 0.2zm-1.1-0.4c0.6 0.1 1 0.2 1.6 0.1s1.2-0.4 1.7-0.9c0-0.2-0.1-0.3-0.2-0.4-0.2-0.2-0.5-0.5-0.9-0.5s-0.8-0.3-1.2-0.4c-0.2 0-0.2-0.1-0.4-0.1l-0.2-0.1h-0.2c-0.9-0.2-1.8-0.2-2.9-0.2-0.2 0-0.4 0-0.5 0.1-0.2 0.1-0.3 0.2-0.5 0.5l-0.1 0.1c0.5 0.6 1.2 1 2.2 1.4 0.3 0.1 0.6 0.2 0.9 0.2 0.3 0.1 0.4 0.1 0.7 0.2zm3.2-0.9z"/>
		<path class="st4" d="m44.8 48.8c-2.6 0.9-5.1 0.9-7.7 0.5 0.1-0.1 0.1-0.2 0.2-0.2 0.1-0.2 0.2-0.4 0.3-0.5s0.1-0.2 0.2-0.2c0.9-0.1 1.9-0.3 2.8-0.5s1.9-0.5 2.7-0.9c0.2-0.1 0.3-0.2 0.5-0.2 0.4 0.6 0.7 1.3 1 2z"/>
		<path class="st1" d="m40.1 49.6c-1 0-2-0.1-3-0.2h-0.1l0.1-0.2c0-0.1 0.1-0.2 0.1-0.2 0-0.1 0.1-0.2 0.1-0.2 0.1-0.2 0.2-0.2 0.2-0.4 0.1-0.2 0.2-0.2 0.3-0.2 0.9-0.1 1.9-0.3 2.8-0.5 1.1-0.3 1.9-0.5 2.7-0.9 0.1-0.1 0.2-0.1 0.3-0.2l0.2-0.1 1 2.3h-0.1c-1.4 0.6-2.9 0.8-4.6 0.8zm-2.9-0.4c2.7 0.5 5.1 0.3 7.5-0.5l-0.9-2-0.1 0.1c-0.1 0.1-0.2 0.1-0.3 0.2-0.8 0.4-1.6 0.6-2.7 0.9-1 0.2-1.9 0.5-2.9 0.5-0.1 0-0.1 0-0.2 0.1-0.1 0.2-0.2 0.2-0.2 0.4 0 0.1-0.1 0.2-0.1 0.2-0.1 0-0.1 0.1-0.1 0.1z"/>
		<polygon class="st5" points="41.2 50.4 41.4 50.4 41.9 50.6 42.5 50.9 43 51.3 43 51.5 42.5 51.4 41.7 51.5 40.8 51.8 38.8 51.2 39.4 50.6 40 50.4 40.4 50.3 40.5 50.3 40.7 50.3 41 50.3"/>
		<path class="st1" d="m40.8 51.9-2.1-0.6 0.7-0.6 0.5-0.2 0.5-0.1h0.8l0.2 0.1 0.5 0.2 0.6 0.3 0.5 0.4 0.1 0.4-0.7-0.1-0.8 0.1zm-1.9-0.7 1.8 0.5 0.9-0.3 0.8-0.1 0.5 0.1v-0.2l-0.4-0.4-0.6-0.3-0.5-0.2-0.2-0.1h-0.7l-0.5 0.1-0.5 0.2z"/>
		<path class="st2" d="m36.1 56.1c-0.4-0.6-0.6-1.2-0.6-1.9v-0.6c0-0.2 0.1-0.3 0.2-0.5 0.9-1 1.9-1.7 3.2-1.8 0.7-0.1 1.3 0.2 1.9 0.6-0.5 0.3-0.8 0.6-1.1 1.1l0.1-0.1c0.5-0.7 1.1-1.2 1.9-1.4 1.1-0.3 2.1 0.1 2.8 1 0.3 0.4 0.5 0.8 0.6 1.2v0.2c-0.2 0.7-0.5 1.4-0.9 2-0.2 0.4-0.5 0.7-0.7 1 0 0.1-0.1 0.1-0.1 0.2-0.1-0.5-0.5-0.9-0.9-1-0.5-0.2-0.9-0.3-1.4-0.4-1-0.2-2-0.3-3-0.4h-1.1c-0.3 0-0.6 0.2-0.8 0.4 0 0.2-0.1 0.3-0.1 0.4z"/>
		<path class="st1" d="m43.4 57.3v-0.2c-0.1-0.5-0.5-0.8-0.9-1s-0.9-0.3-1.2-0.4h-0.2c-1-0.2-2-0.3-3-0.4h-0.8-0.3c-0.3 0-0.5 0.2-0.7 0.4-0.1 0.1-0.1 0.2-0.2 0.2 0 0.1-0.1 0.1-0.1 0.2l-0.1 0.1h0.1c-0.4-0.7-0.6-1.3-0.7-2v-0.5-0.2c0-0.2 0.1-0.4 0.2-0.5 0.9-1.2 1.9-1.7 3.3-1.8 0.7-0.1 1.3 0.2 1.9 0.6 0.3-0.2 0.6-0.3 0.9-0.4 1.1-0.3 2.2 0.1 2.9 1 0.3 0.4 0.5 0.8 0.6 1.2v0.2l-0.1 0.3c-0.2 0.6-0.4 1.2-0.8 1.8-0.2 0.2-0.3 0.5-0.5 0.7-0.1 0.1-0.2 0.2-0.2 0.3l-0.2 0.2zm-5.9-2.1h0.6c0.9 0.1 1.9 0.2 3 0.4h0.2c0.5 0.1 0.9 0.2 1.3 0.4s0.8 0.5 0.9 0.9c0.1-0.1 0.2-0.2 0.2-0.3 0.2-0.2 0.4-0.5 0.5-0.7 0.3-0.5 0.5-1.2 0.8-1.8l0.1-0.2v-0.1c-0.2-0.5-0.4-0.9-0.6-1.2-0.6-0.9-1.6-1.2-2.7-0.9-0.8 0.2-1.4 0.6-1.9 1.3l-0.2 0.2v-0.3c0.2-0.4 0.5-0.8 1-1-0.5-0.4-1.2-0.5-1.8-0.5-1.2 0.1-2.3 0.6-3.1 1.7-0.1 0.2-0.2 0.2-0.2 0.4v0.2 0.5c0 0.6 0.2 1.2 0.5 1.9 0.1-0.1 0.1-0.2 0.2-0.2 0.2-0.3 0.5-0.5 0.9-0.5 0.1-0.2 0.3-0.2 0.3-0.2z"/>
			<path class="st6" d="m33.5 36.1"/>
			<path class="st7" d="m19.5 27.9-6.8-7.7 20-3.7 0.5 2.6-15.5 2.9 3.7 4.3c1.5-1.1 3.1-1.8 4.9-2.1 6.7-1.2 13.1 3.2 14.4 9.9 1.2 6.7-3.2 13.1-9.9 14.4-6.7 1.2-13.1-3.2-14.4-9.9-0.7-4.1 0.6-7.9 3.1-10.7"/>
			<polygon class="st1" points="14.8 22.5 12.7 20.2 32.8 16.5 33.2 19.1"/>
			<circle class="st8" cx="53.2" cy="36.1" r="3"/>
			<circle class="st9" cx="53.2" cy="36.1" r="1.8"/>
			<circle class="st10" cx="53.2" cy="36.2" r=".7"/>
			<circle class="st8" cx="28.6" cy="36.1" r="3"/>
			<circle class="st9" cx="28.6" cy="36.1" r="1.8"/>
			<circle class="st10" cx="28.6" cy="36.2" r=".7"/>
	<path class="st6" d="m33.5 36.1"/>
	<circle class="st8" cx="53.2" cy="36.1" r="3"/>
	<circle class="st9" cx="53.2" cy="36.1" r="1.8"/>
	<circle class="st10" cx="53.2" cy="36.2" r=".7"/>
	<circle class="st9" cx="28.6" cy="36.1" r="1.8"/>
	<circle class="st10" cx="28.6" cy="36.2" r=".7"/>
	<circle class="st1" cx="28.6" cy="36.1" r="3"/>
			<path class="st7" d="m62.3 27.9c2.5 2.8 3.8 6.6 3 10.6-1.2 6.7-7.7 11.1-14.4 9.9s-11.1-7.7-9.9-14.4 7.7-11.1 14.4-9.9c1.8 0.3 3.5 1 4.9 2.1l3.7-4.3-15.5-2.9 0.5-2.6 20 3.7-6.7 7.8"/>
			<polygon class="st1" points="69.1 20.2 67 22.5 48.6 19.1 49 16.5"/>
	<circle class="st1" cx="53.2" cy="36.1" r="3"/>
</g><g id="g4174_1_" transform="matrix(-.69772 0 0 .69772 73.301 2.6381)">
	<g id="path4176_1_" transform="rotate(-12.505 71.921 21.869)">
		<path class="st11" d="m67.1 21.3c2.4 1.2 4.1 3 5.1 5.5"/>
		<path class="st12" d="m72.1 27.8c0.2 0 0.3 0 0.5-0.1 0.5-0.2 0.8-0.8 0.6-1.4-1.1-2.7-3-4.7-5.6-6-0.5-0.3-1.2 0-1.4 0.5-0.3 0.5 0 1.2 0.5 1.4 2.1 1 3.7 2.7 4.6 4.9 0.1 0.4 0.4 0.7 0.8 0.7z"/>
	</g>
	<g id="path4178_1_" transform="rotate(-12.505 71.921 21.869)">
		<path class="st12" d="m76.6 27.3h0.4c0.6-0.2 0.9-0.8 0.7-1.3-1.7-5.6-4.4-8.4-9.6-10-0.5-0.2-1.1 0.1-1.3 0.7s0.1 1.1 0.7 1.3c4.6 1.4 6.7 3.7 8.3 8.6 0 0.3 0.4 0.6 0.8 0.7z"/>
	</g>
</g><g id="g4174_2_" transform="matrix(-.67198 .18777 .18777 .67198 59.618 2.1078)">
	<g id="path4176_2_">
		<path class="st11" d="m8.6 25.7c1-2.5 2.7-4.3 5.1-5.5"/>
		<path class="st12" d="m8.7 26.8c-0.2 0-0.3 0-0.5-0.1-0.5-0.2-0.8-0.8-0.6-1.4 1.1-2.7 3-4.7 5.6-6 0.5-0.3 1.2 0 1.4 0.5 0.3 0.5 0 1.2-0.5 1.4-2.1 1-3.7 2.7-4.6 4.9-0.1 0.4-0.4 0.6-0.8 0.7z"/>
	</g>
	<g id="path4178_2_">
		<path class="st12" d="m4.3 26.2h-0.4c-0.6-0.2-0.9-0.8-0.8-1.4 1.7-5.6 4.4-8.4 9.6-10 0.5-0.2 1.1 0.1 1.3 0.7s-0.1 1.1-0.7 1.3c-4.6 1.4-6.7 3.7-8.3 8.6 0 0.5-0.3 0.8-0.7 0.8z"/>
	</g>
</g></g>
</svg>
