<svg id="Layer_1" data-name="Layer 1" xmlns="http://www.w3.org/2000/svg" viewBox="0 0 43.35 48.84"><defs><style>.cls-1{fill:#fff;stroke:#1b8ea9;stroke-miterlimit:10;stroke-width:0.25px;}</style></defs><path class="cls-1" d="M59,13.65a.75.75,0,0,0,0-.47l-.42-1.6h0l0-.16h0l-.64-1.25-.13-.3a.27.27,0,0,0-.09-.12l0-.05,0,0h0a.34.34,0,0,0-.17-.05h-.33l-.06,0h0a.08.08,0,0,0-.07.05l-.16.47a.6.6,0,0,0,0,.19v0a0,0,0,0,0,0,0l.09.14.52,1a.07.07,0,0,0,.06,0,.27.27,0,0,0,.1.11l.17.58L56.43,13.3l-.27,0-1.44-.13,0-.19a.68.68,0,0,1,.28-.62l.91-.66a.77.77,0,0,1,.48-.16h.2a.24.24,0,0,0,.24-.19l.07-.32a.25.25,0,0,0,0-.19l0,0h0l-.47-1.07a.65.65,0,0,0-.15-.18v0a0,0,0,0,0,0,0h0a.64.64,0,0,0-.27-.07h-.49L53.2,11.13s0,0,0,0l.23,2.33v0l.67,1.2-2.85,7.53h-.58V22a.47.47,0,0,0-.22-.39.5.5,0,0,0,.22-.41V15a.48.48,0,0,0-.09-.27l.1,0h0a.09.09,0,0,0,.08,0l.94-.4s0,0,0,0l.06,0s.09,0,.09-.08,0,0,0,0l-2-1.45h0a1.17,1.17,0,0,0-1.18-1.17h-.47L44.7,9.05a.13.13,0,0,0-.09,0,.14.14,0,0,0-.08.05l-.4.56h0a.11.11,0,0,0,0,.16l2.36,1.7H29.13l2.25-1.63a.14.14,0,0,0,.05-.08.15.15,0,0,0,0-.09L31,9.16a.08.08,0,0,0-.07,0,.09.09,0,0,0-.09,0l-3.33,2.38h-.38A1.18,1.18,0,0,0,26,12.62L23.7,14.24a0,0,0,0,0,0,0s0,0,0,0a.14.14,0,0,0,0,.06s0,.05.05.06l1.38.48a.43.43,0,0,0,0,.12v6.21a.5.5,0,0,0,.22.41.47.47,0,0,0-.22.39v.34H23.84a1.07,1.07,0,0,0-1,.71L19,34.05l-.36,0a.89.89,0,0,0-.72.2l-1.66,1.34a.84.84,0,0,0-.25.34h0a.85.85,0,0,0,0,.5l.45,1.67h0l0,.17h0l.68,1.3.14.32a.6.6,0,0,0,.09.13l0,0s0,0,0,0h0a.33.33,0,0,0,.17,0h.45a.08.08,0,0,0,.08-.05l.16-.49a.37.37,0,0,0,0-.29l-.61-1.15a.09.09,0,0,0-.07,0,.32.32,0,0,0-.19-.15l-.17-.58.59-.47.81-.64,1.9.17,0,.2a.73.73,0,0,1-.3.65l-1,.69a.86.86,0,0,1-.51.16h-.22a.26.26,0,0,0-.26.2l-.07.34a.25.25,0,0,0,.05.19l0,0h0l.5,1.13a.18.18,0,0,0,.05.07l.05.13a0,0,0,0,0,0,0h.09a.56.56,0,0,0,.31.09h.43l.05,0,2-1.53A.67.67,0,0,0,22,38.6l.11-.08h0v0h0v-.14a.89.89,0,0,0,0-.23L21.91,36s0,0,0,0l-.69-1.25,3-7.85h.87a.47.47,0,0,0,.44.35h.15a.47.47,0,0,0,.43-.29,1.16,1.16,0,0,0,1,.57h1v1.27H27.8c-.33,0-.59.13-.59.28v5.17c0,.08.09.15.22.19h.05a.62.62,0,0,0,.19,0h.76v3.07h-.14a1,1,0,0,0-.7.28s0,0,0,0a.93.93,0,0,0-.27.65v1.76a1.47,1.47,0,0,0,0,.36c0,.05,0,.11,0,.18.06.29.13.58.21.86a1.57,1.57,0,0,0-.78.64l-2.64,4.1a1.93,1.93,0,0,0-.3,1.21l0,.35-1.51,0h-.08l-.21.07c-.06,0-.14.15-.14.21v1.9a.11.11,0,0,0,0,.09l0,2.27a.49.49,0,0,0,.14.38.53.53,0,0,0,.38.16H25.6a.11.11,0,0,0,.12-.11h2.72a.11.11,0,0,0,0,.07.12.12,0,0,0,.08,0h3.37a.46.46,0,0,0,.34-.16.45.45,0,0,0,.09-.35V51.09h0s0,0,0,0l-.18-1.23a2,2,0,0,0,.35-.37l2.83-4a1.7,1.7,0,0,0,.29-1.26c-.11-.44-.21-.91-.29-1.26h.91a.36.36,0,0,0,.24-.07h0a.12.12,0,0,0,.09,0,7.48,7.48,0,0,0,.78-2.2,2.84,2.84,0,0,0,0-.51V38.65a1,1,0,0,0-.26-.67h0a.11.11,0,0,0-.07,0,.23.23,0,0,0,0-.18.21.21,0,0,0-.14-.16.81.81,0,0,0-.31-.06h-.58V34.49H37c.27,0,.49-.11.49-.24V29.1c0-.16-.27-.29-.61-.29h-.75V27.54h3.13v.78h-.36a.56.56,0,0,0-.3.09h-.1v.06a.61.61,0,0,0-.2.44v11a.47.47,0,0,0,.47.47h.8v1.85h-.48a.81.81,0,0,0-.31.06.2.2,0,0,0-.12.12.93.93,0,0,0-.31.68v1.75a1.5,1.5,0,0,0,.05.37s0,.11,0,.18c.07.29.14.58.22.85a1.68,1.68,0,0,0-.78.64L35.21,51a1.89,1.89,0,0,0-.29,1.21l0,.35-1.5,0h-.08l-.21.06c-.07,0-.15.16-.15.22v1.9a.11.11,0,0,0,0,.09l0,2.27a.54.54,0,0,0,.15.38.52.52,0,0,0,.37.16h3.1a.13.13,0,0,0,.12-.12h2.71a.11.11,0,0,0,0,.08.18.18,0,0,0,.09,0h3.36a.41.41,0,0,0,.34-.17.41.41,0,0,0,.09-.34V55.67h0v0l-.17-1.23a1.71,1.71,0,0,0,.35-.36l2.83-4a1.67,1.67,0,0,0,.28-1.25l-.29-1.26h.91a.36.36,0,0,0,.24-.07h0a.12.12,0,0,0,.1-.05,7.47,7.47,0,0,0,.77-2.2,2.22,2.22,0,0,0,.06-.51V43.22a1,1,0,0,0-.27-.67h0l0,0a1,1,0,0,0-.7-.29h-.24V40.37h.82a.5.5,0,0,0,.5-.5V28.93a.62.62,0,0,0-.62-.62h-.7v-.77h1.41a1.17,1.17,0,0,0,1-.55.46.46,0,0,0,.42.27h.15a.47.47,0,0,0,.46-.47v-.2h1a1,1,0,0,0,.94-.68l3.59-10.49.34.05a.89.89,0,0,0,.68-.2L58.75,14a.66.66,0,0,0,.23-.32ZM27,48.09Zm.11-.16,3.28-4.75a3.63,3.63,0,0,0,.34-.21h2.18L29.64,47.9ZM38,52.67Zm.12-.17,3.27-4.74.35-.21h2.18l-3.27,4.91ZM26,21.64v0h0ZM58.37,11.2l0,0-.05-.12Zm-1.75-.47Zm-40,27.73,0,0,.05.12Zm7.28,9.65h0l-1.67,0v0h1.66ZM37.21,29.05a.41.41,0,0,0-.23-.11A.31.31,0,0,1,37.21,29.05ZM35,52.69h0Z" transform="translate(-15.82 -8.91)"/></svg>