<?xml version="1.0" encoding="UTF-8" standalone="no"?>
<svg
   xmlns:dc="http://purl.org/dc/elements/1.1/"
   xmlns:cc="http://creativecommons.org/ns#"
   xmlns:rdf="http://www.w3.org/1999/02/22-rdf-syntax-ns#"
   xmlns:svg="http://www.w3.org/2000/svg"
   xmlns="http://www.w3.org/2000/svg"
   viewBox="0 0 75.999998 65.999998"
   version="1.1"
   id="svg566"
   width="76"
   height="66">
  <metadata
     id="metadata572">
    <rdf:RDF>
      <cc:Work
         rdf:about="">
        <dc:format>image/svg+xml</dc:format>
        <dc:type
           rdf:resource="http://purl.org/dc/dcmitype/StillImage" />
        <dc:title></dc:title>
      </cc:Work>
    </rdf:RDF>
  </metadata>
  <defs
     id="defs570">
    <linearGradient
       id="c"
       gradientUnits="userSpaceOnUse"
       x1="37.987"
       y1="3.2219999"
       x2="37.987"
       y2="55.578999"
       gradientTransform="matrix(1,0,0,-1,0,67)">
      <stop
         offset=".127"
         stop-color="#fff"
         stop-opacity=".5"
         id="stop4338" />
      <stop
         offset=".267"
         stop-color="#fff"
         stop-opacity=".16"
         id="stop4340" />
      <stop
         offset=".539"
         stop-color="#fff"
         stop-opacity="0"
         id="stop4342" />
    </linearGradient>
    <linearGradient
       id="d"
       gradientUnits="userSpaceOnUse"
       x1="42.786999"
       y1="67.060997"
       x2="37.311001"
       y2="42.758999"
       gradientTransform="matrix(1,0,0,-1,0,67)">
      <stop
         offset="0"
         stop-color="#fff"
         stop-opacity=".5"
         id="stop4347" />
      <stop
         offset="1"
         stop-color="#fff"
         stop-opacity=".17"
         id="stop4349" />
    </linearGradient>
    <linearGradient
       id="a"
       gradientUnits="userSpaceOnUse"
       x1="37.985001"
       y1="-541.776"
       x2="37.985001"
       y2="-489.42001"
       gradientTransform="matrix(1,0,0,-1,0,-478)">
      <stop
         offset=".127"
         stop-color="#fff"
         stop-opacity=".33"
         id="stop4316" />
      <stop
         offset=".267"
         stop-color="#fff"
         stop-opacity=".16"
         id="stop4318" />
      <stop
         offset=".539"
         stop-color="#fff"
         stop-opacity="0"
         id="stop4320" />
    </linearGradient>
    <linearGradient
       id="b"
       gradientUnits="userSpaceOnUse"
       x1="42.786999"
       y1="-477.93799"
       x2="37.311001"
       y2="-502.23999"
       gradientTransform="matrix(1,0,0,-1,0,-478)">
      <stop
         offset="0"
         stop-color="#fff"
         stop-opacity=".75"
         id="stop4327" />
      <stop
         offset="1"
         stop-color="#fff"
         stop-opacity=".17"
         id="stop4329" />
    </linearGradient>
  </defs>
  <path
     d="m 61.404136,57.751118 c 0.0019,-0.02655 -0.01356,-0.05128 -0.03822,-0.06128 l -1.61296,-0.672285 c -0.03153,-0.01315 -0.0678,0.0013 -0.0816,0.03258 l -1.295734,2.887762 c -0.01384,0.03127 -1.1e-4,0.06786 0.03088,0.08231 l 1.38286,0.642981 -0.09641,3.526063 c 0,0 0.922456,-0.481549 1.163026,-0.478449 0,0 0.03448,-2.506772 0.548157,-5.959706 z m -1.580449,6.379548 0.08682,-3.513339 c 0.0014,-0.02518 -0.01342,-0.04844 -0.03681,-0.05785 l -1.364047,-0.633722 1.246019,-2.775283 1.517582,0.632532 c -0.489937,2.198547 -0.279904,5.935805 -0.517918,5.93403 -0.959349,0.333174 -0.284422,0.09699 -0.931644,0.413632 z"
     fill="#010101"
     id="path80"
     style="stroke-width:0.130798" />
  <path
     d="m 61.177934,53.588505 1.888224,0.787018 c 0.615033,0.255367 1.001967,0.871047 0.965312,1.535978 l -0.513863,5.380992 c 0,0 -1.690484,2.322834 -3.69392,2.838173 l 0.09134,-3.554238 -1.341945,-0.624882 z"
     fill="#ffda62"
     id="path152"
     style="stroke-width:0.130798" />
  <path
     d="m 64.150745,55.924374 c 0.04046,-0.719592 -0.377149,-1.386516 -1.042165,-1.66437 l -1.888226,-0.787017 c -0.06667,-0.02779 -0.143261,0.0038 -0.17105,0.07041 l -1.448232,3.474625 c -0.02779,0.06668 0.0038,0.143261 0.07041,0.171052 l 1.534485,0.639577 c -0.103224,2.241089 -0.275713,3.660816 -0.440507,5.929205 0.03814,2.06e-4 0.09516,-0.03442 0.312954,-0.19472 0.916418,-0.674473 2.314438,-2.135411 2.445427,-2.206273 0.08569,-0.04635 0.231053,-0.493972 0.231053,-0.493972 0.122545,-2.929121 0.266972,-2.009588 0.395851,-4.938514 z m -2.688053,1.825645 c 0.002,-0.05328 -0.02851,-0.10244 -0.07715,-0.124267 l -1.495852,-0.623474 1.354636,-3.250066 1.773531,0.739211 c 0.565775,0.236618 0.920876,0.804264 0.886142,1.416541 l -0.356707,5.065651 c -0.03447,0.06604 0.01591,0.327295 -0.03813,0.37878 -0.712208,0.678533 -2.117635,2.035123 -2.430748,2.210741 -0.330453,0.23545 0.233759,-3.4357 0.384281,-5.813112 z"
     fill="#010101"
     id="path154"
     style="stroke-width:0.130798" />
  <path
     d="M 47.034318,84.550711"
     fill="none"
     stroke="#010101"
     stroke-linecap="round"
     stroke-linejoin="round"
     stroke-width="0.0824026"
     id="path182" />
  <path
     d="m 60.879078,52.126254 0.04467,0.01862 a 0.70892353,0.70892353 0 0 0 0.925888,-0.382122 l 3.81985,-9.164654 a 0.70892353,0.70892353 0 0 0 -0.380414,-0.926594 l -0.04467,-0.01862 a 0.70892353,0.70892353 0 0 0 -0.927097,0.381621 l -3.81985,9.164653 a 0.70892353,0.70892353 0 0 0 0.38162,0.927099 z"
     fill="#ffda62"
     id="path206"
     style="stroke-width:0.130798" />
  <path
     d="m 60.830771,52.242155 0.04467,0.01862 a 0.8357973,0.8357973 0 0 0 1.091307,-0.449215 l 3.81985,-9.164653 a 0.8357973,0.8357973 0 0 0 -0.449214,-1.091308 l -0.04467,-0.01862 a 0.83448932,0.83448932 0 0 0 -1.091309,0.449213 l -3.819849,9.164654 a 0.83448932,0.83448932 0 0 0 0.449215,1.091307 z m 4.411507,-10.458376 a 0.58204977,0.58204977 0 0 1 0.313323,0.761177 l -3.821863,9.169484 a 0.58204977,0.58204977 0 0 1 -0.761178,0.313323 l -0.04467,-0.01862 a 0.58335773,0.58335773 0 0 1 -0.314531,-0.761682 l 3.81985,-9.164654 a 0.58335773,0.58335773 0 0 1 0.762385,-0.31282 z"
     fill="#010101"
     id="path208"
     style="stroke-width:0.130798" />
  <path
     d="m 57.40919,60.199693 0.217314,0.09058 a 0.61605717,0.61605717 0 0 0 0.803942,-0.330926 l 2.926152,-7.020479 a 0.61605717,0.61605717 0 0 0 -0.330926,-0.803942 l -0.217315,-0.09058 a 0.61605717,0.61605717 0 0 0 -0.803942,0.330926 l -2.925649,7.019273 a 0.61605717,0.61605717 0 0 0 0.330424,0.805148 z"
     fill="#ffda62"
     id="path210"
     style="stroke-width:0.130798" />
  <path
     d="m 57.358868,60.320423 0.217316,0.09058 a 0.74162295,0.74162295 0 0 0 0.96815,-0.39852 l 2.928164,-7.025309 a 0.74162295,0.74162295 0 0 0 -0.398015,-0.969357 l -0.217315,-0.09058 a 0.74162295,0.74162295 0 0 0 -0.968653,0.399726 l -2.92565,7.019273 a 0.74162295,0.74162295 0 0 0 0.396003,0.974187 z m 3.613565,-8.064568 a 0.49049138,0.49049138 0 0 1 0.263333,0.639732 l -2.925649,7.019273 a 0.4891834,0.4891834 0 0 1 -0.633292,0.25468 L 57.45951,60.07896 a 0.4891834,0.4891834 0 0 1 -0.263836,-0.638525 l 2.924644,-7.016857 a 0.49049138,0.49049138 0 0 1 0.63973,-0.263333 z"
     fill="#010101"
     id="path212"
     style="stroke-width:0.130798" />
  <path
     d="m 64.385232,41.939531 1.305098,0.543966 a 0.06540315,0.06540315 0 1 0 0.05033,-0.120736 l -1.305098,-0.543967 a 0.06540269,0.06540269 0 1 0 -0.05033,0.120735 z"
     fill="#010101"
     id="path214"
     style="stroke-width:0.130798" />
  <path
     d="m 64.178414,42.435733 1.305097,0.543967 a 0.06540315,0.06540315 0 0 0 0.05033,-0.120736 l -1.305097,-0.543968 a 0.06540362,0.06540362 0 1 0 -0.05033,0.120737 z"
     fill="#010101"
     id="path216"
     style="stroke-width:0.130798" />
  <path
     d="m 63.902656,43.097336 1.305097,0.543967 a 0.06540269,0.06540269 0 1 0 0.05033,-0.120735 l -1.305102,-0.543962 a 0.06540269,0.06540269 0 1 0 -0.05033,0.120735 z"
     fill="#010101"
     id="path218"
     style="stroke-width:0.130798" />
  <path
     d="m 63.557456,43.925547 1.305097,0.543968 a 0.06540315,0.06540315 0 0 0 0.05033,-0.120736 l -1.3051,-0.543968 a 0.06540315,0.06540315 0 1 0 -0.05033,0.120736 z"
     fill="#010101"
     id="path220"
     style="stroke-width:0.130798" />
  <path
     d="m 63.212759,44.752552 1.305097,0.543966 a 0.06540315,0.06540315 0 0 0 0.05033,-0.120736 l -1.305097,-0.543967 a 0.06540269,0.06540269 0 1 0 -0.05033,0.120735 z"
     fill="#010101"
     id="path222"
     style="stroke-width:0.130798" />
  <path
     d="m 62.799122,45.744957 1.305098,0.543968 a 0.06540315,0.06540315 0 0 0 0.05033,-0.120736 l -1.305098,-0.543968 a 0.06540315,0.06540315 0 1 0 -0.05033,0.120736 z"
     fill="#010101"
     id="path224"
     style="stroke-width:0.130798" />
  <path
     d="m 62.316546,46.902761 1.305097,0.543968 a 0.06540315,0.06540315 0 0 0 0.05033,-0.120736 l -1.3051,-0.543967 a 0.06540269,0.06540269 0 1 0 -0.05033,0.120735 z"
     fill="#010101"
     id="path226"
     style="stroke-width:0.130798" />
  <path
     d="m 61.900392,47.901203 1.305098,0.543968 a 0.06540226,0.06540226 0 0 0 0.05032,-0.120736 l -1.305101,-0.543962 a 0.06540315,0.06540315 0 1 0 -0.05033,0.120736 z"
     fill="#010101"
     id="path228"
     style="stroke-width:0.130798" />
  <path
     d="m 61.557708,48.723378 1.305097,0.543967 a 0.06540269,0.06540269 0 0 0 0.05033,-0.120735 L 61.60803,48.602648 a 0.06540269,0.06540269 0 1 0 -0.05033,0.120735 z"
     fill="#010101"
     id="path230"
     style="stroke-width:0.130798" />
  <path
     d="m 61.213011,49.550383 1.305097,0.543967 a 0.06540269,0.06540269 0 0 0 0.05033,-0.120735 l -1.305097,-0.543968 a 0.06540315,0.06540315 0 1 0 -0.05033,0.120736 z"
     fill="#010101"
     id="path232"
     style="stroke-width:0.130798" />
  <path
     d="m 60.868314,50.377386 1.305097,0.543968 a 0.06540315,0.06540315 0 0 0 0.05033,-0.120736 L 60.91864,50.256656 a 0.06540315,0.06540315 0 1 0 -0.05033,0.120736 z"
     fill="#010101"
     id="path234"
     style="stroke-width:0.130798" />
  <path
     d="m 60.592053,51.040198 1.305097,0.543966 a 0.06409088,0.06409088 0 0 0 0.08211,-0.0338 0.0627829,0.0627829 0 0 0 -0.0338,-0.08211 l -1.305097,-0.543968 a 0.0627829,0.0627829 0 0 0 -0.08331,0.03329 0.06409088,0.06409088 0 0 0 0.03501,0.0826 z"
     fill="#010101"
     id="path236"
     style="stroke-width:0.130798" />
  <path
     d="m 60.385739,51.535192 1.305095,0.543968 a 0.06540315,0.06540315 0 1 0 0.05033,-0.120736 l -1.305101,-0.543967 a 0.06540226,0.06540226 0 1 0 -0.05032,0.120735 z"
     fill="#010101"
     id="path238"
     style="stroke-width:0.130798" />
  <path
     d="m 59.982676,52.434229 1.349767,0.562585 a 0.06540269,0.06540269 0 0 0 0.05033,-0.120735 l -1.349775,-0.562581 a 0.06540269,0.06540269 0 0 0 -0.05033,0.120735 z"
     fill="#010101"
     id="path240"
     style="stroke-width:0.130798" />
  <path
     d="m 59.706918,53.095833 1.349767,0.562585 a 0.06540315,0.06540315 0 0 0 0.05033,-0.120736 l -1.349767,-0.562586 a 0.06540362,0.06540362 0 0 0 -0.05033,0.120737 z"
     fill="#010101"
     id="path242"
     style="stroke-width:0.130798" />
  <path
     d="m 59.360208,53.927665 1.349767,0.562586 a 0.0627829,0.0627829 0 0 0 0.08211,-0.03379 0.06147492,0.06147492 0 0 0 -0.0338,-0.08211 l -1.349767,-0.562585 a 0.06147492,0.06147492 0 0 0 -0.08211,0.0338 0.0627829,0.0627829 0 0 0 0.0338,0.08211 z"
     fill="#010101"
     id="path244"
     style="stroke-width:0.130798" />
  <path
     d="m 59.017524,54.74984 1.349767,0.562587 a 0.06540315,0.06540315 0 0 0 0.05033,-0.120736 l -1.349767,-0.562585 a 0.06540226,0.06540226 0 1 0 -0.05033,0.120734 z"
     fill="#010101"
     id="path246"
     style="stroke-width:0.130798" />
  <path
     d="m 58.605398,55.738623 1.349767,0.562586 a 0.06540315,0.06540315 0 0 0 0.05033,-0.120736 l -1.349767,-0.562586 a 0.06540315,0.06540315 0 0 0 -0.05033,0.120736 z"
     fill="#010101"
     id="path248"
     style="stroke-width:0.130798" />
  <path
     d="m 58.189747,56.735857 1.349767,0.562587 a 0.06540315,0.06540315 0 0 0 0.05033,-0.120736 l -1.349771,-0.562581 a 0.06540315,0.06540315 0 0 0 -0.05033,0.120736 z"
     fill="#010101"
     id="path250"
     style="stroke-width:0.130798" />
  <path
     d="m 57.84505,57.562861 1.349767,0.562587 a 0.06540315,0.06540315 0 0 0 0.05033,-0.120736 l -1.349768,-0.562587 a 0.06540315,0.06540315 0 0 0 -0.05033,0.120736 z"
     fill="#010101"
     id="path252"
     style="stroke-width:0.130798" />
  <path
     d="m 57.569292,58.224465 1.349767,0.562586 a 0.0627829,0.0627829 0 0 0 0.08211,-0.0338 0.06147492,0.06147492 0 0 0 -0.0338,-0.08211 l -1.349767,-0.562585 a 0.06147492,0.06147492 0 0 0 -0.08211,0.0338 0.0627829,0.0627829 0 0 0 0.0338,0.08211 z"
     fill="#010101"
     id="path254"
     style="stroke-width:0.130798" />
  <path
     d="m 57.293534,58.886068 1.349767,0.562586 a 0.06540315,0.06540315 0 0 0 0.05033,-0.120736 l -1.349767,-0.562587 a 0.06540362,0.06540362 0 1 0 -0.05033,0.120737 z"
     fill="#010101"
     id="path256"
     style="stroke-width:0.130798" />
  <path
     d="m 57.017776,59.547671 1.349767,0.562586 a 0.06540269,0.06540269 0 1 0 0.05033,-0.120735 l -1.349771,-0.562581 a 0.06540269,0.06540269 0 0 0 -0.05033,0.120735 z"
     fill="#010101"
     id="path258"
     style="stroke-width:0.130798" />
  <path
     d="m 24.783067,37.081351 -0.04467,-0.01862 a 0.70892353,0.70892353 0 0 1 -0.377998,-0.925589 l 3.819849,-9.164653 a 0.70892353,0.70892353 0 0 1 0.927095,-0.381617 l 0.04467,0.01862 a 0.70892353,0.70892353 0 0 1 0.380413,0.926595 l -3.819849,9.164653 a 0.70630758,0.70630758 0 0 1 -0.929513,0.380615 z"
     fill="#ffda62"
     id="path360"
     style="stroke-width:0.130798" />
  <path
     d="m 24.69009,37.178633 0.04467,0.01862 a 0.83448932,0.83448932 0 0 0 1.091307,-0.449214 l 3.819849,-9.164654 a 0.83448932,0.83448932 0 0 0 -0.449217,-1.091304 l -0.04467,-0.01862 a 0.83448932,0.83448932 0 0 0 -1.091307,0.449215 l -3.81985,9.164653 a 0.83448932,0.83448932 0 0 0 0.449215,1.091307 z m 4.411505,-10.458376 a 0.58204977,0.58204977 0 0 1 0.313325,0.761179 l -3.821862,9.169482 a 0.58204977,0.58204977 0 0 1 -0.761179,0.313325 l -0.04467,-0.01862 a 0.58204977,0.58204977 0 0 1 -0.313327,-0.761175 l 3.81985,-9.164653 A 0.58204977,0.58204977 0 0 1 29.05491,26.70647 Z"
     fill="#010101"
     id="path362"
     style="stroke-width:0.130798" />
  <path
     d="m 21.489444,45.228258 -0.216108,-0.09007 a 0.61605717,0.61605717 0 0 1 -0.330924,-0.803942 l 2.926152,-7.02048 a 0.61605717,0.61605717 0 0 1 0.80394,-0.330926 l 0.216108,0.09007 a 0.61605717,0.61605717 0 0 1 0.329719,0.803438 l -2.925649,7.019273 a 0.61605717,0.61605717 0 0 1 -0.803238,0.332637 z"
     fill="#ffda62"
     id="path364"
     style="stroke-width:0.130798" />
  <path
     d="m 21.223016,45.258914 0.216108,0.09007 a 0.74162295,0.74162295 0 0 0 0.96815,-0.398519 l 2.928165,-7.02531 a 0.74162295,0.74162295 0 0 0 -0.398015,-0.969358 l -0.216108,-0.09007 a 0.74162295,0.74162295 0 0 0 -0.968653,0.399726 l -2.925649,7.019273 a 0.74162295,0.74162295 0 0 0 0.396002,0.974188 z m 3.614772,-8.064064 a 0.4891834,0.4891834 0 0 1 0.262126,0.639228 l -2.92565,7.019273 a 0.48787542,0.48787542 0 0 1 -0.638021,0.262627 l -0.216108,-0.09007 a 0.48787542,0.48787542 0 0 1 -0.262628,-0.638023 l 2.928165,-7.025308 a 0.4891834,0.4891834 0 0 1 0.638525,-0.263837 z"
     fill="#010101"
     id="path366"
     style="stroke-width:0.130798" />
  <path
     d="m 28.246965,26.877015 1.305098,0.543968 a 0.06540315,0.06540315 0 1 0 0.05033,-0.120736 L 28.29971,26.757285 a 0.06540269,0.06540269 0 0 0 -0.05033,0.120735 z"
     fill="#010101"
     id="path368"
     style="stroke-width:0.130798" />
  <path
     d="m 28.040148,27.373217 1.305096,0.543968 a 0.06540315,0.06540315 0 0 0 0.05033,-0.120736 l -1.302691,-0.542956 a 0.06540226,0.06540226 0 0 0 -0.05032,0.120736 z"
     fill="#010101"
     id="path370"
     style="stroke-width:0.130798" />
  <path
     d="m 27.76439,28.034821 1.305097,0.543968 a 0.06540315,0.06540315 0 1 0 0.05033,-0.120736 L 27.81713,27.915097 a 0.06540269,0.06540269 0 0 0 -0.05033,0.120735 z"
     fill="#010101"
     id="path372"
     style="stroke-width:0.130798" />
  <path
     d="M 27.419189,28.863032 28.724286,29.407 a 0.06540315,0.06540315 0 0 0 0.05033,-0.120736 l -1.302684,-0.54296 a 0.06540269,0.06540269 0 0 0 -0.05033,0.120735 z"
     fill="#010101"
     id="path374"
     style="stroke-width:0.130798" />
  <path
     d="m 27.074492,29.690036 1.305097,0.543968 a 0.06540315,0.06540315 0 0 0 0.05033,-0.120736 l -1.302686,-0.542961 a 0.06540315,0.06540315 0 0 0 -0.05033,0.120736 z"
     fill="#010101"
     id="path376"
     style="stroke-width:0.130798" />
  <path
     d="m 26.660855,30.682441 1.305098,0.543967 a 0.06540226,0.06540226 0 0 0 0.05032,-0.120735 l -1.302681,-0.542961 a 0.06540315,0.06540315 0 0 0 -0.05033,0.120736 z"
     fill="#010101"
     id="path378"
     style="stroke-width:0.130798" />
  <path
     d="m 26.178279,31.840247 1.305097,0.543968 a 0.06540315,0.06540315 0 0 0 0.05033,-0.120736 l -1.302688,-0.542961 a 0.06540315,0.06540315 0 0 0 -0.05033,0.120736 z"
     fill="#010101"
     id="path380"
     style="stroke-width:0.130798" />
  <path
     d="m 25.762127,32.838688 1.305095,0.543968 a 0.06540315,0.06540315 0 0 0 0.05033,-0.120736 l -1.302686,-0.542956 a 0.06540315,0.06540315 0 0 0 -0.05033,0.120736 z"
     fill="#010101"
     id="path382"
     style="stroke-width:0.130798" />
  <path
     d="m 25.419443,33.660863 1.305095,0.543968 a 0.06540315,0.06540315 0 0 0 0.05033,-0.120736 l -1.302686,-0.542956 a 0.06540269,0.06540269 0 0 0 -0.05033,0.120735 z"
     fill="#010101"
     id="path384"
     style="stroke-width:0.130798" />
  <path
     d="m 25.074744,34.487868 1.305097,0.543966 a 0.06540315,0.06540315 0 0 0 0.05033,-0.120736 l -1.302683,-0.54296 a 0.06540315,0.06540315 0 0 0 -0.05033,0.120736 z"
     fill="#010101"
     id="path386"
     style="stroke-width:0.130798" />
  <path
     d="m 24.730047,35.314872 1.305097,0.543967 a 0.06540269,0.06540269 0 0 0 0.05033,-0.120735 l -1.302683,-0.542961 a 0.06540315,0.06540315 0 0 0 -0.05033,0.120736 z"
     fill="#010101"
     id="path388"
     style="stroke-width:0.130798" />
  <path
     d="m 24.453786,35.977681 1.305097,0.543968 a 0.06409088,0.06409088 0 0 0 0.08211,-0.0338 0.0627829,0.0627829 0 0 0 -0.03178,-0.08693 l -1.302682,-0.542962 a 0.06147492,0.06147492 0 0 0 -0.08211,0.0338 0.0627829,0.0627829 0 0 0 0.02937,0.08593 z"
     fill="#010101"
     id="path390"
     style="stroke-width:0.130798" />
  <path
     d="m 24.247472,36.472678 1.305097,0.543966 a 0.06540315,0.06540315 0 1 0 0.05033,-0.120736 l -1.302688,-0.542955 a 0.06540315,0.06540315 0 1 0 -0.05033,0.120736 z"
     fill="#010101"
     id="path392"
     style="stroke-width:0.130798" />
  <path
     d="m 23.845617,37.372217 1.348561,0.562083 a 0.06540315,0.06540315 0 1 0 0.05033,-0.120736 l -1.34856,-0.562084 a 0.06540315,0.06540315 0 0 0 -0.05033,0.120736 z"
     fill="#010101"
     id="path394"
     style="stroke-width:0.130798" />
  <path
     d="m 23.414244,46.444295 31.738847,13.228827 a 1.6872903,1.6872903 0 0 0 2.20656,-0.908286 L 65.767748,38.591974 A 1.6872903,1.6872903 0 0 0 64.859463,36.385412 L 33.120616,23.156585 a 1.6872903,1.6872903 0 0 0 -2.206562,0.908287 l -8.40709,20.170448 a 1.6912142,1.6912142 0 0 0 0.90728,2.208975 z"
     fill="#36abc9"
     id="path396"
     style="stroke-width:0.130798;fill:#37abc8;fill-opacity:1" />
  <path
     d="m 23.341279,46.619355 31.738846,13.228827 a 1.8782549,1.8782549 0 0 0 2.455593,-1.012796 l 8.40709,-20.170448 a 1.879563,1.879563 0 0 0 -1.01038,-2.454586 L 33.193581,22.981525 a 1.879563,1.879563 0 0 0 -2.454585,1.010381 l -8.407091,20.170449 a 1.8834869,1.8834869 0 0 0 1.009374,2.457 z M 64.786497,36.560471 a 1.4989416,1.4989416 0 0 1 0.808607,1.959544 l -8.40709,20.170448 a 1.5002496,1.5002496 0 0 1 -1.959041,0.807399 L 23.487713,46.268028 a 1.5028655,1.5028655 0 0 1 -0.805689,-1.959744 l 8.40709,-20.170448 a 1.4976337,1.4976337 0 0 1 1.958538,-0.806191 z"
     fill="#010101"
     id="path398"
     style="stroke-width:0.130798" />
  <path
     d="m 23.569859,38.033819 1.348561,0.562084 a 0.06540269,0.06540269 0 1 0 0.05033,-0.120735 l -1.34856,-0.562083 a 0.06540315,0.06540315 0 0 0 -0.05033,0.120736 z"
     fill="#010101"
     id="path400"
     style="stroke-width:0.130798" />
  <polyline
     points="177.03 53.6 144.91 14.13 124.95 15.66 164.17 59.93"
     fill="#ffffff"
     id="polyline402"
     transform="matrix(-0.12073052,-0.05032077,-0.05032077,0.12073052,82.861776,39.675949)" />
  <path
     d="m 59.976911,38.767278 a 0.1307977,0.1307977 0 0 0 0.103035,-0.0025 l 6.960337,-3.372166 a 0.1307977,0.1307977 0 0 0 0.07084,-0.112177 0.1307977,0.1307977 0 0 0 -0.06881,-0.113702 L 64.704693,33.9756 a 0.1307977,0.1307977 0 0 0 -0.116609,9.92e-4 l -5.864025,3.148932 a 0.1307977,0.1307977 0 0 0 -0.05153,0.171238 0.1307977,0.1307977 0 0 0 0.171237,0.05153 l 5.805766,-3.117949 2.047266,1.044606 -6.734043,3.261015 a 0.1307977,0.1307977 0 0 0 0.0064,0.229399 z"
     fill="#010101"
     id="path404"
     style="stroke-width:0.130798" />
  <path
     d="m 23.223149,38.865654 1.348559,0.562082 a 0.06409088,0.06409088 0 0 0 0.08332,-0.03329 0.0627829,0.0627829 0 0 0 -0.03501,-0.0826 l -1.348565,-0.562089 a 0.0627829,0.0627829 0 0 0 -0.08211,0.0338 0.06409088,0.06409088 0 0 0 0.0338,0.08211 z"
     fill="#010101"
     id="path406"
     style="stroke-width:0.130798" />
  <path
     d="m 54.070545,29.591538 11.460966,6.361212 a 0.1307977,0.1307977 0 0 0 0.174168,-0.05069 l 1.121305,-0.575581 c 0.03562,-0.06168 0.266945,-0.150891 0.205274,-0.186514 L 54.7298,28.411013 a 0.1307977,0.1307977 0 0 0 -0.175374,0.05018 l -0.533967,0.964924 a 0.1307977,0.1307977 0 0 0 0.05008,0.165415 z"
     fill="#010101"
     id="path408"
     style="stroke-width:0.130798" />
  <path
     d="m 65.519733,36.011607 a 0.18573273,0.18573273 0 0 0 0.124761,0.0067 0.1988125,0.1988125 0 0 0 0.104547,-0.07404 L 66.85646,35.3714 a 0.06147492,0.06147492 0 0 0 0.02585,-0.02465 0.5231908,0.5231908 0 0 1 0.09227,-0.06499 c 0.07647,-0.04748 0.133626,-0.086 0.131722,-0.139235 a 0.07717064,0.07717064 0 0 0 -0.04275,-0.06742 L 54.759884,28.345639 a 0.1935806,0.1935806 0 0 0 -0.145281,-0.01522 0.18442476,0.18442476 0 0 0 -0.115519,0.09356 l -0.534671,0.963212 a 0.18573273,0.18573273 0 0 0 -0.01571,0.146492 0.1818088,0.1818088 0 0 0 0.09456,0.113106 l 11.45815,6.35437 z m 1.263591,-0.740169 -1.107117,0.568743 a 0.06147492,0.06147492 0 0 0 -0.02585,0.02465 0.07586267,0.07586267 0 0 1 -0.04055,0.0327 0.07193873,0.07193873 0 0 1 -0.0497,-0.0065 L 54.100749,29.536114 v 0 a 0.06409088,0.06409088 0 0 1 -0.03129,-0.03713 0.05885897,0.05885897 0 0 1 0.0055,-0.04729 l 0.533968,-0.964924 a 0.06932278,0.06932278 0 0 1 0.04005,-0.03149 0.0627829,0.0627829 0 0 1 0.049,0.0048 l 12.243399,6.697252 -0.03482,0.02234 a 0.49833923,0.49833923 0 0 0 -0.123264,0.09174 z"
     fill="#010101"
     id="path410"
     style="stroke-width:0.130798" />
  <polygon
     points="231.54,153.58 229.58,156.76 225.9,156.08 223.62,159.04 220.03,158 217.46,160.69 214,159.28 211.16,161.69 207.87,159.91 204.78,162.02 201.69,159.91 198.41,161.69 195.56,159.28 192.1,160.69 189.51,158 185.92,159.04 183.64,156.08 179.96,156.76 178.01,153.58 174.29,153.86 172.68,150.49 168.94,150.38 167.67,146.86 163.98,146.36 163.08,142.73 159.45,141.86 158.97,138.14 155.45,136.9 155.34,133.16 151.97,131.54 152.25,127.8 149.08,125.85 149.75,122.17 146.79,119.89 147.84,116.3 145.14,113.73 146.55,110.27 144.14,107.42 145.92,104.14 143.79,101.05 145.92,97.96 144.14,94.68 146.55,91.83 145.14,88.37 147.84,85.78 146.79,82.19 149.75,79.93 149.08,76.25 152.25,74.27 151.97,70.55 155.34,68.94 155.45,65.2 158.97,63.94 159.47,60.24 163.11,59.37 163.98,55.72 167.7,55.24 168.94,51.72 172.68,51.61 174.29,48.24 178.03,48.52 179.99,45.34 183.66,46.02 185.94,43.06 189.53,44.1 192.1,41.41 195.56,42.82 198.41,40.41 201.69,42.19 204.78,40.06 207.87,42.19 211.16,40.41 214,42.82 217.46,41.41 220.03,44.1 223.62,43.06 225.9,46.02 229.58,45.34 231.54,48.52 235.28,48.24 236.89,51.61 240.63,51.72 241.87,55.24 245.59,55.74 246.46,59.37 250.09,60.24 250.59,63.96 254.12,65.2 254.22,68.94 257.6,70.55 257.31,74.3 260.49,76.25 259.81,79.93 262.77,82.21 261.73,85.8 264.43,88.37 263.01,91.83 265.43,94.68 263.64,97.96 265.75,101.05 263.64,104.14 265.43,107.42 263.01,110.27 264.43,113.73 261.73,116.32 262.77,119.89 259.81,122.17 260.49,125.85 257.29,127.8 257.6,131.54 254.22,133.16 254.12,136.9 250.59,138.16 250.09,141.86 246.46,142.73 245.59,146.36 241.87,146.86 240.63,150.38 236.89,150.49 235.26,153.86 "
     fill="#ffffff"
     id="polygon412"
     transform="matrix(-0.12073052,-0.05032077,-0.05032077,0.12073052,82.861776,39.675949)" />
  <path
     d="m 49.936799,49.04913 a 0.1307977,0.1307977 0 0 0 0.07375,0.0067 l 0.404679,-0.08356 0.257734,0.319981 a 0.1307977,0.1307977 0 0 0 0.135923,0.04107 l 0.391602,-0.120183 0.292652,0.290606 a 0.1307977,0.1307977 0 0 0 0.139046,0.02678 l 0.375811,-0.170698 0.31791,0.257205 a 0.12294983,0.12294983 0 0 0 0.13784,0.0093 l 0.366759,-0.199977 0.344375,0.224307 a 0.1307977,0.1307977 0 0 0 0.143377,-0.0041 l 0.333562,-0.23932 0.36581,0.186479 a 0.12294983,0.12294983 0 0 0 0.141168,-0.0191 l 0.307105,-0.274438 0.38483,0.147644 a 0.1307977,0.1307977 0 0 0 0.138451,-0.03299 l 0.280145,-0.308348 0.396606,0.105796 a 0.1307977,0.1307977 0 0 0 0.134527,-0.04738 l 0.24453,-0.331695 0.40466,0.06947 a 0.1307977,0.1307977 0 0 0 0.130603,-0.06176 l 0.205796,-0.357759 0.412513,0.03023 a 0.1307977,0.1307977 0 0 0 0.122755,-0.07353 l 0.169376,-0.375772 0.411311,-0.02129 a 0.1307977,0.1307977 0 0 0 0.112496,-0.08631 l 0.131243,-0.393082 0.403469,-0.06707 a 0.1307977,0.1307977 0 0 0 0.103442,-0.09859 l 0.08718,-0.402947 0.391398,-0.106101 a 0.1307977,0.1307977 0 0 0 0.09016,-0.104125 l 0.04472,-0.406473 0.384462,-0.147254 a 0.1307977,0.1307977 0 0 0 0.0799,-0.116899 l 0.0032,-0.412414 0.362231,-0.189112 a 0.1307977,0.1307977 0 0 0 0.06762,-0.124849 l -0.04171,-0.409905 0.346941,-0.223825 a 0.1307977,0.1307977 0 0 0 0.05485,-0.131592 l -0.08477,-0.405181 0.319981,-0.257735 a 0.1307977,0.1307977 0 0 0 0.04107,-0.135922 l -0.120184,-0.391602 0.303184,-0.30583 a 0.1307977,0.1307977 0 0 0 0.02678,-0.139047 l -0.165064,-0.37913 0.257206,-0.317909 a 0.12294983,0.12294983 0 0 0 0.0093,-0.137841 l -0.203802,-0.354184 0.223604,-0.346085 a 0.1307977,0.1307977 0 0 0 -0.0016,-0.142374 l -0.239521,-0.336479 0.185774,-0.367521 a 0.1307977,0.1307977 0 0 0 -0.01789,-0.140659 l -0.274438,-0.307105 0.147644,-0.38483 a 0.1307977,0.1307977 0 0 0 -0.03299,-0.138451 L 60.589543,39.35424 60.69534,38.957634 a 0.1307977,0.1307977 0 0 0 -0.04738,-0.134527 l -0.331494,-0.241611 0.06564,-0.409088 a 0.1307977,0.1307977 0 0 0 -0.06105,-0.128888 l -0.357255,-0.207004 0.03023,-0.412512 a 0.1307977,0.1307977 0 0 0 -0.07525,-0.122059 l -0.375269,-0.170583 -0.02129,-0.411311 a 0.1307977,0.1307977 0 0 0 -0.08631,-0.112496 l -0.392378,-0.129528 -0.06435,-0.406586 a 0.1307977,0.1307977 0 0 0 -0.09859,-0.103443 l -0.402948,-0.08718 -0.105999,-0.398442 a 0.1307977,0.1307977 0 0 0 -0.104125,-0.09016 l -0.406474,-0.04472 -0.146047,-0.38396 a 0.1307977,0.1307977 0 0 0 -0.116899,-0.0799 l -0.412415,-0.0032 -0.190319,-0.362734 a 0.1307977,0.1307977 0 0 0 -0.124848,-0.06762 l -0.408697,0.0422 -0.223825,-0.346941 a 0.1307977,0.1307977 0 0 0 -0.132797,-0.05535 l -0.403974,0.08528 -0.257736,-0.319982 a 0.1307977,0.1307977 0 0 0 -0.137129,-0.04156 l -0.390394,0.120692 -0.292652,-0.290606 a 0.1307977,0.1307977 0 0 0 -0.139047,-0.02678 l -0.37551,0.166573 -0.317909,-0.257206 a 0.1307977,0.1307977 0 0 0 -0.137332,-0.01046 l -0.358811,0.204708 -0.344375,-0.224308 a 0.1307977,0.1307977 0 0 0 -0.142868,0.0028 l -0.334065,0.240528 -0.368226,-0.187486 a 0.1307977,0.1307977 0 0 0 -0.141866,0.0174 l -0.305898,0.274941 -0.38654,-0.14694 a 0.1307977,0.1307977 0 0 0 -0.138451,0.03299 l -0.271669,0.311789 -0.400228,-0.107301 a 0.1307977,0.1307977 0 0 0 -0.134527,0.04738 l -0.242116,0.332701 -0.406169,-0.06585 a 0.1307977,0.1307977 0 0 0 -0.128888,0.06105 l -0.208212,0.356752 -0.412511,-0.03023 a 0.1307977,0.1307977 0 0 0 -0.122756,0.07353 l -0.169376,0.375772 -0.411311,0.02129 a 0.1307977,0.1307977 0 0 0 -0.113702,0.08581 l -0.130036,0.393586 -0.404878,0.06364 a 0.1307977,0.1307977 0 0 0 -0.104648,0.09808 l -0.08718,0.402947 -0.397235,0.106509 a 0.1307977,0.1307977 0 0 0 -0.09137,0.103616 l -0.04472,0.406475 -0.382752,0.146549 a 0.1307977,0.1307977 0 0 0 -0.08161,0.117612 l -0.02771,0.423479 -0.362733,0.190318 a 0.1307977,0.1307977 0 0 0 -0.06762,0.124849 l 0.04171,0.409904 -0.345734,0.224329 a 0.1307977,0.1307977 0 0 0 -0.05485,0.131592 l 0.08407,0.40347 -0.320485,0.258941 a 0.1307977,0.1307977 0 0 0 -0.04107,0.135923 l 0.120692,0.390394 -0.290605,0.292652 a 0.1307977,0.1307977 0 0 0 -0.02558,0.139555 l 0.164357,0.37742 -0.257204,0.31791 a 0.1307977,0.1307977 0 0 0 -0.0093,0.13784 l 0.203501,0.358308 -0.224811,0.345582 a 0.1307977,0.1307977 0 0 0 0.0041,0.143378 l 0.241736,0.334568 -0.1899,0.367218 a 0.1307977,0.1307977 0 0 0 0.0186,0.142374 l 0.274439,0.307105 -0.147646,0.38483 a 0.1307977,0.1307977 0 0 0 0.03299,0.138451 l 0.308851,0.278937 -0.10629,0.397813 a 0.1307977,0.1307977 0 0 0 0.04738,0.134528 l 0.3327,0.242115 -0.06585,0.406169 a 0.1307977,0.1307977 0 0 0 0.06105,0.128889 l 0.35796,0.208714 -0.03023,0.412512 a 0.1307977,0.1307977 0 0 0 0.07404,0.12155 l 0.37698,0.16988 0.02319,0.413525 a 0.12164187,0.12164187 0 0 0 0.08631,0.112495 l 0.389963,0.128526 0.06435,0.406587 a 0.1307977,0.1307977 0 0 0 0.09859,0.103443 l 0.40174,0.08667 0.107714,0.397738 a 0.12294983,0.12294983 0 0 0 0.103617,0.09137 l 0.406474,0.04472 0.14655,0.38275 a 0.1307977,0.1307977 0 0 0 0.116405,0.08111 l 0.412414,0.0032 0.189113,0.362231 a 0.1307977,0.1307977 0 0 0 0.126054,0.06813 l 0.408699,-0.04222 0.224327,0.345735 a 0.1307977,0.1307977 0 0 0 0.0673,0.04931 z m 0.574339,-0.327431 a 0.1307977,0.1307977 0 0 0 -0.07496,-0.0071 l -0.394214,0.08225 -0.220305,-0.338389 A 0.1307977,0.1307977 0 0 0 49.703452,48.4021 l -0.399441,0.0404 -0.183076,-0.359714 a 0.1307977,0.1307977 0 0 0 -0.112684,-0.06964 l -0.402454,-0.0033 -0.143028,-0.374198 a 0.1307977,0.1307977 0 0 0 -0.107642,-0.08172 l -0.405468,-0.04713 -0.104692,-0.387979 a 0.1307977,0.1307977 0 0 0 -0.09487,-0.09198 l -0.390371,-0.08336 -0.06425,-0.396626 a 0.11902591,0.11902591 0 0 0 -0.0843,-0.100318 l -0.381009,-0.126214 -0.02309,-0.403565 a 0.1307977,0.1307977 0 0 0 -0.07425,-0.107468 l -0.367319,-0.165853 0.0252,-0.400439 a 0.12294983,0.12294983 0 0 0 -0.06246,-0.115316 l -0.34831,-0.204726 0.06404,-0.398422 a 0.1307977,0.1307977 0 0 0 -0.04948,-0.122654 l -0.326463,-0.236682 0.10398,-0.388859 a 0.1307977,0.1307977 0 0 0 -0.03802,-0.126419 l -0.299798,-0.26666 0.144119,-0.37638 a 0.1307977,0.1307977 0 0 0 -0.02412,-0.129092 l -0.267498,-0.299959 0.185171,-0.35927 a 0.1307977,0.1307977 0 0 0 -0.01032,-0.131809 l -0.236504,-0.326721 0.218571,-0.334011 a 0.1307977,0.1307977 0 0 0 0.0038,-0.131606 l -0.199979,-0.349756 0.251771,-0.311672 a 0.1307977,0.1307977 0 0 0 0.01894,-0.133815 l -0.160335,-0.370075 0.283461,-0.28571 a 0.1307977,0.1307977 0 0 0 0.03222,-0.128278 l -0.123715,-0.383151 0.313843,-0.253208 a 0.1307977,0.1307977 0 0 0 0.04307,-0.123744 l -0.08054,-0.394919 0.336678,-0.2196 a 0.1307977,0.1307977 0 0 0 0.05756,-0.117713 l -0.04161,-0.399944 0.359715,-0.183075 a 0.12294983,0.12294983 0 0 0 0.06843,-0.113179 l 0.0033,-0.402454 0.374701,-0.144234 a 0.1307977,0.1307977 0 0 0 0.08172,-0.107642 l 0.04713,-0.405468 0.387575,-0.09353 a 0.1307977,0.1307977 0 0 0 0.09077,-0.09538 l 0.08336,-0.390372 0.396123,-0.06304 a 0.1307977,0.1307977 0 0 0 0.100826,-0.08551 l 0.127217,-0.383424 0.400847,-0.01998 a 0.1307977,0.1307977 0 0 0 0.108673,-0.07374 l 0.165878,-0.367319 0.400439,0.0252 a 0.1307977,0.1307977 0 0 0 0.116522,-0.06197 l 0.203985,-0.350012 0.398422,0.06403 a 0.1307977,0.1307977 0 0 0 0.121448,-0.04999 l 0.237887,-0.32596 0.390068,0.104488 a 0.1307977,0.1307977 0 0 0 0.126374,-0.03802 l 0.266158,-0.298589 0.376379,0.144118 a 0.1307977,0.1307977 0 0 0 0.129092,-0.02414 l 0.300463,-0.268704 0.360276,0.182756 a 0.11771793,0.11771793 0 0 0 0.130095,-0.0096 l 0.327424,-0.234794 0.334011,0.218572 a 0.1307977,0.1307977 0 0 0 0.131606,0.0038 l 0.360219,-0.201286 0.318917,0.25479 a 0.1307977,0.1307977 0 0 0 0.133815,0.01894 l 0.353172,-0.167381 0.289836,0.283764 a 0.1307977,0.1307977 0 0 0 0.128787,0.031 l 0.384357,-0.123206 0.252001,0.31334 a 0.1307977,0.1307977 0 0 0 0.123249,0.04428 l 0.395221,-0.08467 0.215374,0.343419 a 0.1307977,0.1307977 0 0 0 0.118207,0.05636 l 0.399944,-0.04161 0.183076,0.359715 a 0.1307977,0.1307977 0 0 0 0.112684,0.06964 l 0.401751,0.0016 0.143537,0.372992 a 0.1307977,0.1307977 0 0 0 0.107642,0.08172 l 0.39943,0.04462 0.105404,0.389689 a 0.12164187,0.12164187 0 0 0 0.09416,0.09026 l 0.390372,0.08336 0.06253,0.397331 a 0.12033389,0.12033389 0 0 0 0.08602,0.09962 l 0.383424,0.127217 0.01947,0.402054 a 0.1307977,0.1307977 0 0 0 0.07494,0.109168 l 0.367321,0.165853 -0.02469,0.399232 a 0.1307977,0.1307977 0 0 0 0.06197,0.116521 l 0.34981,0.201067 -0.06403,0.398422 a 0.1307977,0.1307977 0 0 0 0.04999,0.121448 l 0.325962,0.237888 -0.101466,0.382823 a 0.1307977,0.1307977 0 0 0 0.03681,0.12588 l 0.301005,0.267163 -0.144627,0.377586 a 0.1307977,0.1307977 0 0 0 0.02292,0.128583 l 0.269208,0.299256 -0.18175,0.357862 a 0.12294983,0.12294983 0 0 0 0.0096,0.130094 l 0.234392,0.338592 -0.218573,0.334012 a 0.1307977,0.1307977 0 0 0 -0.0038,0.131606 l 0.200986,0.347342 -0.252274,0.312879 a 0.1307977,0.1307977 0 0 0 -0.01893,0.133815 l 0.162951,0.373999 -0.283965,0.286918 a 0.12294983,0.12294983 0 0 0 -0.03222,0.128278 l 0.123206,0.384357 -0.313339,0.252002 a 0.1307977,0.1307977 0 0 0 -0.04428,0.12325 l 0.08467,0.395221 -0.340804,0.219298 a 0.1307977,0.1307977 0 0 0 -0.05636,0.118207 l 0.04111,0.401151 -0.359213,0.181868 a 0.1307977,0.1307977 0 0 0 -0.06843,0.113179 l -0.0023,0.40004 -0.374198,0.143028 a 0.1307977,0.1307977 0 0 0 -0.08172,0.107642 l -0.04713,0.405468 -0.389185,0.104198 a 0.1307977,0.1307977 0 0 0 -0.09077,0.09538 l -0.08336,0.390371 -0.397834,0.06374 a 0.1307977,0.1307977 0 0 0 -0.09911,0.08481 l -0.127218,0.383425 -0.402558,0.02068 a 0.1307977,0.1307977 0 0 0 -0.107467,0.07425 l -0.165854,0.367321 -0.400439,-0.0252 a 0.1307977,0.1307977 0 0 0 -0.117015,0.06317 l -0.201067,0.349809 -0.39792,-0.06525 a 0.1307977,0.1307977 0 0 0 -0.121447,0.04999 l -0.240304,0.324953 -0.383325,-0.100259 a 0.12294983,0.12294983 0 0 0 -0.125866,0.03681 l -0.266661,0.299797 -0.376379,-0.144118 a 0.1307977,0.1307977 0 0 0 -0.130298,0.02363 l -0.298753,0.267999 -0.35786,-0.181748 a 0.12294983,0.12294983 0 0 0 -0.13181,0.01032 l -0.325713,0.23409 -0.334013,-0.218571 a 0.1307977,0.1307977 0 0 0 -0.1321,-0.0026 l -0.349253,0.198772 -0.318917,-0.25479 a 0.1307977,0.1307977 0 0 0 -0.133815,-0.01894 l -0.369371,0.162046 -0.285206,-0.28467 a 0.1307977,0.1307977 0 0 0 -0.128787,-0.031 l -0.384357,0.123206 -0.252505,-0.312133 a 0.1307977,0.1307977 0 0 0 -0.05131,-0.0469 z"
     fill="#010101"
     id="path414"
     style="stroke-width:0.130798" />
  <path
     d="m 22.880465,39.687828 1.348559,0.562083 a 0.06540315,0.06540315 0 1 0 0.05033,-0.120736 l -1.348561,-0.562083 a 0.06540315,0.06540315 0 1 0 -0.05033,0.120736 z"
     fill="#010101"
     id="path416"
     style="stroke-width:0.130798" />
  <path
     d="m 22.468337,40.676611 1.348561,0.562083 a 0.06540315,0.06540315 0 1 0 0.05033,-0.120736 l -1.34856,-0.562084 a 0.06540315,0.06540315 0 0 0 -0.05033,0.120736 z"
     fill="#010101"
     id="path418"
     style="stroke-width:0.130798" />
  <path
     d="m 22.052688,41.673845 1.348559,0.562083 a 0.06540315,0.06540315 0 1 0 0.05033,-0.120736 L 22.103018,41.55311 a 0.06540269,0.06540269 0 0 0 -0.05033,0.120735 z"
     fill="#010101"
     id="path420"
     style="stroke-width:0.130798" />
  <path
     d="m 21.707991,42.500849 1.348559,0.562084 a 0.06540315,0.06540315 0 1 0 0.05033,-0.120736 l -1.348565,-0.562078 a 0.06540315,0.06540315 0 0 0 -0.05033,0.120736 z"
     fill="#010101"
     id="path422"
     style="stroke-width:0.130798" />
  <path
     d="m 21.432233,43.162453 1.348559,0.562082 a 0.06409088,0.06409088 0 0 0 0.08331,-0.03329 0.0627829,0.0627829 0 0 0 -0.03501,-0.0826 l -1.348561,-0.562083 a 0.0627829,0.0627829 0 0 0 -0.08211,0.0338 0.06409088,0.06409088 0 0 0 0.0338,0.08211 z"
     fill="#010101"
     id="path424"
     style="stroke-width:0.130798" />
  <path
     d="m 21.156475,43.824056 1.348561,0.562083 a 0.06540315,0.06540315 0 1 0 0.05033,-0.120736 l -1.34856,-0.562084 a 0.06540315,0.06540315 0 1 0 -0.05033,0.120736 z"
     fill="#010101"
     id="path426"
     style="stroke-width:0.130798" />
  <path
     d="m 20.880717,44.485659 1.348561,0.562084 a 0.06540315,0.06540315 0 1 0 0.05033,-0.120736 l -1.34856,-0.562083 a 0.06540315,0.06540315 0 0 0 -0.05033,0.120736 z"
     fill="#010101"
     id="path428"
     style="stroke-width:0.130798" />
  <path
     d="M 46.210988,26.315656 33.631491,22.648244 a 0.1307977,0.1307977 0 0 1 -0.08782,-0.159885 l 0.309409,-1.05852 a 0.1307977,0.1307977 0 0 1 0.159382,-0.08661 l 12.578291,3.666908 a 0.1307977,0.1307977 0 0 1 0.08782,0.159885 l -0.308203,1.059027 a 0.1307977,0.1307977 0 0 1 -0.159382,0.08661 z"
     fill="#010101"
     id="path430"
     style="stroke-width:0.130798" />
  <path
     d="m 33.592346,22.701363 0.02173,0.009 12.577588,3.665199 a 0.19227262,0.19227262 0 0 0 0.238669,-0.127246 l 0.308705,-1.060231 A 0.19096464,0.19096464 0 0 0 46.608866,24.949626 L 34.029368,21.282213 a 0.19096464,0.19096464 0 0 0 -0.237261,0.130676 L 33.4832,22.470202 a 0.19488858,0.19488858 0 0 0 0.01488,0.147904 0.18834869,0.18834869 0 0 0 0.09427,0.08321 z m 12.987232,2.376385 a 0.05885897,0.05885897 0 0 1 0.03119,0.02718 0.06409088,0.06409088 0 0 1 0.0054,0.05182 l -0.307725,1.057814 a 0.06670682,0.06670682 0 0 1 -0.0796,0.04476 v 0 L 33.649351,22.591911 a 0.06147492,0.06147492 0 0 1 -0.03842,-0.03018 0.06932278,0.06932278 0 0 1 -0.0054,-0.05182 l 0.307699,-1.057817 a 0.06670682,0.06670682 0 0 1 0.08252,-0.04496 l 12.57658,3.667613 z"
     fill="#010101"
     id="path432"
     style="stroke-width:0.130798" />
  <polyline
     points="357.28 49.87 381.67 22.87 397.5 24.66 367.7 59.37"
     fill="#ffffff"
     id="polyline434"
     transform="matrix(-0.12073052,-0.05032077,-0.05032077,0.12073052,82.861776,39.675949)" />
  <path
     d="m 35.432809,28.457883 a 0.1307977,0.1307977 0 0 0 0.168142,-0.155229 l -1.776908,-5.463625 1.710475,0.496122 1.563526,4.425269 a 0.1307977,0.1307977 0 0 0 0.160671,0.07689 0.1307977,0.1307977 0 0 0 0.07689,-0.160671 l -1.584749,-4.486544 a 0.12294983,0.12294983 0 0 0 -0.0834,-0.07869 l -2.001943,-0.582182 a 0.1307977,0.1307977 0 0 0 -0.126069,0.03389 0.1307977,0.1307977 0 0 0 -0.02979,0.129281 l 1.851136,5.690116 a 0.12294983,0.12294983 0 0 0 0.07204,0.07536 z"
     fill="#010101"
     id="path436"
     style="stroke-width:0.130798" />
  <circle
     cx="-64.89817"
     cy="18.134499"
     r="2.6434214"
     fill="#010101"
     id="circle438"
     transform="matrix(-0.92303244,-0.38472212,-0.38472212,0.92303244,0,0)"
     style="stroke-width:0.130798" />
  <path
     d="m 51.88886,44.205916 a 2.7062044,2.7062044 0 1 0 -1.456777,-3.53905 2.7088204,2.7088204 0 0 0 1.456777,3.53905 z m 2.03145,-4.873891 a 2.5793306,2.5793306 0 1 1 -3.374339,1.387977 2.5819466,2.5819466 0 0 1 3.374339,-1.387977 z"
     fill="#010101"
     id="path440"
     style="stroke-width:0.130798" />
  <polygon
     points="356.22,152.1 354.43,155.38 350.71,154.91 348.61,157.97 344.95,157.1 342.54,159.95 338.99,158.71 336.29,161.28 332.9,159.67 329.94,161.95 326.74,160 323.55,161.95 320.59,159.67 317.19,161.28 314.5,158.71 310.95,159.95 308.54,157.1 304.88,157.97 302.77,154.91 299.05,155.38 297.27,152.1 293.53,152.19 292.09,148.73 288.37,148.45 287.31,144.86 283.63,144.16 282.94,140.49 279.35,139.42 279.06,135.7 275.61,134.26 275.69,130.52 272.41,128.74 272.89,125.02 269.82,122.91 270.69,119.26 267.84,116.84 269.08,113.3 266.51,110.6 268.12,107.2 265.84,104.25 267.8,101.05 265.84,97.85 268.12,94.89 266.51,91.5 269.08,88.8 267.84,85.26 270.69,82.84 269.82,79.19 272.89,77.08 272.41,73.36 275.69,71.58 275.61,67.83 279.06,66.4 279.35,62.68 282.94,61.61 283.63,57.94 287.31,57.24 288.37,53.65 292.09,53.35 293.53,49.91 297.27,50 299.05,46.71 302.77,47.19 304.88,44.13 308.54,44.99 310.95,42.15 314.5,43.39 317.19,40.82 320.59,42.43 323.55,40.15 326.74,42.1 329.94,40.15 332.9,42.43 336.29,40.82 338.99,43.39 342.54,42.15 344.95,44.99 348.61,44.13 350.71,47.19 354.43,46.71 356.22,50 359.96,49.91 361.39,53.35 365.11,53.65 366.18,57.24 369.86,57.94 370.55,61.61 374.14,62.68 374.45,66.4 377.88,67.83 377.8,71.58 381.08,73.36 380.6,77.08 383.67,79.19 382.8,82.84 385.65,85.26 384.41,88.8 386.98,91.5 385.37,94.89 387.65,97.85 385.69,101.05 387.65,104.25 385.37,107.2 386.98,110.6 384.41,113.3 385.65,116.84 382.8,119.26 383.67,122.91 380.6,125.02 381.08,128.74 377.8,130.52 377.88,134.26 374.45,135.7 374.14,139.42 370.55,140.49 369.86,144.16 366.18,144.86 365.11,148.45 361.39,148.73 359.96,152.19 "
     fill="#ffffff"
     id="polygon442"
     transform="matrix(-0.12073052,-0.05032077,-0.05032077,0.12073052,82.861776,39.675949)" />
  <path
     d="m 35.601156,43.064081 a 0.1307977,0.1307977 0 0 0 0.08129,0.0055 l 0.397235,-0.106508 0.277356,0.306904 a 0.1307977,0.1307977 0 0 0 0.138945,0.03382 l 0.383958,-0.146047 0.309354,0.27773 a 0.1307977,0.1307977 0 0 0 0.135327,0.0153 l 0.362232,-0.189113 0.333405,0.243826 a 0.1307977,0.1307977 0 0 0 0.140863,0.002 l 0.344728,-0.221913 0.357254,0.207003 a 0.1307977,0.1307977 0 0 0 0.145892,-0.01003 l 0.321691,-0.258438 0.376276,0.168168 a 0.1307977,0.1307977 0 0 0 0.140064,-0.02665 l 0.297245,-0.281382 0.389963,0.128525 a 0.1307977,0.1307977 0 0 0 0.136838,-0.03932 l 0.25962,-0.316903 0.403954,0.08477 a 0.1307977,0.1307977 0 0 0 0.131708,-0.05422 l 0.225515,-0.343872 0.40748,0.0423 a 0.1307977,0.1307977 0 0 0 0.126084,-0.0679 l 0.185273,-0.366312 0.418654,-0.0083 a 0.1307977,0.1307977 0 0 0 0.118222,-0.07967 l 0.150563,-0.38503 0.408697,-0.0422 a 0.1307977,0.1307977 0 0 0 0.110694,-0.09557 l 0.10972,-0.399222 0.403168,-0.07994 a 0.1307977,0.1307977 0 0 0 0.09741,-0.101102 l 0.06685,-0.408583 0.389187,-0.121201 a 0.1307977,0.1307977 0 0 0 0.08533,-0.106131 l 0.03023,-0.412511 0.375006,-0.165367 a 0.1307977,0.1307977 0 0 0 0.07487,-0.12184 l -0.02027,-0.413725 0.357102,-0.204004 a 0.1307977,0.1307977 0 0 0 0.0621,-0.128568 l -0.06335,-0.409002 0.334569,-0.241736 a 0.1307977,0.1307977 0 0 0 0.04762,-0.134539 l -0.106508,-0.397234 0.30811,-0.276854 a 0.1307977,0.1307977 0 0 0 0.03382,-0.138945 l -0.14655,-0.38275 0.271694,-0.311872 a 0.1307977,0.1307977 0 0 0 0.01833,-0.142563 l -0.187905,-0.361728 0.243121,-0.335116 a 0.1307977,0.1307977 0 0 0 0.0032,-0.140354 l -0.221913,-0.344728 0.206298,-0.358966 a 0.1307977,0.1307977 0 0 0 -0.01003,-0.14589 l -0.257737,-0.319982 0.166963,-0.376779 a 0.1307977,0.1307977 0 0 0 -0.02665,-0.140064 l -0.286814,-0.308011 0.129731,-0.38946 a 0.1307977,0.1307977 0 0 0 -0.04053,-0.137347 l -0.316902,-0.259619 0.08597,-0.403451 a 0.1307977,0.1307977 0 0 0 -0.05422,-0.131707 l -0.345078,-0.226018 0.0423,-0.40748 a 0.1307977,0.1307977 0 0 0 -0.0684,-0.124863 l -0.364803,-0.188893 -1.54e-4,-0.411008 a 0.1307977,0.1307977 0 0 0 -0.08018,-0.117015 l -0.383823,-0.150059 -0.04342,-0.409201 a 0.1307977,0.1307977 0 0 0 -0.09557,-0.11068 l -0.398014,-0.109211 -0.08507,-0.401056 a 0.1307977,0.1307977 0 0 0 -0.101102,-0.09741 L 43.447854,29.470408 43.326653,29.08122 A 0.1307977,0.1307977 0 0 0 43.220522,28.99588 L 42.80801,28.96565 42.642645,28.590642 a 0.1307977,0.1307977 0 0 0 -0.121841,-0.07487 l -0.413726,0.02027 -0.2035,-0.358309 a 0.1307977,0.1307977 0 0 0 -0.129077,-0.06089 l -0.407291,0.06264 -0.243447,-0.333863 a 0.1307977,0.1307977 0 0 0 -0.134105,-0.04881 l -0.397739,0.107714 -0.276853,-0.30811 a 0.1307977,0.1307977 0 0 0 -0.138945,-0.03382 l -0.382751,0.14655 -0.311872,-0.271692 a 0.1307977,0.1307977 0 0 0 -0.135326,-0.0153 l -0.361728,0.187905 -0.335115,-0.243121 a 0.1307977,0.1307977 0 0 0 -0.140355,-0.0032 l -0.343521,0.222417 -0.358966,-0.206299 a 0.1307977,0.1307977 0 0 0 -0.145891,0.01003 l -0.31998,0.257734 -0.377987,-0.167465 a 0.1307977,0.1307977 0 0 0 -0.139555,0.02543 l -0.292014,0.289231 -0.39097,-0.126112 a 0.1307977,0.1307977 0 0 0 -0.136838,0.03932 l -0.259619,0.316904 -0.402245,-0.08546 a 0.1307977,0.1307977 0 0 0 -0.131707,0.05422 l -0.227226,0.344575 -0.40748,-0.0423 a 0.1307977,0.1307977 0 0 0 -0.125575,0.06669 l -0.189397,0.36601 -0.409799,6.57e-4 a 0.1307977,0.1307977 0 0 0 -0.118236,0.07967 l -0.148851,0.384327 -0.409906,0.04171 a 0.1307977,0.1307977 0 0 0 -0.110679,0.09557 l -0.108514,0.399726 -0.42812,0.07521 a 0.1307977,0.1307977 0 0 0 -0.09862,0.100608 l -0.06564,0.409087 -0.390395,0.120692 a 0.1307977,0.1307977 0 0 0 -0.08836,0.113382 l -0.0242,0.415028 -0.375006,0.165365 a 0.1307977,0.1307977 0 0 0 -0.07608,0.121332 l 0.02027,0.413726 -0.357101,0.204003 a 0.1307977,0.1307977 0 0 0 -0.0621,0.128583 l 0.06384,0.407794 -0.335071,0.242944 a 0.1307977,0.1307977 0 0 0 -0.04761,0.134614 l 0.106508,0.397235 -0.30811,0.276854 a 0.1307977,0.1307977 0 0 0 -0.03261,0.139453 l 0.14655,0.382752 -0.27773,0.309354 a 0.1307977,0.1307977 0 0 0 -0.0153,0.135327 l 0.189113,0.362231 -0.244329,0.334612 a 0.1307977,0.1307977 0 0 0 -0.002,0.140863 l 0.222416,0.343522 -0.207506,0.358462 a 0.1307977,0.1307977 0 0 0 0.01003,0.14589 l 0.258942,0.320484 -0.168673,0.377484 a 0.1307977,0.1307977 0 0 0 0.02665,0.140064 l 0.288022,0.291511 -0.126113,0.39097 a 0.1307977,0.1307977 0 0 0 0.04053,0.137347 l 0.316902,0.259619 -0.08426,0.402747 a 0.1307977,0.1307977 0 0 0 0.05422,0.131708 l 0.343369,0.226723 -0.0423,0.40748 a 0.1307977,0.1307977 0 0 0 0.0684,0.124863 l 0.36581,0.186479 -3.5e-4,0.412213 a 0.1307977,0.1307977 0 0 0 0.07967,0.118237 l 0.385533,0.149356 0.04171,0.409904 a 0.1307977,0.1307977 0 0 0 0.09557,0.110679 l 0.399725,0.108514 0.08387,0.400553 a 0.1307977,0.1307977 0 0 0 0.100609,0.09862 l 0.409086,0.06564 0.120692,0.390395 a 0.1307977,0.1307977 0 0 0 0.10613,0.08533 l 0.415029,0.0242 0.165366,0.375006 a 0.1307977,0.1307977 0 0 0 0.12184,0.07487 l 0.413222,-0.01907 0.213459,0.375213 a 0.1307977,0.1307977 0 0 0 0.128583,0.0621 l 0.409002,-0.06335 0.241735,0.334569 a 0.12164187,0.12164187 0 0 0 0.05232,0.04448 z m 0.574043,-0.357313 a 0.1307977,0.1307977 0 0 0 -0.0813,-0.0055 L 35.70592,42.80596 35.469416,42.479239 a 0.1307977,0.1307977 0 0 0 -0.120736,-0.05033 l -0.398537,0.06203 -0.198772,-0.349253 a 0.1307977,0.1307977 0 0 0 -0.115199,-0.06361 l -0.404973,0.01968 -0.160638,-0.36595 a 0.1307977,0.1307977 0 0 0 -0.110156,-0.07567 l -0.402855,-0.0262 -0.123206,-0.384358 a 0.1307977,0.1307977 0 0 0 -0.105128,-0.08775 l -0.398422,-0.06404 -0.08276,-0.393006 a 0.1307977,0.1307977 0 0 0 -0.09044,-0.0958 l -0.389563,-0.105695 -0.04111,-0.401151 a 0.1307977,0.1307977 0 0 0 -0.07987,-0.10414 l -0.375372,-0.146537 9.52e-4,-0.40346 a 0.1307977,0.1307977 0 0 0 -0.06931,-0.112496 l -0.357862,-0.181749 0.04341,-0.399935 a 0.1307977,0.1307977 0 0 0 -0.05633,-0.119835 L 31.09903,38.410207 31.18117,38.019331 A 0.1307977,0.1307977 0 0 0 31.13682,37.89457 l -0.318412,-0.255998 0.124296,-0.383223 a 0.1307977,0.1307977 0 0 0 -0.03048,-0.127478 l -0.282289,-0.28487 0.16344,-0.368329 a 0.1307977,0.1307977 0 0 0 -0.01658,-0.130196 l -0.253208,-0.313843 0.202273,-0.349307 a 0.1307977,0.1307977 0 0 0 -0.0032,-0.131708 l -0.217889,-0.337383 0.237887,-0.32596 a 0.1307977,0.1307977 0 0 0 0.01293,-0.136329 l -0.183075,-0.359715 0.267667,-0.302213 a 0.1307977,0.1307977 0 0 0 0.02497,-0.131301 l -0.143526,-0.373019 0.301469,-0.271117 a 0.1307977,0.1307977 0 0 0 0.03704,-0.126273 L 30.955441,32.79833 31.28216,32.561826 a 0.1307977,0.1307977 0 0 0 0.05033,-0.120736 l -0.06204,-0.398537 0.349253,-0.198772 a 0.1307977,0.1307977 0 0 0 0.06359,-0.115199 l -0.02017,-0.403764 0.366454,-0.161845 a 0.1307977,0.1307977 0 0 0 0.07567,-0.110171 l 0.0262,-0.402853 0.384359,-0.123206 a 0.1307977,0.1307977 0 0 0 0.08775,-0.105128 l 0.06403,-0.398422 0.392504,-0.08156 a 0.1307977,0.1307977 0 0 0 0.0958,-0.09043 l 0.106188,-0.390771 0.400647,-0.03989 a 0.1307977,0.1307977 0 0 0 0.10414,-0.07987 l 0.147041,-0.37658 0.401045,-5.5e-5 a 0.1307977,0.1307977 0 0 0 0.111988,-0.0681 l 0.184164,-0.356855 0.406473,0.04472 a 0.1307977,0.1307977 0 0 0 0.119341,-0.05512 l 0.219778,-0.333509 0.391377,0.08095 a 0.1307977,0.1307977 0 0 0 0.124267,-0.04315 l 0.255999,-0.318412 0.382015,0.123802 a 0.1307977,0.1307977 0 0 0 0.128685,-0.02997 l 0.284869,-0.282289 0.367824,0.164647 a 0.1307977,0.1307977 0 0 0 0.130705,-0.01779 l 0.313339,-0.252001 0.349811,0.201067 a 0.1307977,0.1307977 0 0 0 0.131708,-0.0032 l 0.33688,-0.216682 0.325961,0.237888 a 0.1307977,0.1307977 0 0 0 0.136837,0.01163 l 0.359211,-0.181868 0.302213,0.267668 a 0.1307977,0.1307977 0 0 0 0.131301,0.02497 l 0.37299,-0.143538 0.271624,0.300263 a 0.1307977,0.1307977 0 0 0 0.125764,0.03825 l 0.387977,-0.104691 0.22443,0.33869 a 0.1307977,0.1307977 0 0 0 0.120735,0.05033 l 0.398537,-0.06202 0.198772,0.349253 a 0.1307977,0.1307977 0 0 0 0.115693,0.06239 l 0.403262,-0.01897 0.161845,0.366453 a 0.1307977,0.1307977 0 0 0 0.110171,0.07567 l 0.402853,0.0262 0.123715,0.383151 a 0.1307977,0.1307977 0 0 0 0.104634,0.08895 l 0.398422,0.06404 0.08025,0.382039 a 0.1307977,0.1307977 0 0 0 0.09044,0.0958 l 0.38906,0.1069 0.04161,0.399944 a 0.1307977,0.1307977 0 0 0 0.07938,0.105346 l 0.377082,0.145833 -9.51e-4,0.403461 a 0.1307977,0.1307977 0 0 0 0.0681,0.111987 l 0.356855,0.184164 -0.04472,0.406475 a 0.12294983,0.12294983 0 0 0 0.05563,0.118134 l 0.333005,0.220985 -0.08095,0.391379 a 0.12294983,0.12294983 0 0 0 0.04366,0.123061 l 0.311874,0.254688 -0.126214,0.38101 a 0.1307977,0.1307977 0 0 0 0.03168,0.127987 l 0.2842,0.287083 -0.164647,0.367824 a 0.1307977,0.1307977 0 0 0 0.01779,0.130705 l 0.252504,0.312133 -0.201569,0.351017 a 0.1307977,0.1307977 0 0 0 0.0032,0.131708 l 0.217186,0.335671 -0.237889,0.325961 a 0.1307977,0.1307977 0 0 0 -0.01163,0.136837 l 0.181868,0.359212 -0.267666,0.302213 a 0.1307977,0.1307977 0 0 0 -0.02497,0.131301 l 0.14625,0.369872 -0.299759,0.270414 a 0.1307977,0.1307977 0 0 0 -0.03825,0.125764 l 0.104692,0.387978 -0.32672,0.236504 a 0.1307977,0.1307977 0 0 0 -0.05033,0.120736 l 0.06202,0.398537 -0.349253,0.198772 a 0.1307977,0.1307977 0 0 0 -0.06239,0.115693 l 0.01847,0.404469 -0.365951,0.160638 a 0.1307977,0.1307977 0 0 0 -0.07567,0.11017 l -0.0262,0.402854 -0.383152,0.123714 a 0.1307977,0.1307977 0 0 0 -0.08895,0.104634 l -0.06405,0.398422 -0.391798,0.08326 a 0.1307977,0.1307977 0 0 0 -0.0958,0.09043 l -0.106901,0.389061 -0.399944,0.04161 a 0.1307977,0.1307977 0 0 0 -0.105345,0.07938 l -0.145329,0.375875 -0.403461,-9.52e-4 a 0.1307977,0.1307977 0 0 0 -0.113702,0.06881 l -0.176115,0.354541 -0.399933,-0.04341 a 0.1307977,0.1307977 0 0 0 -0.118629,0.05684 l -0.220986,0.333006 -0.390874,-0.08215 a 0.1307977,0.1307977 0 0 0 -0.123555,0.04486 l -0.254689,0.311872 -0.38101,-0.126214 a 0.1307977,0.1307977 0 0 0 -0.127478,0.03047 l -0.287085,0.284202 -0.368327,-0.16344 a 0.1307977,0.1307977 0 0 0 -0.130196,0.01658 l -0.313843,0.253208 -0.349307,-0.202273 a 0.1307977,0.1307977 0 0 0 -0.131708,0.0032 l -0.336175,0.218392 -0.325961,-0.237887 a 0.1307977,0.1307977 0 0 0 -0.136329,-0.01293 l -0.359715,0.183075 -0.302212,-0.267667 a 0.1307977,0.1307977 0 0 0 -0.131296,-0.02498 l -0.374198,0.143028 -0.269912,-0.300966 a 0.13864557,0.13864557 0 0 0 -0.04326,-0.0322 z"
     fill="#010101"
     id="path444"
     style="stroke-width:0.130798" />
  <circle
     cx="-48.942162"
     cy="18.134499"
     r="2.6434214"
     fill="#010101"
     id="circle446"
     transform="matrix(-0.92303244,-0.38472212,-0.38472212,0.92303244,0,0)"
     style="stroke-width:0.130798" />
  <path
     d="m 37.159736,38.066783 a 2.7062044,2.7062044 0 1 0 -1.455571,-3.538548 2.7088204,2.7088204 0 0 0 1.455571,3.538548 z m 2.03145,-4.873892 a 2.5793306,2.5793306 0 1 1 -3.373131,1.388482 2.5819466,2.5819466 0 0 1 3.373131,-1.388482 z"
     fill="#010101"
     id="path448"
     style="stroke-width:0.130798" />
  <circle
     cx="-65.384735"
     cy="17.052803"
     r="0.66576034"
     fill="#ffffff"
     id="circle450"
     transform="matrix(-0.92303244,-0.38472212,-0.38472212,0.92303244,0,0)"
     style="stroke-width:0.130798" />
  <path
     d="m 53.510352,41.570127 a 0.72985117,0.72985117 0 1 0 -0.391679,-0.953962 0.72985117,0.72985117 0 0 0 0.391679,0.953962 z m 0.512265,-1.229035 a 0.6029774,0.6029774 0 1 1 -0.788043,0.32338 0.6029774,0.6029774 0 0 1 0.788546,-0.324588 z"
     fill="#010101"
     id="path452"
     style="stroke-width:0.130798" />
  <circle
     cx="-49.791039"
     cy="17.052803"
     r="0.66576034"
     fill="#ffffff"
     id="circle454"
     transform="matrix(-0.92303244,-0.38472212,-0.38472212,0.92303244,0,0)"
     style="stroke-width:0.130798" />
  <path
     d="m 39.11686,35.570886 a 0.72985117,0.72985117 0 1 0 -0.392887,-0.954467 0.72985117,0.72985117 0 0 0 0.392887,0.954467 z m 0.512265,-1.229037 a 0.6029774,0.6029774 0 1 1 -0.788043,0.323382 0.60166942,0.60166942 0 0 1 0.788546,-0.324589 z"
     fill="#010101"
     id="path456"
     style="stroke-width:0.130798" />
  <polygon
     points="247.81,191.58 247.81,171.44 265.25,161.37 282.7,171.44 282.7,191.58 265.25,201.65 "
     fill="#3090a0"
     id="polygon458"
     transform="matrix(-0.12073052,-0.05032077,-0.05032077,0.12073052,82.861776,39.675949)" />
  <path
     d="m 40.666166,50.732833 a 0.06670682,0.06670682 0 0 0 0.0325,0.0036 l 2.612269,-0.338162 a 0.06539884,0.06539884 0 0 0 0.05132,-0.03813 l 1.013459,-2.431513 a 0.06539884,0.06539884 0 0 0 -0.009,-0.06329 l -1.59881,-2.093351 a 0.06670682,0.06670682 0 0 0 -0.05795,-0.02415 l -2.613478,0.337659 a 0.06409088,0.06409088 0 0 0 -0.05011,0.03863 l -1.013459,2.431513 a 0.06409088,0.06409088 0 0 0 0.0078,0.06278 l 1.600017,2.093855 a 0.06670682,0.06670682 0 0 0 0.02546,0.02053 z m 2.597896,-0.453266 -2.545563,0.327705 -1.559276,-2.038611 0.986289,-2.366318 2.545058,-0.3265 1.559778,2.037406 z m -4.168427,-1.697733 z"
     fill="#010101"
     id="path460"
     style="stroke-width:0.130798" />
  <path
     d="m 46.381339,26.209528 0.308202,-1.059023 a 0.1307977,0.1307977 0 0 0 -0.08661,-0.159382 L 33.163226,20.99068 c -0.06993,-0.01923 0.03076,0.208376 0.0109,0.27659 l 0.442508,1.658163 c -0.01872,0.06871 -0.04283,-0.315429 0.0259,-0.296706 l 12.580504,3.664997 a 0.1307977,0.1307977 0 0 0 0.158375,-0.0842 z"
     fill="#010101"
     id="path462"
     style="stroke-width:0.130798" />
  <path
     d="m 33.588892,22.991835 a 0.06016694,0.06016694 0 0 0 0.03078,0.0044 0.07847862,0.07847862 0 0 0 0.05785,-0.05381 0.06539884,0.06539884 0 0 0 0.0012,-0.0335 l -0.018,-0.0656 a 0.77170642,0.77170642 0 0 1 0.0045,-0.139846 l 12.538649,3.65322 a 0.1818088,0.1818088 0 0 0 0.146897,-0.0125 0.19096464,0.19096464 0 0 0 0.09298,-0.114283 L 46.751446,25.1721 a 0.19619654,0.19619654 0 0 0 -0.01609,-0.148407 0.1935806,0.1935806 0 0 0 -0.11408,-0.09006 l -13.438498,-3.99994 a 0.08109458,0.08109458 0 0 0 -0.0797,0.0178 c -0.04185,0.03924 -0.02697,0.102119 -0.0061,0.191568 a 0.41462871,0.41462871 0 0 1 0.01709,0.111987 0.12294983,0.12294983 0 0 0 5e-4,0.0328 l 0.422496,1.580386 a 0.30868258,0.30868258 0 0 0 0.01901,0.09719 0.07193873,0.07193873 0 0 0 0.0329,0.02646 z m 13.003165,2.062773 a 0.05885897,0.05885897 0 0 1 0.03119,0.02718 0.06409088,0.06409088 0 0 1 0.0054,0.05182 l -0.307698,1.057815 v 0 a 0.06016694,0.06016694 0 0 1 -0.0309,0.03672 0.05755099,0.05755099 0 0 1 -0.04719,0.0044 l -12.581712,-3.6655 a 0.0797866,0.0797866 0 0 0 -0.07013,0.01192 l -0.351534,-1.315569 a 0.50357114,0.50357114 0 0 0 -0.02212,-0.150924 l -0.0087,-0.04044 13.37612,3.979608 z m -0.210718,1.15492 z"
     fill="#010101"
     id="path464"
     style="stroke-width:0.130798" />
  <path
     d="M 24.22215,22.257681"
     fill="#ffda62"
     stroke="#010101"
     stroke-linecap="round"
     stroke-linejoin="round"
     stroke-width="0.0824026"
     id="path466" />
  <polyline
     points="476 68.22 436.98 181.5 423.98 181.5 423.35 157.96 434.99 157.5 471.51 63.14"
     fill="#ffda62"
     id="polyline468"
     transform="matrix(-0.12073052,-0.05032077,-0.05032077,0.12073052,82.861776,39.675949)" />
  <path
     d="m 20.947077,39.658528 1.569496,0.65417 a 0.0627829,0.0627829 0 0 0 0.0816,-0.0326 l 1.261819,-2.809791 a 0.06409088,0.06409088 0 0 0 -0.03037,-0.08352 L 22.48439,36.762324 22.821762,23.574233 a 0.06147492,0.06147492 0 0 0 -0.06076,-0.065 0.06409088,0.06409088 0 0 0 -0.065,0.06076 l -0.340699,13.233468 a 0.06409088,0.06409088 0 0 0 0.03632,0.05906 l 1.325915,0.616412 -1.210392,2.696606 -1.470497,-0.612907 0.986105,-15.594493 a 0.06147492,0.06147492 0 0 0 -0.05855,-0.06691 0.0627829,0.0627829 0 0 0 -0.06691,0.05855 l -0.989936,15.641077 a 0.06147492,0.06147492 0 0 0 0.03973,0.05765 z"
     fill="#010101"
     id="path470"
     style="stroke-width:0.130798" />
  <path
     d="M 18.588117,22.01938"
     fill="#ffda62"
     stroke="#010101"
     stroke-linecap="round"
     stroke-linejoin="round"
     stroke-width="0.0824026"
     id="path472" />
  <path
     d="m 22.433375,40.236926 -1.569497,-0.654171 0.99235,-15.640069 -2.556408,-0.72401 -1.053107,18.138501 a 1.531641,1.531641 0 0 0 0.93503,1.496433 l 1.841141,0.767392 z"
     fill="#ffda62"
     id="path474"
     style="stroke-width:0.130798" />
  <path
     d="m 19.136555,42.972229 1.837517,0.765882 a 0.1307977,0.1307977 0 0 0 0.171052,-0.07041 l 1.408982,-3.380456 a 0.1307977,0.1307977 0 0 0 -0.07041,-0.17105 l -1.486193,-0.61945 0.98449,-15.54982 a 0.1307977,0.1307977 0 0 0 -0.08802,-0.128801 l -2.55812,-0.723303 a 0.1307977,0.1307977 0 0 0 -0.106654,0.01789 0.12294983,0.12294983 0 0 0 -0.05264,0.09568 l -1.055321,18.140413 a 1.6585148,1.6585148 0 0 0 1.015306,1.623417 z m 1.818735,0.484564 -1.721616,-0.717574 A 1.4060753,1.4060753 0 0 1 18.37268,41.364334 l 1.043632,-17.986575 2.306995,0.652646 -0.982881,15.539156 a 0.1307977,0.1307977 0 0 0 0.07715,0.124267 l 1.448765,0.603849 z"
     fill="#010101"
     id="path476"
     style="stroke-width:0.130798" />
  <path
     d="M 24.111677,22.254146"
     fill="none"
     stroke="#010101"
     stroke-linecap="round"
     stroke-linejoin="round"
     stroke-width="0.164805"
     id="path478" />
  <path
     d="m 22.384665,40.346992 a 0.1307977,0.1307977 0 0 0 0.171051,-0.07041 L 23.75939,37.388707 A 0.1307977,0.1307977 0 0 0 23.68898,37.217656 L 22.439419,36.696837 22.776385,23.55392 a 0.1307977,0.1307977 0 0 0 -0.25254,-0.0061 l -0.338183,13.227428 a 0.1307977,0.1307977 0 0 0 0.07797,0.118934 l 1.207305,0.503208 -1.157377,2.776802 a 0.1307977,0.1307977 0 0 0 0.07111,0.172762 z"
     fill="#010101"
     id="path480"
     style="stroke-width:0.130798" />
  <polyline
     points="497.03 77.03 513.25 70.73 533.97 50.19 526.31 16.65 518.34 10.87 503.73 19.47 511.9 46.88 505.72 59.86 485.28 45.06 480.63 23.83 488.65 18.5 504.92 13.48 507.97 6.42 503 0.9 484.24 10.51 482.85 17.12 463.66 31 469.96 56.41 490.34 78.09"
     fill="#ffda62"
     id="polyline482"
     transform="matrix(-0.12073052,-0.05032077,-0.05032077,0.12073052,82.861776,39.675949)" />
  <path
     d="m 19.708567,24.488667 a 0.06670682,0.06670682 0 0 0 0.05101,8e-6 l 3.550236,-1.592404 a 0.0627829,0.0627829 0 0 0 0.02556,-0.02052 l 2.032511,-2.754968 a 0.06016694,0.06016694 0 0 0 0.0035,-0.06942 l -1.600963,-2.618553 0.161784,-0.843728 a 0.06670682,0.06670682 0 0 0 -0.01478,-0.05293 l -1.781332,-2.104236 a 0.0627829,0.0627829 0 0 0 -0.07555,-0.0159 l -0.881423,0.414828 a 0.0627829,0.0627829 0 0 0 -0.03653,0.05704 l 0.007,1.00332 a 0.06539884,0.06539884 0 0 0 0.02263,0.0477 l 1.704231,1.418848 0.671278,1.0039 -1.590761,2.27308 -3.114983,0.735125 -0.08904,-1.778656 2.36455,-2.871642 a 0.0627829,0.0627829 0 0 0 0.0011,-0.07747 l -1.331114,-1.773468 a 0.06409088,0.06409088 0 0 0 -0.06399,-0.02667 l -1.2572,0.296462 a 0.07063076,0.07063076 0 0 0 -0.03703,0.02424 l -2.612554,3.663845 a 0.06147492,0.06147492 0 0 0 -0.007,0.06088 l 1.468451,3.521244 a 0.04708718,0.04708718 0 0 0 0.01381,0.02133 l 1.637808,1.578213 a 0.06315468,0.06315468 0 1 0 0.08754,-0.09105 l -1.631182,-1.566942 -1.449642,-3.477979 2.578341,-3.615756 1.188984,-0.282384 1.27508,1.700517 -2.331748,2.854139 a 0.06147492,0.06147492 0 0 0 -0.01761,0.04226 l 0.09315,1.880983 a 0.06147492,0.06147492 0 0 0 0.07666,0.05746 l 3.213687,-0.757752 a 0.06147492,0.06147492 0 0 0 0.03633,-0.02595 L 23.678588,18.3978 a 0.06539884,0.06539884 0 0 0 0.0015,-0.07163 l -0.69823,-1.044882 a 0.04447122,0.04447122 0 0 0 -0.01148,-0.01322 l -1.687329,-1.411803 -0.01177,-0.937318 0.796099,-0.376706 1.731424,2.043763 -0.159771,0.838899 a 0.05755099,0.05755099 0 0 0 0.0083,0.04457 l 1.595229,2.611912 -2.005342,2.706778 -3.536047,1.585564 a 0.06409088,0.06409088 0 0 0 -0.03422,0.08209 0.06539884,0.06539884 0 0 0 0.04155,0.0329 z"
     fill="#010101"
     id="path484"
     style="stroke-width:0.130798" />
  <path
     d="m 22.746369,16.867136 0.03659,0.275987 a 0.34792188,0.34792188 0 0 0 0.387931,0.303395 l 0.09538,-0.01119 a 0.82010158,0.82010158 0 0 1 0.817438,0.418647 l 0.889538,1.619177 a 1.0019104,1.0019104 0 0 1 -0.04117,1.037121 l -1.260304,1.895012 a 1.1484038,1.1484038 0 0 1 -0.787459,0.502173 l -2.374524,0.359318 A 0.75993463,0.75993463 0 0 1 19.696582,22.807381 L 18.944502,21.0046 a 1.2321143,1.2321143 0 0 1 0.162936,-1.227266 l 1.132877,-1.463495 a 1.4387747,1.4387747 0 0 1 0.762107,-0.512741 l 0.321974,-0.09253 a 0.27336719,0.27336719 0 0 0 0.195726,-0.282601 l -0.04743,-0.535569 a 0.25113159,0.25113159 0 0 0 -0.305035,-0.223499 l -0.454282,0.10398 a 1.4086912,1.4086912 0 0 0 -0.807685,0.5235 l -1.952,2.561798 a 1.1052406,1.1052406 0 0 0 -0.143,1.074035 l 1.058053,2.618994 a 1.2216505,1.2216505 0 0 0 1.324693,0.751937 l 2.92167,-0.451518 a 1.3393684,1.3393684 0 0 0 0.905085,-0.573593 l 1.86519,-2.741103 a 1.1575596,1.1575596 0 0 0 0.02671,-1.264207 l -1.426235,-2.286408 a 1.1981069,1.1981069 0 0 0 -1.144316,-0.559142 l -0.271257,0.02864 a 0.3636176,0.3636176 0 0 0 -0.323923,0.413385 z"
     fill="#ffda62"
     id="path486"
     style="stroke-width:0.130798" />
  <path
     d="m 19.488642,24.343155 a 1.3446003,1.3446003 0 0 0 0.73115,0.0851 l 2.920462,-0.452022 a 1.472782,1.472782 0 0 0 0.991118,-0.627008 l 1.86519,-2.741102 a 1.2870494,1.2870494 0 0 0 0.02742,-1.398527 l -1.423215,-2.293652 a 1.3302126,1.3302126 0 0 0 -1.264944,-0.616505 l -0.271257,0.02864 a 0.47610362,0.47610362 0 0 0 -0.332146,0.174728 0.49964721,0.49964721 0 0 0 -0.108107,0.371553 v 0 l 0.02965,0.268843 a 0.4774116,0.4774116 0 0 0 0.534209,0.418211 l 0.09539,-0.01119 a 0.69845971,0.69845971 0 0 1 0.686748,0.351422 l 0.899196,1.623202 a 0.87372863,0.87372863 0 0 1 -0.03613,0.906023 l -1.259096,1.895515 a 1.0319938,1.0319938 0 0 1 -0.702134,0.447046 l -2.37402,0.358111 a 0.62913693,0.62913693 0 0 1 -0.678281,-0.381969 l -0.752783,-1.804491 a 1.1117804,1.1117804 0 0 1 0.147022,-1.100696 l 1.125431,-1.452429 a 1.307977,1.307977 0 0 1 0.695396,-0.468275 l 0.321974,-0.09253 a 0.3923931,0.3923931 0 0 0 0.2875,-0.414394 l -0.04572,-0.536276 a 0.38323727,0.38323727 0 0 0 -0.155417,-0.273084 0.37800534,0.37800534 0 0 0 -0.302739,-0.06242 l -0.45549,0.103471 a 1.5381809,1.5381809 0 0 0 -0.88124,0.57078 l -1.945157,2.558983 A 1.2360383,1.2360383 0 0 0 17.6973,20.97781 l 1.058053,2.618995 a 1.3419844,1.3419844 0 0 0 0.733285,0.746336 z m 4.395493,-7.710317 a 1.080389,1.080389 0 0 1 0.499901,0.422332 l 1.423216,2.293652 a 1.0319938,1.0319938 0 0 1 -0.02347,1.123851 l -1.863983,2.741607 a 1.2203425,1.2203425 0 0 1 -0.820969,0.517965 l -2.920966,0.453229 A 1.0921608,1.0921608 0 0 1 18.993118,23.49895 l -1.058053,-2.618994 a 0.98229072,0.98229072 0 0 1 0.129601,-0.9535 l 1.950792,-2.562304 a 1.2844334,1.2844334 0 0 1 0.735843,-0.476923 l 0.453779,-0.102774 a 0.1307977,0.1307977 0 0 1 0.100507,0.02064 0.12294983,0.12294983 0 0 1 0.0514,0.09086 l 0.04623,0.53507 a 0.14256949,0.14256949 0 0 1 -0.103442,0.1496 l -0.321974,0.09253 a 1.5486447,1.5486447 0 0 0 -0.828819,0.557204 l -1.132877,1.463495 a 1.3589881,1.3589881 0 0 0 -0.179552,1.352126 l 0.745238,1.805596 a 0.88026852,0.88026852 0 0 0 0.94812,0.536884 l 2.37402,-0.358111 a 1.2818174,1.2818174 0 0 0 0.873995,-0.556796 l 1.258895,-1.898433 a 1.1248602,1.1248602 0 0 0 0.04691,-1.166508 l -0.900403,-1.623714 a 0.93781951,0.93781951 0 0 0 -0.934143,-0.478627 l -0.09538,0.01119 a 0.22366407,0.22366407 0 0 1 -0.247382,-0.195219 l -0.02965,-0.268844 a 0.23674383,0.23674383 0 0 1 0.05315,-0.181903 0.22889598,0.22889598 0 0 1 0.159582,-0.08369 l 0.27488,-0.02713 a 1.077773,1.077773 0 0 1 0.519761,0.0721 z m -1.137766,0.234298 z"
     fill="#010101"
     id="path488"
     style="stroke-width:0.130798" />
  <path
     d="M 19.045371,24.070542 A 0.1307977,0.1307977 0 0 0 19.18122,23.863595 L 17.563031,22.306312 16.32804,19.34008 a 0.93127962,0.93127962 0 0 1 0.08612,-0.886597 l 2.264373,-3.151461 0.59525,-0.177011 a 0.69715173,0.69715173 0 0 1 0.691296,0.17052 l 1.239896,1.444954 a 0.1307977,0.1307977 0 0 0 0.192092,-0.165084 l -1.24563,-1.451596 a 0.95220725,0.95220725 0 0 0 -0.947552,-0.239066 l -0.639221,0.19411 a 0.1307977,0.1307977 0 0 0 -0.06601,0.04617 l -2.294458,3.182847 a 1.1771793,1.1771793 0 0 0 -0.114124,1.127162 l 1.241225,2.988669 a 0.10856209,0.10856209 0 0 0 0.02877,0.04316 l 1.641732,1.575597 a 0.10987007,0.10987007 0 0 0 0.04357,0.02808 z"
     fill="#010101"
     id="path490"
     style="stroke-width:0.130798" />
  <path
     d="m 20.246998,17.107817 a 0.0627829,0.0627829 0 0 0 0.06601,-0.01221 0.06147492,0.06147492 0 0 0 0.0045,-0.08884 l -1.680635,-1.85963 a 0.06290076,0.06290076 0 0 0 -0.09328,0.0844 l 1.680637,1.859635 a 0.07063076,0.07063076 0 0 0 0.02283,0.01661 z"
     fill="#010101"
     id="path492"
     style="stroke-width:0.130798" />
  <path
     d="m 17.719178,20.622762 a 0.0627829,0.0627829 0 0 0 0.07165,-0.100507 l -1.600555,-1.769573 a 0.06290076,0.06290076 0 0 0 -0.09328,0.0844 l 1.600558,1.769575 a 0.06016694,0.06016694 0 0 0 0.02162,0.0161 z"
     fill="#010101"
     id="path494"
     style="stroke-width:0.130798" />
  <path
     d="m 22.872252,16.728303 a 0.1307977,0.1307977 0 0 0 0.134934,-0.02453 0.1307977,0.1307977 0 0 0 0.0064,-0.178688 l -1.571388,-1.703572 0.486484,-0.147241 a 0.37277344,0.37277344 0 0 1 0.388455,0.11514 l 1.567246,1.856302 a 0.1307977,0.1307977 0 1 0 0.192291,-0.162167 l -1.566683,-1.857506 a 0.62652098,0.62652098 0 0 0 -0.654772,-0.193555 l -0.522606,0.15911 a 0.22889598,0.22889598 0 0 0 -0.105883,0.369642 l 1.600561,1.73557 a 0.1307977,0.1307977 0 0 0 0.04496,0.03149 z"
     fill="#010101"
     id="path496"
     style="stroke-width:0.130798" />
  <path
     d="m 26.119479,20.017437 a 0.06016694,0.06016694 0 0 0 0.05373,-0.0031 0.06147492,0.06147492 0 0 0 0.02526,-0.08442 l -1.73853,-3.254047 a 0.04839514,0.04839514 0 0 0 -0.0109,-0.01453 l -2.209221,-2.247112 a 0.06329146,0.06329146 0 0 0 -0.09067,0.08833 l 2.203481,2.240518 1.735009,3.245492 a 0.05885897,0.05885897 0 0 0 0.03188,0.02888 z"
     fill="#010101"
     id="path498"
     style="stroke-width:0.130798" />
  <path
     d="m 22.719942,17.437108 a 0.1307977,0.1307977 0 0 0 0.138262,-0.20594 L 21.42362,15.79434 a 0.3753894,0.3753894 0 0 1 -0.09937,-0.251143 l 0.02686,-0.785184 a 0.1307977,0.1307977 0 0 0 -0.253245,-0.0078 l -0.02575,0.792732 a 0.62652098,0.62652098 0 0 0 0.178238,0.425717 l 1.422913,1.43763 a 0.1307977,0.1307977 0 0 0 0.04668,0.03079 z"
     fill="#010101"
     id="path500"
     style="stroke-width:0.130798" />
  <path
     d="m 22.092033,20.742092 a 0.06409088,0.06409088 0 0 0 0.07586,-0.02222 l 1.629203,-2.327911 a 0.06539884,0.06539884 0 0 0 0.0022,-0.06993 l -0.532047,-0.855176 a 0.0627829,0.0627829 0 0 0 -0.08693,-0.01923 0.06409088,0.06409088 0 0 0 -0.02043,0.08642 l 0.50901,0.818651 -1.605153,2.294006 a 0.06409088,0.06409088 0 0 0 0.01548,0.08865 z"
     fill="#010101"
     id="path502"
     style="stroke-width:0.130798" />
  <path
     d="m 25.076809,20.108573 a 0.06409088,0.06409088 0 0 0 0.07477,-0.09779 l -1.355271,-1.698515 a 0.06409088,0.06409088 0 0 0 -0.08924,-0.01032 0.06539884,0.06539884 0 0 0 -0.01032,0.08924 l 1.355269,1.698514 a 0.06932278,0.06932278 0 0 0 0.02475,0.01882 z"
     fill="#010101"
     id="path504"
     style="stroke-width:0.130798" />
  <path
     d="m 39.74032,43.757687 c 0.05052,-0.0158 0.101727,-0.02987 0.150827,-0.04908 a 1.760537,1.760537 0 0 0 0.741646,-0.205267 1.3459083,1.3459083 0 0 0 0.451913,0.381076 l 0.220428,0.127304 a 1.7840806,1.7840806 0 0 0 0.912337,0.23856 l 0.205658,-0.02764 c 0.619298,0.683237 1.420536,1.113553 1.777491,1.307678 a 4.5399882,4.5399882 0 0 0 0.753257,0.321045 1.6572069,1.6572069 0 0 0 0.851964,1.141561 1.9436538,1.9436538 0 0 0 0.26973,0.128016 1.8494795,1.8494795 0 0 0 0.49618,0.410864 2.0325963,2.0325963 0 0 0 0.369735,0.16686 1.6558988,1.6558988 0 0 0 0.46678,0.579991 1.650667,1.650667 0 0 0 0.08929,0.547348 c -0.01264,0.01322 -0.02184,0.03199 -0.03562,0.04467 a 2.6381895,2.6381895 0 0 1 -0.837968,0.500959 c -0.07698,0.03168 -0.143683,0.05915 -0.199729,0.08821 -0.202648,0.105418 -0.308821,0.326153 -0.40396,0.843397 -0.02738,0.147296 -0.05336,0.315015 -0.08045,0.492192 -0.03222,0.213297 -0.06948,0.455671 -0.116696,0.715148 -0.07611,0.410394 -0.161877,0.782756 -0.268972,1.151895 -0.13165,0.455261 -0.473176,0.774871 -1.0255,1.260267 -0.289093,0.255023 -0.05663,-0.992861 -0.429116,-0.0074 l -0.08526,-0.522999 c -0.354787,0.195049 0.01668,-0.71999 -0.390309,-0.627472 -0.765187,0.169949 -0.573007,0.09984 -0.889934,0.04427 -0.820687,-0.142258 -3.515625,-1.87343 -3.727098,-2.015419 -0.346889,-0.235275 -0.644902,0.605518 -1.0174,-0.04429 -0.449954,-0.786951 -0.37399,0.955082 -0.40691,0.255511 a 9.2774808,9.2774808 0 0 1 0.110127,-2.164688 6.5006457,6.5006457 0 0 1 0.672221,-1.928988 5.288151,5.288151 0 0 1 0.670297,-0.952029 c 0.201154,-0.237827 0.333379,-0.395272 0.370831,-0.600721 a 0.79394203,0.79394203 0 0 0 0.01206,-0.113993 c 0.0051,-0.352148 -0.134455,-0.581764 -0.30134,-0.851126 l -0.03914,-0.06591 a 2.1176147,2.1176147 0 0 0 0.662607,-0.569799 z"
     fill="#26acc9"
     id="path532"
     style="stroke-width:0.130798" />
  <path
     d="m 46.354167,48.016419 a 12.338147,12.338147 0 0 1 -1.527345,-0.612511 13.950883,13.950883 0 0 1 -2.349464,-1.431299 10.972619,10.972619 0 0 1 -1.827449,-1.701185 c -0.129673,-0.154657 -0.249485,-0.319376 -0.373724,-0.480272 a 0.1307977,0.1307977 0 0 0 -0.05785,-0.0482 7.847862,7.847862 0 0 0 1.116659,1.315652 c -0.06088,0.06106 -0.118338,0.120721 -0.177504,0.181083 a 11.81888,11.81888 0 0 0 -1.096931,1.227661 6.6000519,6.6000519 0 0 0 -0.674259,1.277715 4.0547287,4.0547287 0 0 0 -0.384889,1.239617 c -0.07958,0.802887 -0.08379,1.601758 0.189481,2.37742 a 2.8906291,2.8906291 0 0 0 0.502963,0.918159 2.0744515,2.0744515 0 0 0 1.391605,0.710392 6.874727,6.874727 0 0 0 1.535355,0.07313 c 0.432745,-0.0421 0.859354,-0.113687 1.230447,-0.361463 a 2.7375958,2.7375958 0 0 0 0.623066,-0.59053 c 0.381684,-0.477166 0.515765,-1.033443 0.521367,-1.624849 a 15.062663,15.062663 0 0 0 -0.131737,-2.322178 c -0.0387,-0.247112 -0.07138,-0.491706 -0.110592,-0.754615 0.179889,0.07497 0.346999,0.160218 0.519946,0.228051 0.328387,0.136867 0.663618,0.253925 0.99583,0.378221 a 0.3923931,0.3923931 0 0 0 0.07637,0.01061 z m -2.387183,4.561244 c -0.02484,-0.0968 -0.04284,-0.179399 -0.06718,-0.260396 a 0.58728168,0.58728168 0 0 0 -0.377856,-0.412559 c -0.216815,-0.07478 -0.431112,-0.155599 -0.650744,-0.220218 a 14.610103,14.610103 0 0 0 -1.863015,-0.41233 3.2202393,3.2202393 0 0 0 -0.920204,-0.06329 c -0.300337,0.04062 -0.597859,0.105069 -0.747106,0.432551 a 0.90642805,0.90642805 0 0 1 -0.04527,-0.09539 c -0.07603,-0.25275 -0.16354,-0.50178 -0.222269,-0.758653 -0.105898,-0.456495 -0.08169,-0.922536 -0.0755,-1.386162 a 0.17396093,0.17396093 0 0 1 0.03572,-0.08571 2.677429,2.677429 0 0 1 0.641584,-0.611154 1.6441271,1.6441271 0 0 1 1.873024,-0.01293 2.1398504,2.1398504 0 0 1 0.874492,1.230303 l 0.02414,0.07808 0.02736,-0.01133 a 2.2628002,2.2628002 0 0 0 -0.4099,-0.86945 c 0.01075,-0.0054 0.01741,-0.01119 0.02596,-0.01469 a 1.7526892,1.7526892 0 0 1 1.241466,0.03707 c 0.784749,0.327085 1.264203,0.937866 1.539492,1.725701 a 0.48002756,0.48002756 0 0 1 0.01104,0.313514 c -0.03523,0.118527 -0.06512,0.237844 -0.11001,0.352337 a 2.5610189,2.5610189 0 0 1 -0.805231,1.044577 z m 0.977961,-1.703778 -0.02596,-0.0023 c -0.245625,-0.638019 -0.49138,-1.013941 -0.903353,-1.36845 -0.580081,-0.488345 -1.233045,-0.65564 -1.970669,-0.426024 -0.05121,-0.05393 -0.09557,-0.110679 -0.155027,-0.165225 -0.535608,-0.506652 -1.150939,-0.689438 -1.861302,-0.430038 a 2.2457965,2.2457965 0 0 0 -0.943838,0.717568 c -0.02003,0.02424 -0.04246,0.04748 -0.07285,0.08299 -0.01841,-0.846564 0.884907,-2.69765 1.290823,-3.052768 0.01206,0.0051 0.02536,0.01061 0.03441,0.02285 a 9.9196975,9.9196975 0 0 0 4.387546,1.848578 0.113794,0.113794 0 0 1 0.115896,0.116317 14.454454,14.454454 0 0 1 0.120998,2.089557 c -0.0038,0.192574 -0.01206,0.379011 -0.01667,0.566957 z m -3.487829,0.497534 -0.0031,0.02425 0.156248,0.0297 a 11.640995,11.640995 0 0 1 1.760988,0.463328 1.1117804,1.1117804 0 0 1 0.314599,0.166551 c 0.154931,0.121259 0.189117,0.31122 0.236083,0.490921 a 0.08763446,0.08763446 0 0 1 -0.05033,0.120736 3.1731523,3.1731523 0 0 1 -1.616101,0.389187 c -0.345005,0.0049 -0.69574,-0.03066 -1.036819,-0.0453 a 2.1817057,2.1817057 0 0 1 -0.965553,-0.304669 2.1529302,2.1529302 0 0 1 -0.851584,-0.948684 0.113794,0.113794 0 0 1 -0.01322,-0.07355 0.48133553,0.48133553 0 0 1 0.23738,-0.290746 1.2962052,1.2962052 0 0 1 0.741238,-0.143086 c 0.356471,0.0253 0.726622,0.07897 1.090134,0.12136 z m -1.142875,-5.179521 1.043492,-1.109648 c 0.09426,0.08321 0.177565,0.151947 0.257142,0.22621 a 11.151812,11.151812 0 0 0 1.441965,1.126737 12.687377,12.687377 0 0 0 1.576711,0.912245 0.15041736,0.15041736 0 0 1 0.09577,0.130603 c 0.01648,0.137245 0.04172,0.273875 0.06284,0.41021 0.0089,0.06037 0.01668,0.123148 0.02543,0.190564 -1.65335,-0.279595 -3.156048,-0.866246 -4.503348,-1.886925 z"
     id="path534"
     style="stroke-width:0.130798" />
  <path
     d="m 39.948194,43.711126 a 1.7186817,1.7186817 0 0 0 0.44593,-0.09754 c 0.02011,0.01972 0.03732,0.03965 0.04688,0.05072 l 0.11921,0.155964 c 0.08007,0.107061 0.163271,0.216842 0.249485,0.319378 a 10.677016,10.677016 0 0 0 1.792942,1.668381 13.680131,13.680131 0 0 0 2.314554,1.409662 11.974529,11.974529 0 0 0 1.496356,0.605263 l 0.171338,0.0615 -0.0738,0.384436 -0.192772,-0.02366 -0.0109,-0.0045 A 0.33745807,0.33745807 0 0 1 46.196941,48.2202 L 46.000753,48.14693 C 45.737157,48.0484 45.465109,47.946345 45.196985,47.841675 l -0.177473,-0.07397 c 0.0186,0.125371 0.0377,0.249525 0.05317,0.372175 a 14.880854,14.880854 0 0 1 0.132638,2.360813 c -0.01366,0.712746 -0.194435,1.28924 -0.567965,1.757051 a 3.0188109,3.0188109 0 0 1 -0.670764,0.630165 C 43.53885,53.173 43.059317,53.242368 42.642369,53.283973 a 6.8694952,6.8694952 0 0 1 -1.51966,-0.06657 l -0.06208,-0.0074 A 2.5335514,2.5335514 0 0 1 40.139092,52.922153 2.1359265,2.1359265 0 0 1 39.535064,52.426661 3.0802859,3.0802859 0 0 1 38.992166,51.44793 C 38.68791,50.580001 38.722723,49.714527 38.791827,48.980962 a 4.2182258,4.2182258 0 0 1 0.402104,-1.304712 l 0.03523,-0.08451 a 6.3018331,6.3018331 0 0 1 0.658157,-1.239082 11.801876,11.801876 0 0 1 1.092302,-1.226755 l 0.05474,-0.05653 a 7.6568973,7.6568973 0 0 1 -0.996539,-1.20607 z m 4.616386,4.073777 c -0.0141,-0.08522 -0.02815,-0.170444 -0.03469,-0.256772 A 12.75016,12.75016 0 0 1 42.945735,46.60995 11.238138,11.238138 0 0 1 41.475902,45.461678 l -0.103616,-0.09137 -0.745739,0.79305 a 9.7653563,9.7653563 0 0 0 3.943559,1.659273 z m -4.218573,4.735998 a 1.9737373,1.9737373 0 0 0 0.87581,0.2786 l 0.322565,0.01825 c 0.23151,0.01572 0.471774,0.03084 0.697752,0.02584 a 3.0318907,3.0318907 0 0 0 1.448774,-0.324309 0.53103867,0.53103867 0 0 0 -0.141924,-0.298638 0.95089928,0.95089928 0 0 0 -0.256751,-0.135356 11.272146,11.272146 0 0 0 -1.724163,-0.456482 l -0.349825,-0.06503 0.0041,-0.0096 -0.11953,-0.01581 c -0.247807,-0.03101 -0.50306,-0.06797 -0.756403,-0.08571 a 1.0987007,1.0987007 0 0 0 -0.625026,0.119254 0.2615954,0.2615954 0 0 0 -0.117625,0.122436 1.9174943,1.9174943 0 0 0 0.742331,0.826627 z m -1.147661,-2.94117 a 4.7662682,4.7662682 0 0 0 0.07191,1.163606 c 0.03902,0.157966 0.08648,0.319457 0.138785,0.48296 a 1.3524482,1.3524482 0 0 1 0.650795,-0.221878 3.1391448,3.1391448 0 0 1 0.896561,0.05203 l 0.0819,0.01424 a 14.744825,14.744825 0 0 1 1.884346,0.415549 c 0.162789,0.04802 0.32326,0.104983 0.477696,0.159427 l 0.182003,0.0631 a 0.87372863,0.87372863 0 0 1 0.132797,0.05535 0.7847862,0.7847862 0 0 1 0.358134,0.43268 2.1568541,2.1568541 0 0 0 0.498929,-0.741464 c 0.0312,-0.07486 0.05425,-0.157355 0.08132,-0.249512 0.01206,-0.02898 0.01692,-0.06098 0.02657,-0.09096 a 0.27990708,0.27990708 0 0 0 -0.0032,-0.182714 C 44.3995,50.139236 43.93362,49.614886 43.252499,49.328159 a 1.4924017,1.4924017 0 0 0 -0.853999,-0.08955 2.3007315,2.3007315 0 0 1 0.281135,0.702416 l 0.02905,0.17507 -0.390901,0.155907 -0.07523,-0.241079 c -0.0054,-0.0178 -0.01192,-0.03613 -0.0167,-0.05514 a 1.9318821,1.9318821 0 0 0 -0.782746,-1.107041 1.4387747,1.4387747 0 0 0 -1.641512,0.01163 2.4851563,2.4851563 0 0 0 -0.589863,0.561858 z m 0.108064,-0.908628 a 2.1254627,2.1254627 0 0 1 0.640651,-0.377731 1.8311678,1.8311678 0 0 1 1.573585,0.10039 2.4943121,2.4943121 0 0 1 0.503024,0.37404 c 0.02757,0.02566 0.05291,0.05323 0.07827,0.0808 0.730981,-0.189874 1.41624,-0.02187 2.038073,0.502298 a 2.8108425,2.8108425 0 0 1 0.604809,0.694203 13.782154,13.782154 0 0 0 -0.113891,-1.739422 10.190449,10.190449 0 0 1 -4.307665,-1.795444 c -0.297359,0.390446 -0.799033,1.390085 -1.009303,2.159756 z"
     fill="#1d1d1b"
     id="path536"
     style="stroke-width:0.130798" />
  <path
     d="M 39.197455,49.456077 Z"
     fill="#1d1d1b"
     id="path538"
     style="stroke-width:0.130798" />
  <path
     d="M 39.208629,49.405471 Z"
     fill="#1d1d1b"
     id="path540"
     style="stroke-width:0.130798" />
  <path
     d="m 43.966984,52.577663 a 2.5610189,2.5610189 0 0 0 0.806439,-1.044075 c 0.0473,-0.113484 0.07478,-0.233817 0.110011,-0.352335 a 0.48002756,0.48002756 0 0 0 -0.01105,-0.313514 C 44.5971,50.079902 44.11664,49.471537 43.332898,49.142038 a 1.7526892,1.7526892 0 0 0 -1.241467,-0.03707 c -0.0086,0.0035 -0.0152,0.0093 -0.02595,0.01469 a 2.2628002,2.2628002 0 0 1 0.4099,0.86945 l -0.02737,0.01134 -0.02414,-0.07808 a 2.1398504,2.1398504 0 0 0 -0.874491,-1.230304 1.6441271,1.6441271 0 0 0 -1.873025,0.01293 2.677429,2.677429 0 0 0 -0.641584,0.611154 0.17396093,0.17396093 0 0 0 -0.03573,0.08571 c -0.0062,0.463627 -0.03039,0.929667 0.0755,1.386163 0.05873,0.256874 0.146233,0.505902 0.222268,0.758653 a 0.90642805,0.90642805 0 0 0 0.04527,0.09539 c 0.15287,-0.325971 0.44677,-0.39194 0.747107,-0.432552 a 3.2202393,3.2202393 0 0 1 0.920205,0.06329 14.610103,14.610103 0 0 1 1.856977,0.409813 c 0.219632,0.06462 0.43393,0.145436 0.650744,0.220217 a 0.58728168,0.58728168 0 0 1 0.377857,0.41256 c 0.02917,0.08301 0.04717,0.165615 0.07201,0.262408 z"
     fill="#e30613"
     id="path542"
     style="stroke-width:0.130798" />
  <path
     d="m 39.343036,52.132618 0.188697,-0.401729 c 0.10023,-0.21329 0.276718,-0.272932 0.588223,-0.313142 a 2.7598314,2.7598314 0 0 1 0.778542,0.04959 l 0.0824,0.01308 a 14.687273,14.687273 0 0 1 1.832026,0.405081 c 0.151419,0.04469 0.305854,0.09914 0.456667,0.152079 0.06037,0.02516 0.12325,0.04428 0.184419,0.06412 a 0.37931332,0.37931332 0 0 1 0.245968,0.276816 c 0.0158,0.05051 0.02816,0.102425 0.04264,0.159478 0.0061,0.02949 0.01424,0.06117 0.02222,0.09286 l 0.08045,0.316941 0.253169,-0.206229 a 2.7650634,2.7650634 0 0 0 0.867419,-1.129187 c 0.03874,-0.09296 0.06492,-0.189749 0.0915,-0.280701 l 0.02556,-0.08853 a 0.69584377,0.69584377 0 0 0 -0.0097,-0.439079 c -0.314479,-0.897696 -0.871001,-1.52076 -1.655951,-1.850763 a 1.9449619,1.9449619 0 0 0 -1.320546,-0.06153 2.1751658,2.1751658 0 0 0 -0.428773,-0.368597 1.8442476,1.8442476 0 0 0 -2.104033,0.01293 2.9089408,2.9089408 0 0 0 -0.690587,0.65733 0.3583857,0.3583857 0 0 0 -0.08656,0.207656 l -0.0022,0.171948 a 5.1455815,5.1455815 0 0 0 0.08286,1.263113 c 0.04485,0.191574 0.103384,0.377514 0.160313,0.557116 l 0.06638,0.214718 a 0.5401945,0.5401945 0 0 0 0.04114,0.09508 l 0.01488,0.02888 z m 4.378143,-0.365929 a 0.87372863,0.87372863 0 0 0 -0.132798,-0.05535 l -0.182003,-0.0631 c -0.154435,-0.05446 -0.314908,-0.111425 -0.477695,-0.159431 a 14.744825,14.744825 0 0 0 -1.884344,-0.415552 l -0.0819,-0.01424 a 3.1391448,3.1391448 0 0 0 -0.896562,-0.05203 1.3524482,1.3524482 0 0 0 -0.650794,0.221879 c -0.0523,-0.163504 -0.09977,-0.324994 -0.138785,-0.482962 a 4.7662682,4.7662682 0 0 1 -0.07191,-1.163605 l 0.0032,-0.140354 a 2.4851563,2.4851563 0 0 1 0.589861,-0.561859 1.4387747,1.4387747 0 0 1 1.645638,-0.01134 1.9318821,1.9318821 0 0 1 0.790895,1.114689 c 0.0048,0.01902 0.01133,0.03733 0.0167,0.05514 l 0.07523,0.241079 0.390902,-0.155906 -0.02905,-0.175071 a 2.3007315,2.3007315 0 0 0 -0.281134,-0.702417 1.4924017,1.4924017 0 0 1 0.853998,0.08955 c 0.682128,0.284312 1.147001,0.811079 1.424403,1.604046 a 0.27990708,0.27990708 0 0 1 0.0032,0.182715 c -0.01206,0.02898 -0.01812,0.06047 -0.02658,0.09094 -0.02456,0.08612 -0.04881,0.16812 -0.08132,0.249512 a 2.1568541,2.1568541 0 0 1 -0.498927,0.741464 0.7847862,0.7847862 0 0 0 -0.360247,-0.437811 z m -4.523724,-2.310612 z m 0.01119,-0.0506 z"
     fill="#1d1d1b"
     id="path544"
     style="stroke-width:0.130798" />
  <path
     d="m 44.944945,50.873885 c 0.0047,-0.187945 0.0141,-0.37388 0.01536,-0.560417 a 14.454454,14.454454 0 0 0 -0.120997,-2.089557 0.113794,0.113794 0 0 0 -0.115897,-0.116318 9.9196975,9.9196975 0 0 1 -4.387545,-1.848579 c -0.01206,-0.0051 -0.02536,-0.01061 -0.03441,-0.02284 -0.405917,0.355118 -1.309238,2.206204 -1.290824,3.052769 0.03039,-0.03552 0.05283,-0.05875 0.07285,-0.08299 a 2.2457965,2.2457965 0 0 1 0.943838,-0.717567 c 0.710362,-0.259402 1.326197,-0.07782 1.861303,0.430036 0.05583,0.05303 0.10382,0.11129 0.155025,0.165225 0.739136,-0.233237 1.390589,-0.06231 1.97067,0.426026 0.420524,0.350988 0.660243,0.724392 0.903353,1.368448 z"
     fill="#be1622"
     id="path546"
     style="stroke-width:0.130798" />
  <path
     d="m 38.960614,49.422546 0.115824,-0.131693 c 0.01801,-0.01942 0.0321,-0.03621 0.04618,-0.05301 a 2.1673179,2.1673179 0 0 1 0.920998,-0.700165 c 0.667096,-0.24059 1.254463,-0.106305 1.809487,0.41836 0.03642,0.03502 0.07012,0.07316 0.104329,0.110083 l 0.04829,0.05413 0.02273,0.02364 0.03098,-0.0097 c 0.698386,-0.220463 1.327506,-0.08436 1.92127,0.415354 0.403924,0.33982 0.644752,0.703767 0.890879,1.340578 l 0.01221,0.032 0.113091,0.0074 0.0062,-0.232618 q 0.0074,-0.191064 0.01061,-0.382431 A 14.420446,14.420446 0 0 0 44.895209,48.218881 0.1648051,0.1648051 0 0 0 44.735754,48.057477 9.9118497,9.9118497 0 0 1 40.371146,46.21846 l -0.02767,-0.01862 -0.04286,-0.02636 -0.03049,0.02555 c -0.436706,0.384797 -1.327151,2.252585 -1.308636,3.092107 z m 2.496328,-0.889538 a 1.6807504,1.6807504 0 0 0 -1.448826,-0.09373 2.2471045,2.2471045 0 0 0 -0.942428,0.703984 c 0.07183,-0.872714 0.872405,-2.470466 1.240894,-2.841185 a 10.017796,10.017796 0 0 0 4.406862,1.856629 c 0.05695,0.0096 0.0663,0.01772 0.07353,0.07175 a 14.47015,14.47015 0 0 1 0.123511,2.083522 c -0.0015,0.122639 -0.0055,0.244288 -0.01104,0.366634 a 2.8945531,2.8945531 0 0 0 -0.853465,-1.20596 c -0.605032,-0.510081 -1.275001,-0.660374 -1.988376,-0.444741 l -0.02485,-0.02877 c -0.03491,-0.03864 -0.07053,-0.07898 -0.110563,-0.115519 a 2.2392566,2.2392566 0 0 0 -0.465248,-0.35261 z"
     fill="#1d1d1b"
     id="path548"
     style="stroke-width:0.130798" />
  <path
     d="m 41.457116,51.371419 c -0.363512,-0.04241 -0.727627,-0.09356 -1.092247,-0.126491 a 1.2962052,1.2962052 0 0 0 -0.741237,0.143087 0.48133553,0.48133553 0 0 0 -0.237381,0.290745 0.113794,0.113794 0 0 0 0.01322,0.07355 2.1529302,2.1529302 0 0 0 0.851585,0.948684 2.7048965,2.7048965 0 0 0 0.970084,0.2768 c 0.345908,0.01664 0.687283,0.07815 1.032287,0.07317 a 3.1731523,3.1731523 0 0 0 1.6161,-0.389187 0.08763446,0.08763446 0 0 0 0.05033,-0.120736 C 43.872887,52.36134 43.838707,52.171377 43.683773,52.05012 A 1.1117804,1.1117804 0 0 0 43.369175,51.883569 11.444799,11.444799 0 0 0 41.619963,51.39539 L 41.45496,51.3663 c 0.0035,-0.0014 0.0015,0.01337 0.0022,0.0051 z"
     fill="#ffffff"
     id="path550"
     style="stroke-width:0.130798" />
  <path
     d="m 40.211556,52.799283 a 2.8683936,2.8683936 0 0 0 0.993829,0.281028 l 0.0096,0.0041 c 0.138844,0.0068 0.275176,0.01975 0.412512,0.03023 a 5.6674643,5.6674643 0 0 0 0.62541,0.03962 c 0.684174,-0.0096 1.213617,-0.137492 1.667818,-0.404475 a 0.19096464,0.19096464 0 0 0 0.09763,-0.234217 l -0.01352,-0.05242 a 0.8357973,0.8357973 0 0 0 -0.257917,-0.492935 1.2635058,1.2635058 0 0 0 -0.3481,-0.184768 11.528509,11.528509 0 0 0 -1.764707,-0.491802 l -0.06711,-0.01235 v 0 l -0.104736,-0.01395 -0.327593,-0.04018 c -0.25143,-0.03252 -0.509096,-0.07048 -0.768275,-0.08782 a 1.4086912,1.4086912 0 0 0 -0.799695,0.154149 0.58466572,0.58466572 0 0 0 -0.288299,0.351711 0.20535239,0.20535239 0 0 0 0.02091,0.15042 2.2628002,2.2628002 0 0 0 0.89273,0.992757 z m 1.020615,0.07397 c -0.383935,-0.058 -0.663533,-0.107932 -0.929236,-0.262609 a 2.0352123,2.0352123 0 0 1 -0.810438,-0.904609 v 0 a 0.36884951,0.36884951 0 0 1 0.183141,-0.218412 1.1889511,1.1889511 0 0 1 0.682779,-0.132027 c 0.25304,0.02186 0.511513,0.0545 0.760529,0.08602 l 0.325883,0.04088 0.07586,0.01177 0.08552,0.01581 a 11.422563,11.422563 0 0 1 1.733015,0.482844 1.081697,1.081697 0 0 1 0.285423,0.151558 0.6539885,0.6539885 0 0 1 0.184984,0.378932 l 0.01308,0.05362 v 0 c -0.421398,0.249473 -0.917438,0.368644 -1.563679,0.375612 a 5.2410639,5.2410639 0 0 1 -0.601867,-0.03831 c -0.143275,-0.02004 -0.284933,-0.03374 -0.424987,-0.0411 z m -1.742893,-1.179898 z"
     fill="#1d1d1b"
     id="path552"
     style="stroke-width:0.130798" />
  <path
     d="m 40.314241,46.191898 c 1.347299,1.02068 2.851606,1.61367 4.503347,1.886925 -0.0087,-0.06742 -0.01658,-0.130196 -0.02543,-0.190564 -0.02112,-0.136329 -0.04634,-0.272971 -0.06284,-0.410209 a 0.15041736,0.15041736 0 0 0 -0.09577,-0.130604 12.687377,12.687377 0 0 1 -1.57671,-0.912245 11.151812,11.151812 0 0 1 -1.441965,-1.126737 c -0.07958,-0.07426 -0.162877,-0.142985 -0.257142,-0.22621 z"
     fill="#ffffff"
     id="path554"
     style="stroke-width:0.130798" />
  <path
     d="m 41.439613,46.986875 a 10.496515,10.496515 0 0 0 3.369217,1.143562 l 0.07053,0.01105 -0.0187,-0.135327 C 44.85586,47.9631 44.84947,47.92074 44.84377,47.880091 L 44.82145,47.743253 C 44.80647,47.653403 44.79199,47.562346 44.78114,47.4728 A 0.20142846,0.20142846 0 0 0 44.656094,47.300227 12.500336,12.500336 0 0 1 43.086123,46.39221 10.987007,10.987007 0 0 1 41.650395,45.270906 c -0.05393,-0.05082 -0.110054,-0.09972 -0.169315,-0.151342 l -0.12806,-0.114313 -1.11725,1.188018 0.04637,0.03492 a 9.6790298,9.6790298 0 0 0 1.157472,0.758761 z m 3.317917,1.028655 c -1.685445,-0.294389 -3.115096,-0.893104 -4.365212,-1.830767 l 0.969532,-1.034196 0.05232,0.04448 c 0.05804,0.05112 0.113484,0.09831 0.166196,0.148625 a 11.189743,11.189743 0 0 0 1.448706,1.130965 12.538268,12.538268 0 0 0 1.579527,0.919087 0.1020222,0.1020222 0 0 1 0.0672,0.09036 c 0.0099,0.09196 0.02553,0.183522 0.04001,0.274579 l 0.02283,0.135632 z"
     fill="#1d1d1b"
     id="path556"
     style="stroke-width:0.130798" />
  <polygon
     points="271.43,185.19 268.64,184.72 264.89,184.88 260.62,186.04 251.36,182.57 254.28,180.11 257.02,179.23 259.15,178.98 259.89,178.97 260.56,178.98 261.86,179.09 262.95,179.25 264.16,179.52 266.44,180.3 269.24,181.9 271.3,183.93 "
     fill="#941820"
     id="polygon558"
     transform="matrix(-0.12073052,-0.05032077,-0.05032077,0.12073052,82.861776,39.675949)" />
  <path
     d="m 40.692996,48.414397 0.421257,0.09764 0.43503,0.203993 0.466504,0.363068 1.396512,0.04926 -0.280047,-0.541836 -0.284809,-0.244827 -0.254938,-0.143101 -0.176266,-0.07348 -0.164397,-0.05435 -0.143276,-0.03704 -0.164298,-0.02738 -0.319345,-0.02257 -0.4417,0.05679 -0.367961,0.148463 z m 0.910529,0.212299 -0.460384,-0.214562 -0.29318,-0.06835 0.03813,-0.06771 0.326204,-0.133277 0.410006,-0.04876 0.305762,0.02116 0.154339,0.02748 0.136024,0.03402 0.237338,0.08333 0.08693,0.03623 0.240952,0.135849 0.269216,0.231241 0.181868,0.359212 -1.185526,-0.04209 z"
     fill="#1d1d1b"
     id="path560"
     style="stroke-width:0.130798" />
  <path
     d="m 43.947365,52.573736 a 2.5584029,2.5584029 0 0 0 0.804729,-1.04337 c 0.0473,-0.113484 0.07529,-0.235025 0.111725,-0.35304 a 0.49049138,0.49049138 0 0 0 -0.01148,-0.312306 c -0.275347,-0.787837 -0.755304,-1.39741 -1.539046,-1.726909 a 1.760537,1.760537 0 0 0 -1.241971,-0.03587 0.1307977,0.1307977 0 0 0 -0.02596,0.01469 2.2471045,2.2471045 0 0 1 0.4099,0.86945 l -0.02566,0.01061 -0.02414,-0.07808 a 2.1450822,2.1450822 0 0 0 -0.876204,-1.2296 1.645435,1.645435 0 0 0 -1.872521,0.01163 2.674813,2.674813 0 0 0 -0.640375,0.611658 0.16611308,0.16611308 0 0 0 -0.03623,0.08693 c -0.0062,0.463626 -0.03039,0.929665 0.0755,1.386162 0.05923,0.255665 0.147945,0.505198 0.223978,0.757948 a 0.71546341,0.71546341 0 0 0 0.04355,0.09609 c 0.153373,-0.327177 0.446769,-0.391938 0.747609,-0.43376 a 3.2176234,3.2176234 0 0 1 0.919701,0.0645 14.426986,14.426986 0 0 1 1.856978,0.409812 c 0.219632,0.06463 0.435137,0.145941 0.650744,0.220218 a 0.5859737,0.5859737 0 0 1 0.37836,0.411353 c 0.02796,0.0825 0.04546,0.166318 0.0708,0.261904 z"
     fill="#e30613"
     id="path562"
     style="stroke-width:0.130798" />
  <path
     d="m 39.322151,51.761149 0.04228,-0.101408 c 0.143101,-0.305949 0.418695,-0.365379 0.710982,-0.40368 a 2.8775493,2.8775493 0 0 1 0.827542,0.05442 l 0.08119,0.01264 a 14.78014,14.78014 0 0 1 1.852148,0.4078 c 0.155041,0.0462 0.313098,0.102163 0.463913,0.155099 l 0.183913,0.06532 a 0.53234663,0.53234663 0 0 1 0.343151,0.376837 c 0.01719,0.05393 0.03098,0.10927 0.04495,0.167528 l 0.02324,0.09045 0.0195,0.07898 0.0639,-0.0513 a 2.6067981,2.6067981 0 0 0 0.820828,-1.065 c 0.03623,-0.08693 0.06089,-0.180092 0.08645,-0.268628 l 0.02556,-0.08853 a 0.53365461,0.53365461 0 0 0 -0.0073,-0.343093 c -0.302279,-0.865786 -0.816247,-1.441355 -1.568599,-1.757772 a 1.815472,1.815472 0 0 0 -1.277889,-0.03807 0.14256949,0.14256949 0 0 0 -0.02716,0.01424 v 0 a 2.0927632,2.0927632 0 0 0 -0.468107,-0.420417 1.6912142,1.6912142 0 0 0 -1.930575,0.01148 2.7310559,2.7310559 0 0 0 -0.653659,0.623126 0.2158162,0.2158162 0 0 0 -0.05033,0.120735 l -0.0028,0.173156 a 4.9912403,4.9912403 0 0 0 0.07974,1.226388 c 0.04254,0.183525 0.100376,0.367756 0.155888,0.543936 l 0.06829,0.21693 a 0.29167887,0.29167887 0 0 0 0.02937,0.06893 l 0.017,0.03401 z m 4.2987,0.140849 a 0.6539885,0.6539885 0 0 0 -0.10504,-0.04377 l -0.18321,-0.06361 c -0.152724,-0.05515 -0.310782,-0.111116 -0.469948,-0.157616 a 14.934481,14.934481 0 0 0 -1.864725,-0.411624 l -0.08119,-0.01264 a 2.9442563,2.9442563 0 0 0 -0.852594,-0.05211 c -0.280111,0.03629 -0.566163,0.09702 -0.740356,0.368763 -0.02132,-0.07124 -0.04386,-0.142971 -0.06688,-0.21351 -0.05431,-0.175677 -0.111943,-0.35699 -0.154278,-0.537595 a 4.9284572,4.9284572 0 0 1 -0.07622,-1.200833 l 0.0022,-0.171949 a 0.1307977,0.1307977 0 0 1 0.02364,-0.05675 2.615954,2.615954 0 0 1 0.628301,-0.599685 1.591808,1.591808 0 0 1 1.819398,-0.0168 2.0796834,2.0796834 0 0 1 0.852258,1.205449 l 0.04084,0.133219 0.126476,-0.04507 -0.0089,-0.04336 a 2.2719561,2.2719561 0 0 0 -0.379318,-0.83403 1.6859824,1.6859824 0 0 1 1.162988,0.03837 c 0.724383,0.301925 1.217728,0.858978 1.511021,1.695413 a 0.44078824,0.44078824 0 0 1 0.0032,0.284738 l -0.02556,0.08853 a 2.6970485,2.6970485 0 0 1 -0.08364,0.258468 2.4760005,2.4760005 0 0 1 -0.726946,0.972347 l -0.0031,-0.0097 c -0.01424,-0.06118 -0.02866,-0.118222 -0.04656,-0.173867 a 0.6539885,0.6539885 0 0 0 -0.301996,-0.400779 z"
     fill="#1d1d1b"
     id="path564"
     style="stroke-width:0.130798" />
  <g
     id="path4178_2_"
     transform="matrix(0.81660324,0.06352082,-0.06352082,0.81660324,-28.587296,-3.9799982)" />
  <g
     id="path4178_2_-5"
     transform="matrix(0.1378861,0.89323004,0.89323004,-0.1378861,-46.645943,8.605706)" />
  <g
     id="g12275"
     transform="matrix(0.1378861,0.89323004,0.89323004,-0.1378861,-9.141053,5.296958)">
    <path
       class="st12"
       d="m 8.7,26.8 c -0.2,0 -0.3,0 -0.5,-0.1 -0.5,-0.2 -0.8,-0.8 -0.6,-1.4 1.1,-2.7 3,-4.7 5.6,-6 0.5,-0.3 1.2,0 1.4,0.5 0.3,0.5 0,1.2 -0.5,1.4 -2.1,1 -3.7,2.7 -4.6,4.9 -0.1,0.4 -0.4,0.6 -0.8,0.7 z"
       id="path3099"
       transform="matrix(1.0966568,0.05040979,0.05040979,-1.0966568,0.77982667,65.126932)" />
    <path
       class="st12"
       d="m 20.258711,15.110262 c -0.03306,-0.116536 -0.09929,-0.349592 -0.13239,-0.466121 0.03449,-0.765376 0.634381,-1.313543 1.366662,-1.395587 7.088348,0.127647 11.244797,2.34729 14.830276,7.877349 0.39854,0.516461 0.247521,1.314934 -0.385469,1.746571 -0.632991,0.431635 -1.314933,0.247522 -1.746569,-0.385469 -3.153842,-4.897067 -6.529062,-6.583004 -12.7686,-6.825794 -0.582652,0.165483 -1.031533,-0.08482 -1.163915,-0.550946 z"
       id="path3102"
       style="stroke-width:1.2114"
       transform="matrix(0.20729911,0.88221347,0.88221347,-0.20729911,-10.713903,21.871124)" />
    <path
       class="st12"
       d="M 8.0236986,26.546047 C 7.7722458,26.310545 7.8599872,25.928203 7.8431512,26.100018 l 0.4488754,-2.22668 C 9.4269767,21.88394 11.081012,20.359494 13.2,19.3 c 0.5,-0.3 1.2,0 1.4,0.5 0.3,0.5 0,1.2 -0.5,1.4 -2.1,1 -3.622104,2.519319 -4.522104,4.719319 l -0.3466091,0.69727 c -0.074511,0.06317 -0.1976374,0.15653 -0.3559784,0.191459 -0.1383753,0.03053 -0.3103623,0.0082 -0.4122058,-0.01019 -0.1842535,-0.04081 -0.3529818,-0.139311 -0.4394041,-0.251806 z"
       id="path3099-7"
       transform="matrix(0.33095937,1.1653066,-1.1653066,0.33095937,49.366619,1.4283068)" />
    <path
       class="st12"
       d="m 33.652102,17.671356 c 0.936825,0.950051 1.828145,2.154329 2.671157,3.454547 0.39854,0.516461 0.247521,1.314934 -0.385469,1.746571 -0.632991,0.431635 -1.314933,0.247522 -1.746569,-0.385469 -1.184186,-1.838721 -2.416331,-3.291077 -3.80284,-4.317971 3.263716,-0.476957 0,0 3.263721,-0.497678 z"
       id="path3102-3"
       style="stroke-width:1.2114" />
  </g>
</svg>
