<?xml version="1.0" encoding="UTF-8"?>
<svg width="76" height="66" version="1.1" viewBox="0 0 76 66" xml:space="preserve" xmlns="http://www.w3.org/2000/svg">
<style type="text/css">
	.st0{fill:#36ABC8;}
	.st1{fill:#1D1D1B;}
	.st2{fill:#E20613;}
	.st3{fill:#BD1622;}
	.st4{fill:#FFFFFF;}
	.st5{fill:#931820;}
	.st6{fill:none;stroke:#1D1D1B;stroke-miterlimit:10;}
	.st7{fill:#F2F2F1;stroke:#000000;stroke-width:0.5;stroke-linecap:round;stroke-miterlimit:10;}
	.st8{fill:#CECDCE;}
	.st9{fill:#838383;}
	.st10{fill:#353435;}
</style>
<g transform="matrix(.54127 0 0 .54127 16.051 14.856)">
			<path class="st0" d="m71.3 62.5h-61.9c-2.7 0-4.9-2.2-5-4.9l-0.8-39.6c0-2.3 1.9-4.2 4.2-4.2h65.7c2.2 0 4 1.8 4 4l-1.2 39.8c-0.1 2.7-2.3 4.9-5 4.9z"/>
		<path d="m32.6 47.5c1.1 0 2.2 0 3.3-0.2 1.9-0.2 3.7-0.6 5.5-1.2 1.6-0.5 3.2-1.2 4.7-2-0.1 0.1-6.5 5.5 0.3-0.1 0 0-0.2 0.2-0.1 0.2-0.9 0.7-1 0.4-2.1 0.9 0.1 0.2 0.1 0.3 0.2 0.5 0.5 1 1 2 1.3 3.1 0.3 1 0.4 1.9 0.4 2.9 0.1 0.9 0.1 1.8-0.1 2.6-0.4 1.6-0.9 3.1-2 4.4-0.4 0.6-1 1-1.6 1.4-1 0.6-2 0.7-3.1 0.4-1-0.2-2-0.4-3-0.9-0.8-0.4-1.6-0.8-2.1-1.5-0.4-0.5-0.6-1-0.8-1.5-0.4-1.2-0.3-2.3 0.1-3.5 0.5-1.5 1.1-3 1.8-4.4 0.2-0.4 0.5-0.9 0.7-1.4-0.4 0-0.8 0.1-1.2 0.1-0.7 0-1.4 0-2.2 0.1 0.1 0.2 0 0.1 0 0.1zm1.5 10.4c0.1-0.2 0.2-0.3 0.3-0.5 0.2-0.3 0.6-0.5 1-0.5h1.4c1.3 0.1 2.6 0.2 3.8 0.5 0.6 0.1 1.2 0.2 1.8 0.5s1.1 0.6 1.2 1.3c0.1-0.1 0.1-0.1 0.1-0.2 0.3-0.4 0.7-0.9 0.9-1.3 0.5-0.8 0.8-1.7 1.1-2.6v-0.2c-0.2-0.6-0.5-1.1-0.8-1.6-0.9-1.1-2.2-1.6-3.6-1.3-1.1 0.3-1.9 0.9-2.5 1.8l-0.1 0.1c0.3-0.6 0.8-1 1.4-1.4-0.7-0.5-1.5-0.8-2.4-0.8-1.7 0.1-3.1 1-4.1 2.3-0.1 0.2-0.2 0.4-0.2 0.6v0.8c-0.1 0.8 0.2 1.7 0.7 2.5zm-0.8-4c0.1 0 0.1 0 0 0 1-1 1.7-1.6 2.7-2 1.4-0.5 2.8-0.4 4.1 0.5 0.1-0.1 0.3-0.2 0.4-0.2 1.4-0.6 2.7-0.6 3.9 0.4 0.6 0.5 1 1.2 1.3 2 0 0.1 0 0.1 0.1 0.2 0.6-1.6 0.1-5.8-0.4-6.7h-0.1c-3.2 1-6.4 1.2-9.7 0.6-0.2 0-0.2 0-0.3 0.1-0.6 1.3-1.2 2.6-1.6 3.9-0.1 0.5-0.2 0.9-0.4 1.2zm6.4 3.3v0h-0.3c-1.2-0.2-2.5-0.3-3.7-0.3-0.2 0-0.5 0-0.7 0.1-0.4 0.1-0.6 0.5-0.8 0.8-0.1 0.1-0.1 0.2 0 0.3 0.8 0.9 1.8 1.4 2.8 1.8 0.7 0.2 1.3 0.4 2 0.6s1.4 0.2 2.1 0.1c0.9-0.2 1.6-0.6 2.3-1.3l0.1-0.1c0-0.3-0.1-0.5-0.3-0.7-0.4-0.4-0.8-0.6-1.3-0.8-0.7-0.2-1.5-0.3-2.2-0.5zm5.7-9.2c-0.4-1-0.8-1.9-1.3-2.8l-0.6 0.3c-1.1 0.5-2.3 0.9-3.5 1.2s-2.4 0.6-3.6 0.7c-0.1 0-0.2 0.1-0.3 0.2-0.1 0.3-0.3 0.5-0.4 0.7-0.1 0.1-0.1 0.2-0.2 0.3 3.3 0.6 6.6 0.5 9.9-0.6z"/>
		<path class="st1" d="m40.4 61.1c-0.4 0-0.8 0-1.2-0.1h-0.1c-1-0.2-2-0.4-3-0.9-0.8-0.4-1.6-0.8-2.3-1.6-0.4-0.5-0.6-1-0.9-1.7-0.4-1.1-0.4-2.4 0.1-3.8 0.6-1.8 1.2-3.2 1.8-4.4 0.1-0.2 0.2-0.5 0.4-0.7h-0.4-1.7-0.4-0.2l-0.4-0.1 0.1-0.8h0.4c1.3 0 2.3 0 3.3-0.1 2-0.2 3.7-0.6 5.4-1.2 1.8-0.6 3.3-1.2 4.6-2l1.1-0.7-0.3 0.6v0.1h0.7l-1 0.7c-0.2 0.2-0.4 0.3-0.5 0.4-0.4 0.3-0.7 0.6-1 0.8 0.4 0.9 0.9 1.8 1.2 2.8 0.3 0.9 0.4 1.9 0.4 2.8v0.2c0.1 0.9 0.1 1.8-0.1 2.8-0.4 1.5-0.9 3.1-2 4.6-0.5 0.6-1.1 1.1-1.7 1.5-0.7 0.6-1.5 0.8-2.3 0.8zm-5.8-3.2c0.6 0.7 1.4 1.2 2.6 1.6 0.4 0.2 0.9 0.3 1.4 0.4 0.2 0.1 0.4 0.1 0.6 0.2 0.5 0.2 1.2 0.2 1.9 0.1s1.3-0.5 2-1.1c0-0.1-0.1-0.2-0.1-0.3-0.3-0.3-0.7-0.5-1.1-0.6l-1.5-0.3h-0.2l-0.7-0.1c-1.4-0.2-2.5-0.3-3.6-0.3-0.2 0-0.4 0-0.6 0.1-0.4-0.1-0.5 0.1-0.7 0.3zm1.4-1.5h0.8c1.2 0.1 2.6 0.2 3.9 0.5h0.2c0.6 0.1 1.2 0.2 1.8 0.5 0.3 0.2 0.8 0.4 1.1 0.9 0.2-0.3 0.4-0.6 0.6-0.8 0.4-0.7 0.7-1.4 0.9-2.2l0.1-0.3c-0.2-0.6-0.4-1-0.8-1.5-0.8-1-1.9-1.4-3.1-1.1-0.9 0.2-1.7 0.8-2.3 1.6 0 0 0 0.1-0.1 0.1l-0.3 0.4-0.7-0.5 0.2-0.3c0.3-0.4 0.6-0.8 1-1.2-0.5-0.3-1.1-0.4-1.7-0.4-1.5 0.1-2.7 0.8-3.8 2.1-0.1 0.1-0.1 0.2-0.1 0.3v0.2 0.5c0 0.6 0.2 1.2 0.5 1.8 0.3-0.4 0.8-0.6 1.3-0.6h0.1 0.3 0.1zm9.3-1.3zm0-0.1zm-3.1-3.6c0.9 0 1.7 0.3 2.4 0.9 0.4 0.3 0.7 0.7 1 1.2 0.1-1.6-0.2-3.9-0.5-4.8-3 0.9-6.2 1.1-9.5 0.5-0.5 1-1 2.1-1.4 3.3 0.5-0.4 1-0.7 1.6-0.9 1.5-0.6 3-0.5 4.3 0.4 0.1 0 0.1-0.1 0.2-0.1 0.7-0.4 1.3-0.5 1.9-0.5zm-6.1-3.1c3.1 0.5 5.9 0.3 8.7-0.5l-0.6-1.4c-0.2 0.2-0.4 0.3-0.5 0.4-0.2 0.1-0.5 0.4-0.8 0.1-0.2-0.3-0.1-0.5 0.3-0.8-0.9 0.4-1.9 0.7-3.1 1-1.3 0.3-2.5 0.6-3.7 0.7-0.1 0.1-0.2 0.3-0.3 0.5z"/>
		<path class="st2" d="m34.1 57.9c-0.5-0.8-0.8-1.6-0.8-2.5v-0.8c0-0.2 0.1-0.4 0.2-0.6 1.1-1.3 2.4-2.2 4.1-2.3 0.9-0.1 1.7 0.2 2.4 0.8-0.6 0.4-1 0.8-1.4 1.4l0.1-0.1c0.6-0.9 1.4-1.5 2.5-1.8 1.4-0.4 2.7 0.1 3.6 1.3 0.4 0.5 0.6 1 0.8 1.6v0.2c-0.3 0.9-0.6 1.8-1.1 2.6-0.3 0.5-0.6 0.9-0.9 1.3 0 0.1-0.1 0.1-0.1 0.2-0.1-0.7-0.6-1.1-1.2-1.3-0.6-0.3-1.2-0.4-1.8-0.5-1.3-0.2-2.6-0.4-3.8-0.5h-1.4c-0.4 0-0.8 0.2-1 0.5 0 0.1-0.1 0.3-0.2 0.5z"/>
		<path class="st1" d="m43.3 60.1-0.1-0.9c0-0.5-0.3-0.7-0.9-1-0.5-0.2-1-0.3-1.5-0.4h-0.2c-1.3-0.2-2.6-0.4-3.8-0.5h-1-0.4c-0.3 0-0.5 0.1-0.7 0.4-0.1 0.1-0.1 0.2-0.2 0.3 0 0.1-0.1 0.1-0.1 0.2l-0.4 0.6-0.3-0.6c-0.6-0.9-0.9-1.8-0.9-2.8v-0.6-0.2c0-0.3 0.1-0.6 0.3-0.8 1.2-1.5 2.7-2.3 4.4-2.4 0.9-0.1 1.8 0.2 2.6 0.8 0.3-0.2 0.7-0.3 1.1-0.4 1.6-0.4 3.1 0.1 4 1.4 0.4 0.5 0.7 1.1 0.9 1.7 0 0.1 0.1 0.3 0 0.5l-0.1 0.2c-0.3 0.8-0.5 1.6-1 2.4-0.2 0.3-0.5 0.7-0.7 1-0.1 0.1-0.2 0.2-0.3 0.4 0 0.1-0.1 0.1-0.1 0.2zm-7.3-3.7h0.8c1.2 0.1 2.6 0.2 3.9 0.5h0.2c0.6 0.1 1.2 0.2 1.8 0.5 0.3 0.2 0.8 0.4 1.1 0.9 0.2-0.3 0.4-0.6 0.6-0.8 0.4-0.7 0.7-1.4 0.9-2.2l0.1-0.3c-0.2-0.6-0.4-1-0.8-1.5-0.8-1-1.9-1.4-3.1-1.1-0.9 0.2-1.7 0.8-2.3 1.6 0 0 0 0.1-0.1 0.1l-0.3 0.4-0.7-0.5 0.2-0.3c0.3-0.4 0.6-0.8 1-1.2-0.5-0.3-1.1-0.4-1.7-0.4-1.5 0.1-2.7 0.8-3.8 2.1-0.1 0.1-0.1 0.2-0.1 0.3v0.2 0.5c0 0.6 0.2 1.2 0.5 1.8 0.3-0.4 0.8-0.6 1.3-0.6h0.1 0.3 0.1zm9.3-1.3zm0-0.1z"/>
		<path class="st3" d="m33.3 53.9c0.1-0.4 0.2-0.7 0.3-1.1 0.5-1.3 1-2.7 1.6-3.9 0.1-0.1 0.1-0.2 0.3-0.1 3.3 0.6 6.5 0.4 9.7-0.6h0.1c0.5 1 1 5.1 0.4 6.7 0-0.1-0.1-0.1-0.1-0.2-0.3-0.8-0.7-1.5-1.3-2-1.2-1-2.5-1-3.9-0.4-0.1 0.1-0.3 0.1-0.4 0.2-1.3-0.9-2.6-1.1-4.1-0.5-0.9 0.3-1.6 0.9-2.6 1.9 0.1 0 0.1 0 0 0z"/>
		<path class="st1" d="m45.8 55.2-0.1-0.3s0-0.1-0.1-0.1c-0.3-0.9-0.7-1.5-1.3-2-1.1-0.9-2.3-1-3.8-0.4-0.1 0-0.2 0.1-0.3 0.1 0 0-0.1 0-0.1 0.1h-0.2c-1.2-0.9-2.5-1.1-4-0.5-1 0.4-1.7 0.9-2.6 2v0.1l-0.1-0.2v-0.1l0.1-0.3c0.1-0.2 0.2-0.5 0.2-0.7 0.5-1.5 1-2.7 1.6-3.9 0.1-0.2 0.2-0.2 0.4-0.2 3.3 0.6 6.5 0.4 9.6-0.6h0.1 0.1v0.1c0.6 1 1 5.2 0.4 6.8zm-3.6-3.5c0.8 0 1.5 0.3 2.2 0.8 0.6 0.5 1 1.1 1.3 2 0.4-1.7 0-5.3-0.5-6.3-3.1 1-6.4 1.2-9.7 0.6-0.1 0-0.1 0-0.2 0.1-0.6 1.2-1.1 2.5-1.6 3.9-0.1 0.2-0.2 0.5-0.2 0.7 0.8-0.9 1.5-1.4 2.4-1.8 1.5-0.6 2.9-0.4 4.1 0.5h0.1c0.1-0.1 0.2-0.1 0.3-0.1 0.7-0.2 1.3-0.4 1.8-0.4z"/>
		<path class="st4" d="m39.7 57.2c0.7 0.2 1.5 0.3 2.2 0.5 0.5 0.1 1 0.4 1.3 0.8 0.2 0.2 0.3 0.4 0.3 0.7 0 0 0 0.1-0.1 0.1-0.6 0.6-1.4 1.1-2.3 1.3-0.7 0.1-1.3 0-2-0.1-0.7-0.2-1.4-0.3-2-0.6-1.1-0.4-2.1-0.9-2.9-1.8-0.1-0.1-0.1-0.2 0-0.3 0.2-0.3 0.4-0.7 0.8-0.8 0.2-0.1 0.5-0.1 0.7-0.1 1.2 0 2.5 0.1 3.7 0.2 0.1 0.1 0.2 0.1 0.3 0.1z"/>
		<path class="st1" d="m40.5 60.9c-0.5 0-1-0.1-1.5-0.2-0.3-0.1-0.5-0.1-0.8-0.2l-1.2-0.3c-1.3-0.5-2.2-1.1-2.9-1.9-0.1-0.1-0.2-0.3 0-0.5l0.1-0.1c0.2-0.3 0.4-0.6 0.8-0.8 0.2-0.1 0.5-0.1 0.8-0.1 1.3 0 2.6 0.1 3.7 0.2h0.1l0.4 0.1c0.1 0 0.3 0.1 0.4 0.1l1.5 0.3c0.6 0.1 1.1 0.4 1.4 0.8 0.2 0.2 0.3 0.5 0.3 0.9 0 0.1-0.1 0.2-0.1 0.3-0.8 0.7-1.5 1.2-2.4 1.3-0.2 0-0.4 0.1-0.6 0.1zm-1.4-0.6c0.8 0.1 1.3 0.2 2 0.1 0.8-0.1 1.5-0.5 2.2-1.2 0-0.2-0.1-0.4-0.2-0.5-0.3-0.3-0.7-0.6-1.2-0.7l-1.5-0.3c-0.2 0-0.3-0.1-0.5-0.1l-0.3-0.1h-0.2c-1.1-0.2-2.3-0.2-3.7-0.2-0.2 0-0.5 0-0.7 0.1-0.3 0.1-0.4 0.3-0.6 0.6l-0.1 0.1c0.6 0.8 1.5 1.3 2.8 1.8l1.2 0.3c0.3-0.1 0.6 0 0.8 0.1zm4.2-1.1z"/>
		<path class="st4" d="m45.4 48.5c-3.3 1.1-6.6 1.2-9.9 0.6 0.1-0.1 0.1-0.2 0.2-0.3 0.1-0.2 0.3-0.5 0.4-0.7 0.1-0.1 0.1-0.2 0.3-0.2 1.2-0.1 2.4-0.4 3.6-0.7s2.4-0.7 3.5-1.2l0.6-0.3c0.4 0.9 0.8 1.8 1.3 2.8z"/>
		<path class="st1" d="m39.3 49.5c-1.3 0-2.6-0.1-3.9-0.3h-0.1l0.1-0.2c0-0.1 0.1-0.2 0.1-0.2 0-0.1 0.1-0.2 0.1-0.2 0.1-0.2 0.2-0.3 0.3-0.5s0.2-0.2 0.4-0.2c1.2-0.1 2.4-0.4 3.6-0.7 1.4-0.4 2.5-0.7 3.5-1.2 0.1-0.1 0.3-0.1 0.4-0.2l0.3-0.1 1.3 3h-0.1c-1.9 0.5-3.9 0.8-6 0.8zm-3.7-0.5c3.4 0.6 6.6 0.4 9.6-0.6l-1.2-2.6-0.1 0.1c-0.1 0.1-0.3 0.1-0.4 0.2-1 0.5-2.1 0.8-3.5 1.2-1.3 0.3-2.5 0.6-3.7 0.7-0.1 0-0.1 0-0.2 0.1-0.1 0.2-0.2 0.3-0.3 0.5 0 0.1-0.1 0.2-0.1 0.2 0 0.1-0.1 0.1-0.1 0.2z"/>
		<polygon class="st5" points="41.6 50.7 42.4 51.1 43 51.6 43 51.9 42.3 51.8 41.3 51.9 40.2 52.3 37.7 51.5 38.4 50.8 39.1 50.6 39.7 50.5 39.9 50.5 40.1 50.4 40.4 50.5 40.7 50.5 41 50.5"/>
		<path class="st1" d="m40.2 52.4-2.7-0.8 0.9-0.8 0.7-0.3 0.6-0.1h1.1l0.9 0.3 0.8 0.4 0.6 0.5 0.1 0.5-0.9-0.1-1 0.1zm-2.3-0.9 2.3 0.7 1.1-0.4 1-0.1 0.6 0.1v-0.2l-0.5-0.5-0.8-0.4-0.6-0.1-0.3-0.1h-1l-0.6 0.1-0.7 0.3z"/>
		<path class="st2" d="m34.1 57.9c-0.5-0.8-0.8-1.6-0.8-2.5v-0.8c0-0.2 0.1-0.4 0.2-0.6 1.1-1.3 2.4-2.2 4.1-2.3 0.9-0.1 1.7 0.2 2.4 0.8-0.6 0.4-1 0.8-1.4 1.4l0.1-0.1c0.6-0.9 1.4-1.5 2.5-1.8 1.4-0.4 2.7 0.1 3.6 1.3 0.4 0.5 0.6 1 0.8 1.6v0.2c-0.3 0.9-0.6 1.8-1.1 2.6-0.3 0.5-0.6 0.9-0.9 1.3 0 0.1-0.1 0.1-0.1 0.2-0.1-0.7-0.6-1.1-1.2-1.3-0.6-0.3-1.2-0.4-1.8-0.5-1.3-0.2-2.6-0.4-3.8-0.5h-1.4c-0.4 0-0.8 0.2-1 0.5 0 0.1-0.1 0.3-0.2 0.5z"/>
		<path class="st1" d="m43.5 59.4v-0.2c-0.1-0.7-0.6-1-1.1-1.3s-1.1-0.4-1.6-0.5h-0.2c-1.3-0.2-2.6-0.4-3.8-0.5h-1-0.4c-0.4 0-0.7 0.2-0.9 0.5-0.1 0.1-0.1 0.2-0.2 0.3 0 0.1-0.1 0.1-0.1 0.2l-0.1 0.1-0.1-0.1c-0.5-0.9-0.8-1.7-0.9-2.6v-0.6-0.2c0-0.2 0.1-0.5 0.2-0.7 1.2-1.5 2.5-2.2 4.2-2.3 0.9-0.1 1.7 0.2 2.5 0.8 0.4-0.2 0.8-0.4 1.2-0.5 1.4-0.4 2.8 0.1 3.7 1.3 0.4 0.5 0.6 1 0.8 1.6v0.3l-0.1 0.3c-0.3 0.8-0.5 1.6-1 2.3-0.2 0.3-0.4 0.6-0.7 0.9 0.1 0.3 0.1 0.5 0 0.6l-0.2 0.2zm-7.4-2.6h0.8c1.2 0.1 2.5 0.2 3.9 0.5h0.2c0.6 0.1 1.1 0.2 1.7 0.5 0.5 0.3 1 0.6 1.2 1.2 0.1-0.1 0.2-0.2 0.3-0.4 0.2-0.3 0.5-0.6 0.7-0.9 0.4-0.7 0.7-1.5 1-2.3l0.1-0.3v-0.1c-0.2-0.6-0.5-1.1-0.8-1.6-0.8-1.1-2.1-1.6-3.5-1.2-1 0.2-1.8 0.8-2.4 1.7l-0.2 0.2-0.2-0.2v-0.1c0.3-0.5 0.7-1 1.3-1.3-0.7-0.5-1.5-0.7-2.3-0.7-1.6 0.1-2.9 0.8-4 2.2-0.1 0.2-0.2 0.3-0.2 0.5v0.2 0.6c0 0.8 0.3 1.5 0.7 2.4 0.1-0.1 0.1-0.2 0.2-0.3 0.3-0.4 0.7-0.6 1.1-0.6h0.4c-0.2 0-0.1 0 0 0z"/>
			<path class="st6" d="m30.8 32.2"/>
			<path class="st7" d="m18.1 17.7-3.6-12.7 25.2 6.9-0.9 3.3-19.6-5.4 1.9 7c2.2-0.4 4.5-0.3 6.9 0.3 8.4 2.3 13.4 11 11.1 19.4-2.3 8.5-11 13.5-19.4 11.2s-13.4-11-11.1-19.4c1.4-5 5-8.9 9.5-10.6"/>
			<polygon class="st1" points="39.7 11.8 38.8 15.1 15.6 8.9 14.5 5"/>
			<circle class="st8" cx="56.1" cy="32.3" r="3.9"/>
			<circle class="st9" cx="56.1" cy="32.3" r="2.3"/>
			<circle class="st10" cx="56.2" cy="32.3" r=".9"/>
			<circle class="st8" cx="24.5" cy="32.3" r="3.9"/>
			<circle class="st9" cx="24.5" cy="32.3" r="2.3"/>
			<circle class="st10" cx="24.6" cy="32.3" r=".9"/>
	<path class="st6" d="m30.8 32.2"/>
	<circle class="st8" cx="56.1" cy="32.3" r="3.9"/>
	<circle class="st9" cx="56.1" cy="32.3" r="2.3"/>
	<circle class="st10" cx="56.2" cy="32.3" r=".9"/>
	<circle class="st9" cx="24.5" cy="32.3" r="2.3"/>
	<circle class="st10" cx="24.6" cy="32.3" r=".9"/>
			<path class="st7" d="m61.8 17.6 3.5-12.7-25.2 7 0.9 3.3 19.5-5.4-1.8 7c-2.2-0.4-4.5-0.3-6.9 0.4-8.4 2.3-13.3 11.1-11 19.5s11.1 13.3 19.5 11 13.3-11.1 11-19.5c-1.4-5-5-8.8-9.5-10.6"/>
			<polygon class="st1" points="40.1 11.9 41 15.2 64.2 8.8 65.3 4.9"/>
	<circle class="st1" cx="24.5" cy="32.3" r="3.9"/>
	<circle class="st1" cx="56.1" cy="32.2" r="3.9"/>
</g>
</svg>
