<?xml version="1.0" encoding="UTF-8"?><svg id="a" xmlns="http://www.w3.org/2000/svg" width="71.066666" viewBox="-20 0 155.8181 93.0762"
   height="65.400002"><path d="M120.2917,51.3177c3.2338,8.6999,2.7201,18.4841-2.5938,27.2283-8.6366,14.3242-27.3046,18.6105-41.6288,9.9739-14.2671-8.8522-18.5534-27.5202-9.9168-41.8444,8.6366-14.3242,27.3046-18.6105,41.6288-9.9739,3.7539,2.3779,6.9053,5.2885,9.3402,9.1629h0l12.587-6.5882-32.8779-20.4692,3.2657-5.3644,42.4274,26.2269-22.2317,11.6482" fill="#f2f2f1" stroke="#000" stroke-linecap="round" stroke-miterlimit="10" stroke-width=".5"/><circle cx="92.4989" cy="62.1858" r="7.5827" fill="#1d1d1b"/><path d="M14.0041,23.1813L.4473,2.0592,50.2939,.259l.1267,6.4932-38.6992,1.5214,7.6788,11.9529h0c4.0329-2.1622,8.1546-2.9168,12.6504-3.3416,16.7212-.4183,30.8235,12.5429,31.2418,29.2641s-12.5429,30.8235-29.2641,31.2418c-16.7212,.4183-30.8235-12.5429-31.2418-29.2641-.2916-10.2281,4.1029-18.9849,11.2176-24.9454" fill="#f2f2f1" stroke="#000" stroke-linecap="round" stroke-miterlimit="10" stroke-width=".5"/><circle cx="33.0439" cy="47.1456" r="7.5827" fill="#1d1d1b"/><polygon points="50.6934 6.5937 4.5244 8.4447 .5043 1.8436 50.5095 .3161 50.6934 6.5937" fill="#1d1d1b"/><polygon points="99.8805 13.3855 142.5805 39.4539 135.8209 43.2014 96.6148 18.75 99.8805 13.3855" fill="#1d1d1b"/><circle cx="38.1552" cy="27.8372" r="4.4046" fill="#fff" stroke="#0f0f0e" stroke-miterlimit="10" stroke-width=".25"/><circle cx="27.9327" cy="66.4539" r="4.4046" fill="#fff" stroke="#0f0f0e" stroke-miterlimit="10" stroke-width=".25"/><circle cx="13.7356" cy="42.0343" r="4.4046" fill="#fff" stroke="#0f0f0e" stroke-miterlimit="10" stroke-width=".25"/><circle cx="52.3522" cy="52.2568" r="4.4046" fill="#fff" stroke="#0f0f0e" stroke-miterlimit="10" stroke-width=".25"/><circle cx="13.8789" cy="52.1616" r="4.4046" fill="#fff" stroke="#0f0f0e" stroke-miterlimit="10" stroke-width=".25"/><circle cx="19.1575" cy="61.1416" r="4.4046" fill="#fff" stroke="#0f0f0e" stroke-miterlimit="10" stroke-width=".25"/><circle cx="18.6246" cy="33.2391" r="4.4046" fill="#fff" stroke="#0f0f0e" stroke-miterlimit="10" stroke-width=".25"/><circle cx="28.0141" cy="27.6849" r="4.4046" fill="#fff" stroke="#0f0f0e" stroke-miterlimit="10" stroke-width=".25"/><circle cx="52.3428" cy="42.1649" r="4.4046" fill="#fff" stroke="#0f0f0e" stroke-miterlimit="10" stroke-width=".25"/><circle cx="47.1547" cy="33.3116" r="4.4046" fill="#fff" stroke="#0f0f0e" stroke-miterlimit="10" stroke-width=".25"/><circle cx="38.3673" cy="66.5067" r="4.4046" fill="#fff" stroke="#0f0f0e" stroke-miterlimit="10" stroke-width=".25"/><circle cx="47.3509" cy="61.0223" r="4.4046" fill="#fff" stroke="#0f0f0e" stroke-miterlimit="10" stroke-width=".25"/><circle cx="97.3908" cy="42.7524" r="4.4046" fill="#fff" stroke="#0f0f0e" stroke-miterlimit="10" stroke-width=".25"/><circle cx="87.1683" cy="81.369" r="4.4046" fill="#fff" stroke="#0f0f0e" stroke-miterlimit="10" stroke-width=".25"/><circle cx="72.9712" cy="56.9494" r="4.4046" fill="#fff" stroke="#0f0f0e" stroke-miterlimit="10" stroke-width=".25"/><circle cx="111.5879" cy="67.172" r="4.4046" fill="#fff" stroke="#0f0f0e" stroke-miterlimit="10" stroke-width=".25"/><circle cx="73.1145" cy="67.0767" r="4.4046" fill="#fff" stroke="#0f0f0e" stroke-miterlimit="10" stroke-width=".25"/><circle cx="78.3931" cy="76.0567" r="4.4046" fill="#fff" stroke="#0f0f0e" stroke-miterlimit="10" stroke-width=".25"/><circle cx="77.8602" cy="48.1542" r="4.4046" fill="#fff" stroke="#0f0f0e" stroke-miterlimit="10" stroke-width=".25"/><circle cx="87.2498" cy="42.6001" r="4.4046" fill="#fff" stroke="#0f0f0e" stroke-miterlimit="10" stroke-width=".25"/><circle cx="111.5784" cy="57.0801" r="4.4046" fill="#fff" stroke="#0f0f0e" stroke-miterlimit="10" stroke-width=".25"/><circle cx="106.3903" cy="48.2267" r="4.4046" fill="#fff" stroke="#0f0f0e" stroke-miterlimit="10" stroke-width=".25"/><circle cx="97.6029" cy="81.4218" r="4.4046" fill="#fff" stroke="#0f0f0e" stroke-miterlimit="10" stroke-width=".25"/><circle cx="106.5865" cy="75.9374" r="4.4046" fill="#fff" stroke="#0f0f0e" stroke-miterlimit="10" stroke-width=".25"/></svg>