<svg width="75" height="67.85" xmlns="http://www.w3.org/2000/svg">
 <defs>
  <style>.cls-1{fill:#fff;stroke:#1b8ea9;stroke-miterlimit:10;stroke-width:0.25px;}</style>
 </defs>
 <g>
  <title>Layer 1</title>
  <path id="svg_1" d="m58.87931,34.95323l-1.64,-1.32a0.92,0.92 0 0 0 -0.71,-0.2l-0.36,0.05l-3.8,-10.83a1,1 0 0 0 -1,-0.7l-1.23,0l0,-0.34a0.46,0.46 0 0 0 -0.2,-0.38a0.49,0.49 0 0 0 0.21,-0.41l0,-6.14a0.52,0.52 0 0 0 -0.52,-0.51l0,0a0.57,0.57 0 0 0 -0.29,0.08l0,-1.88a1.17,1.17 0 0 0 -1.16,-1.16l-0.32,0l0.08,-0.09l0,0s0,0 0.06,-0.06l0.61,-0.81l0,0l0,-0.06c0,-0.05 0,-0.08 0,-0.11s0,0 0,0l-8.59,-0.95a0.16,0.16 0 0 0 -0.09,0a0.12,0.12 0 0 0 0,0.08l-0.08,0.68l0,0a0.12,0.12 0 0 0 0.11,0.11l6.65,0.74l-0.38,0.41l-17.64,0l-0.35,-0.43l6.43,-0.7a0.12,0.12 0 0 0 0.08,0a0.16,0.16 0 0 0 0,-0.09l-0.08,-0.68a0.12,0.12 0 0 0 0,-0.08a0.15,0.15 0 0 0 -0.09,0l-8.63,0.85s0,0 0,0s0,0 0,0s0,0 0,0a0.09,0.09 0 0 0 0,0.08l0.86,1a1.16,1.16 0 0 0 -1,1.15l0,1.9a0.58,0.58 0 0 0 -0.32,-0.1l0,0a0.51,0.51 0 0 0 -0.51,0.51l0,6.26a0.51,0.51 0 0 0 0.2,0.41a0.46,0.46 0 0 0 -0.2,0.38l0,0.34l-1.34,0a1.06,1.06 0 0 0 -1,0.7l-3.8,10.83l-0.35,-0.05a0.93,0.93 0 0 0 -0.72,0.2l-1.64,1.32a0.8,0.8 0 0 0 -0.27,0.84l0.44,1.66l0,0l0,0.17l0,0l0.72,1.3l0.13,0.31a0.45,0.45 0 0 0 0.1,0.14l0,0l0,0l0,0a0.39,0.39 0 0 0 0.18,0l0.59,0a0.08,0.08 0 0 0 0.07,0l0.16,-0.48a0.37,0.37 0 0 0 0,-0.29l-0.61,-1.13a0.06,0.06 0 0 0 -0.06,0a0.3,0.3 0 0 0 -0.19,-0.14l-0.17,-0.58l0.43,-0.34l0.95,-0.75l1.88,0.16l0,0.2a0.69,0.69 0 0 1 -0.29,0.64l-1,0.68a0.79,0.79 0 0 1 -0.51,0.16l-0.22,0a0.25,0.25 0 0 0 -0.25,0.19l-0.09,0.33a0.27,0.27 0 0 0 0,0.19l0,0l0,0l0.49,1.11l0.06,0.09l0,0.11a0,0 0 0 0 0,0l0.09,0a0.56,0.56 0 0 0 0.31,0.09l0.42,0l0.05,0l2,-1.52a0.55,0.55 0 0 0 0.16,-0.18l0.1,-0.08l0,0l0,0l0,0l0,-0.13a1,1 0 0 0 0,-0.24l-0.21,-2a0,0 0 0 0 0,0l-0.57,-1.28l3,-7.75l0.85,0a0.47,0.47 0 0 0 0.45,0.34l0.14,0a0.45,0.45 0 0 0 0.42,-0.28a1.19,1.19 0 0 0 1,0.56l0.88,0l0,0.77l-0.34,0a0.61,0.61 0 0 0 -0.35,0.11l-0.05,0l0,0.09a0.58,0.58 0 0 0 -0.15,0.38l0,10.86a0.47,0.47 0 0 0 0.46,0.47l0.79,0l0,1.84l-0.13,0a1,1 0 0 0 -0.69,0.28l0,0a1,1 0 0 0 -0.26,0.67l0,1.51a2.22,2.22 0 0 0 0.06,0.51a8.68,8.68 0 0 0 0.66,2l-0.16,0.14a1.62,1.62 0 0 0 -0.58,1.22l0,4.82a2,2 0 0 0 0.24,0.89l-0.77,0a0.53,0.53 0 0 0 -0.53,0.47l-0.37,2.61l0,0a0.43,0.43 0 0 0 0,0.16l0,1.29a0.44,0.44 0 0 0 0.09,0.35a0.42,0.42 0 0 0 0.33,0.16l3.33,0a0.12,0.12 0 0 0 0.08,0a0.11,0.11 0 0 0 0,-0.07l2.68,0a0.13,0.13 0 0 0 0.12,0.11l3.06,0a0.51,0.51 0 0 0 0.37,-0.16a0.51,0.51 0 0 0 0.15,-0.37l0,-2.25a0.11,0.11 0 0 0 0,-0.07l0.22,-2.12l0,0a1.91,1.91 0 0 0 0.21,-0.81l0.06,-4.89a1.67,1.67 0 0 0 -0.33,-1c0.45,-0.2 0.72,-1.29 0.94,-2.33c0,-0.07 0,-0.13 0,-0.18a2.2,2.2 0 0 0 0,-0.36l0,-1.74a1,1 0 0 0 -0.36,-0.75a0.15,0.15 0 0 0 -0.07,0a0.77,0.77 0 0 0 -0.3,-0.06l-0.58,0l0,-1.87l0.82,0a0.49,0.49 0 0 0 0.49,-0.49l0,-10.82a0.62,0.62 0 0 0 -0.61,-0.61l-0.69,0l0,-0.79l3.18,0l0,0.77l-0.36,0a0.56,0.56 0 0 0 -0.31,0.09l-0.08,0l0,0.05a0.61,0.61 0 0 0 -0.2,0.44l0,10.89a0.47,0.47 0 0 0 0.47,0.47l0.78,0l0,1.84l-0.56,0a0.77,0.77 0 0 0 -0.3,0.06l-0.08,0a0.91,0.91 0 0 0 -0.34,0.73l0,1.73a1.47,1.47 0 0 0 0,0.36q0,0.08 0,0.18c0.23,1.05 0.5,2.17 1,2.34a1.65,1.65 0 0 0 -0.31,1l0,4.82a1.94,1.94 0 0 0 0.25,0.91a0.11,0.11 0 0 0 0,0.09l0,2.08a0.1,0.1 0 0 0 0,0.07l0,2.25a0.47,0.47 0 0 0 0.14,0.37a0.52,0.52 0 0 0 0.37,0.16l3.27,0a0.13,0.13 0 0 0 0.12,-0.11l2.68,0a0.11,0.11 0 0 0 0,0.07a0.13,0.13 0 0 0 0.09,0l3.32,0a0.42,0.42 0 0 0 0.33,-0.16a0.44,0.44 0 0 0 0.09,-0.35l0,-1.23a0.38,0.38 0 0 0 0,-0.15l-0.36,-2.61a0.53,0.53 0 0 0 -0.54,-0.48l-0.7,0a2.15,2.15 0 0 0 0.17,-0.74l0.11,-4.83a1.64,1.64 0 0 0 -0.46,-1.18l-0.29,-0.27a7.57,7.57 0 0 0 0.72,-2.1a2.22,2.22 0 0 0 0.06,-0.51l0,-1.51a1,1 0 0 0 -0.26,-0.67l0,0a1,1 0 0 0 -0.69,-0.28l-0.15,0l0,-1.88l0.82,0a0.49,0.49 0 0 0 0.49,-0.49l0,-10.82a0.61,0.61 0 0 0 -0.61,-0.61l-0.69,0l0,-0.79l1.39,0a1.18,1.18 0 0 0 1,-0.54a0.46,0.46 0 0 0 0.41,0.26l0.15,0a0.45,0.45 0 0 0 0.44,-0.34l0.82,0l3,7.77l-0.7,1.25l0,0l-0.26,2.45s0,0 0,0l2.27,1.74l0,0l0,0l0.43,0a0.54,0.54 0 0 0 0.28,-0.08l0,0s0,0 0,0l0,0a0.77,0.77 0 0 0 0.17,-0.19l0.48,-1.11l0,0l0,0a0.27,0.27 0 0 0 0,-0.19l-0.07,-0.34a0.25,0.25 0 0 0 -0.25,-0.19l-0.22,0a0.79,0.79 0 0 1 -0.51,-0.16l-0.95,-0.68a0.7,0.7 0 0 1 -0.3,-0.64l0,-0.2l1.53,-0.13l0.28,0l1.39,1.09l-0.18,0.6a0.2,0.2 0 0 0 -0.11,0.11a0.07,0.07 0 0 0 -0.07,0l-0.54,1l-0.1,0.14a0,0 0 0 0 0,0l0,0a0.34,0.34 0 0 0 0,0.2l0.16,0.48a0.1,0.1 0 0 0 0.08,0l0.44,0a0.33,0.33 0 0 0 0.15,0l0.06,0a0,0 0 0 0 0,0l0,0a0.33,0.33 0 0 0 0.1,-0.14l0.48,-0.26l0.67,-1.29l0,0l0,-0.17l0,0l0.45,-1.66a0.82,0.82 0 0 0 -0.26,-0.85zm-17,18.75l0.14,-6.78l2.38,0l0,0l0.05,6.77l-2.57,0.01zm-9,-6.68l0,6.59l-2.57,0l0.14,-6.59l0,0l2.43,0zm-16.33,-9.18l0,0l0.05,0.12l-0.05,-0.12zm40.08,0.48zm1.77,-0.3l0,-0.12l0,0l0,0.12z" class="cls-1"/>
 </g>
</svg>