<?xml version="1.0" encoding="UTF-8" standalone="no"?>
<svg
   xmlns:dc="http://purl.org/dc/elements/1.1/"
   xmlns:cc="http://creativecommons.org/ns#"
   xmlns:rdf="http://www.w3.org/1999/02/22-rdf-syntax-ns#"
   xmlns:svg="http://www.w3.org/2000/svg"
   xmlns="http://www.w3.org/2000/svg"
   xmlns:sodipodi="http://sodipodi.sourceforge.net/DTD/sodipodi-0.dtd"
   xmlns:inkscape="http://www.inkscape.org/namespaces/inkscape"
   version="1.1"
   id="svg2"
   xml:space="preserve"
   width="100.15747"
   height="86.92907"
   viewBox="0 0 100.15747 86.92907"
   sodipodi:docname="Dance block.ai"><metadata
     id="metadata8"><rdf:RDF><cc:Work
         rdf:about=""><dc:format>image/svg+xml</dc:format><dc:type
           rdf:resource="http://purl.org/dc/dcmitype/StillImage" /></cc:Work></rdf:RDF></metadata><defs
     id="defs6"><clipPath
       clipPathUnits="userSpaceOnUse"
       id="clipPath18"><path
         d="M 0,65.197 H 75.118 V 0 H 0 Z"
         id="path16" /></clipPath><clipPath
       clipPathUnits="userSpaceOnUse"
       id="clipPath34"><path
         d="M 1.97821,63.0641 H 73.0032 V 1.89914 H 1.97821 Z"
         id="path32" /></clipPath><clipPath
       clipPathUnits="userSpaceOnUse"
       id="clipPath38"><path
         d="m 9.233,1.899 c -3.797,0 -7.255,3.203 -7.255,6.722 0,0 0.013,5.812 0.013,9.332 0,0.184 0.004,0.342 0.008,0.485 0.973,-1.427 2.396,-2.208 4.232,-2.319 0.115,-0.008 0.227,-0.011 0.333,-0.011 1.663,0 2.601,0.82 3.419,1.658 1.7,1.739 1.713,3.976 1.778,14.709 -0.065,10.749 -0.078,12.984 -1.778,14.724 -0.819,0.838 -1.756,1.659 -3.419,1.659 -0.106,0 -0.218,-0.004 -0.333,-0.01 -1.838,-0.113 -3.26,-0.895 -4.232,-2.32 -0.005,0.162 -0.007,0.324 -0.008,0.485 0,3.521 -0.013,9.332 -0.013,9.332 0,3.516 3.458,6.719 7.255,6.719 h 47.546 c 3.623,0 6.573,-3.016 6.573,-6.719 0.031,-3.298 0.103,-9.558 0.105,-9.749 0,-3.157 0.98,-4.504 3.276,-4.504 1.769,0 2.479,1.093 3,1.893 0.476,0.732 0.737,1.135 1.692,1.135 1.545,0 1.554,-5.079 1.567,-10.454 0,-0.675 0.011,-2.283 0.011,-2.283 -0.008,-0.71 -0.011,-1.409 -0.011,-2.085 -0.015,-5.374 -0.022,-10.453 -1.567,-10.453 -0.955,0 -1.219,0.405 -1.692,1.135 -0.521,0.803 -1.231,1.896 -3,1.896 -2.298,0 -3.276,-1.349 -3.276,-4.507 -0.002,-0.188 -0.074,-6.449 -0.105,-9.734 0,-3.718 -2.95,-6.732 -6.573,-6.732 H 9.233 Z"
         id="path36" /></clipPath><linearGradient
       x1="0"
       y1="0"
       x2="1"
       y2="0"
       gradientUnits="userSpaceOnUse"
       gradientTransform="matrix(0,52.356018,-52.356018,0,37.490715,1.7821367)"
       spreadMethod="pad"
       id="linearGradient54"><stop
         style="stop-opacity:1;stop-color:#ffffff"
         offset="0"
         id="stop44" /><stop
         style="stop-opacity:1;stop-color:#ffffff"
         offset="0.127"
         id="stop46" /><stop
         style="stop-opacity:0.15999084;stop-color:#ffffff"
         offset="0.267"
         id="stop48" /><stop
         style="stop-opacity:0;stop-color:#ffffff"
         offset="0.539"
         id="stop50" /><stop
         style="stop-opacity:0;stop-color:#ffffff"
         offset="1"
         id="stop52" /></linearGradient><mask
       maskUnits="userSpaceOnUse"
       x="0"
       y="0"
       width="1"
       height="1"
       id="mask56"><g
         id="g66"><g
           id="g64"><g
             id="g62"><g
               id="g60"><path
                 d="M -32768,32767 H 32767 V -32768 H -32768 Z"
                 style="fill:url(#linearGradient54);stroke:none"
                 id="path58" /></g></g></g></g></mask><linearGradient
       x1="0"
       y1="0"
       x2="1"
       y2="0"
       gradientUnits="userSpaceOnUse"
       gradientTransform="matrix(0,52.356018,-52.356018,0,37.490715,1.7821367)"
       spreadMethod="pad"
       id="linearGradient78"><stop
         style="stop-opacity:1;stop-color:#95d2e1"
         offset="0"
         id="stop68" /><stop
         style="stop-opacity:1;stop-color:#95d2e1"
         offset="0.127"
         id="stop70" /><stop
         style="stop-opacity:1;stop-color:#95d2e1"
         offset="0.267"
         id="stop72" /><stop
         style="stop-opacity:1;stop-color:#95d2e1"
         offset="0.539"
         id="stop74" /><stop
         style="stop-opacity:1;stop-color:#95d2e1"
         offset="1"
         id="stop76" /></linearGradient><clipPath
       clipPathUnits="userSpaceOnUse"
       id="clipPath104"><path
         d="M 1.97821,63.0661 H 73.0082 V 30.3463 H 1.97821 Z"
         id="path102" /></clipPath><clipPath
       clipPathUnits="userSpaceOnUse"
       id="clipPath108"><path
         d="m 1.998,46.528 c 0.973,1.426 2.395,2.207 4.232,2.32 0.115,0.006 0.227,0.01 0.333,0.01 1.663,0 2.601,-0.82 3.419,-1.659 1.607,-1.645 1.707,-6.122 1.768,-15.423 18.04,-4.051 26.213,1.793 45.277,1.793 11.387,0 8.021,-0.692 15.975,-1.907 0.004,0.244 0.004,0.478 0.006,0.723 0,0 -0.01,1.608 -0.01,2.283 -0.016,5.375 -0.022,10.454 -1.567,10.454 -0.955,0 -1.22,-0.402 -1.694,-1.135 -0.521,-0.8 -1.23,-1.893 -3,-1.893 -2.299,0 -3.275,1.347 -3.275,4.504 -0.002,0.191 -0.073,6.451 -0.105,9.749 0,3.703 -2.949,6.719 -6.572,6.719 H 9.233 c -3.797,0 -7.255,-3.203 -7.255,-6.719 0,0 0.013,-5.811 0.013,-9.332 C 1.99,46.83 1.994,46.67 1.998,46.528"
         id="path106" /></clipPath><linearGradient
       x1="0"
       y1="0"
       x2="1"
       y2="0"
       gradientUnits="userSpaceOnUse"
       gradientTransform="matrix(-5.4759989,-24.301025,24.301025,-5.4759989,42.292473,65.620087)"
       spreadMethod="pad"
       id="linearGradient118"><stop
         style="stop-opacity:1;stop-color:#ffffff"
         offset="0"
         id="stop114" /><stop
         style="stop-opacity:0.17000076;stop-color:#ffffff"
         offset="1"
         id="stop116" /></linearGradient><mask
       maskUnits="userSpaceOnUse"
       x="0"
       y="0"
       width="1"
       height="1"
       id="mask120"><g
         id="g130"><g
           id="g128"><g
             id="g126"><g
               id="g124"><path
                 d="M -32768,32767 H 32767 V -32768 H -32768 Z"
                 style="fill:url(#linearGradient118);stroke:none"
                 id="path122" /></g></g></g></g></mask><linearGradient
       x1="0"
       y1="0"
       x2="1"
       y2="0"
       gradientUnits="userSpaceOnUse"
       gradientTransform="matrix(-5.4759989,-24.301025,24.301025,-5.4759989,42.292473,65.620087)"
       spreadMethod="pad"
       id="linearGradient136"><stop
         style="stop-opacity:1;stop-color:#95d2e1"
         offset="0"
         id="stop132" /><stop
         style="stop-opacity:1;stop-color:#95d2e1"
         offset="1"
         id="stop134" /></linearGradient><clipPath
       clipPathUnits="userSpaceOnUse"
       id="clipPath162"><path
         d="M 1.97821,63.0641 H 73.0032 V 8.57214 H 1.97821 Z"
         id="path160" /></clipPath></defs><sodipodi:namedview
     pagecolor="#ffffff"
     bordercolor="#666666"
     borderopacity="1"
     objecttolerance="10"
     gridtolerance="10"
     guidetolerance="10"
     inkscape:pageopacity="0"
     inkscape:pageshadow="2"
     inkscape:window-width="640"
     inkscape:window-height="480"
     id="namedview4" /><g
     id="g10"
     inkscape:groupmode="layer"
     inkscape:label="Dance block"
     transform="matrix(1.3333333,0,0,-1.3333333,0,86.929067)"><g
       id="g12"><g
         id="g14"
         clip-path="url(#clipPath18)"><g
           id="g20"
           transform="translate(9.2334,0.4078)"><path
             d="m 0,0 c -4.649,0 -8.727,3.838 -8.727,8.212 0,0 0.013,5.81 0.013,9.332 0,1.349 0.13,2.726 1.092,2.726 0.555,0 1.033,-0.544 1.58,-1.361 0.712,-1.061 1.736,-1.622 3.13,-1.71 0.083,-0.005 0.163,-0.008 0.242,-0.008 1.003,0 1.587,0.411 2.375,1.217 1.233,1.264 1.289,3.469 1.352,13.67 -0.063,10.194 -0.119,12.398 -1.352,13.662 -0.788,0.807 -1.372,1.218 -2.375,1.218 -0.078,0 -0.159,-0.003 -0.242,-0.009 -1.393,-0.086 -2.416,-0.645 -3.129,-1.708 -0.547,-0.817 -1.025,-1.362 -1.58,-1.362 -0.962,0 -1.092,1.378 -1.092,2.726 -0.001,3.52 -0.014,9.332 -0.014,9.332 0,4.376 4.078,8.213 8.727,8.213 h 47.546 c 4.434,0 8.041,-3.684 8.041,-8.212 0,0 0.103,-9.542 0.103,-9.75 0,-3.01 0.921,-3.01 1.813,-3.01 0.978,0 1.311,0.513 1.771,1.224 0.523,0.805 1.178,1.805 2.92,1.805 3.012,0 3.022,-4.752 3.039,-11.947 l 0.01,-2.284 -0.01,-2.084 c -0.018,-7.196 -0.027,-11.949 -3.039,-11.949 -1.742,0 -2.395,1.001 -2.92,1.807 -0.461,0.711 -0.795,1.227 -1.771,1.227 -0.892,0 -1.813,0 -1.813,-3.016 0,-0.207 -0.103,-9.752 -0.103,-9.752 C 55.587,3.688 51.98,0 47.546,0 Z"
             style="fill:#5fc5ef;fill-opacity:1;fill-rule:nonzero;stroke:none"
             id="path22" /></g><g
           id="g24"
           transform="translate(56.7793,65.0582)"><path
             d="m 0,0 h -47.546 c -4.915,0 -9.227,-4.071 -9.227,-8.713 0,-0.002 0.013,-5.812 0.013,-9.332 0,-0.965 0,-3.226 1.592,-3.226 0.863,0 1.483,0.818 1.996,1.584 0.395,0.589 1.11,1.385 2.744,1.486 0.073,0.004 0.143,0.007 0.211,0.007 0.835,0 1.297,-0.329 2.018,-1.067 1.097,-1.125 1.148,-3.288 1.209,-13.321 -0.062,-10.023 -0.113,-12.189 -1.21,-13.312 -0.719,-0.734 -1.181,-1.063 -2.017,-1.063 -0.069,0 -0.139,0.002 -0.212,0.007 -1.634,0.1 -2.348,0.897 -2.744,1.487 -0.513,0.766 -1.132,1.582 -1.995,1.582 -0.305,0 -1.05,-0.115 -1.379,-1.188 -0.144,-0.472 -0.213,-1.138 -0.213,-2.037 0,-3.521 -0.013,-9.331 -0.013,-9.331 0,-4.645 4.312,-8.716 9.227,-8.716 H 0 c 4.711,0 8.541,3.908 8.541,8.715 0.004,0.379 0.104,9.537 0.104,9.746 0,2.514 0.552,2.514 1.312,2.514 0.672,0 0.873,-0.256 1.354,-0.997 0.525,-0.81 1.322,-2.033 3.339,-2.033 3.509,0 3.521,4.951 3.538,12.446 0.002,0.674 0.005,1.367 0.01,2.08 v 0.206 c -0.005,0.719 -0.008,1.413 -0.01,2.086 -0.02,7.494 -0.029,12.445 -3.538,12.445 -2.017,0 -2.812,-1.222 -3.339,-2.031 -0.48,-0.74 -0.684,-0.996 -1.354,-0.996 -0.76,0 -1.312,0 -1.312,2.51 0,0.21 -0.103,9.37 -0.104,9.76 C 8.541,-3.909 4.709,0 0,0 m 0,-1 c 4.166,0 7.541,-3.454 7.541,-7.713 0,0 0.104,-9.542 0.104,-9.749 0,-3.113 0.979,-3.51 2.312,-3.51 2.565,0 1.824,3.027 4.69,3.027 2.763,0 2.5,-5.62 2.55,-13.531 v -0.201 c -0.05,-7.909 0.213,-13.532 -2.55,-13.532 -2.866,0 -2.125,3.029 -4.69,3.029 -1.332,0 -2.312,-0.399 -2.312,-3.512 0,-0.207 -0.104,-9.748 -0.104,-9.748 0,-4.263 -3.375,-7.713 -7.541,-7.713 h -47.546 c -4.164,0 -8.227,3.45 -8.227,7.713 0,0 0.013,5.811 0.013,9.332 0,1.685 0.255,2.226 0.592,2.226 0.365,0 0.826,-0.634 1.165,-1.14 0.586,-0.874 1.588,-1.81 3.514,-1.932 0.094,-0.006 0.185,-0.009 0.273,-0.009 1.241,0 1.944,0.562 2.732,1.367 1.385,1.42 1.43,3.54 1.494,14.017 -0.064,10.479 -0.109,12.598 -1.494,14.017 -0.789,0.809 -1.491,1.369 -2.733,1.369 -0.088,0 -0.179,-0.003 -0.273,-0.009 -1.926,-0.119 -2.928,-1.055 -3.514,-1.928 -0.339,-0.507 -0.8,-1.141 -1.165,-1.141 -0.337,0 -0.592,0.542 -0.592,2.226 0,3.521 -0.013,9.332 -0.013,9.332 10e-4,4.259 4.063,7.713 8.228,7.713 L 0,-1"
             style="fill:#308a9f;fill-opacity:1;fill-rule:nonzero;stroke:none"
             id="path26" /></g><g
           id="g28"><g
             id="g30" /><g
             id="g96"><g
               clip-path="url(#clipPath34)"
               opacity="0.199997"
               id="g94"><g
                 id="g92"><g
                   clip-path="url(#clipPath38)"
                   id="g90"><g
                     id="g88"><g
                       id="g80" /><g
                       mask="url(#mask56)"
                       id="g86"><g
                         id="g84"><path
                           d="m 9.233,1.899 c -3.797,0 -7.255,3.203 -7.255,6.722 0,0 0.013,5.812 0.013,9.332 0,0.184 0.004,0.342 0.008,0.485 0.973,-1.427 2.396,-2.208 4.232,-2.319 0.115,-0.008 0.227,-0.011 0.333,-0.011 1.663,0 2.601,0.82 3.419,1.658 1.7,1.739 1.713,3.976 1.778,14.709 -0.065,10.749 -0.078,12.984 -1.778,14.724 -0.819,0.838 -1.756,1.659 -3.419,1.659 -0.106,0 -0.218,-0.004 -0.333,-0.01 -1.838,-0.113 -3.26,-0.895 -4.232,-2.32 -0.005,0.162 -0.007,0.324 -0.008,0.485 0,3.521 -0.013,9.332 -0.013,9.332 0,3.516 3.458,6.719 7.255,6.719 h 47.546 c 3.623,0 6.573,-3.016 6.573,-6.719 0.031,-3.298 0.103,-9.558 0.105,-9.749 0,-3.157 0.98,-4.504 3.276,-4.504 1.769,0 2.479,1.093 3,1.893 0.476,0.732 0.737,1.135 1.692,1.135 1.545,0 1.554,-5.079 1.567,-10.454 0,-0.675 0.011,-2.283 0.011,-2.283 -0.008,-0.71 -0.011,-1.409 -0.011,-2.085 -0.015,-5.374 -0.022,-10.453 -1.567,-10.453 -0.955,0 -1.219,0.405 -1.692,1.135 -0.521,0.803 -1.231,1.896 -3,1.896 -2.298,0 -3.276,-1.349 -3.276,-4.507 -0.002,-0.188 -0.074,-6.449 -0.105,-9.734 0,-3.718 -2.95,-6.732 -6.573,-6.732 H 9.233 Z"
                           style="fill:url(#linearGradient78);stroke:none"
                           id="path82" /></g></g></g></g></g></g></g></g><g
           id="g98"><g
             id="g100" /><g
             id="g154"><g
               clip-path="url(#clipPath104)"
               opacity="0.75"
               id="g152"><g
                 id="g150"><g
                   clip-path="url(#clipPath108)"
                   id="g148"><g
                     id="g146"><g
                       id="g138" /><g
                       mask="url(#mask120)"
                       id="g144"><g
                         id="g142"><path
                           d="m 1.998,46.528 c 0.973,1.426 2.395,2.207 4.232,2.32 0.115,0.006 0.227,0.01 0.333,0.01 1.663,0 2.601,-0.82 3.419,-1.659 1.607,-1.645 1.707,-6.122 1.768,-15.423 18.04,-4.051 26.213,1.793 45.277,1.793 11.387,0 8.021,-0.692 15.975,-1.907 0.004,0.244 0.004,0.478 0.006,0.723 0,0 -0.01,1.608 -0.01,2.283 -0.016,5.375 -0.022,10.454 -1.567,10.454 -0.955,0 -1.22,-0.402 -1.694,-1.135 -0.521,-0.8 -1.23,-1.893 -3,-1.893 -2.299,0 -3.275,1.347 -3.275,4.504 -0.002,0.191 -0.073,6.451 -0.105,9.749 0,3.703 -2.949,6.719 -6.572,6.719 H 9.233 c -3.797,0 -7.255,-3.203 -7.255,-6.719 0,0 0.013,-5.811 0.013,-9.332 C 1.99,46.83 1.994,46.67 1.998,46.528"
                           style="fill:url(#linearGradient136);stroke:none"
                           id="path140" /></g></g></g></g></g></g></g></g><g
           id="g156"><g
             id="g158" /><g
             id="g170"><g
               clip-path="url(#clipPath162)"
               opacity="0.899994"
               id="g168"><g
                 transform="translate(1.9902,16.5494)"
                 id="g166"><path
                   d="m 0,0 c 0,0.183 0.004,0.343 0.008,0.484 0.973,-1.426 2.396,-2.207 4.232,-2.318 0.115,-0.009 0.227,-0.014 0.333,-0.014 1.663,0 2.601,0.819 3.419,1.661 1.7,1.737 1.713,3.977 1.778,14.71 L 9.765,15.224 C 9.703,5.094 9.654,2.916 7.992,1.214 7.174,0.379 6.237,-0.441 4.574,-0.441 c -0.106,0 -0.218,0.003 -0.333,0.01 C 2.405,-0.319 0.981,0.465 0.009,1.889 0.004,1.728 0.001,1.565 0.001,1.403 c 0,-3.52 -0.013,-9.332 -0.013,-9.332 L -0.01,-7.978 C -0.005,-6.05 0,-2.464 0,0 m 7.243,45.112 h 47.546 c 3.623,0 6.572,-3.014 6.572,-6.719 0.032,-3.296 0.104,-9.558 0.106,-9.75 0,-3.154 0.979,-4.504 3.276,-4.504 1.769,0 2.479,1.096 3,1.895 0.476,0.731 0.736,1.135 1.692,1.135 1.544,0 1.554,-5.077 1.567,-10.453 0,-0.393 0.003,-1.102 0.005,-1.625 0,0.252 0,0.491 0.006,0.743 0,0 -0.011,1.608 -0.011,2.283 -0.016,5.375 -0.023,10.454 -1.567,10.454 -0.956,0 -1.219,-0.402 -1.692,-1.135 -0.521,-0.8 -1.231,-1.893 -3,-1.893 -2.299,0 -3.276,1.347 -3.276,4.504 -0.002,0.191 -0.074,6.451 -0.106,9.749 0,3.703 -2.949,6.719 -6.572,6.719 H 7.243 c -3.797,0 -7.255,-3.203 -7.255,-6.719 l 0.002,-1.355 c 0.031,3.497 3.473,6.671 7.253,6.671"
                   style="fill:#ffffff;fill-opacity:1;fill-rule:nonzero;stroke:none"
                   id="path164" /></g></g></g></g><g
           id="g172"
           transform="translate(34.9648,12.5074)"><path
             d="m 0,0 0.001,-0.008 -1.666,-0.014 c 0.002,0.003 0.005,0.007 0.008,0.012 0.009,0 0.016,-10e-4 0.028,-10e-4 z m 2.249,23.641 c -0.046,0.049 -0.13,0.088 -0.231,0.113 0.11,-0.019 0.194,-0.06 0.231,-0.113 M -11.025,4.577 -11.024,4.569 -12.69,4.554 c 0.003,0.005 0.005,0.008 0.008,0.013 0.009,-0.001 0.016,-0.001 0.028,-0.001 z m -7.281,9.653 c 0.006,-0.005 0.014,-0.01 0.02,-0.016 l 0.053,-0.123 z m 39.96,27.725 h -0.001 l -0.005,0.013 z m 1.751,-0.463 c -0.006,0.006 -0.012,0.01 -0.019,0.016 l -0.049,0.117 z M -9.008,31.045 v -0.017 l -0.013,0.009 c 0.004,0.003 0.009,0.005 0.013,0.008 M 3.174,0.187 6.446,4.933 c 0.075,0.037 0.203,0.112 0.345,0.208 0.007,0 0.013,-0.002 0.02,-0.002 L 8.972,5.129 5.701,0.216 Z M 3.059,0.021 H 3.06 l 0.384,0.002 z m -10.91,4.743 3.272,4.746 c 0.076,0.037 0.204,0.111 0.345,0.208 0.007,-10e-4 0.013,-0.002 0.02,-0.002 l 2.161,-0.01 -3.27,-4.913 z m -0.115,-0.167 0.001,10e-4 0.389,0.003 z m 31.99,34.44 c 0.055,0.15 0.068,0.315 0.026,0.475 l -0.422,1.601 c 0,10e-4 -0.001,0.002 -0.001,0.003 l -0.032,0.165 c -10e-4,0.004 -0.002,0.008 -0.004,0.011 l -0.64,1.248 -0.125,0.297 c -0.021,0.049 -0.054,0.09 -0.091,0.125 l -0.024,0.047 c -0.007,0.012 -0.02,0.02 -0.032,0.02 -0.006,0 -0.012,-0.002 -0.018,-0.005 -0.002,-10e-4 0,-0.004 -0.002,-0.006 -0.053,0.029 -0.111,0.048 -0.174,0.048 h -0.329 c -0.02,0 -0.04,-0.005 -0.058,-0.015 -0.005,0.004 -0.007,0.01 -0.013,0.012 -0.008,0.002 -0.016,0.003 -0.023,0.003 -0.032,0 -0.06,-0.019 -0.071,-0.05 l -0.153,-0.462 c -0.018,-0.066 -0.013,-0.13 0.002,-0.191 l -0.01,-0.032 c -0.003,-0.011 -10e-4,-0.022 0.005,-0.032 l 0.091,-0.141 0.515,-0.988 c 0.014,-0.025 0.039,-0.034 0.066,-0.034 0.024,-0.045 0.057,-0.083 0.101,-0.11 l 0.172,-0.578 -1.314,-1.055 -0.269,0.017 -1.443,0.126 -0.02,0.194 c -0.023,0.242 0.083,0.481 0.279,0.624 l 0.908,0.659 c 0.141,0.104 0.311,0.156 0.483,0.152 l 0.205,-0.006 c 0.113,-10e-4 0.212,0.078 0.237,0.191 l 0.066,0.324 c 0.013,0.066 -0.002,0.134 -0.041,0.187 -0.008,0.011 -0.02,0.017 -0.03,0.026 -0.001,0.003 10e-4,0.006 0,0.009 l -0.464,1.076 c -0.037,0.072 -0.091,0.129 -0.149,0.177 l -0.012,0.033 c -0.005,0.014 -0.019,0.024 -0.033,0.025 l -0.041,0.002 c -0.081,0.045 -0.172,0.072 -0.267,0.072 h -0.402 c -0.016,0 -0.033,-0.005 -0.045,-0.015 l -0.013,-0.011 h -0.006 c 0,0 -10e-4,10e-4 -0.002,10e-4 -0.008,0 -0.015,-0.003 -0.022,-0.008 l -2.146,-1.69 c -0.01,-0.008 -0.015,-0.021 -0.014,-0.034 l 0.23,-2.335 c 0.001,-0.005 0.002,-0.01 0.005,-0.015 l 0.661,-1.206 -2.85,-7.526 h -0.577 v 0.211 c 0,0.163 -0.09,0.301 -0.218,0.383 0.129,0.095 0.22,0.241 0.22,0.414 v 6.213 c 0,0.102 -0.037,0.191 -0.088,0.272 l 0.099,0.035 c 0.002,-0.002 0.002,-0.006 0.004,-0.008 10e-4,0 0.002,-0.001 0.003,-0.002 0.021,-0.011 0.054,0.002 0.085,0.024 l 0.94,0.4 c 0.006,0.003 0.013,0.009 0.017,0.013 0.007,0.008 0.042,0.024 0.062,0.034 0.051,0.024 0.088,0.042 0.092,0.077 0.001,0.018 -0.007,0.034 -0.022,0.046 l -2.034,1.445 V 40 c 0,0.647 -0.527,1.174 -1.174,1.174 H 13.2 L 9.736,43.635 C 9.711,43.655 9.68,43.662 9.648,43.657 9.616,43.652 9.589,43.635 9.569,43.608 L 9.167,43.048 C 9.165,43.046 9.166,43.042 9.165,43.04 L 9.16,43.034 C 9.123,42.979 9.136,42.904 9.189,42.868 l 2.355,-1.694 H -5.833 l 2.248,1.626 c 0.026,0.018 0.044,0.046 0.049,0.077 0.006,0.032 -0.002,0.065 -0.021,0.09 l -0.404,0.558 c -0.019,0.026 -0.046,0.043 -0.078,0.049 -0.031,0.005 -0.063,-0.003 -0.089,-0.021 l -3.328,-2.379 h -0.378 c -0.623,0 -1.129,-0.489 -1.166,-1.104 l -2.266,-1.619 c -0.016,-0.011 -0.024,-0.028 -0.022,-0.045 0.002,-0.012 0.012,-0.021 0.02,-0.03 -0.011,-0.016 -0.019,-0.034 -0.016,-0.054 0.004,-0.03 0.024,-0.055 0.053,-0.065 l 1.379,-0.474 c -0.009,-0.039 -0.024,-0.077 -0.024,-0.12 V 31.45 c 0,-0.173 0.09,-0.319 0.22,-0.414 -0.128,-0.082 -0.219,-0.22 -0.219,-0.383 v -0.34 h -1.254 c -0.449,0 -0.852,-0.285 -1.001,-0.709 l -3.842,-10.964 -0.361,0.051 c -0.258,0.037 -0.522,-0.037 -0.725,-0.201 l -1.659,-1.338 c -0.113,-0.092 -0.193,-0.213 -0.243,-0.342 -0.004,-0.004 -0.006,-0.009 -0.007,-0.014 -0.058,-0.157 -0.073,-0.329 -0.028,-0.497 l 0.451,-1.673 c 0,-10e-4 0.001,-0.002 0.001,-0.003 l 0.035,-0.173 c 0,-0.004 0.002,-0.007 0.003,-0.011 l 0.683,-1.303 0.135,-0.312 c 0.022,-0.052 0.057,-0.094 0.097,-0.131 l 0.025,-0.047 c 0.007,-0.014 0.021,-0.022 0.035,-0.022 0.002,0 0.003,10e-4 0.005,10e-4 10e-4,0 10e-4,-10e-4 10e-4,-10e-4 l 0.028,0.005 c 0.054,-0.026 0.111,-0.044 0.173,-0.044 h 0.35 c 0.023,0 0.044,0.006 0.063,0.016 0.005,-0.003 0.007,-0.01 0.014,-0.012 0.008,-0.003 0.017,-0.004 0.025,-0.004 0.033,0 0.063,0.02 0.075,0.054 l 0.165,0.486 c 0.027,0.098 0.015,0.2 -0.032,0.289 l -0.614,1.152 c -0.014,0.027 -0.042,0.037 -0.07,0.037 -0.039,0.069 -0.102,0.122 -0.183,0.143 l -0.178,0.588 0.588,0.462 0.815,0.64 1.898,-0.162 0.021,-0.203 c 0.025,-0.253 -0.089,-0.503 -0.297,-0.652 l -0.97,-0.689 c -0.151,-0.108 -0.33,-0.165 -0.517,-0.158 l -0.219,0.006 c -0.123,0.004 -0.226,-0.082 -0.252,-0.2 l -0.071,-0.339 c -0.014,-0.068 0.003,-0.139 0.044,-0.194 0.009,-0.012 0.022,-0.018 0.032,-0.028 10e-4,-0.003 -0.001,-0.005 10e-4,-0.008 l 0.497,-1.131 c 0.015,-0.028 0.035,-0.049 0.053,-0.073 l 0.047,-0.128 c 0.006,-0.015 0.019,-0.026 0.035,-0.027 l 0.09,-0.005 c 0.092,-0.054 0.198,-0.085 0.309,-0.085 h 0.429 c 0.018,0 0.034,0.006 0.048,0.017 l 2.006,1.535 c 0.064,0.052 0.114,0.114 0.157,0.182 l 0.104,0.08 c 0.002,0.001 10e-4,0.004 0.003,0.006 0.006,0.007 0.01,0.014 0.01,0.024 0,0.002 0.003,0.003 0.002,0.005 l -0.014,0.141 c 0.016,0.075 0.025,0.152 0.016,0.231 l -0.208,2.072 c -10e-4,0.011 -0.004,0.022 -0.01,0.032 l -0.697,1.243 3.038,7.849 h 0.869 c 0.054,-0.197 0.226,-0.345 0.44,-0.345 h 0.146 c 0.195,0 0.36,0.121 0.429,0.292 0.206,-0.342 0.576,-0.573 1.002,-0.573 h 0.99 v -1.275 h -0.321 c -0.328,0 -0.595,-0.125 -0.595,-0.28 v -5.171 c 0,-0.079 0.094,-0.146 0.228,-0.185 v -0.015 h 0.05 c 0.058,-0.013 0.123,-0.021 0.191,-0.021 H -6.54 V 15.14 h -0.134 c -0.263,0 -0.51,-0.101 -0.697,-0.284 C -7.377,14.851 -7.379,14.842 -7.385,14.835 -7.55,14.67 -7.656,14.432 -7.656,14.19 v -1.757 c 0,-0.122 0.014,-0.245 0.044,-0.363 0.013,-0.051 0.027,-0.113 0.043,-0.182 0.068,-0.286 0.138,-0.577 0.217,-0.854 -0.318,-0.127 -0.591,-0.346 -0.782,-0.64 l -2.643,-4.106 c -0.23,-0.355 -0.334,-0.784 -0.295,-1.207 l 0.033,-0.353 -1.503,-0.017 c -0.036,0 -0.059,-0.001 -0.078,-0.001 -0.002,0.001 0.003,0.008 -0.001,0.008 -10e-4,0 -0.209,-0.067 -0.211,-0.067 C -12.896,4.65 -12.978,4.5 -12.976,4.435 l -0.003,-1.896 c -0.029,-0.022 -0.05,-0.053 -0.049,-0.092 l 0.05,-2.271 c -0.005,-0.142 0.047,-0.276 0.145,-0.377 0.099,-0.102 0.231,-0.157 0.374,-0.157 h 3.099 c 0.063,0 0.114,0.048 0.118,0.111 h 2.714 c 10e-4,-0.027 0.012,-0.054 0.031,-0.074 0.023,-0.025 0.054,-0.037 0.087,-0.037 h 3.364 c 0.131,0 0.254,0.058 0.338,0.16 0.08,0.098 0.112,0.224 0.09,0.347 v 1.447 c 0,10e-4 -0.002,0.002 -0.002,0.004 0,0.004 0.002,0.008 10e-4,0.012 l -0.173,1.232 c 0.13,0.106 0.25,0.224 0.348,0.362 L 0.389,7.183 C 0.645,7.542 0.749,7.996 0.673,8.437 0.569,8.876 0.461,9.346 0.385,9.694 L 1.291,9.69 h 0.003 c 0.107,0 0.199,0.028 0.24,0.066 C 1.54,9.755 1.546,9.75 1.553,9.75 c 0.037,0 0.073,0.017 0.096,0.05 0.356,0.499 0.637,1.59 0.772,2.195 0.037,0.168 0.057,0.341 0.057,0.515 v 1.533 c 0,0.212 -0.092,0.516 -0.262,0.667 -0.001,10e-4 -0.002,0.003 -0.003,0.004 -0.021,0.017 -0.047,0.022 -0.072,0.024 0.035,0.055 0.052,0.12 0.036,0.184 -0.019,0.073 -0.073,0.133 -0.142,0.16 C 1.937,15.12 1.832,15.14 1.725,15.14 H 1.142 v 3.064 h 0.87 c 0.274,0 0.497,0.105 0.497,0.233 v 5.149 c 0,0.161 -0.277,0.291 -0.618,0.291 H 1.17 c -0.01,0 -0.017,-0.004 -0.027,-0.005 v 0.116 c 0.002,0.007 0.002,0.014 0.002,0.021 v 1.142 H 4.278 V 24.374 H 3.911 C 3.799,24.374 3.7,24.334 3.61,24.28 H 3.517 V 24.217 C 3.396,24.108 3.316,23.954 3.316,23.778 V 12.79 c 0,-0.259 0.21,-0.469 0.469,-0.469 H 4.581 V 10.465 H 4.104 c -0.107,0 -0.211,-0.02 -0.309,-0.058 C 3.738,10.386 3.698,10.34 3.672,10.285 3.489,10.12 3.368,9.869 3.368,9.614 V 7.855 C 3.368,7.733 3.383,7.611 3.413,7.493 3.425,7.441 3.44,7.38 3.456,7.311 3.523,7.024 3.594,6.733 3.673,6.457 3.354,6.33 3.081,6.111 2.89,5.816 L 0.248,1.712 C 0.018,1.356 -0.086,0.928 -0.047,0.504 L -0.014,0.151 -1.517,0.134 c -0.036,0 -0.059,0 -0.078,-0.001 -0.002,0.001 0.002,0.008 -0.001,0.008 -10e-4,0 -0.21,-0.066 -0.211,-0.066 -0.065,-0.002 -0.146,-0.152 -0.144,-0.218 l -0.003,-1.895 c -0.029,-0.023 -0.05,-0.053 -0.049,-0.092 l 0.049,-2.27 c -0.004,-0.142 0.048,-0.276 0.146,-0.377 0.099,-0.103 0.231,-0.159 0.373,-0.159 h 3.1 c 0.063,0 0.114,0.05 0.118,0.113 h 2.713 c 0.002,-0.029 0.013,-0.055 0.032,-0.075 0.023,-0.024 0.054,-0.038 0.086,-0.038 h 3.365 c 0.131,0 0.254,0.059 0.337,0.162 0.08,0.097 0.113,0.223 0.091,0.347 v 1.446 c 0,0.002 -0.002,0.002 -0.002,0.003 -10e-4,0.004 0.001,0.009 0,0.013 l -0.172,1.232 c 0.13,0.106 0.25,0.225 0.348,0.362 l 2.832,3.977 c 0.256,0.359 0.36,0.814 0.285,1.254 -0.104,0.44 -0.212,0.909 -0.288,1.258 l 0.906,-0.005 h 0.003 c 0.107,0 0.199,0.028 0.24,0.066 0.006,-0.001 0.012,-0.006 0.018,-0.006 0.037,0 0.073,0.017 0.097,0.05 0.356,0.5 0.637,1.589 0.772,2.195 0.037,0.168 0.056,0.342 0.056,0.515 v 1.533 c 0,0.213 -0.093,0.521 -0.265,0.671 -0.002,0.002 -0.005,10e-4 -0.008,0.003 -0.009,0.013 -0.015,0.03 -0.028,0.043 -0.186,0.181 -0.433,0.282 -0.696,0.282 h -0.242 v 1.854 h 0.824 c 0.274,0 0.498,0.223 0.498,0.497 v 10.941 c 0,0.341 -0.277,0.618 -0.618,0.618 h -0.699 v 0.776 h 1.412 c 0.416,0 0.779,0.22 0.988,0.548 0.074,-0.157 0.231,-0.267 0.417,-0.267 h 0.145 c 0.256,0 0.464,0.207 0.464,0.463 v 0.206 h 0.989 c 0.421,0 0.797,0.273 0.937,0.679 l 3.598,10.493 0.34,-0.049 c 0.241,-0.036 0.489,0.034 0.678,0.191 l 1.554,1.281 c 0.106,0.088 0.181,0.203 0.229,0.328 0.002,0.004 0.003,0.008 0.005,0.013"
             style="fill:#ffffff;fill-opacity:1;fill-rule:nonzero;stroke:none"
             id="path174" /></g><g
           id="g176"
           transform="translate(34.9648,12.5074)"><path
             d="m 0,0 0.001,-0.008 -1.666,-0.014 c 0.002,0.003 0.005,0.007 0.008,0.012 0.009,0 0.016,-10e-4 0.028,-10e-4 z m 2.249,23.641 c -0.046,0.049 -0.13,0.088 -0.231,0.113 0.11,-0.019 0.194,-0.06 0.231,-0.113 z M -11.025,4.577 -11.024,4.569 -12.69,4.554 c 0.003,0.005 0.005,0.008 0.008,0.013 0.009,-0.001 0.016,-0.001 0.028,-0.001 z m -7.281,9.653 c 0.006,-0.005 0.014,-0.01 0.02,-0.016 l 0.053,-0.123 z m 39.96,27.725 h -0.001 l -0.005,0.013 z m 1.751,-0.463 c -0.006,0.006 -0.012,0.01 -0.019,0.016 l -0.049,0.117 z M -9.008,31.045 v -0.017 l -0.013,0.009 c 0.004,0.003 0.009,0.005 0.013,0.008 z M 3.174,0.187 6.446,4.933 c 0.075,0.037 0.203,0.112 0.345,0.208 0.007,0 0.013,-0.002 0.02,-0.002 L 8.972,5.129 5.701,0.216 Z M 3.059,0.021 H 3.06 l 0.384,0.002 z m -10.91,4.743 3.272,4.746 c 0.076,0.037 0.204,0.111 0.345,0.208 0.007,-10e-4 0.013,-0.002 0.02,-0.002 l 2.161,-0.01 -3.27,-4.913 z m -0.115,-0.167 0.001,10e-4 0.389,0.003 z m 31.99,34.44 c 0.055,0.15 0.068,0.315 0.026,0.475 l -0.422,1.601 c 0,10e-4 -0.001,0.002 -0.001,0.003 l -0.032,0.165 c -10e-4,0.004 -0.002,0.008 -0.004,0.011 l -0.64,1.248 -0.125,0.297 c -0.021,0.049 -0.054,0.09 -0.091,0.125 l -0.024,0.047 c -0.007,0.012 -0.02,0.02 -0.032,0.02 -0.006,0 -0.012,-0.002 -0.018,-0.005 -0.002,-10e-4 0,-0.004 -0.002,-0.006 -0.053,0.029 -0.111,0.048 -0.174,0.048 h -0.329 c -0.02,0 -0.04,-0.005 -0.058,-0.015 -0.005,0.004 -0.007,0.01 -0.013,0.012 -0.008,0.002 -0.016,0.003 -0.023,0.003 -0.032,0 -0.06,-0.019 -0.071,-0.05 l -0.153,-0.462 c -0.018,-0.066 -0.013,-0.13 0.002,-0.191 l -0.01,-0.032 c -0.003,-0.011 -10e-4,-0.022 0.005,-0.032 l 0.091,-0.141 0.515,-0.988 c 0.014,-0.025 0.039,-0.034 0.066,-0.034 0.024,-0.045 0.057,-0.083 0.101,-0.11 l 0.172,-0.578 -1.314,-1.055 -0.269,0.017 -1.443,0.126 -0.02,0.194 c -0.023,0.242 0.083,0.481 0.279,0.624 l 0.908,0.659 c 0.141,0.104 0.311,0.156 0.483,0.152 l 0.205,-0.006 c 0.113,-10e-4 0.212,0.078 0.237,0.191 l 0.066,0.324 c 0.013,0.066 -0.002,0.134 -0.041,0.187 -0.008,0.011 -0.02,0.017 -0.03,0.026 -0.001,0.003 10e-4,0.006 0,0.009 l -0.464,1.076 c -0.037,0.072 -0.091,0.129 -0.149,0.177 l -0.012,0.033 c -0.005,0.014 -0.019,0.024 -0.033,0.025 l -0.041,0.002 c -0.081,0.045 -0.172,0.072 -0.267,0.072 h -0.402 c -0.016,0 -0.033,-0.005 -0.045,-0.015 l -0.013,-0.011 h -0.006 c 0,0 -10e-4,10e-4 -0.002,10e-4 -0.008,0 -0.015,-0.003 -0.022,-0.008 l -2.146,-1.69 c -0.01,-0.008 -0.015,-0.021 -0.014,-0.034 l 0.23,-2.335 c 0.001,-0.005 0.002,-0.01 0.005,-0.015 l 0.661,-1.206 -2.85,-7.526 h -0.577 v 0.211 c 0,0.163 -0.09,0.301 -0.218,0.383 0.129,0.095 0.22,0.241 0.22,0.414 v 6.213 c 0,0.102 -0.037,0.191 -0.088,0.272 l 0.099,0.035 c 0.002,-0.002 0.002,-0.006 0.004,-0.008 10e-4,0 0.002,-0.001 0.003,-0.002 0.021,-0.011 0.054,0.002 0.085,0.024 l 0.94,0.4 c 0.006,0.003 0.013,0.009 0.017,0.013 0.007,0.008 0.042,0.024 0.062,0.034 0.051,0.024 0.088,0.042 0.092,0.077 0.001,0.018 -0.007,0.034 -0.022,0.046 l -2.034,1.445 V 40 c 0,0.647 -0.527,1.174 -1.174,1.174 H 13.2 L 9.736,43.635 C 9.711,43.655 9.68,43.662 9.648,43.657 9.616,43.652 9.589,43.635 9.569,43.608 L 9.167,43.048 C 9.165,43.046 9.166,43.042 9.165,43.04 L 9.16,43.034 C 9.123,42.979 9.136,42.904 9.189,42.868 l 2.355,-1.694 H -5.833 l 2.248,1.626 c 0.026,0.018 0.044,0.046 0.049,0.077 0.006,0.032 -0.002,0.065 -0.021,0.09 l -0.404,0.558 c -0.019,0.026 -0.046,0.043 -0.078,0.049 -0.031,0.005 -0.063,-0.003 -0.089,-0.021 l -3.328,-2.379 h -0.378 c -0.623,0 -1.129,-0.489 -1.166,-1.104 l -2.266,-1.619 c -0.016,-0.011 -0.024,-0.028 -0.022,-0.045 0.002,-0.012 0.012,-0.021 0.02,-0.03 -0.011,-0.016 -0.019,-0.034 -0.016,-0.054 0.004,-0.03 0.024,-0.055 0.053,-0.065 l 1.379,-0.474 c -0.009,-0.039 -0.024,-0.077 -0.024,-0.12 V 31.45 c 0,-0.173 0.09,-0.319 0.22,-0.414 -0.128,-0.082 -0.219,-0.22 -0.219,-0.383 v -0.34 h -1.254 c -0.449,0 -0.852,-0.285 -1.001,-0.709 l -3.842,-10.964 -0.361,0.051 c -0.258,0.037 -0.522,-0.037 -0.725,-0.201 l -1.659,-1.338 c -0.113,-0.092 -0.193,-0.213 -0.243,-0.342 -0.004,-0.004 -0.006,-0.009 -0.007,-0.014 -0.058,-0.157 -0.073,-0.329 -0.028,-0.497 l 0.451,-1.673 c 0,-10e-4 0.001,-0.002 0.001,-0.003 l 0.035,-0.173 c 0,-0.004 0.002,-0.007 0.003,-0.011 l 0.683,-1.303 0.135,-0.312 c 0.022,-0.052 0.057,-0.094 0.097,-0.131 l 0.025,-0.047 c 0.007,-0.014 0.021,-0.022 0.035,-0.022 0.002,0 0.003,10e-4 0.005,10e-4 10e-4,0 10e-4,-10e-4 10e-4,-10e-4 l 0.028,0.005 c 0.054,-0.026 0.111,-0.044 0.173,-0.044 h 0.35 c 0.023,0 0.044,0.006 0.063,0.016 0.005,-0.003 0.007,-0.01 0.014,-0.012 0.008,-0.003 0.017,-0.004 0.025,-0.004 0.033,0 0.063,0.02 0.075,0.054 l 0.165,0.486 c 0.027,0.098 0.015,0.2 -0.032,0.289 l -0.614,1.152 c -0.014,0.027 -0.042,0.037 -0.07,0.037 -0.039,0.069 -0.102,0.122 -0.183,0.143 l -0.178,0.588 0.588,0.462 0.815,0.64 1.898,-0.162 0.021,-0.203 c 0.025,-0.253 -0.089,-0.503 -0.297,-0.652 l -0.97,-0.689 c -0.151,-0.108 -0.33,-0.165 -0.517,-0.158 l -0.219,0.006 c -0.123,0.004 -0.226,-0.082 -0.252,-0.2 l -0.071,-0.339 c -0.014,-0.068 0.003,-0.139 0.044,-0.194 0.009,-0.012 0.022,-0.018 0.032,-0.028 10e-4,-0.003 -0.001,-0.005 10e-4,-0.008 l 0.497,-1.131 c 0.015,-0.028 0.035,-0.049 0.053,-0.073 l 0.047,-0.128 c 0.006,-0.015 0.019,-0.026 0.035,-0.027 l 0.09,-0.005 c 0.092,-0.054 0.198,-0.085 0.309,-0.085 h 0.429 c 0.018,0 0.034,0.006 0.048,0.017 l 2.006,1.535 c 0.064,0.052 0.114,0.114 0.157,0.182 l 0.104,0.08 c 0.002,0.001 10e-4,0.004 0.003,0.006 0.006,0.007 0.01,0.014 0.01,0.024 0,0.002 0.003,0.003 0.002,0.005 l -0.014,0.141 c 0.016,0.075 0.025,0.152 0.016,0.231 l -0.208,2.072 c -10e-4,0.011 -0.004,0.022 -0.01,0.032 l -0.697,1.243 3.038,7.849 h 0.869 c 0.054,-0.197 0.226,-0.345 0.44,-0.345 h 0.146 c 0.195,0 0.36,0.121 0.429,0.292 0.206,-0.342 0.576,-0.573 1.002,-0.573 h 0.99 v -1.275 h -0.321 c -0.328,0 -0.595,-0.125 -0.595,-0.28 v -5.171 c 0,-0.079 0.094,-0.146 0.228,-0.185 v -0.015 h 0.05 c 0.058,-0.013 0.123,-0.021 0.191,-0.021 H -6.54 V 15.14 h -0.134 c -0.263,0 -0.51,-0.101 -0.697,-0.284 C -7.377,14.851 -7.379,14.842 -7.385,14.835 -7.55,14.67 -7.656,14.432 -7.656,14.19 v -1.757 c 0,-0.122 0.014,-0.245 0.044,-0.363 0.013,-0.051 0.027,-0.113 0.043,-0.182 0.068,-0.286 0.138,-0.577 0.217,-0.854 -0.318,-0.127 -0.591,-0.346 -0.782,-0.64 l -2.643,-4.106 c -0.23,-0.355 -0.334,-0.784 -0.295,-1.207 l 0.033,-0.353 -1.503,-0.017 c -0.036,0 -0.059,-0.001 -0.078,-0.001 -0.002,0.001 0.003,0.008 -0.001,0.008 -10e-4,0 -0.209,-0.067 -0.211,-0.067 C -12.896,4.65 -12.978,4.5 -12.976,4.435 l -0.003,-1.896 c -0.029,-0.022 -0.05,-0.053 -0.049,-0.092 l 0.05,-2.271 c -0.005,-0.142 0.047,-0.276 0.145,-0.377 0.099,-0.102 0.231,-0.157 0.374,-0.157 h 3.099 c 0.063,0 0.114,0.048 0.118,0.111 h 2.714 c 10e-4,-0.027 0.012,-0.054 0.031,-0.074 0.023,-0.025 0.054,-0.037 0.087,-0.037 h 3.364 c 0.131,0 0.254,0.058 0.338,0.16 0.08,0.098 0.112,0.224 0.09,0.347 v 1.447 c 0,10e-4 -0.002,0.002 -0.002,0.004 0,0.004 0.002,0.008 10e-4,0.012 l -0.173,1.232 c 0.13,0.106 0.25,0.224 0.348,0.362 L 0.389,7.183 C 0.645,7.542 0.749,7.996 0.673,8.437 0.569,8.876 0.461,9.346 0.385,9.694 L 1.291,9.69 h 0.003 c 0.107,0 0.199,0.028 0.24,0.066 C 1.54,9.755 1.546,9.75 1.553,9.75 c 0.037,0 0.073,0.017 0.096,0.05 0.356,0.499 0.637,1.59 0.772,2.195 0.037,0.168 0.057,0.341 0.057,0.515 v 1.533 c 0,0.212 -0.092,0.516 -0.262,0.667 -0.001,10e-4 -0.002,0.003 -0.003,0.004 -0.021,0.017 -0.047,0.022 -0.072,0.024 0.035,0.055 0.052,0.12 0.036,0.184 -0.019,0.073 -0.073,0.133 -0.142,0.16 C 1.937,15.12 1.832,15.14 1.725,15.14 H 1.142 v 3.064 h 0.87 c 0.274,0 0.497,0.105 0.497,0.233 v 5.149 c 0,0.161 -0.277,0.291 -0.618,0.291 H 1.17 c -0.01,0 -0.017,-0.004 -0.027,-0.005 v 0.116 c 0.002,0.007 0.002,0.014 0.002,0.021 v 1.142 H 4.278 V 24.374 H 3.911 C 3.799,24.374 3.7,24.334 3.61,24.28 H 3.517 V 24.217 C 3.396,24.108 3.316,23.954 3.316,23.778 V 12.79 c 0,-0.259 0.21,-0.469 0.469,-0.469 H 4.581 V 10.465 H 4.104 c -0.107,0 -0.211,-0.02 -0.309,-0.058 C 3.738,10.386 3.698,10.34 3.672,10.285 3.489,10.12 3.368,9.869 3.368,9.614 V 7.855 C 3.368,7.733 3.383,7.611 3.413,7.493 3.425,7.441 3.44,7.38 3.456,7.311 3.523,7.024 3.594,6.733 3.673,6.457 3.354,6.33 3.081,6.111 2.89,5.816 L 0.248,1.712 C 0.018,1.356 -0.086,0.928 -0.047,0.504 L -0.014,0.151 -1.517,0.134 c -0.036,0 -0.059,0 -0.078,-0.001 -0.002,0.001 0.002,0.008 -0.001,0.008 -10e-4,0 -0.21,-0.066 -0.211,-0.066 -0.065,-0.002 -0.146,-0.152 -0.144,-0.218 l -0.003,-1.895 c -0.029,-0.023 -0.05,-0.053 -0.049,-0.092 l 0.049,-2.27 c -0.004,-0.142 0.048,-0.276 0.146,-0.377 0.099,-0.103 0.231,-0.159 0.373,-0.159 h 3.1 c 0.063,0 0.114,0.05 0.118,0.113 h 2.713 c 0.002,-0.029 0.013,-0.055 0.032,-0.075 0.023,-0.024 0.054,-0.038 0.086,-0.038 h 3.365 c 0.131,0 0.254,0.059 0.337,0.162 0.08,0.097 0.113,0.223 0.091,0.347 v 1.446 c 0,0.002 -0.002,0.002 -0.002,0.003 -10e-4,0.004 0.001,0.009 0,0.013 l -0.172,1.232 c 0.13,0.106 0.25,0.225 0.348,0.362 l 2.832,3.977 c 0.256,0.359 0.36,0.814 0.285,1.254 -0.104,0.44 -0.212,0.909 -0.288,1.258 l 0.906,-0.005 h 0.003 c 0.107,0 0.199,0.028 0.24,0.066 0.006,-0.001 0.012,-0.006 0.018,-0.006 0.037,0 0.073,0.017 0.097,0.05 0.356,0.5 0.637,1.589 0.772,2.195 0.037,0.168 0.056,0.342 0.056,0.515 v 1.533 c 0,0.213 -0.093,0.521 -0.265,0.671 -0.002,0.002 -0.005,10e-4 -0.008,0.003 -0.009,0.013 -0.015,0.03 -0.028,0.043 -0.186,0.181 -0.433,0.282 -0.696,0.282 h -0.242 v 1.854 h 0.824 c 0.274,0 0.498,0.223 0.498,0.497 v 10.941 c 0,0.341 -0.277,0.618 -0.618,0.618 h -0.699 v 0.776 h 1.412 c 0.416,0 0.779,0.22 0.988,0.548 0.074,-0.157 0.231,-0.267 0.417,-0.267 h 0.145 c 0.256,0 0.464,0.207 0.464,0.463 v 0.206 h 0.989 c 0.421,0 0.797,0.273 0.937,0.679 l 3.598,10.493 0.34,-0.049 c 0.241,-0.036 0.489,0.034 0.678,0.191 l 1.554,1.281 c 0.106,0.088 0.181,0.203 0.229,0.328 0.002,0.004 0.003,0.008 0.005,0.013 z"
             style="fill:none;stroke:#1b8ea9;stroke-width:0.25;stroke-linecap:butt;stroke-linejoin:miter;stroke-miterlimit:10;stroke-dasharray:none;stroke-opacity:1"
             id="path178" /></g></g></g></g></svg>
