<?xml version="1.0" encoding="UTF-8"?>
<svg width="76" height="66" version="1.1" viewBox="0 0 76 66" xml:space="preserve" xmlns="http://www.w3.org/2000/svg">
<style type="text/css">
	.st0{fill:#36ABC8;}
	.st1{fill:#1D1D1B;}
	.st2{fill:#E20613;}
	.st3{fill:#BD1622;}
	.st4{fill:#FFFFFF;}
	.st5{fill:#931820;}
	.st6{fill:none;stroke:#1D1D1B;stroke-miterlimit:10;}
	.st7{fill:#F2F2F1;stroke:#000000;stroke-width:0.5;stroke-linecap:round;stroke-miterlimit:10;}
	.st8{fill:#CECDCE;}
	.st9{fill:#838383;}
	.st10{fill:#353435;}
</style>
<g transform="matrix(.5419 0 0 .5419 15.943 14.425)">
			<path class="st0" d="m67.3 58.4h-53.2c-2.3 0-4.2-1.9-4.3-4.2l-0.8-34c0-2 1.6-3.6 3.6-3.6h56.5c1.9 0 3.4 1.5 3.4 3.4l-1 34.2c0 2.4-1.9 4.2-4.2 4.2z"/>
		<path d="m33.9 45.6c0.9 0 1.9 0 2.8-0.2 1.6-0.2 3.2-0.5 4.7-1 1.4-0.4 2.8-1 4-1.7-0.1 0.1-5.6 4.7 0.3-0.1 0 0-0.2 0.2-0.1 0.2-0.8 0.6-0.9 0.3-1.8 0.8 0.1 0.2 0.1 0.3 0.2 0.4 0.4 0.9 0.9 1.7 1.1 2.7 0.3 0.9 0.3 1.6 0.3 2.5 0.1 0.8 0.1 1.5-0.1 2.2-0.3 1.4-0.8 2.7-1.7 3.8-0.3 0.5-0.9 0.9-1.4 1.2-0.9 0.5-1.7 0.6-2.7 0.3-0.9-0.2-1.7-0.3-2.6-0.8-0.7-0.3-1.4-0.7-1.8-1.3-0.3-0.4-0.5-0.9-0.7-1.3-0.3-1-0.3-2 0.1-3 0.4-1.3 0.9-2.6 1.5-3.8 0.2-0.3 0.4-0.8 0.6-1.2-0.3 0-0.7 0.1-1 0.1-0.4 0.1-1 0.1-1.7 0.2 0.1 0 0.1 0 0 0zm1.4 8.9c0.1-0.2 0.2-0.3 0.3-0.4 0.2-0.3 0.5-0.4 0.9-0.4h1.2c1.1 0.1 2.2 0.2 3.3 0.4 0.5 0.1 1 0.2 1.5 0.4 0.5 0.3 0.9 0.5 1 1.1 0.1-0.1 0.1-0.1 0.1-0.2 0.3-0.3 0.6-0.8 0.8-1.1 0.4-0.7 0.7-1.5 0.9-2.2v-0.2c-0.2-0.5-0.4-0.9-0.7-1.4-0.8-0.9-1.9-1.4-3.1-1.1-0.9 0.3-1.6 0.8-2.1 1.5l-0.1 0.1c0.3-0.5 0.7-0.9 1.2-1.2-0.6-0.4-1.3-0.7-2.1-0.7-1.5 0.1-2.7 0.9-3.5 2-0.1 0.2-0.2 0.3-0.2 0.5v0.7c-0.2 0.8 0.2 1.5 0.6 2.2zm-0.7-3.4s0.1 0 0 0c0.9-0.9 1.5-1.4 2.3-1.7 1.2-0.4 2.4-0.3 3.5 0.4 0.1-0.1 0.3-0.2 0.3-0.2 1.2-0.5 2.3-0.5 3.4 0.3 0.5 0.4 0.9 1 1.1 1.7 0 0.1 0 0.1 0.1 0.2 0.5-1.4 0.1-5-0.3-5.8h-0.1c-2.8 0.9-5.5 1-8.3 0.5-0.2 0-0.2 0-0.3 0.1-0.5 1.1-1 2.2-1.4 3.4-0.1 0.5-0.2 0.8-0.3 1.1zm5.5 2.9h-0.3c-1-0.2-2.1-0.3-3.2-0.3-0.2 0-0.4 0-0.6 0.1-0.3 0.1-0.5 0.4-0.7 0.7-0.1 0.1-0.1 0.2 0 0.3 0.7 0.8 1.5 1.2 2.4 1.5 0.6 0.2 1.1 0.3 1.7 0.5s1.2 0.2 1.8 0.1c0.8-0.2 1.4-0.5 2-1.1l0.1-0.1c0-0.3-0.1-0.4-0.3-0.6-0.3-0.3-0.7-0.5-1.1-0.7-0.6-0.2-1.2-0.3-1.8-0.4zm4.9-7.9c-0.3-0.9-0.7-1.6-1.1-2.4-0.2 0.1-0.3 0.2-0.5 0.3-0.9 0.4-2 0.8-3 1-1 0.3-2.1 0.5-3.1 0.6-0.1 0-0.2 0.1-0.3 0.2-0.1 0.3-0.3 0.4-0.3 0.6-0.1 0.1-0.1 0.2-0.2 0.3 2.8 0.4 5.7 0.3 8.5-0.6z"/>
		<path class="st1" d="m40.7 57.3c-0.3 0-0.7 0-1-0.1h-0.1c-0.9-0.2-1.7-0.3-2.6-0.8-0.7-0.3-1.4-0.7-2-1.4-0.3-0.4-0.5-0.9-0.8-1.5-0.3-0.9-0.3-2.1 0.1-3.3 0.5-1.5 1-2.8 1.5-3.8l0.3-0.6h-0.3-1.5-0.3-0.2l-0.3-0.1 0.1-0.7h0.3c1.1 0 2 0 2.8-0.1 1.7-0.2 3.2-0.5 4.6-1 1.5-0.5 2.8-1 4-1.7l0.9-0.6-0.3 0.5v0.1h0.6l-0.6 0.8c-0.2 0.2-0.3 0.3-0.4 0.3-0.3 0.3-0.6 0.5-0.9 0.7 0.3 0.8 0.8 1.5 1 2.4 0.3 0.8 0.3 1.6 0.3 2.4v0.2c0.1 0.8 0.1 1.5-0.1 2.4-0.3 1.3-0.8 2.7-1.7 4-0.4 0.5-0.9 0.9-1.5 1.3-0.5 0.4-1.2 0.6-1.9 0.6zm-5-2.7c0.5 0.6 1.2 1 2.2 1.4 0.3 0.2 0.8 0.3 1.2 0.3 0.2 0.1 0.3 0.1 0.5 0.2 0.4 0.2 1 0.2 1.6 0.1s1.1-0.4 1.7-0.9c0-0.1-0.1-0.2-0.1-0.3-0.3-0.3-0.6-0.4-0.9-0.5-0.4-0.1-0.9-0.2-1.3-0.3h-0.2l-0.5-0.1c-1.2-0.2-2.1-0.3-3.1-0.3-0.2 0-0.3 0-0.5 0.1-0.3-0.1-0.4 0.1-0.6 0.3zm1.2-1.3h0.7c1 0.1 2.2 0.2 3.4 0.4h0.2c0.5 0.1 1 0.2 1.5 0.4 0.3 0.2 0.7 0.3 0.9 0.8 0.2-0.3 0.3-0.5 0.5-0.7 0.3-0.6 0.6-1.2 0.8-1.9l0.1-0.3c-0.2-0.5-0.3-0.9-0.7-1.3-0.7-0.9-1.6-1.2-2.7-0.9-0.8 0.2-1.5 0.7-2 1.4 0 0 0 0.1-0.1 0.1l-0.3 0.3-0.6-0.5 0.2-0.3c0.3-0.3 0.5-0.7 0.9-1-0.4-0.3-0.9-0.3-1.5-0.3-1.3 0.1-2.3 0.7-3.3 1.8v0.3 0.2 0.4c0 0.5 0.2 1 0.4 1.5 0.3-0.3 0.7-0.5 1.1-0.5h0.1c0.2 0 0.2 0 0.4 0.1-0.2 0-0.1 0 0 0zm8-1.2zm0-0.1zm-2.6-3c0.8 0 1.5 0.3 2.1 0.8 0.3 0.3 0.6 0.6 0.9 1 0.1-1.4-0.2-3.4-0.4-4.1-2.6 0.8-5.3 0.9-8.2 0.4-0.4 0.9-0.9 1.8-1.2 2.8 0.4-0.3 0.9-0.6 1.4-0.8 1.3-0.5 2.6-0.4 3.7 0.3 0.1 0 0.1-0.1 0.2-0.1 0.4-0.2 0.9-0.3 1.5-0.3zm-5.3-2.7c2.7 0.4 5.1 0.3 7.5-0.4l-0.5-1.2c-0.2 0.2-0.3 0.3-0.4 0.3-0.2 0.1-0.4 0.3-0.7 0.1-0.2-0.3-0.1-0.4 0.3-0.7-0.8 0.3-1.6 0.6-2.7 0.9s-2.1 0.5-3.2 0.6c-0.1 0.1-0.2 0.2-0.3 0.4v0z"/>
		<path class="st2" d="m35.3 54.5c-0.4-0.7-0.8-1.4-0.8-2.1v-0.7c0-0.2 0.1-0.3 0.2-0.5 0.9-1.1 2.1-1.9 3.5-2 0.8-0.1 1.5 0.2 2.1 0.7-0.5 0.3-0.9 0.7-1.2 1.2l0.1-0.1c0.5-0.8 1.2-1.3 2.1-1.5 1.2-0.3 2.3 0.1 3.1 1.1 0.3 0.4 0.5 0.9 0.7 1.4v0.2c-0.3 0.8-0.5 1.5-0.9 2.2-0.3 0.4-0.5 0.8-0.8 1.1 0 0.1-0.1 0.1-0.1 0.2-0.1-0.6-0.5-0.9-1-1.1-0.5-0.3-1-0.3-1.5-0.4-1.1-0.2-2.2-0.3-3.3-0.4h-1.2c-0.3 0-0.7 0.2-0.9 0.4 0.1 0 0 0.2-0.1 0.3z"/>
		<path class="st1" d="m43.1 56.5-0.1-0.8c0-0.4-0.3-0.6-0.8-0.9-0.4-0.2-0.9-0.3-1.3-0.3h-0.2c-1.1-0.2-2.2-0.3-3.3-0.4h-0.9-0.3c-0.3 0-0.4 0.1-0.6 0.3-0.1 0.1-0.1 0.2-0.2 0.3 0 0.1-0.1 0.1-0.1 0.2l-0.3 0.5-0.1-0.7c-0.5-0.8-0.8-1.5-0.8-2.4v-0.5-0.2c0-0.3 0.1-0.5 0.3-0.7 1-1.3 2.3-2 3.8-2.1 0.8-0.1 1.5 0.2 2.2 0.7 0.3-0.2 0.6-0.3 0.9-0.3 1.4-0.3 2.7 0.1 3.4 1.2 0.3 0.4 0.6 0.9 0.8 1.5 0 0.1 0.1 0.3 0 0.4v0.2c-0.3 0.7-0.4 1.4-0.9 2.1l-0.6 0.9-0.3 0.3c0 0.1-0.1 0.1-0.1 0.2zm-6.2-3.2h0.7c1 0.1 2.2 0.2 3.4 0.4h0.2c0.5 0.1 1 0.2 1.5 0.4 0.3 0.2 0.7 0.3 0.9 0.8 0.2-0.3 0.3-0.5 0.5-0.7 0.3-0.6 0.6-1.2 0.8-1.9l0.1-0.3c-0.2-0.5-0.3-0.9-0.7-1.3-0.7-0.9-1.6-1.2-2.7-0.9-0.8 0.2-1.5 0.7-2 1.4 0 0 0 0.1-0.1 0.1l-0.3 0.3-0.6-0.5 0.2-0.3c0.3-0.3 0.5-0.7 0.9-1-0.4-0.3-0.9-0.3-1.5-0.3-1.3 0.1-2.3 0.7-3.3 1.8v0.3 0.2 0.4c0 0.5 0.2 1 0.4 1.5 0.3-0.3 0.7-0.5 1.1-0.5h0.1c0.2 0 0.2 0 0.4 0.1-0.2 0-0.1 0 0 0zm8-1.2zm0-0.1z"/>
		<path class="st3" d="m34.6 51.1 0.3-0.9c0.4-1.1 0.9-2.3 1.4-3.4 0.1-0.1 0.1-0.2 0.3-0.1 2.8 0.5 5.6 0.3 8.3-0.5 0.4 0.9 0.9 4.4 0.3 5.8 0-0.1-0.1-0.1-0.1-0.2-0.3-0.7-0.6-1.3-1.1-1.7-1-0.9-2.1-0.9-3.4-0.3-0.1 0.1-0.3 0.1-0.3 0.2-1.1-0.8-2.2-0.9-3.5-0.4-0.7 0.2-1.3 0.6-2.2 1.5 0.1 0 0 0 0 0z"/>
		<path class="st1" d="m45.3 52.2-0.1-0.3s0-0.1-0.1-0.1c-0.3-0.8-0.6-1.3-1.1-1.7-0.9-0.8-2-0.9-3.3-0.3-0.1 0-0.2 0.1-0.3 0.1 0 0-0.1 0-0.1 0.1h-0.2c-1-0.8-2.1-0.9-3.4-0.4-0.9 0.3-1.5 0.8-2.2 1.7v0.1l-0.1-0.1v-0.1l0.1-0.3c0.1-0.2 0.2-0.4 0.2-0.6 0.4-1.3 0.9-2.3 1.4-3.4 0.1-0.2 0.2-0.2 0.3-0.2 2.9 0.3 5.8 0.2 8.3-0.7h0.1 0.1v0.1c0.5 0.9 0.9 4.5 0.3 5.8zm-3-3c0.7 0 1.3 0.3 1.9 0.7 0.5 0.4 0.9 0.9 1.1 1.7 0.3-1.5 0-4.6-0.4-5.4-2.7 0.9-5.5 1-8.3 0.5-0.1 0-0.1 0-0.2 0.1-0.5 1-0.9 2.1-1.4 3.4-0.1 0.2-0.2 0.4-0.2 0.6 0.7-0.8 1.3-1.2 2.1-1.5 1.3-0.5 2.5-0.3 3.5 0.4h0.1c0.1-0.1 0.2-0.1 0.3-0.1 0.5-0.3 0.9-0.4 1.5-0.4z"/>
		<path class="st4" d="m40.1 54c0.6 0.2 1.3 0.3 1.9 0.4 0.4 0.1 0.9 0.3 1.1 0.7 0.2 0.2 0.3 0.3 0.3 0.6 0 0 0 0.1-0.1 0.1-0.5 0.5-1.2 0.9-2 1.1-0.6 0.1-1.1 0-1.7-0.1-0.6-0.2-1.2-0.3-1.7-0.5-0.9-0.3-1.8-0.8-2.4-1.5-0.1-0.1-0.1-0.2 0-0.3 0.2-0.3 0.3-0.6 0.7-0.7 0.2-0.1 0.4-0.1 0.6-0.1 1 0 2.1 0.1 3.2 0.2-0.1 0.1 0 0.1 0.1 0.1z"/>
		<path class="st1" d="m40.8 57.1c-0.4 0-0.9-0.1-1.3-0.2-0.3-0.1-0.4-0.1-0.7-0.2s-0.7-0.2-1-0.3c-1.1-0.4-1.9-0.9-2.5-1.6-0.1-0.1-0.2-0.3 0-0.4l0.1-0.1c0.2-0.3 0.3-0.5 0.7-0.7 0.2-0.1 0.4-0.1 0.7-0.1 1.1 0 2.2 0.1 3.2 0.2h0.1l0.3 0.1c0.1 0 0.3 0.1 0.3 0.1 0.4 0.1 0.9 0.2 1.3 0.3 0.5 0.1 0.9 0.3 1.2 0.7 0.2 0.2 0.3 0.4 0.3 0.8 0 0.1-0.1 0.2-0.1 0.3-0.7 0.6-1.3 1-2.1 1.1h-0.5zm-1.2-0.6c0.7 0.1 1.1 0.2 1.7 0.1 0.7-0.1 1.3-0.4 1.9-1 0-0.2-0.1-0.3-0.2-0.4-0.3-0.3-0.6-0.5-1-0.6s-0.9-0.2-1.3-0.3c-0.2 0-0.3-0.1-0.4-0.1l-0.3-0.1h-0.2c-0.9-0.2-2-0.2-3.2-0.2-0.2 0-0.4 0-0.6 0.1-0.3 0.1-0.3 0.3-0.5 0.5l-0.1 0.1c0.5 0.7 1.3 1.1 2.4 1.5 0.3 0.1 0.7 0.2 1 0.3 0.4 0.1 0.5 0.1 0.8 0.1zm3.6-0.9z"/>
		<path class="st4" d="m44.9 46.5c-2.8 0.9-5.7 1-8.5 0.5 0.1-0.1 0.1-0.2 0.2-0.3 0.1-0.2 0.3-0.4 0.3-0.6 0.1-0.1 0.1-0.2 0.3-0.2 1-0.1 2.1-0.3 3.1-0.6s2.1-0.6 3-1c0.2-0.1 0.3-0.2 0.5-0.3 0.4 0.9 0.8 1.6 1.1 2.5z"/>
		<path class="st1" d="m39.8 47.3c-1.1 0-2.2-0.1-3.4-0.3h-0.1l0.1-0.2c0-0.1 0.1-0.2 0.1-0.2 0-0.1 0.1-0.2 0.1-0.2 0.1-0.2 0.2-0.3 0.3-0.4 0.1-0.2 0.2-0.2 0.3-0.2 1-0.1 2.1-0.3 3.1-0.6 1.2-0.3 2.1-0.6 3-1 0.1-0.1 0.3-0.1 0.3-0.2l0.3-0.1 1.1 2.6h-0.1c-1.6 0.6-3.3 0.8-5.1 0.8zm-3.2-0.4c2.9 0.5 5.7 0.3 8.3-0.5l-1-2.2-0.1 0.1c-0.1 0.1-0.3 0.1-0.3 0.2-0.9 0.4-1.8 0.7-3 1-1.1 0.3-2.1 0.5-3.2 0.6-0.1 0-0.1 0-0.2 0.1-0.1 0.2-0.2 0.3-0.3 0.4 0 0.1-0.1 0.2-0.1 0.2-0.1-0.1-0.1 0-0.1 0.1z"/>
		<polygon class="st5" points="40.5 49.8 38.3 49.1 39 48.5 39.6 48.2 40.1 48.1 40.2 48.1 40.4 48.1 40.7 48.1 41 48.2 41.2 48.2 41.7 48.4 42.4 48.7 42.9 49.1 42.9 49.4 42.3 49.3 41.5 49.4"/>
		<path class="st1" d="m40.5 49.8-2.3-0.7 0.8-0.7 0.6-0.3 0.5-0.1h0.9l0.3 0.1 0.5 0.2 0.7 0.3 0.5 0.4 0.1 0.4-0.8 0.1-0.9 0.1zm-2-0.7 2 0.6 0.9-0.3 0.9-0.1 0.5 0.1v-0.2l-0.4-0.4-0.7-0.3-0.5-0.2-0.3-0.2h-0.9l-0.5 0.1-0.6 0.3z"/>
		<path class="st2" d="m35.3 54.5c-0.4-0.7-0.7-1.4-0.7-2.1v-0.7c0-0.2 0.1-0.3 0.2-0.5 0.9-1.1 2.1-1.9 3.5-2 0.8-0.1 1.5 0.2 2.1 0.7-0.5 0.3-0.9 0.7-1.2 1.2l0.1-0.1c0.5-0.8 1.2-1.3 2.1-1.5 1.2-0.3 2.3 0.1 3.1 1.1 0.3 0.4 0.5 0.9 0.7 1.4v0.2c-0.3 0.8-0.5 1.5-0.9 2.2-0.3 0.4-0.5 0.8-0.8 1.1 0 0.1-0.1 0.1-0.1 0.2-0.1-0.6-0.5-0.9-1-1.1-0.5-0.3-1-0.3-1.5-0.4-1.1-0.2-2.2-0.3-3.3-0.4h-1.2c-0.3 0-0.7 0.2-0.9 0.4 0 0-0.1 0.2-0.2 0.3z"/>
		<path class="st1" d="m43.4 55.9v-0.2c-0.1-0.6-0.5-0.9-0.9-1.1-0.4-0.3-0.9-0.3-1.4-0.4h-0.2c-1.1-0.2-2.2-0.3-3.3-0.4h-0.9-0.3c-0.3 0-0.6 0.2-0.8 0.4-0.1 0.1-0.1 0.2-0.2 0.3 0 0.1-0.1 0.1-0.1 0.2l-0.1 0.1-0.1-0.1c-0.4-0.8-0.7-1.5-0.8-2.2v-0.5-0.2c0-0.2 0.1-0.4 0.2-0.6 1-1.3 2.1-1.9 3.6-2 0.8-0.1 1.5 0.2 2.1 0.7 0.3-0.2 0.7-0.3 1-0.4 1.2-0.3 2.4 0.1 3.2 1.1 0.3 0.4 0.5 0.9 0.7 1.4v0.3l-0.1 0.3c-0.3 0.7-0.4 1.4-0.9 2-0.2 0.3-0.3 0.5-0.6 0.8l-0.3 0.3 0.2-0.2-0.1 0.1zm-6.5-2.4h0.7c1 0.1 2.1 0.2 3.4 0.4h0.2c0.5 0.1 0.9 0.2 1.5 0.4 0.4 0.3 0.9 0.5 1 1l0.3-0.3c0.2-0.3 0.4-0.5 0.6-0.8 0.3-0.6 0.6-1.3 0.9-2l0.1-0.3v-0.1c-0.2-0.5-0.4-0.9-0.7-1.4-0.7-0.9-1.8-1.4-3-1-0.9 0.2-1.5 0.7-2.1 1.5l-0.2 0.2-0.2-0.2v-0.1c0.3-0.4 0.6-0.9 1.1-1.1-0.6-0.4-1.3-0.6-2-0.6-1.4 0.1-2.5 0.7-3.4 1.9-0.2 0.3-0.2 0.4-0.2 0.6v0.2 0.5c0 0.7 0.3 1.3 0.6 2.1 0.1-0.1 0.1-0.2 0.2-0.3 0.3-0.3 0.6-0.5 0.9-0.5 0.1-0.1 0.2-0.1 0.3-0.1-0.1 0 0 0 0 0z"/>
			<path class="st6" d="m32.4 32.5"/>
			<path class="st7" d="m14.3 27.5-10-5.2 19-11.8 1.5 2.5-14.7 9.2 5.6 2.9c1.1-1.7 2.5-3 4.2-4.1 6.4-3.9 14.8-2 18.7 4.4s2 14.8-4.4 18.7-14.8 2-18.7-4.4c-2.4-3.9-2.6-8.3-1.2-12.2"/>
			<polygon class="st1" points="7.3 23.9 4.3 22.3 23.4 10.5 24.9 12.9"/>
			<circle class="st8" cx="54.2" cy="32.5" r="3.4"/>
			<circle class="st9" cx="54.2" cy="32.5" r="2"/>
			<circle class="st10" cx="54.2" cy="32.6" r=".8"/>
			<circle class="st8" cx="27" cy="32.5" r="3.4"/>
			<circle class="st9" cx="27" cy="32.5" r="2"/>
			<circle class="st10" cx="27" cy="32.6" r=".8"/>
	<path class="st6" d="m32.4 32.5"/>
	<circle class="st8" cx="54.2" cy="32.5" r="3.4"/>
	<circle class="st9" cx="54.2" cy="32.5" r="2"/>
	<circle class="st10" cx="54.2" cy="32.6" r=".8"/>
	<circle class="st9" cx="27" cy="32.5" r="2"/>
	<circle class="st10" cx="27" cy="32.6" r=".8"/>
	<circle class="st1" cx="27" cy="32.5" r="3.4"/>
			<path class="st7" d="m66.9 27.5c1.5 3.8 1.2 8.3-1.2 12.1-3.9 6.4-12.4 8.3-18.7 4.4s-8.3-12.4-4.4-18.7 12.4-8.3 18.7-4.4c1.8 1.1 3.1 2.5 4.2 4.1l5.6-2.9-14.8-9.2 1.7-2.4 19.1 11.8-10.2 5.2"/>
			<polygon class="st1" points="77 22.4 73.9 23.9 56.4 13 57.9 10.5"/>
	<circle class="st1" cx="54.2" cy="32.5" r="3.4"/>
</g>
</svg>
