<svg id="Layer_1" data-name="Layer 1" xmlns="http://www.w3.org/2000/svg" viewBox="0 0 43.59 49.85"><defs><style>.cls-1{fill:#fff;stroke:#1b8ea9;stroke-miterlimit:10;stroke-width:0.25px;}</style></defs><path class="cls-1" d="M58.86,34.93l-1.64-1.32a.92.92,0,0,0-.71-.2l-.36.05-3.8-10.83a1,1,0,0,0-1-.7H50.12v-.34a.46.46,0,0,0-.2-.38.49.49,0,0,0,.21-.41V14.66a.52.52,0,0,0-.52-.51h0a.57.57,0,0,0-.29.08V12.35a1.17,1.17,0,0,0-1.16-1.16h-.32l.08-.09h0s0,0,.06-.06l.61-.81h0l0-.06c0-.05,0-.08,0-.11s0,0,0,0L40,9.11a.16.16,0,0,0-.09,0,.12.12,0,0,0,0,.08l-.08.68v0a.12.12,0,0,0,.11.11l6.65.74-.38.41H28.57l-.35-.43L34.65,10a.12.12,0,0,0,.08,0,.16.16,0,0,0,0-.09l-.08-.68a.12.12,0,0,0,0-.08.15.15,0,0,0-.09,0L25.93,10s0,0,0,0,0,0,0,0,0,0,0,0a.09.09,0,0,0,0,.08l.86,1a1.16,1.16,0,0,0-1,1.15v1.9a.58.58,0,0,0-.32-.1h0a.51.51,0,0,0-.51.51V20.8a.51.51,0,0,0,.2.41.46.46,0,0,0-.2.38v.34H23.62a1.06,1.06,0,0,0-1,.7l-3.8,10.83-.35-.05a.93.93,0,0,0-.72.2l-1.64,1.32a.8.8,0,0,0-.27.84l.44,1.66h0l0,.17h0L17,38.9l.13.31a.45.45,0,0,0,.1.14l0,0,0,0h0a.39.39,0,0,0,.18,0H18a.08.08,0,0,0,.07,0l.16-.48a.37.37,0,0,0,0-.29l-.61-1.13a.06.06,0,0,0-.06,0,.3.3,0,0,0-.19-.14l-.17-.58.43-.34.95-.75,1.88.16,0,.2a.69.69,0,0,1-.29.64l-1,.68a.79.79,0,0,1-.51.16h-.22a.25.25,0,0,0-.25.19L18.1,38a.27.27,0,0,0,0,.19l0,0h0l.49,1.11.06.09,0,.11a0,0,0,0,0,0,0h.09a.56.56,0,0,0,.31.09h.42l.05,0,2-1.52a.55.55,0,0,0,.16-.18l.1-.08h0v0h0v-.13a1,1,0,0,0,0-.24l-.21-2a0,0,0,0,0,0,0L21,34.16l3-7.75h.85a.47.47,0,0,0,.45.34h.14a.45.45,0,0,0,.42-.28,1.19,1.19,0,0,0,1,.56h.88v.77H27.4a.61.61,0,0,0-.35.11H27V28a.58.58,0,0,0-.15.38V39.24a.47.47,0,0,0,.46.47h.79v1.84h-.13a1,1,0,0,0-.69.28l0,0a1,1,0,0,0-.26.67v1.51a2.22,2.22,0,0,0,.06.51,8.68,8.68,0,0,0,.66,2l-.16.14A1.62,1.62,0,0,0,27,47.88l0,4.82a2,2,0,0,0,.24.89h-.77a.53.53,0,0,0-.53.47l-.37,2.61h0a.43.43,0,0,0,0,.16v1.29a.44.44,0,0,0,.09.35.42.42,0,0,0,.33.16h3.33a.12.12,0,0,0,.08,0,.11.11,0,0,0,0-.07h2.68a.13.13,0,0,0,.12.11h3.06a.51.51,0,0,0,.37-.16.51.51,0,0,0,.15-.37l0-2.25a.11.11,0,0,0,0-.07L36,53.7v0a1.91,1.91,0,0,0,.21-.81L36.27,48a1.67,1.67,0,0,0-.33-1c.45-.2.72-1.29.94-2.33,0-.07,0-.13,0-.18a2.2,2.2,0,0,0,0-.36V42.39a1,1,0,0,0-.36-.75.15.15,0,0,0-.07,0,.77.77,0,0,0-.3-.06h-.58V39.71h.82a.49.49,0,0,0,.49-.49V28.4a.62.62,0,0,0-.61-.61h-.69V27h3.18v.77h-.36a.56.56,0,0,0-.31.09h-.08v.05a.61.61,0,0,0-.2.44V39.24a.47.47,0,0,0,.47.47h.78v1.84h-.56a.77.77,0,0,0-.3.06l-.08,0a.91.91,0,0,0-.34.73v1.73a1.47,1.47,0,0,0,0,.36q0,.08,0,.18c.23,1.05.5,2.17,1,2.34a1.65,1.65,0,0,0-.31,1l0,4.82a1.94,1.94,0,0,0,.25.91.11.11,0,0,0,0,.09l0,2.08a.1.1,0,0,0,0,.07l0,2.25a.47.47,0,0,0,.14.37.52.52,0,0,0,.37.16H42.5a.13.13,0,0,0,.12-.11H45.3a.11.11,0,0,0,0,.07.13.13,0,0,0,.09,0h3.32a.42.42,0,0,0,.33-.16.44.44,0,0,0,.09-.35V56.92a.38.38,0,0,0,0-.15l-.36-2.61a.53.53,0,0,0-.54-.48h-.7a2.15,2.15,0,0,0,.17-.74l.11-4.83a1.64,1.64,0,0,0-.46-1.18l-.29-.27a7.57,7.57,0,0,0,.72-2.1,2.22,2.22,0,0,0,.06-.51V42.54a1,1,0,0,0-.26-.67l0,0a1,1,0,0,0-.69-.28h-.15V39.71h.82a.49.49,0,0,0,.49-.49V28.4a.61.61,0,0,0-.61-.61h-.69V27h1.39a1.18,1.18,0,0,0,1-.54.46.46,0,0,0,.41.26h.15a.45.45,0,0,0,.44-.34h.82l3,7.77-.7,1.25h0L53,37.85s0,0,0,0l2.27,1.74h0l0,0h.43a.54.54,0,0,0,.28-.08h0s0,0,0,0v0a.77.77,0,0,0,.17-.19l.48-1.11h0l0,0a.27.27,0,0,0,0-.19l-.07-.34a.25.25,0,0,0-.25-.19h-.22a.79.79,0,0,1-.51-.16l-.95-.68a.7.7,0,0,1-.3-.64l0-.2,1.53-.13.28,0,1.39,1.09-.18.6a.2.2,0,0,0-.11.11.07.07,0,0,0-.07,0l-.54,1-.1.14a0,0,0,0,0,0,0v0a.34.34,0,0,0,0,.2l.16.48a.1.1,0,0,0,.08,0h.44a.33.33,0,0,0,.15,0h.06a0,0,0,0,0,0,0l0,0a.33.33,0,0,0,.1-.14L58,38.9l.67-1.29h0l0-.17h0l.45-1.66A.82.82,0,0,0,58.86,34.93Zm-17,18.75L42,46.9l2.38,0h0l.05,6.77Zm-9-6.68,0,6.59H30.29L30.43,47h0ZM16.53,37.82l0,0,.05.12Zm40.08.48ZM58.38,38l0-.12,0,0Z" transform="translate(-15.69 -8.99)"/></svg>