<svg id="Layer_1" data-name="Layer 1" xmlns="http://www.w3.org/2000/svg" viewBox="0 0 160.22 142.24"><defs><style>.cls-1{fill:#fff;}</style></defs><path class="cls-1" d="M109.41,102a23.45,23.45,0,0,0,2.81,3.88c2.52,2.36,2.37,3.9-.79,5.27a10.81,10.81,0,0,1-1.29.42c-4.76,1.45-5.91.5-5.4-4.48-6.3,3.36-8.27,8-5.94,15,1.61,4.84,3.89,9.46,5.56,14.29,3.35,9.72,1,17.4-8.12,24.12.12-1-.17-2.51.42-3.07,7.86-7.48,7.31-15.88,3-24.82-1-2.17-1.91-4.42-2.78-6.66-4.08-10.63-2.62-15.46,7.09-22.7a21.61,21.61,0,0,0-2.93-.85A27.08,27.08,0,0,1,85.6,94.61c-9.35-9.31-15.2-20.33-13.75-33.9a24.73,24.73,0,0,1,20.82-22c11.67-1.84,22.47,3.62,27.58,14.37C126.43,66.13,127.52,89.46,109.41,102ZM77.06,64.52A38,38,0,0,1,96.22,43.77C84.12,44.64,76.58,52.84,77.06,64.52Z" transform="translate(-16.11 -18.26)"/><path class="cls-1" d="M141,122.68c-3.34,3.09-6.32,6-9.5,8.69a3.4,3.4,0,0,1-3.11.1c-3-1.71-5.72-3.72-9.14-6l12.26-11.16Z" transform="translate(-16.11 -18.26)"/><path class="cls-1" d="M158.06,79.3c-5.29,7-11.31,7.31-17.78,3.32l10.52-10Z" transform="translate(-16.11 -18.26)"/><path class="cls-1" d="M176,114.79c-.5,3.82-.91,7-1.38,10.64l-13.11-3.09c.28-2.61.55-5,.82-7.55Z" transform="translate(-16.11 -18.26)"/><path class="cls-1" d="M150.26,18.26c6.9,9.28,5.52,25.11-2.76,31.88-7.94,6.48-12.78,14.22-13.15,24.58a12.6,12.6,0,0,1-1,2.58,13.78,13.78,0,0,1-.7-3.06c.66-8.35,2.72-16.51,9.76-21.52,11.31-8,12.13-18.45,8.73-30.39C150.77,21,150.55,19.62,150.26,18.26Z" transform="translate(-16.11 -18.26)"/><path class="cls-1" d="M49.83,50.33l-1.07,9.89-9.42-1.14,1.47-11.51Z" transform="translate(-16.11 -18.26)"/><path class="cls-1" d="M173,45.48l-8.38,6.88-6.06-4.6,7-8.64Z" transform="translate(-16.11 -18.26)"/><path class="cls-1" d="M79.27,121.72c-4-18.08-13.39-32.55-29.1-42.69C62,80.61,81.69,109.47,79.27,121.72Z" transform="translate(-16.11 -18.26)"/><path class="cls-1" d="M47.33,96.56c6.37-3.19,12.11-3.77,17.29,2.55C58.48,99.83,52.33,104.22,47.33,96.56Z" transform="translate(-16.11 -18.26)"/><path class="cls-1" d="M72.72,119.37c-13.36-8.39-28.07-12.22-44.29-13C35.77,102.16,64.91,110.75,72.72,119.37Z" transform="translate(-16.11 -18.26)"/><path class="cls-1" d="M51.81,135.26,59,138.33l-2.37,7-9.71-2.22Z" transform="translate(-16.11 -18.26)"/><path class="cls-1" d="M176.33,83.87c-2.16,7.72-2.37,7.83-11.08,5.58.24-2,.49-4.14.81-6.78Z" transform="translate(-16.11 -18.26)"/><path class="cls-1" d="M73,144.44c.82-5.52,2.38-6.23,12-6.21.45,5.26-.27,6.16-5,6.21C77.79,144.46,75.57,144.44,73,144.44Z" transform="translate(-16.11 -18.26)"/><path class="cls-1" d="M30.74,80.91,20.27,87.19l-4.16-8.68,6.81-4.61Zm-9.49,3.24,5.84-3.62L22.75,76.6l-3.83,2.79Z" transform="translate(-16.11 -18.26)"/><path class="cls-1" d="M64.66,74.94h-6.8c.31-2.45.53-4.53.85-6.59A15.42,15.42,0,0,1,59.49,66h5.17Z" transform="translate(-16.11 -18.26)"/><path class="cls-1" d="M136.83,29.47l-5.67,4.14c-1.5-2.84-2.87-5.42-4.22-8C131.88,22.21,132.32,22.38,136.83,29.47Z" transform="translate(-16.11 -18.26)"/><path class="cls-1" d="M150.41,133.92c-12.27,3.16-18.6,12.32-23.35,23.07C127,146.63,141.33,132.45,150.41,133.92Z" transform="translate(-16.11 -18.26)"/><path class="cls-1" d="M152.21,147.67c-3.85,6.22-3.85,6.22-10.26,2.91C144.74,144.51,146.6,144,152.21,147.67Z" transform="translate(-16.11 -18.26)"/><path class="cls-1" d="M68.06,122,64,128.67l-6-3.24C62.78,118.68,62.78,118.68,68.06,122Z" transform="translate(-16.11 -18.26)"/><path class="cls-1" d="M68.51,32.94c-1.12,2.45-2.08,4.55-3.26,7.11l-5.13-4,2.39-5.61Z" transform="translate(-16.11 -18.26)"/><path class="cls-1" d="M155.18,119l1.77,7.22-6.54.77C148.84,121.49,149.2,120.87,155.18,119Z" transform="translate(-16.11 -18.26)"/><path class="cls-1" d="M32.87,136.79l-3.76-5c3.81-1.28,7-2.33,9.94,1.62Z" transform="translate(-16.11 -18.26)"/></svg>