<?xml version="1.0" encoding="UTF-8" standalone="no"?>
<svg
   xmlns:dc="http://purl.org/dc/elements/1.1/"
   xmlns:cc="http://creativecommons.org/ns#"
   xmlns:rdf="http://www.w3.org/1999/02/22-rdf-syntax-ns#"
   xmlns:svg="http://www.w3.org/2000/svg"
   xmlns="http://www.w3.org/2000/svg"
   xmlns:sodipodi="http://sodipodi.sourceforge.net/DTD/sodipodi-0.dtd"
   xmlns:inkscape="http://www.inkscape.org/namespaces/inkscape"
   version="1.1"
   id="svg196"
   width="81.066666"
   height="70.400002"
   viewBox="0 0 81.066666 70.400002"
   sodipodi:docname="MartyExcited.svg"
   inkscape:version="0.91 r13725">
  <metadata
     id="metadata202">
    <rdf:RDF>
      <cc:Work
         rdf:about="">
        <dc:format>image/svg+xml</dc:format>
        <dc:type
           rdf:resource="http://purl.org/dc/dcmitype/StillImage" />
        <dc:title />
      </cc:Work>
    </rdf:RDF>
  </metadata>
  <defs
     id="defs200" />
  <sodipodi:namedview
     pagecolor="#ffffff"
     bordercolor="#666666"
     borderopacity="1"
     objecttolerance="10"
     gridtolerance="10"
     guidetolerance="10"
     inkscape:pageopacity="0"
     inkscape:pageshadow="2"
     inkscape:window-width="1855"
     inkscape:window-height="1176"
     id="namedview198"
     showgrid="false"
     inkscape:zoom="12.03125"
     inkscape:cx="50.930603"
     inkscape:cy="29.145403"
     inkscape:window-x="65"
     inkscape:window-y="24"
     inkscape:window-maximized="1"
     inkscape:current-layer="g204" />
  <g
     inkscape:groupmode="layer"
     inkscape:label="Image"
     id="g204">
    <g
       style="fill:#000000;stroke:none"
       transform="matrix(0.95602756,-0.29327682,0.29327682,0.95602756,-9.1711978,8.1762838)"
       inkscape:transform-center-y="-3.3654207"
       inkscape:transform-center-x="1.7100067"
       id="g4233">
      <g
         style="fill:#000000;stroke:none"
         id="g4235">
        <path
           style="fill:#000000;fill-rule:evenodd;stroke:none;stroke-width:0.1;stroke-linecap:butt;stroke-linejoin:miter;stroke-miterlimit:4;stroke-dasharray:none;stroke-opacity:1"
           d="m 34.292969,18.357422 c -6.302629,0.729411 -12.605514,1.456649 -18.908203,2.185547 2.210455,3.110826 4.42253,6.220515 6.634765,9.330078 0.327447,-0.681203 1.563293,-0.790769 1.378907,-1.722656 -1.156021,-1.672418 -2.309717,-3.346481 -3.464844,-5.019532 4.948555,-0.566512 9.897208,-1.13218 14.845703,-1.699218 -0.128317,-1.028793 -0.257123,-2.057557 -0.388672,-3.085938 l -0.09766,0.01172 z"
           id="path4237"
           inkscape:connector-curvature="0" />
        <path
           style="opacity:1;fill:#000000;fill-opacity:1;stroke:none;stroke-width:0;stroke-miterlimit:4;stroke-dasharray:none;stroke-dashoffset:0;stroke-opacity:1"
           d="m 27.375,24.115234 c -5.83503,0.14855 -11.174144,4.896702 -11.93006,10.696647 -0.787025,5.019392 1.753494,10.407823 6.242605,12.840066 4.131749,2.359561 9.627175,2.158357 13.480424,-0.675385 3.847166,-2.702979 5.997732,-7.663992 5.151874,-12.321631 C 39.553869,29.873544 35.824394,25.681895 31.094508,24.533542 29.884984,24.208098 28.626777,24.07772 27.375,24.115234 Z m 0.693359,9.796875 c 2.103043,0.06812 3.430377,2.925342 2.003907,4.527344 -1.164568,1.507642 -3.892732,1.346422 -4.683595,-0.465297 -0.832111,-1.580087 0.202974,-3.835213 2.04297,-4.017125 0.212204,-0.01667 0.423246,-0.05226 0.636718,-0.04492 z"
           id="path4239"
           inkscape:connector-curvature="0" />
      </g>
    </g>
    <g
       inkscape:transform-center-y="-3.4805083"
       inkscape:transform-center-x="-1.995919"
       transform="matrix(-0.95637392,-0.29214538,-0.29214538,0.95637392,90.219949,8.2126918)"
       id="g4164"
       style="fill:#000000">
      <path
         style="opacity:1;fill:#000000;fill-opacity:1;stroke:#ff0000;stroke-width:0;stroke-miterlimit:4;stroke-dasharray:none;stroke-dashoffset:0;stroke-opacity:1"
         d="m 27.375,24.115234 c -5.83503,0.14855 -11.174144,4.896702 -11.93006,10.696647 -0.787025,5.019392 1.753494,10.407823 6.242605,12.840066 4.131749,2.359561 9.627175,2.158357 13.480424,-0.675385 3.847166,-2.702979 5.997732,-7.663992 5.151874,-12.321631 C 39.553869,29.873544 35.824394,25.681895 31.094508,24.533542 29.884984,24.208098 28.626777,24.07772 27.375,24.115234 Z m 0.693359,9.796875 c 2.103043,0.06812 3.430377,2.925342 2.003907,4.527344 -1.164568,1.507642 -3.892732,1.346422 -4.683595,-0.465297 -0.832111,-1.580087 0.202974,-3.835213 2.04297,-4.017125 0.212204,-0.01667 0.423246,-0.05226 0.636718,-0.04492 z"
         id="path4168"
         inkscape:connector-curvature="0" />
      <path
         style="fill:#000000;fill-rule:evenodd;stroke:none;stroke-width:0.1;stroke-linecap:butt;stroke-linejoin:miter;stroke-miterlimit:4;stroke-dasharray:none;stroke-opacity:1"
         d="m 34.292969,18.357422 c -6.302629,0.729411 -12.605514,1.456649 -18.908203,2.185547 2.210455,3.110826 4.42253,6.220515 6.634765,9.330078 0.327447,-0.681203 1.563293,-0.790769 1.378907,-1.722656 -1.156021,-1.672418 -2.309717,-3.346481 -3.464844,-5.019532 4.948555,-0.566512 9.897208,-1.13218 14.845703,-1.699218 -0.128317,-1.028793 -0.257123,-2.057557 -0.388672,-3.085938 l -0.09766,0.01172 z"
         id="path4166"
         inkscape:connector-curvature="0" />
    </g>
    <g
       id="g4169"
       inkscape:transform-center-x="1.7100067"
       inkscape:transform-center-y="-3.3654207"
       transform="matrix(0.95602756,-0.29327682,0.29327682,0.95602756,-9.1711978,8.1762838)"
       style="stroke:none">
      <g
         id="g4152"
         style="stroke:none">
        <path
           style="fill:#ffffff;fill-rule:evenodd;stroke:none;stroke-width:0.1;stroke-linecap:butt;stroke-linejoin:miter;stroke-miterlimit:4;stroke-dasharray:none;stroke-opacity:1"
           d="m 19.222951,22.811476 15.111476,-1.731148 -0.288524,-2.290164 -17.942624,2.073771 5.95082,8.367213 L 23.1,28.419673 Z"
           id="path4155"
           inkscape:connector-curvature="0"
           sodipodi:nodetypes="ccccccc" />
        <path
           id="path4137"
           d="M 27.895571,24.502342 A 12.19708,12.197083 0 0 0 15.698697,36.699507 12.19708,12.197083 0 0 0 27.895571,48.896672 12.19708,12.197083 0 0 0 40.092735,36.699507 12.19708,12.197083 0 0 0 27.895571,24.502342 Z m -0.02238,9.013451 a 3.1885028,3.1885032 0 0 1 3.188365,3.188655 3.1885028,3.1885032 0 0 1 -3.188365,3.188364 3.1885028,3.1885032 0 0 1 -3.188655,-3.188364 3.1885028,3.1885032 0 0 1 3.188655,-3.188655 z"
           style="opacity:1;fill:#ffffff;fill-opacity:1;stroke:none;stroke-width:0;stroke-miterlimit:4;stroke-dasharray:none;stroke-dashoffset:0;stroke-opacity:1"
           inkscape:connector-curvature="0" />
      </g>
    </g>
    <g
       id="g4173"
       transform="matrix(-0.95637392,-0.29214538,-0.29214538,0.95637392,90.219949,8.2126918)"
       inkscape:transform-center-x="-1.995919"
       inkscape:transform-center-y="-3.4805083">
      <path
         style="fill:#ffffff;fill-rule:evenodd;stroke:none;stroke-width:0.1;stroke-linecap:butt;stroke-linejoin:miter;stroke-miterlimit:4;stroke-dasharray:none;stroke-opacity:1"
         d="m 19.222951,22.811476 15.111476,-1.731148 -0.288524,-2.290164 -17.942624,2.073771 5.95082,8.367213 L 23.1,28.419673 Z"
         id="path4175"
         inkscape:connector-curvature="0"
         sodipodi:nodetypes="ccccccc" />
      <path
         id="path4177"
         d="M 27.895571,24.502342 A 12.19708,12.197083 0 0 0 15.698697,36.699507 12.19708,12.197083 0 0 0 27.895571,48.896672 12.19708,12.197083 0 0 0 40.092735,36.699507 12.19708,12.197083 0 0 0 27.895571,24.502342 Z m -0.02238,9.013451 a 3.1885028,3.1885032 0 0 1 3.188365,3.188655 3.1885028,3.1885032 0 0 1 -3.188365,3.188364 3.1885028,3.1885032 0 0 1 -3.188655,-3.188364 3.1885028,3.1885032 0 0 1 3.188655,-3.188655 z"
         style="opacity:1;fill:#ffffff;fill-opacity:1;stroke:#ff0000;stroke-width:0;stroke-miterlimit:4;stroke-dasharray:none;stroke-dashoffset:0;stroke-opacity:1"
         inkscape:connector-curvature="0" />
    </g>
  </g>
</svg>
