<?xml version="1.0" encoding="UTF-8"?><svg id="a" xmlns="http://www.w3.org/2000/svg" width="71.066666" viewBox="-20 0 155.8181 93.0762"
   height="65.400002"><path d="M119.9292,51.1633c3.224,8.6736,2.7118,18.4282-2.586,27.1459-8.6105,14.2809-27.222,18.5542-41.5029,9.9437-14.224-8.8255-18.4973-27.437-9.8868-41.7179,8.6105-14.2809,27.222-18.5542,41.5029-9.9437,3.7425,2.3707,6.8844,5.2725,9.3119,9.1352h0l12.5489-6.5682-32.7784-20.4073,3.2558-5.3482,42.299,26.1476-22.1645,11.6129" fill="#f2f2f1" stroke="#000" stroke-linecap="round" stroke-miterlimit="10" stroke-width=".5"/><circle cx="92.2205" cy="61.9985" r="7.5597" fill="#1d1d1b"/><path d="M13.9631,23.112L.4473,2.0538,50.1432,.259l.1264,6.4736-38.5822,1.5168,7.6556,11.9167h0c4.0207-2.1557,8.1299-2.9079,12.6121-3.3314,16.6707-.417,30.7303,12.505,31.1473,29.1756,.417,16.6707-12.505,30.7303-29.1756,31.1473-16.6707,.417-30.7303-12.505-31.1473-29.1756-.2907-10.1971,4.0905-18.9275,11.1836-24.87" fill="#f2f2f1" stroke="#000" stroke-linecap="round" stroke-miterlimit="10" stroke-width=".5"/><circle cx="32.9454" cy="47.0037" r="7.5597" fill="#1d1d1b"/><polygon points="50.5414 6.5745 4.5121 8.4199 .5042 1.8389 50.3581 .3159 50.5414 6.5745" fill="#1d1d1b"/><polygon points="99.5797 13.3458 142.1506 39.3354 135.4115 43.0715 96.3239 18.694 99.5797 13.3458" fill="#1d1d1b"/><circle cx="38.0412" cy="27.7538" r="4.3913" fill="#6f39c4"/><circle cx="27.8495" cy="66.2537" r="4.3913" fill="#6f39c4"/><circle cx="13.6954" cy="41.9079" r="4.3913" fill="#c4c439"/><circle cx="52.1953" cy="52.0996" r="4.3913" fill="#c4c439"/><circle cx="13.8383" cy="52.0046" r="4.3913" fill="#40c439"/><circle cx="19.1009" cy="60.9574" r="4.3913" fill="#385ac6"/><circle cx="18.5696" cy="33.1393" r="4.3913" fill="#ff9700"/><circle cx="27.9308" cy="27.602" r="4.3913" fill="#c63838"/><circle cx="52.1858" cy="42.0382" r="4.3913" fill="#40c439"/><circle cx="47.0134" cy="33.2116" r="4.3913" fill="#385ac6"/><circle cx="38.2526" cy="66.3063" r="4.3913" fill="#c63838"/><circle cx="47.209" cy="60.8385" r="4.3913" fill="#ff9700"/><circle cx="97.0976" cy="42.6239" r="4.3913" fill="#6f39c4"/><circle cx="86.906" cy="81.1237" r="4.3913" fill="#6f39c4"/><circle cx="72.7519" cy="56.7779" r="4.3913" fill="#c4c439"/><circle cx="111.2517" cy="66.9696" r="4.3913" fill="#c4c439"/><circle cx="72.8947" cy="66.8746" r="4.3913" fill="#40c439"/><circle cx="78.1574" cy="75.8275" r="4.3913" fill="#385ac6"/><circle cx="77.6261" cy="48.0093" r="4.3913" fill="#ff9700"/><circle cx="86.9872" cy="42.472" r="4.3913" fill="#c63838"/><circle cx="111.2423" cy="56.9082" r="4.3913" fill="#40c439"/><circle cx="106.0699" cy="48.0817" r="4.3913" fill="#385ac6"/><circle cx="97.3091" cy="81.1763" r="4.3913" fill="#c63838"/><circle cx="106.2655" cy="75.7085" r="4.3913" fill="#ff9700"/></svg>