<?xml version="1.0" encoding="UTF-8"?>
<svg id="Layer_1" data-name="Layer 1" xmlns="http://www.w3.org/2000/svg" viewBox="0 0 76 66" width="76px" height="66px">
  <defs>
    <style>
      .cls-1 {
        fill: #fff;
        stroke-width: 0px;
      }

      .cls-2 {
        fill: none;
        stroke: #65a042;
        stroke-miterlimit: 10;
        stroke-width: 2px;
      }
    </style>
  </defs>
  <g>
    <path class="cls-2" d="M29.37,28.12c0,.26,0,.44,0,.63,0,4-.05,8,.02,12,.03,1.65-.6,2.89-1.82,3.91-.97.8-2.06,1.37-3.32,1.51-.47.05-.98.02-1.43-.1-1.35-.37-1.99-1.68-1.54-3.03.26-.77.73-1.42,1.35-1.94,1.68-1.42,3.56-2.09,5.83-1.41,0-.2,0-.38,0-.56,0-5.98,0-11.97,0-17.95,0-.14,0-.28,0-.42-.02-.32.13-.51.43-.57.32-.06.53.12.59.41.09.5.11,1.02.2,1.53.11.63.2,1.26.41,1.86.27.78.79,1.4,1.52,1.84,1.88,1.13,3.54,2.52,4.72,4.4,1.55,2.46,1.58,4.95-.05,7.38-.63.94-1.39,1.8-2.11,2.68-.15.19-.35.38-.57.48-.18.08-.51.22-.65.05-.13-.15.03-.43.14-.56,1.07-1.32,1.89-2.76,2.21-4.44.52-2.68-.43-4.77-2.62-6.34-.83-.59-1.69-1.12-2.73-1.27-.17-.02-.34-.03-.58-.05Z"/>
    <path class="cls-2" d="M51.41,32.56c2.3.64,3.45,1.83,3.45,3.58v7.85c0,3.11-1.59,4.67-4.76,4.67h-8.42v-31.33h7.16c3.72,0,5.59,1.89,5.59,5.67v6.02c0,1.8-1,2.91-3.01,3.32v.22ZM45.87,30.56h1.96c1.6,0,2.4-.76,2.4-2.27v-4.89c0-1.51-.63-2.27-1.88-2.27h-2.49v9.43ZM45.87,44.87h3.14c1.11,0,1.66-.45,1.66-1.35v-6.94c0-1.48-.83-2.23-2.49-2.23h-2.31v10.52Z"/>
  </g>
  <g>
    <path class="cls-1" d="M29.37,28.12c0,.26,0,.44,0,.63,0,4-.05,8,.02,12,.03,1.65-.6,2.89-1.82,3.91-.97.8-2.06,1.37-3.32,1.51-.47.05-.98.02-1.43-.1-1.35-.37-1.99-1.68-1.54-3.03.26-.77.73-1.42,1.35-1.94,1.68-1.42,3.56-2.09,5.83-1.41,0-.2,0-.38,0-.56,0-5.98,0-11.97,0-17.95,0-.14,0-.28,0-.42-.02-.32.13-.51.43-.57.32-.06.53.12.59.41.09.5.11,1.02.2,1.53.11.63.2,1.26.41,1.86.27.78.79,1.4,1.52,1.84,1.88,1.13,3.54,2.52,4.72,4.4,1.55,2.46,1.58,4.95-.05,7.38-.63.94-1.39,1.8-2.11,2.68-.15.19-.35.38-.57.48-.18.08-.43.04-.65.05.04-.19.03-.43.14-.56,1.07-1.32,1.89-2.76,2.21-4.44.52-2.68-.43-4.77-2.62-6.34-.83-.59-1.69-1.12-2.73-1.27-.17-.02-.34-.03-.58-.05Z"/>
    <path class="cls-1" d="M51.41,32.56c2.3.64,3.45,1.83,3.45,3.58v7.85c0,3.11-1.59,4.67-4.76,4.67h-8.42v-31.33h7.16c3.72,0,5.59,1.89,5.59,5.67v6.02c0,1.8-1,2.91-3.01,3.32v.22ZM45.87,30.56h1.96c1.6,0,2.4-.76,2.4-2.27v-4.89c0-1.51-.63-2.27-1.88-2.27h-2.49v9.43ZM45.87,44.87h3.14c1.11,0,1.66-.45,1.66-1.35v-6.94c0-1.48-.83-2.23-2.49-2.23h-2.31v10.52Z"/>
  </g>
</svg>