<?xml version="1.0" encoding="UTF-8"?><svg id="Layer_1" xmlns="http://www.w3.org/2000/svg" width="76" height="66" viewBox="0 0 76 66"><path d="M24.14,46.56c-.38,0-.75-.05-1.09-.14-.73-.2-1.32-.66-1.65-1.29-.35-.66-.4-1.45-.14-2.23.27-.81.76-1.52,1.46-2.11,1.4-1.19,2.82-1.77,4.33-1.77.44,0,.9.05,1.36.16v-18.17c0-.08,0-.17,0-.25-.03-.51.25-.87.74-.96.06-.01.12-.02.18-.02.43,0,.76.28.84.72.05.27.08.54.11.82.03.24.05.48.09.71l.05.26c.09.52.18,1.06.35,1.54.24.69.69,1.24,1.36,1.64,2.16,1.3,3.75,2.78,4.84,4.52,1.66,2.64,1.64,5.26-.06,7.79-.49.73-1.06,1.41-1.6,2.07l-.52.64c-.22.27-.46.47-.71.58-.18.08-.39.17-.6.17-.2,0-.37-.08-.49-.21-.26-.31-.1-.74.14-1.04,1.16-1.42,1.85-2.82,2.14-4.27.48-2.48-.33-4.43-2.47-5.97-.88-.63-1.65-1.07-2.56-1.21-.05,0-.1-.01-.15-.02,0,0,0,2.53,0,3.68,0,2.8-.02,5.69.03,8.53.03,1.71-.61,3.08-1.96,4.2-1.12.93-2.27,1.45-3.51,1.59-.16.02-.32.03-.48.03Z" style="fill:#35342c;"/><path d="M29.33,20.16c.26,0,.43.17.47.42.09.5.11,1.02.2,1.53.11.63.2,1.26.41,1.86.27.78.79,1.4,1.52,1.84,1.88,1.13,3.54,2.52,4.72,4.4,1.55,2.46,1.58,4.95-.05,7.38-.63.94-1.39,1.8-2.11,2.68-.15.19-.35.38-.57.48-.12.05-.3.13-.45.13-.08,0-.15-.02-.2-.08-.13-.15.03-.43.14-.56,1.07-1.32,1.89-2.76,2.21-4.44.52-2.68-.43-4.77-2.62-6.34-.83-.59-1.69-1.12-2.73-1.27-.17-.02-.34-.03-.58-.05v.63c0,4-.05,8,.02,12,.03,1.65-.6,2.89-1.82,3.91-.97.8-2.06,1.37-3.32,1.51-.14.02-.29.02-.44.02-.34,0-.68-.04-.99-.13-1.35-.37-1.99-1.68-1.54-3.03.26-.77.73-1.42,1.35-1.94,1.23-1.04,2.57-1.68,4.09-1.68.55,0,1.13.08,1.74.26v-.56c0-5.98,0-11.97,0-17.95,0-.14,0-.28,0-.42-.02-.32.13-.51.43-.57.04,0,.08-.01.11-.01M29.33,19.41c-.08,0-.16,0-.24.02-.68.12-1.1.65-1.05,1.36,0,.07,0,.15,0,.22v.15s0,13.96,0,13.96v3.61c-.33-.05-.66-.08-.99-.08-1.6,0-3.1.61-4.57,1.85-.75.64-1.28,1.4-1.57,2.27-.29.87-.23,1.77.17,2.52.38.72,1.05,1.24,1.88,1.47.37.1.78.16,1.19.16.18,0,.35-.01.53-.03,1.32-.15,2.53-.7,3.71-1.68,1.44-1.19,2.12-2.66,2.09-4.5-.05-2.84-.04-5.74-.03-8.53,0-1.08,0-2.15,0-3.23.73.17,1.38.56,2.12,1.09,2.01,1.44,2.77,3.27,2.32,5.59-.27,1.39-.94,2.74-2.06,4.11-.42.52-.47,1.11-.14,1.52.19.22.46.35.77.35.28,0,.54-.1.76-.2.3-.14.58-.37.84-.69.17-.21.35-.43.53-.64.55-.67,1.12-1.35,1.62-2.1,1.77-2.63,1.79-5.46.07-8.19-1.13-1.79-2.76-3.31-4.97-4.64-.6-.36-.99-.83-1.2-1.44-.16-.46-.24-.95-.33-1.48l-.05-.27c-.04-.23-.06-.46-.09-.69-.03-.27-.06-.56-.11-.85-.11-.62-.6-1.03-1.21-1.03h0Z" style="fill:#65a042;"/><path d="M46.8,49.04c-3.58,0-5.39-1.92-5.39-5.7v-20.68c0-3.78,1.81-5.7,5.39-5.7h2.71c3.58,0,5.39,1.92,5.39,5.7v3.91h-4.94v-3.6c0-1.01-.46-1.46-1.5-1.46h-.83c-.9,0-1.28.44-1.28,1.46v20.07c0,1.02.38,1.46,1.28,1.46h1.05c.9,0,1.28-.44,1.28-1.46v-2.08h4.94v2.38c0,3.78-1.81,5.7-5.39,5.7h-2.71Z" style="fill:#35342c;"/><path d="M49.51,17.33c3.35,0,5.02,1.77,5.02,5.32v3.53h-4.19v-3.23c0-1.22-.63-1.83-1.88-1.83h-.83c-1.11,0-1.66.61-1.66,1.83v20.07c0,1.22.55,1.83,1.66,1.83h1.05c1.11,0,1.66-.61,1.66-1.83v-1.7h4.19v2.01c0,3.55-1.67,5.32-5.02,5.32h-2.71c-3.35,0-5.02-1.77-5.02-5.32v-20.68c0-3.55,1.67-5.32,5.02-5.32h2.71M49.51,16.58h-2.71c-3.77,0-5.77,2.1-5.77,6.07v20.68c0,3.97,1.99,6.07,5.77,6.07h2.71c3.77,0,5.77-2.1,5.77-6.07v-2.76h-5.69v2.45c0,1-.41,1.08-.91,1.08h-1.05c-.5,0-.91-.08-.91-1.08v-20.07c0-1,.41-1.08.91-1.08h.83c.84,0,1.13.27,1.13,1.08v3.98h5.69v-4.28c0-3.97-1.99-6.07-5.77-6.07h0Z" style="fill:#65a042;"/><path d="M24.14,46.56c-.38,0-.75-.05-1.09-.14-.73-.2-1.32-.66-1.65-1.29-.35-.66-.4-1.45-.14-2.23.27-.81.76-1.52,1.46-2.11,1.4-1.19,2.82-1.77,4.33-1.77.44,0,.9.05,1.36.16v-18.17c0-.08,0-.17,0-.25-.03-.51.25-.87.74-.96.06-.01.12-.02.18-.02.43,0,.76.28.84.72.05.27.08.54.11.82.03.24.05.48.09.71l.05.26c.09.52.18,1.06.35,1.54.24.69.69,1.24,1.36,1.64,2.16,1.3,3.75,2.78,4.84,4.52,1.66,2.64,1.64,5.26-.06,7.79-.49.73-1.06,1.41-1.6,2.07l-.52.64c-.22.27-.46.47-.71.58-.17.08-.35.09-.48.09h-.71s.02-.46.02-.46c.01-.05.02-.1.02-.15.02-.17.05-.38.19-.56,1.16-1.42,1.85-2.82,2.14-4.27.48-2.48-.33-4.43-2.47-5.97-.88-.63-1.65-1.07-2.56-1.21-.05,0-.1-.01-.15-.02,0,0,0,2.53,0,3.68,0,2.8-.02,5.69.03,8.53.03,1.71-.61,3.08-1.96,4.2-1.12.93-2.27,1.45-3.51,1.59-.16.02-.32.03-.48.03Z" style="fill:#35342c;"/><path d="M29.33,20.16c.26,0,.43.17.47.42.09.5.11,1.02.2,1.53.11.63.2,1.26.41,1.86.27.78.79,1.4,1.52,1.84,1.88,1.13,3.54,2.52,4.72,4.4,1.55,2.46,1.58,4.95-.05,7.38-.63.94-1.39,1.8-2.11,2.68-.15.19-.35.38-.57.48-.1.04-.21.05-.33.05-.08,0-.15,0-.23,0-.03,0-.06,0-.09,0,.04-.19.03-.43.14-.56,1.07-1.32,1.89-2.76,2.21-4.44.52-2.68-.43-4.77-2.62-6.34-.83-.59-1.69-1.12-2.73-1.27-.17-.02-.34-.03-.58-.05v.63c0,4-.05,8,.02,12,.03,1.65-.6,2.89-1.82,3.91-.97.8-2.06,1.37-3.32,1.51-.14.02-.29.02-.44.02-.34,0-.68-.04-.99-.13-1.35-.37-1.99-1.68-1.54-3.03.26-.77.73-1.42,1.35-1.94,1.23-1.04,2.57-1.68,4.09-1.68.55,0,1.13.08,1.74.26v-.56c0-5.98,0-11.97,0-17.95,0-.14,0-.28,0-.42-.02-.32.13-.51.43-.57.04,0,.08-.01.11-.01M29.33,19.41c-.08,0-.16,0-.24.02-.68.12-1.1.65-1.05,1.36,0,.07,0,.15,0,.22v.15s0,13.96,0,13.96v3.61c-.33-.05-.66-.08-.99-.08-1.6,0-3.1.61-4.57,1.85-.75.64-1.28,1.4-1.57,2.27-.29.87-.23,1.77.17,2.52.38.72,1.05,1.24,1.88,1.47.37.1.78.16,1.19.16.18,0,.35-.01.53-.03,1.32-.15,2.53-.7,3.71-1.68,1.44-1.19,2.12-2.66,2.09-4.5-.05-2.84-.04-5.74-.03-8.53,0-1.08,0-2.15,0-3.23.73.17,1.38.56,2.12,1.09,2.01,1.44,2.77,3.27,2.32,5.59-.27,1.39-.94,2.74-2.06,4.11-.21.26-.25.55-.27.75,0,.04,0,.08-.02.11l-.23.98,1-.06h.15s.13,0,.13,0c.17,0,.4-.01.64-.12.3-.14.58-.37.84-.69.17-.21.35-.43.53-.64.55-.67,1.12-1.35,1.62-2.1,1.77-2.63,1.79-5.46.07-8.19-1.13-1.79-2.76-3.31-4.97-4.64-.6-.36-.99-.83-1.2-1.44-.16-.46-.24-.95-.33-1.48l-.05-.27c-.04-.23-.06-.46-.09-.69-.03-.27-.06-.56-.11-.85-.11-.62-.6-1.03-1.21-1.03h0Z" style="fill:#65a042;"/><path d="M46.8,49.04c-3.58,0-5.39-1.92-5.39-5.7v-20.68c0-3.78,1.81-5.7,5.39-5.7h2.71c3.58,0,5.39,1.92,5.39,5.7v3.91h-4.94v-3.6c0-1.01-.46-1.46-1.5-1.46h-.83c-.9,0-1.28.44-1.28,1.46v20.07c0,1.02.38,1.46,1.28,1.46h1.05c.9,0,1.28-.44,1.28-1.46v-2.08h4.94v2.38c0,3.78-1.81,5.7-5.39,5.7h-2.71Z" style="fill:#35342c;"/><path d="M49.51,17.33c3.35,0,5.02,1.77,5.02,5.32v3.53h-4.19v-3.23c0-1.22-.63-1.83-1.88-1.83h-.83c-1.11,0-1.66.61-1.66,1.83v20.07c0,1.22.55,1.83,1.66,1.83h1.05c1.11,0,1.66-.61,1.66-1.83v-1.7h4.19v2.01c0,3.55-1.67,5.32-5.02,5.32h-2.71c-3.35,0-5.02-1.77-5.02-5.32v-20.68c0-3.55,1.67-5.32,5.02-5.32h2.71M49.51,16.58h-2.71c-3.77,0-5.77,2.1-5.77,6.07v20.68c0,3.97,1.99,6.07,5.77,6.07h2.71c3.77,0,5.77-2.1,5.77-6.07v-2.76h-5.69v2.45c0,1-.41,1.08-.91,1.08h-1.05c-.5,0-.91-.08-.91-1.08v-20.07c0-1,.41-1.08.91-1.08h.83c.84,0,1.13.27,1.13,1.08v3.98h5.69v-4.28c0-3.97-1.99-6.07-5.77-6.07h0Z" style="fill:#65a042;"/></svg>