<?xml version="1.0" encoding="UTF-8"?>
<svg id="Layer_1" data-name="Layer 1" xmlns="http://www.w3.org/2000/svg" viewBox="0 0 76 66" width="76px" height="66px">
  <defs>
    <style>
      .cls-1 {
        fill: #fff;
        stroke-width: 0px;
      }

      .cls-2 {
        fill: none;
        stroke: #65a042;
        stroke-miterlimit: 10;
        stroke-width: 2px;
      }
    </style>
  </defs>
  <g>
    <path class="cls-2" d="M23.51,28.86c0,.26,0,.44,0,.63,0,4-.05,8,.02,12,.03,1.65-.6,2.89-1.82,3.91-.97.8-2.06,1.37-3.32,1.51-.47.05-.98.02-1.43-.1-1.35-.37-1.99-1.68-1.54-3.03.26-.77.73-1.42,1.35-1.94,1.68-1.42,3.56-2.09,5.83-1.41,0-.2,0-.38,0-.56,0-5.98,0-11.97,0-17.95,0-.14,0-.28,0-.42-.02-.32.13-.51.43-.57.32-.06.53.12.59.41.09.5.11,1.02.2,1.53.11.63.2,1.26.41,1.86.27.78.79,1.4,1.52,1.84,1.88,1.13,3.54,2.52,4.72,4.4,1.55,2.46,1.58,4.95-.05,7.38-.63.94-1.39,1.8-2.11,2.68-.15.19-.35.38-.57.48-.18.08-.51.22-.65.05-.13-.15.03-.43.14-.56,1.07-1.32,1.89-2.76,2.21-4.44.52-2.68-.43-4.77-2.62-6.34-.83-.59-1.69-1.12-2.73-1.27-.17-.02-.34-.03-.58-.05Z"/>
    <g>
      <path class="cls-2" d="M48.34,42.07v2.01c0,3.55-1.67,5.32-5.02,5.32h-2.71c-3.35,0-5.02-1.77-5.02-5.32v-20.68c0-3.55,1.67-5.32,5.02-5.32h2.71c3.35,0,5.02,1.77,5.02,5.32v3.53h-4.19v-3.23c0-1.22-.63-1.83-1.88-1.83h-.83c-1.11,0-1.66.61-1.66,1.83v20.07c0,1.22.55,1.83,1.66,1.83h1.05c1.11,0,1.66-.61,1.66-1.83v-1.7h4.19Z"/>
      <path class="cls-2" d="M57.64,16.6h1.73l-.53,4.35h1.88l-.2,1.73h-1.88l-.74,5.98h1.88l-.2,1.73h-1.91l-.53,4.48h-1.73l.53-4.48h-2.57l-.53,4.48h-1.73l.53-4.48h-1.98l.2-1.73h2.01l.74-5.98h-2.01l.2-1.73h2.01l.53-4.35h1.73l-.53,4.35h2.57l.53-4.35ZM53.59,28.66h2.57l.74-5.98h-2.57l-.74,5.98Z"/>
    </g>
  </g>
  <g>
    <path class="cls-1" d="M23.51,28.86c0,.26,0,.44,0,.63,0,4-.05,8,.02,12,.03,1.65-.6,2.89-1.82,3.91-.97.8-2.06,1.37-3.32,1.51-.47.05-.98.02-1.43-.1-1.35-.37-1.99-1.68-1.54-3.03.26-.77.73-1.42,1.35-1.94,1.68-1.42,3.56-2.09,5.83-1.41,0-.2,0-.38,0-.56,0-5.98,0-11.97,0-17.95,0-.14,0-.28,0-.42-.02-.32.13-.51.43-.57.32-.06.53.12.59.41.09.5.11,1.02.2,1.53.11.63.2,1.26.41,1.86.27.78.79,1.4,1.52,1.84,1.88,1.13,3.54,2.52,4.72,4.4,1.55,2.46,1.58,4.95-.05,7.38-.63.94-1.39,1.8-2.11,2.68-.15.19-.35.38-.57.48-.18.08-.43.04-.65.05.04-.19.03-.43.14-.56,1.07-1.32,1.89-2.76,2.21-4.44.52-2.68-.43-4.77-2.62-6.34-.83-.59-1.69-1.12-2.73-1.27-.17-.02-.34-.03-.58-.05Z"/>
    <g>
      <path class="cls-1" d="M48.34,42.07v2.01c0,3.55-1.67,5.32-5.02,5.32h-2.71c-3.35,0-5.02-1.77-5.02-5.32v-20.68c0-3.55,1.67-5.32,5.02-5.32h2.71c3.35,0,5.02,1.77,5.02,5.32v3.53h-4.19v-3.23c0-1.22-.63-1.83-1.88-1.83h-.83c-1.11,0-1.66.61-1.66,1.83v20.07c0,1.22.55,1.83,1.66,1.83h1.05c1.11,0,1.66-.61,1.66-1.83v-1.7h4.19Z"/>
      <path class="cls-1" d="M57.64,16.6h1.73l-.53,4.35h1.88l-.2,1.73h-1.88l-.74,5.98h1.88l-.2,1.73h-1.91l-.53,4.48h-1.73l.53-4.48h-2.57l-.53,4.48h-1.73l.53-4.48h-1.98l.2-1.73h2.01l.74-5.98h-2.01l.2-1.73h2.01l.53-4.35h1.73l-.53,4.35h2.57l.53-4.35ZM53.59,28.66h2.57l.74-5.98h-2.57l-.74,5.98Z"/>
    </g>
  </g>
</svg>