<?xml version="1.0" encoding="UTF-8"?><svg id="Assess" xmlns="http://www.w3.org/2000/svg"    width="76.89888"
   height="66.205307"
   viewBox="0 0 76.89888 66.205307"><path d="M67.87,26.04l-4.46-2.58-4.7-2.71c-.3-.17-.63-.26-.96-.26s-.67.09-.97.26l-4.69,2.71-4.46,2.58c-.59.34-.96.98-.96,1.67v10.57c0,.69.37,1.33.96,1.67l9.15,5.29c.3.17.63.26.97.26s.66-.09.96-.26l9.16-5.29c.59-.34.96-.98.96-1.67v-10.57c0-.69-.37-1.33-.96-1.67ZM66.1,37.82l-8.36,4.83-8.36-4.83v-9.66s3.43-1.98,3.43-1.98h9.84s3.43,1.98,3.43,1.98v9.65ZM57.75,21.24c.41,0,.74.33.74.74s-.33.74-.74.74-.74-.33-.74-.74.33-.74.74-.74Z" style="fill:none; stroke:#898345; stroke-miterlimit:10; stroke-width:2px;"/><path d="M57.75,35.83c-1.56,0-2.83-1.27-2.83-2.83,0-1.56,1.27-2.83,2.83-2.83s2.83,1.27,2.83,2.83-1.27,2.83-2.83,2.83ZM57.75,31.53c-.81,0-1.46.66-1.46,1.46s.66,1.46,1.46,1.46,1.46-.66,1.46-1.46-.66-1.46-1.46-1.46Z" style="fill:#898345;"/><path d="M67.87,26.04l-4.46-2.58-4.7-2.71c-.3-.17-.63-.26-.96-.26s-.67.09-.97.26l-4.69,2.71-4.46,2.58c-.59.34-.96.98-.96,1.67v10.57c0,.69.37,1.33.96,1.67l9.15,5.29c.3.17.63.26.97.26s.66-.09.96-.26l9.16-5.29c.59-.34.96-.98.96-1.67v-10.57c0-.69-.37-1.33-.96-1.67ZM57.75,21.24c.41,0,.74.33.74.74s-.33.74-.74.74-.74-.33-.74-.74.33-.74.74-.74ZM66.1,37.82l-8.36,4.83-8.36-4.83v-9.66s3.43-1.98,3.43-1.98h9.84s3.43,1.98,3.43,1.98v9.65Z" style="fill:#34332b;"/><circle cx="57.75" cy="33" r="2.15" style="fill:#34332b;"/><g style="opacity:.25;"><path d="M14.6,25.7h-.8c.63-.41,1.04-1.11,1.04-1.92,0-1.26-1.02-2.28-2.28-2.28s-2.28,1.02-2.28,2.28c0,.81.42,1.51,1.04,1.92h-.41c-1.46,0-2.96.85-2.96,2.26v6.24c0,.67.54,1.21,1.21,1.21.27,0,.52-.09.73-.24v7.87c0,.39.15.75.43,1.03.28.28.64.43,1.03.43.51,0,.97-.27,1.22-.67.05.07.11.14.17.2.27.28.64.43,1.03.43.8,0,1.46-.66,1.46-1.46v-7.84c.2.15.46.24.73.24.67,0,1.21-.54,1.21-1.21v-6.24c0-1.35-1.03-2.26-2.57-2.26ZM10.76,23.78c0-.99.8-1.8,1.8-1.8s1.8.81,1.8,1.8-.81,1.8-1.8,1.8-1.8-.8-1.8-1.8ZM16.68,34.2c0,.4-.33.73-.73.73s-.73-.33-.73-.73v-5.56c0-.16-.08-.29-.24-.29-.15,0-.23.12-.24.27v14.4c0,.53-.44.97-.97.97-.27,0-.51-.11-.68-.29-.17-.17-.29-.42-.29-.68v-7.37c0-.07-.03-.14-.09-.18-.04-.04-.09-.06-.16-.06s-.12.02-.16.06c-.05.04-.09.11-.09.18v7.4c0,.53-.44.97-.97.97-.27,0-.51-.11-.68-.29-.17-.17-.29-.42-.29-.68v-14.41c0-.16-.08-.29-.24-.29s-.24.14-.24.29v5.56c0,.4-.33.73-.73.73s-.73-.33-.73-.73v-6.24c0-1.07,1.19-1.77,2.48-1.77h3.69c1.28,0,2.09.7,2.09,1.77v6.24Z" style="fill:#898345;"/><path d="M14.35,23.78c0,1-.81,1.8-1.8,1.8s-1.8-.8-1.8-1.8.8-1.8,1.8-1.8,1.8.81,1.8,1.8Z" style="fill:#34332b;"/><path d="M16.68,27.96v6.24c0,.4-.33.73-.73.73s-.73-.33-.73-.73v-5.56c0-.16-.08-.29-.24-.29-.15,0-.23.12-.24.27v14.4c0,.53-.44.97-.97.97-.27,0-.51-.11-.68-.29-.17-.17-.29-.42-.29-.68v-7.37c0-.07-.03-.14-.09-.18-.04-.04-.09-.06-.16-.06s-.12.02-.16.06c-.05.04-.09.11-.09.18v7.4c0,.53-.44.97-.97.97-.27,0-.51-.11-.68-.29-.17-.17-.29-.42-.29-.68v-14.41c0-.16-.08-.29-.24-.29s-.24.14-.24.29v5.56c0,.4-.33.73-.73.73s-.73-.33-.73-.73v-6.24c0-1.07,1.19-1.77,2.48-1.77h3.69c1.28,0,2.09.7,2.09,1.77Z" style="fill:#34332b;"/></g><g style="opacity:.5;"><path d="M23.97,22.31h-1.17c.92-.6,1.53-1.63,1.53-2.81,0-1.84-1.5-3.34-3.34-3.34s-3.34,1.5-3.34,3.34c0,1.18.61,2.21,1.53,2.81h-.6c-2.13,0-4.34,1.24-4.34,3.31v9.14c0,.98.8,1.78,1.78,1.78.4,0,.77-.14,1.07-.36v11.53c0,.57.22,1.1.63,1.51.41.41.94.63,1.51.63.75,0,1.42-.39,1.79-.98.07.11.16.21.25.3.4.41.94.63,1.51.63,1.17,0,2.13-.96,2.13-2.13v-11.48c.29.22.67.36,1.07.36.98,0,1.78-.8,1.78-1.78v-9.14c0-1.98-1.51-3.31-3.77-3.31ZM18.35,19.5c0-1.45,1.17-2.63,2.63-2.63s2.63,1.18,2.63,2.63-1.18,2.63-2.63,2.63-2.63-1.17-2.63-2.63ZM27.03,34.76c0,.59-.48,1.07-1.07,1.07s-1.07-.48-1.07-1.07v-8.14c0-.23-.12-.43-.36-.43-.22,0-.34.18-.36.39v21.08c0,.78-.64,1.42-1.42,1.42-.39,0-.75-.16-1-.42-.26-.26-.42-.61-.42-1v-10.79c0-.11-.05-.21-.13-.27-.06-.06-.14-.09-.23-.09s-.17.03-.23.09c-.08.06-.13.16-.13.27v10.84c0,.78-.64,1.42-1.42,1.42-.39,0-.75-.16-1-.42-.26-.26-.42-.61-.42-1v-21.09c0-.23-.12-.43-.36-.43s-.36.2-.36.43v8.14c0,.59-.48,1.07-1.07,1.07s-1.07-.48-1.07-1.07v-9.14c0-1.56,1.75-2.6,3.63-2.6h5.4c1.88,0,3.06,1.03,3.06,2.6v9.14Z" style="fill:#898345;"/><path d="M23.61,19.5c0,1.46-1.18,2.63-2.63,2.63s-2.63-1.17-2.63-2.63,1.17-2.63,2.63-2.63,2.63,1.18,2.63,2.63Z" style="fill:#34332b;"/><path d="M27.03,25.62v9.14c0,.59-.48,1.07-1.07,1.07s-1.07-.48-1.07-1.07v-8.14c0-.23-.12-.43-.36-.43-.22,0-.34.18-.36.39v21.08c0,.78-.64,1.42-1.42,1.42-.39,0-.75-.16-1-.42-.26-.26-.42-.61-.42-1v-10.79c0-.11-.05-.21-.13-.27-.06-.06-.14-.09-.23-.09s-.17.03-.23.09c-.08.06-.13.16-.13.27v10.84c0,.78-.64,1.42-1.42,1.42-.39,0-.75-.16-1-.42-.26-.26-.42-.61-.42-1v-21.09c0-.23-.12-.43-.36-.43s-.36.2-.36.43v8.14c0,.59-.48,1.07-1.07,1.07s-1.07-.48-1.07-1.07v-9.14c0-1.56,1.75-2.6,3.63-2.6h5.4c1.88,0,3.06,1.03,3.06,2.6Z" style="fill:#34332b;"/></g><path d="M37.83,17.97h-1.65c1.29-.84,2.15-2.29,2.15-3.95,0-2.59-2.11-4.7-4.7-4.7s-4.7,2.11-4.7,4.7c0,1.66.86,3.11,2.15,3.95h-.85c-3,0-6.1,1.74-6.1,4.65v12.85c0,1.38,1.12,2.5,2.5,2.5.56,0,1.08-.19,1.5-.5v16.21c0,.8.31,1.55.88,2.12.57.57,1.32.88,2.12.88,1.06,0,1.99-.55,2.52-1.38.1.15.22.29.35.42.56.57,1.32.89,2.13.89,1.65,0,3-1.35,3-3v-16.14c.41.31.94.5,1.5.5,1.38,0,2.5-1.12,2.5-2.5v-12.85c0-2.78-2.13-4.65-5.3-4.65ZM29.93,14.02c0-2.04,1.65-3.7,3.7-3.7s3.7,1.66,3.7,3.7-1.66,3.7-3.7,3.7-3.7-1.65-3.7-3.7ZM42.13,35.47c0,.83-.67,1.5-1.5,1.5s-1.5-.67-1.5-1.5v-11.45c0-.32-.17-.6-.5-.6-.31,0-.48.25-.5.55v29.64c0,1.1-.9,2-2,2-.55,0-1.05-.22-1.41-.59-.36-.36-.59-.86-.59-1.41v-15.17c0-.15-.07-.29-.18-.38-.08-.08-.19-.12-.32-.12s-.24.04-.32.12c-.11.09-.18.23-.18.38v15.24c0,1.1-.9,2-2,2-.55,0-1.05-.23-1.41-.59-.36-.36-.59-.86-.59-1.41v-29.66c0-.32-.17-.6-.5-.6s-.5.28-.5.6v11.45c0,.83-.67,1.5-1.5,1.5s-1.5-.67-1.5-1.5v-12.85c0-2.2,2.46-3.65,5.1-3.65h7.6c2.64,0,4.3,1.45,4.3,3.65v12.85Z" style="fill:#898345;"/><path d="M37.33,14.02c0,2.05-1.66,3.7-3.7,3.7s-3.7-1.65-3.7-3.7,1.65-3.7,3.7-3.7,3.7,1.66,3.7,3.7Z" style="fill:#34332b;"/><path d="M42.13,22.62v12.85c0,.83-.67,1.5-1.5,1.5s-1.5-.67-1.5-1.5v-11.45c0-.32-.17-.6-.5-.6-.31,0-.48.25-.5.55v29.64c0,1.1-.9,2-2,2-.55,0-1.05-.22-1.41-.59-.36-.36-.59-.86-.59-1.41v-15.17c0-.15-.07-.29-.18-.38-.08-.08-.19-.12-.32-.12s-.24.04-.32.12c-.11.09-.18.23-.18.38v15.24c0,1.1-.9,2-2,2-.55,0-1.05-.23-1.41-.59-.36-.36-.59-.86-.59-1.41v-29.66c0-.32-.17-.6-.5-.6s-.5.28-.5.6v11.45c0,.83-.67,1.5-1.5,1.5s-1.5-.67-1.5-1.5v-12.85c0-2.2,2.46-3.65,5.1-3.65h7.6c2.64,0,4.3,1.45,4.3,3.65Z" style="fill:#34332b;"/></svg>