<?xml version="1.0" encoding="UTF-8"?><svg id="Assess" xmlns="http://www.w3.org/2000/svg"    width="76.89888"
   height="66.205307"
   viewBox="0 0 76.89888 66.205307"><path d="M42.5,26.83c3.4,0,6.17,2.77,6.17,6.17s-2.77,6.17-6.17,6.17-6.17-2.77-6.17-6.17,2.77-6.17,6.17-6.17M42.5,24.83c-4.51,0-8.17,3.66-8.17,8.17s3.66,8.17,8.17,8.17,8.17-3.66,8.17-8.17-3.66-8.17-8.17-8.17h0Z" style="fill:none; stroke:#898345; stroke-miterlimit:10; stroke-width:2px;"/><path d="M42.5,26.83c3.4,0,6.17,2.77,6.17,6.17s-2.77,6.17-6.17,6.17-6.17-2.77-6.17-6.17,2.77-6.17,6.17-6.17M42.5,24.83c-4.51,0-8.17,3.66-8.17,8.17s3.66,8.17,8.17,8.17,8.17-3.66,8.17-8.17-3.66-8.17-8.17-8.17h0Z" style="fill:#34332b;"/><path d="M56.11,48.6c-.51,0-1.02-.2-1.41-.58l-5.9-5.9c-.78-.78-.78-2.05,0-2.83h0c.78-.78,2.05-.78,2.83,0l5.9,5.9c.78.78.78,2.05,0,2.83-.39.39-.9.59-1.42.59Z" style="fill:#898345;"/><path d="M61.74,35h-8.35c-1.1,0-2-.9-2-2s.9-2,2-2h8.35c1.1,0,2,.9,2,2s-.9,2-2,2Z" style="fill:#898345;"/><path d="M50.2,27.3c-.51,0-1.02-.2-1.41-.58-.78-.78-.78-2.05,0-2.83l5.9-5.9c.78-.78,2.05-.78,2.83,0,.78.78.78,2.05,0,2.83l-5.9,5.9c-.39.39-.9.58-1.41.58Z" style="fill:#898345;"/><path d="M42.5,24.11c-1.1,0-2-.9-2-2v-8.35c0-1.1.9-2,2-2s2,.9,2,2v8.35c0,1.1-.9,2-2,2Z" style="fill:#898345;"/><path d="M34.8,27.3c-.51,0-1.02-.2-1.41-.58l-5.9-5.9c-.78-.78-.78-2.05,0-2.83.78-.78,2.05-.78,2.83,0l5.9,5.9c.78.78.78,2.05,0,2.83h0c-.39.39-.9.59-1.42.59Z" style="fill:#898345;"/><path d="M31.61,35h-8.35c-1.1,0-2-.9-2-2s.9-2,2-2h8.35c1.1,0,2,.9,2,2s-.9,2-2,2Z" style="fill:#898345;"/><path d="M28.89,48.61c-.51,0-1.02-.19-1.41-.58-.78-.78-.78-2.05,0-2.83l5.9-5.9c.78-.78,2.05-.78,2.83,0h0c.78.78.78,2.05,0,2.83l-5.9,5.9c-.39.39-.9.58-1.41.58Z" style="fill:#898345;"/><path d="M42.5,54.24c-1.1,0-2-.9-2-2v-8.35c0-1.1.9-2,2-2s2,.9,2,2v8.35c0,1.1-.9,2-2,2Z" style="fill:#898345;"/><path d="M49.5,40h0c.39-.39,1.02-.39,1.41,0l1.56,1.56,1.19,1.19,3.16,3.16c.39.39.39,1.02,0,1.41h0c-.39.39-1.02.39-1.41,0l-3.16-3.16-1.19-1.19-1.56-1.56c-.39-.39-.39-1.02,0-1.41Z" style="fill:#34332b;"/><path d="M52.39,33h0c0-.55.45-1,1-1h8.35c.55,0,1,.45,1,1h0c0,.55-.45,1-1,1h-8.35c-.55,0-1-.45-1-1Z" style="fill:#34332b;"/><path d="M49.5,26h0c-.39-.39-.39-1.02,0-1.41l1.56-1.56,1.19-1.19,3.16-3.16c.39-.39,1.02-.39,1.41,0h0c.39.39.39,1.02,0,1.41l-3.16,3.16-1.19,1.19-1.56,1.56c-.39.39-1.02.39-1.41,0Z" style="fill:#34332b;"/><path d="M42.5,23.11h0c-.55,0-1-.45-1-1v-2.2s0-1.68,0-1.68v-4.47c0-.55.45-1,1-1h0c.55,0,1,.45,1,1v6.15s0,2.2,0,2.2c0,.55-.45,1-1,1Z" style="fill:#34332b;"/><path d="M35.5,26h0c-.39.39-1.02.39-1.41,0l-1.56-1.56-1.19-1.19-3.16-3.16c-.39-.39-.39-1.02,0-1.41h0c.39-.39,1.02-.39,1.41,0l3.16,3.16,1.19,1.19,1.56,1.56c.39.39.39,1.02,0,1.41Z" style="fill:#34332b;"/><path d="M32.61,33h0c0,.55-.45,1-1,1h-2.2s-1.68,0-1.68,0h-4.47c-.55,0-1-.45-1-1h0c0-.55.45-1,1-1h6.15s2.2,0,2.2,0c.55,0,1,.45,1,1Z" style="fill:#34332b;"/><path d="M35.5,40h0c.39.39.39,1.02,0,1.41l-1.56,1.56-1.19,1.19-3.16,3.16c-.39.39-1.02.39-1.41,0h0c-.39-.39-.39-1.02,0-1.41l3.16-3.16,1.19-1.19,1.56-1.56c.39-.39,1.02-.39,1.41,0Z" style="fill:#34332b;"/><path d="M42.5,42.89h0c.55,0,1,.45,1,1v2.2s0,1.68,0,1.68v4.47c0,.55-.45,1-1,1h0c-.55,0-1-.45-1-1v-6.15s0-2.2,0-2.2c0-.55.45-1,1-1Z" style="fill:#34332b;"/></svg>