<?xml version="1.0" encoding="UTF-8"?><svg id="Assess" xmlns="http://www.w3.org/2000/svg"    width="76.89888"
   height="66.205307"
   viewBox="0 0 76.89888 66.205307"><path d="M42.5,42.17c-5.06,0-9.17-4.11-9.17-9.17s4.11-9.17,9.17-9.17,9.17,4.11,9.17,9.17-4.11,9.17-9.17,9.17ZM42.5,25.83c-3.95,0-7.17,3.22-7.17,7.17s3.22,7.17,7.17,7.17,7.17-3.22,7.17-7.17-3.22-7.17-7.17-7.17Z" style="fill:#898345;"/><circle cx="42.5" cy="33" r="8.17" style="fill:#34332b;"/><path d="M42.5,19.57c-1.1,0-2-.9-2-2v-3.81c0-1.1.9-2,2-2s2,.9,2,2v3.81c0,1.1-.9,2-2,2Z" style="fill:#898345;"/><path d="M31.59,24.09c-.51,0-1.02-.2-1.41-.58l-2.7-2.7c-.78-.78-.78-2.05,0-2.83.78-.78,2.05-.78,2.83,0l2.7,2.7c.78.78.78,2.05,0,2.83-.39.39-.9.58-1.41.58Z" style="fill:#898345;"/><path d="M27.07,35h-3.81c-1.1,0-2-.9-2-2s.9-2,2-2h3.81c1.1,0,2,.9,2,2s-.9,2-2,2Z" style="fill:#898345;"/><path d="M28.89,48.6c-.51,0-1.02-.2-1.41-.58-.78-.78-.78-2.05,0-2.83l2.7-2.7c.78-.78,2.05-.78,2.83,0,.78.78.78,2.05,0,2.83l-2.7,2.7c-.39.39-.9.58-1.41.58Z" style="fill:#898345;"/><path d="M42.5,54.24c-1.1,0-2-.9-2-2v-3.81c0-1.1.9-2,2-2s2,.9,2,2v3.81c0,1.1-.9,2-2,2Z" style="fill:#898345;"/><path d="M56.11,48.61c-.51,0-1.02-.2-1.41-.58l-2.7-2.7c-.38-.38-.58-.88-.58-1.41s.21-1.04.59-1.42c.78-.78,2.05-.78,2.83,0l2.7,2.7c.38.38.59.88.59,1.41s-.21,1.04-.59,1.42-.9.58-1.41.58Z" style="fill:#898345;"/><path d="M61.74,35h-3.81c-1.1,0-2-.9-2-2s.9-2,2-2h3.81c1.1,0,2,.9,2,2s-.9,2-2,2Z" style="fill:#898345;"/><path d="M53.41,24.09c-.51,0-1.02-.19-1.41-.58h0c-.38-.38-.59-.88-.59-1.41s.21-1.04.59-1.42l2.7-2.7c.78-.78,2.05-.78,2.83,0,.78.78.78,2.05,0,2.83l-2.7,2.7c-.39.39-.9.58-1.41.58Z" style="fill:#898345;"/><path d="M42.5,18.57h0c-.55,0-1-.45-1-1v-3.81c0-.55.45-1,1-1h0c.55,0,1,.45,1,1v3.81c0,.55-.45,1-1,1Z" style="fill:#34332b;"/><path d="M32.3,22.8h0c-.39.39-1.02.39-1.41,0l-.7-.7-2-2c-.39-.39-.39-1.02,0-1.41h0c.39-.39,1.02-.39,1.41,0l2,2,.7.7c.39.39.39,1.02,0,1.41Z" style="fill:#34332b;"/><path d="M28.07,33h0c0,.55-.45,1-1,1h-.99s-2.83,0-2.83,0c-.55,0-1-.45-1-1h0c0-.55.45-1,1-1h3.81c.55,0,1,.45,1,1Z" style="fill:#34332b;"/><path d="M32.3,43.2h0c.39.39.39,1.02,0,1.41l-.7.7-2,2c-.39.39-1.02.39-1.41,0h0c-.39-.39-.39-1.02,0-1.41l2-2,.7-.7c.39-.39,1.02-.39,1.41,0Z" style="fill:#34332b;"/><path d="M42.5,47.43h0c.55,0,1,.45,1,1v.99s0,2.83,0,2.83c0,.55-.45,1-1,1h0c-.55,0-1-.45-1-1v-2.83s0-.99,0-.99c0-.55.45-1,1-1Z" style="fill:#34332b;"/><path d="M52.7,43.2h0c.39-.39,1.02-.39,1.41,0l.7.7,2,2c.39.39.39,1.02,0,1.41h0c-.39.39-1.02.39-1.41,0l-2-2-.7-.7c-.39-.39-.39-1.02,0-1.41Z" style="fill:#34332b;"/><path d="M56.93,33h0c0-.55.45-1,1-1h.99s2.83,0,2.83,0c.55,0,1,.45,1,1h0c0,.55-.45,1-1,1h-2.83s-.99,0-.99,0c-.55,0-1-.45-1-1Z" style="fill:#34332b;"/><path d="M52.7,22.8h0c-.39-.39-.39-1.02,0-1.41l.7-.7,2-2c.39-.39,1.02-.39,1.41,0h0c.39.39.39,1.02,0,1.41l-2,2-.7.7c-.39.39-1.02.39-1.41,0Z" style="fill:#34332b;"/></svg>