<?xml version="1.0" encoding="UTF-8"?><svg id="Assess" xmlns="http://www.w3.org/2000/svg"    width="76.89888"
   height="66.205307"
   viewBox="0 0 76.89888 66.205307"><path d="M42.5,42.17c-5.06,0-9.17-4.11-9.17-9.17s4.11-9.17,9.17-9.17,9.17,4.11,9.17,9.17-4.11,9.17-9.17,9.17ZM41.5,27.93c-2.37.47-4.17,2.56-4.17,5.07s1.8,4.61,4.17,5.07v-10.15Z" style="fill:#898345;"/><path d="M42.5,24.83c-4.51,0-8.17,3.66-8.17,8.17s3.66,8.17,8.17,8.17,8.17-3.66,8.17-8.17-3.66-8.17-8.17-8.17ZM36.33,33c0-3.4,2.77-6.17,6.17-6.17v12.34c-3.4,0-6.17-2.77-6.17-6.17Z" style="fill:#34332b;"/><path d="M51.76,25.74c-.51,0-1.02-.19-1.41-.58h0c-.78-.78-.78-2.05,0-2.83l4.35-4.35c.78-.78,2.05-.78,2.83,0,.78.78.78,2.05,0,2.83l-4.35,4.35c-.39.39-.9.58-1.42.58Z" style="fill:#898345;"/><path d="M42.5,21.9c-1.1,0-2-.9-2-2v-6.15c0-1.1.9-2,2-2s2,.9,2,2v6.15c0,1.1-.9,2-2,2Z" style="fill:#898345;"/><path d="M33.24,25.74c-.51,0-1.02-.19-1.41-.58l-4.35-4.35c-.78-.78-.78-2.05,0-2.83.78-.78,2.05-.78,2.83,0l4.35,4.35c.78.78.78,2.05,0,2.83h0c-.39.39-.9.58-1.41.58Z" style="fill:#898345;"/><path d="M29.4,35h-6.15c-1.1,0-2-.9-2-2s.9-2,2-2h6.15c1.1,0,2,.9,2,2s-.9,2-2,2Z" style="fill:#898345;"/><path d="M28.89,48.6c-.51,0-1.02-.2-1.41-.58-.78-.78-.78-2.05,0-2.83l4.35-4.35c.78-.78,2.05-.78,2.83,0h0c.78.78.78,2.05,0,2.83l-4.35,4.35c-.39.39-.9.58-1.41.58Z" style="fill:#898345;"/><path d="M56.11,48.6c-.51,0-1.02-.19-1.41-.58l-4.35-4.35c-.78-.78-.78-2.05,0-2.83.78-.78,2.05-.78,2.83,0l4.35,4.35c.78.78.78,2.05,0,2.83-.39.39-.9.58-1.41.58Z" style="fill:#898345;"/><path d="M61.74,35h-6.15c-1.1,0-2-.9-2-2s.9-2,2-2h6.15c1.1,0,2,.9,2,2s-.9,2-2,2Z" style="fill:#898345;"/><path d="M42.5,54.24c-1.1,0-2-.9-2-2v-6.15c0-1.1.9-2,2-2s2,.9,2,2v6.15c0,1.1-.9,2-2,2Z" style="fill:#898345;"/><path d="M51.05,24.45h0c-.39-.39-.39-1.02,0-1.41l1.19-1.19,3.16-3.16c.39-.39,1.02-.39,1.41,0h0c.39.39.39,1.02,0,1.41l-3.16,3.16-1.19,1.19c-.39.39-1.02.39-1.41,0Z" style="fill:#34332b;"/><path d="M42.5,20.9h0c-.55,0-1-.45-1-1v-6.15c0-.55.45-1,1-1h0c.55,0,1,.45,1,1v6.15c0,.55-.45,1-1,1Z" style="fill:#34332b;"/><path d="M33.95,24.45h0c-.39.39-1.02.39-1.41,0l-1.19-1.19-3.16-3.16c-.39-.39-.39-1.02,0-1.41h0c.39-.39,1.02-.39,1.41,0l3.16,3.16,1.19,1.19c.39.39.39,1.02,0,1.41Z" style="fill:#34332b;"/><path d="M30.4,33h0c0,.55-.45,1-1,1h-6.15c-.55,0-1-.45-1-1h0c0-.55.45-1,1-1h4.47s1.68,0,1.68,0c.55,0,1,.45,1,1Z" style="fill:#34332b;"/><path d="M33.95,41.55h0c.39.39.39,1.02,0,1.41l-1.19,1.19-3.16,3.16c-.39.39-1.02.39-1.41,0h0c-.39-.39-.39-1.02,0-1.41l3.16-3.16,1.19-1.19c.39-.39,1.02-.39,1.41,0Z" style="fill:#34332b;"/><path d="M51.05,41.55h0c.39-.39,1.02-.39,1.41,0l1.19,1.19,3.16,3.16c.39.39.39,1.02,0,1.41h0c-.39.39-1.02.39-1.41,0l-3.16-3.16-1.19-1.19c-.39-.39-.39-1.02,0-1.41Z" style="fill:#34332b;"/><path d="M54.6,33h0c0-.55.45-1,1-1h6.15c.55,0,1,.45,1,1h0c0,.55-.45,1-1,1h-6.15c-.55,0-1-.45-1-1Z" style="fill:#34332b;"/><path d="M42.5,45.1h0c.55,0,1,.45,1,1v6.15c0,.55-.45,1-1,1h0c-.55,0-1-.45-1-1v-6.15c0-.55.45-1,1-1Z" style="fill:#34332b;"/></svg>