<?xml version="1.0" encoding="UTF-8"?>
<svg id="Assess" xmlns="http://www.w3.org/2000/svg" viewBox="0 0 85 66" width="85" height="66">
  <defs>
    <style>
      .cls-1 {
        fill: #d6bd05;
      }

      .cls-1, .cls-2 {
        stroke-width: 0px;
      }

      .cls-2 {
        fill: #fff;
      }
    </style>
  </defs>
  <g>
    <path class="cls-1" d="M23.53,24.35c-1.38,0-2.5-1.12-2.5-2.5,0-5.29,4.3-9.58,9.58-9.58,1.38,0,2.5,1.12,2.5,2.5s-1.12,2.5-2.5,2.5c-2.53,0-4.58,2.06-4.58,4.58,0,1.38-1.12,2.5-2.5,2.5ZM30.62,14.26c-4.18,0-7.58,3.4-7.58,7.58,0,.28.22.5.5.5s.5-.22.5-.5c0-3.63,2.95-6.58,6.58-6.58.28,0,.5-.22.5-.5s-.22-.5-.5-.5Z"/>
    <path class="cls-1" d="M53.6,54.41c-1.38,0-2.5-1.12-2.5-2.5s1.12-2.5,2.5-2.5c2.53,0,4.58-2.06,4.58-4.58,0-1.38,1.12-2.5,2.5-2.5s2.5,1.12,2.5,2.5c0,5.29-4.3,9.58-9.58,9.58ZM60.68,44.33c-.28,0-.5.22-.5.5,0,3.63-2.95,6.58-6.58,6.58-.28,0-.5.22-.5.5s.22.5.5.5c4.18,0,7.58-3.4,7.58-7.58,0-.28-.22-.5-.5-.5Z"/>
  </g>
  <g>
    <path class="cls-2" d="M23.53,23.35c-.83,0-1.5-.67-1.5-1.5,0-4.73,3.85-8.58,8.58-8.58.83,0,1.5.67,1.5,1.5s-.67,1.5-1.5,1.5c-3.08,0-5.58,2.51-5.58,5.58,0,.83-.67,1.5-1.5,1.5Z"/>
    <path class="cls-2" d="M53.6,53.41c-.83,0-1.5-.67-1.5-1.5s.67-1.5,1.5-1.5c3.08,0,5.58-2.51,5.58-5.58,0-.83.67-1.5,1.5-1.5s1.5.67,1.5,1.5c0,4.73-3.85,8.58-8.58,8.58Z"/>
  </g>
  <g>
    <path class="cls-1" d="M30.73,44.77l-4.31-16.07,11.77-11.77,16.07,4.31,4.31,16.07-11.77,11.77-16.07-4.31ZM28.66,29.29l3.71,13.84,13.84,3.71,10.14-10.14-2.99-11.17c-.13.32-.32.62-.58.88-1.02,1.02-2.67,1.02-3.69,0s-1.02-2.67,0-3.69c.26-.26.56-.45.88-.58l-11.17-2.99-10.14,10.14ZM51.35,24.14c-.24-.24-.62-.24-.86,0s-.24.62,0,.86.62.24.86,0,.24-.62,0-.86ZM33.92,41.58l-3.14-11.72,8.58-8.58,3.87,1.04,9.95,9.95,1.04,3.87-8.58,8.58-11.72-3.14ZM33.01,30.45l2.54,9.49,9.49,2.54,6.95-6.95-.6-2.24-9.2-9.2-2.24-.6-6.95,6.95Z"/>
    <path class="cls-2" d="M53.45,22.05l-14.96-4.01-10.95,10.95,4.01,14.96,14.96,4.01,10.95-10.95-4.01-14.96ZM52.06,23.44c.63.63.63,1.64,0,2.27s-1.64.63-2.27,0-.63-1.64,0-2.27,1.64-.63,2.27,0ZM45.35,43.6l-10.61-2.84-2.84-10.61,7.76-7.76,3.05.82,9.57,9.57.82,3.05-7.76,7.76Z"/>
    <g>
      <path class="cls-1" d="M39.66,35.84c-1.56-1.56-1.57-4.11,0-5.68s4.11-1.56,5.68,0,1.56,4.11,0,5.68c-1.56,1.56-4.11,1.56-5.67,0ZM43.92,31.58c-.78-.78-2.06-.78-2.85,0s-.78,2.06,0,2.85,2.06.78,2.85,0,.78-2.06,0-2.85Z"/>
      <circle class="cls-2" cx="42.5" cy="33" r="3.01"/>
    </g>
  </g>
</svg>