<?xml version="1.0" encoding="UTF-8"?>
<svg id="Assess" xmlns="http://www.w3.org/2000/svg" viewBox="0 0 85 66" width="85" height="66">
  <defs>
    <style>
      .cls-1 {
        fill: #d6bd05;
      }

      .cls-1, .cls-2 {
        stroke-width: 0px;
      }

      .cls-2 {
        fill: #fff;
      }
    </style>
  </defs>
  <g>
    <path class="cls-1" d="M42.5,49.64l-14.41-8.32v-16.64l14.41-8.32,14.41,8.32v16.64l-14.41,8.32ZM30.09,40.17l12.41,7.16,12.41-7.16v-14.33l-10.02-5.78c.14.32.21.67.21,1.03,0,1.44-1.17,2.61-2.61,2.61s-2.61-1.17-2.61-2.61c0-.37.08-.72.21-1.03l-10.02,5.78v14.33ZM42.5,20.48c-.33,0-.61.27-.61.61s.27.61.61.61.61-.27.61-.61-.27-.61-.61-.61ZM42.5,45.13l-10.51-6.07v-12.13l3.47-2h14.07l3.47,2v12.13l-10.51,6.07ZM33.99,37.91l8.51,4.91,8.51-4.91v-9.83l-2.01-1.16h-13l-2.01,1.16v9.83Z"/>
    <path class="cls-2" d="M42.5,17.52l-13.41,7.74v15.49l13.41,7.74,13.41-7.74v-15.49l-13.41-7.74ZM42.5,19.48c.89,0,1.61.72,1.61,1.61s-.72,1.61-1.61,1.61-1.61-.72-1.61-1.61.72-1.61,1.61-1.61ZM52.01,38.49l-9.51,5.49-9.51-5.49v-10.98l2.74-1.58h13.54l2.74,1.58v10.98Z"/>
    <g>
      <path class="cls-1" d="M42.5,37.01c-2.21,0-4.01-1.8-4.01-4.01s1.8-4.01,4.01-4.01,4.01,1.8,4.01,4.01-1.8,4.01-4.01,4.01ZM42.5,30.99c-1.11,0-2.01.9-2.01,2.01s.9,2.01,2.01,2.01,2.01-.9,2.01-2.01-.9-2.01-2.01-2.01Z"/>
      <circle class="cls-2" cx="42.5" cy="33" r="3.01"/>
    </g>
  </g>
  <g>
    <path class="cls-1" d="M18.65,43.12c-1.09,0-2.05-.7-2.38-1.74-.86-2.69-1.3-5.51-1.3-8.38,0-15.17,12.35-27.52,27.53-27.52,2.87,0,5.69.44,8.37,1.3.64.2,1.15.64,1.46,1.24s.36,1.27.16,1.91c-.42,1.31-1.83,2.04-3.14,1.62-2.19-.7-4.5-1.06-6.85-1.06-12.42,0-22.53,10.1-22.53,22.52,0,2.36.36,4.66,1.06,6.86.2.64.15,1.31-.16,1.91-.31.59-.82,1.03-1.46,1.24-.24.08-.5.12-.76.12ZM42.5,7.48c-14.08,0-25.53,11.45-25.53,25.52,0,2.67.41,5.28,1.21,7.77.08.26.38.4.62.32.18-.06.26-.18.3-.25s.09-.21.03-.38c-.77-2.39-1.16-4.9-1.16-7.47,0-13.52,11-24.52,24.53-24.52,2.56,0,5.07.39,7.46,1.16.26.08.54-.06.63-.32.05-.17,0-.31-.03-.38-.04-.07-.12-.19-.29-.25-2.49-.8-5.1-1.2-7.76-1.2Z"/>
    <path class="cls-1" d="M42.5,60.53c-2.87,0-5.68-.44-8.37-1.3-.64-.2-1.15-.64-1.46-1.24s-.36-1.27-.16-1.91c.42-1.31,1.83-2.04,3.14-1.62,2.2.7,4.5,1.06,6.85,1.06,12.42,0,22.53-10.11,22.53-22.53,0-2.35-.36-4.65-1.06-6.85-.2-.63-.15-1.31.16-1.91.3-.59.82-1.03,1.46-1.24,1.32-.42,2.73.31,3.14,1.62.86,2.69,1.3,5.5,1.3,8.37,0,15.18-12.35,27.53-27.53,27.53ZM34.89,56.35c-.21,0-.41.13-.48.35-.05.17,0,.31.03.38.04.07.12.19.29.25,2.49.8,5.1,1.2,7.76,1.2,14.08,0,25.53-11.45,25.53-25.53,0-2.66-.41-5.27-1.21-7.76-.08-.27-.37-.41-.63-.32-.17.05-.25.18-.29.25s-.09.21-.03.38c.77,2.39,1.16,4.9,1.16,7.46,0,13.53-11,24.53-24.53,24.53-2.56,0-5.07-.39-7.46-1.16-.05-.02-.1-.02-.15-.02Z"/>
    <path class="cls-1" d="M56.95,15.49h-8.17c-1.38,0-2.5-1.12-2.5-2.5s1.12-2.5,2.5-2.5h3.17v-3.17c0-1.38,1.12-2.5,2.5-2.5s2.5,1.12,2.5,2.5v8.17ZM48.78,12.49c-.28,0-.5.22-.5.5s.22.5.5.5h6.17v-6.17c0-.28-.22-.5-.5-.5s-.5.22-.5.5v5.17h-5.17Z"/>
    <path class="cls-1" d="M30.23,61.14c-1.38,0-2.5-1.12-2.5-2.5v-8.17h8.17c1.38,0,2.5,1.12,2.5,2.5s-1.12,2.5-2.5,2.5h-3.17v3.17c0,1.38-1.12,2.5-2.5,2.5ZM29.73,52.48v6.17c0,.28.22.5.5.5s.5-.22.5-.5v-5.17h5.17c.28,0,.5-.22.5-.5s-.22-.5-.5-.5h-6.17Z"/>
    <path class="cls-2" d="M42.5,59.53c-2.76,0-5.48-.42-8.07-1.25-.79-.25-1.22-1.1-.97-1.89s1.1-1.22,1.89-.97c2.29.74,4.7,1.11,7.15,1.11,12.97,0,23.53-10.56,23.53-23.53,0-2.45-.37-4.86-1.11-7.15-.25-.79.18-1.63.97-1.89.8-.25,1.63.18,1.89.97.83,2.59,1.25,5.3,1.25,8.07,0,14.63-11.9,26.53-26.53,26.53Z"/>
    <path class="cls-2" d="M55.95,14.49h-7.17c-.83,0-1.5-.67-1.5-1.5s.67-1.5,1.5-1.5h4.17v-4.17c0-.83.67-1.5,1.5-1.5s1.5.67,1.5,1.5v7.17Z"/>
    <path class="cls-2" d="M18.65,42.12c-.63,0-1.22-.41-1.43-1.04-.83-2.59-1.25-5.31-1.25-8.08,0-14.62,11.9-26.52,26.53-26.52,2.77,0,5.48.42,8.07,1.25.79.25,1.22,1.1.97,1.89-.25.79-1.09,1.22-1.89.97-2.29-.74-4.7-1.11-7.15-1.11-12.97,0-23.53,10.55-23.53,23.52,0,2.46.37,4.87,1.11,7.16.25.79-.18,1.63-.97,1.89-.15.05-.31.07-.46.07Z"/>
    <path class="cls-2" d="M30.23,60.14c-.83,0-1.5-.67-1.5-1.5v-7.17h7.17c.83,0,1.5.67,1.5,1.5s-.67,1.5-1.5,1.5h-4.17v4.17c0,.83-.67,1.5-1.5,1.5Z"/>
  </g>
</svg>