<?xml version="1.0" encoding="UTF-8"?>
<svg id="Assess" xmlns="http://www.w3.org/2000/svg" viewBox="0 0 85 66" width="85" height="66">
  <defs>
    <style>
      .cls-1 {
        fill: #d6bd05;
      }

      .cls-1, .cls-2 {
        stroke-width: 0px;
      }

      .cls-3 {
        fill: none;
        stroke: #d6bd05;
        stroke-miterlimit: 10;
        stroke-width: 2px;
      }

      .cls-2 {
        fill: #fff;
      }
    </style>
  </defs>
  <g>
    <path class="cls-3" d="M31.55,7.99l-13.41,7.74v15.49l13.41,7.74,1.43-.83-.4-.92-.77-1.76-.49-1.14-9.28-5.35v-10.98l2.74-1.58h13.54l2.74,1.58v7.96l.45,1.03c.18-.04.36-.08.55-.1.25-.04.51-.06.77-.06.38,0,.76.04,1.13.11.34.07.68.16,1,.29v-11.48l-13.41-7.74ZM31.55,9.95c.88,0,1.6.72,1.6,1.61s-.72,1.6-1.6,1.6-1.61-.72-1.61-1.6.72-1.61,1.61-1.61Z"/>
    <path class="cls-2" d="M31.55,7.99l-13.41,7.74v15.49l13.41,7.74,1.43-.83-.4-.92-.77-1.76-.49-1.14-9.28-5.35v-10.98l2.74-1.58h13.54l2.74,1.58v7.96l.45,1.03c.18-.04.36-.08.55-.1.25-.04.51-.06.77-.06.38,0,.76.04,1.13.11.34.07.68.16,1,.29v-11.48l-13.41-7.74ZM31.55,9.95c.88,0,1.6.72,1.6,1.61s-.72,1.6-1.6,1.6-1.61-.72-1.61-1.6.72-1.61,1.61-1.61Z"/>
  </g>
  <g>
    <path class="cls-1" d="M35.51,22.9c-.05-.38-.15-.73-.31-1.07-.62-1.4-2.02-2.37-3.65-2.37-2.21,0-4.01,1.8-4.01,4.02,0,1.63.98,3.04,2.39,3.66.33.16.69.26,1.07.31.18.03.36.04.55.04.52,0,1.02-.1,1.47-.29.32-.12.62-.28.89-.49-.1-.35.07-.72.41-.87.16-.07.32-.08.48-.03h.01c.19-.27.35-.57.47-.88.18-.45.28-.94.28-1.45,0-.2-.01-.39-.05-.58ZM33.56,23.48c0,1.11-.9,2.01-2.01,2.01-.18,0-.35-.02-.51-.07-.34-.09-.65-.27-.89-.5-.38-.36-.61-.88-.61-1.44,0-1.11.9-2.02,2.01-2.02.57,0,1.08.24,1.44.62.24.24.41.54.5.87.05.17.07.35.07.53Z"/>
    <circle class="cls-2" cx="31.55" cy="23.47" r="3.01"/>
  </g>
  <g>
    <path class="cls-1" d="M60.73,48.69l.58-8.98-2.55-5.84c-.97-2.23-3.58-3.25-5.81-2.28-.19.08-.36.18-.54.28-1.22-1.45-3.3-1.99-5.13-1.19-.13.05-.25.12-.38.18-1.03-2.34-3.91-3.33-6.15-2.09l-1.82-4.15c-.69-1.58-2.14-2.59-3.73-2.79-.37-.05-.75-.06-1.13-.01-.36.04-.73.12-1.08.26-.09.02-.19.06-.28.1-1.24.54-2.13,1.56-2.56,2.74-.12.35-.2.71-.24,1.08-.04.38-.04.76.02,1.14.05.42.17.85.35,1.26l5.37,12.3-1.26-.18c-2.32-.34-4.53,1.26-4.92,3.57-.38,2.21.97,4.33,3.14,4.93l2.96.81,4.72,4.41,5.28,1.86,2.75,6.3,15.45-6.74-3.04-6.97ZM50.39,57.13l-1.85-4.23-6.13-2.16-4.83-4.51-3.91-1.07c-.18-.05-.29-.22-.26-.4.03-.18.22-.31.4-.29l1.97.29,2.18,1.25c.83.47,1.87.36,2.59-.28.71-.64.93-1.66.55-2.54l-7.16-16.39s-.02-.06-.03-.09c-.1-.35.07-.72.41-.87.16-.07.32-.08.48-.03h.01c.2.06.37.2.46.41l7.61,17.43c.44,1.01,1.62,1.47,2.63,1.03s1.48-1.62,1.03-2.63l-4.03-9.25c-.1-.22-.02-.45.19-.54.21-.09.45.01.54.22l4.04,9.25c.44,1.01,1.63,1.47,2.64,1.03s1.47-1.62,1.03-2.63l-2.29-5.24c-.09-.21.01-.45.22-.55.21-.09.45.01.54.22l2.29,5.23c.44,1.01,1.62,1.48,2.63,1.04,1.01-.44,1.48-1.63,1.04-2.64l-1.05-2.39c-.09-.2.01-.45.22-.54.21-.09.45,0,.55.21l2.15,4.95-.58,8.98,1.83,4.19-8.11,3.54Z"/>
    <path class="cls-2" d="M59.71,48.87l.59-8.98-2.46-5.62c-.75-1.72-2.77-2.51-4.49-1.76-.47.2-.86.5-1.17.86h-.01c-.75-1.74-2.77-2.53-4.49-1.78-.47.21-.86.51-1.17.86l-.52-1.18c-.75-1.72-2.77-2.51-4.49-1.76-.46.2-.84.49-1.15.84l-2.33-5.33c-.48-1.1-1.42-1.85-2.51-2.12-.33-.09-.68-.13-1.03-.11-.33,0-.66.06-.99.16-.13.04-.25.08-.38.14-1.04.46-1.76,1.33-2.07,2.33-.09.32-.15.66-.15,1-.02.34.02.69.11,1.03.05.19.11.37.19.55l6.22,14.24-.64-.36-2.52-.38c-1.79-.26-3.49.98-3.79,2.76-.29,1.7.74,3.33,2.41,3.79l3.2.88,4.75,4.43,5.5,1.94,2.52,5.78,13.61-5.94-2.74-6.27ZM47.8,53.7l-5.92-2.08-4.81-4.49-3.67-1.01c-.67-.18-1.09-.84-.97-1.53.12-.71.81-1.21,1.53-1.11l2.15.32,2.35,1.34c.46.26,1.03.2,1.42-.15.39-.35.51-.92.3-1.4l-7.16-16.39c-.15-.34-.18-.7-.1-1.04.1-.53.46-1,.99-1.23.11-.05.22-.08.33-.1.35-.08.72-.04,1.04.1.39.16.72.47.9.89l3.58,8.18,2.3,5.27,1.74,3.98c.22.51.81.74,1.31.52.51-.22.74-.81.52-1.32l-1.74-3.98-2.3-5.27c-.32-.73-.01-1.54.71-1.86.71-.31,1.55.02,1.86.74l1.75,4.01,1.54,3.52.75,1.72c.22.5.81.73,1.32.51.5-.22.73-.81.51-1.31l-.75-1.72-1.53-3.52c-.32-.71.01-1.55.73-1.86.71-.31,1.55,0,1.86.73l1.24,2.85.55,1.25.5,1.13c.22.51.81.74,1.31.52.51-.22.74-.81.52-1.32l-.49-1.13-.55-1.25c-.32-.72.01-1.56.73-1.87.71-.31,1.55.02,1.86.73l2.26,5.17-.58,8.98,2.13,4.89-9.95,4.34-2.07-4.75Z"/>
  </g>
</svg>