<?xml version="1.0" encoding="UTF-8"?>
<svg id="Layer_2" data-name="Layer 2" xmlns="http://www.w3.org/2000/svg" viewBox="0 0 76 66" width="76" height="66">
  <defs>
    <style>
      .cls-1 {
        fill: #f7f237;
      }

      .cls-1, .cls-2, .cls-3, .cls-4, .cls-5, .cls-6 {
        stroke-width: 0px;
      }

      .cls-2 {
        fill: #37d342;
      }

      .cls-3 {
        fill: #ab55a1;
      }

      .cls-4 {
        fill: #fff;
      }

      .cls-5 {
        fill: #969692;
      }

      .cls-6 {
        fill: #fcee21;
      }
    </style>
  </defs>
  <g>
    <path class="cls-3" d="M38,53.67l-17.9-10.33v-20.67l17.9-10.33,17.9,10.33v20.67l-17.9,10.33ZM22.1,42.18l15.9,9.18,15.9-9.18v-18.36l-15.9-9.18-15.9,9.18v18.36ZM38,49.56l-14.34-8.28v-16.56l14.34-8.28,14.34,8.28v16.56l-14.34,8.28ZM25.66,40.13l12.34,7.12,12.34-7.12v-14.25l-12.34-7.13-12.34,7.13v14.25Z"/>
    <g>
      <polygon class="cls-4" points="53.12 41.73 53.12 24.27 38 15.54 22.88 24.27 22.88 41.73 38 50.46 53.12 41.73"/>
      <path class="cls-4" d="M38,52.19l-16.62-9.6v-19.19l16.62-9.6,16.62,9.6v19.19l-16.62,9.6ZM24.38,40.86l13.62,7.86,13.62-7.86v-15.73l-13.62-7.86-13.62,7.86v15.73Z"/>
    </g>
  </g>
  <polygon class="cls-6" points="29.44 18.75 46.56 18.75 38 13.81 29.44 18.75"/>
  <g>
    <path class="cls-5" d="M34.72,36.47c-1.86-1.86-1.86-4.89,0-6.75s4.89-1.86,6.75,0,1.86,4.89,0,6.75-4.89,1.86-6.75,0ZM40.77,30.43c-1.47-1.47-3.86-1.47-5.34,0s-1.47,3.86,0,5.33,3.86,1.47,5.33,0,1.47-3.86,0-5.33Z"/>
    <circle class="cls-2" cx="47.83" cy="27.44" r="2.48"/>
    <circle class="cls-2" cx="28.37" cy="38.75" r="2.48"/>
    <circle class="cls-1" cx="32.44" cy="23.37" r="2.48"/>
    <circle class="cls-1" cx="43.75" cy="42.82" r="2.48"/>
    <circle class="cls-2" cx="28.46" cy="27.46" r="2.48"/>
    <circle class="cls-1" cx="26.99" cy="33.14" r="2.48"/>
    <circle class="cls-2" cx="37.89" cy="21.81" r="2.48"/>
    <circle class="cls-1" cx="43.85" cy="23.34" r="2.48"/>
    <circle class="cls-2" cx="47.77" cy="38.8" r="2.48"/>
    <circle class="cls-1" cx="49.23" cy="33.21" r="2.48"/>
    <circle class="cls-1" cx="32.51" cy="42.93" r="2.48"/>
    <circle class="cls-2" cx="38.27" cy="44.32" r="2.48"/>
  </g>
  <path class="cls-3" d="M47.53,19h-19.07c-.14,0-.25-.11-.25-.25s.11-.25.25-.25h19.07c.14,0,.25.11.25.25s-.11.25-.25.25Z"/>
</svg>