<?xml version="1.0" encoding="UTF-8"?>
<svg id="Assess" xmlns="http://www.w3.org/2000/svg" viewBox="0 0 85 66" width="85" height="66">
  <defs>
    <style>
      .cls-1 {
        fill: #d6bd05;
      }

      .cls-1, .cls-2 {
        stroke-width: 0px;
      }

      .cls-2 {
        fill: #fff;
      }
    </style>
  </defs>
  <g>
    <path class="cls-1" d="M45.81,15.46h-6.63c-1.41,0-2.67-.84-3.22-2.15-.18-.43-.27-.88-.27-1.34,0-.93.36-1.8,1.02-2.46l3.22-3.22c1.36-1.37,3.75-1.37,5.11,0l3.22,3.22c1,1,1.3,2.49.75,3.79-.54,1.3-1.8,2.15-3.22,2.15ZM37.87,12.65c.25.49.76.8,1.32.8h6.63c.56,0,1.06-.31,1.32-.8h-9.26ZM42.5,7.7l4.72,4.72c.17-.53.03-1.1-.36-1.5l-3.22-3.22c-.61-.61-1.67-.61-2.28,0l-3.22,3.22c-.28.28-.44.65-.44,1.04,0,.15.02.31.07.45l4.72-4.72ZM46.03,11.31h0s0,0,0,0ZM42.38,10.65h.24l-.12-.12-.12.12Z"/>
    <path class="cls-2" d="M45.81,14.55h-6.63c-1.05,0-1.98-.62-2.38-1.59-.4-.97-.18-2.07.56-2.81l3.22-3.22c1.02-1.03,2.81-1.03,3.84,0l3.22,3.22c.74.74.96,1.84.56,2.81-.4.97-1.34,1.59-2.38,1.59ZM40.2,11.55h4.6l-2.3-2.3-2.3,2.3Z"/>
  </g>
  <g>
    <path class="cls-1" d="M42.5,49.64l-14.41-8.32v-16.64l14.41-8.32,14.41,8.32v16.64l-14.41,8.32ZM30.09,40.17l12.41,7.16,12.41-7.16v-14.33l-10.02-5.78c.14.32.21.67.21,1.03,0,1.44-1.17,2.61-2.61,2.61s-2.61-1.17-2.61-2.61c0-.37.08-.72.21-1.03l-10.02,5.78v14.33ZM42.5,20.48c-.33,0-.61.27-.61.61s.27.61.61.61.61-.27.61-.61-.27-.61-.61-.61ZM42.5,45.13l-10.51-6.07v-12.13l3.47-2h14.07l3.47,2v12.13l-10.51,6.07ZM33.99,37.91l8.51,4.91,8.51-4.91v-9.83l-2.01-1.16h-13l-2.01,1.16v9.83Z"/>
    <path class="cls-2" d="M42.5,17.52l-13.41,7.74v15.49l13.41,7.74,13.41-7.74v-15.49l-13.41-7.74ZM42.5,19.48c.89,0,1.61.72,1.61,1.61s-.72,1.61-1.61,1.61-1.61-.72-1.61-1.61.72-1.61,1.61-1.61ZM52.01,38.49l-9.51,5.49-9.51-5.49v-10.98l2.74-1.58h13.54l2.74,1.58v10.98Z"/>
    <g>
      <path class="cls-1" d="M42.5,37.01c-2.21,0-4.01-1.8-4.01-4.01s1.8-4.01,4.01-4.01,4.01,1.8,4.01,4.01-1.8,4.01-4.01,4.01ZM42.5,30.99c-1.11,0-2.01.9-2.01,2.01s.9,2.01,2.01,2.01,2.01-.9,2.01-2.01-.9-2.01-2.01-2.01Z"/>
      <circle class="cls-2" cx="42.5" cy="33" r="3.01"/>
    </g>
  </g>
</svg>