<?xml version="1.0" encoding="UTF-8"?>
<svg id="Assess" xmlns="http://www.w3.org/2000/svg" viewBox="0 0 85 66" width="85" height="66">
  <defs>
    <style>
      .cls-1 {
        fill: #d6bd05;
      }

      .cls-1, .cls-2 {
        stroke-width: 0px;
      }

      .cls-2 {
        fill: #fff;
      }
    </style>
  </defs>
  <g>
    <path class="cls-1" d="M61.93,39.8c-.45,0-.9-.09-1.34-.27-1.3-.54-2.15-1.8-2.15-3.22v-6.63c0-1.41.84-2.67,2.15-3.22,1.31-.54,2.8-.24,3.79.76l3.22,3.22c.68.68,1.06,1.59,1.06,2.56s-.38,1.87-1.06,2.56l-3.22,3.22c-.67.67-1.55,1.02-2.46,1.02ZM61.48,37.72c.52.17,1.1.03,1.5-.36l3.22-3.22c.3-.3.47-.71.47-1.14s-.17-.84-.47-1.14l-3.22-3.22c-.4-.4-.97-.53-1.5-.36l4.72,4.72-4.72,4.72ZM61.25,28.37c-.49.25-.8.76-.8,1.32v6.63c0,.56.31,1.07.8,1.32v-9.26ZM63.25,32.88v.24l.12-.12-.12-.12Z"/>
    <path class="cls-2" d="M61.93,38.89c-.33,0-.67-.07-.99-.2-.97-.4-1.59-1.34-1.59-2.38v-6.63c0-1.05.62-1.98,1.59-2.38.96-.4,2.07-.18,2.81.56l3.22,3.22c.51.51.8,1.19.8,1.92s-.28,1.41-.8,1.92l-3.22,3.22c-.5.5-1.15.76-1.82.76ZM62.35,30.7v4.6l2.3-2.3-2.3-2.3Z"/>
  </g>
  <g>
    <path class="cls-1" d="M42.5,49.64l-14.41-8.32v-16.64l14.41-8.32,14.41,8.32v16.64l-14.41,8.32ZM30.09,40.17l12.41,7.16,12.41-7.16v-14.33l-10.02-5.78c.14.32.21.67.21,1.03,0,1.44-1.17,2.61-2.61,2.61s-2.61-1.17-2.61-2.61c0-.37.08-.72.21-1.03l-10.02,5.78v14.33ZM42.5,20.48c-.33,0-.61.27-.61.61s.27.61.61.61.61-.27.61-.61-.27-.61-.61-.61ZM42.5,45.13l-10.51-6.07v-12.13l3.47-2h14.07l3.47,2v12.13l-10.51,6.07ZM33.99,37.91l8.51,4.91,8.51-4.91v-9.83l-2.01-1.16h-13l-2.01,1.16v9.83Z"/>
    <path class="cls-2" d="M42.5,17.52l-13.41,7.74v15.49l13.41,7.74,13.41-7.74v-15.49l-13.41-7.74ZM42.5,19.48c.89,0,1.61.72,1.61,1.61s-.72,1.61-1.61,1.61-1.61-.72-1.61-1.61.72-1.61,1.61-1.61ZM52.01,38.49l-9.51,5.49-9.51-5.49v-10.98l2.74-1.58h13.54l2.74,1.58v10.98Z"/>
    <g>
      <path class="cls-1" d="M42.5,37.01c-2.21,0-4.01-1.8-4.01-4.01s1.8-4.01,4.01-4.01,4.01,1.8,4.01,4.01-1.8,4.01-4.01,4.01ZM42.5,30.99c-1.11,0-2.01.9-2.01,2.01s.9,2.01,2.01,2.01,2.01-.9,2.01-2.01-.9-2.01-2.01-2.01Z"/>
      <circle class="cls-2" cx="42.5" cy="33" r="3.01"/>
    </g>
  </g>
</svg>