<?xml version="1.0" encoding="UTF-8"?>
<svg id="Assess" xmlns="http://www.w3.org/2000/svg" viewBox="0 0 85 66" width="85" height="66">
  <defs>
    <style>
      .cls-1 {
        fill: #d6bd05;
      }

      .cls-1, .cls-2 {
        stroke-width: 0px;
      }

      .cls-2 {
        fill: #fff;
      }
    </style>
  </defs>
  <g>
    <g>
      <path class="cls-1" d="M45.81,15.46h-6.63c-1.41,0-2.68-.84-3.22-2.15-.18-.43-.27-.88-.27-1.34,0-.93.36-1.8,1.02-2.46l3.22-3.22c1.36-1.37,3.75-1.37,5.11,0l3.22,3.22c1,1,1.3,2.49.75,3.79-.54,1.3-1.8,2.15-3.22,2.15ZM37.87,12.65c.25.49.76.8,1.32.8h6.63c.56,0,1.06-.31,1.32-.8h-9.26ZM42.5,7.7l4.72,4.72c.17-.53.03-1.1-.36-1.5l-3.22-3.22c-.61-.61-1.68-.61-2.28,0l-3.22,3.22c-.28.28-.44.65-.44,1.04,0,.15.02.31.07.45l4.72-4.72ZM46.03,11.31h0s0,0,0,0ZM42.38,10.65h.24l-.12-.12-.12.12Z"/>
      <path class="cls-2" d="M45.81,14.55h-6.63c-1.05,0-1.98-.62-2.38-1.59-.4-.97-.18-2.07.56-2.81l3.22-3.22c1.06-1.06,2.78-1.06,3.84,0l3.22,3.22c.74.74.96,1.84.56,2.81-.4.97-1.34,1.59-2.38,1.59ZM40.2,11.55h4.6l-2.3-2.3-2.3,2.3Z"/>
    </g>
    <g>
      <path class="cls-1" d="M42.5,60.76c-.97,0-1.88-.38-2.56-1.06l-3.22-3.22c-.66-.66-1.02-1.53-1.02-2.46,0-.46.09-.91.27-1.33.54-1.31,1.8-2.15,3.22-2.15h6.63c1.41,0,2.68.84,3.22,2.15.54,1.31.24,2.79-.75,3.79l-3.22,3.22c-.68.68-1.59,1.06-2.56,1.06ZM37.78,53.57c-.05.15-.07.3-.07.46,0,.39.15.76.44,1.04l3.22,3.22c.61.61,1.68.61,2.29,0l3.22-3.22c.4-.4.53-.97.36-1.5l-4.72,4.72-4.72-4.72ZM42.38,55.35l.12.12.12-.12h-.25ZM37.87,53.35h9.26c-.25-.49-.76-.8-1.32-.8h-6.63c-.56,0-1.06.31-1.32.8Z"/>
      <path class="cls-2" d="M42.5,59.86c-.69,0-1.39-.26-1.92-.79l-3.22-3.22c-.74-.74-.96-1.84-.56-2.81s1.34-1.59,2.38-1.59h6.63c1.05,0,1.98.62,2.38,1.59.4.97.18,2.07-.56,2.81l-3.22,3.22c-.53.53-1.22.79-1.92.79ZM40.2,54.44l2.3,2.3,2.3-2.3h-4.6ZM39.48,53.73h0s0,0,0,0Z"/>
    </g>
  </g>
  <g>
    <g>
      <path class="cls-1" d="M61.93,39.8c-.45,0-.9-.09-1.34-.27-1.3-.54-2.15-1.8-2.15-3.22v-6.63c0-1.41.84-2.67,2.15-3.22,1.31-.54,2.8-.24,3.79.76l3.22,3.22c.68.68,1.06,1.59,1.06,2.56s-.38,1.87-1.06,2.56l-3.22,3.22c-.67.67-1.55,1.02-2.46,1.02ZM61.48,37.72c.52.17,1.1.03,1.5-.36l3.22-3.22c.3-.3.47-.71.47-1.14s-.17-.84-.47-1.14l-3.22-3.22c-.4-.4-.97-.53-1.5-.36l4.72,4.72-4.72,4.72ZM61.25,28.37c-.49.25-.8.76-.8,1.32v6.63c0,.56.31,1.07.8,1.32v-9.26ZM63.25,32.88v.24l.12-.12-.12-.12Z"/>
      <path class="cls-2" d="M61.93,38.89c-.33,0-.67-.07-.99-.2-.97-.4-1.59-1.34-1.59-2.38v-6.63c0-1.05.62-1.98,1.59-2.38.96-.4,2.07-.18,2.81.56l3.22,3.22c.51.51.8,1.19.8,1.92s-.28,1.41-.8,1.92l-3.22,3.22c-.5.5-1.15.76-1.82.76ZM62.35,30.7v4.6l2.3-2.3-2.3-2.3Z"/>
    </g>
    <g>
      <path class="cls-1" d="M23.07,39.8c-.9,0-1.79-.35-2.46-1.02l-3.22-3.22c-.68-.68-1.06-1.59-1.06-2.56s.38-1.87,1.06-2.56l3.22-3.22c1-1,2.49-1.3,3.79-.75,1.31.54,2.15,1.8,2.15,3.22v6.63c0,1.41-.84,2.68-2.15,3.22-.43.18-.89.27-1.34.27ZM23.07,28.2c-.38,0-.76.15-1.05.43l-3.22,3.22c-.3.3-.47.71-.47,1.14s.17.84.47,1.14l3.22,3.22c.4.4.97.53,1.5.36l-4.72-4.72,4.72-4.72c-.15-.05-.3-.07-.45-.07ZM23.75,28.37v9.26c.49-.25.8-.76.8-1.32v-6.63c0-.56-.31-1.06-.8-1.32ZM21.63,33l.12.12v-.24l-.12.12Z"/>
      <path class="cls-2" d="M23.07,38.89c-.67,0-1.33-.26-1.82-.76l-3.22-3.22c-1.06-1.06-1.06-2.78,0-3.84l3.22-3.22c.74-.74,1.84-.96,2.81-.56.97.4,1.59,1.34,1.59,2.38v6.63c0,1.05-.62,1.98-1.59,2.38-.32.13-.66.2-.99.2ZM20.35,33l2.3,2.3v-4.6l-2.3,2.3Z"/>
    </g>
  </g>
  <g>
    <path class="cls-1" d="M42.5,49.64l-14.41-8.32v-16.64l14.41-8.32,14.41,8.32v16.64l-14.41,8.32ZM30.09,40.17l12.41,7.16,12.41-7.16v-14.33l-10.02-5.78c.14.32.21.67.21,1.03,0,1.44-1.17,2.61-2.61,2.61s-2.61-1.17-2.61-2.61c0-.37.08-.72.21-1.03l-10.02,5.78v14.33ZM42.5,20.48c-.33,0-.61.27-.61.61s.27.61.61.61.61-.27.61-.61-.27-.61-.61-.61ZM42.5,45.13l-10.51-6.07v-12.13l3.47-2h14.07l3.47,2v12.13l-10.51,6.07ZM33.99,37.91l8.51,4.91,8.51-4.91v-9.83l-2.01-1.16h-13l-2.01,1.16v9.83Z"/>
    <path class="cls-2" d="M42.5,17.52l-13.41,7.74v15.49l13.41,7.74,13.41-7.74v-15.49l-13.41-7.74ZM42.5,19.48c.89,0,1.61.72,1.61,1.61s-.72,1.61-1.61,1.61-1.61-.72-1.61-1.61.72-1.61,1.61-1.61ZM52.01,38.49l-9.51,5.49-9.51-5.49v-10.98l2.74-1.58h13.54l2.74,1.58v10.98Z"/>
    <g>
      <path class="cls-1" d="M42.5,37.01c-2.21,0-4.01-1.8-4.01-4.01s1.8-4.01,4.01-4.01,4.01,1.8,4.01,4.01-1.8,4.01-4.01,4.01ZM42.5,30.99c-1.11,0-2.01.9-2.01,2.01s.9,2.01,2.01,2.01,2.01-.9,2.01-2.01-.9-2.01-2.01-2.01Z"/>
      <circle class="cls-2" cx="42.5" cy="33" r="3.01"/>
    </g>
  </g>
</svg>