<?xml version="1.0" encoding="UTF-8"?>
<svg width="208" height="150" version="1.1" viewBox="0 0 208 150" xml:space="preserve" xmlns="http://www.w3.org/2000/svg">
<style type="text/css">
	.st0{fill:#36ABC8;}
	.st1{fill:#1D1D1B;}
	.st2{fill:#E20613;}
	.st3{fill:#BD1622;}
	.st4{fill:#FFFFFF;}
	.st5{fill:#931820;}
	.st6{fill:none;stroke:#1D1D1B;stroke-miterlimit:10;}
	.st7{fill:#F2F2F1;stroke:#000000;stroke-width:0.5;stroke-linecap:round;stroke-miterlimit:10;}
	.st8{fill:#CECDCE;}
	.st9{fill:#838383;}
	.st10{fill:#353435;}
</style>
<g transform="matrix(3 0 0 3 -19 -27)">
			<path class="st0" d="m66 57h-53c-2 0-4-2-4-4l-0.8-34c0-2 2-4 4-4h56c2 0 3 2 3 3l-1 34c0 2-2 4-4 4z"/>
		<path d="m33 44c0.9 0 2 0 3-0.2 2-0.2 3-0.5 5-1 1-0.4 3-1 4-2-0.1 0.1-6 5 0.3-0.1 0 0-0.2 0.2-0.1 0.2-0.8 0.6-0.9 0.3-2 0.8 0.1 0.2 0.1 0.3 0.2 0.4 0.4 0.9 0.9 2 1 3 0.3 0.9 0.3 2 0.3 2 0.1 0.8 0.1 2-0.1 2-0.3 1-0.8 3-2 4-0.3 0.5-0.9 0.9-1 1-0.9 0.5-2 0.6-3 0.3-0.9-0.2-2-0.3-3-0.8-0.7-0.3-1-0.7-2-1-0.3-0.4-0.5-0.9-0.7-1-0.3-1-0.3-2 0.1-3 0.4-1 0.9-3 2-4 0.2-0.3 0.4-0.8 0.6-1-0.3 0-0.7 0.1-1 0.1-0.4 0.1-1 0.1-2 0.2 0.1 0 0.1 0 0 0zm1 9c0.1-0.2 0.2-0.3 0.3-0.4 0.2-0.3 0.5-0.4 0.9-0.4h1c1 0.1 2 0.2 3 0.4 0.5 0.1 1 0.2 2 0.4 0.5 0.3 0.9 0.5 1 1 0.1-0.1 0.1-0.1 0.1-0.2 0.3-0.3 0.6-0.8 0.8-1 0.4-0.7 0.7-2 0.9-2v-0.2c-0.2-0.5-0.4-0.9-0.7-1-0.8-0.9-2-1-3-1-0.9 0.3-2 0.8-2 2l-0.1 0.1c0.3-0.5 0.7-0.9 1-1-0.6-0.4-1-0.7-2-0.7-2 0.1-3 0.9-4 2-0.1 0.2-0.2 0.3-0.2 0.5v0.7c-0.2 0.8 0.2 2 0.6 2zm-0.7-3s0.1 0 0 0c0.9-0.9 2-1 2-2 1-0.4 2-0.3 4 0.4 0.1-0.1 0.3-0.2 0.3-0.2 1-0.5 2-0.5 3 0.3 0.5 0.4 0.9 1 1 2 0 0.1 0 0.1 0.1 0.2 0.5-1 0.1-5-0.3-6h-0.1c-3 0.9-6 1-8 0.5-0.2 0-0.2 0-0.3 0.1-0.5 1-1 2-1 3-0.1 0.5-0.2 0.8-0.3 1zm6 3h-0.3c-1-0.2-2-0.3-3-0.3-0.2 0-0.4 0-0.6 0.1-0.3 0.1-0.5 0.4-0.7 0.7-0.1 0.1-0.1 0.2 0 0.3 0.7 0.8 2 1 2 2 0.6 0.2 1 0.3 2 0.5s1 0.2 2 0.1c0.8-0.2 1-0.5 2-1l0.1-0.1c0-0.3-0.1-0.4-0.3-0.6-0.3-0.3-0.7-0.5-1-0.7-0.6-0.2-1-0.3-2-0.4zm5-8c-0.3-0.9-0.7-2-1-2-0.2 0.1-0.3 0.2-0.5 0.3-0.9 0.4-2 0.8-3 1-1 0.3-2 0.5-3 0.6-0.1 0-0.2 0.1-0.3 0.2-0.1 0.3-0.3 0.4-0.3 0.6-0.1 0.1-0.1 0.2-0.2 0.3 3 0.4 6 0.3 8-0.6z"/>
		<path class="st1" d="m40 56c-0.3 0-0.7 0-1-0.1h-0.1c-0.9-0.2-2-0.3-3-0.8-0.7-0.3-1-0.7-2-1-0.3-0.4-0.5-0.9-0.8-2-0.3-0.9-0.3-2 0.1-3 0.5-2 1-3 2-4l0.3-0.6h-0.3-2-0.3-0.2l-0.3-0.1 0.1-0.7h0.3c1 0 2 0 3-0.1 2-0.2 3-0.5 5-1 2-0.5 3-1 4-2l0.9-0.6-0.3 0.5v0.1h0.6l-0.6 0.8c-0.2 0.2-0.3 0.3-0.4 0.3-0.3 0.3-0.6 0.5-0.9 0.7 0.3 0.8 0.8 2 1 2 0.3 0.8 0.3 2 0.3 2v0.2c0.1 0.8 0.1 2-0.1 2-0.3 1-0.8 3-2 4-0.4 0.5-0.9 0.9-2 1-0.5 0.4-1 0.6-2 0.6zm-5-3c0.5 0.6 1 1 2 1 0.3 0.2 0.8 0.3 1 0.3 0.2 0.1 0.3 0.1 0.5 0.2 0.4 0.2 1 0.2 2 0.1s1-0.4 2-0.9c0-0.1-0.1-0.2-0.1-0.3-0.3-0.3-0.6-0.4-0.9-0.5-0.4-0.1-0.9-0.2-1-0.3h-0.2l-0.5-0.1c-1-0.2-2-0.3-3-0.3-0.2 0-0.3 0-0.5 0.1-0.3-0.1-0.4 0.1-0.6 0.3zm1-1h0.7c1 0.1 2 0.2 3 0.4h0.2c0.5 0.1 1 0.2 2 0.4 0.3 0.2 0.7 0.3 0.9 0.8 0.2-0.3 0.3-0.5 0.5-0.7 0.3-0.6 0.6-1 0.8-2l0.1-0.3c-0.2-0.5-0.3-0.9-0.7-1-0.7-0.9-2-1-3-0.9-0.8 0.2-2 0.7-2 1 0 0 0 0.1-0.1 0.1l-0.3 0.3-0.6-0.5 0.2-0.3c0.3-0.3 0.5-0.7 0.9-1-0.4-0.3-0.9-0.3-2-0.3-1 0.1-2 0.7-3 2v0.3 0.2 0.4c0 0.5 0.2 1 0.4 2 0.3-0.3 0.7-0.5 1-0.5h0.1c0.2 0 0.2 0 0.4 0.1-0.2 0-0.1 0 0 0zm8-1zm0-0.1zm-3-3c0.8 0 2 0.3 2 0.8 0.3 0.3 0.6 0.6 0.9 1 0.1-1-0.2-3-0.4-4-3 0.8-5 0.9-8 0.4-0.4 0.9-0.9 2-1 3 0.4-0.3 0.9-0.6 1-0.8 1-0.5 3-0.4 4 0.3 0.1 0 0.1-0.1 0.2-0.1 0.4-0.2 0.9-0.3 2-0.3zm-5-3c3 0.4 5 0.3 8-0.4l-0.5-1c-0.2 0.2-0.3 0.3-0.4 0.3-0.2 0.1-0.4 0.3-0.7 0.1-0.2-0.3-0.1-0.4 0.3-0.7-0.8 0.3-2 0.6-3 0.9s-2 0.5-3 0.6c-0.1 0.1-0.2 0.2-0.3 0.4v0z"/>
		<path class="st2" d="m34 53c-0.4-0.7-0.8-1-0.8-2v-0.7c0-0.2 0.1-0.3 0.2-0.5 0.9-1 2-2 4-2 0.8-0.1 2 0.2 2 0.7-0.5 0.3-0.9 0.7-1 1l0.1-0.1c0.5-0.8 1-1 2-2 1-0.3 2 0.1 3 1 0.3 0.4 0.5 0.9 0.7 1v0.2c-0.3 0.8-0.5 2-0.9 2-0.3 0.4-0.5 0.8-0.8 1 0 0.1-0.1 0.1-0.1 0.2-0.1-0.6-0.5-0.9-1-1-0.5-0.3-1-0.3-2-0.4-1-0.2-2-0.3-3-0.4h-1c-0.3 0-0.7 0.2-0.9 0.4 0.1 0 0 0.2-0.1 0.3z"/>
		<path class="st1" d="m42 55-0.1-0.8c0-0.4-0.3-0.6-0.8-0.9-0.4-0.2-0.9-0.3-1-0.3h-0.2c-1-0.2-2-0.3-3-0.4h-0.9-0.3c-0.3 0-0.4 0.1-0.6 0.3-0.1 0.1-0.1 0.2-0.2 0.3 0 0.1-0.1 0.1-0.1 0.2l-0.3 0.5-0.1-0.7c-0.5-0.8-0.8-2-0.8-2v-0.5-0.2c0-0.3 0.1-0.5 0.3-0.7 1-1 2-2 4-2 0.8-0.1 2 0.2 2 0.7 0.3-0.2 0.6-0.3 0.9-0.3 1-0.3 3 0.1 3 1 0.3 0.4 0.6 0.9 0.8 2 0 0.1 0.1 0.3 0 0.4v0.2c-0.3 0.7-0.4 1-0.9 2l-0.6 0.9-0.3 0.3c0 0.1-0.1 0.1-0.1 0.2zm-6-3h0.7c1 0.1 2 0.2 3 0.4h0.2c0.5 0.1 1 0.2 2 0.4 0.3 0.2 0.7 0.3 0.9 0.8 0.2-0.3 0.3-0.5 0.5-0.7 0.3-0.6 0.6-1 0.8-2l0.1-0.3c-0.2-0.5-0.3-0.9-0.7-1-0.7-0.9-2-1-3-0.9-0.8 0.2-2 0.7-2 1 0 0 0 0.1-0.1 0.1l-0.3 0.3-0.6-0.5 0.2-0.3c0.3-0.3 0.5-0.7 0.9-1-0.4-0.3-0.9-0.3-2-0.3-1 0.1-2 0.7-3 2v0.3 0.2 0.4c0 0.5 0.2 1 0.4 2 0.3-0.3 0.7-0.5 1-0.5h0.1c0.2 0 0.2 0 0.4 0.1-0.2 0-0.1 0 0 0zm8-1zm0-0.1z"/>
		<path class="st3" d="m34 50 0.3-0.9c0.4-1 0.9-2 1-3 0.1-0.1 0.1-0.2 0.3-0.1 3 0.5 6 0.3 8-0.5 0.4 0.9 0.9 4 0.3 6 0-0.1-0.1-0.1-0.1-0.2-0.3-0.7-0.6-1-1-2-1-0.9-2-0.9-3-0.3-0.1 0.1-0.3 0.1-0.3 0.2-1-0.8-2-0.9-4-0.4-0.7 0.2-1 0.6-2 2 0.1 0 0 0 0 0z"/>
		<path class="st1" d="m44 51-0.1-0.3s0-0.1-0.1-0.1c-0.3-0.8-0.6-1-1-2-0.9-0.8-2-0.9-3-0.3-0.1 0-0.2 0.1-0.3 0.1 0 0-0.1 0-0.1 0.1h-0.2c-1-0.8-2-0.9-3-0.4-0.9 0.3-2 0.8-2 2v0.1l-0.1-0.1v-0.1l0.1-0.3c0.1-0.2 0.2-0.4 0.2-0.6 0.4-1 0.9-2 1-3 0.1-0.2 0.2-0.2 0.3-0.2 3 0.3 6 0.2 8-0.7h0.1 0.1v0.1c0.5 0.9 0.9 4 0.3 6zm-3-3c0.7 0 1 0.3 2 0.7 0.5 0.4 0.9 0.9 1 2 0.3-2 0-5-0.4-5-3 0.9-6 1-8 0.5-0.1 0-0.1 0-0.2 0.1-0.5 1-0.9 2-1 3-0.1 0.2-0.2 0.4-0.2 0.6 0.7-0.8 1-1 2-2 1-0.5 2-0.3 4 0.4h0.1c0.1-0.1 0.2-0.1 0.3-0.1 0.5-0.3 0.9-0.4 2-0.4z"/>
		<path class="st4" d="m39 52c0.6 0.2 1 0.3 2 0.4 0.4 0.1 0.9 0.3 1 0.7 0.2 0.2 0.3 0.3 0.3 0.6 0 0 0 0.1-0.1 0.1-0.5 0.5-1 0.9-2 1-0.6 0.1-1 0-2-0.1-0.6-0.2-1-0.3-2-0.5-0.9-0.3-2-0.8-2-2-0.1-0.1-0.1-0.2 0-0.3 0.2-0.3 0.3-0.6 0.7-0.7 0.2-0.1 0.4-0.1 0.6-0.1 1 0 2 0.1 3 0.2-0.1 0.1 0 0.1 0.1 0.1z"/>
		<path class="st1" d="m40 56c-0.4 0-0.9-0.1-1-0.2-0.3-0.1-0.4-0.1-0.7-0.2s-0.7-0.2-1-0.3c-1-0.4-2-0.9-2-2-0.1-0.1-0.2-0.3 0-0.4l0.1-0.1c0.2-0.3 0.3-0.5 0.7-0.7 0.2-0.1 0.4-0.1 0.7-0.1 1 0 2 0.1 3 0.2h0.1l0.3 0.1c0.1 0 0.3 0.1 0.3 0.1 0.4 0.1 0.9 0.2 1 0.3 0.5 0.1 0.9 0.3 1 0.7 0.2 0.2 0.3 0.4 0.3 0.8 0 0.1-0.1 0.2-0.1 0.3-0.7 0.6-1 1-2 1h-0.5zm-1-0.6c0.7 0.1 1 0.2 2 0.1 0.7-0.1 1-0.4 2-1 0-0.2-0.1-0.3-0.2-0.4-0.3-0.3-0.6-0.5-1-0.6s-0.9-0.2-1-0.3c-0.2 0-0.3-0.1-0.4-0.1l-0.3-0.1h-0.2c-0.9-0.2-2-0.2-3-0.2-0.2 0-0.4 0-0.6 0.1-0.3 0.1-0.3 0.3-0.5 0.5l-0.1 0.1c0.5 0.7 1 1 2 2 0.3 0.1 0.7 0.2 1 0.3 0.4 0.1 0.5 0.1 0.8 0.1zm4-0.9z"/>
		<path class="st4" d="m44 45c-3 0.9-6 1-8 0.5 0.1-0.1 0.1-0.2 0.2-0.3 0.1-0.2 0.3-0.4 0.3-0.6 0.1-0.1 0.1-0.2 0.3-0.2 1-0.1 2-0.3 3-0.6s2-0.6 3-1c0.2-0.1 0.3-0.2 0.5-0.3 0.4 0.9 0.8 2 1 2z"/>
		<path class="st1" d="m39 46c-1 0-2-0.1-3-0.3h-0.1l0.1-0.2c0-0.1 0.1-0.2 0.1-0.2 0-0.1 0.1-0.2 0.1-0.2 0.1-0.2 0.2-0.3 0.3-0.4 0.1-0.2 0.2-0.2 0.3-0.2 1-0.1 2-0.3 3-0.6 1-0.3 2-0.6 3-1 0.1-0.1 0.3-0.1 0.3-0.2l0.3-0.1 1 3h-0.1c-2 0.6-3 0.8-5 0.8zm-3-0.4c3 0.5 6 0.3 8-0.5l-1-2-0.1 0.1c-0.1 0.1-0.3 0.1-0.3 0.2-0.9 0.4-2 0.7-3 1-1 0.3-2 0.5-3 0.6-0.1 0-0.1 0-0.2 0.1-0.1 0.2-0.2 0.3-0.3 0.4 0 0.1-0.1 0.2-0.1 0.2-0.1-0.1-0.1 0-0.1 0.1z"/>
		<polygon class="st5" points="41 48 41 48 40 48 37 48 38 47 39 47 39 47 39 47 40 47 40 47 40 47 40 47 41 47 42 47 42 48 42 48"/>
		<path class="st1" d="m40 48-2-0.7 0.8-0.7 0.6-0.3 0.5-0.1h0.9l0.3 0.1 1 0.5 0.5 0.4 0.1 0.4-2 0.2zm-2-0.7 2 0.6 0.9-0.3 0.9-0.1 0.5 0.1v-0.2l-0.4-0.4-1-0.5-0.3-0.2h-0.9l-1 0.4z"/>
		<path class="st2" d="m34 53c-0.4-0.7-0.7-1-0.7-2v-0.7c0-0.2 0.1-0.3 0.2-0.5 0.9-1 2-2 4-2 0.8-0.1 2 0.2 2 0.7-0.5 0.3-0.9 0.7-1 1l0.1-0.1c0.5-0.8 1-1 2-2 1-0.3 2 0.1 3 1 0.3 0.4 0.5 0.9 0.7 1v0.2c-0.3 0.8-0.5 2-0.9 2-0.3 0.4-0.5 0.8-0.8 1 0 0.1-0.1 0.1-0.1 0.2-0.1-0.6-0.5-0.9-1-1-0.5-0.3-1-0.3-2-0.4-1-0.2-2-0.3-3-0.4h-1c-0.3 0-0.7 0.2-0.9 0.4 0 0-0.1 0.2-0.2 0.3z"/>
		<path class="st1" d="m42 54v-0.2c-0.1-0.6-0.5-0.9-0.9-1-0.4-0.3-0.9-0.3-1-0.4h-0.2c-1-0.2-2-0.3-3-0.4h-0.9-0.3c-0.3 0-0.6 0.2-0.8 0.4-0.1 0.1-0.1 0.2-0.2 0.3 0 0.1-0.1 0.1-0.1 0.2l-0.1 0.1-0.1-0.1c-0.4-0.8-0.7-2-0.8-2v-0.5-0.2c0-0.2 0.1-0.4 0.2-0.6 1-1 2-2 4-2 0.8-0.1 2 0.2 2 0.7 0.3-0.2 0.7-0.3 1-0.4 1-0.3 2 0.1 3 1 0.3 0.4 0.5 0.9 0.7 1v0.3l-0.1 0.3c-0.3 0.7-0.4 1-0.9 2-0.2 0.3-0.3 0.5-0.6 0.8l-0.3 0.3 0.2-0.2-0.1 0.1zm-6-2h0.7c1 0.1 2 0.2 3 0.4h0.2c0.5 0.1 0.9 0.2 2 0.4 0.4 0.3 0.9 0.5 1 1l0.3-0.3c0.2-0.3 0.4-0.5 0.6-0.8 0.3-0.6 0.6-1 0.9-2l0.1-0.3v-0.1c-0.2-0.5-0.4-0.9-0.7-1-0.7-0.9-2-1-3-1-0.9 0.2-2 0.7-2 2l-0.2 0.2-0.2-0.2v-0.1c0.3-0.4 0.6-0.9 1-1-0.6-0.4-1-0.6-2-0.6-1 0.1-2 0.7-3 2-0.2 0.3-0.2 0.4-0.2 0.6v0.2 0.5c0 0.7 0.3 1 0.6 2 0.1-0.1 0.1-0.2 0.2-0.3 0.3-0.3 0.6-0.5 0.9-0.5 0.1-0.1 0.2-0.1 0.3-0.1-0.1 0 0 0 0 0z"/>
			<path class="st6" d="m32 31"/>
			<path class="st7" d="m15 23-8-8 21-6 0.8 3-17 5 5 4c2-1 3-2 5-3 7-2 15 2 17 9s-2 15-9 17-15-2-17-9c-1-4-0.4-9 2-12"/>
			<polygon class="st1" points="28 9 29 12 9 18 6 15"/>
			<circle class="st8" cx="53" cy="31" r="3"/>
			<circle class="st9" cx="53" cy="31" r="2"/>
			<circle class="st10" cx="53" cy="31" r=".8"/>
			<circle class="st8" cx="26" cy="31" r="3"/>
			<circle class="st9" cx="26" cy="31" r="2"/>
			<circle class="st10" cx="26" cy="31" r=".8"/>
	<path class="st6" d="m32 31"/>
	<circle class="st8" cx="53" cy="31" r="3"/>
	<circle class="st9" cx="53" cy="31" r="2"/>
	<circle class="st10" cx="53" cy="31" r=".8"/>
	<circle class="st9" cx="26" cy="31" r="2"/>
	<circle class="st10" cx="26" cy="31" r=".8"/>
	<circle class="st1" cx="26" cy="31" r="3"/>
			<path class="st7" d="m64 23c2 3 3 8 2 12-2 7-10 11-17 9-7-2-11-10-9-17s10-11 17-9c2 0.6 4 2 5 3l5-4-17-5 0.8-3 21 6-8 8"/>
			<polygon class="st1" points="50 12 51 9 72 15 70 18"/>
	<circle class="st1" cx="53" cy="31" r="3"/>
</g>
</svg>
