<?xml version="1.0" encoding="UTF-8" standalone="no"?>
<svg
   xmlns:dc="http://purl.org/dc/elements/1.1/"
   xmlns:cc="http://creativecommons.org/ns#"
   xmlns:rdf="http://www.w3.org/1999/02/22-rdf-syntax-ns#"
   xmlns:svg="http://www.w3.org/2000/svg"
   xmlns="http://www.w3.org/2000/svg"
   xmlns:sodipodi="http://sodipodi.sourceforge.net/DTD/sodipodi-0.dtd"
   xmlns:inkscape="http://www.inkscape.org/namespaces/inkscape"
   viewBox="0 0 225.8 164.54"
   version="1.1"
   id="svg22"
   sodipodi:docname="MartySignalIndicator.svg"
   inkscape:version="1.0.2 (1.0.2+r75+1)">
  <metadata
     id="metadata28">
    <rdf:RDF>
      <cc:Work
         rdf:about="">
        <dc:format>image/svg+xml</dc:format>
        <dc:type
           rdf:resource="http://purl.org/dc/dcmitype/StillImage" />
      </cc:Work>
    </rdf:RDF>
  </metadata>
  <defs
     id="defs26" />
  <sodipodi:namedview
     pagecolor="#ffffff"
     bordercolor="#666666"
     borderopacity="1"
     objecttolerance="10"
     gridtolerance="10"
     guidetolerance="10"
     inkscape:pageopacity="0"
     inkscape:pageshadow="2"
     inkscape:window-width="1920"
     inkscape:window-height="1056"
     id="namedview24"
     showgrid="false"
     inkscape:zoom="4.8582816"
     inkscape:cx="112.9"
     inkscape:cy="90.50336"
     inkscape:window-x="1920"
     inkscape:window-y="0"
     inkscape:window-maximized="1"
     inkscape:current-layer="svg22"
     inkscape:document-rotation="0" />
  <path
     d="M179.65,97.86c0,19-.2,38,.11,57,.11,7-2.38,10-9.54,9.65-7.78-.38-15.6-.21-23.4-.05-5.43.11-8.16-1.9-8.14-7.71q.13-58.92,0-117.86c0-5.47,2-8.2,7.81-8,8.31.21,16.65.24,25,0,6.16-.19,8.28,2.69,8.25,8.51C179.57,58.83,179.65,78.34,179.65,97.86Z"
     fill="#10243c"
     id="path2" />
  <path
     d="M92.52,113c0-14.31.17-28.62-.09-42.93-.1-6,2.06-8.54,8.19-8.31,8.31.32,16.64.21,25,0,5.11-.1,7.73,1.68,7.71,7.19q-.15,44.1,0,88.2c0,5-2.21,7.16-7,7.16-8.84,0-17.68,0-26.52,0-5.24,0-7.39-2.33-7.32-7.65C92.65,142.18,92.52,127.61,92.52,113Z"
     fill="#10243c"
     id="path4" />
  <path
     d="M225.64,82.86c0,23.94-.26,47.89.16,71.82.13,7.72-2.72,10.21-10,9.82-7.52-.4-15.08-.23-22.62-.05-5.84.13-8.42-2.12-8.4-8.29q.21-73.75,0-147.53c0-5.89,2-8.73,8.09-8.59C200.9.22,209,.28,217,0c6.29-.21,8.78,2.2,8.72,8.7C225.49,33.43,225.64,58.15,225.64,82.86ZM215.3,154V10.77H195.6V154Z"
     fill="#10243c"
     id="path6" />
  <path
     d="m 211.08945,157.1 h -10.1 c -4.17,0 -7.56,-2.78 -7.56,-6.2 V 13.059999 c 0,-3.4200005 3.39,-6.2000005 7.56,-6.2000005 h 10.1 c 4.17,0 7.56,2.78 7.56,6.2000005 V 150.9 c 0,3.42 -3.39,6.2 -7.56,6.2 z"
     fill="#ffffff"
     id="path12-3"/>
  <path
     d="M46.1,127.88c0-9.1.12-18.19,0-27.29-.1-5.61,2.28-8,7.95-7.85q12.45.35,24.93,0c5.52-.16,8.16,1.83,8.12,7.61q-.19,28.07,0,56.13c0,5.62-2.26,8.07-7.88,8-8.57-.16-17.14-.11-25.71,0-5.28.05-7.47-2.52-7.4-7.69C46.19,147.11,46.1,137.49,46.1,127.88Z"
     fill="#10243c"
     id="path8" />
  <path
     d="M40.92,144.28c-.22,22.09,3,20.18-19.87,20.1C-3.61,164.3.25,167.11.18,143.15c-.07-21.89-3.24-19.76,20-19.77C44,123.38,40.69,121.15,40.92,144.28Z"
     fill="#10243c"
     id="path10" />
  <path
     d="m 211.08945,157.1 h -10.1 c -4.17,0 -7.56,-2.78 -7.56,-6.2 V 13.06 c 0,-3.42 3.39,-6.2 7.56,-6.2 h 10.1 c 4.17,0 7.56,2.78 7.56,6.2 V 150.9 c 0,3.42 -3.39,6.2 -7.56,6.2 z"
     fill="#000050"
     id="path12" />
  <path
     d="M 164.07,157.48 H 154 c -4.18,0 -7.56,-2.16 -7.56,-4.82 V 45.269999 c 0,-2.66 3.38,-4.82 7.56,-4.82 h 10.09 c 4.18,0 7.56,2.16 7.56,4.82 V 152.66 c -0.02,2.66 -3.4,4.82 -7.58,4.82 z"
     fill="#ffffff"
     id="path14-5" />
  <path
     d="M164.07,157.48H154c-4.18,0-7.56-2.16-7.56-4.82V45.27c0-2.66,3.38-4.82,7.56-4.82h10.09c4.18,0,7.56,2.16,7.56,4.82V152.66C171.63,155.32,168.25,157.48,164.07,157.48Z"
     fill="#000040"
     id="path14" />
  <path
     d="m 117.92,157.1 h -10.1 c -4.17,0 -7.56,-1.61 -7.56,-3.6 V 73.409998 c 0,-2 3.39,-3.6 7.56,-3.6 h 10.1 c 4.17,0 7.56,1.609999 7.56,3.6 V 153.5 c 0,1.99 -3.39,3.6 -7.56,3.6 z"
     fill="#ffffff"
     id="path16-7" />
  <path
     d="M117.92,157.1h-10.1c-4.17,0-7.56-1.61-7.56-3.6V73.41c0-2,3.39-3.6,7.56-3.6h10.1c4.17,0,7.56,1.61,7.56,3.6V153.5C125.48,155.49,122.09,157.1,117.92,157.1Z"
     fill="#000030"
     id="path16" />
  <path
     d="m 71.135968,156.78595 h -10.1 c -4.17,0 -7.56,-1 -7.56,-2.25 v -50 c 0,-1.24 3.39,-2.25 7.56,-2.25 h 10.1 c 4.17,0 7.56,1 7.56,2.25 v 50 c 0,1.24 -3.39,2.25 -7.56,2.25 z"
     fill="#ffffff"
     id="path18-6" />
  <path
     d="m 71.135968,156.78595 h -10.1 c -4.17,0 -7.56,-1 -7.56,-2.25 v -50 c 0,-1.24 3.39,-2.25 7.56,-2.25 h 10.1 c 4.17,0 7.56,1 7.56,2.25 v 50 c 0,1.24 -3.39,2.25 -7.56,2.25 z"
     fill="#000020"
     id="path18" />
  <path
     d="M 25.53,157.48 H 15.44 c -4.18,0 -7.5599998,-0.46 -7.5599998,-1 v -23.2 c 0,-0.58 3.3799998,-1 7.5599998,-1 h 10.09 c 4.17,0 7.56,0.46 7.56,1 v 23.16 c 0,0.56 -3.39,1.04 -7.56,1.04 z"
     fill="#ffffff"
     id="path20-3" />
  <path
     d="M25.53,157.48H15.44c-4.18,0-7.56-.46-7.56-1V133.28c0-.58,3.38-1,7.56-1H25.53c4.17,0,7.56.46,7.56,1v23.16C33.09,157,29.7,157.48,25.53,157.48Z"
     fill="#000010"
     id="path20" />
</svg>
