<?xml version="1.0" encoding="UTF-8" standalone="no"?>
<svg
   xmlns:dc="http://purl.org/dc/elements/1.1/"
   xmlns:cc="http://creativecommons.org/ns#"
   xmlns:rdf="http://www.w3.org/1999/02/22-rdf-syntax-ns#"
   xmlns:svg="http://www.w3.org/2000/svg"
   xmlns="http://www.w3.org/2000/svg"
   xmlns:sodipodi="http://sodipodi.sourceforge.net/DTD/sodipodi-0.dtd"
   xmlns:inkscape="http://www.inkscape.org/namespaces/inkscape"
   viewBox="0 0 474.65184 489.47122"
   version="1.1"
   id="svg564"
   sodipodi:docname="MartyDisconnected2.svg"
   inkscape:version="1.0.2 (1.0.2+r75+1)"
   width="474.65182"
   height="489.47122">
  <sodipodi:namedview
     pagecolor="#ffffff"
     bordercolor="#666666"
     borderopacity="1"
     objecttolerance="10"
     gridtolerance="10"
     guidetolerance="10"
     inkscape:pageopacity="0"
     inkscape:pageshadow="2"
     inkscape:window-width="1920"
     inkscape:window-height="1056"
     id="namedview1455"
     showgrid="false"
     inkscape:zoom="1.3375394"
     inkscape:cx="338.06318"
     inkscape:cy="225.71425"
     inkscape:window-x="1920"
     inkscape:window-y="0"
     inkscape:window-maximized="1"
     inkscape:current-layer="svg564"
     inkscape:document-rotation="0"
     fit-margin-top="0"
     fit-margin-left="0"
     fit-margin-right="0"
     fit-margin-bottom="0" />
  <metadata
     id="metadata570">
    <rdf:RDF>
      <cc:Work
         rdf:about="">
        <dc:format>image/svg+xml</dc:format>
        <dc:type
           rdf:resource="http://purl.org/dc/dcmitype/StillImage" />
        <dc:title></dc:title>
      </cc:Work>
    </rdf:RDF>
  </metadata>
  <defs
     id="defs568">
    <clipPath
       clipPathUnits="userSpaceOnUse"
       id="clipPath1400">
      <path
         d="m 573.768,439.653 c -0.716,0 -1.295,-0.581 -1.295,-1.296 v 0 -22.784 c 0,-0.715 0.579,-1.295 1.295,-1.295 v 0 h 53.446 c 0.715,0 1.295,0.58 1.295,1.295 v 0 22.784 c 0,0.715 -0.58,1.296 -1.295,1.296 v 0 z"
         id="path1398" />
    </clipPath>
  </defs>
  <g
     id="g1394"
     transform="matrix(21.118119,0,0,-21.118119,-12802.195,9237.5077)">
    <g
       id="g1396"
       clip-path="url(#clipPath1400)">
      <g
         id="g1402"
         transform="translate(621.6777,410.8391)">
        <path
           d="M 0,0 -0.037,0.634 C 0.004,0.35 0.013,0.149 0,0 m -5.564,-1.06 0.466,-0.583 c -0.192,0.211 -0.366,0.444 -0.461,0.574 -0.002,0.003 -0.003,0.006 -0.005,0.009 M -6.08,0.068 -6.042,-0.029 -6.075,0.049 C -6.078,0.054 -6.078,0.062 -6.08,0.068 m -7.271,0.057 c 0.009,-0.003 0.015,-0.008 0.023,-0.01 l 0.062,-0.058 z M 1.716,25.799 1.68,25.755 C 1.677,25.754 1.675,25.754 1.672,25.753 Z M 0.985,6.875 0.705,7.524 1.973,8.071 2.253,7.423 Z m -1.073,1.57 -0.27,0.625 1.743,0.753 0.27,-0.625 z M 3.455,1.242 4.858,1.829 6.548,-2.004 5.038,-2.656 3.454,1.242 c 0,0.001 10e-4,-10e-4 10e-4,0 M 1.317,17.739 c 0.007,-0.002 0.014,10e-4 0.022,0 -0.005,-0.006 -0.012,-0.01 -0.016,-0.016 z m -13.508,-5.825 0.012,-0.028 c -0.013,0.003 -0.027,-10e-4 -0.04,0 0.008,0.011 0.021,0.016 0.028,0.028 m 5.756,-6.209 -0.27,0.625 1.743,0.753 0.27,-0.625 z m 1.073,-1.57 -0.28,0.648 1.268,0.548 0.28,-0.648 z m 3.748,-9.601 -1.527,3.759 c 0.002,0 0.003,-0.004 0.006,-0.003 l 1.403,0.588 1.628,-3.693 z m 11.959,2.016 -0.353,0.819 c -0.001,10e-4 -0.003,0 -0.004,10e-4 -10e-4,0.002 0,0.005 -10e-4,0.008 l -0.855,1.405 c -0.085,0.15 -0.269,0.212 -0.428,0.143 L 8.29,-1.252 c 0.004,0.16 -0.013,0.321 -0.073,0.47 L 7.09,2.011 C 6.988,2.263 6.787,2.468 6.533,2.575 6.472,2.596 6.412,2.617 6.351,2.639 6.406,3.02 6.312,3.639 6.245,3.993 6.225,4.097 6.193,4.2 6.151,4.298 L 5.776,5.165 C 5.725,5.285 5.598,5.435 5.465,5.479 v 0 0 C 5.464,5.479 5.463,5.48 5.463,5.481 5.458,5.482 5.457,5.475 5.453,5.476 5.444,5.481 5.441,5.494 5.431,5.498 5.281,5.555 5.116,5.552 4.967,5.487 L 4.881,5.45 4.426,6.505 4.893,6.707 C 5.048,6.774 5.12,6.955 5.053,7.11 L 2.38,13.302 C 2.297,13.495 2.072,13.584 1.878,13.501 L 1.483,13.33 1.294,13.769 2.093,14.114 c 0.245,0.106 0.391,0.335 0.42,0.584 0.08,-0.084 0.194,-0.131 0.307,-0.082 l 0.082,0.036 c 0.145,0.062 0.212,0.23 0.149,0.375 l -0.097,0.225 c 0.013,-0.007 0.023,-0.021 0.038,-0.015 l 0.705,0.305 c 0.248,0.107 0.402,0.36 0.384,0.63 l -0.472,6.666 0.002,10e-4 c 0.011,-0.003 0.02,-0.011 0.031,-0.007 0.005,0.003 0.01,0.006 0.014,0.011 l 0.014,0.012 c 0.004,0.001 0.008,-0.003 0.012,0 l 0.625,0.617 c 0.003,0.002 0.005,0.005 0.006,0.008 l 0.549,1.365 c 0.003,0.008 0.002,0.017 -0.003,0.024 l -1.026,1.4 C 3.83,26.274 3.825,26.277 3.819,26.278 L 3.817,26.279 3.81,26.288 C 3.804,26.296 3.795,26.303 3.785,26.306 L 3.537,26.377 C 3.481,26.393 3.424,26.39 3.368,26.379 L 3.334,26.387 C 3.325,26.389 3.315,26.385 3.31,26.377 L 3.287,26.347 C 3.247,26.328 3.205,26.313 3.173,26.28 L 2.7,25.714 C 2.697,25.711 2.702,25.708 2.701,25.705 2.693,25.701 2.682,25.704 2.675,25.699 2.642,25.674 2.62,25.635 2.617,25.593 L 2.602,25.386 c -0.006,-0.073 0.042,-0.14 0.112,-0.158 l 0.128,-0.034 c 0.108,-0.028 0.201,-0.089 0.27,-0.177 l 0.444,-0.558 c 0.095,-0.121 0.119,-0.283 0.062,-0.425 l -0.053,-0.132 -1.07,0.238 -0.624,0.869 0.216,0.333 c 0.027,0.009 0.05,0.016 0.07,0.036 0.011,-0.003 0.022,-0.01 0.033,-0.006 0.006,0.003 0.011,0.006 0.016,0.011 l 0.494,0.508 0.075,0.064 c 0.006,0.005 0.009,0.012 0.009,0.019 v 0.049 c 0.012,0.029 0.034,0.053 0.034,0.087 l -0.013,0.305 c -0.002,0.027 -0.024,0.048 -0.051,0.046 -0.008,0 -0.007,-0.011 -0.013,-0.014 -0.011,0.01 -0.016,0.025 -0.03,0.029 L 2.509,26.535 C 2.487,26.541 2.465,26.534 2.442,26.534 L 2.429,26.54 c -0.01,0.005 -0.021,0.002 -0.028,-0.006 -0.002,-10e-4 -0.005,0 -0.008,0 -10e-4,0.002 0.002,0.004 0,0.006 -0.009,0.01 -0.025,0.009 -0.034,-10e-4 L 2.32,26.499 C 2.299,26.485 2.274,26.477 2.258,26.457 L 2.123,26.293 1.518,25.662 C 1.516,25.661 1.515,25.659 1.514,25.657 L 1.466,25.564 C 1.465,25.563 1.464,25.563 1.463,25.562 L 0.924,24.672 C 0.824,24.506 0.831,24.294 0.942,24.133 L 1.675,23.085 C 1.764,22.956 1.905,22.87 2.06,22.848 L 2.187,22.83 2.375,17.939 1.913,17.739 C 1.897,17.733 1.9,17.715 1.897,17.7 l -0.008,0.02 c -0.044,0.101 -0.141,0.143 -0.244,0.151 0.035,0.05 0.048,0.098 0.052,0.159 0.007,0.007 0.014,0.015 0.01,0.025 -0.002,0.004 -0.008,0.002 -0.011,0.004 -10e-4,0.038 0.015,0.075 -10e-4,0.113 l -1.518,3.516 c -0.013,0.03 -0.046,0.04 -0.066,0.063 l 0.401,0.422 c 0.003,0.002 0.005,0.007 0.006,0.011 0.002,0.006 0.018,0.024 0.027,0.034 0.023,0.026 0.04,0.045 0.033,0.066 -0.004,0.01 -0.012,0.018 -0.024,0.02 l -1.331,0.284 -0.094,0.217 c -0.158,0.366 -0.585,0.536 -0.951,0.378 l -0.576,-0.249 -2.308,0.493 c -0.019,0.004 -0.039,0.001 -0.055,-0.01 -0.017,-0.01 -0.028,-0.027 -0.033,-0.046 l -0.09,-0.413 c -10e-4,-0.002 0.001,-0.004 0,-0.006 v -0.004 c -10e-4,-0.001 0.002,-0.002 0.002,-0.003 -0.001,-0.015 -0.001,-0.03 0.008,-0.043 0.008,-0.013 0.022,-0.019 0.035,-0.024 0.007,-0.003 0.004,-0.015 0.011,-0.017 l 1.5,-0.328 -9.42,-4.067 0.746,1.253 c 0.01,0.017 0.014,0.036 0.009,0.056 -0.005,0.019 -0.017,0.035 -0.034,0.045 l -0.363,0.216 c -0.017,0.01 -0.037,0.013 -0.056,0.008 -0.019,-0.004 -0.034,-0.017 -0.045,-0.033 l -1.169,-1.939 -0.338,-0.146 c -0.367,-0.158 -0.536,-0.585 -0.378,-0.951 l 0.022,-0.053 -0.915,-1.518 c -0.006,-0.01 -0.006,-0.021 -10e-4,-0.03 0.003,-0.007 0.017,-0.004 0.023,-0.007 -0.004,-0.014 -0.008,-0.028 0,-0.04 0.009,-0.016 0.026,-0.025 0.045,-0.023 l 0.933,0.071 1.491,-3.452 c 0.016,-0.037 0.053,-0.05 0.08,-0.077 -10e-4,-0.005 -0.006,-0.007 -0.005,-0.012 0.005,-0.01 0.017,-0.013 0.028,-0.011 0.046,-0.038 0.09,-0.061 0.15,-0.07 -0.065,-0.08 -0.101,-0.18 -0.057,-0.28 l 0.082,-0.192 -0.71,-0.307 c -0.254,-0.11 -0.412,-0.37 -0.393,-0.646 l 0.505,-7.145 -0.217,-0.059 c -0.155,-0.042 -0.287,-0.148 -0.361,-0.29 l -0.612,-1.163 c -0.093,-0.178 -0.073,-0.394 0.051,-0.551 l 0.664,-0.837 c 0,0 0,0 0,0 l 0.063,-0.09 c 10e-4,-0.002 0.003,-0.004 0.005,-0.006 l 0.705,-0.571 0.152,-0.143 c 0.019,-0.018 0.043,-0.022 0.065,-0.033 l 0.048,-0.038 c 0.007,-0.006 0.017,-0.007 0.025,-0.004 10e-4,0 0.002,0.001 0.002,0.002 10e-4,0 10e-4,0 10e-4,0 l 0.024,0.015 c 0.034,-0.001 0.068,-0.002 0.1,0.011 l 0.198,0.086 c 0.014,0.006 0.017,0.022 0.026,0.034 0.007,-0.003 0.008,-0.014 0.016,-0.013 0.005,0 0.01,0.002 0.015,0.004 0.019,0.008 0.031,0.027 0.029,0.048 l -0.025,0.316 c -0.009,0.062 -0.04,0.117 -0.089,0.156 l -0.628,0.502 c -0.015,0.012 -0.032,0.002 -0.048,-0.005 -0.038,0.032 -0.085,0.048 -0.137,0.041 l -0.247,0.293 0.312,0.575 0.213,0.392 1.114,0.372 0.061,-0.11 C -11.497,1.98 -11.5,1.811 -11.582,1.676 l -0.381,-0.627 c -0.059,-0.098 -0.146,-0.174 -0.253,-0.216 l -0.126,-0.05 c -0.066,-0.03 -0.108,-0.101 -0.093,-0.175 l 0.042,-0.209 c 0.009,-0.042 0.035,-0.078 0.072,-0.099 0.009,-0.005 0.019,0 0.027,-0.003 0.002,-0.003 -0.002,-0.007 0.001,-0.01 l 0.558,-0.518 c 0.01,-0.009 0.024,-0.008 0.035,-0.015 l 0.07,-0.075 c 0.007,-0.007 0.017,-0.009 0.026,-0.006 l 0.053,0.019 c 0.065,-0.008 0.133,0 0.195,0.028 l 0.243,0.104 c 0.01,0.005 0.018,0.012 0.023,0.021 l 0.761,1.36 c 0.017,0.033 0.016,0.071 0.025,0.106 l 0.058,0.105 c 0.004,0.008 0.004,0.017 0,0.024 l -0.064,0.116 c -0.01,0.031 -0.009,0.065 -0.026,0.095 l -0.624,1.122 c -0.003,0.006 -0.007,0.011 -0.013,0.015 l -0.698,0.534 -0.199,5.184 0.493,0.213 c 0.006,0.002 0.002,0.01 0.006,0.013 0.078,-0.1 0.204,-0.154 0.327,-0.101 l 0.082,0.035 c 0.118,0.051 0.164,0.174 0.15,0.295 0.202,-0.158 0.477,-0.212 0.729,-0.103 l 0.507,0.219 0.19,-0.441 -0.207,-0.089 C -9.654,8.521 -9.684,8.464 -9.721,8.415 L -9.818,8.373 -9.788,8.304 C -9.809,8.227 -9.819,8.144 -9.785,8.064 L -7.1,1.845 C -7.067,1.77 -7.005,1.718 -6.933,1.691 l 10e-4,-0.003 0.008,0.004 C -6.859,1.67 -6.787,1.665 -6.72,1.694 L -6.269,1.889 -5.813,0.833 -5.889,0.8 C -6.038,0.736 -6.153,0.619 -6.214,0.47 -6.218,0.46 -6.211,0.45 -6.213,0.439 -6.216,0.436 -6.222,0.44 -6.224,0.436 -6.284,0.309 -6.262,0.112 -6.209,-0.009 l 0.374,-0.868 c 0.043,-0.098 0.096,-0.191 0.158,-0.277 0.25,-0.346 0.542,-0.713 0.829,-0.912 -0.023,-0.05 -0.046,-0.099 -0.069,-0.149 -0.099,-0.255 -0.092,-0.535 0.019,-0.788 l 1.221,-2.752 c 0.08,-0.179 0.215,-0.323 0.37,-0.443 l -0.455,-0.196 c -0.158,-0.069 -0.24,-0.245 -0.189,-0.407 l 0.436,-1.584 c 0.001,-0.004 0.006,-0.005 0.007,-0.009 0,-0.002 -0.003,-0.003 -0.003,-0.005 l 0.354,-0.819 c 0.018,-0.075 0.067,-0.139 0.136,-0.175 0.072,-0.038 0.156,-0.041 0.23,-0.009 l 1.906,0.823 c 0.018,0.008 0.033,0.023 0.039,0.042 0.006,0.016 0.006,0.034 0,0.05 l 1.537,0.664 c 0.017,-0.035 0.058,-0.05 0.094,-0.035 L 2.54,-7.1 c 0.08,0.034 0.141,0.099 0.173,0.18 0.03,0.082 0.027,0.17 -0.008,0.246 L 2.176,-5.372 C 2.172,-5.364 2.16,-5.37 2.154,-5.363 L 1.66,-4.134 c -0.004,0.011 -0.02,0.005 -0.029,0.012 0.014,0.181 0.002,0.362 -0.066,0.53 L 0.438,-0.799 C 0.357,-0.597 0.2,-0.441 0.015,-0.326 0.243,-0.116 0.139,0.571 0.007,1.231 -0.002,1.274 -0.01,1.312 -0.016,1.343 -0.03,1.417 -0.052,1.489 -0.082,1.558 L -0.51,2.552 C -0.585,2.723 -0.743,2.859 -0.905,2.89 -0.911,2.891 -0.912,2.882 -0.918,2.882 -0.928,2.884 -0.935,2.896 -0.946,2.895 -1.011,2.893 -1.075,2.879 -1.136,2.853 l -0.33,-0.143 -0.455,1.055 0.467,0.201 c 0.155,0.067 0.227,0.248 0.16,0.404 l -2.673,6.192 c -0.084,0.193 -0.309,0.282 -0.502,0.199 l -0.396,-0.172 -0.19,0.44 1.827,0.788 0.19,-0.44 -0.208,-0.09 c -0.05,-0.021 -0.071,-0.07 -0.105,-0.108 l -0.095,-0.041 0.017,-0.04 C -3.47,11.007 -3.48,10.903 -3.438,10.805 L -0.753,4.586 C -0.689,4.439 -0.519,4.371 -0.372,4.435 L 0.078,4.629 0.534,3.574 0.213,3.435 C 0.152,3.409 0.098,3.372 0.052,3.327 0.044,3.319 0.048,3.306 0.042,3.297 0.039,3.293 0.032,3.298 0.029,3.294 -0.06,3.154 -0.07,2.945 0.004,2.774 L 0.433,1.781 C 0.463,1.712 0.5,1.646 0.544,1.586 0.563,1.559 0.586,1.527 0.611,1.492 0.986,0.962 1.399,0.44 1.705,0.422 1.663,0.216 1.667,0.004 1.754,-0.193 L 2.975,-2.945 C 3.058,-3.132 3.2,-3.283 3.366,-3.404 3.351,-3.425 3.33,-3.445 3.341,-3.47 L 3.897,-4.672 C 3.898,-4.681 3.885,-4.686 3.889,-4.694 l 0.583,-1.274 c 0.032,-0.081 0.094,-0.144 0.175,-0.178 0.081,-0.033 0.169,-0.033 0.249,0.002 l 1.755,0.758 c 0.036,0.015 0.053,0.056 0.04,0.092 l 1.536,0.663 c 0.008,-0.015 0.021,-0.027 0.037,-0.034 0.018,-0.008 0.039,-0.008 0.058,0 l 1.905,0.822 c 0.074,0.032 0.13,0.096 0.152,0.174 0.021,0.075 0.009,0.154 -0.034,0.219"
           style="fill:#000000;fill-opacity:1;fill-rule:nonzero;stroke:none"
           id="path1404" />
      </g>
    </g>
  </g>
</svg>
