<?xml version="1.0" encoding="UTF-8" standalone="no"?>
<svg
   xmlns:dc="http://purl.org/dc/elements/1.1/"
   xmlns:cc="http://creativecommons.org/ns#"
   xmlns:rdf="http://www.w3.org/1999/02/22-rdf-syntax-ns#"
   xmlns:svg="http://www.w3.org/2000/svg"
   xmlns="http://www.w3.org/2000/svg"
   xmlns:sodipodi="http://sodipodi.sourceforge.net/DTD/sodipodi-0.dtd"
   xmlns:inkscape="http://www.inkscape.org/namespaces/inkscape"
   viewBox="0 0 553.3751 221.76"
   version="1.1"
   id="svg675"
   sodipodi:docname="MartyConnectButton.svg"
   inkscape:version="1.0.2 (1.0.2+r75+1)"
   width="553.37512"
   height="221.75999">
  <metadata
     id="metadata679">
    <rdf:RDF>
      <cc:Work
         rdf:about="">
        <dc:format>image/svg+xml</dc:format>
        <dc:type
           rdf:resource="http://purl.org/dc/dcmitype/StillImage" />
        <dc:title />
      </cc:Work>
    </rdf:RDF>
  </metadata>
  <sodipodi:namedview
     pagecolor="#ffffff"
     bordercolor="#666666"
     borderopacity="1"
     objecttolerance="10"
     gridtolerance="10"
     guidetolerance="10"
     inkscape:pageopacity="0"
     inkscape:pageshadow="2"
     inkscape:window-width="1920"
     inkscape:window-height="1056"
     id="namedview677"
     showgrid="false"
     inkscape:zoom="2"
     inkscape:cx="127.69873"
     inkscape:cy="141.60962"
     inkscape:window-x="1920"
     inkscape:window-y="0"
     inkscape:window-maximized="1"
     inkscape:current-layer="svg675"
     fit-margin-top="0"
     fit-margin-left="0"
     fit-margin-right="0"
     fit-margin-bottom="0"
     inkscape:document-rotation="0" />
  <defs
     id="defs5">
    <clipPath
       id="a">
      <circle
         cx="116.3"
         cy="111.03"
         r="103.83"
         fill="none"
         id="circle2" />
    </clipPath>
  </defs>
  <rect
     x="122.21512"
     y="32.400002"
     width="429.07001"
     height="166.8"
     rx="26.15"
     fill="#37abc8"
     id="rect7" />
  <path
     d="m 525.23512,201.3 h -377 a 28.18,28.18 0 0 1 -28.14,-28.15 V 58.44 a 28.16,28.16 0 0 1 28.14,-28.12 h 377 a 28.16,28.16 0 0 1 28.14,28.12 v 114.71 a 28.18,28.18 0 0 1 -28.14,28.15 z m -377,-166.79 a 24,24 0 0 0 -24,23.93 v 114.71 a 24,24 0 0 0 24,24 h 377 a 24,24 0 0 0 24,-24 V 58.44 a 24,24 0 0 0 -24,-23.93 z"
     fill="#10243c"
     id="path9" />
  <g
     id="g8419"
     transform="translate(-0.45487995)">
    <g
       id="g8400">
      <path
         d="m 315.67,165.71 h -5.76 v -35.64 c 0,-4.89 2.31,-7.36 6.9,-7.36 h 4.29 c 4.59,0 6.9,2.47 6.9,7.36 v 35.64 h -5.76 V 150 h -6.57 z m 6.57,-20.94 v -14.32 a 2.21,2.21 0 0 0 -2.5,-2.52 h -1.57 a 2.22,2.22 0 0 0 -2.5,2.52 v 14.32 z"
         fill="#ffffff"
         id="path31" />
      <path
         d="m 354.35,148 5.32,-25.29 H 366 v 43 h -5.76 l 0.6,-28.14 -4.29,20.37 h -4.43 l -4.32,-20.37 0.6,28.14 h -5.76 v -43 H 349 Z"
         fill="#ffffff"
         id="path33" />
      <path
         d="m 376.87,165.71 h -5.76 v -35.64 c 0,-4.89 2.31,-7.36 6.9,-7.36 h 4.29 c 4.59,0 6.9,2.47 6.9,7.36 v 35.64 h -5.76 V 150 h -6.57 z m 6.57,-20.94 v -14.32 a 2.21,2.21 0 0 0 -2.5,-2.52 h -1.57 a 2.22,2.22 0 0 0 -2.5,2.52 v 14.32 z"
         fill="#ffffff"
         id="path35" />
      <path
         d="m 394.28,122.71 h 11.28 c 4.37,0 6.57,2.47 6.57,7.36 v 10.62 c 0,3.75 -1.14,6.11 -3.4,7.12 l 4,17.9 h -5.44 l -3.77,-17.36 H 400 v 17.36 h -5.76 z m 5.72,20.73 h 3.78 c 1.71,0 2.58,-1 2.58,-3.13 v -9.26 c 0,-2.09 -0.87,-3.12 -2.58,-3.12 H 400 Z"
         fill="#ffffff"
         id="path37" />
      <path
         d="m 426.09,127.93 v 37.78 h -5.76 v -37.78 h -5.51 v -5.22 h 16.76 v 5.22 z"
         fill="#ffffff"
         id="path39" />
      <path
         d="m 445.6,165.71 h -5.76 V 149.9 l -7.07,-27.19 h 5.71 l 4.29,18.69 H 443 l 3.89,-18.69 h 5.7 l -6.99,27.19 z"
         fill="#ffffff"
         id="path41" />
    </g>
    <g
       id="g8392"
       transform="translate(83.34015,161.28175)">
      <path
         d="m 216.13985,-66.33175 v 2.75 c 0,4.89 -2.31,7.3 -6.9,7.3 h -3.7 c -4.59,0 -6.9,-2.41 -6.9,-7.3 v -28.39 c 0,-4.86 2.31,-7.31 6.9,-7.31 h 3.7 c 4.59,0 6.9,2.45 6.9,7.31 v 4.88 h -5.76 v -4.45 a 2.24,2.24 0 0 0 -2.56,-2.55 h -1.16 q -2.28,0 -2.28,2.52 v 27.58 c 0,1.68 0.76,2.5 2.28,2.5 h 1.44 c 1.5,0 2.26,-0.82 2.26,-2.5 v -2.34 z"
         fill="#ffffff"
         id="path7102" />
      <path
         d="m 227.26985,-56.28175 c -4.64,0 -6.95,-2.41 -6.95,-7.3 v -28.34 c 0,-4.89 2.31,-7.36 6.9,-7.36 h 5.51 c 4.6,0 6.88,2.47 6.88,7.36 v 28.34 c 0,4.89 -2.31,7.3 -7,7.3 z m 1.39,-5.21 h 2.93 c 1.52,0 2.26,-0.82 2.26,-2.5 v -27.55 a 2.24,2.24 0 0 0 -2.56,-2.55 h -2.71 a 2.22,2.22 0 0 0 -2.5,2.52 v 27.58 c 0,1.68 0.84,2.5 2.58,2.5 z"
         fill="#ffffff"
         id="path7104" />
      <path
         d="m 256.65985,-78.50175 v -20.78 h 5.76 v 43 h -5.76 v -8.55 l -6.16,-19.59 v 28.14 h -5.84 v -43 h 5.76 z"
         fill="#ffffff"
         id="path7106" />
      <path
         d="m 279.65985,-78.50175 v -20.78 h 5.75 v 43 h -5.75 v -8.55 l -6.17,-19.59 v 28.14 h -5.76 v -43 h 5.76 z"
         fill="#ffffff"
         id="path7108" />
      <path
         d="m 290.80985,-56.28175 v -43 h 14.26 v 5.19 h -8.5 v 13.09 h 7.55 v 5.19 h -7.55 v 14.32 h 8.5 v 5.21 z"
         fill="#ffffff"
         id="path7110" />
      <path
         d="m 326.39985,-66.33175 v 2.75 c 0,4.89 -2.31,7.3 -6.9,7.3 h -3.7 c -4.59,0 -6.9,-2.41 -6.9,-7.3 v -28.39 c 0,-4.86 2.31,-7.31 6.9,-7.31 h 3.7 c 4.59,0 6.9,2.45 6.9,7.31 v 4.88 h -5.74 v -4.45 a 2.24,2.24 0 0 0 -2.57,-2.55 h -1.14 c -1.53,0 -2.29,0.84 -2.29,2.52 v 27.58 c 0,1.68 0.76,2.5 2.29,2.5 h 1.44 c 1.49,0 2.25,-0.82 2.25,-2.5 v -2.34 z"
         fill="#ffffff"
         id="path7112" />
      <path
         d="m 340.05985,-94.09175 v 37.78 h -5.76 v -37.78 h -5.51 v -5.19 h 16.76 v 5.19 z"
         fill="#ffffff"
         id="path7114" />
      <path
         d="m 367.65985,-94.09175 v 37.78 h -5.76 v -37.78 h -5.52 v -5.19 h 16.77 v 5.19 z"
         fill="#ffffff"
         id="path7116" />
      <path
         d="m 383.03985,-56.28175 c -4.65,0 -7,-2.41 -7,-7.3 v -28.34 c 0,-4.89 2.31,-7.36 6.9,-7.36 h 5.52 c 4.59,0 6.87,2.47 6.87,7.36 v 28.34 c 0,4.89 -2.31,7.3 -6.95,7.3 z m 1.38,-5.21 h 2.94 c 1.52,0 2.25,-0.82 2.25,-2.5 v -27.55 a 2.24,2.24 0 0 0 -2.55,-2.55 h -2.72 a 2.22,2.22 0 0 0 -2.5,2.52 v 27.58 c 0,1.68 0.82,2.5 2.58,2.5 z"
         fill="#ffffff"
         id="path7118" />
    </g>
  </g>
  <g
     id="g1466"
     transform="translate(333.08551,-24.05642)">
    <circle
       cx="-182.72388"
       cy="134.62343"
       r="104.3"
       fill="#ffffff"
       id="circle43"
       style="fill:#ffffff;fill-opacity:1" />
    <path
       d="m -183.20388,245.81642 a 110.88,110.88 0 1 1 110.889998,-110.89 111,111 0 0 1 -110.889998,110.89 z m 0,-208.6 a 97.72,97.72 0 1 0 97.729998,97.71 97.82,97.82 0 0 0 -97.729998,-97.71 z"
       fill="#ffda61"
       id="path633"
       style="fill:#ffd962;fill-opacity:1" />
    <path
       d="m -111.44188,181.24861 h -146.8112 a 7.2031094,7.2031094 0 0 1 -7.20311,-7.20311 V 80.741457 a 7.2031094,7.2031094 0 0 1 7.20311,-7.203109 h 146.8112 a 7.2031094,7.2031094 0 0 1 7.20311,7.203109 V 174.0455 a 7.2147086,7.2147086 0 0 1 -7.20311,7.20311 z"
       fill="#36abc8"
       id="path443"
       style="stroke-width:1.15992" />
    <path
       d="m -111.44188,182.07216 h -146.8112 a 8.0266533,8.0266533 0 0 1 -8.01505,-8.01506 V 80.729858 a 8.0266533,8.0266533 0 0 1 8.01505,-8.003455 h 146.8112 a 8.0150541,8.0150541 0 0 1 8.00346,8.003455 V 174.0455 a 8.0382525,8.0382525 0 0 1 -8.00346,8.02666 z M -258.25308,74.338693 a 6.4027639,6.4027639 0 0 0 -6.37956,6.391165 V 174.0455 a 6.3911647,6.3911647 0 0 0 6.39116,6.39117 h 146.7996 a 6.4143631,6.4143631 0 0 0 6.39117,-6.39117 V 80.729858 a 6.4027639,6.4027639 0 0 0 -6.39117,-6.391165 z"
       id="path445"
       style="fill:#000000;fill-opacity:1;stroke-width:1.15992" />
    <polygon
       points="117.37,101.61 116.94,103.34 115.16,103.56 114.54,105.24 112.75,105.27 111.96,106.88 110.18,106.73 109.23,108.25 107.47,107.92 106.37,109.32 104.65,108.81 103.4,110.09 101.75,109.39 100.38,110.54 98.81,109.68 97.33,110.67 95.87,109.65 94.28,110.48 92.92,109.31 91.27,109.98 90.04,108.67 88.32,109.17 87.24,107.73 85.48,108.05 84.55,106.51 82.77,106.64 82,105.01 80.22,104.94 79.63,103.25 77.86,103 77.45,101.25 75.72,100.82 75.5,99.05 73.82,98.43 73.79,96.64 72.17,95.85 72.33,94.06 70.81,93.12 71.14,91.36 69.74,90.25 70.25,88.54 68.97,87.29 69.67,85.65 68.53,84.27 69.38,82.7 68.39,81.22 69.41,79.75 68.58,78.17 69.75,76.81 69.08,75.15 70.39,73.93 69.89,72.2 71.33,71.13 71.02,69.37 72.55,68.44 72.42,66.65 74.05,65.89 74.12,64.1 75.81,63.52 76.06,61.75 77.81,61.34 78.24,59.61 80.01,59.38 80.63,57.7 82.42,57.67 83.21,56.05 85,56.21 85.94,54.7 87.7,55.03 88.81,53.63 90.51,54.15 91.76,52.86 93.41,53.56 94.79,52.41 96.35,53.27 97.84,52.27 99.31,53.3 100.89,52.46 102.24,53.64 103.91,52.97 105.13,54.28 106.85,53.78 107.93,55.22 109.69,54.9 110.62,56.43 112.41,56.31 113.17,57.94 114.96,58 115.54,59.69 117.31,59.95 117.72,61.69 119.45,62.12 119.68,63.9 121.36,64.52 121.39,66.31 123,67.1 122.85,68.88 124.36,69.83 124.03,71.59 125.43,72.69 124.92,74.41 126.2,75.65 125.5,77.3 126.65,78.67 125.78,80.24 126.79,81.73 125.76,83.19 126.6,84.78 125.43,86.14 126.09,87.8 124.78,89.01 125.28,90.73 123.84,91.82 124.16,93.58 122.63,94.51 122.74,96.3 121.12,97.06 121.06,98.84 119.37,99.43 119.11,101.2 "
       fill="#ffffff"
       id="polygon595"
       transform="matrix(1.159921,0,0,1.159921,-333.06798,18.523295)" />
    <path
       d="m -202.93645,142.95962 a 0.4639684,0.4639684 0 0 1 -0.30157,0.0696 l -1.75149,-0.15078 -0.92793,1.48469 a 0.53356366,0.53356366 0 0 1 -0.55676,0.24359 l -1.71669,-0.32478 -1.07872,1.36871 a 0.53356366,0.53356366 0 0 1 -0.57996,0.18558 l -1.67029,-0.49876 -1.22952,1.25271 a 0.51036524,0.51036524 0 0 1 -0.59156,0.11599 l -1.61229,-0.67275 -1.33391,1.15992 a 0.54516287,0.54516287 0 0 1 -0.60315,0.0696 l -1.5311,-0.84675 -1.4499,0.97434 a 0.49876603,0.49876603 0 0 1 -0.60316,0 l -1.4383,-0.99753 -1.5427,0.81194 a 0.52196445,0.52196445 0 0 1 -0.60316,-0.0696 l -1.32231,-1.15993 -1.62389,0.64956 a 0.53356366,0.53356366 0 0 1 -0.59156,-0.13919 l -1.15992,-1.27591 -1.67028,0.48716 a 0.53356366,0.53356366 0 0 1 -0.57996,-0.19718 l -1.14832,-1.43831 -1.71669,0.31318 a 0.51036524,0.51036524 0 0 1 -0.54516,-0.25518 l -0.86994,-1.4847 -1.73988,0.12759 a 0.54516287,0.54516287 0 0 1 -0.52197,-0.31318 l -0.74235,-1.58909 -1.75148,-0.0696 a 0.52196445,0.52196445 0 0 1 -0.48716,-0.35958 l -0.56837,-1.64709 -1.72828,-0.25518 a 0.53356366,0.53356366 0 0 1 -0.45237,-0.40597 l -0.39437,-1.70508 -1.69349,-0.41758 a 0.54516287,0.54516287 0 0 1 -0.40597,-0.45237 l -0.22038,-1.73988 -1.63549,-0.60316 a 0.51036524,0.51036524 0 0 1 -0.34798,-0.48716 v -1.75148 l -1.57749,-0.77715 a 0.54516287,0.54516287 0 0 1 -0.30158,-0.53356 l 0.15079,-1.73989 -1.4731,-0.92793 a 0.53356366,0.53356366 0 0 1 -0.24358,-0.55676 l 0.32478,-1.71669 -1.38031,-1.09032 a 0.52196445,0.52196445 0 0 1 -0.17399,-0.56836 l 0.49877,-1.68189 -1.25272,-1.15992 a 0.52196445,0.52196445 0 0 1 -0.11599,-0.59156 l 0.68435,-1.60069 -1.15992,-1.34551 a 0.54516287,0.54516287 0 0 1 0,-0.60316 l 0.83515,-1.54269 -1.03233,-1.5079 a 0.54516287,0.54516287 0 0 1 0,-0.54516 l 0.99753,-1.42671 -0.81195,-1.55429 a 0.52196445,0.52196445 0 0 1 0.0696,-0.60316 l 1.15992,-1.32231 -0.64956,-1.62389 a 0.54516287,0.54516287 0 0 1 0.13919,-0.59156 l 1.27592,-1.15992 -0.48717,-1.69348 a 0.54516287,0.54516287 0 0 1 0.19719,-0.57997 l 1.3919,-1.04392 -0.30158,-1.716687 a 0.53356366,0.53356366 0 0 1 0.25519,-0.556762 l 1.49629,-0.904739 -0.0928,-1.821076 a 0.51036524,0.51036524 0 0 1 0.31318,-0.521964 l 1.58909,-0.753949 0.0696,-1.739881 a 0.51036524,0.51036524 0 0 1 0.35957,-0.487167 l 1.64709,-0.579961 0.25518,-1.728282 a 0.49876603,0.49876603 0 0 1 0.40597,-0.44077 l 1.65869,-0.347976 0.41757,-1.693485 a 0.53356366,0.53356366 0 0 1 0.45237,-0.394373 l 1.73988,-0.220385 0.60316,-1.647088 a 0.51036524,0.51036524 0 0 1 0.48717,-0.347976 h 1.75148 l 0.76555,-1.577493 a 0.55676208,0.55676208 0 0 1 0.53356,-0.301579 l 1.73988,0.162389 0.92794,-1.484699 a 0.54516287,0.54516287 0 0 1 0.55676,-0.243584 l 1.71668,0.336378 1.09033,-1.380306 a 0.53356366,0.53356366 0 0 1 0.56836,-0.185588 l 1.67029,0.510365 1.21792,-1.252714 a 0.51036524,0.51036524 0 0 1 0.59155,-0.115992 l 1.61229,0.672754 1.34551,-1.159921 a 0.51036524,0.51036524 0 0 1 0.59156,-0.115992 l 1.5311,0.835143 1.4615,-0.974334 a 0.51036524,0.51036524 0 0 1 0.60316,0 l 1.4267,1.009131 1.5543,-0.823543 a 0.54516287,0.54516287 0 0 1 0.60315,0.0696 l 1.31071,1.159921 1.63549,-0.649556 a 0.53356366,0.53356366 0 0 1 0.59156,0.127591 l 1.15992,1.287513 1.68189,-0.487167 a 0.55676208,0.55676208 0 0 1 0.57996,0.185587 l 1.05553,1.403505 1.71668,-0.30158 a 0.53356366,0.53356366 0 0 1 0.55676,0.243584 l 0.90474,1.496298 1.73988,-0.115992 a 0.54516287,0.54516287 0 0 1 0.52197,0.301579 l 0.75395,1.600691 h 1.73988 a 0.53356366,0.53356366 0 0 1 0.48716,0.359576 l 0.57997,1.658687 1.72828,0.243583 a 0.53356366,0.53356366 0 0 1 0.44077,0.405972 l 0.40597,1.705084 1.69348,0.429171 a 0.52196445,0.52196445 0 0 1 0.39438,0.452369 l 0.22038,1.728282 1.64709,0.603159 a 0.53356366,0.53356366 0 0 1 0.34798,0.498766 v 1.751481 l 1.56589,0.765548 a 0.55676208,0.55676208 0 0 1 0.30158,0.521964 l -0.15079,1.751481 1.4847,0.927937 a 0.54516287,0.54516287 0 0 1 0.24358,0.556762 l -0.32478,1.71668 1.36871,1.07872 a 0.54516287,0.54516287 0 0 1 0.18559,0.57997 l -0.51037,1.67028 1.25272,1.15992 a 0.51036524,0.51036524 0 0 1 0.11599,0.59156 l -0.64956,1.72828 1.15993,1.34551 a 0.51036524,0.51036524 0 0 1 0,0.60317 l -0.84675,1.53109 0.98594,1.4499 a 0.52196445,0.52196445 0 0 1 0,0.60316 l -1.00914,1.4383 0.82355,1.54269 a 0.54516287,0.54516287 0 0 1 -0.0696,0.60316 l -1.15992,1.33391 0.64956,1.61229 a 0.53356366,0.53356366 0 0 1 -0.12759,0.59156 l -1.28752,1.15992 0.48717,1.68189 a 0.53356366,0.53356366 0 0 1 -0.18559,0.56836 l -1.4035,1.06713 0.30158,1.71668 a 0.51036524,0.51036524 0 0 1 -0.24358,0.54516 l -1.5079,0.91634 0.11599,1.75148 a 0.51036524,0.51036524 0 0 1 -0.30158,0.51037 l -1.58909,0.74235 v 1.75148 a 0.55676208,0.55676208 0 0 1 -0.35958,0.48716 l -1.65868,0.56837 -0.24359,1.72828 a 0.54516287,0.54516287 0 0 1 -0.40597,0.45237 l -1.70508,0.39437 -0.42917,1.69348 a 0.54516287,0.54516287 0 0 1 -0.45237,0.40598 l -1.72829,0.22038 -0.56836,1.67029 a 0.56836129,0.56836129 0 0 1 -0.49876,0.35957 h -1.75148 l -0.76555,1.5775 a 0.51036524,0.51036524 0 0 1 -0.24359,0.24358 z m -2.59822,-1.15992 a 0.48716682,0.48716682 0 0 1 0.31318,-0.0696 l 1.70508,0.15079 0.75395,-1.54269 a 0.55676208,0.55676208 0 0 1 0.47557,-0.30158 h 1.70508 l 0.59156,-1.60069 a 0.51036524,0.51036524 0 0 1 0.42918,-0.34798 l 1.69348,-0.22038 0.41757,-1.64709 a 0.54516287,0.54516287 0 0 1 0.39437,-0.39437 l 1.67029,-0.39438 0.24358,-1.69348 a 0.53356366,0.53356366 0 0 1 0.34798,-0.42917 l 1.62389,-0.55677 v -1.70508 a 0.52196445,0.52196445 0 0 1 0.31318,-0.46397 l 1.54269,-0.73075 -0.11599,-1.70508 a 0.55676208,0.55676208 0 0 1 0.26678,-0.49877 l 1.4615,-0.88154 -0.30158,-1.68188 a 0.54516287,0.54516287 0 0 1 0.20879,-0.52197 l 1.36871,-1.03233 -0.47557,-1.64708 a 0.51036524,0.51036524 0 0 1 0.15079,-0.53357 l 1.25271,-1.15992 -0.57996,-1.55429 a 0.56836129,0.56836129 0 0 1 0.0928,-0.55677 l 1.15992,-1.28751 -0.80035,-1.51949 a 0.55676208,0.55676208 0 0 1 0,-0.55677 l 0.98594,-1.4035 -0.96274,-1.4151 a 0.51036524,0.51036524 0 0 1 0,-0.55677 l 0.82354,-1.50789 -1.09032,-1.31071 a 0.52196445,0.52196445 0 0 1 -0.0812,-0.54517 l 0.66116,-1.57749 -1.21792,-1.15992 a 0.51036524,0.51036524 0 0 1 -0.13919,-0.53356 l 0.48717,-1.64709 -1.38031,-1.02073 a 0.53356366,0.53356366 0 0 1 -0.18558,-0.52197 l 0.31317,-1.681883 -1.4499,-0.904739 a 0.51036524,0.51036524 0 0 1 -0.24358,-0.498766 l 0.13919,-1.705083 -1.5311,-0.753949 a 0.52196445,0.52196445 0 0 1 -0.30158,-0.475568 v -1.705084 l -1.60069,-0.591559 a 0.53356366,0.53356366 0 0 1 -0.34797,-0.429171 l -0.28998,-1.751481 -1.65869,-0.417571 a 0.53356366,0.53356366 0 0 1 -0.38277,-0.394373 l -0.39438,-1.670287 -1.69348,-0.243583 a 0.51036524,0.51036524 0 0 1 -0.42917,-0.347976 l -0.56836,-1.62389 -1.70509,-0.058 a 0.55676208,0.55676208 0 0 1 -0.46397,-0.313179 l -0.73075,-1.554294 -1.70508,0.115992 a 0.49876603,0.49876603 0 0 1 -0.48717,-0.255182 l -0.89314,-1.461501 -1.68188,0.30158 a 0.51036524,0.51036524 0 0 1 -0.51037,-0.208786 l -1.04393,-1.368707 -1.63548,0.475568 a 0.53356366,0.53356366 0 0 1 -0.54517,-0.15079 l -1.15992,-1.252715 -1.60069,0.637957 a 0.49876603,0.49876603 0 0 1 -0.54516,-0.09279 l -1.28751,-1.159921 -1.5195,0.800346 a 0.56836129,0.56836129 0 0 1 -0.55676,0 l -1.39191,-0.985933 -1.4267,0.962734 a 0.53356366,0.53356366 0 0 1 -0.55676,0 l -1.4499,-0.753948 -1.31072,1.090325 a 0.53356366,0.53356366 0 0 1 -0.55676,0.08119 l -1.57749,-0.661155 -1.15992,1.229516 a 0.53356366,0.53356366 0 0 1 -0.53356,0.139191 l -1.63549,-0.533564 -1.06713,1.345508 a 0.52196445,0.52196445 0 0 1 -0.52196,0.185588 l -1.67029,-0.313179 -0.90474,1.449901 a 0.53356366,0.53356366 0 0 1 -0.51036,0.243584 l -1.70509,-0.15079 -0.74235,1.542695 a 0.53356366,0.53356366 0 0 1 -0.47557,0.301579 h -1.70508 l -0.59156,1.600691 a 0.54516287,0.54516287 0 0 1 -0.44077,0.347977 l -1.71668,0.220385 -0.41757,1.658687 a 0.49876603,0.49876603 0 0 1 -0.39438,0.382774 l -1.67028,0.394373 -0.23199,1.693484 a 0.56836129,0.56836129 0 0 1 -0.31318,0.510366 l -1.61229,0.556762 -0.0696,1.705084 a 0.48716682,0.48716682 0 0 1 -0.30158,0.463968 l -1.5543,0.73075 0.116,1.705084 a 0.52196445,0.52196445 0 0 1 -0.25519,0.487167 l -1.4615,0.893139 0.28998,1.681882 a 0.53356366,0.53356366 0 0 1 -0.19718,0.52196 l -1.38031,1.02073 0.48717,1.64709 a 0.5799605,0.5799605 0 0 1 -0.15079,0.54516 l -1.25272,1.15993 0.62636,1.58909 a 0.52196445,0.52196445 0 0 1 -0.0812,0.54516 l -1.15992,1.29911 0.80034,1.5195 a 0.53356366,0.53356366 0 0 1 0,0.55676 l -0.96273,1.34551 0.93953,1.4151 a 0.53356366,0.53356366 0 0 1 0,0.55676 l -0.82354,1.5079 1.15992,1.31071 a 0.53356366,0.53356366 0 0 1 0.0812,0.55676 l -0.67275,1.5659 1.22952,1.15992 a 0.53356366,0.53356366 0 0 1 0.13919,0.53356 l -0.49877,1.63549 1.34551,1.06713 a 0.52196445,0.52196445 0 0 1 0.19719,0.52196 l -0.32478,1.67029 1.4499,0.90474 a 0.55676208,0.55676208 0 0 1 0.25518,0.51036 l -0.15079,1.70509 1.5427,0.74235 a 0.5799605,0.5799605 0 0 1 0.30158,0.47556 v 1.70509 l 1.60069,0.59156 a 0.53356366,0.53356366 0 0 1 0.34797,0.48716 l 0.22039,1.69349 1.64709,0.41757 a 0.52196445,0.52196445 0 0 1 0.39437,0.39437 l 0.39437,1.65869 1.69349,0.24358 a 0.56836129,0.56836129 0 0 1 0.42917,0.35958 l 0.55676,1.61229 1.70508,0.0696 a 0.52196445,0.52196445 0 0 1 0.46397,0.30158 l 0.73075,1.5543 1.70509,-0.11599 a 0.54516287,0.54516287 0 0 1 0.49876,0.25518 l 0.88154,1.4615 1.68189,-0.28998 a 0.51036524,0.51036524 0 0 1 0.52196,0.19719 l 1.03233,1.3803 1.63549,-0.47557 a 0.51036524,0.51036524 0 0 1 0.53356,0.15079 l 1.15993,1.24112 1.57749,-0.62636 a 0.53356366,0.53356366 0 0 1 0.55676,0.0812 l 1.28751,1.15992 1.5195,-0.80035 a 0.53356366,0.53356366 0 0 1 0.55676,0 l 1.40351,0.97434 1.4151,-0.93954 a 0.48716682,0.48716682 0 0 1 0.55676,0 l 1.4963,0.82354 1.31071,-1.09032 a 0.52196445,0.52196445 0 0 1 0.54516,-0.0812 l 1.5775,0.66116 1.15992,-1.22952 a 0.53356366,0.53356366 0 0 1 0.53356,-0.13919 l 1.64709,0.49877 1.05553,-1.34551 a 0.53356366,0.53356366 0 0 1 0.52196,-0.19719 l 1.68189,0.32478 0.90473,-1.4499 a 0.56836129,0.56836129 0 0 1 0.24359,-0.23199 z"
       id="path597"
       style="fill:#000000;fill-opacity:1;stroke-width:1.15992" />
    <circle
       cx="-219.26814"
       cy="113.53244"
       r="11.228036"
       id="circle607"
       style="fill:#000000;fill-opacity:1;stroke-width:1.15992" />
    <circle
       cx="-223.32787"
       cy="110.55144"
       r="2.8302073"
       fill="#ffffff"
       id="circle619"
       style="stroke-width:1.15992" />
    <polygon
       points="149.57,108.94 147.9,109.57 146.71,108.22 144.98,108.66 143.94,107.19 142.17,107.45 141.29,105.88 139.5,105.95 138.8,104.3 137.01,104.17 136.49,102.47 134.71,102.16 134.38,100.4 132.65,99.91 132.49,98.13 130.82,97.46 130.85,95.67 129.26,94.83 129.48,93.05 127.99,92.05 128.39,90.31 127.02,89.15 127.59,87.45 126.34,86.17 127.1,84.55 125.99,83.14 126.9,81.6 125.95,80.08 127.02,78.64 126.24,77.04 127.46,75.72 126.84,74.04 128.19,72.86 127.75,71.13 129.22,70.09 128.96,68.32 130.53,67.44 130.46,65.65 132.11,64.95 132.23,63.16 133.94,62.63 134.25,60.86 136,60.52 136.5,58.79 138.28,58.63 138.95,56.97 140.74,56.99 141.58,55.41 143.36,55.62 144.35,54.14 146.1,54.54 147.25,53.16 148.95,53.74 150.24,52.49 151.86,53.23 153.27,52.14 154.81,53.05 156.32,52.1 157.76,53.17 159.36,52.39 160.68,53.61 162.36,52.98 163.55,54.33 165.28,53.9 166.32,55.36 168.09,55.1 168.96,56.67 170.76,56.61 171.46,58.25 173.25,58.38 173.77,60.08 175.54,60.4 175.88,62.15 177.61,62.65 177.77,64.42 179.44,65.09 179.41,66.89 180.99,67.73 180.79,69.5 182.27,70.5 181.87,72.25 183.24,73.4 182.67,75.1 183.92,76.38 183.17,78.01 184.27,79.41 183.35,80.95 184.31,82.47 183.23,83.91 184.02,85.51 182.8,86.83 183.42,88.51 182.07,89.7 182.51,91.42 181.04,92.46 181.3,94.23 179.73,95.11 179.8,96.9 178.15,97.6 178.03,99.4 176.32,99.92 176.01,101.69 174.25,102.03 173.76,103.76 171.98,103.92 171.31,105.58 169.52,105.56 168.68,107.14 166.91,106.93 165.91,108.41 164.16,108.02 163.01,109.39 161.31,108.82 160.02,110.06 158.4,109.31 156.99,110.42 155.45,109.5 153.94,110.45 152.5,109.38 150.89,110.17 "
       fill="#ffffff"
       id="polygon611"
       transform="matrix(1.159921,0,0,1.159921,-333.06798,18.523294)" />
    <path
       d="m -168.42879,143.62077 a 0.48716682,0.48716682 0 0 1 -0.19719,-0.20878 l -0.85834,-1.5311 -1.75148,0.0696 a 0.55676208,0.55676208 0 0 1 -0.51037,-0.32478 l -0.68435,-1.61229 -1.75148,-0.12759 a 0.52196445,0.52196445 0 0 1 -0.47557,-0.37118 l -0.51036,-1.65868 -1.73988,-0.31318 a 0.53356366,0.53356366 0 0 1 -0.42917,-0.42917 l -0.32478,-1.70509 -1.69349,-0.48716 a 0.52196445,0.52196445 0 0 1 -0.38277,-0.46397 l -0.16239,-1.73988 -1.62389,-0.64956 a 0.55676208,0.55676208 0 0 1 -0.33638,-0.51036 v -1.75148 l -1.54269,-0.82355 a 0.53356366,0.53356366 0 0 1 -0.27838,-0.53356 l 0.19718,-1.73988 -1.4499,-0.96274 a 0.56836129,0.56836129 0 0 1 -0.22038,-0.56836 l 0.39437,-1.70508 -1.34551,-1.15992 a 0.53356366,0.53356366 0 0 1 -0.16239,-0.57996 l 0.55677,-1.67029 -1.15992,-1.25272 a 0.54516287,0.54516287 0 0 1 -0.1044,-0.60315 l 0.74235,-1.5775 -1.07872,-1.3803 a 0.54516287,0.54516287 0 0 1 0,-0.60316 l 0.89313,-1.5079 -0.92793,-1.4731 a 0.54516287,0.54516287 0 0 1 0,-0.60316 l 1.05553,-1.4151 -0.76555,-1.5659 a 0.51036524,0.51036524 0 0 1 0.0812,-0.59155 l 1.15992,-1.28752 -0.61475,-1.64708 a 0.54516287,0.54516287 0 0 1 0.15078,-0.57997 l 1.32231,-1.15992 -0.42917,-1.69348 a 0.54516287,0.54516287 0 0 1 0.20879,-0.56836 l 1.4383,-1.009129 -0.25518,-1.73989 a 0.55676208,0.55676208 0 0 1 0.26678,-0.54516 l 1.5311,-0.84674 -0.0812,-1.71668 a 0.53356366,0.53356366 0 0 1 0.32478,-0.52197 l 1.60069,-0.67275 0.12759,-1.76308 a 0.53356366,0.53356366 0 0 1 0.38278,-0.47557 l 1.65868,-0.51036 0.30158,-1.72829 a 0.54516287,0.54516287 0 0 1 0.42917,-0.42917 l 1.71669,-0.33638 0.48716,-1.68188 a 0.53356366,0.53356366 0 0 1 0.46397,-0.39437 l 1.78628,-0.15079 0.66116,-1.63549 a 0.52196445,0.52196445 0 0 1 0.49876,-0.32478 h 1.75148 l 0.82355,-1.5427 a 0.54516287,0.54516287 0 0 1 0.53356,-0.28998 l 1.73988,0.20879 0.97433,-1.449902 a 0.52196445,0.52196445 0 0 1 0.55677,-0.220385 l 1.71668,0.382774 1.15992,-1.333909 a 0.52196445,0.52196445 0 0 1 0.57996,-0.162389 l 1.65869,0.556762 1.26431,-1.217917 a 0.51036524,0.51036524 0 0 1 0.59156,-0.104393 l 1.58909,0.730751 1.36871,-1.078727 a 0.54516287,0.54516287 0 0 1 0.60316,0 l 1.5079,0.893139 1.4847,-0.927937 a 0.52196445,0.52196445 0 0 1 0.60315,0 l 1.40351,1.043929 1.56589,-0.765548 a 0.54516287,0.54516287 0 0 1 0.60316,0.09279 l 1.28751,1.159921 1.63549,-0.614758 a 0.56836129,0.56836129 0 0 1 0.59156,0.15079 l 1.15992,1.32231 1.68189,-0.429171 a 0.52196445,0.52196445 0 0 1 0.56836,0.208786 l 1.02073,1.438304 1.72828,-0.255185 a 0.52196445,0.52196445 0 0 1 0.54517,0.266785 l 0.85834,1.5311 1.75148,-0.0696 a 0.54516287,0.54516287 0 0 1 0.51036,0.33638 l 0.68436,1.60069 1.75148,0.12759 a 0.53356366,0.53356366 0 0 1 0.47556,0.37118 l 0.51037,1.67028 1.72828,0.30158 a 0.55676208,0.55676208 0 0 1 0.44077,0.42917 l 0.32478,1.71669 1.69348,0.47556 a 0.56836129,0.56836129 0 0 1 0.38278,0.47557 l 0.16239,1.72828 1.62389,0.66116 a 0.53356366,0.53356366 0 0 1 0.33637,0.49876 v 1.75149 l 1.5427,0.82354 a 0.52196445,0.52196445 0 0 1 0.27838,0.53356 l -0.19719,1.72829 1.43831,0.98593 a 0.52196445,0.52196445 0 0 1 0.23198,0.556759 l -0.39437,1.70508 1.3455,1.15993 a 0.54516287,0.54516287 0 0 1 0.16239,0.57996 l -0.67275,1.70508 1.21792,1.25271 a 0.54516287,0.54516287 0 0 1 0.10439,0.60316 l -0.73075,1.5775 1.06713,1.3803 a 0.52196445,0.52196445 0 0 1 0,0.60316 l -0.89314,1.5079 0.93953,1.4731 a 0.56836129,0.56836129 0 0 1 0,0.61476 l -1.04393,1.4267 0.76555,1.56589 a 0.51036524,0.51036524 0 0 1 -0.0812,0.59156 l -1.15992,1.29911 0.60316,1.63549 a 0.51036524,0.51036524 0 0 1 -0.13919,0.57996 l -1.32231,1.15992 0.42917,1.68189 a 0.55676208,0.55676208 0 0 1 -0.20879,0.56836 l -1.4383,1.02073 0.25518,1.72828 a 0.56836129,0.56836129 0 0 1 -0.26678,0.54517 l -1.5427,0.84674 0.0696,1.76308 a 0.52196445,0.52196445 0 0 1 -0.32478,0.51036 l -1.61229,0.68436 -0.11599,1.75148 a 0.56836129,0.56836129 0 0 1 -0.38277,0.47556 l -1.65869,0.51037 -0.31318,1.72828 a 0.52196445,0.52196445 0 0 1 -0.41757,0.42917 l -1.71669,0.33638 -0.48716,1.69348 a 0.53356366,0.53356366 0 0 1 -0.46397,0.38278 l -1.72828,0.15079 -0.66116,1.63549 a 0.55676208,0.55676208 0 0 1 -0.51036,0.33637 h -1.75148 l -0.81195,1.5543 a 0.56836129,0.56836129 0 0 1 -0.54516,0.27838 l -1.72828,-0.20879 -0.97434,1.4499 a 0.51036524,0.51036524 0 0 1 -0.55676,0.22039 l -1.71668,-0.38277 -1.15992,1.33391 a 0.53356366,0.53356366 0 0 1 -0.57996,0.17398 l -1.65869,-0.56836 -1.26431,1.15992 a 0.51036524,0.51036524 0 0 1 -0.59156,0.1044 l -1.5891,-0.73075 -1.3687,1.07872 a 0.54516287,0.54516287 0 0 1 -0.60316,0 l -1.5079,-0.89314 -1.4847,0.92794 a 0.52196445,0.52196445 0 0 1 -0.60316,0 l -1.4151,-1.04393 -1.55429,0.76555 a 0.56836129,0.56836129 0 0 1 -0.60316,-0.0812 l -1.28752,-1.15992 -1.63548,0.60316 a 0.52196445,0.52196445 0 0 1 -0.59156,-0.15079 l -1.15993,-1.32231 -1.69348,0.42917 a 0.52196445,0.52196445 0 0 1 -0.56836,-0.20878 l -1.00913,-1.42671 -1.72828,0.24359 a 0.51036524,0.51036524 0 0 1 -0.34798,-0.0928 z m -3.41017,-4.58168 a 0.49876603,0.49876603 0 0 1 0.23199,0.25518 l 0.66115,1.56589 h 1.71668 a 0.53356366,0.53356366 0 0 1 0.48717,0.26678 l 0.83514,1.4963 1.68189,-0.24358 a 0.55676208,0.55676208 0 0 1 0.52196,0.22038 l 0.98594,1.40351 1.64708,-0.41757 a 0.53356366,0.53356366 0 0 1 0.53357,0.16239 l 1.15992,1.28751 1.60069,-0.59156 a 0.54516287,0.54516287 0 0 1 0.55676,0.11599 l 1.26432,1.15992 1.51949,-0.74235 a 0.53356366,0.53356366 0 0 1 0.55676,0 l 1.38031,1.02073 1.4383,-0.90474 a 0.55676208,0.55676208 0 0 1 0.56836,0 l 1.4615,0.88154 1.35711,-1.05552 a 0.53356366,0.53356366 0 0 1 0.55676,-0.0696 l 1.5427,0.71915 1.22951,-1.15992 a 0.52196445,0.52196445 0 0 1 0.54517,-0.11599 l 1.61229,0.54516 1.15992,-1.31071 a 0.52196445,0.52196445 0 0 1 0.52196,-0.17399 l 1.67029,0.37118 0.95113,-1.41511 a 0.55676208,0.55676208 0 0 1 0.51037,-0.23198 l 1.69348,0.20879 0.80035,-1.5195 a 0.52196445,0.52196445 0 0 1 0.48717,-0.27838 h 1.70508 l 0.63796,-1.58909 a 0.56836129,0.56836129 0 0 1 0.45237,-0.33638 l 1.69348,-0.15079 0.47557,-1.65869 a 0.53356366,0.53356366 0 0 1 0.40597,-0.37117 l 1.68189,-0.32478 0.30158,-1.69349 a 0.52196445,0.52196445 0 0 1 0.37117,-0.41757 l 1.62389,-0.49876 0.11599,-1.71669 a 0.52196445,0.52196445 0 0 1 0.32478,-0.45237 l 1.57749,-0.67275 -0.0696,-1.70508 a 0.52196445,0.52196445 0 0 1 0.27838,-0.48717 l 1.4615,-0.85834 -0.25518,-1.69349 a 0.54516287,0.54516287 0 0 1 0.22038,-0.51036 l 1.40351,-0.99753 -0.41758,-1.64709 a 0.54516287,0.54516287 0 0 1 0.17399,-0.53356 l 1.28751,-1.15993 -0.60315,-1.57749 a 0.53356366,0.53356366 0 0 1 0.11599,-0.54516 l 1.15992,-1.26432 -0.74235,-1.53109 a 0.53356366,0.53356366 0 0 1 0,-0.55676 l 1.03233,-1.36871 -0.82354,-1.4615 a 0.53356366,0.53356366 0 0 1 0,-0.55676 l 0.86994,-1.4731 -1.04393,-1.34551 a 0.53356366,0.53356366 0 0 1 -0.0696,-0.55676 l 0.70755,-1.5427 -1.15992,-1.22951 a 0.55676208,0.55676208 0 0 1 -0.12759,-0.54517 l 0.54516,-1.62389 -1.31071,-1.15992 a 0.54516287,0.54516287 0 0 1 -0.17398,-0.53356 l 0.38277,-1.67029 -1.4151,-0.951129 a 0.52196445,0.52196445 0 0 1 -0.23199,-0.51037 l 0.12759,-1.61229 -1.51949,-0.81194 a 0.51036524,0.51036524 0 0 1 -0.27838,-0.47557 v -1.71668 l -1.5891,-0.63796 a 0.55676208,0.55676208 0 0 1 -0.33637,-0.45237 l -0.1276,-1.70508 -1.64708,-0.46397 a 0.54516287,0.54516287 0 0 1 -0.38278,-0.41757 l -0.32477,-1.67029 -1.69349,-0.30158 a 0.56836129,0.56836129 0 0 1 -0.41757,-0.37117 l -0.49877,-1.62389 -1.71668,-0.12759 a 0.53356366,0.53356366 0 0 1 -0.45237,-0.32478 l -0.66115,-1.5659 -1.71669,0.058 a 0.52196445,0.52196445 0 0 1 -0.48716,-0.26678 l -0.83515,-1.4963 -1.69348,0.24358 a 0.52196445,0.52196445 0 0 1 -0.51037,-0.22038 l -0.99753,-1.403506 -1.64709,0.417572 a 0.54516287,0.54516287 0 0 1 -0.53356,-0.162389 l -1.15992,-1.287513 -1.60069,0.59156 a 0.54516287,0.54516287 0 0 1 -0.54517,-0.104393 l -1.26431,-1.159921 -1.5195,0.753949 a 0.53356366,0.53356366 0 0 1 -0.55676,-0.058 l -1.3803,-1.020731 -1.44991,0.904739 a 0.55676208,0.55676208 0 0 1 -0.55676,0 l -1.4731,-0.88154 -1.34551,1.055528 a 0.52196445,0.52196445 0 0 1 -0.54516,0 l -1.53109,-0.695953 -1.22952,1.159921 a 0.52196445,0.52196445 0 0 1 -0.54516,0.115992 l -1.62389,-0.545162 -1.15992,1.31071 a 0.56836129,0.56836129 0 0 1 -0.46397,0.278387 l -1.67029,-0.38278 -0.95113,1.41511 a 0.51036524,0.51036524 0 0 1 -0.51037,0.23198 l -1.69348,-0.19718 -0.81195,1.50789 a 0.54516287,0.54516287 0 0 1 -0.47557,0.28998 h -1.70508 l -0.64956,1.6007 a 0.49876603,0.49876603 0 0 1 -0.44077,0.32477 l -1.69348,0.15079 -0.47557,1.65869 a 0.55676208,0.55676208 0 0 1 -0.41757,0.38277 l -1.67029,0.31318 -0.30157,1.69349 a 0.52196445,0.52196445 0 0 1 -0.37118,0.41757 l -1.62389,0.49876 -0.11599,1.71669 a 0.52196445,0.52196445 0 0 1 -0.32478,0.45237 l -1.57749,0.67275 0.0696,1.71668 a 0.56836129,0.56836129 0 0 1 -0.27838,0.48717 l -1.4963,0.83514 0.24359,1.68189 a 0.49876603,0.49876603 0 0 1 -0.22039,0.510359 l -1.4035,0.99754 0.41757,1.64708 a 0.51036524,0.51036524 0 0 1 -0.16239,0.53357 l -1.28751,1.15992 0.59156,1.60069 a 0.52196445,0.52196445 0 0 1 -0.10439,0.54516 l -1.15993,1.26432 0.75395,1.53109 a 0.53356366,0.53356366 0 0 1 0,0.55677 l -1.02073,1.3687 0.90474,1.4499 a 0.51036524,0.51036524 0 0 1 0,0.55677 l -0.86994,1.47309 1.05553,1.34551 a 0.51036524,0.51036524 0 0 1 0.058,0.55677 l -0.71915,1.55429 1.15992,1.15992 a 0.55676208,0.55676208 0 0 1 0.1276,0.54516 l -0.55677,1.62389 1.32231,1.15992 a 0.54516287,0.54516287 0 0 1 0.17399,0.53357 l -0.38277,1.67028 1.4151,0.93954 a 0.51036524,0.51036524 0 0 1 0.23199,0.51036 l -0.19719,1.70509 1.5079,0.80034 a 0.54516287,0.54516287 0 0 1 0.28998,0.47557 v 1.71668 l 1.58909,0.63796 a 0.56836129,0.56836129 0 0 1 0.33638,0.45237 l 0.15079,1.69349 1.64708,0.47556 a 0.52196445,0.52196445 0 0 1 0.38278,0.40598 l 0.32478,1.68188 1.69348,0.30158 a 0.52196445,0.52196445 0 0 1 0.41757,0.37117 l 0.49877,1.62389 1.70508,0.116 a 0.41757156,0.41757156 0 0 1 0.15079,0 z"
       id="path613"
       style="fill:#000000;fill-opacity:1;stroke-width:1.15992" />
    <circle
       cx="-174.11293"
       cy="-77.887733"
       r="11.228036"
       transform="rotate(-60.65)"
       id="circle615"
       style="fill:#000000;fill-opacity:1;stroke-width:1.15992" />
    <circle
       cx="-154.12697"
       cy="107.814"
       r="2.8302073"
       fill="#ffffff"
       id="circle623"
       style="stroke-width:1.15992" />
    <path
       d="m -98.508752,145.82462 h 8.7342 c 4.56065,0.1197 3.78455,0.90313 3.78455,0.90313 1.247,-0.3383 -6.35752,27.85722 -7.50087,27.91448 l -4.18274,0.0296 -0.85834,-12.70114 z"
       fill="#ffd962"
       id="path199"
       sodipodi:nodetypes="ccccccc"
       style="fill:#ffd962;fill-opacity:1;stroke-width:1.15992" />
    <path
       d="m -91.073662,161.97072 h -7.07552 c -0.29468,0 -0.53356,-0.23888 -0.53356,-0.53356 v -16.1113 c -0.007,-0.29741 0.23616,-0.54025 0.53356,-0.53357 h 8.73421 c 3.08435,-0.0281 3.23836,1.34437 3.42497,1.93546 l -4.0809,18.27769 z m 4.99339,-14.51502 c 0,0 -0.70023,-1.52478 -3.3115,-1.53828 h -8.21224 v 15.07897 h 6.95952 c 0.2329,-9.2e-4 0.43948,0.14933 0.51037,0.37118 l 0.51974,1.89979 z"
       id="path201"
       sodipodi:nodetypes="csscccccccccccccc"
       style="fill:#000000;fill-opacity:1;stroke-width:1.15992" />
    <path
       d="m -93.490872,174.64223 -4.18274,0.0296 v -13.2347 c 0,-0.30108 -0.24408,-0.54516 -0.54516,-0.54516 -0.29927,-7e-5 -0.54007,0.24596 -0.53357,0.54516 v 13.76826 c -0.007,0.2992 0.2343,0.54524 0.53357,0.54517 l 4.33353,-0.0296 z"
       id="path207"
       sodipodi:nodetypes="ccscccccc"
       style="fill:#000000;fill-opacity:1;stroke-width:1.15992" />
    <path
       d="m -268.41398,142.10128 h -0.20879 a 3.0273938,3.0273938 0 0 1 -2.96939,-3.0274 V 96.678771 a 3.0157946,3.0157946 0 0 1 3.02739,-3.01579 h 0.20878 a 3.0157946,3.0157946 0 0 1 3.0158,3.01579 v 42.395109 a 3.0157946,3.0157946 0 0 1 -3.07379,3.0274 z"
       fill="#ffd962"
       id="path253"
       style="stroke-width:1.15992" />
    <path
       d="m -268.41398,142.63484 h -0.20879 a 3.5493583,3.5493583 0 0 1 -3.56095,-3.56096 V 96.690371 a 3.5609575,3.5609575 0 0 1 3.56095,-3.57256 h 0.20879 a 3.5725567,3.5725567 0 0 1 3.56096,3.57256 v 42.383509 a 3.5609575,3.5609575 0 0 1 -3.56096,3.56096 z m -0.20879,-48.438299 a 2.4938302,2.4938302 0 0 0 -2.49383,2.49383 v 42.383509 a 2.5054294,2.5054294 0 0 0 2.49383,2.49383 h 0.20879 a 2.4938302,2.4938302 0 0 0 2.48223,-2.49383 V 96.690371 a 2.4822309,2.4822309 0 0 0 -2.48223,-2.49383 z"
       id="path255"
       style="fill:#000000;fill-opacity:1;stroke-width:1.15992" />
    <path
       d="m -268.01961,179.61312 h -0.99753 a 2.6330207,2.6330207 0 0 1 -2.57502,-2.62142 v -32.47779 a 2.6330207,2.6330207 0 0 1 2.62142,-2.62142 h 0.99753 a 2.6214215,2.6214215 0 0 1 2.62142,2.62142 v 32.47779 a 2.6214215,2.6214215 0 0 1 -2.66782,2.62142 z"
       fill="#ffd962"
       id="path257"
       style="stroke-width:1.15992" />
    <path
       d="m -268.01961,180.14669 h -0.99753 a 3.1549851,3.1549851 0 0 1 -3.15499,-3.15499 v -32.47779 a 3.1549851,3.1549851 0 0 1 3.15499,-3.15498 h 0.99753 a 3.1665843,3.1665843 0 0 1 3.16659,3.15498 v 32.47779 a 3.1665843,3.1665843 0 0 1 -3.16659,3.15499 z m -0.99753,-37.70904 a 2.0878578,2.0878578 0 0 0 -2.08786,2.07626 v 32.47779 a 2.0878578,2.0878578 0 0 0 2.08786,2.07626 h 0.99753 a 2.0878578,2.0878578 0 0 0 2.08786,-2.07626 v -32.47779 a 2.0878578,2.0878578 0 0 0 -2.08786,-2.07626 z"
       id="path259"
       style="fill:#000000;fill-opacity:1;stroke-width:1.15992" />
    <path
       d="m -265.50258,96.238001 h -6.08958 a 0.27838104,0.27838104 0 0 1 0,-0.54516 h 6.04318 a 0.27838104,0.27838104 0 0 1 0,0.54516 z"
       id="path261"
       style="fill:#000000;fill-opacity:1;stroke-width:1.15992" />
    <path
       d="m -265.50258,98.557841 h -6.08958 a 0.27838104,0.27838104 0 0 1 0,-0.54516 h 6.04318 a 0.27838104,0.27838104 0 0 1 0,0.54516 z"
       id="path263"
       style="fill:#000000;fill-opacity:1;stroke-width:1.15992" />
    <path
       d="m -265.50258,103.05834 h -6.08958 a 0.266785,0.266785 0 0 1 0,-0.53357 h 6.04318 a 0.266785,0.266785 0 0 1 0,0.53357 z"
       id="path267"
       style="fill:#000000;fill-opacity:1;stroke-width:1.15992" />
    <path
       d="m -265.50258,109.20592 h -6.08958 a 0.266785,0.266785 0 1 1 0,-0.53357 h 6.04318 a 0.266785,0.266785 0 0 1 0,0.53357 z"
       id="path269"
       style="fill:#000000;fill-opacity:1;stroke-width:1.15992" />
    <path
       d="m -265.50258,113.79921 h -6.08958 a 0.266785,0.266785 0 1 1 0,-0.53357 h 6.04318 a 0.266785,0.266785 0 1 1 0,0.53357 z"
       id="path271"
       style="fill:#000000;fill-opacity:1;stroke-width:1.15992" />
    <path
       d="m -265.50258,119.15804 h -6.08958 a 0.26678183,0.26678183 0 1 1 0,-0.53356 h 6.04318 a 0.26678183,0.26678183 0 0 1 0,0.53356 z"
       id="path273"
       style="fill:#000000;fill-opacity:1;stroke-width:1.15992" />
    <path
       d="m -265.50258,126.07117 h -6.08958 a 0.27838104,0.27838104 0 0 1 0,-0.54516 h 6.04318 a 0.27838104,0.27838104 0 0 1 0,0.54516 z"
       id="path275"
       style="fill:#000000;fill-opacity:1;stroke-width:1.15992" />
    <path
       d="m -265.50258,132.19555 h -6.08958 a 0.27838104,0.27838104 0 0 1 0,-0.54516 h 6.04318 a 0.27838104,0.27838104 0 0 1 0,0.54516 z"
       id="path277"
       style="fill:#000000;fill-opacity:1;stroke-width:1.15992" />
    <path
       d="m -265.50258,138.28514 h -6.08958 a 0.266785,0.266785 0 1 1 0,-0.53357 h 6.04318 a 0.266785,0.266785 0 0 1 0,0.53357 z"
       id="path283"
       style="fill:#000000;fill-opacity:1;stroke-width:1.15992" />
    <path
       d="m -265.39819,144.79229 h -6.19397 a 0.27838104,0.27838104 0 0 1 0,-0.54516 h 6.24037 a 0.27838104,0.27838104 0 1 1 0,0.54516 z"
       id="path287"
       style="fill:#000000;fill-opacity:1;stroke-width:1.15992" />
    <path
       d="m -265.39819,147.85449 h -6.19397 a 0.26678183,0.26678183 0 0 1 -0.26679,-0.27839 0.26678183,0.26678183 0 0 1 0.26679,-0.30157 h 6.24037 a 0.26678183,0.26678183 0 0 1 0.27838,0.26678 0.27838104,0.27838104 0 0 1 -0.32478,0.31318 z"
       id="path289"
       style="fill:#000000;fill-opacity:1;stroke-width:1.15992" />
    <path
       d="m -265.39819,151.67063 h -6.19397 a 0.266785,0.266785 0 0 1 0,-0.53357 h 6.24037 a 0.266785,0.266785 0 1 1 0,0.53357 z"
       id="path291"
       style="fill:#000000;fill-opacity:1;stroke-width:1.15992" />
    <path
       d="m -265.39819,155.49837 h -6.19397 a 0.266785,0.266785 0 1 1 0,-0.53357 h 6.24037 a 0.266785,0.266785 0 1 1 0,0.53357 z"
       id="path293"
       style="fill:#000000;fill-opacity:1;stroke-width:1.15992" />
    <path
       d="m -265.39819,160.09165 h -6.19397 a 0.26678183,0.26678183 0 0 1 0,-0.53356 h 6.24037 a 0.26678183,0.26678183 0 1 1 0,0.53356 z"
       id="path295"
       style="fill:#000000;fill-opacity:1;stroke-width:1.15992" />
    <path
       d="m -265.39819,164.67334 h -6.19397 a 0.26678183,0.26678183 0 0 1 -0.26679,-0.26678 0.26678183,0.26678183 0 0 1 0.26679,-0.27838 h 6.24037 a 0.27838104,0.27838104 0 0 1 0.27838,0.27838 0.26678183,0.26678183 0 0 1 -0.32478,0.26678 z"
       id="path297"
       style="fill:#000000;fill-opacity:1;stroke-width:1.15992" />
    <path
       d="m -265.39819,168.51268 h -6.19397 a 0.27838104,0.27838104 0 0 1 0,-0.54516 h 6.24037 a 0.27838104,0.27838104 0 1 1 0,0.54516 z"
       id="path299"
       style="fill:#000000;fill-opacity:1;stroke-width:1.15992" />
    <path
       d="m -265.39819,171.63287 h -6.19397 a 0.27838104,0.27838104 0 0 1 0,-0.54517 h 6.24037 a 0.27838104,0.27838104 0 1 1 0,0.54517 z"
       id="path301"
       style="fill:#000000;fill-opacity:1;stroke-width:1.15992" />
    <path
       d="m -265.39819,174.63706 h -6.19397 a 0.27838104,0.27838104 0 0 1 0,-0.54516 h 6.24037 a 0.27838104,0.27838104 0 1 1 0,0.54516 z"
       id="path303"
       style="fill:#000000;fill-opacity:1;stroke-width:1.15992" />
    <path
       d="m -265.39819,177.69925 h -6.19397 a 0.26678183,0.26678183 0 0 1 -0.26679,-0.27838 0.26678183,0.26678183 0 0 1 0.26679,-0.26678 h 6.24037 a 0.26678183,0.26678183 0 0 1 0.27838,0.26678 0.27838104,0.27838104 0 0 1 -0.32478,0.27838 z"
       id="path305"
       style="fill:#000000;fill-opacity:1;stroke-width:1.15992" />
    <path
       d="m -257.12632,189.03452 -0.5806,9.86934 c 1.51506,4.51582 25.10851,21.7039 30.95518,23.69298 18.76149,-0.0511 13.30005,-0.25519 13.30005,-0.25519 0.63794,1.49892 -0.52149,3.71977 0.63426,5.5717 2.56091,1.76817 20.92834,4.84576 24.31917,4.82064 l -0.9874,-40.94213 -0.90471,-2.86804 -6.70005,-0.77368 -2.15748,-6.07799 h -51.2685 l -0.2993,5.94422 z"
       fill="#36abc8"
       id="path131"
       sodipodi:nodetypes="cccsccccccccc"
       style="stroke-width:1.15992" />
    <path
       d="m -190.11055,232.73399 -0.12476,-41.16208 c 2e-5,-1.4395 -1.17033,-2.60466 -2.60982,-2.59823 h -4.91807 c -1.07891,-0.004 -1.07891,-1.62021 0,-1.62388 h 4.91807 c 2.32916,0.006 4.21574,1.89295 4.22211,4.22211 l 0.12476,41.16208 z"
       id="path135"
       style="fill:#000000;fill-opacity:1;stroke-width:1.15992"
       sodipodi:nodetypes="ccccccccc" />
    <path
       d="m -200.32662,215.95345 h -49.22705 a 2.5054294,2.5054294 0 0 1 -2.55183,-2.43584 v -32.269 a 0.8119447,0.8119447 0 0 1 0.81195,-0.81194 h 52.904 a 0.8119447,0.8119447 0 0 1 0.80034,0.81194 v 8.38623 a 0.56836129,0.56836129 0 0 1 0,0.13919 v 23.61599 a 2.6446199,2.6446199 0 0 1 -2.73741,2.56343 z m -50.18978,-33.8813 v 31.45706 a 0.88153996,0.88153996 0 0 0 0.92793,0.81195 h 49.26185 a 1.0439289,1.0439289 0 0 0 1.07872,-0.96274 v -23.74358 a 0.56836129,0.56836129 0 0 1 0,-0.13919 v -7.4235 z"
       id="path163"
       style="fill:#000000;fill-opacity:1;stroke-width:1.15992" />
    <path
       d="m -226.27484,222.7949 c -6e-5,-0.29661 -0.21468,-0.65472 0.0819,-0.66103 l 13.38972,0.10908 -0.0142,5.6704 c 0.30108,0 -0.5747,-0.0573 -0.5747,-0.0573 l 0.002,-5.00507 z"
       id="path165"
       style="fill:#000000;fill-opacity:1;stroke-width:1.15992"
       sodipodi:nodetypes="ccccccc" />
    <path
       d="m -258.71986,199.55506 0.026,-8.12234 c -1e-5,-2.24401 1.81573,-4.06493 4.05973,-4.07133 h 3.29417 c 1.08259,0 1.08259,1.62389 0,1.62389 h -3.29417 c -1.35168,0 -2.44311,1.09576 -2.44744,2.44744 l -0.026,8.12234 c 1.15904,-0.008 -3.93068,0.30832 -1.61229,0 z"
       id="path167"
       sodipodi:nodetypes="cccsssscc"
       style="fill:#000000;fill-opacity:1;stroke-width:1.15992" />
    <path
       d="m -200.83564,232.61343 h -4.63968 c -0.14734,0 -0.26675,-0.11944 -0.26678,-0.26678 l -0.001,-6.01191 c 0.006,-0.14482 0.12196,-0.26086 0.26678,-0.26678 h 4.63968 c 0.14734,0 0.26678,0.11944 0.26678,0.26678 l 0.001,4.98853 v 1.02338 c 0,0.14734 -0.11944,0.26678 -0.26678,0.26678 z m -4.3149,-0.54516 h 4.04812 l -0.001,-5.45515 h -4.04812 z"
       id="path169"
       style="fill:#000000;fill-opacity:1;stroke-width:1.15992"
       sodipodi:nodetypes="sssccsscssccccc" />
    <path
       d="m -190.85127,233.44975 h -4.63968 c -0.14734,0 -0.26631,-0.11944 -0.26678,-0.26678 l -0.022,-6.84823 c -4.7e-4,-0.14734 0.11944,-0.26678 0.26678,-0.26678 h 4.63968 c 0.14734,0 0.26632,0.11944 0.26679,0.26678 l 0.022,6.84823 c 4.7e-4,0.14734 -0.11945,0.26679 -0.26679,0.26678 z m -4.3265,-0.54516 h 4.05972 l -0.022,-6.29147 h -4.05972 z"
       id="path171"
       style="fill:#000000;fill-opacity:1;stroke-width:1.15992"
       sodipodi:nodetypes="csssscsscccccc" />
    <path
       d="m -228.09513,190.86436 h -23.19842 a 0.54516287,0.54516287 0 1 1 0,-1.07873 h 22.61846 v -9.27937 a 0.54516287,0.54516287 0 0 1 1.07872,0 v 9.81293 a 0.54516287,0.54516287 0 0 1 -0.49876,0.54517 z"
       id="path231"
       style="fill:#000000;fill-opacity:1;stroke-width:1.15992" />
    <path
       d="m -245.27323,210.70906 c 0,-0.0829 -0.16147,-0.0363 -0.20878,-0.10439 -0.10671,-0.10071 -0.10671,-0.27046 0,-0.37117 l 11.57567,-9.15024 c 0.10735,-0.10164 0.27543,-0.10164 0.38278,0 0.10017,0.10345 0.10017,0.26772 0,0.37117 l -11.58728,9.19664 c -0.0466,0.036 -0.16239,0.11693 -0.16239,0.058 z"
       id="path233"
       style="fill:#000000;fill-opacity:1;stroke-width:1.15992"
       sodipodi:nodetypes="sccccccss" />
    <path
       d="m -198.26536,232.61008 c -0.44659,5e-5 -0.80682,-0.3654 -0.80035,-0.81194 l -0.18219,-16.65664 c -0.10917,-0.90847 1.72146,-0.90847 1.61229,0 l 0.18219,16.65664 c 0,0.44842 -0.36352,0.81194 -0.81194,0.81194 z"
       id="path237"
       style="stroke-width:1.15992"
       sodipodi:nodetypes="sccccs" />
    <path
       d="m -198.44755,215.40828 a 0.27838104,0.27838104 0 0 1 -0.17399,-0.0696 l -15.86772,-13.83786 a 0.27838104,0.27838104 0 0 1 0,-0.38277 0.26678183,0.26678183 0 0 1 0.38278,0 l 15.87931,13.83786 a 0.28998025,0.28998025 0 0 1 0,0.38277 0.28998025,0.28998025 0 0 1 -0.22038,0.0696 z"
       id="path239"
       style="fill:#000000;fill-opacity:1;stroke-width:1.15992" />
    <path
       d="m -189.44656,208.48356 h -9.00099 a 0.266785,0.266785 0 1 1 0,-0.53357 h 9.00099 a 0.266785,0.266785 0 1 1 0,0.53357 z"
       id="path247"
       style="fill:#000000;fill-opacity:1;stroke-width:1.15992" />
    <path
       d="m -202.35648,231.58575 h -1.31072 c -0.5419,-0.006 -0.97967,-0.44404 -0.98593,-0.98594 v -2.07282 c 0.006,-0.5419 0.44403,-0.97966 0.98593,-0.98593 h 1.31072 c 0.5419,0.006 0.97966,0.44403 0.98593,0.98593 v 2.07282 c -0.006,0.5419 -0.44403,0.97967 -0.98593,0.98594 z"
       fill="#919191"
       id="path313"
       style="stroke-width:1.15992"
       sodipodi:nodetypes="ccccccccc" />
    <path
       d="m -202.3224,232.29078 h -1.31072 c -0.69185,0 -1.24332,-0.56093 -1.25271,-1.25272 l -0.0341,-2.51107 c -0.009,-0.69179 0.56086,-1.25271 1.25271,-1.25271 h 1.31072 c 0.69185,0 1.24332,0.56092 1.25271,1.25271 l 0.0341,2.51107 c 0.009,0.69179 -0.56085,1.25272 -1.25271,1.25272 z m -1.3448,-4.48294 c -0.39534,-5e-5 -0.71403,0.32386 -0.70755,0.71915 l 0.0341,2.51107 c -0.006,0.39529 0.31221,0.71921 0.70755,0.71916 h 1.31072 c 0.39718,0 0.71916,-0.32199 0.71915,-0.71916 l -0.0341,-2.51107 c -0.005,-0.39714 -0.32197,-0.71915 -0.71915,-0.71915 z"
       id="path315"
       style="fill:#000000;fill-opacity:1;stroke-width:1.15992"
       sodipodi:nodetypes="sssssssssccccscssc" />
    <path
       d="m -192.52253,232.77509 h -1.31071 c -0.5419,-0.006 -0.97968,-0.44403 -0.98594,-0.98594 l 0.11817,-3.26216 c 0.006,-0.5419 0.44404,-0.97967 0.98594,-0.98593 h 1.31071 c 0.5419,0.006 0.97966,0.44403 0.98593,0.98593 l -0.11817,3.26216 c -0.006,0.5419 -0.44403,0.97967 -0.98593,0.98594 z"
       fill="#919191"
       id="path317"
       style="stroke-width:1.15992"
       sodipodi:nodetypes="ccccccccc" />
    <path
       d="m -192.45238,233.81054 h -1.31071 c -0.69186,0 -1.26097,-0.56091 -1.25272,-1.25272 l 0.048,-4.03083 c 0.008,-0.69181 0.56086,-1.25271 1.25272,-1.25271 h 1.31071 c 0.69185,0 1.26095,0.56091 1.25271,1.25271 l -0.048,4.03083 c -0.008,0.69181 -0.56086,1.25272 -1.25271,1.25272 z m -1.26269,-6.0027 c -0.39718,0 -0.71442,0.322 -0.71915,0.71915 l -0.048,4.03083 c -10e-6,0.39718 0.32197,0.71916 0.71915,0.71916 h 1.31071 c 0.39717,0 0.71915,-0.32198 0.71915,-0.71916 l 0.048,-4.03083 c 0.005,-0.39715 -0.32197,-0.71915 -0.71915,-0.71915 z"
       id="path319"
       style="fill:#000000;fill-opacity:1;stroke-width:1.15992"
       sodipodi:nodetypes="ssssssssssscsscsss" />
    <path
       d="m -191.41843,229.46653 h -3.28258 a 0.27838104,0.27838104 0 0 1 0,-0.54517 h 3.28258 a 0.27838104,0.27838104 0 0 1 0,0.54517 z"
       id="path321"
       style="fill:#000000;fill-opacity:1;stroke-width:1.15992" />
    <path
       d="m -201.37055,229.46653 h -3.28258 a 0.27838104,0.27838104 0 0 1 0,-0.54517 h 3.28258 a 0.27838104,0.27838104 0 0 1 0,0.54517 z"
       id="path325"
       style="fill:#000000;fill-opacity:1;stroke-width:1.15992" />
    <path
       d="m -180.46877,188.23134 -0.0504,44.67155 c 9.28848,-0.32687 21.77643,-2.68707 21.83951,-3.64843 l 0.43422,-6.61768 20.34108,-0.82475 c 1.92582,-0.0781 24.06951,-16.05023 25.33028,-18.95294 l -1.06904,-14.14556 z m 21.9805,34.33366 c 166.110658,-170.536272 83.055328,-85.26814 0,0 z"
       fill="#36abc8"
       id="path129"
       sodipodi:nodetypes="ccscsccccc"
       style="stroke-width:1.15992" />
    <path
       d="m -121.90436,189.63484 v 23.75518 a 1.8326752,1.8326752 0 0 1 -1.87908,1.77468 h -49.21544 a 1.6818854,1.6818854 0 0 1 -1.73989,-1.62389 v -32.2922 h 52.904 v 8.38623"
       fill="#36abc8"
       id="path335"
       style="stroke-width:1.15992" />
    <path
       d="m -123.78344,215.95345 h -49.21544 a 2.4938302,2.4938302 0 0 1 -2.54023,-2.43584 v -32.269 a 0.8119447,0.8119447 0 0 1 0.80034,-0.81194 h 52.904 a 0.82354391,0.82354391 0 0 1 0.81195,0.81194 v 8.38623 c 0,0 0,0.0928 0,0.13919 v 23.61599 a 2.6446199,2.6446199 0 0 1 -2.76062,2.56343 z m -50.20138,-33.8813 v 31.45706 a 0.88153996,0.88153996 0 0 0 0.92794,0.81195 h 49.27344 a 1.0323297,1.0323297 0 0 0 1.06713,-0.96274 v -23.74358 c 0,0 0,-0.0928 0,-0.13919 v -7.4235 z"
       id="path337"
       style="fill:#000000;fill-opacity:1;stroke-width:1.15992" />
    <path
       d="m -159.509,229.98882 v -7.95739 c 0,-0.30108 0.24408,-0.54516 0.54516,-0.54516 h 22.0385 l -1.29563,0.88399 c -1.01263,0.5726 -19.81465,0.3371 -19.81465,0.3371 l -0.20002,7.18909 z"
       id="path339"
       style="fill:#000000;fill-opacity:1;stroke-width:1.15992"
       sodipodi:nodetypes="cscccccc" />
    <path
       d="m -113.46128,205.28681 -0.25404,-13.7149 c -0.0266,-1.43472 -1.16326,-2.59823 -2.59822,-2.59823 h -4.91807 c -1.08259,0 -1.08259,-1.62388 0,-1.62388 h 4.91807 c 2.32916,0.006 4.21574,1.89294 4.22211,4.22211 l 0.11031,10.94244 0.0178,1.30816 z"
       id="path343"
       sodipodi:nodetypes="cssssccccc"
       style="fill:#000000;fill-opacity:1;stroke-width:1.15992" />
    <path
       d="m -182.08289,233.12892 -0.091,-41.6962 c -0.005,-2.24852 1.82279,-4.07133 4.07132,-4.07133 h 3.28258 c 1.08259,0 1.08259,1.62389 0,1.62389 h -3.28258 c -1.3562,-0.007 -2.45904,1.09121 -2.45903,2.44744 l 0.13935,41.42654 z"
       id="path345"
       sodipodi:nodetypes="csssscccc"
       style="fill:#000000;fill-opacity:1;stroke-width:1.15992" />
    <path
       d="m -151.56354,190.86436 h -23.19842 a 0.54516287,0.54516287 0 0 1 0,-1.07873 h 22.64165 v -9.27937 a 0.54516287,0.54516287 0 0 1 1.07873,0 v 9.81293 a 0.54516287,0.54516287 0 0 1 -0.52196,0.54517 z"
       id="path369"
       style="fill:#000000;fill-opacity:1;stroke-width:1.15992" />
    <path
       d="m -174.80836,215.40828 a 0.26678183,0.26678183 0 0 1 -0.20879,-0.10439 0.25518262,0.25518262 0 0 1 0,-0.37117 l 17.654,-13.84946 a 0.26678183,0.26678183 0 1 1 0.32478,0.41757 l -17.6424,13.84946 a 0.3479763,0.3479763 0 0 1 -0.12759,0.058 z"
       id="path371"
       style="fill:#000000;fill-opacity:1;stroke-width:1.15992" />
    <path
       d="m -121.90436,215.40828 a 0.25518262,0.25518262 0 0 1 -0.17399,-0.0696 l -15.89092,-13.83786 a 0.26678183,0.26678183 0 0 1 0,-0.38277 0.25518262,0.25518262 0 0 1 0.37117,0 l 15.89092,13.83786 a 0.26678183,0.26678183 0 0 1 -0.17399,0.47556 z"
       id="path377"
       style="fill:#000000;fill-opacity:1;stroke-width:1.15992" />
    <path
       d="m -174.80836,208.48356 h -6.55355 a 0.266785,0.266785 0 1 1 0,-0.53357 h 6.55355 a 0.266785,0.266785 0 1 1 0,0.53357 z"
       id="path383"
       style="fill:#000000;fill-opacity:1;stroke-width:1.15992" />
    <path
       d="m -117.13227,208.52246 -4.77209,-0.0389 c -0.3557,-0.003 -0.3557,-0.53647 0,-0.53357 l 4.77209,0.0389 c 0.35571,0.003 0.35571,0.53647 0,0.53357 z"
       id="path385"
       style="fill:#000000;fill-opacity:1;stroke-width:1.15992"
       sodipodi:nodetypes="sssss" />
    <path
       d="m -101.46655,142.10128 h 0.20878 a 3.0273938,3.0273938 0 0 0 3.027398,-3.0274 V 96.678771 a 3.0157946,3.0157946 0 0 0 -3.027398,-3.01579 h -0.20878 a 3.0157946,3.0157946 0 0 0 -3.0158,3.01579 v 42.395109 a 3.0157946,3.0157946 0 0 0 3.0158,3.0274 z"
       fill="#ffd962"
       id="path407"
       style="stroke-width:1.15992" />
    <path
       d="m -101.25777,142.63484 h -0.20878 a 3.5609575,3.5609575 0 0 1 -3.56096,-3.56096 V 96.690371 a 3.5725567,3.5725567 0 0 1 3.56096,-3.57256 h 0.20878 a 3.5609575,3.5609575 0 0 1 3.560958,3.57256 v 42.383509 a 3.5493583,3.5493583 0 0 1 -3.560958,3.56096 z m -0.20878,-48.438299 a 2.4822309,2.4822309 0 0 0 -2.48223,2.49383 v 42.383509 a 2.4938302,2.4938302 0 0 0 2.48223,2.49383 h 0.20878 a 2.5054294,2.5054294 0 0 0 2.493828,-2.49383 V 96.690371 a 2.4938302,2.4938302 0 0 0 -2.493828,-2.49383 z"
       id="path409"
       style="fill:#000000;fill-opacity:1;stroke-width:1.15992" />
    <path
       d="m -101.86092,179.61312 h 0.99753 a 2.6330207,2.6330207 0 0 0 2.621418,-2.62142 v -32.47779 a 2.6330207,2.6330207 0 0 0 -2.621418,-2.62142 h -0.99753 a 2.6214215,2.6214215 0 0 0 -2.62143,2.62142 v 32.47779 a 2.6214215,2.6214215 0 0 0 2.62143,2.62142 z"
       fill="#ffd962"
       id="path411"
       style="stroke-width:1.15992" />
    <path
       d="m -100.86339,180.14669 h -0.99753 a 3.1665843,3.1665843 0 0 1 -3.16659,-3.15499 v -32.47779 a 3.1665843,3.1665843 0 0 1 3.16659,-3.15498 h 0.99753 a 3.1549851,3.1549851 0 0 1 3.154978,3.15498 v 32.47779 a 3.1549851,3.1549851 0 0 1 -3.154978,3.15499 z m -0.99753,-37.70904 a 2.0878578,2.0878578 0 0 0 -2.08786,2.07626 v 32.47779 a 2.0878578,2.0878578 0 0 0 2.08786,2.07626 h 0.99753 a 2.0762586,2.0762586 0 0 0 2.076258,-2.07626 v -32.47779 a 2.0762586,2.0762586 0 0 0 -2.076258,-2.07626 z"
       id="path413"
       style="fill:#000000;fill-opacity:1;stroke-width:1.15992" />
    <path
       d="m -98.357962,96.238001 h -6.019988 a 0.27838104,0.27838104 0 0 1 0,-0.54516 h 6.019988 a 0.27838104,0.27838104 0 1 1 0,0.54516 z"
       id="path415"
       style="fill:#000000;fill-opacity:1;stroke-width:1.15992" />
    <polyline
       points="179.89 67.08 196.4 61.54 202.59 66 182 73.49"
       fill="#ffffff"
       id="polyline603"
       transform="matrix(1.1941909,0,0,1.1941909,-340.02559,16.430333)" />
    <path
       d="m -98.357962,98.557841 h -6.019988 a 0.27838104,0.27838104 0 0 1 0,-0.54516 h 6.019988 a 0.27838104,0.27838104 0 1 1 0,0.54516 z"
       id="path417"
       style="fill:#000000;fill-opacity:1;stroke-width:1.15992" />
    <path
       d="m -122.94556,104.68104 a 0.62097927,0.62097927 0 0 1 -0.25078,-0.29855 0.54932782,0.54932782 0 0 1 0.33437,-0.70457 l 23.597218,-8.598169 -6.317268,-4.54987 -19.4892,6.53222 a 0.54932782,0.54932782 0 0 1 -0.69264,-0.34632 0.56126973,0.56126973 0 0 1 0.34632,-0.70457 l 19.71609,-6.61581 a 0.53738591,0.53738591 0 0 1 0.50156,0.0717 l 7.392038,5.32609 a 0.56126973,0.56126973 0 0 1 0.22691,0.52544 0.57321164,0.57321164 0 0 1 -0.35827,0.44185 l -24.588388,8.956439 a 0.59709546,0.59709546 0 0 1 -0.41796,-0.0359 z"
       id="path605"
       style="fill:#000000;fill-opacity:1;stroke-width:1.1942" />
    <path
       d="m -98.357962,101.56204 h -6.019988 a 0.27838104,0.27838104 0 0 1 0,-0.54516 h 6.019988 a 0.27838104,0.27838104 0 1 1 0,0.54516 z"
       id="path419"
       style="fill:#000000;fill-opacity:1;stroke-width:1.15992" />
    <path
       d="m -98.357962,105.37818 h -6.019988 a 0.26678183,0.26678183 0 1 1 0,-0.53356 h 6.019988 a 0.26678183,0.26678183 0 1 1 0,0.53356 z"
       id="path421"
       style="fill:#000000;fill-opacity:1;stroke-width:1.15992" />
    <path
       d="m -98.357962,109.20592 h -6.019988 a 0.266785,0.266785 0 1 1 0,-0.53357 h 6.019988 a 0.266785,0.266785 0 1 1 0,0.53357 z"
       id="path423"
       style="fill:#000000;fill-opacity:1;stroke-width:1.15992" />
    <path
       d="m -98.357962,113.79921 h -6.019988 a 0.266785,0.266785 0 1 1 0,-0.53357 h 6.019988 a 0.266785,0.266785 0 1 1 0,0.53357 z"
       id="path425"
       style="fill:#000000;fill-opacity:1;stroke-width:1.15992" />
    <path
       d="m -98.357962,119.15804 h -6.019988 a 0.26678183,0.26678183 0 1 1 0,-0.53356 h 6.019988 a 0.26678183,0.26678183 0 1 1 0,0.53356 z"
       id="path427"
       style="fill:#000000;fill-opacity:1;stroke-width:1.15992" />
    <path
       d="m -98.357962,123.75133 h -6.019988 a 0.27838104,0.27838104 0 0 1 0,-0.54517 h 6.019988 a 0.27838104,0.27838104 0 1 1 0,0.54517 z"
       id="path429"
       style="fill:#000000;fill-opacity:1;stroke-width:1.15992" />
    <path
       d="m -98.357962,127.55587 h -6.019988 a 0.27838104,0.27838104 0 0 1 0,-0.54516 h 6.019988 a 0.27838104,0.27838104 0 1 1 0,0.54516 z"
       id="path431"
       style="fill:#000000;fill-opacity:1;stroke-width:1.15992" />
    <path
       d="m -98.357962,131.40681 h -6.019988 a 0.27838104,0.27838104 0 0 1 0,-0.54517 h 6.019988 a 0.27838104,0.27838104 0 1 1 0,0.54517 z"
       id="path433"
       style="fill:#000000;fill-opacity:1;stroke-width:1.15992" />
    <path
       d="m -98.357962,135.23455 h -6.019988 a 0.26678183,0.26678183 0 0 1 -0.26679,-0.27839 0.26678183,0.26678183 0 0 1 0.26679,-0.26678 h 6.019988 a 0.26678183,0.26678183 0 0 1 0.27838,0.26678 0.27838104,0.27838104 0 0 1 -0.27838,0.27839 z"
       id="path435"
       style="fill:#000000;fill-opacity:1;stroke-width:1.15992" />
    <path
       d="m -98.357962,138.28514 h -6.019988 a 0.266785,0.266785 0 1 1 0,-0.53357 h 6.019988 a 0.266785,0.266785 0 1 1 0,0.53357 z"
       id="path437"
       style="fill:#000000;fill-opacity:1;stroke-width:1.15992" />
    <path
       d="m -98.357962,140.58178 h -6.019988 a 0.26678183,0.26678183 0 1 1 0,-0.53356 h 6.019988 a 0.26678183,0.26678183 0 1 1 0,0.53356 z"
       id="path439"
       style="fill:#000000;fill-opacity:1;stroke-width:1.15992" />
    <path
       d="m -98.241972,144.79229 h -6.240378 a 0.27838104,0.27838104 0 1 1 0,-0.54516 h 6.240378 a 0.27838104,0.27838104 0 0 1 0,0.54516 z"
       id="path441"
       style="fill:#000000;fill-opacity:1;stroke-width:1.15992" />
    <path
       d="m -98.241972,147.85449 h -6.240378 a 0.27838104,0.27838104 0 0 1 -0.27838,-0.27839 0.26678183,0.26678183 0 0 1 0.27838,-0.26678 h 6.240378 a 0.26678183,0.26678183 0 0 1 0.26678,0.26678 0.26678183,0.26678183 0 0 1 -0.26678,0.27839 z"
       id="path447"
       style="fill:#000000;fill-opacity:1;stroke-width:1.15992" />
    <path
       d="m -98.241972,151.67063 h -6.240378 a 0.266785,0.266785 0 1 1 0,-0.53357 h 6.240378 a 0.266785,0.266785 0 1 1 0,0.53357 z"
       id="path449"
       style="fill:#000000;fill-opacity:1;stroke-width:1.15992" />
    <path
       d="m -98.241972,155.49837 h -6.240378 a 0.266785,0.266785 0 1 1 0,-0.53357 h 6.240378 a 0.266785,0.266785 0 1 1 0,0.53357 z"
       id="path451"
       style="fill:#000000;fill-opacity:1;stroke-width:1.15992" />
    <path
       d="m -98.241972,160.09165 h -6.240378 a 0.26678183,0.26678183 0 1 1 0,-0.53356 h 6.240378 a 0.26678183,0.26678183 0 1 1 0,0.53356 z"
       id="path453"
       style="fill:#000000;fill-opacity:1;stroke-width:1.15992" />
    <path
       d="m -98.241972,164.67334 h -6.240378 a 0.26678183,0.26678183 0 0 1 -0.27838,-0.26678 0.27838104,0.27838104 0 0 1 0.27838,-0.27838 h 6.240378 a 0.26678183,0.26678183 0 0 1 0.26678,0.27838 0.26678183,0.26678183 0 0 1 -0.26678,0.26678 z"
       id="path455"
       style="fill:#000000;fill-opacity:1;stroke-width:1.15992" />
    <path
       d="m -98.241972,168.51268 h -6.240378 a 0.27838104,0.27838104 0 1 1 0,-0.54516 h 6.240378 a 0.27838104,0.27838104 0 0 1 0,0.54516 z"
       id="path457"
       style="fill:#000000;fill-opacity:1;stroke-width:1.15992" />
    <path
       d="m -98.241972,171.63287 h -6.240378 a 0.27838104,0.27838104 0 1 1 0,-0.54517 h 6.240378 a 0.27838104,0.27838104 0 0 1 0,0.54517 z"
       id="path459"
       style="fill:#000000;fill-opacity:1;stroke-width:1.15992" />
    <path
       d="m -98.241972,174.63706 h -6.240378 a 0.27838104,0.27838104 0 1 1 0,-0.54516 h 6.240378 a 0.27838104,0.27838104 0 0 1 0,0.54516 z"
       id="path461"
       style="fill:#000000;fill-opacity:1;stroke-width:1.15992" />
    <path
       d="m -98.241972,177.69925 h -6.240378 a 0.27838104,0.27838104 0 0 1 -0.27838,-0.27838 0.26678183,0.26678183 0 0 1 0.27838,-0.26678 h 6.240378 a 0.26678183,0.26678183 0 0 1 0.26678,0.26678 0.26678183,0.26678183 0 0 1 -0.26678,0.27838 z"
       id="path463"
       style="fill:#000000;fill-opacity:1;stroke-width:1.15992" />
    <path
       d="m -143.24691,62.600292 45.167328,32.477789 a 0.55676208,0.55676208 0 0 0 0.76555,-0.12759 l 2.73741,-3.80454 a 0.54516287,0.54516287 0 0 0 -0.12759,-0.75395 l -45.167328,-32.47779 a 0.55676208,0.55676208 0 0 0 -0.76554,0.127592 l -2.73742,3.804541 a 0.54516287,0.54516287 0 0 0 0.12759,0.753948 z"
       id="path599"
       style="stroke-width:1.15992" />
    <path
       d="m -98.149182,95.333261 h -0.0812 L -143.39771,62.855475 a 0.80034549,0.80034549 0 0 1 -0.19718,-1.159921 l 2.73741,-3.804541 a 0.8119447,0.8119447 0 0 1 1.15992,-0.185587 l 45.178928,32.477785 a 0.83514312,0.83514312 0 0 1 0.32477,0.53357 0.80034549,0.80034549 0 0 1 -0.15079,0.60316 l -2.74901,3.75814 a 0.8119447,0.8119447 0 0 1 -1.05553,0.25518 z M -140.06872,58.0882 a 0.28998025,0.28998025 0 0 0 -0.17399,0 0.26678183,0.26678183 0 0 0 -0.18559,0.115992 l -2.72581,3.792941 a 0.27838104,0.27838104 0 0 0 0.058,0.382774 v 0 l 45.178928,32.477794 a 0.27838104,0.27838104 0 0 0 0.39437,-0.0696 l 2.72581,-3.79294 a 0.25518262,0.25518262 0 0 0 0,-0.20879 0.26678183,0.26678183 0 0 0 -0.11599,-0.18558 L -140.08031,58.122997 Z"
       id="path601"
       style="stroke-width:1.15992" />
    <path
       d="m -143.3397,61.730352 2.73741,-3.769744 a 0.54516287,0.54516287 0 0 1 0.76555,-0.115992 l 48.531098,34.449655 c 0.24358,0.18559 -0.77715,0.44077 -0.95114,0.68435 l -6.70434,2.85341 c -0.18559,0.25518 1.15992,-0.67276 0.92793,-0.85834 L -143.21211,62.495899 a 0.54516287,0.54516287 0 0 1 -0.12759,-0.765547 z"
       id="path627"
       style="fill:#000000;fill-opacity:1;stroke-width:1.15992" />
    <path
       d="M -294.31501,84.058833"
       fill="#ffd962"
       stroke="#000000"
       stroke-linecap="round"
       stroke-linejoin="round"
       stroke-width="0.73075"
       id="path635"
       style="fill:#000000;fill-opacity:1" />
    <polyline
       points="28.14 65.49 46.93 120.03 53.19 120.03 53.49 108.69 47.89 108.47 30.3 63.04"
       fill="#ffd962"
       id="polyline637"
       transform="matrix(1.159921,0,0,1.159921,-333.06797,18.523296)"
       style="fill:#ffd962;fill-opacity:1" />
    <path
       d="m -278.63288,158.0154 h 7.2611 a 0.27838104,0.27838104 0 0 0 0.26679,-0.26679 l 0.34797,-13.1419 a 0.26678183,0.26678183 0 0 0 -0.25518,-0.27838 l -6.32157,-0.25518 -20.33342,-52.474831 a 0.26678183,0.26678183 0 0 0 -0.34797,-0.150789 0.25518262,0.25518262 0 0 0 -0.15079,0.347976 l 20.39141,52.683614 a 0.25518262,0.25518262 0 0 0 0.24358,0.17399 l 6.22878,0.25518 -0.28998,12.57354 h -6.85513 l -21.72532,-63.088101 a 0.26678183,0.26678183 0 0 0 -0.33638,-0.162389 0.26678183,0.26678183 0 0 0 -0.17399,0.336377 l 21.79492,63.262093 a 0.25518262,0.25518262 0 0 0 0.25518,0.18559 z"
       id="path639"
       style="fill:#000000;fill-opacity:1;stroke-width:1.15992" />
    <path
       d="M -316.89868,92.375466"
       fill="#ffd962"
       stroke="#000000"
       stroke-linecap="round"
       stroke-linejoin="round"
       stroke-width="0.73075"
       id="path641"
       style="fill:#000000;fill-opacity:1" />
    <path
       d="m -271.82415,157.82981 h -7.2611 l -21.79492,-63.262093 -11.30923,1.345508 25.65746,73.225815 a 6.518756,6.518756 0 0 0 6.15918,4.3613 h 8.54861 z"
       fill="#ffd962"
       id="path643"
       style="stroke-width:1.15992" />
    <path
       d="m -286.99591,169.31303 -25.65745,-73.214217 a 0.51036524,0.51036524 0 0 1 0,-0.463969 0.52196445,0.52196445 0 0 1 0.38277,-0.255182 l 11.33243,-1.345509 a 0.53356366,0.53356366 0 0 1 0.56836,0.359576 l 21.66732,62.902511 h 6.87833 a 0.53356366,0.53356366 0 0 1 0.53357,0.53357 v 15.67053 a 0.54516287,0.54516287 0 0 1 -0.53357,0.54516 h -8.50222 a 7.0871173,7.0871173 0 0 1 -6.66954,-4.73247 z m 14.6266,-10.96126 h -6.71594 a 0.52196445,0.52196445 0 0 1 -0.51037,-0.35957 l -21.64412,-62.832923 -10.17251,1.159921 25.43707,72.645852 a 5.9967916,5.9967916 0 0 0 5.64881,4.00173 h 7.95706 z"
       id="path645"
       style="stroke-width:1.15992" />
    <path
       d="M -294.79058,84.232821"
       fill="none"
       stroke="#000000"
       stroke-linecap="round"
       stroke-linejoin="round"
       stroke-width="1.4615"
       id="path647"
       style="fill:#000000;fill-opacity:1" />
    <path
       d="m -271.83574,158.36337 a 0.53356366,0.53356366 0 0 0 0.53356,-0.53356 v -13.40869 a 0.54516287,0.54516287 0 0 0 -0.53356,-0.53356 h -5.79961 l -20.24062,-52.289241 a 0.54516287,0.54516287 0 0 0 -0.69595,-0.313178 0.54516287,0.54516287 0 0 0 -0.31318,0.695952 l 20.39141,52.695207 a 0.54516287,0.54516287 0 0 0 0.51036,0.34798 h 5.60242 v 12.80553 a 0.53356366,0.53356366 0 0 0 0.54517,0.53356 z"
       id="path649"
       style="fill:#000000;fill-opacity:1;stroke-width:1.15992" />
    <polyline
       points="18.02 69.73 10.21 66.7 0.23 56.81 3.92 40.66 7.76 37.88 14.79 42.02 10.86 55.21 13.83 61.46 23.68 54.34 25.91 44.12 22.05 41.55 14.22 39.13 12.75 35.74 15.14 33.08 24.18 37.7 24.84 40.89 34.08 47.57 31.05 59.8 21.24 70.24"
       fill="#ffd962"
       id="polyline651"
       transform="matrix(1.159921,0,0,1.159921,-333.06797,18.523296)" />
    <path
       d="m -308.43125,100.26293 a 0.26678183,0.26678183 0 0 0 0.19718,-0.0812 l 11.37883,-12.063174 a 0.35957551,0.35957551 0 0 0 0.058,-0.115992 l 3.47976,-14.197433 a 0.28998025,0.28998025 0 0 0 -0.10439,-0.278381 l -10.63648,-7.690276 -0.75395,-3.584156 a 0.25518262,0.25518262 0 0 0 -0.13919,-0.185587 l -10.43929,-5.370435 a 0.26678183,0.26678183 0 0 0 -0.32478,0.058 l -2.77221,3.085389 a 0.26678183,0.26678183 0 0 0 0,0.289981 l 1.65869,3.897334 a 0.26678183,0.26678183 0 0 0 0.16239,0.15079 l 9.11698,2.79541 4.29171,2.853405 -2.52863,11.59921 -11.07725,8.015054 -3.25938,-6.866732 4.4541,-15.229763 a 0.26678183,0.26678183 0 0 0 -0.11599,-0.313178 l -8.11945,-4.802073 a 0.26678183,0.26678183 0 0 0 -0.28998,0 l -4.47729,3.247778 a 0.2319842,0.2319842 0 0 0 -0.1044,0.15079 l -4.2917,18.732724 a 0.2319842,0.2319842 0 0 0 0.0812,0.278381 l 11.59921,11.471619 h 0.0928 l 9.05899,3.479763 a 0.27838104,0.27838104 0 0 0 0.34797,-0.162389 0.26678183,0.26678183 0 0 0 -0.15079,-0.347976 l -9.00098,-3.479763 -11.46002,-11.262833 4.22211,-18.489141 4.22211,-3.062191 7.82947,4.639684 -4.51209,15.078973 a 0.26678183,0.26678183 0 0 0 0,0.185587 l 3.47976,7.249506 a 0.30157946,0.30157946 0 0 0 0.18559,0.15079 0.31317867,0.31317867 0 0 0 0.22038,0 l 11.41362,-8.258637 a 0.27838104,0.27838104 0 0 0 0.1044,-0.162389 l 2.59822,-11.854393 a 0.26678183,0.26678183 0 0 0 -0.11599,-0.278381 l -4.4773,-2.980997 h -0.0696 l -8.97779,-2.79541 -1.61229,-3.734945 2.52863,-2.79541 10.2305,5.208045 0.75395,3.560958 a 0.22038499,0.22038499 0 0 0 0.10439,0.162389 l 10.56688,7.643879 -3.47976,13.919052 -11.34403,12.086377 a 0.27838104,0.27838104 0 0 0 0,0.382767 0.28998025,0.28998025 0 0 0 0.19719,0.0696 z"
       id="path653"
       style="fill:#000000;fill-opacity:1;stroke-width:1.15992" />
    <path
       d="m -308.97642,65.244914 0.56837,1.009132 a 1.5078973,1.5078973 0 0 0 2.02986,0.568361 l 0.35957,-0.208786 a 3.479763,3.479763 0 0 1 3.88574,0.313179 l 6.18238,4.952862 a 4.2569101,4.2569101 0 0 1 1.54269,4.152518 l -1.85587,9.53455 a 4.8948666,4.8948666 0 0 1 -2.31984,3.270977 l -8.76901,5.312439 a 3.2129812,3.2129812 0 0 1 -3.95533,-0.475568 l -5.8576,-5.903998 a 5.2544421,5.2544421 0 0 1 -1.3803,-5.103652 l 2.06466,-7.620681 a 6.1011845,6.1011845 0 0 1 2.15745,-3.270978 l 1.15992,-0.893139 a 1.159921,1.159921 0 0 0 0.30158,-1.438302 l -1.05553,-2.029861 a 1.0787265,1.0787265 0 0 0 -1.57749,-0.382774 l -1.61229,1.159921 a 5.9967916,5.9967916 0 0 0 -2.31984,3.386969 l -3.47977,13.304294 a 4.69768,4.69768 0 0 0 1.15992,4.477295 l 8.47903,8.583415 a 5.2080453,5.2080453 0 0 0 6.44916,0.788747 l 10.77566,-6.576753 a 5.6836129,5.6836129 0 0 0 2.62143,-3.746544 l 2.8534,-13.919052 a 4.9412635,4.9412635 0 0 0 -1.90227,-4.929665 l -9.37216,-6.669545 a 5.1036524,5.1036524 0 0 0 -5.48643,-0.289981 l -1.02073,0.556762 a 1.5542941,1.5542941 0 0 0 -0.62636,2.087858 z"
       fill="#ffd962"
       id="path655"
       style="fill:#ffd962;fill-opacity:1;stroke-width:1.15992" />
    <path
       d="m -313.6393,98.325861 -8.47902,-8.583415 a 5.2892398,5.2892398 0 0 1 -1.33391,-4.99926 l 3.47976,-13.304294 a 6.5303552,6.5303552 0 0 1 2.54023,-3.688548 l 1.62389,-1.159921 a 1.6122902,1.6122902 0 0 1 1.29911,-0.255183 1.6470878,1.6470878 0 0 1 1.05553,0.823544 l 1.06713,2.041461 a 1.6934847,1.6934847 0 0 1 -0.45237,2.099457 l -1.15992,0.904738 a 5.5096247,5.5096247 0 0 0 -1.97187,2.980997 l -2.01826,7.620681 a 4.7324777,4.7324777 0 0 0 1.15992,4.581688 l 5.9272,5.8808 a 2.7142151,2.7142151 0 0 0 3.30577,0.394373 l 8.769,-5.312438 a 4.419299,4.419299 0 0 0 2.02987,-2.923001 l 1.84427,-9.534551 a 3.700148,3.700148 0 0 0 -1.34551,-3.630553 l -6.20558,-4.918065 a 2.9925962,2.9925962 0 0 0 -3.28257,-0.255182 l -0.35958,0.197186 a 2.0298617,2.0298617 0 0 1 -2.76061,-0.765548 l -0.57996,-1.009131 v 0 a 2.1458539,2.1458539 0 0 1 -0.18559,-1.647088 2.0066633,2.0066633 0 0 1 1.05553,-1.264314 l 1.02073,-0.568361 a 5.7300097,5.7300097 0 0 1 6.00839,0.347976 l 9.37216,6.681145 a 5.4864263,5.4864263 0 0 1 2.18065,5.556022 l -2.8418,13.919052 a 6.240375,6.240375 0 0 1 -2.87661,4.094521 L -306.51738,99.219 a 5.7416089,5.7416089 0 0 1 -7.12192,-0.86994 z m 6.56516,-35.319594 -1.03233,0.57996 a 0.93953601,0.93953601 0 0 0 -0.49877,0.59156 1.0207305,1.0207305 0 0 0 0.0928,0.800345 l 0.57996,1.009132 a 0.93953601,0.93953601 0 0 0 1.28752,0.359575 l 0.35957,-0.197186 a 4.0017274,4.0017274 0 0 1 4.4773,0.347976 l 6.21717,4.918065 a 4.8136722,4.8136722 0 0 1 1.73988,4.639684 l -1.85587,9.534551 a 5.4632279,5.4632279 0 0 1 -2.56342,3.688548 l -8.76901,5.312439 a 3.758144,3.758144 0 0 1 -4.63968,-0.556763 l -5.8692,-5.915597 a 5.799605,5.799605 0 0 1 -1.5195,-5.625616 l 2.06466,-7.620681 a 6.6231489,6.6231489 0 0 1 2.31984,-3.560958 l 1.15992,-0.893139 a 0.59155971,0.59155971 0 0 0 0.16239,-0.753949 l -1.05552,-2.029861 a 0.53356366,0.53356366 0 0 0 -0.35958,-0.278382 0.51036524,0.51036524 0 0 0 -0.42917,0.08119 l -1.61229,1.159921 a 5.5328232,5.5328232 0 0 0 -2.12266,3.08539 l -3.47976,13.304294 a 4.1873148,4.1873148 0 0 0 1.05553,3.966929 l 8.47902,8.595015 a 4.639684,4.639684 0 0 0 5.79961,0.707552 l 10.77566,-6.588351 a 5.2196445,5.2196445 0 0 0 2.37784,-3.38697 l 2.84181,-13.919052 a 4.4076998,4.4076998 0 0 0 -1.75148,-4.465696 l -9.37217,-6.59995 a 4.639684,4.639684 0 0 0 -4.86006,-0.28998 z m -1.91387,2.238647 z"
       id="path657"
       style="fill:#000000;fill-opacity:1;stroke-width:1.15992" />
    <path
       d="m -311.76023,99.717766 a 0.53356366,0.53356366 0 0 0 0.19719,-1.032329 l -8.95459,-3.479763 -9.74334,-9.662142 a 3.9437314,3.9437314 0 0 1 -1.10192,-3.630553 l 3.73495,-16.1577 2.06465,-1.693484 a 2.9693978,2.9693978 0 0 1 3.0042,-0.463969 l 7.24951,3.642152 a 0.54516287,0.54516287 0 0 0 0.71915,-0.231984 0.55676208,0.55676208 0 0 0 -0.24359,-0.73075 l -7.2843,-3.67695 a 4.0829219,4.0829219 0 0 0 -4.12932,0.614758 l -2.18065,1.832676 a 0.47556761,0.47556761 0 0 0 -0.17399,0.28998 l -3.81614,16.331688 a 5.0572556,5.0572556 0 0 0 1.40351,4.639684 l 9.81293,9.743336 a 0.62635734,0.62635734 0 0 0 0.18558,0.115992 l 9.05899,3.479763 z"
       id="path659"
       style="fill:#000000;fill-opacity:1;stroke-width:1.15992" />
    <path
       d="m -318.42977,70.30217 a 0.26678183,0.26678183 0 0 0 0.24358,-0.162389 0.26678183,0.26678183 0 0 0 -0.12759,-0.359576 l -9.67374,-4.570088 a 0.27838104,0.27838104 0 0 0 -0.35958,0.127591 0.25518262,0.25518262 0 0 0 0.1276,0.359575 l 9.67374,4.570089 z"
       id="path661"
       style="fill:#000000;fill-opacity:1;stroke-width:1.15992" />
    <path
       d="m -322.62869,88.304144 a 0.27838104,0.27838104 0 0 0 0.25519,-0.185588 0.26678183,0.26678183 0 0 0 -0.13919,-0.347976 l -9.20978,-4.291708 a 0.28998025,0.28998025 0 0 0 -0.35957,0.127592 0.27838104,0.27838104 0 0 0 0.12759,0.359575 l 9.27937,4.349704 z"
       id="path663"
       style="fill:#000000;fill-opacity:1;stroke-width:1.15992" />
    <path
       d="m -308.70963,64.490966 a 0.54516287,0.54516287 0 0 0 0.22038,-1.03233 l -8.98939,-4.129319 1.67029,-1.368707 a 1.6122902,1.6122902 0 0 1 1.72828,-0.185587 l 9.27937,4.744077 a 0.53356366,0.53356366 0 0 0 0.71915,-0.231984 0.54516287,0.54516287 0 0 0 -0.23198,-0.730751 l -9.27937,-4.755676 a 2.6910167,2.6910167 0 0 0 -2.8998,0.313179 l -1.79788,1.484699 a 0.98593285,0.98593285 0 0 0 -0.34798,0.869941 0.96273443,0.96273443 0 0 0 0.53357,0.753948 l 9.16337,4.222113 a 0.82354391,0.82354391 0 0 0 0.23199,0.0464 z"
       id="path665"
       style="fill:#000000;fill-opacity:1;stroke-width:1.15992" />
    <path
       d="m -290.48727,72.123246 a 0.27838104,0.27838104 0 0 0 0.20878,-0.104393 0.27838104,0.27838104 0 0 0 0,-0.382774 l -12.24876,-9.963721 v 0 l -12.45756,-5.266042 a 0.27035119,0.27035119 0 0 0 -0.20878,0.498766 l 12.36476,5.208046 12.16757,9.940523 a 0.2319842,0.2319842 0 0 0 0.17399,0.06959 z"
       id="path667"
       style="fill:#000000;fill-opacity:1;stroke-width:1.15992" />
    <path
       d="m -308.15287,67.529959 a 0.53356366,0.53356366 0 0 0 0.20878,-1.03233 l -8.01505,-3.305775 a 1.5426949,1.5426949 0 0 1 -0.81194,-0.811945 l -1.15993,-3.131786 a 0.54516287,0.54516287 0 0 0 -0.69595,-0.313179 0.54516287,0.54516287 0 0 0 -0.31318,0.695953 l 1.15992,3.166584 a 2.6330207,2.6330207 0 0 0 1.40351,1.380306 l 8.01505,3.317374 a 0.54516287,0.54516287 0 0 0 0.20879,0.0348 z"
       id="path669"
       style="fill:#000000;fill-opacity:1;stroke-width:1.15992" />
    <path
       d="m -305.22987,81.588201 a 0.26678183,0.26678183 0 0 0 0.26678,-0.208786 l 2.62142,-11.819595 a 0.26678183,0.26678183 0 0 0 -0.10439,-0.278381 l -3.47976,-2.49383 a 0.27838104,0.27838104 0 0 0 -0.38278,0.06959 0.26678183,0.26678183 0 0 0 0.0696,0.371175 l 3.32897,2.331441 -2.55182,11.703603 a 0.27838104,0.27838104 0 0 0 0.20878,0.313179 z"
       id="path671"
       style="fill:#000000;fill-opacity:1;stroke-width:1.15992" />
    <path
       d="m -294.4774,74.199504 a 0.25518262,0.25518262 0 0 0 0.24358,-0.13919 0.26678183,0.26678183 0 0 0 -0.10439,-0.359576 l -8.11945,-4.454096 a 0.26678183,0.26678183 0 0 0 -0.37117,0.104393 0.26678183,0.26678183 0 0 0 0.10439,0.359575 l 8.11945,4.454097 z"
       id="path673"
       style="fill:#000000;fill-opacity:1;stroke-width:1.15992" />
    <g
       id="g8835"
       transform="matrix(1.159921,0,0,1.159921,-333.08552,18.88635)">
      <path
         d="m 106.51512,119.217 c 0,0.16 17,1.49 36.58,-1.87 l 0.87,-4.37 c -11.85,5.2 -27.23,5.91 -39.15,-2 a 21.58,21.58 0 0 0 1.69,8.24"
         fill="#ffffff"
         id="path547" />
      <path
         d="m 125.62512,119.687 c -11.11,0.65 -19,0 -19.32,-0.19 l -0.12,-0.09 v -0.1 a 21.48,21.48 0 0 1 -1.7,-8.31 v -0.61 l 0.5,0.34 c 12.72,8.43 28.4,6.55 38.84,2 l 0.58,-0.26 -1,5.21 h -0.23 a 159.93,159.93 0 0 1 -17.55,2.01 z m -18.87,-0.74 a 154.19,154.19 0 0 0 36.06,-1.87 l 0.7,-3.52 c -10.45,4.4 -25.76,6.1 -38.36,-1.94 a 21.47,21.47 0 0 0 1.6,7.31 z m -0.25,0.29 h 0.34 -0.33 v 0 z"
         fill="#1d1d1b"
         id="path551" />
      <g
         id="g8818">
        <g
           id="g8798">
          <g
             id="g8786">
            <path
               d="m 116.46512,132.417 c 0,-0.2 11.31,-2.72 21,-1.61 -6,8.09 -14.29,6.76 -21,1.61 z"
               fill="#ffffff"
               id="path555" />
            <path
               d="m 127.87512,136.887 c -3.7,0.22 -7.69,-1.22 -11.61,-4.2 l -0.2,-0.15 0.06,-0.17 v -0.08 l 0.11,-0.12 c 0.43,-0.4 11.9,-2.77 21.32,-1.69 l 0.57,0.06 -0.34,0.47 c -2.49,3.35 -5.49,5.3 -8.92,5.78 -0.33,0.05 -0.66,0.08 -0.99,0.1 z m -10.71,-4.36 c 2.88,2.09 7.08,4.24 11.6,3.6 a 12.49,12.49 0 0 0 8.12,-5.05 68,68 0 0 0 -19.72,1.45 z"
               fill="#1d1d1b"
               id="path559" />
          </g>
          <g
             id="g8790">
            <path
               d="m 106.44512,119.257 a 32,32 0 0 0 9.95,13.08 c 0,-0.21 11.31,-2.73 21.05,-1.62 2.27,-3 4.2,-7.36 5.59,-13.32 -19.52,3.37 -36.58,2.02 -36.59,1.86 z"
               fill="#a5191a"
               id="path563" />
            <path
               d="m 116.76512,133.037 -0.58,-0.44 a 32.19,32.19 0 0 1 -10,-13.13 v 0 -0.15 l -0.12,-2 0.7,1.72 a 153.84,153.84 0 0 0 36.28,-1.9 l 0.5,-0.08 -0.11,0.49 c -1.34,5.7 -3.24,10.22 -5.66,13.44 l -0.11,0.16 h -0.19 a 66.32,66.32 0 0 0 -20.67,1.5 z m -9.75,-13.35 a 31.47,31.47 0 0 0 9.48,12.31 66.91,66.91 0 0 1 20.83,-1.59 35.16,35.16 0 0 0 5.31,-12.56 c -17.04,2.84 -32.2,2.2 -35.62,1.84 z"
               fill="#1d1d1b"
               id="path567" />
          </g>
        </g>
        <g
           id="g8804"
           transform="translate(-0.06,-0.33)">
          <path
             d="m 116.55512,132.327 a 26.91,26.91 0 0 1 -3.39,-3 c 1.62,-3.67 13.7,-5.43 15.28,-2 l -1,-1 c 2.8,-2.1 7.33,-1 8.69,4.31 -9.38,-0.79 -19.59,1.49 -19.58,1.69 z"
             fill="#e20613"
             id="path571" />
          <path
             d="m 116.74512,132.687 -0.29,-0.22 a 27.1,27.1 0 0 1 -3.41,-3.05 l -0.08,-0.09 v -0.1 c 1,-2.32 6.11,-3.91 10.22,-3.94 a 9,9 0 0 1 4.18,0.79 5.15,5.15 0 0 1 4.74,-0.7 c 2,0.71 3.46,2.54 4.13,5.16 l 0.06,0.23 h -0.24 a 66.86,66.86 0 0 0 -19.37,1.68 z m -3.38,-3.42 a 26.28,26.28 0 0 0 3.21,2.87 65.76,65.76 0 0 1 19.33,-1.74 6.46,6.46 0 0 0 -3.89,-4.71 4.79,4.79 0 0 0 -4.31,0.57 2.42,2.42 0 0 1 0.87,1 l 0.41,0.89 -1.65,-1.71 a 8.35,8.35 0 0 0 -4.12,-0.79 c -3.92,0.04 -8.77,1.46 -9.85,3.61 z"
             fill="#1d1d1b"
             id="path575" />
          <path
             d="m 127.01512,126.047 c -2,-4.28 -8.65,-3.13 -9.3,0.29 3.08,-0.97 7.04,-1.19 9.3,-0.29 z"
             fill="#7c1615"
             id="path579" />
          <path
             d="m 127.34512,126.357 -0.4,-0.16 c -2.11,-0.84 -6,-0.71 -9.18,0.3 l -0.27,0.09 v -0.28 c 0.31,-1.6 1.93,-2.87 4,-3.14 a 5.23,5.23 0 0 1 5.58,2.81 z m -5.08,-1 a 12.72,12.72 0 0 1 4.4,0.4 4.94,4.94 0 0 0 -5,-2.25 4.23,4.23 0 0 0 -3.69,2.6 19.37,19.37 0 0 1 4.29,-0.76 z"
             fill="#1d1d1b"
             id="path583" />
        </g>
      </g>
    </g>
    <polyline
       points="74.83 68.24 52.14 59.36 44.19 64.71 70.97 73.91"
       fill="#ffffff"
       id="polyline587"
       transform="matrix(1.159921,0,0,1.159921,-333.06798,18.523295)" />
    <path
       d="m -250.49321,104.72862 a 0.49876603,0.49876603 0 0 1 -0.42917,0 l -31.10908,-10.636472 a 0.54516287,0.54516287 0 0 1 -0.34797,-0.44077 0.51036524,0.51036524 0 0 1 0.23198,-0.510365 l 9.27937,-6.205578 a 0.5799605,0.5799605 0 0 1 0.49876,0 l 26.29541,10.242103 a 0.53422516,0.53422516 0 0 1 -0.38277,0.997532 l -26.06343,-10.195706 -8.11944,5.451629 30.05355,10.323297 a 0.54516287,0.54516287 0 0 1 0.0812,0.97433 z"
       id="path589"
       style="fill:#000000;fill-opacity:1;stroke-width:1.15992" />
    <path
       d="m -230.25258,63.041063 -45.07453,32.616978 a 0.55676208,0.55676208 0 0 1 -0.76555,-0.127591 l -5.02246,-1.855874 c -0.17399,-0.243583 -1.15992,-0.498766 -0.95114,-0.684353 l 48.43831,-34.623642 a 0.55676208,0.55676208 0 0 1 0.76554,0.127591 l 2.73742,3.792942 a 0.53356366,0.53356366 0 0 1 -0.12759,0.753949 z"
       id="path591"
       style="fill:#000000;fill-opacity:1;stroke-width:1.15992" />
  </g>
</svg>
