<svg xmlns="http://www.w3.org/2000/svg" viewBox="0 0 534.45 614.77"><path d="M179.73,671h-18a5.26,5.26,0,0,0-5.22,4.68L152,708.06a3.87,3.87,0,0,0,3.78,4.64l41.35.67.92-1.44,34.41-.61.54,1.38h37.89a4.9,4.9,0,0,0,4.9-5.05l.93-36.62" transform="translate(-29.75 -118.3)" fill="#ffda62"/><path d="M197.08,714.82h0l-41.35-.68a5.32,5.32,0,0,1-5.18-6.37L155,675.52a6.67,6.67,0,0,1,6.65-5.93h18a1.45,1.45,0,1,1,0,2.9h-18a3.79,3.79,0,0,0-3.78,3.38l-4.53,32.39a2.48,2.48,0,0,0,.47,2.09,2.43,2.43,0,0,0,1.88.9l40.57.66.48-.75a1.45,1.45,0,0,1,1.19-.67l34.41-.61a1.47,1.47,0,0,1,1.37.91l.18.46h36.91a3.45,3.45,0,0,0,3.45-3.55l.93-36.7a1.42,1.42,0,0,1,1.48-1.41,1.44,1.44,0,0,1,1.41,1.48l-.93,36.62a6.21,6.21,0,0,1-1.78,4.52,6.27,6.27,0,0,1-4.56,1.93H233a1.44,1.44,0,0,1-1.34-.91l-.18-.44-32.63.58-.5.78A1.45,1.45,0,0,1,197.08,714.82Z" transform="translate(-29.75 -118.3)" fill="#010101"/><path d="M152,708.06v17.82a3.86,3.86,0,0,0,3.78,4.63h41.14l-.09-1.37h36.15v1.37h37.89a4.9,4.9,0,0,0,4.9-5l.6-27.84" transform="translate(-29.75 -118.3)" fill="#ffda62"/><path d="M270.82,732H232.93a1.45,1.45,0,0,1-1.44-1.37H198.31a1.42,1.42,0,0,1-.39.91,1.44,1.44,0,0,1-1,.46H155.73a5.29,5.29,0,0,1-4.12-2,5.24,5.24,0,0,1-1.11-4.25V708.06a1.45,1.45,0,1,1,2.9,0v17.82a1,1,0,0,1,0,.29,2.41,2.41,0,0,0,2.37,2.89h39.6a1.45,1.45,0,0,1,1.45-1.37h36.15a1.46,1.46,0,0,1,1.45,1.37h36.44a3.45,3.45,0,0,0,3.45-3.55l.61-27.92a1.45,1.45,0,0,1,1.44-1.42h0a1.44,1.44,0,0,1,1.41,1.48l-.61,27.84a6.24,6.24,0,0,1-1.78,4.54A6.33,6.33,0,0,1,270.82,732Z" transform="translate(-29.75 -118.3)" fill="#010101"/><path d="M196.73,731a.48.48,0,0,1-.48-.48V712.7a.49.49,0,1,1,1,0v17.81A.48.48,0,0,1,196.73,731Z" transform="translate(-29.75 -118.3)" fill="#010101"/><path d="M232.91,731a.47.47,0,0,1-.48-.48V712.7a.48.48,0,0,1,.48-.49.49.49,0,0,1,.48.49v17.81A.48.48,0,0,1,232.91,731Z" transform="translate(-29.75 -118.3)" fill="#010101"/><path d="M205.94,686.29a.48.48,0,0,1-.48-.48.5.5,0,0,1,.48-.49l36.38-.36h0a.49.49,0,0,1,0,1l-36.38.36Z" transform="translate(-29.75 -118.3)" fill="#010101"/><path d="M240.89,672.49h-33.5a1.45,1.45,0,1,1,0-2.89h33.5a1.45,1.45,0,0,1,0,2.9Z" transform="translate(-29.75 -118.3)" fill="#010101"/><path d="M186.12,686h-31a.49.49,0,0,1,0-1h31a.49.49,0,0,1,0,1Z" transform="translate(-29.75 -118.3)" fill="#010101"/><path d="M194.32,699.61H153.19a.49.49,0,0,1,0-1h41.13a.49.49,0,0,1,0,1Z" transform="translate(-29.75 -118.3)" fill="#010101"/><path d="M252.78,699.62a.49.49,0,1,1,0-1h23.11a.48.48,0,0,1,.48.48.49.49,0,0,1-.48.49Z" transform="translate(-29.75 -118.3)" fill="#010101"/><path d="M275.89,696.71h0l-18.79-.33a.49.49,0,0,1,0-1l18.79.34a.48.48,0,0,1,0,1Z" transform="translate(-29.75 -118.3)" fill="#010101"/><path d="M192.58,696.71H153.19a.48.48,0,0,1,0-1h39.39a.48.48,0,1,1,0,1Z" transform="translate(-29.75 -118.3)" fill="#010101"/><path d="M184.4,683.14H155.1a.49.49,0,0,1,0-1h29.3a.49.49,0,0,1,0,1Z" transform="translate(-29.75 -118.3)" fill="#010101"/><path d="M240.53,683.05H206.67a.49.49,0,1,1,0-1h33.86a.49.49,0,0,1,0,1Z" transform="translate(-29.75 -118.3)" fill="#010101"/><path d="M315.37,672.15l.93,36.61a4.9,4.9,0,0,0,4.9,5h37.89l.54-1.37,34.41.61.92,1.43,41.35-.67a3.86,3.86,0,0,0,3.78-4.63l-4.52-32.35a5.27,5.27,0,0,0-5.22-4.68h-18" transform="translate(-29.75 -118.3)" fill="#ffda62"/><path d="M395,715.93a1.46,1.46,0,0,1-1.23-.67l-.49-.78-32.63-.58-.18.44a1.45,1.45,0,0,1-1.34.92H321.2a6.34,6.34,0,0,1-6.34-6.54l-.93-36.54a1.44,1.44,0,0,1,1.41-1.48,1.42,1.42,0,0,1,1.48,1.41l.93,36.62a3.44,3.44,0,0,0,1,2.58,3.39,3.39,0,0,0,2.48,1.05h36.9l.19-.46a1.41,1.41,0,0,1,1.37-.91l34.41.61a1.45,1.45,0,0,1,1.19.67l.48.75,40.54-.66a2.44,2.44,0,0,0,1.91-.9,2.41,2.41,0,0,0,.49-2L434.13,677a3.8,3.8,0,0,0-3.78-3.43h-18a1.45,1.45,0,0,1,0-2.89h18a6.68,6.68,0,0,1,6.66,6l4.51,32.3a5.19,5.19,0,0,1-1.09,4.31,5.29,5.29,0,0,1-4.12,2l-41.33.67Z" transform="translate(-29.75 -118.3)" fill="#010101"/><path d="M315.71,698.73l.61,27.85a4.9,4.9,0,0,0,4.9,5h37.89v-1.37h36.15l-.09,1.37h41.14a3.86,3.86,0,0,0,3.78-4.63V709.18" transform="translate(-29.75 -118.3)" fill="#ffda62"/><path d="M436.31,733.07H395.17a1.44,1.44,0,0,1-1.05-.46,1.42,1.42,0,0,1-.39-.91H360.55a1.45,1.45,0,0,1-1.44,1.37H321.22a6.34,6.34,0,0,1-6.34-6.54l-.61-27.76a1.44,1.44,0,0,1,1.41-1.48,1.49,1.49,0,0,1,1.48,1.41l.61,27.85a3.45,3.45,0,0,0,3.45,3.63h36.44a1.45,1.45,0,0,1,1.45-1.37h36.15a1.47,1.47,0,0,1,1.06.45,1.5,1.5,0,0,1,.39.92h39.6a2.43,2.43,0,0,0,1.88-.9,2.38,2.38,0,0,0,.48-2,1.53,1.53,0,0,1,0-.3V709.18a1.45,1.45,0,0,1,2.9,0v17.67a5.24,5.24,0,0,1-1.11,4.25A5.29,5.29,0,0,1,436.31,733.07Z" transform="translate(-29.75 -118.3)" fill="#010101"/><path d="M395.3,732.11a.49.49,0,0,1-.48-.49V713.81a.49.49,0,0,1,1,0v17.81A.49.49,0,0,1,395.3,732.11Z" transform="translate(-29.75 -118.3)" fill="#010101"/><path d="M359.13,732.11a.48.48,0,0,1-.48-.49V713.81a.48.48,0,0,1,1,0v17.81A.48.48,0,0,1,359.13,732.11Z" transform="translate(-29.75 -118.3)" fill="#010101"/><path d="M386.09,687.4h0L349.71,687a.48.48,0,0,1,0-1h0l36.39.36a.48.48,0,1,1,0,1Z" transform="translate(-29.75 -118.3)" fill="#010101"/><path d="M351.15,673.6a1.45,1.45,0,1,1,0-2.89h33.5a1.45,1.45,0,1,1,0,2.9Z" transform="translate(-29.75 -118.3)" fill="#010101"/><path d="M436.94,687.08h-31a.49.49,0,0,1,0-1h31a.49.49,0,0,1,0,1Z" transform="translate(-29.75 -118.3)" fill="#010101"/><path d="M438.85,700.72H397.72a.49.49,0,0,1,0-1h41.13a.49.49,0,0,1,0,1Z" transform="translate(-29.75 -118.3)" fill="#010101"/><path d="M339.26,700.73H316.15a.49.49,0,0,1,0-1h0l23.11,0a.48.48,0,1,1,0,1Z" transform="translate(-29.75 -118.3)" fill="#010101"/><path d="M316.15,697.83a.49.49,0,0,1,0-1l18.79-.34a.49.49,0,0,1,.49.48.48.48,0,0,1-.47.49l-18.79.34Z" transform="translate(-29.75 -118.3)" fill="#010101"/><path d="M438.85,697.83H399.46a.49.49,0,0,1,0-1h39.39a.49.49,0,0,1,0,1Z" transform="translate(-29.75 -118.3)" fill="#010101"/><path d="M436.94,684.25h-29.3a.48.48,0,0,1,0-1h29.3a.48.48,0,1,1,0,1Z" transform="translate(-29.75 -118.3)" fill="#010101"/><path d="M385.37,684.16H351.51a.49.49,0,0,1,0-1h33.86a.49.49,0,1,1,0,1Z" transform="translate(-29.75 -118.3)" fill="#010101"/><path d="M356.54,710.18h0l-40.22-.94a.48.48,0,0,1,0-1h0l39.73.92,0-9.29a.51.51,0,0,1,.48-.48.48.48,0,0,1,.48.48l0,9.79a.44.44,0,0,1-.14.34A.48.48,0,0,1,356.54,710.18Z" transform="translate(-29.75 -118.3)" fill="#010101"/><path d="M396.24,710.18a.48.48,0,0,1-.48-.45l-.48-6.22a.49.49,0,0,1,.44-.52.52.52,0,0,1,.52.45l.45,5.77,43.4-.52h0a.49.49,0,0,1,0,1l-43.85.52Z" transform="translate(-29.75 -118.3)" fill="#010101"/><path d="M356.92,709a.49.49,0,0,1,0-1l38.06-.23h0a.49.49,0,0,1,0,1l-38.06.23Z" transform="translate(-29.75 -118.3)" fill="#010101"/><path d="M330.12,689.3" transform="translate(-29.75 -118.3)" fill="none" stroke="#010101" stroke-linecap="round" stroke-linejoin="round" stroke-width="0.63"/><path d="M350,689.3" transform="translate(-29.75 -118.3)" fill="none" stroke="#010101" stroke-linecap="round" stroke-linejoin="round" stroke-width="0.63"/><path d="M235.5,709.07a.48.48,0,0,1-.34-.14.51.51,0,0,1-.15-.35l.05-9.79a.48.48,0,0,1,.48-.48h0a.49.49,0,0,1,.48.49l0,9.29,39.72-.92h0a.48.48,0,0,1,.48.47.49.49,0,0,1-.47.49l-40.22.93Z" transform="translate(-29.75 -118.3)" fill="#010101"/><path d="M195.8,709.07h0l-43.85-.53a.48.48,0,0,1,0-1h0l43.4.52.45-5.77a.53.53,0,0,1,.51-.45.49.49,0,0,1,.45.52l-.48,6.22A.49.49,0,0,1,195.8,709.07Z" transform="translate(-29.75 -118.3)" fill="#010101"/><path d="M235.12,707.9h0l-38.06-.23a.48.48,0,1,1,0-1h0l38.07.23a.48.48,0,1,1,0,1Z" transform="translate(-29.75 -118.3)" fill="#010101"/><polygon points="15.5 343.86 18.37 353.33 27.98 367.94 25.79 375.53 18.24 376.67 9.65 356.78 12.87 350.64 6.73 327.1 28.33 311.06 58.65 307.19 98.74 190.8 112.1 190.8 112.75 214.99 100.79 215.46 63.27 312.41 72.01 328.01 75.01 357.83 47.02 379.41 36.92 378.79 30.96 362.42 55.35 346.03 58.93 331.7 33.05 330.07 15.5 343.86" fill="#ffda62"/><path d="M76.77,498.19h0l-10.1-.62a.48.48,0,0,1-.42-.31l-6-16.37a.48.48,0,0,1,.18-.57L84.67,464l3.4-13.59L63,448.87,45.8,462.34l2.76,9.08L58.14,486a.51.51,0,0,1,.06.4L56,494a.47.47,0,0,1-.39.34l-7.55,1.14a.48.48,0,0,1-.51-.29L39,475.28a.51.51,0,0,1,0-.42l3.13-6L36,445.52a.48.48,0,0,1,.18-.51l21.6-16a.5.5,0,0,1,.23-.09l30-3.84,40-116.11a.47.47,0,0,1,.45-.32h13.36a.48.48,0,0,1,.48.47l.65,24.19a.48.48,0,0,1-.46.49l-11.65.47L93.55,430.68l8.63,15.39a.7.7,0,0,1,.06.19l3,29.82a.47.47,0,0,1-.18.43l-28,21.58A.45.45,0,0,1,76.77,498.19ZM67,496.63l9.6.59,27.63-21.31-3-29.45L92.59,431a.49.49,0,0,1,0-.41l37.53-97a.45.45,0,0,1,.43-.3l11.49-.46-.63-23.25H128.84l-40,116.07a.48.48,0,0,1-.4.32l-30.19,3.86L37,445.59l6,23.23a.47.47,0,0,1,0,.35l-3.11,5.94,8.35,19.33,6.88-1,2.05-7.09-9.49-14.43a.27.27,0,0,1-.06-.12l-2.87-9.46a.47.47,0,0,1,.16-.52L62.5,448a.49.49,0,0,1,.33-.11l25.88,1.63a.47.47,0,0,1,.36.2.52.52,0,0,1,.08.4l-3.58,14.33a.5.5,0,0,1-.2.29L61.3,480.91Z" transform="translate(-29.75 -118.3)" fill="#010101"/><polygon points="260.55 437.26 249.32 468.08 148.98 468.99 139.83 435.61 140.79 407.83 259.01 407.83 260.55 437.26" fill="#36abc9"/><polygon points="394.68 437.13 385.04 466.87 283.1 468.87 273.95 435.48 274.91 407.7 393.14 407.7 394.68 437.13" fill="#36abc9"/><path d="M305.17,353V497.35H413.68V353Zm75.12,113.13c-2.33-.43-11.71.91-14,.35-2.1-.51-12.67,0-14.86,0-.64,0-.34-16,.31-16,2.21,0,26.46-.53,28.58,0,2.38.59-2.1,8.34.31,8.77C381.23,459.38,380.92,466.26,380.29,466.15Zm3.36-36.88c-2.78.1-36.36.13-39.12,0-.64,0-.61-14.81,0-14.77,2.76.13,35.74-.3,38.51-.4C383.72,414.06,384.29,429.24,383.65,429.27Z" transform="translate(-29.75 -118.3)" fill="#36abc9"/><path d="M167.5,353.27V497.6H276V353.27Zm76.19,113c-2.81-.26-28.66,1.57-28.84,0-1.44-12.94-.35-9.17-.28-9.4s-.27-6.35,0-6.31c2.7.36,26.38-.08,29.09.18C244.3,450.76,244.33,466.29,243.69,466.24Zm2-37.84c-.95,1.93-38.08,1.2-38.15,1s-.24-14.36,0-14.46c1.48-.61,17-1,18.64-1,.65,0,21.18.93,20.53.93C245.25,414.87,246.4,427,245.73,428.4Z" transform="translate(-29.75 -118.3)" fill="#36abc9"/><path d="M274.79,353.3h8.81a6.12,6.12,0,0,1,6.12,6.11V493.1a4.64,4.64,0,0,1-4.64,4.63H273.6" transform="translate(-29.75 -118.3)" fill="#36abc9"/><path d="M285.08,499.18H273.6a1.45,1.45,0,0,1,0-2.9h11.48a3.19,3.19,0,0,0,3.19-3.18V359.41a4.67,4.67,0,0,0-4.67-4.66h-8.81a1.45,1.45,0,0,1,0-2.9h8.81a7.57,7.57,0,0,1,7.56,7.56V493.1A6.08,6.08,0,0,1,285.08,499.18Z" transform="translate(-29.75 -118.3)" fill="#010101"/><path d="M273.58,523.4h8.54a9,9,0,0,1,3.27.61,1.4,1.4,0,0,1,.56,2.22L277.38,536a2.27,2.27,0,0,1-1.69.76H184.28a4.65,4.65,0,0,1-2.74-.89l-9.39-6.92a1.62,1.62,0,0,1-.15-2.5,10.68,10.68,0,0,1,7.5-3h3.26" transform="translate(-29.75 -118.3)" fill="#36abc9"/><path d="M275.69,538.2H184.28a6,6,0,0,1-3.59-1.17l-9.4-6.92a3.06,3.06,0,0,1-.3-4.7A12.08,12.08,0,0,1,179.5,522h3.26a1.45,1.45,0,0,1,0,2.9H179.5a9.2,9.2,0,0,0-6.49,2.63.23.23,0,0,0-.08.17l9.47,7.05a3.24,3.24,0,0,0,1.88.61h91.41a.86.86,0,0,0,.62-.29l8.55-9.75a9.93,9.93,0,0,0-2.74-.42h-8.54a1.45,1.45,0,1,1,0-2.9h8.54a10.33,10.33,0,0,1,3.79.71,2.84,2.84,0,0,1,1.14,4.51L278.47,537A3.77,3.77,0,0,1,275.69,538.2Z" transform="translate(-29.75 -118.3)" fill="#010101"/><path d="M319.82,523.4h-8.57A9,9,0,0,0,308,524a1.4,1.4,0,0,0-.57,2.22L316,536a2.3,2.3,0,0,0,1.7.76h91.42a4.6,4.6,0,0,0,2.74-.89l9.4-6.92a1.63,1.63,0,0,0,.15-2.5,10.71,10.71,0,0,0-7.5-3h-3.27" transform="translate(-29.75 -118.3)" fill="#36abc9"/><path d="M409.11,538.2H317.69a3.76,3.76,0,0,1-2.77-1.23l-8.59-9.79a2.9,2.9,0,0,1-.61-2.57,2.87,2.87,0,0,1,1.75-2,10.48,10.48,0,0,1,3.78-.7h8.57a1.45,1.45,0,1,1,0,2.9h-8.57a7.49,7.49,0,0,0-2.74.51l8.57,9.68a.85.85,0,0,0,.61.27h91.42a3.19,3.19,0,0,0,1.89-.62l9.39-6.91c.08-.17.07-.23,0-.3a9.22,9.22,0,0,0-6.49-2.63h-3.27a1.45,1.45,0,0,1,0-2.9h3.27a12.1,12.1,0,0,1,8.51,3.46,3.08,3.08,0,0,1-.3,4.7l-9.4,6.92A6.05,6.05,0,0,1,409.11,538.2Z" transform="translate(-29.75 -118.3)" fill="#010101"/><path d="M270.84,466.37H252.45a2.71,2.71,0,0,1-2.67-2.72V443.9a2.72,2.72,0,0,0-2.72-2.72H209.82a2.72,2.72,0,0,0-2.72,2.72v19.75a2.72,2.72,0,0,1-2.72,2.72H185.31a2.71,2.71,0,0,0-2.72,2.71v57.28a2.72,2.72,0,0,0,2.72,2.72h85.53a2.71,2.71,0,0,0,2.71-2.72V469.08A2.71,2.71,0,0,0,270.84,466.37Zm-27.15-.13c-2.81-.26-25.61.15-28.4-.23-.27,0-.69-7.77-.62-8s-.26-7.78,0-7.75c2.69.37,26.27.19,29,.45C244.3,450.76,244.33,466.29,243.69,466.24Z" transform="translate(-29.75 -118.3)" fill="#36abc9"/><path d="M270.84,530.52H185.31a4.17,4.17,0,0,1-4.17-4.16V469.08a4.17,4.17,0,0,1,4.17-4.16h19.07a1.27,1.27,0,0,0,1.28-1.27V443.9a4.17,4.17,0,0,1,4.16-4.17h37.24a4.17,4.17,0,0,1,4.17,4.17v19.75a1.26,1.26,0,0,0,1.22,1.27h18.39a4.17,4.17,0,0,1,4.16,4.16v57.28A4.17,4.17,0,0,1,270.84,530.52Zm-85.53-62.71a1.28,1.28,0,0,0-1.28,1.27v57.28a1.28,1.28,0,0,0,1.28,1.27h85.53a1.27,1.27,0,0,0,1.27-1.27V469.08a1.27,1.27,0,0,0-1.27-1.27H252.45a4.15,4.15,0,0,1-4.12-4.16V443.9a1.28,1.28,0,0,0-1.27-1.28H209.82a1.28,1.28,0,0,0-1.27,1.28v19.75a4.17,4.17,0,0,1-4.17,4.16Z" transform="translate(-29.75 -118.3)" fill="#010101"/><path d="M407.87,466.37H389.49a2.71,2.71,0,0,1-2.67-2.72V443.9a2.72,2.72,0,0,0-2.72-2.72H346.86a2.72,2.72,0,0,0-2.72,2.72v19.75a2.72,2.72,0,0,1-2.72,2.72H322.34a2.71,2.71,0,0,0-2.72,2.71v57.28a2.72,2.72,0,0,0,2.72,2.72h85.53a2.72,2.72,0,0,0,2.72-2.72V469.08A2.71,2.71,0,0,0,407.87,466.37Zm-26.86,0c-2.33-.43-10.84.53-13.16,0-2.1-.51-14.22-.19-16.41-.22-.64,0-.21-7.57-.13-8.21.57-4.45-1.86-8.21.26-7.68,2.38.59,26.1,0,28.5.45C380.71,450.82,381.64,466.51,381,466.4Z" transform="translate(-29.75 -118.3)" fill="#36abc9"/><path d="M407.87,530.52H322.34a4.17,4.17,0,0,1-4.16-4.16V469.08a4.17,4.17,0,0,1,4.16-4.16h19.08a1.27,1.27,0,0,0,1.27-1.27V443.9a4.17,4.17,0,0,1,4.17-4.17H384.1a4.17,4.17,0,0,1,4.16,4.17v19.75a1.26,1.26,0,0,0,1.23,1.27h18.38a4.17,4.17,0,0,1,4.17,4.16v57.28A4.17,4.17,0,0,1,407.87,530.52Zm-85.53-62.71a1.27,1.27,0,0,0-1.27,1.27v57.28a1.27,1.27,0,0,0,1.27,1.27h85.53a1.27,1.27,0,0,0,1.27-1.27V469.08a1.27,1.27,0,0,0-1.27-1.27H389.49a4.15,4.15,0,0,1-4.12-4.16V443.9a1.28,1.28,0,0,0-1.27-1.28H346.86a1.29,1.29,0,0,0-1.28,1.28v19.75a4.16,4.16,0,0,1-4.16,4.16Z" transform="translate(-29.75 -118.3)" fill="#010101"/><path d="M243.62,467.33h-29.3a1,1,0,0,1-1-1V450.44a1,1,0,0,1,1-1h29.3a1,1,0,0,1,1,1v15.93A1,1,0,0,1,243.62,467.33Zm-28.33-1.93h27.37v-14H215.29Z" transform="translate(-29.75 -118.3)" fill="#010101"/><path d="M213.38,567a11.18,11.18,0,1,0-22.16,3c.08.59-16.68,15.52-16.68,15.52a19,19,0,0,0-5.43,13.46l.6,59.68A21.77,21.77,0,0,0,174.5,672l18.72,23.34a7.68,7.68,0,0,0,12.95-4.86l2.3-106.82C208.52,583.72,214.2,573.1,213.38,567Z" transform="translate(-29.75 -118.3)" fill="#36abc9"/><path d="M198.5,699a9.07,9.07,0,0,1-6.28-2.54.86.86,0,0,1-.13-.14L173.37,673a23.39,23.39,0,0,1-5.11-14.32l-.6-59.68a20.28,20.28,0,0,1,5.85-14.49c7-6.21,14.59-13.18,16.21-14.92a12.62,12.62,0,0,1,25.09-2.76c.75,5.56-3.33,14.62-4.9,17.29l-2.29,106.48A9.16,9.16,0,0,1,198.5,699Zm-4.22-4.57a6.23,6.23,0,0,0,10.45-4L207,583.67a1.37,1.37,0,0,1,.25-.78c.75-1.29,5.36-10.58,4.67-15.72a9.74,9.74,0,0,0-19.3,2.59c.13,1,.18,1.34-17.15,16.79a17.42,17.42,0,0,0-4.95,12.37l.6,59.68a20.44,20.44,0,0,0,4.48,12.54Zm-4.5-124.24h0Z" transform="translate(-29.75 -118.3)" fill="#010101"/><path d="M202.05,576.68a7.64,7.64,0,0,1-1-15.21h0a7.64,7.64,0,0,1,2,15.15A9.07,9.07,0,0,1,202.05,576.68Zm-.87-14.25A6.67,6.67,0,0,0,203,575.66a6.68,6.68,0,0,0,5.72-7.5,6.68,6.68,0,0,0-7.5-5.73Z" transform="translate(-29.75 -118.3)" fill="#010101"/><path d="M273.58,355.93v42.5a3.31,3.31,0,0,1-3.38,3.18H182a3,3,0,0,1-3.11-2.91V340.92H273.6v15" transform="translate(-29.75 -118.3)" fill="#36abc9"/><path d="M270.2,403.06H182a4.47,4.47,0,0,1-4.56-4.36V340.92a1.44,1.44,0,0,1,1.45-1.44H273.6a1.43,1.43,0,0,1,1.44,1.44v15a1,1,0,0,1,0,.25v42.25A4.73,4.73,0,0,1,270.2,403.06Zm-89.88-60.69V398.7a1.57,1.57,0,0,0,1.66,1.46H270.2a1.86,1.86,0,0,0,1.93-1.73v-42.5a2.11,2.11,0,0,1,0-.25V342.37Z" transform="translate(-29.75 -118.3)" fill="#010101"/><path d="M246.69,430.33H207.12a1,1,0,0,1-1-1V413.94a1,1,0,0,1,1-1h39.57a1,1,0,0,1,1,1v15.43A1,1,0,0,1,246.69,430.33Zm-38.6-1.93h37.64V414.91H208.09Z" transform="translate(-29.75 -118.3)" fill="#010101"/><path d="M182.63,499.16H171.41a5.74,5.74,0,0,1-5.73-5.74V359.15a7.29,7.29,0,0,1,7.27-7.28h5.9a1.45,1.45,0,0,1,0,2.9H173a4.39,4.39,0,0,0-4.38,4.38V493.42a2.84,2.84,0,0,0,2.84,2.84h11.22a1.45,1.45,0,0,1,0,2.9Z" transform="translate(-29.75 -118.3)" fill="#010101"/><path d="M269.31,441.68h-8.22a.48.48,0,0,1-.48-.48V421.67a.48.48,0,0,1,.48-.49h8.22a.48.48,0,0,1,.48.49V441.2A.48.48,0,0,1,269.31,441.68Zm-7.74-1h7.26V422.15h-7.26Z" transform="translate(-29.75 -118.3)" fill="#010101"/><path d="M287.13,441.68h-8.22a.49.49,0,0,1-.49-.48V421.67a.49.49,0,0,1,.49-.49h8.22a.49.49,0,0,1,.48.49V441.2A.49.49,0,0,1,287.13,441.68Zm-7.74-1h7.25V422.15h-7.25Z" transform="translate(-29.75 -118.3)" fill="#010101"/><path d="M232.29,529.54a.48.48,0,0,1-.48-.49V511.59a.48.48,0,0,1,.48-.49h37a.49.49,0,0,1,0,1H232.77v17A.48.48,0,0,1,232.29,529.54Z" transform="translate(-29.75 -118.3)" fill="#010101"/><path d="M217,503.85a.46.46,0,0,1-.35-.16l-34.41-37a.49.49,0,0,1,0-.68.48.48,0,0,1,.68,0l34.42,37a.48.48,0,0,1,0,.68A.51.51,0,0,1,217,503.85Z" transform="translate(-29.75 -118.3)" fill="#010101"/><rect x="180.14" y="423.43" width="40.91" height="6.18" fill="#ffda62"/><path d="M250.8,548.49H209.89a.58.58,0,0,1-.58-.58v-6.17a.58.58,0,0,1,.58-.58H250.8a.58.58,0,0,1,.58.58v6.17A.58.58,0,0,1,250.8,548.49Zm-40.34-1.15h39.77v-5H210.46Z" transform="translate(-29.75 -118.3)" fill="#010101"/><path d="M236.83,568.17a11.17,11.17,0,1,1,22.11,3.26c-.08.57,16.45,15.76,16.45,15.76a18.92,18.92,0,0,1,5.24,13.55l-1.43,59.67a21.81,21.81,0,0,1-5,13.36l-19,23.07a7.7,7.7,0,0,1-12.91-5L241.47,585S235.93,574.27,236.83,568.17Z" transform="translate(-29.75 -118.3)" fill="#36abc9"/><path d="M250,700.35a9.18,9.18,0,0,1-3.36-.63,9.07,9.07,0,0,1-5.78-7.81L240,585.3c-1.79-3.69-5.42-12-4.62-17.35a12.62,12.62,0,0,1,25,3.09c1.74,1.93,10.46,10.07,15.92,15.08a20.56,20.56,0,0,1,5.71,14.65l-1.44,59.68a23.24,23.24,0,0,1-5.3,14.23l-19,23.08a.86.86,0,0,1-.13.14A9,9,0,0,1,250,700.35ZM242.91,585l.81,106.75a6.25,6.25,0,0,0,10.41,4.05l19-23a20.42,20.42,0,0,0,4.64-12.46l1.44-59.68a17.6,17.6,0,0,0-4.85-12.51c-17-15.64-17-16-16.83-17a9.73,9.73,0,0,0-19.25-2.84h0c-.71,4.84,3.21,13.3,4.43,15.78A1.79,1.79,0,0,1,242.91,585Zm-6.08-16.88h0Z" transform="translate(-29.75 -118.3)" fill="#010101"/><path d="M177.85,584.23a1.44,1.44,0,0,1-1.18-.61c-4.12-5.78-6.7-15.59-8.68-24.43a29.44,29.44,0,0,1-.68-6.3V534.17c0-2.61,1.13-6.37,3.23-8.21a1.45,1.45,0,1,1,1.91,2.18c-1.35,1.17-2.25,4.06-2.25,6v18.72a26.13,26.13,0,0,0,.62,5.67c1.16,5.17,3.87,17.3,8.2,23.38a1.44,1.44,0,0,1-.33,2A1.47,1.47,0,0,1,177.85,584.23Z" transform="translate(-29.75 -118.3)" fill="#010101"/><path d="M240.25,589.6h0l-30.35-.33a1.44,1.44,0,0,1-1.43-1.46,1.42,1.42,0,0,1,1.46-1.43l30.35.33a1.44,1.44,0,0,1,1.43,1.46A1.45,1.45,0,0,1,240.25,589.6Z" transform="translate(-29.75 -118.3)" fill="#010101"/><path d="M276.73,589.6a1.45,1.45,0,1,1,0-2.89c3.26,0,6.83-9,10.61-26.87.18-.86.34-1.62.48-2.25a16.86,16.86,0,0,0,.43-3.81V532.34a8.74,8.74,0,0,0-3.26-6.87,1.45,1.45,0,1,1,1.62-2.4,11.51,11.51,0,0,1,4.53,9.27v21.44a19.85,19.85,0,0,1-.49,4.43c-.14.63-.3,1.38-.48,2.23C287.18,574.55,283.43,589.6,276.73,589.6Z" transform="translate(-29.75 -118.3)" fill="#010101"/><circle cx="145.92" cy="511.04" r="6.94" fill="#929292"/><path d="M175.66,636.77a7.42,7.42,0,0,1-1-14.78h0a7.42,7.42,0,0,1,6.89,11.86,7.32,7.32,0,0,1-4.91,2.85A6.82,6.82,0,0,1,175.66,636.77ZM174.81,623a6.46,6.46,0,0,0-5.54,7.26,6.46,6.46,0,1,0,12.8-1.72,6.46,6.46,0,0,0-7.26-5.54Z" transform="translate(-29.75 -118.3)" fill="#010101"/><path d="M141.85,280.26H126.21a12,12,0,0,0-11.33,8L67.67,423l20.73,2.48L128.49,309.1h13.36Z" transform="translate(-29.75 -118.3)" fill="#ffda62"/><path d="M88.4,426.46h-.11L67.56,424a.93.93,0,0,1-.7-.45,1,1,0,0,1-.1-.82L114,288a13,13,0,0,1,12.25-8.68h15.64a1,1,0,0,1,1,1V309.1a1,1,0,0,1-1,1H129.18L89.32,425.81A1,1,0,0,1,88.4,426.46ZM69,422.2l18.77,2.24,39.83-115.65a1,1,0,0,1,.91-.65h12.39V281.22H126.21a11.06,11.06,0,0,0-10.42,7.39Z" transform="translate(-29.75 -118.3)" fill="#010101"/><path d="M49.36,475.63l.37-2.11a2.74,2.74,0,0,0-2.22-3.17l-.74-.13a6.43,6.43,0,0,1-5.15-5L38.55,451a7.85,7.85,0,0,1,2.67-7.7L55,431.91a9.06,9.06,0,0,1,7.07-2l18.67,2.72A6,6,0,0,1,85.82,438l1.54,15.27a9.7,9.7,0,0,1-4,8.85L71.48,470.5a11.35,11.35,0,0,1-6.89,2.11l-2.68-.07a2.13,2.13,0,0,0-2.11,1.68l-.87,4.13a2,2,0,0,0,1.78,2.37l3.66.26a11,11,0,0,0,7.26-2.09l20.51-14.81a8.66,8.66,0,0,0,3.55-7.76l-2-22.1a9.6,9.6,0,0,0-8.24-8.68l-23-3.27a10.58,10.58,0,0,0-8.12,2.24L34.09,440.87A9.11,9.11,0,0,0,31,450.29l5.51,20.45a9.42,9.42,0,0,0,7.33,6.81l2.11.39A2.84,2.84,0,0,0,49.36,475.63Z" transform="translate(-29.75 -118.3)" fill="#ffda62"/><path d="M65.11,482l-.81,0-3.66-.27A2.94,2.94,0,0,1,58,478.16l.88-4.14a3.16,3.16,0,0,1,3.07-2.44l2.68.06a10.1,10.1,0,0,0,6.31-1.93l11.86-8.42a8.76,8.76,0,0,0,3.62-8l-1.55-15.26a5,5,0,0,0-4.24-4.46l-18.67-2.72a8.15,8.15,0,0,0-6.31,1.77L41.84,444a6.89,6.89,0,0,0-2.35,6.76L42.56,465a5.52,5.52,0,0,0,4.38,4.24l.74.13a3.71,3.71,0,0,1,3,4.29l-.37,2.11h0a3.92,3.92,0,0,1-1.65,2.53,3.72,3.72,0,0,1-2.9.55l-2.08-.39a10.44,10.44,0,0,1-8.09-7.5l-5.5-20.45a10.09,10.09,0,0,1,3.39-10.42l20.28-16.36a11.53,11.53,0,0,1,8.85-2.44l23,3.26a10.5,10.5,0,0,1,9.07,9.55l2,22.1a9.68,9.68,0,0,1-3.94,8.63L72.2,479.68A12.07,12.07,0,0,1,65.11,482Zm-3.25-8.46a1.16,1.16,0,0,0-1.12.91l-.87,4.13a1,1,0,0,0,.19.82,1,1,0,0,0,.72.39l3.66.26a10.12,10.12,0,0,0,6.62-1.9L91.58,463.3a7.67,7.67,0,0,0,3.15-6.9l-2-22.1a8.59,8.59,0,0,0-7.41-7.81l-23-3.26a9.6,9.6,0,0,0-7.37,2L34.7,441.62A8.14,8.14,0,0,0,32,450l5.51,20.45A8.49,8.49,0,0,0,44,476.6l2.1.39a1.87,1.87,0,0,0,1.45-.26,1.91,1.91,0,0,0,.82-1.27l.37-2.1a1.79,1.79,0,0,0-1.44-2.07l-.74-.13a7.34,7.34,0,0,1-5.93-5.72l-3.06-14.25a8.8,8.8,0,0,1,3-8.65L54.4,431.17A10,10,0,0,1,62.22,429l18.67,2.72a6.88,6.88,0,0,1,5.88,6.17l1.55,15.26a10.72,10.72,0,0,1-4.42,9.74L72,471.28a12.22,12.22,0,0,1-7.48,2.29l-2.67-.06Zm-12.5,2.12h0Z" transform="translate(-29.75 -118.3)" fill="#010101"/><path d="M76.77,498.67H71.52A7.39,7.39,0,0,1,65,494.8L58.92,481a1,1,0,0,1,.49-1.27,1,1,0,0,1,1.27.49L66.73,494a5.44,5.44,0,0,0,4.79,2.79h4.92l24.23-18.55a7.34,7.34,0,0,0,2.67-6.46l-2.52-25.12-8.65-15.42a1,1,0,0,1,0-.82l37.52-96.95a1,1,0,0,1,.9-.62h10.34V309.1a1,1,0,0,1,1.93,0v24.67a1,1,0,0,1-1,1H131.2L94.08,430.64l8.52,15.2a1,1,0,0,1,.12.37l2.54,25.32a9.29,9.29,0,0,1-3.39,8.18L77.35,498.47A1,1,0,0,1,76.77,498.67Z" transform="translate(-29.75 -118.3)" fill="#010101"/><path d="M76.77,498.19a.49.49,0,0,1-.44-.27l-8.4-17.82a.48.48,0,0,1,.23-.64.49.49,0,0,1,.65.23L77.2,497.5a.49.49,0,0,1-.23.65A.45.45,0,0,1,76.77,498.19Z" transform="translate(-29.75 -118.3)" fill="#010101"/><path d="M104.76,476.61a.48.48,0,0,1-.41-.23l-10-16.27a.48.48,0,0,1,.83-.5l10,16.27a.48.48,0,0,1-.16.66A.43.43,0,0,1,104.76,476.61Z" transform="translate(-29.75 -118.3)" fill="#010101"/><path d="M54.8,495.93H50.51A4.88,4.88,0,0,1,46.06,493l-7.55-17.54a1,1,0,1,1,1.77-.76l7.55,17.53A2.93,2.93,0,0,0,50.51,494h4L46.6,477.57a1,1,0,0,1,.45-1.28,1,1,0,0,1,1.29.44l8.07,16.69a1.77,1.77,0,0,1-1.61,2.51Zm-.14-1.69h0Z" transform="translate(-29.75 -118.3)" fill="#010101"/><path d="M48,495.45a.49.49,0,0,1-.43-.26L36.08,473.27a1.12,1.12,0,0,1,0-.13l-5.65-28.43a.47.47,0,0,1,.37-.57.48.48,0,0,1,.57.38L37,472.88l11.46,21.86a.5.5,0,0,1-.21.66A.59.59,0,0,1,48,495.45Z" transform="translate(-29.75 -118.3)" fill="#010101"/><path d="M87.06,450.93h0l-24.25-2.06a.5.5,0,0,1-.43-.37l-4.72-19a.48.48,0,0,1,.36-.58.47.47,0,0,1,.58.35l4.64,18.67,23.91,2a.49.49,0,0,1,0,1Z" transform="translate(-29.75 -118.3)" fill="#010101"/><path d="M56,495.93a.81.81,0,0,1-.31-.05,1,1,0,0,1-.61-1.22l2-5.89a2.92,2.92,0,0,0-.24-2.08l-7.5-14.06a1,1,0,1,1,1.7-.91l7.5,14.07a4.84,4.84,0,0,1,.39,3.54l-2,5.95A1,1,0,0,1,56,495.93Z" transform="translate(-29.75 -118.3)" fill="#010101"/><path d="M47.29,470.29a.48.48,0,0,1-.46-.36l-2-7.64a.48.48,0,0,1,.17-.5L62.5,448a.48.48,0,0,1,.6.76L45.8,462.35l2,7.33a.48.48,0,0,1-.34.59Z" transform="translate(-29.75 -118.3)" fill="#010101"/><path d="M45.25,462.65a.5.5,0,0,1-.45-.3l-6.35-15.84a.48.48,0,0,1,.27-.63.48.48,0,0,1,.62.27L45.7,462a.49.49,0,0,1-.27.62A.39.39,0,0,1,45.25,462.65Z" transform="translate(-29.75 -118.3)" fill="#010101"/><path d="M276.73,589.12a1,1,0,0,1-1-1V536.77a1,1,0,0,1,1.92,0v51.38A1,1,0,0,1,276.73,589.12Z" transform="translate(-29.75 -118.3)" fill="#010101"/><path d="M182.89,579.42a1,1,0,0,1-1-1l-.12-41.2-.55-.41a1,1,0,0,1-.2-1.35,1,1,0,0,1,1.35-.19l.94.69a1,1,0,0,1,.39.77l.12,41.68a1,1,0,0,1-1,1Z" transform="translate(-29.75 -118.3)" fill="#010101"/><path d="M150.59,540.36" transform="translate(-29.75 -118.3)" fill="none" stroke="#010101" stroke-linecap="round" stroke-linejoin="round" stroke-width="0.63"/><path d="M220.48,358.14H178.85a1,1,0,1,1,0-1.93h40.67V339.6a1,1,0,1,1,1.92,0v17.57A1,1,0,0,1,220.48,358.14Z" transform="translate(-29.75 -118.3)" fill="#010101"/><path d="M178.85,402.09a.46.46,0,0,1-.38-.18.48.48,0,0,1,.08-.68l31.61-24.8a.48.48,0,0,1,.67.09.47.47,0,0,1-.08.67L179.14,402A.45.45,0,0,1,178.85,402.09Z" transform="translate(-29.75 -118.3)" fill="#010101"/><path d="M236.92,503.85a.47.47,0,0,1-.33-.14.48.48,0,0,1,0-.68l36.65-37a.5.5,0,0,1,.69,0,.49.49,0,0,1,0,.68l-36.65,37A.49.49,0,0,1,236.92,503.85Z" transform="translate(-29.75 -118.3)" fill="#010101"/><path d="M273.58,467.81a1.45,1.45,0,0,1-1.45-1.44V401.61a1.45,1.45,0,1,1,2.89,0v64.76A1.45,1.45,0,0,1,273.58,467.81Z" transform="translate(-29.75 -118.3)" fill="#010101"/><path d="M273.58,402.09a.47.47,0,0,1-.32-.12l-28.43-24.79a.49.49,0,0,1-.05-.68.48.48,0,0,1,.68-.05l28.43,24.8a.49.49,0,0,1,.05.68A.48.48,0,0,1,273.58,402.09Z" transform="translate(-29.75 -118.3)" fill="#010101"/><path d="M289.69,472.68H273.58a.49.49,0,1,1,0-1h16.11a.49.49,0,1,1,0,1Z" transform="translate(-29.75 -118.3)" fill="#010101"/><path d="M182.63,472.68H167.12a.49.49,0,0,1,0-1h15.51a.49.49,0,0,1,0,1Z" transform="translate(-29.75 -118.3)" fill="#010101"/><path d="M178.85,389.7H167.12a.49.49,0,0,1,0-1h11.73a.49.49,0,0,1,0,1Z" transform="translate(-29.75 -118.3)" fill="#010101"/><path d="M289.69,389.7H273.58a.49.49,0,1,1,0-1h16.11a.49.49,0,1,1,0,1Z" transform="translate(-29.75 -118.3)" fill="#010101"/><path d="M261.92,688.19" transform="translate(-29.75 -118.3)" fill="none" stroke="#010101" stroke-linecap="round" stroke-linejoin="round" stroke-width="0.63"/><path d="M242,688.19" transform="translate(-29.75 -118.3)" fill="none" stroke="#010101" stroke-linecap="round" stroke-linejoin="round" stroke-width="0.63"/><path d="M148.26,270.82h-.37a5.42,5.42,0,0,1-5.41-5.42V189.49a5.42,5.42,0,0,1,5.41-5.42h.37a5.42,5.42,0,0,1,5.42,5.42V265.4A5.42,5.42,0,0,1,148.26,270.82Z" transform="translate(-29.75 -118.3)" fill="#ffda62"/><path d="M148.26,271.78h-.37a6.39,6.39,0,0,1-6.38-6.38V189.49a6.39,6.39,0,0,1,6.38-6.38h.37a6.38,6.38,0,0,1,6.38,6.38V265.4A6.38,6.38,0,0,1,148.26,271.78ZM147.89,185a4.45,4.45,0,0,0-4.45,4.45V265.4a4.45,4.45,0,0,0,4.45,4.45h.37a4.46,4.46,0,0,0,4.46-4.45V189.49a4.46,4.46,0,0,0-4.46-4.45Z" transform="translate(-29.75 -118.3)" fill="#010101"/><path d="M149,338H147.2a4.71,4.71,0,0,1-4.7-4.7V275.15a4.71,4.71,0,0,1,4.7-4.7H149a4.71,4.71,0,0,1,4.7,4.7v58.14A4.71,4.71,0,0,1,149,338Z" transform="translate(-29.75 -118.3)" fill="#ffda62"/><path d="M149,339H147.2a5.67,5.67,0,0,1-5.66-5.66V275.15a5.67,5.67,0,0,1,5.66-5.67H149a5.67,5.67,0,0,1,5.66,5.67v58.14A5.67,5.67,0,0,1,149,339Zm-1.78-67.54a3.75,3.75,0,0,0-3.74,3.74v58.14A3.74,3.74,0,0,0,147.2,337H149a3.74,3.74,0,0,0,3.74-3.73V275.15a3.75,3.75,0,0,0-3.74-3.74Z" transform="translate(-29.75 -118.3)" fill="#010101"/><path d="M153.48,188.62H142.67a.48.48,0,1,1,0-1h10.81a.48.48,0,1,1,0,1Z" transform="translate(-29.75 -118.3)" fill="#010101"/><path d="M153.48,192.73H142.67a.48.48,0,0,1,0-1h10.81a.48.48,0,1,1,0,1Z" transform="translate(-29.75 -118.3)" fill="#010101"/><path d="M153.48,198.21H142.67a.48.48,0,1,1,0-1h10.81a.48.48,0,1,1,0,1Z" transform="translate(-29.75 -118.3)" fill="#010101"/><path d="M153.48,205.07H142.67a.49.49,0,0,1,0-1h10.81a.49.49,0,1,1,0,1Z" transform="translate(-29.75 -118.3)" fill="#010101"/><path d="M153.48,211.92H142.67a.49.49,0,0,1,0-1h10.81a.49.49,0,1,1,0,1Z" transform="translate(-29.75 -118.3)" fill="#010101"/><path d="M153.48,220.14H142.67a.49.49,0,0,1,0-1h10.81a.49.49,0,1,1,0,1Z" transform="translate(-29.75 -118.3)" fill="#010101"/><path d="M153.48,229.73H142.67a.48.48,0,0,1,0-1h10.81a.48.48,0,1,1,0,1Z" transform="translate(-29.75 -118.3)" fill="#010101"/><path d="M153.48,238H142.67a.49.49,0,0,1,0-1h10.81a.49.49,0,1,1,0,1Z" transform="translate(-29.75 -118.3)" fill="#010101"/><path d="M153.48,244.81H142.67a.49.49,0,0,1,0-1h10.81a.49.49,0,1,1,0,1Z" transform="translate(-29.75 -118.3)" fill="#010101"/><path d="M153.48,251.66H142.67a.49.49,0,0,1,0-1h10.81a.49.49,0,1,1,0,1Z" transform="translate(-29.75 -118.3)" fill="#010101"/><path d="M153.48,258.51H142.67a.49.49,0,0,1,0-1h10.81a.49.49,0,1,1,0,1Z" transform="translate(-29.75 -118.3)" fill="#010101"/><path d="M153.48,264H142.67a.49.49,0,0,1-.48-.48.48.48,0,0,1,.48-.48h10.81a.48.48,0,0,1,.49.48A.49.49,0,0,1,153.48,264Z" transform="translate(-29.75 -118.3)" fill="#010101"/><path d="M153.48,268.1H142.67a.48.48,0,1,1,0-1h10.81a.48.48,0,1,1,0,1Z" transform="translate(-29.75 -118.3)" fill="#010101"/><path d="M153.68,275.63H142.5a.49.49,0,0,1,0-1h11.18a.49.49,0,0,1,0,1Z" transform="translate(-29.75 -118.3)" fill="#010101"/><path d="M153.68,281.11H142.5a.49.49,0,0,1,0-1h11.18a.49.49,0,0,1,0,1Z" transform="translate(-29.75 -118.3)" fill="#010101"/><path d="M153.68,288H142.5a.48.48,0,0,1-.48-.48.47.47,0,0,1,.48-.48h11.18a.47.47,0,0,1,.48.48A.48.48,0,0,1,153.68,288Z" transform="translate(-29.75 -118.3)" fill="#010101"/><path d="M153.68,294.81H142.5a.48.48,0,0,1,0-1h11.18a.48.48,0,1,1,0,1Z" transform="translate(-29.75 -118.3)" fill="#010101"/><path d="M153.68,303H142.5a.49.49,0,0,1,0-1h11.18a.49.49,0,0,1,0,1Z" transform="translate(-29.75 -118.3)" fill="#010101"/><path d="M153.68,311.26H142.5a.49.49,0,0,1,0-1h11.18a.49.49,0,0,1,0,1Z" transform="translate(-29.75 -118.3)" fill="#010101"/><path d="M153.68,318.11H142.5a.49.49,0,0,1,0-1h11.18a.49.49,0,0,1,0,1Z" transform="translate(-29.75 -118.3)" fill="#010101"/><path d="M153.68,323.59H142.5a.48.48,0,0,1-.48-.48.47.47,0,0,1,.48-.48h11.18a.47.47,0,0,1,.48.48A.48.48,0,0,1,153.68,323.59Z" transform="translate(-29.75 -118.3)" fill="#010101"/><path d="M153.68,329.07H142.5a.48.48,0,0,1,0-1h11.18a.48.48,0,1,1,0,1Z" transform="translate(-29.75 -118.3)" fill="#010101"/><path d="M153.68,334.55H142.5a.48.48,0,1,1,0-1h11.18a.48.48,0,0,1,0,1Z" transform="translate(-29.75 -118.3)" fill="#010101"/><path d="M200.44,589.24a4.18,4.18,0,0,1-.55-8.32h0a4.18,4.18,0,0,1,1.11,8.29A5.12,5.12,0,0,1,200.44,589.24Zm-.42-7.36a3.21,3.21,0,1,0,.86,6.37,3.22,3.22,0,0,0,1.52-5.74,3.19,3.19,0,0,0-2.38-.63Z" transform="translate(-29.75 -118.3)" fill="#010101"/><polygon points="149.41 509.89 146.33 510.31 145.82 507.15 144.47 507.38 144.97 510.49 142.23 510.86 142.42 512.22 145.2 511.84 145.69 514.98 147.04 514.76 146.56 511.66 149.59 511.25 149.41 509.89" fill="#010101"/><path d="M175,633.84l-.49-3.15-2.79.37-.31-2.31,2.73-.37-.51-3.1,2.31-.38.51,3.17,3.1-.41.31,2.31-3,.41.48,3.08Zm.32-4.23.49,3.12.4-.07-.49-3.11,3.05-.41-.05-.4-3.07.41-.51-3.14-.4.07.51,3.13-2.75.37.05.4Z" transform="translate(-29.75 -118.3)" fill="#010101"/><path d="M266.57,438.57h-2.35a1.77,1.77,0,0,1-1.76-1.77V425.58a1.77,1.77,0,0,1,1.76-1.76h2.35a1.76,1.76,0,0,1,1.76,1.76V436.8A1.77,1.77,0,0,1,266.57,438.57Z" transform="translate(-29.75 -118.3)" fill="#929292"/><path d="M266.57,439.05h-2.35a2.25,2.25,0,0,1-2.24-2.24V425.58a2.24,2.24,0,0,1,2.24-2.24h2.35a2.24,2.24,0,0,1,2.25,2.24v11.23A2.25,2.25,0,0,1,266.57,439.05Zm-2.35-14.75a1.29,1.29,0,0,0-1.28,1.28v11.23a1.28,1.28,0,0,0,1.28,1.27h2.35a1.27,1.27,0,0,0,1.28-1.27V425.58a1.28,1.28,0,0,0-1.28-1.28Z" transform="translate(-29.75 -118.3)" fill="#010101"/><path d="M284.39,438.57H282a1.77,1.77,0,0,1-1.76-1.77V425.58a1.76,1.76,0,0,1,1.76-1.76h2.35a1.76,1.76,0,0,1,1.76,1.76V436.8A1.78,1.78,0,0,1,284.39,438.57Z" transform="translate(-29.75 -118.3)" fill="#929292"/><path d="M284.39,439.05H282a2.25,2.25,0,0,1-2.25-2.24V425.58a2.24,2.24,0,0,1,2.25-2.24h2.35a2.24,2.24,0,0,1,2.24,2.24v11.23A2.25,2.25,0,0,1,284.39,439.05ZM282,424.3a1.28,1.28,0,0,0-1.28,1.28v11.23a1.27,1.27,0,0,0,1.28,1.27h2.35a1.28,1.28,0,0,0,1.28-1.27V425.58a1.29,1.29,0,0,0-1.28-1.28Z" transform="translate(-29.75 -118.3)" fill="#010101"/><path d="M286.15,427.26h-5.87a.49.49,0,1,1,0-1h5.87a.49.49,0,0,1,0,1Z" transform="translate(-29.75 -118.3)" fill="#010101"/><path d="M286.15,435.92h-5.87a.49.49,0,1,1,0-1h5.87a.49.49,0,0,1,0,1Z" transform="translate(-29.75 -118.3)" fill="#010101"/><path d="M268.33,427.26h-5.87a.49.49,0,0,1,0-1h5.87a.49.49,0,1,1,0,1Z" transform="translate(-29.75 -118.3)" fill="#010101"/><path d="M268.33,435.92h-5.87a.49.49,0,0,1,0-1h5.87a.49.49,0,1,1,0,1Z" transform="translate(-29.75 -118.3)" fill="#010101"/><path d="M232,526.92h0V512.37a.75.75,0,0,1,.76-.76h0a4.85,4.85,0,0,1,4.85,4.85v4.87A5.62,5.62,0,0,1,232,526.92Z" transform="translate(-29.75 -118.3)" fill="#929292"/><path d="M232,527.4a.48.48,0,0,1-.49-.48V512.37a1.24,1.24,0,0,1,1.25-1.24,5.33,5.33,0,0,1,5.33,5.33v4.87A6.08,6.08,0,0,1,232,527.4Zm.76-15.31a.27.27,0,0,0-.28.28v14a5.13,5.13,0,0,0,4.65-5.09v-4.87A4.37,4.37,0,0,0,232.75,512.09Z" transform="translate(-29.75 -118.3)" fill="#010101"/><path d="M380.66,467.33h-29.3a1,1,0,0,1-1-1V450.44a1,1,0,0,1,1-1h29.3a1,1,0,0,1,1,1v15.93A1,1,0,0,1,380.66,467.33Zm-28.34-1.93h27.37v-14H352.32Z" transform="translate(-29.75 -118.3)" fill="#010101"/><path d="M410.63,355.93v42.5a3.3,3.3,0,0,1-3.37,3.18H319a3,3,0,0,1-3.11-2.91V340.92h94.73v15" transform="translate(-29.75 -118.3)" fill="#36abc9"/><path d="M407.26,403.06H319a4.47,4.47,0,0,1-4.56-4.36V340.92a1.44,1.44,0,0,1,1.45-1.44h94.73a1.44,1.44,0,0,1,1.44,1.44v15a2,2,0,0,1,0,.25v42.25A4.73,4.73,0,0,1,407.26,403.06Zm-89.89-60.69V398.7a1.58,1.58,0,0,0,1.67,1.46h88.22a1.86,1.86,0,0,0,1.93-1.73v-42.5a1.06,1.06,0,0,1,0-.25V342.37Z" transform="translate(-29.75 -118.3)" fill="#010101"/><path d="M383.73,430.33H344.16a1,1,0,0,1-1-1V413.94a1,1,0,0,1,1-1h39.57a1,1,0,0,1,1,1v15.43A1,1,0,0,1,383.73,430.33Zm-38.61-1.93h37.64V414.91H345.12Z" transform="translate(-29.75 -118.3)" fill="#010101"/><path d="M411.83,353.3h8.81a6.12,6.12,0,0,1,6.11,6.11V493.1a4.64,4.64,0,0,1-4.63,4.63H410.63" transform="translate(-29.75 -118.3)" fill="#36abc9"/><path d="M422.12,499.18H410.63a1.45,1.45,0,0,1,0-2.9h11.49a3.2,3.2,0,0,0,3.19-3.18V359.41a4.67,4.67,0,0,0-4.67-4.66h-8.81a1.45,1.45,0,0,1,0-2.9h8.81a7.57,7.57,0,0,1,7.56,7.56V493.1A6.09,6.09,0,0,1,422.12,499.18Z" transform="translate(-29.75 -118.3)" fill="#010101"/><path d="M319.67,499.16H308.44a5.74,5.74,0,0,1-5.73-5.74V359.15a7.29,7.29,0,0,1,7.28-7.28h5.89a1.45,1.45,0,1,1,0,2.9H310a4.39,4.39,0,0,0-4.39,4.38V493.42a2.84,2.84,0,0,0,2.84,2.84h11.23a1.45,1.45,0,0,1,0,2.9Z" transform="translate(-29.75 -118.3)" fill="#010101"/><path d="M406.35,441.68h-8.22a.49.49,0,0,1-.49-.48V421.67a.49.49,0,0,1,.49-.49h8.22a.49.49,0,0,1,.48.49V441.2A.49.49,0,0,1,406.35,441.68Zm-7.74-1h7.26V422.15h-7.26Z" transform="translate(-29.75 -118.3)" fill="#010101"/><path d="M424.16,441.68h-8.22a.48.48,0,0,1-.48-.48V421.67a.48.48,0,0,1,.48-.49h8.22a.48.48,0,0,1,.48.49V441.2A.48.48,0,0,1,424.16,441.68Zm-7.74-1h7.26V422.15h-7.26Z" transform="translate(-29.75 -118.3)" fill="#010101"/><path d="M369.35,529.54a.48.48,0,0,1-.48-.49V511.59a.48.48,0,0,1,.48-.49h37a.49.49,0,0,1,0,1H369.83v17A.49.49,0,0,1,369.35,529.54Z" transform="translate(-29.75 -118.3)" fill="#010101"/><path d="M354.08,503.85a.44.44,0,0,1-.35-.16l-34.42-37A.48.48,0,0,1,320,466l34.41,37a.49.49,0,0,1,0,.68A.53.53,0,0,1,354.08,503.85Z" transform="translate(-29.75 -118.3)" fill="#010101"/><rect x="312.85" y="423.43" width="40.91" height="6.18" fill="#ffda62"/><path d="M383.51,548.48H342.59a.58.58,0,0,1-.57-.57v-6.18a.57.57,0,0,1,.57-.57h40.92a.56.56,0,0,1,.57.57v6.18A.57.57,0,0,1,383.51,548.48Zm-40.34-1.15h39.76v-5H343.17Z" transform="translate(-29.75 -118.3)" fill="#010101"/><path d="M414.79,586.62a1.45,1.45,0,0,1-1.18-2.29c4.21-5.9,7.67-20,9-25.77a26.12,26.12,0,0,0,.61-5.67V534.17c0-2-.9-4.86-2.24-6a1.45,1.45,0,1,1,1.9-2.18c2.1,1.84,3.24,5.6,3.24,8.21v18.72a28.82,28.82,0,0,1-.69,6.3c-1.65,7.4-5.08,20.71-9.43,26.82A1.45,1.45,0,0,1,414.79,586.62Z" transform="translate(-29.75 -118.3)" fill="#010101"/><path d="M321.19,589.6h-4.52c-6.71,0-10.46-15.05-13.45-29.16-.18-.85-.34-1.6-.47-2.23a19.85,19.85,0,0,1-.49-4.43V532.34a11.5,11.5,0,0,1,4.52-9.27,1.45,1.45,0,0,1,1.63,2.4,8.74,8.74,0,0,0-3.26,6.87v21.44a17.29,17.29,0,0,0,.42,3.8c.14.64.3,1.4.48,2.26,3.78,17.83,7.35,26.87,10.62,26.87h4.52a1.45,1.45,0,1,1,0,2.89Z" transform="translate(-29.75 -118.3)" fill="#010101"/><path d="M316.67,589.12a1,1,0,0,1-1-1V536.77a1,1,0,0,1,1.93,0v51.38A1,1,0,0,1,316.67,589.12Z" transform="translate(-29.75 -118.3)" fill="#010101"/><path d="M410.63,583.64a1,1,0,0,1-1-1v-45.9a1,1,0,0,1,.39-.77l.93-.69a1,1,0,1,1,1.15,1.54l-.54.41v45.41A1,1,0,0,1,410.63,583.64Z" transform="translate(-29.75 -118.3)" fill="#010101"/><path d="M287.63,540.36" transform="translate(-29.75 -118.3)" fill="none" stroke="#010101" stroke-linecap="round" stroke-linejoin="round" stroke-width="0.63"/><path d="M357.52,358.14H315.9a1,1,0,0,1,0-1.93h40.65V339.6a1,1,0,1,1,1.93,0v17.57A1,1,0,0,1,357.52,358.14Z" transform="translate(-29.75 -118.3)" fill="#010101"/><path d="M315.9,402.09a.46.46,0,0,1-.37-.18.48.48,0,0,1,.08-.68l31.6-24.8a.49.49,0,0,1,.68.09.48.48,0,0,1-.08.67L316.2,402A.47.47,0,0,1,315.9,402.09Z" transform="translate(-29.75 -118.3)" fill="#010101"/><path d="M374,503.85a.49.49,0,0,1-.34-.14.48.48,0,0,1,0-.68l36.67-37a.48.48,0,1,1,.69.67l-36.68,37A.46.46,0,0,1,374,503.85Z" transform="translate(-29.75 -118.3)" fill="#010101"/><path d="M410.63,467.81a1.44,1.44,0,0,1-1.44-1.44V401.61a1.45,1.45,0,1,1,2.89,0v64.76A1.45,1.45,0,0,1,410.63,467.81Z" transform="translate(-29.75 -118.3)" fill="#010101"/><path d="M410.63,402.09a.47.47,0,0,1-.31-.12l-28.45-24.79a.47.47,0,0,1-.05-.68.48.48,0,0,1,.68-.05L411,401.25a.48.48,0,0,1-.32.84Z" transform="translate(-29.75 -118.3)" fill="#010101"/><path d="M426.73,472.68h-16.1a.49.49,0,0,1,0-1h16.1a.49.49,0,0,1,0,1Z" transform="translate(-29.75 -118.3)" fill="#010101"/><path d="M319.67,472.68H304.16a.49.49,0,0,1,0-1h15.51a.49.49,0,0,1,0,1Z" transform="translate(-29.75 -118.3)" fill="#010101"/><path d="M315.9,389.7H304.16a.49.49,0,0,1,0-1H315.9a.49.49,0,1,1,0,1Z" transform="translate(-29.75 -118.3)" fill="#010101"/><path d="M426.73,389.7h-16.1a.49.49,0,0,1,0-1h16.1a.49.49,0,0,1,0,1Z" transform="translate(-29.75 -118.3)" fill="#010101"/><path d="M403.61,438.57h-2.35a1.77,1.77,0,0,1-1.76-1.77V425.58a1.76,1.76,0,0,1,1.76-1.76h2.35a1.76,1.76,0,0,1,1.76,1.76V436.8A1.76,1.76,0,0,1,403.61,438.57Z" transform="translate(-29.75 -118.3)" fill="#929292"/><path d="M403.61,439.05h-2.35a2.25,2.25,0,0,1-2.25-2.24V425.58a2.24,2.24,0,0,1,2.25-2.24h2.35a2.24,2.24,0,0,1,2.24,2.24v11.23A2.25,2.25,0,0,1,403.61,439.05Zm-2.35-14.75a1.28,1.28,0,0,0-1.28,1.28v11.23a1.27,1.27,0,0,0,1.28,1.27h2.35a1.27,1.27,0,0,0,1.28-1.27V425.58a1.29,1.29,0,0,0-1.28-1.28Z" transform="translate(-29.75 -118.3)" fill="#010101"/><path d="M421.42,438.57h-2.35a1.77,1.77,0,0,1-1.76-1.77V425.58a1.77,1.77,0,0,1,1.76-1.76h2.35a1.76,1.76,0,0,1,1.76,1.76V436.8A1.76,1.76,0,0,1,421.42,438.57Z" transform="translate(-29.75 -118.3)" fill="#929292"/><path d="M421.42,439.05h-2.35a2.25,2.25,0,0,1-2.24-2.24V425.58a2.24,2.24,0,0,1,2.24-2.24h2.35a2.24,2.24,0,0,1,2.25,2.24v11.23A2.25,2.25,0,0,1,421.42,439.05Zm-2.35-14.75a1.29,1.29,0,0,0-1.28,1.28v11.23a1.28,1.28,0,0,0,1.28,1.27h2.35a1.26,1.26,0,0,0,1.28-1.27V425.58a1.28,1.28,0,0,0-1.28-1.28Z" transform="translate(-29.75 -118.3)" fill="#010101"/><path d="M423.18,427.26h-5.87a.49.49,0,0,1,0-1h5.87a.49.49,0,1,1,0,1Z" transform="translate(-29.75 -118.3)" fill="#010101"/><path d="M423.18,435.92h-5.87a.49.49,0,0,1,0-1h5.87a.49.49,0,1,1,0,1Z" transform="translate(-29.75 -118.3)" fill="#010101"/><path d="M405.37,427.26H399.5a.49.49,0,1,1,0-1h5.87a.49.49,0,0,1,0,1Z" transform="translate(-29.75 -118.3)" fill="#010101"/><path d="M405.37,435.92H399.5a.49.49,0,1,1,0-1h5.87a.49.49,0,0,1,0,1Z" transform="translate(-29.75 -118.3)" fill="#010101"/><path d="M369,526.92h0V512.37a.76.76,0,0,1,.76-.76h0a4.85,4.85,0,0,1,4.85,4.85v4.87A5.6,5.6,0,0,1,369,526.92Z" transform="translate(-29.75 -118.3)" fill="#929292"/><path d="M369,527.4a.48.48,0,0,1-.48-.48V512.37a1.24,1.24,0,0,1,1.24-1.24,5.34,5.34,0,0,1,5.34,5.33v4.87A6.09,6.09,0,0,1,369,527.4Zm.76-15.31a.28.28,0,0,0-.28.28v14a5.13,5.13,0,0,0,4.65-5.09v-4.87A4.37,4.37,0,0,0,369.78,512.09Z" transform="translate(-29.75 -118.3)" fill="#010101"/><path d="M447.24,270.82h.37A5.42,5.42,0,0,0,453,265.4V189.49a5.42,5.42,0,0,0-5.42-5.42h-.37a5.42,5.42,0,0,0-5.41,5.42V265.4A5.4,5.4,0,0,0,447.24,270.82Z" transform="translate(-29.75 -118.3)" fill="#ffda62"/><path d="M447.61,271.78h-.37a6.38,6.38,0,0,1-6.38-6.38V189.49a6.38,6.38,0,0,1,6.38-6.38h.37a6.38,6.38,0,0,1,6.38,6.38V265.4A6.38,6.38,0,0,1,447.61,271.78ZM447.24,185a4.45,4.45,0,0,0-4.45,4.45V265.4a4.45,4.45,0,0,0,4.45,4.45h.37a4.45,4.45,0,0,0,4.45-4.45V189.49a4.45,4.45,0,0,0-4.45-4.45Z" transform="translate(-29.75 -118.3)" fill="#010101"/><path d="M446.52,338h1.79a4.71,4.71,0,0,0,4.7-4.7V275.15a4.71,4.71,0,0,0-4.7-4.7h-1.79a4.71,4.71,0,0,0-4.69,4.7v58.14A4.71,4.71,0,0,0,446.52,338Z" transform="translate(-29.75 -118.3)" fill="#ffda62"/><path d="M448.31,339h-1.79a5.67,5.67,0,0,1-5.66-5.66V275.15a5.67,5.67,0,0,1,5.66-5.67h1.79a5.67,5.67,0,0,1,5.66,5.67v58.14A5.67,5.67,0,0,1,448.31,339Zm-1.79-67.54a3.74,3.74,0,0,0-3.73,3.74v58.14a3.73,3.73,0,0,0,3.73,3.73h1.79a3.73,3.73,0,0,0,3.73-3.73V275.15a3.74,3.74,0,0,0-3.73-3.74Z" transform="translate(-29.75 -118.3)" fill="#010101"/><path d="M452.81,188.62H442a.48.48,0,1,1,0-1h10.79a.48.48,0,0,1,0,1Z" transform="translate(-29.75 -118.3)" fill="#010101"/><path d="M452.81,192.73H442a.48.48,0,0,1,0-1h10.79a.48.48,0,0,1,0,1Z" transform="translate(-29.75 -118.3)" fill="#010101"/><path d="M452.81,198.21H442a.48.48,0,1,1,0-1h10.79a.48.48,0,0,1,0,1Z" transform="translate(-29.75 -118.3)" fill="#010101"/><path d="M452.81,205.07H442a.49.49,0,0,1,0-1h10.79a.49.49,0,0,1,0,1Z" transform="translate(-29.75 -118.3)" fill="#010101"/><path d="M452.81,211.92H442a.49.49,0,0,1,0-1h10.79a.49.49,0,0,1,0,1Z" transform="translate(-29.75 -118.3)" fill="#010101"/><path d="M452.81,220.14H442a.49.49,0,0,1,0-1h10.79a.49.49,0,0,1,0,1Z" transform="translate(-29.75 -118.3)" fill="#010101"/><path d="M452.81,229.73H442a.48.48,0,0,1,0-1h10.79a.48.48,0,0,1,0,1Z" transform="translate(-29.75 -118.3)" fill="#010101"/><path d="M452.81,238H442a.49.49,0,0,1,0-1h10.79a.49.49,0,0,1,0,1Z" transform="translate(-29.75 -118.3)" fill="#010101"/><path d="M452.81,244.81H442a.49.49,0,0,1,0-1h10.79a.49.49,0,0,1,0,1Z" transform="translate(-29.75 -118.3)" fill="#010101"/><path d="M452.81,251.66H442a.49.49,0,0,1,0-1h10.79a.49.49,0,0,1,0,1Z" transform="translate(-29.75 -118.3)" fill="#010101"/><path d="M452.81,258.51H442a.49.49,0,0,1,0-1h10.79a.49.49,0,0,1,0,1Z" transform="translate(-29.75 -118.3)" fill="#010101"/><path d="M452.81,264H442a.49.49,0,0,1-.48-.48A.48.48,0,0,1,442,263h10.79a.47.47,0,0,1,.48.48A.48.48,0,0,1,452.81,264Z" transform="translate(-29.75 -118.3)" fill="#010101"/><path d="M452.81,268.1H442a.48.48,0,1,1,0-1h10.79a.48.48,0,1,1,0,1Z" transform="translate(-29.75 -118.3)" fill="#010101"/><path d="M453,275.63H441.83a.49.49,0,1,1,0-1H453a.49.49,0,0,1,0,1Z" transform="translate(-29.75 -118.3)" fill="#010101"/><path d="M429.36,340.92H166.47a12.9,12.9,0,0,1-12.9-12.9V160.93a12.9,12.9,0,0,1,12.9-12.9H429.36a12.9,12.9,0,0,1,12.9,12.9V328A12.93,12.93,0,0,1,429.36,340.92Z" transform="translate(-29.75 -118.3)" fill="#36abc9"/><path d="M429.36,342.37H166.47A14.36,14.36,0,0,1,152.12,328V160.93a14.37,14.37,0,0,1,14.35-14.35H429.36a14.37,14.37,0,0,1,14.35,14.35V328A14.4,14.4,0,0,1,429.36,342.37ZM166.47,149.48A11.46,11.46,0,0,0,155,160.93V328a11.47,11.47,0,0,0,11.45,11.46H429.36A11.49,11.49,0,0,0,440.81,328V160.93a11.45,11.45,0,0,0-11.45-11.45Z" transform="translate(-29.75 -118.3)" fill="#010101"/><path d="M453,281.11H441.83a.49.49,0,1,1,0-1H453a.49.49,0,0,1,0,1Z" transform="translate(-29.75 -118.3)" fill="#010101"/><polyline points="177.03 53.6 144.91 14.13 124.95 15.66 164.17 59.93" fill="#fff"/><path d="M193.92,179.2a1,1,0,0,1-.72-.32L154,134.61a1,1,0,0,1-.17-1,1,1,0,0,1,.82-.6l20-1.53a1,1,0,0,1,.82.35l32.12,39.47a1,1,0,0,1-.14,1.36,1,1,0,0,1-1.36-.14l-31.8-39.08-17.52,1.35,37.93,42.82a1,1,0,0,1-.72,1.6Z" transform="translate(-29.75 -118.3)" fill="#010101"/><path d="M453,288H441.83a.49.49,0,0,1-.49-.48.48.48,0,0,1,.49-.48H453a.48.48,0,0,1,.48.48A.49.49,0,0,1,453,288Z" transform="translate(-29.75 -118.3)" fill="#010101"/><path d="M262.59,131.82,163,143a1,1,0,0,1-1.08-.87l-6.22-7.36c-.07-.54-1.44-1.85-.9-1.92l106.61-11.3a1,1,0,0,1,1.09.87l.93,8.38A1,1,0,0,1,262.59,131.82Z" transform="translate(-29.75 -118.3)" fill="#010101"/><path d="M162.91,143.45a1.42,1.42,0,0,1-.9-.32,1.52,1.52,0,0,1-.52-.83L155.36,135a.47.47,0,0,1-.11-.25,4,4,0,0,0-.46-.73c-.4-.56-.69-1-.52-1.37a.59.59,0,0,1,.5-.35L261.39,121a1.48,1.48,0,0,1,1.07.32,1.41,1.41,0,0,1,.54,1l.94,8.37a1.42,1.42,0,0,1-.32,1.08,1.39,1.39,0,0,1-1,.52l-99.55,11.14Zm-6.74-8.94,6.14,7.27a.47.47,0,0,1,.11.25.58.58,0,0,0,.19.35.55.55,0,0,0,.37.1l99.56-11.14h0a.49.49,0,0,0,.33-.17.45.45,0,0,0,.1-.35l-.93-8.38a.53.53,0,0,0-.19-.34.48.48,0,0,0-.36-.11L155.39,133.24l.18.26A3.81,3.81,0,0,1,156.17,134.51Z" transform="translate(-29.75 -118.3)" fill="#010101"/><polygon points="207.87 42.19 211.16 40.41 214 42.82 217.46 41.41 220.03 44.1 223.62 43.06 225.9 46.02 229.58 45.34 231.54 48.52 235.28 48.24 236.89 51.61 240.63 51.72 241.87 55.24 245.59 55.74 246.46 59.37 250.09 60.24 250.59 63.96 254.12 65.2 254.22 68.94 257.6 70.55 257.31 74.3 260.49 76.25 259.81 79.93 262.77 82.21 261.73 85.8 264.43 88.37 263.01 91.83 265.43 94.68 263.64 97.96 265.75 101.05 263.64 104.14 265.43 107.42 263.01 110.27 264.43 113.73 261.73 116.32 262.77 119.89 259.81 122.17 260.49 125.85 257.29 127.8 257.6 131.54 254.22 133.16 254.12 136.9 250.59 138.16 250.09 141.86 246.46 142.73 245.59 146.36 241.87 146.86 240.63 150.38 236.89 150.49 235.26 153.86 231.54 153.58 229.58 156.76 225.9 156.08 223.62 159.04 220.03 158 217.46 160.69 214 159.28 211.16 161.69 207.87 159.91 204.78 162.02 201.69 159.91 198.41 161.69 195.56 159.28 192.1 160.69 189.51 158 185.92 159.04 183.64 156.08 179.96 156.76 178.01 153.58 174.29 153.86 172.68 150.49 168.94 150.38 167.67 146.86 163.98 146.36 163.08 142.73 159.45 141.86 158.97 138.14 155.45 136.9 155.34 133.16 151.97 131.54 152.25 127.8 149.08 125.85 149.75 122.17 146.79 119.89 147.84 116.3 145.14 113.73 146.55 110.27 144.14 107.42 145.92 104.14 143.79 101.05 145.92 97.96 144.14 94.68 146.55 91.83 145.14 88.37 147.84 85.78 146.79 82.19 149.75 79.93 149.08 76.25 152.25 74.27 151.97 70.55 155.34 68.94 155.45 65.2 158.97 63.94 159.47 60.24 163.11 59.37 163.98 55.72 167.7 55.24 168.94 51.72 172.68 51.61 174.29 48.24 178.03 48.52 179.99 45.34 183.66 46.02 185.94 43.06 189.53 44.1 192.1 41.41 195.56 42.82 198.41 40.41 201.69 42.19 204.78 40.06 207.87 42.19" fill="#fff"/><path d="M234.53,281.29a1,1,0,0,1-.54-.17l-2.61-1.78-2.76,1.5a1,1,0,0,1-1.08-.11l-2.41-2-2.92,1.19a1,1,0,0,1-1.06-.22L219,277.39l-3,.88a.94.94,0,0,1-1-.34L213,275.44l-3.09.57a1,1,0,0,1-1-.45l-1.65-2.67-3.13.24a.94.94,0,0,1-.94-.55l-1.36-2.84-3.15-.09a1,1,0,0,1-.88-.64l-1.07-3-3.11-.42a1,1,0,0,1-.81-.73l-.75-3.06L189,261.1a1,1,0,0,1-.74-.82l-.4-3.13-3-1a1,1,0,0,1-.65-.88l-.09-3.15-2.84-1.36a1,1,0,0,1-.54-.94l.23-3.16L178.32,245a1,1,0,0,1-.44-1l.57-3.1L176,239a1,1,0,0,1-.33-1l.88-3-2.28-2.17a1,1,0,0,1-.22-1.06l1.19-2.92-2-2.4a1,1,0,0,1-.11-1.08l1.5-2.77-1.79-2.6a1,1,0,0,1,0-1.09l1.79-2.61-1.5-2.76a1,1,0,0,1,.11-1.08l2-2.41L174,207a1,1,0,0,1,.22-1.06l2.28-2.19-.88-3a.94.94,0,0,1,.34-1l2.48-1.9-.56-3.1a1,1,0,0,1,.43-1l2.68-1.67-.23-3.14a1,1,0,0,1,.54-.94l2.84-1.36.09-3.15a1,1,0,0,1,.64-.88l3-1.07.42-3.11a1,1,0,0,1,.73-.81l3.05-.73.74-3.08a1,1,0,0,1,.81-.73l3.13-.41,1-3a1,1,0,0,1,.89-.64l3.15-.1,1.36-2.84a1,1,0,0,1,.94-.54l3.15.24,1.65-2.68a1,1,0,0,1,1-.44l3.1.57,1.92-2.5a1,1,0,0,1,1-.33l3,.88,2.16-2.28a1,1,0,0,1,1.06-.22l2.92,1.19,2.41-2a1,1,0,0,1,1.08-.11l2.76,1.5,2.6-1.79a1,1,0,0,1,1.1,0l2.6,1.79,2.76-1.5a1,1,0,0,1,1.09.11l2.4,2,2.92-1.19a1,1,0,0,1,1.06.22l2.16,2.28,3-.88a1,1,0,0,1,1,.33l1.93,2.5,3.09-.57a1,1,0,0,1,1,.44l1.65,2.68,3.15-.24a1,1,0,0,1,.95.54l1.35,2.84,3.16.1a1,1,0,0,1,.88.64l1,3,3.14.42a1,1,0,0,1,.81.73l.73,3.06,3.06.73a1,1,0,0,1,.73.81l.42,3.13,3,1a1,1,0,0,1,.65.88l.09,3.15,2.84,1.36a1,1,0,0,1,.55.94l-.24,3.16,2.67,1.64a1,1,0,0,1,.45,1l-.57,3.1,2.49,1.92a1,1,0,0,1,.34,1l-.88,3,2.27,2.16a1,1,0,0,1,.23,1.07L293.88,210l2,2.41a1,1,0,0,1,.11,1.08l-1.5,2.77,1.78,2.6a1,1,0,0,1,0,1.09l-1.78,2.6,1.5,2.77a1,1,0,0,1-.11,1.08l-2,2.4,1.19,2.92a1,1,0,0,1-.23,1.06l-2.27,2.18.88,3a1,1,0,0,1-.34,1l-2.49,1.93.57,3.1a1,1,0,0,1-.45,1l-2.69,1.65.26,3.15a1,1,0,0,1-.55.95l-2.84,1.36-.09,3.15a1,1,0,0,1-.64.88l-3,1.06-.42,3.12a1,1,0,0,1-.73.81l-3.06.73-.73,3.06a1,1,0,0,1-.81.73l-3.14.42-1,3a1,1,0,0,1-.88.64l-3.16.09-1.38,2.85a.93.93,0,0,1-.94.54l-3.13-.24-1.65,2.68a1,1,0,0,1-1,.44l-3.09-.57-1.93,2.49a.94.94,0,0,1-1,.34l-3-.88-2.16,2.27a1,1,0,0,1-1.06.23l-2.92-1.19-2.4,2a1,1,0,0,1-1.09.11l-2.76-1.5-2.6,1.78A1,1,0,0,1,234.53,281.29Zm-3.09-4a1,1,0,0,1,.55.17l2.54,1.74,2.55-1.74a1,1,0,0,1,1-.05l2.7,1.46,2.35-2a1,1,0,0,1,1-.16l2.85,1.16,2.11-2.22a1,1,0,0,1,1-.26l3,.86,1.88-2.43a1,1,0,0,1,.94-.37l3,.56,1.62-2.61a.91.91,0,0,1,.89-.46l3.06.23,1.35-2.78a1,1,0,0,1,.84-.54l3.08-.09,1-2.9a.94.94,0,0,1,.78-.63l3.06-.42.72-3a1,1,0,0,1,.71-.72l3-.71.41-3.05a1,1,0,0,1,.64-.78l2.9-1,.09-3.08a1,1,0,0,1,.55-.84l2.77-1.33-.25-3.08a1,1,0,0,1,.46-.9l2.63-1.61-.56-3a1,1,0,0,1,.36-.94l2.44-1.88-.86-2.94a1,1,0,0,1,.26-1l2.22-2.14-1.16-2.85a1,1,0,0,1,.15-1l2-2.34-1.47-2.71a1,1,0,0,1,.06-1l1.73-2.55-1.73-2.54a1,1,0,0,1-.06-1l1.47-2.7-2-2.35a.94.94,0,0,1-.15-1l1.16-2.85-2.22-2.12a1,1,0,0,1-.26-1l.86-3L289,199a1,1,0,0,1-.36-.94l.56-3-2.61-1.61a1,1,0,0,1-.46-.9l.23-3.08-2.77-1.32a1,1,0,0,1-.55-.84l-.09-3.08-2.9-1a1,1,0,0,1-.64-.78l-.41-3.07-3-.72a1,1,0,0,1-.71-.71l-.72-3-3.06-.41a1,1,0,0,1-.78-.64l-1-2.89-3.08-.09a1,1,0,0,1-.84-.55l-1.33-2.78-3.08.23a.9.9,0,0,1-.89-.45l-1.62-2.62-3,.56a1,1,0,0,1-.94-.36L253,162.47l-3,.86a1,1,0,0,1-1-.26L247,160.85,244.12,162a1,1,0,0,1-1-.16l-2.35-2-2.7,1.47a1,1,0,0,1-1-.05l-2.54-1.76L232,161.29a1,1,0,0,1-1,.05l-2.7-1.47-2.35,2a1,1,0,0,1-1,.16l-2.84-1.17L220,163.07a1,1,0,0,1-1,.26l-2.95-.86-1.89,2.44a.93.93,0,0,1-.93.36l-3-.56-1.61,2.62a.92.92,0,0,1-.9.45l-3.08-.23-1.32,2.78a1,1,0,0,1-.85.55l-3.08.09-1,2.89a1,1,0,0,1-.78.64l-3.06.39-.72,3a1,1,0,0,1-.71.71l-3,.72-.41,3a1,1,0,0,1-.63.78l-2.91,1-.09,3.09a1,1,0,0,1-.54.84l-2.78,1.32.23,3.06a.94.94,0,0,1-.45.89L179.89,195l.56,3a1,1,0,0,1-.36.94l-2.44,1.86.86,2.95a1,1,0,0,1-.26,1L176,206.91l1.16,2.86a.94.94,0,0,1-.15,1l-2,2.35,1.47,2.7a1,1,0,0,1-.05,1l-1.76,2.54,1.76,2.55a1,1,0,0,1,.05,1l-1.47,2.71,2,2.34a1,1,0,0,1,.15,1L176,231.79l2.22,2.11a1,1,0,0,1,.26,1l-.86,3,2.44,1.88a1,1,0,0,1,.36.94l-.56,3,2.62,1.62a1,1,0,0,1,.45.89l-.23,3.08,2.78,1.33a1,1,0,0,1,.54.84l.09,3.08,2.9,1a1,1,0,0,1,.64.79l.39,3.06,3,.71a1,1,0,0,1,.71.71l.74,3,3,.42a.94.94,0,0,1,.78.63l1,2.9,3.08.09a1,1,0,0,1,.85.55l1.32,2.77,3.06-.23a.94.94,0,0,1,.9.46l1.61,2.61,3-.56a1,1,0,0,1,.94.37l1.88,2.43,3-.86a1,1,0,0,1,1,.26l2.13,2.23,2.85-1.17a1,1,0,0,1,1,.16l2.35,2,2.7-1.46A1,1,0,0,1,231.44,277.25Z" transform="translate(-29.75 -118.3)" fill="#010101"/><path d="M453,294.81H441.83a.48.48,0,1,1,0-1H453a.48.48,0,1,1,0,1Z" transform="translate(-29.75 -118.3)" fill="#010101"/><path d="M453,303H441.83a.49.49,0,1,1,0-1H453a.49.49,0,0,1,0,1Z" transform="translate(-29.75 -118.3)" fill="#010101"/><path d="M453,311.26H441.83a.49.49,0,1,1,0-1H453a.49.49,0,0,1,0,1Z" transform="translate(-29.75 -118.3)" fill="#010101"/><path d="M453,318.11H441.83a.49.49,0,1,1,0-1H453a.49.49,0,0,1,0,1Z" transform="translate(-29.75 -118.3)" fill="#010101"/><path d="M453,323.59H441.83a.49.49,0,0,1-.49-.48.48.48,0,0,1,.49-.48H453a.48.48,0,0,1,.48.48A.49.49,0,0,1,453,323.59Z" transform="translate(-29.75 -118.3)" fill="#010101"/><path d="M453,329.07H441.83a.48.48,0,1,1,0-1H453a.48.48,0,1,1,0,1Z" transform="translate(-29.75 -118.3)" fill="#010101"/><path d="M453,334.55H441.83a.48.48,0,1,1,0-1H453a.48.48,0,0,1,0,1Z" transform="translate(-29.75 -118.3)" fill="#010101"/><path d="M327.69,131.82l99.56,11.12a1,1,0,0,0,1.09-.87l.93-8.38a1,1,0,0,0-.87-1.08l-99.55-11.12a1,1,0,0,0-1.09.87l-.94,8.38A1,1,0,0,0,327.69,131.82Z" transform="translate(-29.75 -118.3)" fill="#010101"/><path d="M427.37,143.43h-.18L327.65,132.3a1.47,1.47,0,0,1-1.31-1.6l.94-8.39a1.46,1.46,0,0,1,1.62-1.3l99.56,11.12a1.46,1.46,0,0,1,1.29,1.62l-.93,8.37a1.49,1.49,0,0,1-.54,1A1.44,1.44,0,0,1,427.37,143.43ZM328.73,122a.45.45,0,0,0-.3.1.49.49,0,0,0-.19.35l-.94,8.37a.51.51,0,0,0,.43.55h0l99.56,11.12a.47.47,0,0,0,.36-.1.53.53,0,0,0,.19-.35l.94-8.37a.51.51,0,0,0-.45-.56L328.79,122Z" transform="translate(-29.75 -118.3)" fill="#010101"/><polyline points="357.28 49.87 381.67 22.87 397.5 24.66 367.7 59.37" fill="#fff"/><path d="M397.45,178.64a1,1,0,0,1-.73-1.59l28.61-33.33-13.53-1.53-24.05,26.63a1,1,0,0,1-1.36.07,1,1,0,0,1-.07-1.36l24.38-27a.94.94,0,0,1,.82-.31L427.36,142a1,1,0,0,1,.79.61,1,1,0,0,1-.17,1l-29.8,34.71A.94.94,0,0,1,397.45,178.64Z" transform="translate(-29.75 -118.3)" fill="#010101"/><circle cx="205.28" cy="102.38" r="20.21" fill="#010101"/><path d="M235,241.37a20.69,20.69,0,1,1,20.69-20.69A20.71,20.71,0,0,1,235,241.37ZM235,201a19.72,19.72,0,1,0,19.73,19.72A19.74,19.74,0,0,0,235,201Z" transform="translate(-29.75 -118.3)" fill="#010101"/><polygon points="326.74 42.1 329.94 40.15 332.9 42.43 336.29 40.82 338.99 43.39 342.54 42.15 344.95 44.99 348.61 44.13 350.71 47.19 354.43 46.71 356.22 50 359.96 49.91 361.39 53.35 365.11 53.65 366.18 57.24 369.86 57.94 370.55 61.61 374.14 62.68 374.45 66.4 377.88 67.83 377.8 71.58 381.08 73.36 380.6 77.08 383.67 79.19 382.8 82.84 385.65 85.26 384.41 88.8 386.98 91.5 385.37 94.89 387.65 97.85 385.69 101.05 387.65 104.25 385.37 107.2 386.98 110.6 384.41 113.3 385.65 116.84 382.8 119.26 383.67 122.91 380.6 125.02 381.08 128.74 377.8 130.52 377.88 134.26 374.45 135.7 374.14 139.42 370.55 140.49 369.86 144.16 366.18 144.86 365.11 148.45 361.39 148.73 359.96 152.19 356.22 152.1 354.43 155.38 350.71 154.91 348.61 157.97 344.95 157.1 342.54 159.95 338.99 158.71 336.29 161.28 332.9 159.67 329.94 161.95 326.74 160 323.55 161.95 320.59 159.67 317.19 161.28 314.5 158.71 310.95 159.95 308.54 157.1 304.88 157.97 302.77 154.91 299.05 155.38 297.27 152.1 293.53 152.19 292.09 148.73 288.37 148.45 287.31 144.86 283.63 144.16 282.94 140.49 279.35 139.42 279.06 135.7 275.61 134.26 275.69 130.52 272.41 128.74 272.89 125.02 269.82 122.91 270.69 119.26 267.84 116.84 269.08 113.3 266.51 110.6 268.12 107.2 265.84 104.25 267.8 101.05 265.84 97.85 268.12 94.89 266.51 91.5 269.08 88.8 267.84 85.26 270.69 82.84 269.82 79.19 272.89 77.08 272.41 73.36 275.69 71.58 275.61 67.83 279.06 66.4 279.35 62.68 282.94 61.61 283.63 57.94 287.31 57.24 288.37 53.65 292.09 53.35 293.53 49.91 297.27 50 299.05 46.71 302.77 47.19 304.88 44.13 308.54 44.99 310.95 42.15 314.5 43.39 317.19 40.82 320.59 42.43 323.55 40.15 326.74 42.1" fill="#fff"/><path d="M353.3,281.22a1,1,0,0,1-.59-.2l-2.49-1.92-2.86,1.35a1,1,0,0,1-1.08-.17L344,278.12l-3,1.05a1,1,0,0,1-1-.29l-2-2.4-3.07.74a1,1,0,0,1-1-.4l-1.78-2.58-3.13.41a1,1,0,0,1-1-.5l-1.51-2.77-3.15.08a1,1,0,0,1-.91-.6L321.18,268l-3.13-.24a1,1,0,0,1-.85-.68l-.9-3-3.1-.59a1,1,0,0,1-.77-.77l-.58-3.09-3-.9a1,1,0,0,1-.69-.85l-.23-3.13L305,253.46a1,1,0,0,1-.6-.91l.07-3.16-2.76-1.5a1,1,0,0,1-.5-1l.4-3.14L299,242a1,1,0,0,1-.39-1l.73-3.08-2.39-2a1,1,0,0,1-.29-1l1-3-2.16-2.27a1,1,0,0,1-.17-1.08l1.36-2.86-1.92-2.49a1,1,0,0,1-.06-1.09l1.65-2.7-1.65-2.69a1,1,0,0,1,.06-1.09l1.92-2.49-1.36-2.86a1,1,0,0,1,.17-1.08l2.16-2.27-1-3a1,1,0,0,1,.29-1.06l2.39-2-.73-3.08a1,1,0,0,1,.39-1l2.58-1.78-.4-3.14a1,1,0,0,1,.5-1l2.76-1.5-.07-3.15a1,1,0,0,1,.6-.91L307.9,184l.23-3.13a1,1,0,0,1,.69-.85l3-.9.58-3.1a1,1,0,0,1,.77-.77l3.1-.58.9-3a1,1,0,0,1,.85-.68l3.13-.26,1.21-2.9a1,1,0,0,1,.91-.59l3.15.07,1.51-2.76a1,1,0,0,1,1-.5l3.13.4,1.78-2.58a1,1,0,0,1,1-.39l3.07.73,2-2.39a1,1,0,0,1,1-.29l3,1,2.27-2.16a1,1,0,0,1,1.08-.17l2.86,1.36,2.49-1.93a1,1,0,0,1,1.09-.05l2.69,1.64,2.7-1.64a1,1,0,0,1,1.09.05l2.49,1.93,2.86-1.36a1,1,0,0,1,1.08.17l2.27,2.16,3-1a1,1,0,0,1,1,.29l2,2.39,3.08-.73a1,1,0,0,1,1,.39l1.77,2.58,3.14-.4a1,1,0,0,1,1,.5l1.5,2.76,3.16-.07a1,1,0,0,1,.91.59l1.21,2.9,3.13.26a1,1,0,0,1,.85.68l.9,3,3.09.58a1,1,0,0,1,.77.77l.59,3.1,3,.9a1,1,0,0,1,.69.84l.26,3.14,2.89,1.21a1,1,0,0,1,.6.91l-.08,3.15,2.77,1.5a1,1,0,0,1,.5,1l-.41,3.14L414,196.7a1,1,0,0,1,.4,1l-.74,3.08,2.4,2a1,1,0,0,1,.29,1.06l-1.05,3,2.16,2.27a1,1,0,0,1,.18,1.08l-1.36,2.86,1.92,2.49a1,1,0,0,1,.06,1.09l-1.65,2.69,1.65,2.7a1,1,0,0,1-.06,1.09l-1.92,2.49,1.36,2.86a1,1,0,0,1-.18,1.08l-2.16,2.27,1.05,3a1,1,0,0,1-.29,1l-2.4,2,.74,3.08a1,1,0,0,1-.4,1l-2.58,1.77.41,3.14a1,1,0,0,1-.5,1l-2.77,1.5.08,3.16a1,1,0,0,1-.6.91l-2.89,1.21-.26,3.13a1,1,0,0,1-.69.85l-3,.9-.59,3.09a1,1,0,0,1-.77.77l-3.09.59-.9,3a1,1,0,0,1-.85.68l-3.13.24-1.21,2.91a1,1,0,0,1-.91.6l-3.16-.08-1.5,2.77a1,1,0,0,1-1,.5l-3.14-.41-1.77,2.58a1,1,0,0,1-1,.4l-3.08-.74-2,2.4a1,1,0,0,1-1,.29l-3-1.05-2.27,2.16a1,1,0,0,1-1.08.17l-2.86-1.35L360.28,281a1,1,0,0,1-1.09.06l-2.7-1.65-2.69,1.65A.93.93,0,0,1,353.3,281.22Zm-3-4.21a1,1,0,0,1,.59.2l2.43,1.88,2.63-1.61a1,1,0,0,1,1,0l2.63,1.61,2.43-1.88a1,1,0,0,1,1-.11l2.8,1.33,2.21-2.11a1,1,0,0,1,1-.21l2.92,1,2-2.35a1,1,0,0,1,1-.31l3,.72,1.74-2.53a1,1,0,0,1,.92-.41l3.06.4,1.47-2.71a1,1,0,0,1,.87-.5l3.08.07,1.18-2.85a1,1,0,0,1,.82-.59l3.06-.23.87-2.95a1,1,0,0,1,.75-.68l3-.57.57-3a1,1,0,0,1,.68-.75l3-.87.25-3.07a1,1,0,0,1,.59-.81l2.83-1.18-.07-3.08a1,1,0,0,1,.5-.87l2.71-1.47-.4-3.06a1,1,0,0,1,.41-.92l2.53-1.74-.72-3a1,1,0,0,1,.31-1l2.35-2-1-2.92a1,1,0,0,1,.21-1l2.11-2.21-1.33-2.8a1,1,0,0,1,.11-1l1.88-2.43-1.61-2.63a1,1,0,0,1,0-1l1.61-2.63-1.88-2.43a1,1,0,0,1-.11-1l1.33-2.79-2.11-2.22a1,1,0,0,1-.21-1l1-2.92-2.35-2a1,1,0,0,1-.31-1l.72-3-2.53-1.73a1,1,0,0,1-.41-.92l.4-3.07-2.71-1.46a1,1,0,0,1-.5-.87l.07-3.09-2.83-1.18a1,1,0,0,1-.59-.81l-.25-3.06-3-.88a1,1,0,0,1-.68-.74l-.57-3-3-.58a1,1,0,0,1-.75-.67l-.87-3-3.06-.25a1,1,0,0,1-.82-.59l-1.18-2.83-3.08.08a1,1,0,0,1-.87-.51l-1.47-2.7-3.06.39a1,1,0,0,1-.92-.41l-1.74-2.52-3,.72a1,1,0,0,1-1-.32l-2-2.34-2.92,1a1,1,0,0,1-1-.21l-2.21-2.11-2.8,1.32a1,1,0,0,1-1-.1l-2.43-1.88L357,161.23a1,1,0,0,1-1,0l-2.63-1.61-2.43,1.88a1,1,0,0,1-1,.1l-2.79-1.32-2.22,2.11a1,1,0,0,1-1,.21l-2.92-1-2,2.34a1,1,0,0,1-1,.32l-3-.72L333.32,166a1,1,0,0,1-.92.41l-3.06-.39-1.47,2.7a1,1,0,0,1-.87.51l-3.09-.08L322.73,172a1,1,0,0,1-.81.59l-3.06.25-.88,3a.94.94,0,0,1-.74.67l-3,.58-.58,3a.94.94,0,0,1-.67.74l-2.95.88-.23,3.06a1,1,0,0,1-.6.81l-2.85,1.19.08,3.08a1,1,0,0,1-.51.87l-2.7,1.46.39,3.07a1,1,0,0,1-.41.92l-2.52,1.73.72,3a1,1,0,0,1-.32,1l-2.34,2,1,2.92a1,1,0,0,1-.21,1L297.42,210l1.32,2.79a1,1,0,0,1-.1,1l-1.88,2.43,1.61,2.63a1,1,0,0,1,0,1l-1.61,2.63,1.88,2.43a1,1,0,0,1,.1,1l-1.32,2.8,2.11,2.21a1,1,0,0,1,.21,1l-1,2.92,2.34,2a1,1,0,0,1,.32,1l-.72,3,2.52,1.74a1,1,0,0,1,.41.92l-.39,3.06,2.7,1.47a1,1,0,0,1,.51.87l-.08,3.08,2.85,1.18a1,1,0,0,1,.6.82L310,257l2.95.87a1,1,0,0,1,.67.75l.58,3,3,.57a1,1,0,0,1,.74.68l.88,2.95,3.06.23a1,1,0,0,1,.81.59l1.19,2.85,3.08-.07a1,1,0,0,1,.87.5l1.47,2.71,3.06-.4a1,1,0,0,1,.92.41l1.73,2.53,3-.72a1,1,0,0,1,1,.31l2,2.35,2.92-1a1,1,0,0,1,1,.21l2.22,2.11,2.79-1.33A1.06,1.06,0,0,1,350.34,277Z" transform="translate(-29.75 -118.3)" fill="#010101"/><circle cx="327.27" cy="102.38" r="20.21" fill="#010101"/><path d="M357,241.37a20.69,20.69,0,1,1,20.68-20.69A20.71,20.71,0,0,1,357,241.37ZM357,201a19.72,19.72,0,1,0,19.72,19.72A19.74,19.74,0,0,0,357,201Z" transform="translate(-29.75 -118.3)" fill="#010101"/><circle cx="201.56" cy="94.11" r="5.09" fill="#fff"/><path d="M231.31,218a5.58,5.58,0,1,1,5.57-5.58A5.58,5.58,0,0,1,231.31,218Zm0-10.18a4.61,4.61,0,1,0,4.61,4.6A4.61,4.61,0,0,0,231.31,207.81Z" transform="translate(-29.75 -118.3)" fill="#010101"/><circle cx="320.78" cy="94.11" r="5.09" fill="#fff"/><path d="M350.53,218a5.58,5.58,0,1,1,5.58-5.58A5.58,5.58,0,0,1,350.53,218Zm0-10.18a4.61,4.61,0,1,0,4.61,4.6A4.6,4.6,0,0,0,350.53,207.81Z" transform="translate(-29.75 -118.3)" fill="#010101"/><polygon points="282.7 191.58 265.25 201.65 247.81 191.58 247.81 171.44 265.25 161.37 282.7 171.44 282.7 191.58" fill="#3090a0"/><path d="M295,320.44a.51.51,0,0,1-.24-.07L277.32,310.3a.5.5,0,0,1-.25-.42V289.74a.5.5,0,0,1,.25-.42l17.44-10.07a.51.51,0,0,1,.48,0l17.45,10.07a.49.49,0,0,1,.24.42v20.14a.49.49,0,0,1-.24.42l-17.45,10.07A.51.51,0,0,1,295,320.44ZM278,309.6l17,9.8,17-9.8V290l-17-9.79L278,290Zm34.41.28h0Z" transform="translate(-29.75 -118.3)" fill="#010101"/><path d="M326.8,130.57l.94-8.38a1,1,0,0,1,1.08-.87l106.61,11.3c.55.07-.83,1.38-.89,1.92l-8,10.4c-.07.54,1.23-2.1.69-2.17l-99.56-11.14A1,1,0,0,1,326.8,130.57Z" transform="translate(-29.75 -118.3)" fill="#010101"/><path d="M426.54,145.49a.46.46,0,0,1-.23-.06.6.6,0,0,1-.25-.55.5.5,0,0,1,.09-.24l.32-.41a5.9,5.9,0,0,0,.38-1l-99.23-11.1a1.39,1.39,0,0,1-1-.52,1.46,1.46,0,0,1-.32-1.08l.94-8.37a1.5,1.5,0,0,1,.55-1,1.48,1.48,0,0,1,1.07-.3l106.6,11.3a.62.62,0,0,1,.51.36c.18.4-.11.8-.52,1.37a3.17,3.17,0,0,0-.45.74.94.94,0,0,1-.1.23l-7.63,9.91a2.36,2.36,0,0,1-.42.63A.55.55,0,0,1,426.54,145.49ZM328.71,121.8a.45.45,0,0,0-.3.1.49.49,0,0,0-.19.35l-.94,8.37h0a.46.46,0,0,0,.11.35.44.44,0,0,0,.32.17l99.57,11.14a.61.61,0,0,1,.46.29l6.35-8.25a3.85,3.85,0,0,1,.6-1l.18-.26L328.77,121.8Zm-1.91,8.77h0Z" transform="translate(-29.75 -118.3)" fill="#010101"/><path d="M494.8,167.86" transform="translate(-29.75 -118.3)" fill="#ffda62" stroke="#010101" stroke-linecap="round" stroke-linejoin="round" stroke-width="0.63"/><polyline points="476 68.22 436.98 181.5 423.98 181.5 423.35 157.96 434.99 157.5 471.51 63.14" fill="#ffda62"/><path d="M466.73,300.29h-13a.48.48,0,0,1-.48-.47l-.64-23.54a.49.49,0,0,1,.46-.5l11.33-.45,36.41-94.06a.47.47,0,0,1,.62-.28.49.49,0,0,1,.28.62L465.19,276a.49.49,0,0,1-.43.31l-11.17.45.61,22.59h12.18l38.91-112.95a.47.47,0,0,1,.61-.3.48.48,0,0,1,.3.61L467.18,300A.47.47,0,0,1,466.73,300.29Z" transform="translate(-29.75 -118.3)" fill="#010101"/><path d="M535.26,182.75" transform="translate(-29.75 -118.3)" fill="#ffda62" stroke="#010101" stroke-linecap="round" stroke-linejoin="round" stroke-width="0.63"/><path d="M454.54,300h13l39-113.29,20.17,2.41L480.79,320.22a11.71,11.71,0,0,1-11,7.81H454.54Z" transform="translate(-29.75 -118.3)" fill="#ffda62"/><path d="M469.76,329H454.54a1,1,0,0,1-1-1V300a1,1,0,0,1,1-1h12.31l38.79-112.63a1,1,0,0,1,1-.65l20.18,2.42a1,1,0,0,1,.7.44.94.94,0,0,1,.09.83L481.7,320.53A12.68,12.68,0,0,1,469.76,329Zm-14.26-1.93h14.26a10.75,10.75,0,0,0,10.12-7.17l45.54-130-18.2-2.18L468.45,300.27a1,1,0,0,1-.91.65h-12Z" transform="translate(-29.75 -118.3)" fill="#010101"/><path d="M495.59,168.16" transform="translate(-29.75 -118.3)" fill="none" stroke="#010101" stroke-linecap="round" stroke-linejoin="round" stroke-width="1.26"/><path d="M454.56,300.92a1,1,0,0,1-1-1V276a1,1,0,0,1,1-1h10.35l36.28-93.74a1,1,0,0,1,1.8.7L466.47,276.3a1,1,0,0,1-.9.61h-10v23A1,1,0,0,1,454.56,300.92Z" transform="translate(-29.75 -118.3)" fill="#010101"/><polyline points="497.03 77.03 513.25 70.73 533.97 50.19 526.31 16.65 518.34 10.87 503.73 19.47 511.9 46.88 505.72 59.86 485.28 45.06 480.63 23.83 488.65 18.5 504.92 13.48 507.97 6.42 503 0.9 484.24 10.51 482.85 17.12 463.66 31 469.96 56.41 490.34 78.09" fill="#ffda62"/><path d="M520.09,196.88a.51.51,0,0,1-.36-.15l-20.37-21.68a.48.48,0,0,1-.12-.22L493,149.41a.46.46,0,0,1,.18-.5l19-13.77,1.34-6.43a.51.51,0,0,1,.26-.33l18.76-9.61a.48.48,0,0,1,.58.11l5,5.52a.48.48,0,0,1,.09.51l-3,7.06a.5.5,0,0,1-.3.27l-16.2,5-7.69,5.11,4.54,20.72,19.82,14.35,5.86-12.29L533,137.91a.48.48,0,0,1,.22-.55l14.61-8.6a.49.49,0,0,1,.53,0l8,5.79a.54.54,0,0,1,.19.28l7.66,33.54a.47.47,0,0,1-.13.45l-20.72,20.53a.36.36,0,0,1-.16.11L527,195.78a.48.48,0,1,1-.35-.9l16.12-6.26,20.46-20.28-7.56-33.1-7.56-5.49-14,8.25,8.06,27a.47.47,0,0,1,0,.35l-6.19,13a.47.47,0,0,1-.71.18l-20.45-14.8a.47.47,0,0,1-.18-.29l-4.65-21.22a.5.5,0,0,1,.2-.51l8-5.32a.34.34,0,0,1,.12-.06l16.06-5,2.84-6.58-4.51-5-18.23,9.33-1.34,6.39a.44.44,0,0,1-.19.29L494,149.5l6.19,25,20.29,21.59a.49.49,0,0,1,0,.68A.5.5,0,0,1,520.09,196.88Z" transform="translate(-29.75 -118.3)" fill="#010101"/><path d="M521.07,134.16,520,136a2.66,2.66,0,0,1-3.63,1l-.64-.36a6.27,6.27,0,0,0-7,.55L497.69,146a7.66,7.66,0,0,0-2.76,7.44l3.32,17.08a8.78,8.78,0,0,0,4.08,5.86l15.7,9.52a5.81,5.81,0,0,0,7.09-.85l10.61-10.51a9.42,9.42,0,0,0,2.46-9.14l-3.69-13.66a11,11,0,0,0-3.87-5.86l-2-1.6a2.09,2.09,0,0,1-.55-2.57l1.91-3.64a1.92,1.92,0,0,1,2.81-.68l2.9,2.07a10.77,10.77,0,0,1,4.16,6.07l6.24,23.82a8.45,8.45,0,0,1-2.15,8l-15.17,15.37a9.34,9.34,0,0,1-11.56,1.41l-19.29-11.78a10.24,10.24,0,0,1-4.7-6.71l-5.1-24.83a8.85,8.85,0,0,1,3.53-9l16.79-11.94a9.16,9.16,0,0,1,9.72-.58l1.83,1A2.78,2.78,0,0,1,521.07,134.16Z" transform="translate(-29.75 -118.3)" fill="#ffda62"/><path d="M522.07,196.5a10.28,10.28,0,0,1-5.41-1.55l-19.28-11.78a11.26,11.26,0,0,1-5.15-7.34L487.13,151a9.84,9.84,0,0,1,3.92-9.95l16.79-12a10.17,10.17,0,0,1,10.74-.63l1.83,1a3.64,3.64,0,0,1,1.83,2.21,3.82,3.82,0,0,1-.33,2.94h0l-1,1.81a3.65,3.65,0,0,1-5,1.38l-.64-.36a5.34,5.34,0,0,0-5.88.46l-11.12,8.81a6.68,6.68,0,0,0-2.41,6.5l3.31,17.08a7.89,7.89,0,0,0,3.64,5.22l15.7,9.51a4.81,4.81,0,0,0,5.91-.7l10.62-10.52a8.5,8.5,0,0,0,2.2-8.2L533.57,152a10,10,0,0,0-3.53-5.35l-2-1.6a3,3,0,0,1-.81-3.77l1.9-3.65a2.93,2.93,0,0,1,1.9-1.47,2.89,2.89,0,0,1,2.32.45l2.91,2.07a11.76,11.76,0,0,1,4.54,6.62L547,169.08a9.45,9.45,0,0,1-2.39,8.94l-15.17,15.37A10.26,10.26,0,0,1,522.07,196.5Zm-8.34-67.34a8.26,8.26,0,0,0-4.77,1.51l-16.79,12a7.89,7.89,0,0,0-3.14,8l5.09,24.83a9.33,9.33,0,0,0,4.27,6.07l19.28,11.79A8.35,8.35,0,0,0,528.05,192l15.17-15.37a7.51,7.51,0,0,0,1.89-7.11l-6.23-23.82a9.82,9.82,0,0,0-3.79-5.53l-2.9-2.06a1,1,0,0,0-.77-.15.94.94,0,0,0-.63.49l-1.9,3.64a1.09,1.09,0,0,0,.29,1.36l2,1.6a11.84,11.84,0,0,1,4.21,6.37l3.69,13.66a10.39,10.39,0,0,1-2.71,10.07L525.8,185.7a6.73,6.73,0,0,1-8.27,1l-15.7-9.51a9.8,9.8,0,0,1-4.53-6.5L494,153.59a8.6,8.6,0,0,1,3.1-8.37l11.13-8.81a7.17,7.17,0,0,1,8-.63l.64.36a1.71,1.71,0,0,0,2.32-.65l1-1.81a1.81,1.81,0,0,0,.16-1.44,1.75,1.75,0,0,0-.88-1.06l-1.86-1A8.24,8.24,0,0,0,513.73,129.16Zm7.34,5h0Z" transform="translate(-29.75 -118.3)" fill="#010101"/><path d="M526,195.88a1,1,0,0,1-.35-1.86l16-6.23,17.44-17.3a7.12,7.12,0,0,0,2-6.51l-6.71-28.9-3.68-3a5.33,5.33,0,0,0-5.38-.83l-13,6.55a1,1,0,0,1-.87-1.73l13.06-6.58a7.28,7.28,0,0,1,7.39,1.1l3.94,3.25a1,1,0,0,1,.33.52L563,163.57a9,9,0,0,1-2.51,8.29L542.94,189.3a.83.83,0,0,1-.33.22l-16.22,6.29A.84.84,0,0,1,526,195.88Z" transform="translate(-29.75 -118.3)" fill="#010101"/><path d="M538,143.21a.48.48,0,0,1-.43-.28.47.47,0,0,1,.23-.64l17.33-8.18a.48.48,0,0,1,.41.87l-17.33,8.18A.54.54,0,0,1,538,143.21Z" transform="translate(-29.75 -118.3)" fill="#010101"/><path d="M545.5,175.45a.48.48,0,0,1-.21-.92l16.5-7.78a.48.48,0,0,1,.41.87l-16.5,7.78A.46.46,0,0,1,545.5,175.45Z" transform="translate(-29.75 -118.3)" fill="#010101"/><path d="M520.59,132.81a1,1,0,0,1-.88-.57,1,1,0,0,1,.48-1.28l16.1-7.4-3-2.47a2.85,2.85,0,0,0-3.08-.33l-16.52,8.49a1,1,0,1,1-.88-1.71l16.52-8.5a4.79,4.79,0,0,1,5.19.56l3.22,2.66a1.75,1.75,0,0,1-.34,2.92L521,132.72A1,1,0,0,1,520.59,132.81Z" transform="translate(-29.75 -118.3)" fill="#010101"/><path d="M488,146.47a.46.46,0,0,1-.37-.18.47.47,0,0,1,.07-.67l21.84-17.85a.37.37,0,0,1,.12-.07l22.2-9.36a.48.48,0,0,1,.38.89l-22.14,9.33-21.79,17.8A.45.45,0,0,1,488,146.47Z" transform="translate(-29.75 -118.3)" fill="#010101"/><path d="M519.58,138.26a1,1,0,0,1-.37-1.86l14.35-5.92A2.87,2.87,0,0,0,535,129l2.12-5.62a1,1,0,0,1,1.81.69l-2.15,5.67a4.79,4.79,0,0,1-2.51,2.48L520,138.18A1,1,0,0,1,519.58,138.26Z" transform="translate(-29.75 -118.3)" fill="#010101"/><path d="M514.29,163.43a.49.49,0,0,1-.47-.38l-4.65-21.22a.5.5,0,0,1,.19-.5l6.27-4.47a.48.48,0,0,1,.67.12.49.49,0,0,1-.11.67l-6,4.28,4.58,20.91a.49.49,0,0,1-.37.58Z" transform="translate(-29.75 -118.3)" fill="#010101"/><path d="M495.09,150.18a.49.49,0,0,1-.24-.91l14.56-8a.49.49,0,0,1,.66.19.5.5,0,0,1-.19.66l-14.56,8A.53.53,0,0,1,495.09,150.18Z" transform="translate(-29.75 -118.3)" fill="#010101"/><path d="M356.51,568.11a11.18,11.18,0,1,0-22.16,3c.07.59-16.68,15.52-16.68,15.52a19,19,0,0,0-5.44,13.46l.61,59.68a21.77,21.77,0,0,0,4.79,13.43l18.71,23.34a7.68,7.68,0,0,0,13-4.86l2.3-106.82S357.33,574.23,356.51,568.11Z" transform="translate(-29.75 -118.3)" fill="#36abc9"/><path d="M341.63,700.09a9,9,0,0,1-6.28-2.54.86.86,0,0,1-.13-.14L316.5,674.07a23.3,23.3,0,0,1-5.11-14.31l-.6-59.68a20.24,20.24,0,0,1,5.85-14.49c6.95-6.21,14.59-13.18,16.21-14.92a12.62,12.62,0,0,1,25.09-2.76c.73,5.45-3.32,14.55-4.9,17.27l-2.29,106.5a9.16,9.16,0,0,1-9.12,8.41Zm-4.22-4.57a6.23,6.23,0,0,0,10.45-4l2.29-106.72a1.54,1.54,0,0,1,.25-.79c.76-1.29,5.36-10.57,4.67-15.71h0a9.73,9.73,0,0,0-19.29,2.59c.13,1,.18,1.34-17.15,16.79a17.38,17.38,0,0,0-4.95,12.37l.6,59.68a20.39,20.39,0,0,0,4.48,12.53Z" transform="translate(-29.75 -118.3)" fill="#010101"/><path d="M345.18,577.81a7.52,7.52,0,1,1,1-.06A8.89,8.89,0,0,1,345.18,577.81Zm0-14.31a6.77,6.77,0,0,0-.89.06,6.67,6.67,0,1,0,.89-.06Z" transform="translate(-29.75 -118.3)" fill="#010101"/><path d="M380,569.29a11.18,11.18,0,1,1,22.11,3.27c-.09.57,16.45,15.76,16.45,15.76a19,19,0,0,1,5.24,13.55l-1.43,59.67a21.87,21.87,0,0,1-5,13.36l-19,23.07a7.69,7.69,0,0,1-12.91-5l-.81-106.84S379.06,575.4,380,569.29Z" transform="translate(-29.75 -118.3)" fill="#36abc9"/><path d="M393.1,701.48a9.18,9.18,0,0,1-3.36-.63A9.07,9.07,0,0,1,384,693l-.81-106.6c-1.79-3.68-5.42-12-4.62-17.35h0a12.62,12.62,0,0,1,25,3.09c1.6,1.76,9.12,8.84,15.92,15.08a20.53,20.53,0,0,1,5.72,14.65l-1.44,59.68a23.35,23.35,0,0,1-5.3,14.24l-19.05,23.07a.86.86,0,0,1-.13.14A9.07,9.07,0,0,1,393.1,701.48ZM386,586.17l.81,106.74a6.24,6.24,0,0,0,10.4,4.06l19-23a20.37,20.37,0,0,0,4.65-12.46l1.43-59.68a17.55,17.55,0,0,0-4.84-12.51c-17-15.64-17-16-16.83-17a9.73,9.73,0,0,0-19.25-2.84c-.72,4.84,3.21,13.31,4.43,15.78A1.79,1.79,0,0,1,386,586.17Zm17.46-13.4Z" transform="translate(-29.75 -118.3)" fill="#010101"/><path d="M383.38,587.67h0L353,587.34a1.45,1.45,0,0,1-1.43-1.47,1.48,1.48,0,0,1,1.46-1.43l30.35.33a1.45,1.45,0,0,1,0,2.9Z" transform="translate(-29.75 -118.3)" fill="#010101"/><circle cx="289.05" cy="512.17" r="6.94" fill="#929292"/><path d="M318.8,637.9a7.43,7.43,0,0,1-7.35-6.43,7.42,7.42,0,0,1,14.71-2,7.43,7.43,0,0,1-6.37,8.34A6.59,6.59,0,0,1,318.8,637.9Zm0-13.88a6.51,6.51,0,0,0-.88.06h0a6.46,6.46,0,0,0-5.54,7.26,6.46,6.46,0,1,0,6.42-7.32Zm-.94-.42h0Z" transform="translate(-29.75 -118.3)" fill="#010101"/><path d="M405.05,689.32" transform="translate(-29.75 -118.3)" fill="none" stroke="#010101" stroke-linecap="round" stroke-linejoin="round" stroke-width="0.63"/><path d="M385.14,689.32" transform="translate(-29.75 -118.3)" fill="none" stroke="#010101" stroke-linecap="round" stroke-linejoin="round" stroke-width="0.63"/><path d="M343.57,590.37a4.18,4.18,0,0,1-.55-8.32h0a4.18,4.18,0,0,1,1.11,8.29Zm-.42-7.36a3.21,3.21,0,1,0,3.61,2.76,3.21,3.21,0,0,0-3.61-2.76Z" transform="translate(-29.75 -118.3)" fill="#010101"/><polygon points="292.54 511.02 289.46 511.44 288.95 508.28 287.59 508.51 288.1 511.62 285.36 511.99 285.55 513.35 288.33 512.97 288.81 516.11 290.17 515.89 289.68 512.79 292.72 512.38 292.54 511.02" fill="#010101"/><path d="M318.16,635l-.49-3.15-2.79.37-.31-2.31,2.72-.37-.5-3.1,2.3-.38.52,3.17,3.09-.41.31,2.31-3,.41.47,3.08Zm.32-4.23.48,3.12.4-.07-.48-3.11,3.05-.41-.05-.4-3.07.41-.51-3.14-.4.07.5,3.13-2.75.37.06.4Z" transform="translate(-29.75 -118.3)" fill="#010101"/><path d="M322.05,273.94c-.31-.26-.63-.51-.92-.79a13.46,13.46,0,0,1-4.63-3.63,10.29,10.29,0,0,1-4.31,1.36l-1.93.25a13.64,13.64,0,0,1-7.14-1l-1.37-.8c-6.38,3-13.3,3.68-16.39,4a34.71,34.71,0,0,1-6.26.05,12.67,12.67,0,0,1-9.37,5.55,14.86,14.86,0,0,1-2.28.11,14.14,14.14,0,0,1-4.71,1.44,15.54,15.54,0,0,1-3.1.09,12.66,12.66,0,0,1-5,2.72,12.62,12.62,0,0,1-2.24,3.6c.05.13.06.29.12.42a20.17,20.17,0,0,0,4.44,6c.45.45.84.84,1.15,1.21,1.12,1.34,1.22,3.21.37,7.14-.24,1.12-.55,2.38-.88,3.71-.4,1.6-.85,3.42-1.28,5.39-.67,3.12-1.16,6-1.49,8.92-.41,3.6,1.06,6.86,3.53,11.91,1.29,2.65,3.32-6.84,3.05,1.21l2.14-3.44c1.93,2.42,2-5.13,4.6-3.28,4.9,3.45,3.75,2.39,6.15,2.93,6.21,1.41,30.32-2.88,32.23-3.26,3.14-.64,2.77,6.17,7.31,2.68,5.49-4.23-.17,7.84,2.12,3a70.93,70.93,0,0,0,5.59-15.6,49.7,49.7,0,0,0,.93-15.59,40.43,40.43,0,0,0-1.93-8.69c-.72-2.27-1.19-3.77-.85-5.33a6.07,6.07,0,0,1,.25-.84c1-2.5,2.66-3.71,4.63-5.12l.47-.35A16.19,16.19,0,0,1,322.05,273.94Z" transform="translate(-29.75 -118.3)" fill="#26acc9"/><path d="M262.85,284.54a94.33,94.33,0,0,0,12.58.17,106.66,106.66,0,0,0,20.79-3.19,83.89,83.89,0,0,0,17.9-6.63c1.37-.71,2.7-1.52,4.05-2.29a1,1,0,0,1,.55-.17,60,60,0,0,1-11.75,6c.25.61.48,1.2.72,1.8a90.36,90.36,0,0,1,4.13,11.89,50.46,50.46,0,0,1,1,11,31,31,0,0,1-.93,9.88c-1.8,5.9-4.12,11.55-8.33,16.22a22.1,22.1,0,0,1-6.25,5,15.86,15.86,0,0,1-11.91.92,52.56,52.56,0,0,1-11.05-4c-2.93-1.57-5.73-3.33-7.62-6.17a20.93,20.93,0,0,1-2.66-6c-1.29-4.49-.6-8.81,1.1-13a115.16,115.16,0,0,1,7.76-16c1-1.63,1.95-3.26,3-5-1.49,0-2.92.11-4.34.08-2.72,0-5.43-.16-8.14-.26a3,3,0,0,1-.57-.15Zm3.43,39.21c.46-.61.83-1.14,1.24-1.64a4.49,4.49,0,0,1,3.88-1.8c1.75.11,3.5.17,5.24.36A111.7,111.7,0,0,1,291,323.24a24.62,24.62,0,0,1,6.68,2.26c2,1.17,3.91,2.5,4,5.25a6.93,6.93,0,0,0,.6-.54c1.28-1.56,2.63-3.06,3.8-4.7,2.09-2.91,3.29-6.27,4.61-9.56a1.33,1.33,0,0,0,0-.71,20.47,20.47,0,0,0-2.73-6.2,12.57,12.57,0,0,0-13.18-5.6,16.36,16.36,0,0,0-9.79,6.11l-.4.48-.16-.16a17.3,17.3,0,0,1,5.45-4.93c-.06-.07-.09-.13-.14-.18a13.4,13.4,0,0,0-8.87-3.39c-6.5,0-11.68,2.9-15.94,7.65a3.67,3.67,0,0,0-1,2.18c-.1.94-.24,1.87-.26,2.81A19.58,19.58,0,0,0,266.28,323.75Zm-1.89-14.9.19.06c3.61-3.78,6.45-5.71,10.4-7,5.53-1.74,10.63-1,15.16,2.79.52-.23,1-.5,1.58-.71,5.27-2,10.15-1.48,14.4,2.44a17.17,17.17,0,0,1,4.55,7.84c.07.23.16.46.27.8,2.62-5.92,1.69-21.64-.13-25.34-.1,0-.21,0-.31.06a75.84,75.84,0,0,1-36.4.14.87.87,0,0,0-1.16.48,110.51,110.51,0,0,0-7,14.39C265.4,306.17,264.91,307.51,264.39,308.85Zm23.15,13.77-.05.18-1.19-.25a89,89,0,0,0-13.79-1.91,8.5,8.5,0,0,0-2.71.25c-1.45.4-2.25,1.64-3.11,2.77a.67.67,0,0,0,0,1,24.26,24.26,0,0,0,10.26,7.5c2.42,1.05,5,1.83,7.45,2.73a16.68,16.68,0,0,0,7.71.69,16.46,16.46,0,0,0,8.8-4.19.87.87,0,0,0,.31-.48,3.68,3.68,0,0,0-.82-2.75,9.91,9.91,0,0,0-4.81-3.19C293,324.1,290.23,323.39,287.54,322.62Zm23.3-33.19-4.1-10.9c-.91.31-1.7.55-2.48.84a85.26,85.26,0,0,1-13.49,3.71,97,97,0,0,1-13.81,1.8,1.15,1.15,0,0,0-1.06.64c-.52.92-1.1,1.81-1.65,2.71-.24.4-.48.82-.74,1.27C286,292.39,298.33,292.67,310.84,289.43Z" transform="translate(-29.75 -118.3)"/><path d="M320.72,273a13.14,13.14,0,0,1-2.86-2c-.2.08-.38.17-.48.22l-1.3.75c-.88.52-1.79,1.05-2.7,1.52a81.63,81.63,0,0,1-17.56,6.5,104.59,104.59,0,0,1-20.48,3.14A91.55,91.55,0,0,1,263,283l-1.39-.07-.61,2.93,1.43.4.09,0a2.58,2.58,0,0,0,.84.18l1.6.06c2.15.08,4.37.16,6.57.21H273c-.5.83-1,1.65-1.47,2.47a113.77,113.77,0,0,0-7.88,16.27c-2,5.07-2.42,9.67-1.16,14.07a23.08,23.08,0,0,0,2.88,6.42c2.18,3.27,5.36,5.17,8.18,6.69a52.52,52.52,0,0,0,10.92,4l.46.13a19.37,19.37,0,0,0,7.35.68,16.33,16.33,0,0,0,5.72-1.72,23.55,23.55,0,0,0,6.71-5.31c4.7-5.23,7-11.44,8.67-16.82a32.25,32.25,0,0,0,1-10.39v-.7a48.18,48.18,0,0,0-1-10.68,90.23,90.23,0,0,0-4.1-11.87l-.22-.56a58.54,58.54,0,0,0,10.58-5.58Zm-44.56,15.17c.35-.56.7-1.12,1-1.71a97.48,97.48,0,0,0,13.88-1.82,85.92,85.92,0,0,0,13.75-3.78l1-.34,2.93,7.79a74.66,74.66,0,0,1-32.71.11ZM292,334a15.09,15.09,0,0,1-7-.61l-2.33-.82c-1.68-.57-3.42-1.17-5-1.87a23.18,23.18,0,0,1-9.27-6.55,4.06,4.06,0,0,1,1.88-1.69,7.27,7.27,0,0,1,2.21-.2A86.18,86.18,0,0,1,286,324.11l2.66.57,0-.08.89.24c1.84.51,3.75,1,5.59,1.62a8.4,8.4,0,0,1,4.06,2.68,2,2,0,0,1,.47,1.21A14.66,14.66,0,0,1,292,334Zm16.75-17.38a36.44,36.44,0,0,1-3.93,8c-.74,1-1.55,2-2.4,3a10.34,10.34,0,0,0-3.94-3.48,24,24,0,0,0-6.48-2.27l-.62-.14a112.73,112.73,0,0,0-14.52-2.61c-1.29-.14-2.59-.21-3.84-.28l-1.47-.09a6.68,6.68,0,0,0-1.1,0,6,6,0,0,0-3.8,2,16.49,16.49,0,0,1-1.34-6.7c0-.62.08-1.27.16-2,0-.24.06-.48.08-.72a2.14,2.14,0,0,1,.56-1.28c4.29-4.78,9.12-7.11,14.77-7.13a11.41,11.41,0,0,1,6.29,1.88,17.59,17.59,0,0,0-4.05,4.13l-.72,1.15,2.3,2.25,1.24-1.48c.09-.11.19-.22.28-.34A14.77,14.77,0,0,1,295,305a11,11,0,0,1,11.55,4.91,19,19,0,0,1,2.51,5.7Zm1.91-6.73a16.25,16.25,0,0,0-3.41-4.55,14,14,0,0,0-11.4-3.92,19.07,19.07,0,0,0-4.65,1.16c-.27.1-.53.22-.79.34-4.6-3.49-9.93-4.32-15.86-2.45a21.49,21.49,0,0,0-6.31,3.12,105.37,105.37,0,0,1,5.92-11.94,77.91,77.91,0,0,0,35.68,0C310.79,295.28,311.39,303.81,310.61,309.86Z" transform="translate(-29.75 -118.3)" fill="#1d1d1b"/><path d="M309.12,315.75Z" transform="translate(-29.75 -118.3)" fill="#1d1d1b"/><path d="M309.19,315.36Z" transform="translate(-29.75 -118.3)" fill="#1d1d1b"/><path d="M266.28,323.75a19.58,19.58,0,0,1-2.62-9.74c0-.94.16-1.87.26-2.81a3.67,3.67,0,0,1,1-2.18c4.26-4.75,9.44-7.63,15.94-7.65a13.4,13.4,0,0,1,8.87,3.39c.05.05.08.11.14.18a17.3,17.3,0,0,0-5.45,4.93l.16.16.4-.48a16.36,16.36,0,0,1,9.79-6.11,12.57,12.57,0,0,1,13.18,5.6,20.47,20.47,0,0,1,2.73,6.2,1.33,1.33,0,0,1,0,.71c-1.32,3.29-2.52,6.65-4.61,9.56-1.17,1.64-2.52,3.14-3.8,4.7a6.93,6.93,0,0,1-.6.54c-.12-2.75-2-4.08-4-5.25a24.62,24.62,0,0,0-6.68-2.26,111.7,111.7,0,0,0-14.31-2.57c-1.74-.19-3.49-.25-5.24-.36a4.49,4.49,0,0,0-3.88,1.8C267.11,322.61,266.74,323.14,266.28,323.75Z" transform="translate(-29.75 -118.3)" fill="#e30613"/><path d="M300.22,334.21l-.15-3.39c-.08-1.8-1.15-2.74-3.23-3.94a21.1,21.1,0,0,0-5.64-1.94l-.62-.15a112.29,112.29,0,0,0-14.12-2.53c-1.2-.13-2.45-.2-3.67-.27-.5,0-1-.05-1.49-.09a2.9,2.9,0,0,0-2.55,1.23c-.26.31-.5.64-.77,1-.13.19-.28.39-.43.59l-1.5,2-1.18-2.2a21.14,21.14,0,0,1-2.8-10.52c0-.77.1-1.53.18-2.25l.08-.7a5.32,5.32,0,0,1,1.36-3.07c4.86-5.41,10.62-8.17,17.13-8.19a14.87,14.87,0,0,1,9.5,3.45,16.63,16.63,0,0,1,4.11-1.34,14.1,14.1,0,0,1,14.81,6.28,22.24,22.24,0,0,1,2.94,6.67,2.74,2.74,0,0,1,0,1.72l-.49,1.22a39.34,39.34,0,0,1-4.3,8.67c-.88,1.22-1.84,2.36-2.77,3.46l-1.1,1.32a4.13,4.13,0,0,1-.57.55l-.19.16ZM270.4,318.75a6.68,6.68,0,0,1,1.1,0l1.47.09c1.25.07,2.55.14,3.84.28a112.73,112.73,0,0,1,14.52,2.61l.62.14a24,24,0,0,1,6.48,2.27,10.34,10.34,0,0,1,3.94,3.48c.85-1,1.66-2,2.4-3a36.44,36.44,0,0,0,3.93-8l.39-1a19,19,0,0,0-2.51-5.7A11,11,0,0,0,295,305a14.77,14.77,0,0,0-8.86,5.54c-.09.12-.19.23-.28.34l-1.24,1.48-2.3-2.25.72-1.15a17.59,17.59,0,0,1,4.05-4.13,11.41,11.41,0,0,0-6.29-1.88c-5.65,0-10.48,2.35-14.77,7.13a2.14,2.14,0,0,0-.56,1.28c0,.24-.05.48-.08.72-.08.68-.15,1.33-.16,2a16.49,16.49,0,0,0,1.34,6.7A6,6,0,0,1,270.4,318.75Zm38.72-3Zm.07-.39Z" transform="translate(-29.75 -118.3)" fill="#1d1d1b"/><path d="M264.39,308.85c.52-1.34,1-2.68,1.54-4a110.51,110.51,0,0,1,7-14.39.87.87,0,0,1,1.16-.48,75.84,75.84,0,0,0,36.4-.14c.1,0,.21,0,.31-.06,1.82,3.7,2.75,19.42.13,25.34-.11-.34-.2-.57-.27-.8a17.17,17.17,0,0,0-4.55-7.84c-4.25-3.92-9.13-4.45-14.4-2.44-.55.21-1.06.48-1.58.71-4.53-3.82-9.63-4.53-15.16-2.79-4,1.24-6.79,3.17-10.4,7Z" transform="translate(-29.75 -118.3)" fill="#be1622"/><path d="M310.89,316.21l-.43-1.27c-.07-.19-.12-.35-.17-.51a16.57,16.57,0,0,0-4.44-7.65c-4-3.66-8.54-4.44-14-2.37-.36.14-.71.31-1.06.47l-.5.24-.23.1-.19-.16c-4.28-3.61-9.12-4.5-14.78-2.72-3.85,1.21-6.62,3.07-10.23,6.84l-.18.19-.82-.28.64-1.66q.51-1.37,1.05-2.73a110.25,110.25,0,0,1,7-14.44,1.26,1.26,0,0,1,1.6-.67,75.78,75.78,0,0,0,36.21-.14l.25-.05.38-.06.14.27c1.95,4,2.74,19.8.14,25.67Zm-15-13.62a12.85,12.85,0,0,1,10.5,3.6,17.18,17.18,0,0,1,4.58,7.74c2.06-6.37,1.11-20-.4-23.7a76.59,76.59,0,0,1-36.56.14c-.43-.1-.52-.07-.73.29a110.63,110.63,0,0,0-7,14.34c-.35.87-.68,1.74-1,2.62a22.13,22.13,0,0,1,9.57-6c5.77-1.82,10.94-.91,15.34,2.71l.26-.13c.36-.17.73-.35,1.12-.49A17.12,17.12,0,0,1,295.89,302.59Z" transform="translate(-29.75 -118.3)" fill="#1d1d1b"/><path d="M287.54,322.62c2.69.77,5.41,1.48,8.08,2.32a9.91,9.91,0,0,1,4.81,3.19,3.68,3.68,0,0,1,.82,2.75.87.87,0,0,1-.31.48,16.46,16.46,0,0,1-8.8,4.19,20.68,20.68,0,0,1-7.66-.9c-2.49-.9-5.08-1.47-7.5-2.52a24.26,24.26,0,0,1-10.26-7.5.67.67,0,0,1,0-1c.86-1.13,1.66-2.37,3.11-2.77a8.5,8.5,0,0,1,2.71-.25,87.5,87.5,0,0,1,13.78,1.7l1.25.28C287.55,322.57,287.52,322.68,287.54,322.62Z" transform="translate(-29.75 -118.3)" fill="#fff"/><path d="M292.13,336.36a21.93,21.93,0,0,1-7.84-.94l-.08,0c-1-.36-2-.67-3-1a43.33,43.33,0,0,1-4.53-1.56c-4.8-2.08-8.16-4.54-10.58-7.76a1.46,1.46,0,0,1,0-1.94l.25-.33a6.39,6.39,0,0,1,3.27-2.72,9.66,9.66,0,0,1,3-.28,88.14,88.14,0,0,1,13.9,1.72l.51.11v0l.78.21,2.43.68c1.87.51,3.8,1,5.68,1.64a10.77,10.77,0,0,1,5.19,3.44,4.47,4.47,0,0,1,1,3.33,1.57,1.57,0,0,1-.59,1,17.3,17.3,0,0,1-9.22,4.38Zm-7.42-2.48c2.88.72,5,1.19,7.33.88a15.56,15.56,0,0,0,8.38-4l0,0a2.82,2.82,0,0,0-.65-2.08,9.09,9.09,0,0,0-4.43-2.94c-1.85-.59-3.77-1.12-5.62-1.63l-2.42-.67-.57-.14-.65-.14a87.33,87.33,0,0,0-13.65-1.69,8.27,8.27,0,0,0-2.46.23,5,5,0,0,0-2.42,2.13l-.25.34,0,0c2.24,3,5.39,5.3,9.93,7.25a40.07,40.07,0,0,0,4.36,1.5C282.66,333.2,283.7,333.52,284.71,333.88Zm15.77-3.2Z" transform="translate(-29.75 -118.3)" fill="#1d1d1b"/><path d="M310.84,289.43c-12.51,3.24-24.87,3-37.33.07.26-.45.5-.87.74-1.27.55-.9,1.13-1.79,1.65-2.71a1.15,1.15,0,0,1,1.06-.64,97,97,0,0,0,13.81-1.8,85.26,85.26,0,0,0,13.49-3.71c.78-.29,1.57-.53,2.48-.84Z" transform="translate(-29.75 -118.3)" fill="#fff"/><path d="M300.56,291.73a80.25,80.25,0,0,1-27.14-1.84l-.53-.13.53-.9c.16-.29.33-.57.49-.84l.56-.9c.37-.59.74-1.19,1.08-1.79a1.54,1.54,0,0,1,1.39-.85,95.57,95.57,0,0,0,13.75-1.79A84,84,0,0,0,304.12,279c.53-.2,1.07-.38,1.64-.57L307,278l4.39,11.67-.43.11A74,74,0,0,1,300.56,291.73Zm-26.44-2.5c12.76,2.88,24.61,2.86,36.19-.08L306.51,279l-.5.16c-.56.19-1.09.36-1.61.56a85.55,85.55,0,0,1-13.55,3.72A95.86,95.86,0,0,1,277,285.28a.78.78,0,0,0-.74.44c-.34.62-.72,1.22-1.09,1.82l-.56.89Z" transform="translate(-29.75 -118.3)" fill="#1d1d1b"/><polygon points="269.24 181.9 271.3 183.93 271.43 185.19 268.64 184.72 264.89 184.88 260.62 186.04 251.36 182.57 254.28 180.11 257.02 179.23 259.15 178.98 259.89 178.97 260.56 178.98 261.86 179.09 262.95 179.25 264.16 179.52 266.44 180.3 269.24 181.9" fill="#941820"/><path d="M301.63,304l-3.26-.55-3.67.16-4.36,1.19-10-3.76,3.57-3,2.73-.89,2.22-.26h1.46l1.32.1,1.12.16,1.24.29,2.32.78,2.95,1.7,2.16,2.13Zm-7.05-1.18,3.88-.16,2.27.38-.07-.59-1.91-1.9L296,299l-2.22-.75-1.17-.26-1.06-.16-1.92-.11h-.72l-2.1.25-2.58.84-2.34,2,8.49,3.19Z" transform="translate(-29.75 -118.3)" fill="#1d1d1b"/><path d="M266.43,323.78a19.56,19.56,0,0,1-2.61-9.73c0-.94.16-1.88.25-2.82a3.75,3.75,0,0,1,1-2.17c4.26-4.75,9.44-7.64,15.94-7.66a13.46,13.46,0,0,1,8.87,3.4,1,1,0,0,1,.14.18,17.18,17.18,0,0,0-5.45,4.93l.15.15.4-.48a16.4,16.4,0,0,1,9.8-6.1,12.58,12.58,0,0,1,13.18,5.59,20.45,20.45,0,0,1,2.72,6.2,1.27,1.27,0,0,1,0,.72c-1.32,3.29-2.52,6.65-4.61,9.56-1.17,1.63-2.53,3.13-3.81,4.69a5.47,5.47,0,0,1-.59.55c-.12-2.76-2-4.08-4-5.26a24.6,24.6,0,0,0-6.68-2.25,110.3,110.3,0,0,0-14.31-2.57c-1.74-.19-3.5-.25-5.24-.36a4.48,4.48,0,0,0-3.88,1.79C267.26,322.64,266.89,323.18,266.43,323.78Z" transform="translate(-29.75 -118.3)" fill="#e30613"/><path d="M301.46,331.65l0-.84c-.11-2.58-1.88-3.81-3.83-4.94a22,22,0,0,0-6-2.05l-.61-.15a113,113,0,0,0-14.27-2.57c-1.23-.13-2.51-.2-3.73-.27l-1.49-.08A4.07,4.07,0,0,0,268,322.4c-.28.33-.54.68-.81,1.05l-.43.57-.37.5-.3-.55a19.93,19.93,0,0,1-2.66-9.93c0-.72.1-1.45.18-2.15l.08-.7a4.08,4.08,0,0,1,1.06-2.4c4.68-5.22,10-7.77,16.24-7.79a13.88,13.88,0,0,1,9.13,3.49,1.09,1.09,0,0,1,.15.18h0a16,16,0,0,1,4.54-1.59,12.93,12.93,0,0,1,13.59,5.76,20.88,20.88,0,0,1,2.78,6.32,1.65,1.65,0,0,1,0,1l-.49,1.23a38.16,38.16,0,0,1-4.17,8.42c-.84,1.17-1.79,2.3-2.7,3.38l-1.12,1.33a2.23,2.23,0,0,1-.41.4l-.22.19ZM270.71,320a5,5,0,0,1,.87,0l1.48.09c1.24.06,2.52.13,3.78.27a114.18,114.18,0,0,1,14.37,2.58l.61.15a22.51,22.51,0,0,1,6.17,2.14c1.87,1.08,3.71,2.35,4.14,4.78.36-.44.73-.88,1.1-1.31.9-1.08,1.84-2.19,2.67-3.34a37.68,37.68,0,0,0,4.07-8.25l.49-1.22a1,1,0,0,0,0-.47,20,20,0,0,0-2.67-6.08A12.17,12.17,0,0,0,295,303.87a15.9,15.9,0,0,0-9.56,6l-.68.82L284,310l.19-.28a17.37,17.37,0,0,1,5.13-4.77A12.89,12.89,0,0,0,281,301.8c-6,0-11.12,2.48-15.65,7.52a3.37,3.37,0,0,0-.86,2l-.08.7a20.62,20.62,0,0,0-.17,2.07,18.93,18.93,0,0,0,2.27,9l.05-.06c.28-.39.55-.75.84-1.09A5,5,0,0,1,270.71,320Z" transform="translate(-29.75 -118.3)" fill="#1d1d1b"/></svg>