<?xml version="1.0" encoding="UTF-8"?>
<svg id="Layer_1" data-name="Layer 1" xmlns="http://www.w3.org/2000/svg" xmlns:xlink="http://www.w3.org/1999/xlink" viewBox="0 0 803.33 425.67"><defs><style>.cls-1,.cls-12,.cls-13,.cls-16,.cls-17,.cls-21,.cls-22,.cls-9{fill:none;}.cls-2{clip-path:url(#clip-path);}.cls-3{fill:#c2c2c2;}.cls-4{fill:#a8823d;}.cls-5{fill:#b2b2b2;}.cls-20,.cls-6{fill:#fff;}.cls-7{fill:#88c6ce;}.cls-8{fill:#f6a543;}.cls-9{stroke:#85682f;}.cls-12,.cls-13,.cls-16,.cls-17,.cls-20,.cls-21,.cls-22,.cls-9{stroke-miterlimit:10;}.cls-16,.cls-17,.cls-9{stroke-width:3px;}.cls-10{fill:#f49535;}.cls-11{fill:#85682f;}.cls-12{stroke:#b9b894;}.cls-12,.cls-13{stroke-width:5px;}.cls-13{stroke:#4e4919;}.cls-14{fill:#d8833e;}.cls-15{fill:#e68c44;}.cls-16{stroke:#fffefc;}.cls-17{stroke:#fff;}.cls-18{fill:#4d4e51;}.cls-19{fill:#636668;}.cls-20{stroke:#babbba;stroke-width:6px;}.cls-21{stroke:#883729;stroke-width:4px;}.cls-22{stroke:#050707;stroke-width:0.5px;}.cls-23{fill:#cc5c3b;}</style><clipPath id="clip-path" transform="translate(194.99 63.67)"><rect class="cls-1" width="480.43" height="362"/></clipPath></defs><g class="cls-2"><rect class="cls-3" width="803.33" height="313.29"/><rect class="cls-4" x="496.35" y="135.98" width="70.16" height="177.71"/><rect class="cls-4" x="300.65" y="135.98" width="70.16" height="177.89"/><rect class="cls-4" x="552.6" y="137.78" width="124.58" height="176.11"/><rect class="cls-4" x="371.6" y="137.24" width="134.55" height="176.11"/><rect class="cls-4" x="194.99" y="137.05" width="110.91" height="176.11"/><rect class="cls-5" x="194.99" y="313.34" width="485.75" height="110.04"/><rect class="cls-6" x="102.46" y="23.07" width="538.37" height="86.49"/><rect class="cls-7" x="109.17" y="27.76" width="69.73" height="34.86"/><rect class="cls-7" x="109.17" y="66.31" width="69.73" height="34.86"/><rect class="cls-7" x="185.53" y="27.76" width="69.73" height="34.86"/><rect class="cls-7" x="185.53" y="66.31" width="69.73" height="34.86"/><rect class="cls-7" x="260.85" y="27.76" width="69.73" height="34.86"/><rect class="cls-7" x="260.85" y="66.31" width="69.73" height="34.86"/><rect class="cls-7" x="338.11" y="27.76" width="69.73" height="34.86"/><rect class="cls-7" x="413.72" y="27.76" width="69.73" height="34.86"/><rect class="cls-7" x="336.79" y="66.31" width="69.73" height="34.86"/><rect class="cls-7" x="413.72" y="66.31" width="69.73" height="34.86"/><rect class="cls-7" x="489.32" y="27.76" width="69.73" height="34.86"/><rect class="cls-7" x="566.03" y="27.76" width="69.73" height="34.86"/><rect class="cls-7" x="489.32" y="66.31" width="69.73" height="34.86"/><rect class="cls-7" x="566.03" y="66.31" width="69.73" height="34.86"/><rect class="cls-8" x="376.4" y="126.12" width="20.29" height="21.78" rx="8.53"/><rect class="cls-9" x="373.18" y="147.91" width="130.24" height="28.2"/><rect class="cls-9" x="373.18" y="176.89" width="130.24" height="23.03"/><rect class="cls-9" x="373.18" y="200.7" width="130.24" height="25.62"/><rect class="cls-9" x="373.18" y="226.32" width="130.24" height="26.55"/><rect class="cls-10" x="375.67" y="144.56" width="21.75" height="5.87" rx="2.84"/><rect class="cls-11" x="507.55" y="176.89" width="26.45" height="2.95"/><rect class="cls-11" x="509.6" y="189.35" width="26.45" height="2.95"/><rect class="cls-11" x="511.99" y="201.81" width="26.45" height="2.95"/><rect class="cls-11" x="514.07" y="213.51" width="26.45" height="2.95"/><rect class="cls-11" x="515.85" y="224.85" width="26.45" height="2.95"/><rect class="cls-11" x="517.77" y="237.68" width="26.45" height="2.95"/><rect class="cls-11" x="520.02" y="249.92" width="26.45" height="2.95"/><rect class="cls-11" x="522.55" y="262.53" width="26.45" height="2.95"/><rect class="cls-11" x="524.34" y="275" width="26.45" height="2.95"/><rect class="cls-11" x="526.57" y="287.48" width="26.45" height="2.95"/><rect class="cls-11" x="528.93" y="299.95" width="26.45" height="2.95"/><polygon class="cls-12" points="556.28 311.67 531.7 311.67 505.71 166.63 531.76 166.63 556.28 311.67"/><rect class="cls-13" x="339.02" y="280.49" width="185.16" height="31.18"/><polyline class="cls-12" points="349.45 320.94 349.45 270.25 375.37 270.25 375.37 320.94"/><polyline class="cls-12" points="376.24 320.94 376.24 270.25 402.17 270.25 402.17 320.94"/><polyline class="cls-12" points="403.37 320.94 403.37 270.25 429.29 270.25 429.29 320.94"/><polyline class="cls-12" points="430.52 320.94 430.52 270.25 456.44 270.25 456.44 320.94"/><polyline class="cls-12" points="457.64 320.94 457.64 270.25 483.56 270.25 483.56 320.94"/><polyline class="cls-12" points="483.56 320.94 483.56 270.25 509.48 270.25 509.48 320.94"/><rect class="cls-8" x="402.34" y="125.77" width="20.29" height="21.78" rx="8.53"/><rect class="cls-10" x="401.61" y="144.21" width="21.75" height="5.87" rx="2.84"/><rect class="cls-8" x="426.77" y="125.77" width="20.29" height="21.78" rx="8.53"/><rect class="cls-10" x="426.04" y="144.21" width="21.75" height="5.87" rx="2.84"/><rect class="cls-8" x="452.18" y="126.12" width="20.29" height="21.78" rx="8.53"/><rect class="cls-10" x="451.45" y="144.56" width="21.75" height="5.87" rx="2.84"/><rect class="cls-8" x="478.87" y="125.77" width="20.29" height="21.78" rx="8.53"/><rect class="cls-10" x="478.14" y="144.21" width="21.75" height="5.87" rx="2.84"/><rect class="cls-8" x="376.92" y="154.66" width="20.29" height="21.78" rx="8.53"/><rect class="cls-10" x="376.19" y="173.1" width="21.75" height="5.87" rx="2.84"/><rect class="cls-8" x="402.87" y="154.31" width="20.29" height="21.78" rx="8.53"/><rect class="cls-10" x="402.13" y="172.75" width="21.75" height="5.87" rx="2.84"/><rect class="cls-8" x="427.29" y="154.31" width="20.29" height="21.78" rx="8.53"/><rect class="cls-10" x="426.56" y="172.75" width="21.75" height="5.87" rx="2.84"/><rect class="cls-8" x="452.71" y="154.65" width="20.29" height="21.78" rx="8.53"/><rect class="cls-10" x="451.97" y="173.09" width="21.75" height="5.87" rx="2.84"/><rect class="cls-8" x="479.39" y="154.3" width="20.29" height="21.78" rx="8.53"/><rect class="cls-10" x="478.66" y="172.74" width="21.75" height="5.87" rx="2.84"/><rect class="cls-8" x="376.92" y="181.03" width="20.29" height="21.78" rx="8.53"/><rect class="cls-10" x="376.19" y="199.47" width="21.75" height="5.87" rx="2.84"/><rect class="cls-8" x="402.87" y="180.68" width="20.29" height="21.78" rx="8.53"/><rect class="cls-10" x="402.13" y="199.12" width="21.75" height="5.87" rx="2.84"/><rect class="cls-8" x="427.29" y="180.68" width="20.29" height="21.78" rx="8.53"/><rect class="cls-10" x="426.56" y="199.12" width="21.75" height="5.87" rx="2.84"/><rect class="cls-8" x="452.71" y="181.03" width="20.29" height="21.78" rx="8.53"/><rect class="cls-10" x="451.97" y="199.46" width="21.75" height="5.87" rx="2.84"/><rect class="cls-8" x="479.39" y="180.67" width="20.29" height="21.78" rx="8.53"/><rect class="cls-10" x="478.66" y="199.11" width="21.75" height="5.87" rx="2.84"/><rect class="cls-8" x="376.92" y="208.26" width="20.29" height="21.78" rx="8.53"/><rect class="cls-10" x="376.19" y="226.7" width="21.75" height="5.87" rx="2.84"/><rect class="cls-8" x="402.87" y="207.9" width="20.29" height="21.78" rx="8.53"/><rect class="cls-10" x="402.13" y="226.34" width="21.75" height="5.87" rx="2.84"/><rect class="cls-8" x="427.29" y="207.9" width="20.29" height="21.78" rx="8.53"/><rect class="cls-10" x="426.56" y="226.34" width="21.75" height="5.87" rx="2.84"/><rect class="cls-8" x="452.71" y="208.25" width="20.29" height="21.78" rx="8.53"/><rect class="cls-10" x="451.97" y="226.69" width="21.75" height="5.87" rx="2.84"/><rect class="cls-8" x="479.39" y="207.9" width="20.29" height="21.78" rx="8.53"/><rect class="cls-10" x="478.66" y="226.34" width="21.75" height="5.87" rx="2.84"/><rect class="cls-8" x="376.92" y="233.32" width="20.29" height="21.78" rx="8.53"/><rect class="cls-10" x="376.19" y="251.76" width="21.75" height="5.87" rx="2.84"/><rect class="cls-8" x="402.87" y="232.96" width="20.29" height="21.78" rx="8.53"/><rect class="cls-10" x="402.13" y="251.4" width="21.75" height="5.87" rx="2.84"/><rect class="cls-8" x="427.29" y="232.96" width="20.29" height="21.78" rx="8.53"/><rect class="cls-10" x="426.56" y="251.4" width="21.75" height="5.87" rx="2.84"/><rect class="cls-8" x="452.71" y="233.31" width="20.29" height="21.78" rx="8.53"/><rect class="cls-10" x="451.97" y="251.75" width="21.75" height="5.87" rx="2.84"/><rect class="cls-8" x="479.39" y="232.96" width="20.29" height="21.78" rx="8.53"/><rect class="cls-10" x="478.66" y="251.4" width="21.75" height="5.87" rx="2.84"/><rect class="cls-11" x="132.59" y="114.69" width="26.45" height="2.95" transform="translate(486.62 296.01) rotate(180)"/><rect class="cls-11" x="130.54" y="127.15" width="26.45" height="2.95" transform="translate(482.51 320.93) rotate(180)"/><rect class="cls-11" x="128.16" y="139.62" width="26.45" height="2.95" transform="translate(477.74 345.86) rotate(180)"/><rect class="cls-11" x="126.07" y="151.31" width="26.45" height="2.95" transform="translate(473.58 369.25) rotate(180)"/><rect class="cls-11" x="124.29" y="162.65" width="26.45" height="2.95" transform="translate(470.01 391.92) rotate(180)"/><rect class="cls-11" x="122.37" y="175.48" width="26.45" height="2.95" transform="translate(466.17 417.58) rotate(180)"/><rect class="cls-11" x="120.12" y="187.72" width="26.45" height="2.95" transform="translate(461.67 442.06) rotate(180)"/><rect class="cls-11" x="117.59" y="200.33" width="26.45" height="2.95" transform="translate(456.61 467.28) rotate(180)"/><rect class="cls-11" x="115.81" y="212.8" width="26.45" height="2.95" transform="translate(453.04 492.23) rotate(180)"/><rect class="cls-11" x="113.57" y="225.28" width="26.45" height="2.95" transform="translate(448.58 517.18) rotate(180)"/><rect class="cls-11" x="111.21" y="237.75" width="26.45" height="2.95" transform="translate(443.86 542.13) rotate(180)"/><polygon class="cls-12" points="305.29 313.14 329.87 313.14 355.86 168.11 329.81 168.11 305.29 313.14"/><rect class="cls-8" x="178.87" y="125.48" width="20.29" height="21.78" rx="8.53"/><rect class="cls-9" x="175.66" y="147.26" width="130.24" height="28.2"/><rect class="cls-9" x="175.66" y="176.25" width="130.24" height="23.03"/><rect class="cls-9" x="175.66" y="200.06" width="130.24" height="25.62"/><rect class="cls-9" x="175.66" y="225.68" width="130.24" height="26.55"/><rect class="cls-10" x="178.14" y="143.92" width="21.75" height="5.87" rx="2.84"/><rect class="cls-8" x="204.82" y="125.13" width="20.29" height="21.78" rx="8.53"/><rect class="cls-10" x="204.09" y="143.57" width="21.75" height="5.87" rx="2.84"/><rect class="cls-8" x="229.25" y="125.13" width="20.29" height="21.78" rx="8.53"/><rect class="cls-10" x="228.51" y="143.57" width="21.75" height="5.87" rx="2.84"/><rect class="cls-8" x="254.66" y="125.47" width="20.29" height="21.78" rx="8.53"/><rect class="cls-10" x="253.93" y="143.91" width="21.75" height="5.87" rx="2.84"/><rect class="cls-8" x="281.34" y="125.12" width="20.29" height="21.78" rx="8.53"/><rect class="cls-10" x="280.61" y="143.56" width="21.75" height="5.87" rx="2.84"/><rect class="cls-8" x="179.4" y="154.01" width="20.29" height="21.78" rx="8.53"/><rect class="cls-10" x="178.66" y="172.45" width="21.75" height="5.87" rx="2.84"/><rect class="cls-8" x="205.34" y="153.66" width="20.29" height="21.78" rx="8.53"/><rect class="cls-10" x="204.61" y="172.1" width="21.75" height="5.87" rx="2.84"/><rect class="cls-8" x="229.77" y="153.66" width="20.29" height="21.78" rx="8.53"/><rect class="cls-10" x="229.03" y="172.1" width="21.75" height="5.87" rx="2.84"/><rect class="cls-8" x="255.18" y="154.01" width="20.29" height="21.78" rx="8.53"/><rect class="cls-10" x="254.45" y="172.45" width="21.75" height="5.87" rx="2.84"/><rect class="cls-8" x="281.87" y="153.66" width="20.29" height="21.78" rx="8.53"/><rect class="cls-10" x="281.13" y="172.1" width="21.75" height="5.87" rx="2.84"/><rect class="cls-8" x="179.4" y="180.39" width="20.29" height="21.78" rx="8.53"/><rect class="cls-10" x="178.66" y="198.82" width="21.75" height="5.87" rx="2.84"/><rect class="cls-8" x="205.34" y="180.03" width="20.29" height="21.78" rx="8.53"/><rect class="cls-10" x="204.61" y="198.47" width="21.75" height="5.87" rx="2.84"/><rect class="cls-8" x="229.77" y="180.03" width="20.29" height="21.78" rx="8.53"/><rect class="cls-10" x="229.03" y="198.47" width="21.75" height="5.87" rx="2.84"/><rect class="cls-8" x="255.18" y="180.38" width="20.29" height="21.78" rx="8.53"/><rect class="cls-10" x="254.45" y="198.82" width="21.75" height="5.87" rx="2.84"/><rect class="cls-8" x="281.87" y="180.03" width="20.29" height="21.78" rx="8.53"/><rect class="cls-10" x="281.13" y="198.47" width="21.75" height="5.87" rx="2.84"/><rect class="cls-8" x="179.4" y="207.61" width="20.29" height="21.78" rx="8.53"/><rect class="cls-10" x="178.66" y="226.05" width="21.75" height="5.87" rx="2.84"/><rect class="cls-8" x="205.34" y="207.26" width="20.29" height="21.78" rx="8.53"/><rect class="cls-10" x="204.61" y="225.7" width="21.75" height="5.87" rx="2.84"/><rect class="cls-8" x="229.77" y="207.26" width="20.29" height="21.78" rx="8.53"/><rect class="cls-10" x="229.03" y="225.7" width="21.75" height="5.87" rx="2.84"/><rect class="cls-8" x="255.18" y="207.61" width="20.29" height="21.78" rx="8.53"/><rect class="cls-10" x="254.45" y="226.05" width="21.75" height="5.87" rx="2.84"/><rect class="cls-8" x="281.87" y="207.25" width="20.29" height="21.78" rx="8.53"/><rect class="cls-10" x="281.13" y="225.69" width="21.75" height="5.87" rx="2.84"/><rect class="cls-8" x="179.4" y="232.67" width="20.29" height="21.78" rx="8.53"/><rect class="cls-10" x="178.66" y="251.11" width="21.75" height="5.87" rx="2.84"/><rect class="cls-8" x="205.34" y="232.32" width="20.29" height="21.78" rx="8.53"/><rect class="cls-10" x="204.61" y="250.76" width="21.75" height="5.87" rx="2.84"/><rect class="cls-8" x="229.77" y="232.32" width="20.29" height="21.78" rx="8.53"/><rect class="cls-10" x="229.03" y="250.76" width="21.75" height="5.87" rx="2.84"/><rect class="cls-8" x="255.18" y="232.67" width="20.29" height="21.78" rx="8.53"/><rect class="cls-10" x="254.45" y="251.11" width="21.75" height="5.87" rx="2.84"/><rect class="cls-8" x="281.87" y="232.31" width="20.29" height="21.78" rx="8.53"/><rect class="cls-10" x="281.13" y="250.75" width="21.75" height="5.87" rx="2.84"/><rect class="cls-13" x="-72.64" y="216.82" width="179.28" height="31.18" transform="translate(229 528.49) rotate(180)"/><polyline class="cls-12" points="290.67 320.94 290.67 270.25 264.75 270.25 264.75 320.94"/><polyline class="cls-12" points="263.88 320.94 263.88 270.25 237.96 270.25 237.96 320.94"/><polyline class="cls-12" points="236.75 320.94 236.75 270.25 210.83 270.25 210.83 320.94"/><polyline class="cls-12" points="209.6 320.94 209.6 270.25 183.68 270.25 183.68 320.94"/><polyline class="cls-12" points="182.48 320.94 182.48 270.25 156.56 270.25 156.56 320.94"/><rect class="cls-8" x="559.66" y="129.71" width="20.29" height="21.78" rx="8.53"/><rect class="cls-9" x="556.44" y="151.49" width="130.24" height="28.2"/><rect class="cls-9" x="556.44" y="180.47" width="130.24" height="23.03"/><rect class="cls-9" x="556.44" y="204.29" width="130.24" height="25.62"/><rect class="cls-9" x="556.44" y="229.91" width="130.24" height="26.55"/><rect class="cls-10" x="558.92" y="148.15" width="21.75" height="5.87" rx="2.84"/><rect class="cls-8" x="585.6" y="129.36" width="20.29" height="21.78" rx="8.53"/><rect class="cls-10" x="584.87" y="147.79" width="21.75" height="5.87" rx="2.84"/><rect class="cls-8" x="610.03" y="129.36" width="20.29" height="21.78" rx="8.53"/><rect class="cls-10" x="609.29" y="147.79" width="21.75" height="5.87" rx="2.84"/><rect class="cls-8" x="635.44" y="129.7" width="20.29" height="21.78" rx="8.53"/><rect class="cls-10" x="634.71" y="148.14" width="21.75" height="5.87" rx="2.84"/><rect class="cls-8" x="662.13" y="129.35" width="20.29" height="21.78" rx="8.53"/><rect class="cls-10" x="661.39" y="147.79" width="21.75" height="5.87" rx="2.84"/><rect class="cls-8" x="560.18" y="158.24" width="20.29" height="21.78" rx="8.53"/><rect class="cls-10" x="559.45" y="176.68" width="21.75" height="5.87" rx="2.84"/><rect class="cls-8" x="586.12" y="157.89" width="20.29" height="21.78" rx="8.53"/><rect class="cls-10" x="585.39" y="176.33" width="21.75" height="5.87" rx="2.84"/><rect class="cls-8" x="610.55" y="157.89" width="20.29" height="21.78" rx="8.53"/><rect class="cls-10" x="609.82" y="176.33" width="21.75" height="5.87" rx="2.84"/><rect class="cls-8" x="635.96" y="158.24" width="20.29" height="21.78" rx="8.53"/><rect class="cls-10" x="635.23" y="176.68" width="21.75" height="5.87" rx="2.84"/><rect class="cls-8" x="662.65" y="157.89" width="20.29" height="21.78" rx="8.53"/><rect class="cls-10" x="661.92" y="176.33" width="21.75" height="5.87" rx="2.84"/><rect class="cls-8" x="560.18" y="184.61" width="20.29" height="21.78" rx="8.53"/><rect class="cls-10" x="559.45" y="203.05" width="21.75" height="5.87" rx="2.84"/><rect class="cls-8" x="586.12" y="184.26" width="20.29" height="21.78" rx="8.53"/><rect class="cls-10" x="585.39" y="202.7" width="21.75" height="5.87" rx="2.84"/><rect class="cls-8" x="610.55" y="184.26" width="20.29" height="21.78" rx="8.53"/><rect class="cls-10" x="609.82" y="202.7" width="21.75" height="5.87" rx="2.84"/><rect class="cls-8" x="635.96" y="184.61" width="20.29" height="21.78" rx="8.53"/><rect class="cls-10" x="635.23" y="203.05" width="21.75" height="5.87" rx="2.84"/><rect class="cls-8" x="662.65" y="184.26" width="20.29" height="21.78" rx="8.53"/><rect class="cls-10" x="661.92" y="202.7" width="21.75" height="5.87" rx="2.84"/><rect class="cls-8" x="560.18" y="211.84" width="20.29" height="21.78" rx="8.53"/><rect class="cls-10" x="559.45" y="230.28" width="21.75" height="5.87" rx="2.84"/><rect class="cls-8" x="586.12" y="211.49" width="20.29" height="21.78" rx="8.53"/><rect class="cls-10" x="585.39" y="229.93" width="21.75" height="5.87" rx="2.84"/><rect class="cls-8" x="610.55" y="211.49" width="20.29" height="21.78" rx="8.53"/><rect class="cls-10" x="609.82" y="229.93" width="21.75" height="5.87" rx="2.84"/><rect class="cls-8" x="635.96" y="211.84" width="20.29" height="21.78" rx="8.53"/><rect class="cls-10" x="635.23" y="230.27" width="21.75" height="5.87" rx="2.84"/><rect class="cls-8" x="662.65" y="211.48" width="20.29" height="21.78" rx="8.53"/><rect class="cls-10" x="661.92" y="229.92" width="21.75" height="5.87" rx="2.84"/><rect class="cls-8" x="560.18" y="236.9" width="20.29" height="21.78" rx="8.53"/><rect class="cls-10" x="559.45" y="255.34" width="21.75" height="5.87" rx="2.84"/><rect class="cls-8" x="586.12" y="236.55" width="20.29" height="21.78" rx="8.53"/><rect class="cls-10" x="585.39" y="254.99" width="21.75" height="5.87" rx="2.84"/><rect class="cls-8" x="610.55" y="236.55" width="20.29" height="21.78" rx="8.53"/><rect class="cls-10" x="609.82" y="254.99" width="21.75" height="5.87" rx="2.84"/><rect class="cls-8" x="635.96" y="236.9" width="20.29" height="21.78" rx="8.53"/><rect class="cls-10" x="635.23" y="255.34" width="21.75" height="5.87" rx="2.84"/><rect class="cls-8" x="662.65" y="236.54" width="20.29" height="21.78" rx="8.53"/><rect class="cls-10" x="661.92" y="254.98" width="21.75" height="5.87" rx="2.84"/><rect class="cls-13" x="558.92" y="280.07" width="177.82" height="31.18"/><polyline class="cls-12" points="568.43 320.52 568.43 269.83 594.35 269.83 594.35 320.52"/><polyline class="cls-12" points="595.22 320.52 595.22 269.83 621.14 269.83 621.14 320.52"/><polyline class="cls-12" points="622.35 320.52 622.35 269.83 648.27 269.83 648.27 320.52"/><polyline class="cls-12" points="649.5 320.52 649.5 269.83 675.42 269.83 675.42 320.52"/><polyline class="cls-12" points="676.61 320.52 676.61 269.83 702.53 269.83 702.53 320.52"/><polyline class="cls-12" points="509.87 321 509.87 270.32 535.79 270.32 535.79 321"/><polyline class="cls-12" points="539.15 320.52 539.15 270.88 565.07 270.88 565.07 320.52"/><polyline class="cls-12" points="318.25 321 318.25 270.32 292.33 270.32 292.33 321"/><polyline class="cls-12" points="346.81 321 346.81 270.32 320.89 270.32 320.89 321"/><polygon class="cls-14" points="194.5 404.25 289.63 313.13 591.86 313.56 677.18 396.97 677.18 425.67 194.5 425.67 194.5 404.25"/><polygon class="cls-15" points="194.99 416.67 298.17 318.16 582.64 318.74 677.08 409.97 677.08 423.38 194.99 423.38 194.99 416.67"/><polygon class="cls-16" points="303.57 323.14 217.71 410.43 662.35 410.78 576.18 323.59 303.57 323.14"/><rect class="cls-6" x="438.46" y="323.36" width="1.56" height="87.24"/><ellipse class="cls-17" cx="440.03" cy="364" rx="33.09" ry="16.54"/><path class="cls-17" d="M154,283.78c12.23,0,17.29,4.37,17.29,9.75s-15.52,9.76-27.76,9.76" transform="translate(194.99 63.67)"/><rect class="cls-6" x="148.62" y="281.8" width="1.12" height="23.52" transform="translate(361.75 28.41) rotate(30)"/><rect class="cls-6" x="148.86" y="283.45" width="2.49" height="0.33" transform="translate(177.53 73.62) rotate(-3.59)"/><rect class="cls-6" x="144.82" y="284" width="2.49" height="0.33" transform="translate(151.07 90.95) rotate(-9.28)"/><rect class="cls-6" x="140.51" y="284.97" width="2.49" height="0.33" transform="translate(122 113.69) rotate(-15.97)"/><rect class="cls-6" x="136.24" y="286.36" width="2.49" height="0.33" transform="translate(121.45 112.57) rotate(-15.97)"/><rect class="cls-6" x="131.98" y="288.25" width="2.49" height="0.33" transform="translate(84.96 147.73) rotate(-25.17)"/><rect class="cls-6" x="128.4" y="290.77" width="2.49" height="0.33" transform="translate(31.41 230.21) rotate(-42.99)"/><rect class="cls-6" x="125.8" y="294.07" width="2.49" height="0.33" transform="translate(2.09 339.03) rotate(-63.27)"/><rect class="cls-6" x="126.05" y="298.29" width="2.49" height="0.33" transform="translate(469.62 73.05) rotate(50.11)"/><rect class="cls-6" x="129.32" y="301.19" width="2.49" height="0.33" transform="translate(363.16 38.76) rotate(30)"/><rect class="cls-6" x="133.42" y="302.76" width="2.49" height="0.33" transform="translate(330.41 35.09) rotate(24.1)"/><path class="cls-17" d="M103.51,264.62c58.36,0,83.06,4.52,83.06,23.79S119.16,349.68,31.63,337.7" transform="translate(194.99 63.67)"/><line class="cls-17" x1="338.47" y1="366.96" x2="260.82" y2="366.6"/><line class="cls-17" x1="348.93" y1="347.46" x2="279.13" y2="347.28"/><polygon class="cls-18" points="224.68 381.69 282.12 340.14 282.12 341.71 242.41 381.69 224.68 381.69"/><polygon class="cls-19" points="224.68 380.47 265.05 340.14 282.12 340.49 242.41 380.47 224.68 380.47"/><polygon class="cls-19" points="258.71 346.47 253.4 351.77 253.04 263.96 265.67 246.99 265.67 249.16 254.54 264.37 258.71 346.47"/><polygon class="cls-18" points="253.4 351.77 249.47 355.7 250.6 263.69 265.67 241.83 265.67 246.99 253.04 263.96 253.4 351.77"/><polygon class="cls-20" points="307.93 280.69 265.67 310.2 265.67 179.63 307.93 208.71 307.93 280.69"/><path class="cls-21" d="M103.49,207.67l-18,12.78a3.81,3.81,0,0,1-6-3.18V143.86a2.76,2.76,0,0,1,4.33-2.31l19.91,13.92a7.56,7.56,0,0,1,3.22,6.21v39.26A8.23,8.23,0,0,1,103.49,207.67Z" transform="translate(194.99 63.67)"/><rect class="cls-22" x="99.21" y="185.58" width="4.3" height="4.3" transform="translate(366.3 49.85) rotate(47.51)"/><rect class="cls-22" x="96.18" y="188.36" width="4.3" height="4.3" transform="translate(367.36 52.99) rotate(47.51)"/><rect class="cls-22" x="105.18" y="185.58" width="4.3" height="4.3" transform="translate(368.23 45.45) rotate(47.51)"/><rect class="cls-22" x="111.3" y="185.58" width="4.3" height="4.3" transform="translate(370.22 40.94) rotate(47.51)"/><rect class="cls-22" x="102.12" y="188.75" width="4.3" height="4.3" transform="translate(369.58 48.74) rotate(47.51)"/><rect class="cls-22" x="99.21" y="191.68" width="4.3" height="4.3" transform="translate(370.8 51.83) rotate(47.51)"/><rect class="cls-22" x="101.76" y="195.09" width="4.3" height="4.3" transform="translate(374.14 51.06) rotate(47.51)"/><rect class="cls-22" x="105.18" y="191.96" width="4.3" height="4.3" transform="translate(372.94 47.52) rotate(47.51)"/><rect class="cls-22" x="117.57" y="185.58" width="4.3" height="4.3" transform="translate(372.25 36.31) rotate(47.51)"/><rect class="cls-22" x="123.69" y="185.58" width="4.3" height="4.3" transform="translate(374.24 31.8) rotate(47.51)"/><rect class="cls-22" x="126.6" y="188.75" width="4.3" height="4.3" transform="translate(377.52 30.69) rotate(47.51)"/><rect class="cls-22" x="120.43" y="188.71" width="4.3" height="4.3" transform="translate(375.49 35.22) rotate(47.51)"/><rect class="cls-22" x="123.69" y="191.92" width="4.3" height="4.3" transform="translate(378.91 33.86) rotate(47.51)"/><rect class="cls-22" x="108.36" y="189.05" width="4.3" height="4.3" transform="translate(371.82 44.23) rotate(47.51)"/><rect class="cls-22" x="114.47" y="189.05" width="4.3" height="4.3" transform="translate(373.81 39.72) rotate(47.51)"/><rect class="cls-22" x="117.14" y="191.96" width="4.3" height="4.3" transform="translate(376.82 38.7) rotate(47.51)"/><rect class="cls-22" x="120.23" y="195.09" width="4.3" height="4.3" transform="translate(380.13 37.44) rotate(47.51)"/><rect class="cls-22" x="117.14" y="198.63" width="4.3" height="4.3" transform="translate(381.74 40.87) rotate(47.51)"/><rect class="cls-22" x="111.3" y="192.25" width="4.3" height="4.3" transform="translate(375.14 43.11) rotate(47.51)"/><rect class="cls-22" x="114.2" y="195.42" width="4.3" height="4.3" transform="translate(378.42 41.99) rotate(47.51)"/><rect class="cls-22" x="107.98" y="195.29" width="4.3" height="4.3" transform="translate(376.3 46.54) rotate(47.51)"/><rect class="cls-22" x="110.96" y="198.4" width="4.3" height="4.3" transform="translate(379.56 45.35) rotate(47.51)"/><rect class="cls-22" x="104.79" y="198.4" width="4.3" height="4.3" transform="translate(377.55 49.9) rotate(47.51)"/><rect class="cls-22" x="107.6" y="201.47" width="4.3" height="4.3" transform="translate(380.73 48.82) rotate(47.51)"/><rect class="cls-22" x="113.83" y="201.67" width="4.3" height="4.3" transform="translate(382.9 44.3) rotate(47.51)"/><rect class="cls-22" x="99.93" y="199.46" width="4.3" height="4.3" transform="translate(376.76 53.83) rotate(47.51)"/><rect class="cls-22" x="103.07" y="202.88" width="4.3" height="4.3" transform="translate(380.31 52.62) rotate(47.51)"/><rect class="cls-22" x="105.69" y="206.21" width="4.3" height="4.3" transform="translate(383.61 51.76) rotate(47.51)"/><rect class="cls-22" x="110.38" y="204.83" width="4.3" height="4.3" transform="translate(384.11 47.87) rotate(47.51)"/><rect class="cls-22" x="123.25" y="198.63" width="4.3" height="4.3" transform="translate(383.72 36.36) rotate(47.51)"/><rect class="cls-22" x="120.23" y="202" width="4.3" height="4.3" transform="translate(385.22 39.68) rotate(47.51)"/><rect class="cls-22" x="116.85" y="204.83" width="4.3" height="4.3" transform="translate(386.22 43.09) rotate(47.51)"/><rect class="cls-22" x="94.2" y="184.75" width="4.05" height="4.05" transform="translate(363.93 53.33) rotate(47.51)"/><polyline class="cls-22" points="327.53 255.01 323.76 250.9 328.43 246.62 329.65 248.57"/><polyline class="cls-22" points="324.16 265.44 320.39 261.32 323.76 258.23 326.28 260.92"/><polyline class="cls-22" points="323.05 271.36 320.39 267.91 323.76 264.82 324.85 265.94"/><line class="cls-22" x1="294.49" y1="258.66" x2="291.5" y2="261.09"/><line class="cls-22" x1="295.18" y1="272.03" x2="287.64" y2="247.28"/><line class="cls-22" x1="323.36" y1="271.96" x2="330.14" y2="246.21"/><path class="cls-23" d="M135.05,177.52c3.65,1.89,3.63,6.6-1.26,6.6l-33.64.84c-4.88,0-12.66,0-7.48-6.76" transform="translate(194.99 63.67)"/><path class="cls-17" d="M335.48,283.78c-12.23,0-17.3,4.37-17.3,9.75s15.53,9.76,27.76,9.76" transform="translate(194.99 63.67)"/><rect class="cls-6" x="339.68" y="281.8" width="1.12" height="23.52" transform="matrix(-0.87, 0.5, -0.5, -0.87, 976.67, 441.35)"/><rect class="cls-6" x="338.08" y="283.45" width="2.49" height="0.33" transform="matrix(-1, -0.06, 0.06, -1, 855.21, 651.58)"/><rect class="cls-6" x="342.12" y="284" width="2.49" height="0.33" transform="translate(831.39 683.67) rotate(-170.72)"/><rect class="cls-6" x="346.43" y="284.97" width="2.49" height="0.33" transform="translate(798.45 718.61) rotate(-164.03)"/><rect class="cls-6" x="350.7" y="286.36" width="2.49" height="0.33" transform="translate(806.44 722.51) rotate(-164.03)"/><rect class="cls-6" x="354.95" y="288.25" width="2.49" height="0.33" transform="translate(750.88 764.62) rotate(-154.83)"/><rect class="cls-6" x="358.54" y="290.77" width="2.49" height="0.33" transform="translate(619.55 812.75) rotate(-137.01)"/><rect class="cls-6" x="361.14" y="294.07" width="2.49" height="0.33" transform="translate(457.58 813.92) rotate(-116.73)"/><rect class="cls-6" x="360.89" y="298.29" width="2.49" height="0.33" transform="translate(1018.37 275.7) rotate(129.89)"/><rect class="cls-6" x="357.61" y="301.19" width="2.49" height="0.33" transform="translate(1015.3 446.58) rotate(150)"/><rect class="cls-6" x="353.52" y="302.76" width="2.49" height="0.33" transform="translate(997.28 498.28) rotate(155.9)"/><path class="cls-17" d="M385.91,264.62c-58.36,0-83.06,4.52-83.06,23.79s67.42,61.27,155,49.29" transform="translate(194.99 63.67)"/><line class="cls-17" x1="540.93" y1="366.96" x2="618.58" y2="366.6"/><line class="cls-17" x1="530.46" y1="347.46" x2="600.27" y2="347.28"/><polygon class="cls-18" points="654.71 381.69 597.27 340.14 597.27 341.71 636.99 381.69 654.71 381.69"/><polygon class="cls-19" points="654.71 380.47 614.35 340.14 597.27 340.49 636.99 380.47 654.71 380.47"/><polygon class="cls-19" points="620.69 346.47 625.99 351.77 626.35 263.96 613.72 246.99 613.72 249.16 624.86 264.37 620.69 346.47"/><polygon class="cls-18" points="625.99 351.77 629.92 355.7 628.79 263.69 613.72 241.83 613.72 246.99 626.35 263.96 625.99 351.77"/><polygon class="cls-20" points="571.46 280.69 613.72 310.2 613.72 179.63 571.46 208.71 571.46 280.69"/><path class="cls-21" d="M385.94,207.67l18,12.78a3.81,3.81,0,0,0,6-3.18V143.86a2.76,2.76,0,0,0-4.33-2.31l-19.92,13.92a7.58,7.58,0,0,0-3.21,6.21v39.26A8.23,8.23,0,0,0,385.94,207.67Z" transform="translate(194.99 63.67)"/><rect class="cls-22" x="385.91" y="185.58" width="4.3" height="4.3" transform="translate(983.61 92.08) rotate(132.49)"/><rect class="cls-22" x="388.95" y="188.36" width="4.3" height="4.3" transform="translate(990.76 94.51) rotate(132.49)"/><rect class="cls-22" x="379.94" y="185.58" width="4.3" height="4.3" transform="translate(973.61 96.48) rotate(132.49)"/><rect class="cls-22" x="373.83" y="185.58" width="4.3" height="4.3" transform="translate(963.37 100.99) rotate(132.49)"/><rect class="cls-22" x="383.01" y="188.75" width="4.3" height="4.3" transform="translate(981.08 99.53) rotate(132.49)"/><rect class="cls-22" x="385.91" y="191.68" width="4.3" height="4.3" transform="translate(988.11 102.31) rotate(132.49)"/><rect class="cls-22" x="383.37" y="195.09" width="4.3" height="4.3" transform="translate(986.36 109.9) rotate(132.49)"/><rect class="cls-22" x="379.94" y="191.96" width="4.3" height="4.3" transform="translate(978.31 107.17) rotate(132.49)"/><rect class="cls-22" x="367.55" y="185.58" width="4.3" height="4.3" transform="translate(952.85 105.62) rotate(132.49)"/><rect class="cls-22" x="361.43" y="185.58" width="4.3" height="4.3" transform="translate(942.6 110.13) rotate(132.49)"/><rect class="cls-22" x="358.53" y="188.75" width="4.3" height="4.3" transform="translate(940.07 117.58) rotate(132.49)"/><rect class="cls-22" x="364.69" y="188.71" width="4.3" height="4.3" transform="translate(950.36 112.97) rotate(132.49)"/><rect class="cls-22" x="361.43" y="191.92" width="4.3" height="4.3" transform="translate(947.27 120.75) rotate(132.49)"/><rect class="cls-22" x="376.77" y="189.05" width="4.3" height="4.3" transform="translate(970.84 104.64) rotate(132.49)"/><rect class="cls-22" x="370.65" y="189.05" width="4.3" height="4.3" transform="translate(960.6 109.15) rotate(132.49)"/><rect class="cls-22" x="367.99" y="191.96" width="4.3" height="4.3" transform="translate(958.28 115.99) rotate(132.49)"/><rect class="cls-22" x="364.9" y="195.09" width="4.3" height="4.3" transform="translate(955.42 123.52) rotate(132.49)"/><rect class="cls-22" x="367.99" y="198.63" width="4.3" height="4.3" transform="translate(963.2 127.17) rotate(132.49)"/><rect class="cls-22" x="373.83" y="192.25" width="4.3" height="4.3" transform="translate(968.29 112.17) rotate(132.49)"/><rect class="cls-22" x="370.93" y="195.42" width="4.3" height="4.3" transform="translate(965.76 119.62) rotate(132.49)"/><rect class="cls-22" x="377.15" y="195.29" width="4.3" height="4.3" transform="translate(976.08 114.82) rotate(132.49)"/><rect class="cls-22" x="374.17" y="198.4" width="4.3" height="4.3" transform="translate(973.39 122.21) rotate(132.49)"/><rect class="cls-22" x="380.34" y="198.4" width="4.3" height="4.3" transform="translate(983.73 117.66) rotate(132.49)"/><rect class="cls-22" x="377.53" y="201.47" width="4.3" height="4.3" transform="translate(981.27 124.89) rotate(132.49)"/><rect class="cls-22" x="371.3" y="201.67" width="4.3" height="4.3" transform="translate(970.99 129.82) rotate(132.49)"/><rect class="cls-22" x="385.2" y="199.46" width="4.3" height="4.3" transform="translate(992.65 115.86) rotate(132.49)"/><rect class="cls-22" x="382.06" y="202.88" width="4.3" height="4.3" transform="translate(989.91 123.92) rotate(132.49)"/><rect class="cls-22" x="379.43" y="206.21" width="4.3" height="4.3" transform="translate(987.96 131.42) rotate(132.49)"/><rect class="cls-22" x="374.75" y="204.83" width="4.3" height="4.3" transform="translate(979.1 132.57) rotate(132.49)"/><rect class="cls-22" x="361.87" y="198.63" width="4.3" height="4.3" transform="translate(952.95 131.68) rotate(132.49)"/><rect class="cls-22" x="364.9" y="202" width="4.3" height="4.3" transform="translate(960.51 135.09) rotate(132.49)"/><rect class="cls-22" x="368.27" y="204.83" width="4.3" height="4.3" transform="translate(968.25 137.34) rotate(132.49)"/><rect class="cls-22" x="391.23" y="184.62" width="4.3" height="4.3" transform="translate(991.81 86.55) rotate(132.49)"/><polyline class="cls-22" points="551.86 255.01 555.63 250.9 550.97 246.62 549.74 248.57"/><polyline class="cls-22" points="555.24 265.44 559.01 261.32 555.63 258.23 553.12 260.92"/><polyline class="cls-22" points="556.35 271.36 559.01 267.91 555.63 264.82 554.55 265.94"/><polyline class="cls-22" points="558.14 276.43 562.44 271.23 559.07 268.13 556.45 271.36"/><line class="cls-22" x1="584.9" y1="258.66" x2="587.89" y2="261.09"/><line class="cls-22" x1="583.05" y1="275.85" x2="592.59" y2="246.62"/><line class="cls-22" x1="558.17" y1="276.54" x2="548.93" y2="246.71"/><path class="cls-23" d="M354.37,177.52c-3.64,1.89-3.62,6.6,1.26,6.6l33.64.84c4.89,0,12.67,0,7.49-6.76" transform="translate(194.99 63.67)"/><line class="cls-22" x1="294.86" y1="264.61" x2="293.37" y2="265.83"/><rect class="cls-22" x="100.85" y="206.87" width="3.9" height="3.49" transform="translate(382.16 55.57) rotate(47.51)"/><rect class="cls-22" x="123.25" y="205.54" width="4.3" height="4.3" transform="translate(388.81 38.6) rotate(47.51)"/><rect class="cls-22" x="371.54" y="207.82" width="4.3" height="4.3" transform="translate(975.92 139.94) rotate(132.49)"/><rect class="cls-22" x="365.59" y="208.46" width="4.3" height="4.3" transform="translate(966.44 145.41) rotate(132.49)"/><rect class="cls-22" x="383.37" y="208.46" width="4.3" height="4.3" transform="translate(996.22 132.3) rotate(132.49)"/><line class="cls-22" x1="581.8" y1="267.86" x2="584.79" y2="270.29"/><line class="cls-22" x1="583.3" y1="263.24" x2="586.28" y2="265.67"/><line class="cls-22" x1="587.82" y1="255.35" x2="589.31" y2="256.66"/><rect class="cls-22" x="376.53" y="209.38" width="4.3" height="4.3" transform="translate(985.43 138.87) rotate(132.49)"/></g></svg>