<?xml version="1.0" encoding="UTF-8"?>
<svg id="Layer_1" data-name="Layer 1" xmlns="http://www.w3.org/2000/svg" xmlns:xlink="http://www.w3.org/1999/xlink" viewBox="0 0 486.55 376.18"><defs><style>.cls-1,.cls-11,.cls-12{fill:none;}.cls-2{clip-path:url(#clip-path);}.cls-3{fill:url(#linear-gradient);}.cls-4{fill:#6bc6dc;}.cls-5{fill:#fffffe;}.cls-6{fill:#e0502b;}.cls-7{fill:#fddb4a;}.cls-8{fill:#ebe437;}.cls-9{fill:#922819;}.cls-10{fill:#fffcf5;}.cls-11{stroke:#fff;}.cls-11,.cls-12{stroke-miterlimit:10;stroke-width:16px;}.cls-12{stroke:#b03233;}.cls-13{fill:#715833;}.cls-14{fill:#62b453;}.cls-15{fill:#408c42;}.cls-16{fill:#38839b;}</style><clipPath id="clip-path" transform="translate(0 14.18)"><rect class="cls-1" width="481.39" height="362"/></clipPath><linearGradient id="linear-gradient" x1="4849.17" y1="4799.66" x2="5077.86" y2="4799.66" gradientTransform="translate(-4722.82 -4685.31)" gradientUnits="userSpaceOnUse"><stop offset="0" stop-color="#edd289"/><stop offset="1" stop-color="#e2a77b"/></linearGradient></defs><g class="cls-2"><rect class="cls-3" x="126.35" y="-126.35" width="228.7" height="481.39" transform="translate(355.04 -112.17) rotate(90)"/><rect class="cls-4" x="0.18" y="247.72" width="481.21" height="128.46"/><rect class="cls-4" x="279.31" y="210.99" width="202.13" height="64.23" transform="translate(-14.74 38.95) rotate(-3.66)"/><path class="cls-5" d="M.18,214.24l4.51,1.57,4.51,1.31H31l4,1.3,3.8,3.14,4.74,2.09,5.7,2.09,7.12.79,9-1.57,5-1.57,6.4-1.31,6.41-1.7h8.07l5.46,2.49,5,3.66,4,.78h5.46l4.27-2.61,3.56-2.09,6.41-1.83h17.8l7.12,2.35,6.89.52,8.07-.26,5.69-5.23,8.31-2.61,13.77-1.31,6.88,1.83,9.49,2.35,15.2,2.36h25.16l11.39-2.62,10.92-3.92h9.73l6.64,1.57L303,212.67l8.07-2.35,22.08-6.54L349.33,198l16.37-3.92,16.14-3.92h10.92l19.47-1.31h11.63l12.1,1.83,14,1.57,12.82-3.4,6.17-3.13h12.44v42.61l-17.66-6-13.05-4.18-10.92-2.61H415.31c-.95,0-18,.52-18,.52l-15.43,1.05-15.9,2.35-11.15,1.83-30.15,5.75-14.71,3.66H294l-14.95,3.66-27.77,4.7-20.89,3.14-14.48,1.57-30.85,2.61H131.2l-6.41-1.83H114.58l-19.22-.78-15-1.31L52.63,238l-19-2.88-13.77-.26L9.2,233.32H1.37l-1.19-.26Z" transform="translate(0 14.18)"/><circle class="cls-5" cx="213.09" cy="219.35" r="2.45"/><ellipse class="cls-5" cx="219.9" cy="224.22" rx="2.7" ry="1.48"/><circle class="cls-5" cx="218.92" cy="220.33" r="0.98"/><ellipse class="cls-5" cx="209.37" cy="224.69" rx="1.26" ry="1"/><circle class="cls-5" cx="238.15" cy="218.01" r="4.78"/><ellipse class="cls-5" cx="251.44" cy="227.5" rx="5.26" ry="2.89"/><circle class="cls-5" cx="249.54" cy="219.92" r="1.91"/><ellipse class="cls-5" cx="230.91" cy="228.42" rx="2.46" ry="1.96"/><ellipse class="cls-5" cx="286.41" cy="217.24" rx="3" ry="2.67"/><ellipse class="cls-5" cx="294.75" cy="222.53" rx="3.3" ry="1.61"/><ellipse class="cls-5" cx="293.55" cy="218.3" rx="1.2" ry="1.06"/><ellipse class="cls-5" cx="281.86" cy="223.05" rx="1.54" ry="1.09"/><ellipse class="cls-5" cx="324.73" cy="193.54" rx="3.29" ry="3.33" transform="translate(-53.13 219.22) rotate(-32.54)"/><ellipse class="cls-5" cx="335.98" cy="194.18" rx="3.62" ry="2.01" transform="translate(-51.71 225.37) rotate(-32.54)"/><ellipse class="cls-5" cx="332.04" cy="190.45" rx="1.31" ry="1.33" transform="translate(-50.31 222.67) rotate(-32.54)"/><ellipse class="cls-5" cx="324.43" cy="202.32" rx="1.69" ry="1.36" transform="translate(-57.9 220.43) rotate(-32.54)"/><ellipse class="cls-5" cx="447.68" cy="181.14" rx="3.29" ry="3.33" transform="translate(-27.16 283.4) rotate(-32.54)"/><ellipse class="cls-5" cx="458.93" cy="181.79" rx="3.62" ry="2.01" transform="translate(-25.74 289.55) rotate(-32.54)"/><ellipse class="cls-5" cx="454.99" cy="178.05" rx="1.31" ry="1.33" transform="translate(-24.35 286.85) rotate(-32.54)"/><ellipse class="cls-5" cx="447.37" cy="189.93" rx="1.69" ry="1.36" transform="translate(-31.93 284.61) rotate(-32.54)"/><ellipse class="cls-5" cx="54.6" cy="211.33" rx="3.29" ry="3.33" transform="matrix(0.84, -0.54, 0.54, 0.84, -105.09, 76.72)"/><ellipse class="cls-5" cx="65.86" cy="211.97" rx="3.62" ry="2.01" transform="translate(-103.67 82.87) rotate(-32.54)"/><ellipse class="cls-5" cx="61.92" cy="208.24" rx="1.31" ry="1.33" transform="translate(-102.28 80.17) rotate(-32.54)"/><ellipse class="cls-5" cx="54.3" cy="220.11" rx="1.69" ry="1.36" transform="translate(-109.87 77.93) rotate(-32.54)"/><ellipse class="cls-5" cx="107.61" cy="217.32" rx="3.33" ry="3.29" transform="translate(-132.42 266.07) rotate(-71.85)"/><ellipse class="cls-5" cx="100.98" cy="208.21" rx="2.01" ry="3.62" transform="translate(-128.32 253.49) rotate(-71.85)"/><ellipse class="cls-5" cx="100.58" cy="213.62" rx="1.33" ry="1.31" transform="matrix(0.31, -0.95, 0.95, 0.31, -133.74, 256.84)"/><ellipse class="cls-5" cx="114.6" cy="211.99" rx="1.36" ry="1.69" transform="translate(-122.54 269.04) rotate(-71.85)"/><circle class="cls-6" cx="55.57" cy="160.88" r="11.16"/><path class="cls-7" d="M66.73,147.05c0,4.9-5.58-5-11.75-5s-10.58,9.85-10.58,5,5-8.88,11.17-8.88S66.73,142.15,66.73,147.05Z" transform="translate(0 14.18)"/><path class="cls-7" d="M66.73,147.61c-.14-3.44-5.66,3.95-11.75,3.95S44.4,144,44.4,147.75c0,4.37,6.7,7.78,14.15,6.6C63.47,153.57,66.86,150.73,66.73,147.61Z" transform="translate(0 14.18)"/><rect class="cls-8" x="313.17" y="63.47" width="45.64" height="79.58" transform="translate(-14.97 97.92) rotate(-13.9)"/><polygon class="cls-9" points="418.95 144.18 379.21 159.51 346.07 132.76 352.67 90.68 392.4 75.36 425.55 102.11 418.95 144.18"/><polygon class="cls-10" points="414.49 140.58 380.1 153.84 351.43 130.7 357.13 94.29 391.51 81.03 420.19 104.17 414.49 140.58"/><polygon class="cls-9" points="410.76 137.57 380.85 149.11 355.9 128.97 360.86 97.3 390.77 85.76 415.72 105.9 410.76 137.57"/><polygon class="cls-10" points="406.44 135.18 381.7 144.72 361.07 128.07 365.18 101.88 389.92 92.33 410.55 108.99 406.44 135.18"/><polygon class="cls-9" points="402.53 133.15 382.11 141.03 365.08 127.28 368.47 105.66 388.89 97.79 405.92 111.53 402.53 133.15"/><polygon class="cls-10" points="398.66 129.83 383.25 135.77 370.4 125.4 372.96 109.08 388.37 103.14 401.22 113.51 398.66 129.83"/><circle class="cls-11" cx="304.35" cy="294.59" r="18.49"/><path class="cls-12" d="M308.56,262.36a18.74,18.74,0,0,0-15.24,3.35" transform="translate(0 14.18)"/><path class="cls-12" d="M322.62,276.82A18.22,18.22,0,0,0,315,265.08" transform="translate(0 14.18)"/><path class="cls-12" d="M314.74,295.65a18.33,18.33,0,0,0,7.82-11.86" transform="translate(0 14.18)"/><path class="cls-12" d="M293.13,295.07a17.84,17.84,0,0,0,15,3.4" transform="translate(0 14.18)"/><path class="cls-12" d="M288.17,271.86a18.43,18.43,0,0,0,.34,17.66" transform="translate(0 14.18)"/><ellipse class="cls-13" cx="59.26" cy="91.74" rx="5.59" ry="4.32"/><ellipse class="cls-13" cx="63.85" cy="85.63" rx="5.59" ry="4.32"/><path class="cls-14" d="M87.09,23c11.5-6.73-18.78,4.42-25.77,17.16s-6.06,46.75-5.59,33.44" transform="translate(0 14.18)"/><path class="cls-14" d="M55.93,74.25C64,63.67,40.21,85.45,38.56,99.88S50.62,145.46,46,133" transform="translate(0 14.18)"/><path class="cls-15" d="M72.51,98.15H72C72.22,98.38,72.38,98.32,72.51,98.15Z" transform="translate(0 14.18)"/><path class="cls-15" d="M91.83,126.58l-2.66-4.07h-.94c.19-.19.38-.38.56-.58l-.59-.9c-1,0-1.58-.19-.64-1L86.87,119c-.6.34-1.12.54-.36-.56l-.74-1.13c-.62.34-.92,1.31-2,.78l1.5-1.5-.91-1.39c-.44-.27-.89-.8-1.33-.8a.75.75,0,0,1,0-1.22l-1.47-2.26a.9.9,0,0,1-.76-.21h.62L81,110H79.37c-.6-.6.74-.71.88-1.13L79.05,107H77.89c-.38-.39,0-.77.41-1.15l-1.17-1.81H75.68a1.55,1.55,0,0,1,.67-1.19l-1.07-1.64c-1.14.29-.85-.27-.57-.87l-1.44-2.2h-.76c-.13.17-.29.23-.53,0h.53c.13-.17.23-.43.35-.63l-1-1.59c-.58,0-.58-.06-.58-.74,0,.68,0,.74.58.74l-1.56-2.38a1.49,1.49,0,0,0-1.24.9,1.6,1.6,0,0,1,1-1.35l-1-1.6H66.82c0-1,1-.66,1.62-.76l-1.09-1.67c-.43.33-.85.64-1.27.22s.43-.68.77-1l-1.28-2a.69.69,0,0,1-1,0,.61.61,0,0,0,.68-.44L57.49,74c-1.56-13.79-3.59,19.46,5.42,31.86S104.05,133.22,91.83,126.58Z" transform="translate(0 14.18)"/><path class="cls-15" d="M55.38,73.37l4-2.18.06-.86.52.55.89-.49c.09-.86.28-1.43,1-.52l1-.57c-.29-.57-.44-1.06.56-.3l1.11-.6c-.29-.59-1.18-.93-.62-1.85L65.25,68l1.38-.75c.28-.39.81-.76.83-1.16a.73.73,0,0,1,1.16.08L70.85,65a.82.82,0,0,1,.25-.68l0,.57.73-.4.1-1.47c.6-.51.63.72,1,.87l1.81-1,.07-1.06c.38-.33.72.07,1.06.45l1.78-1L77.71,60a1.5,1.5,0,0,1,1.09.69l1.62-.88c-.21-1.06.31-.76.87-.47l2.17-1.18,0-.69c-.15-.13-.2-.28,0-.48l0,.48c.15.12.4.24.58.36L85.65,57c0-.53.09-.53.73-.49-.64,0-.7,0-.73.49L88,55.67a1.37,1.37,0,0,0-.79-1.19,1.5,1.5,0,0,1,1.23,1L90,54.57l.13-1.94c.92.06.57.93.63,1.53l1.64-.89c-.29-.41-.56-.81-.13-1.18s.62.44.89.77l1.94-1c-.19-.31-.26-.61.06-.89a.57.57,0,0,0,.38.65l11.79-6.4c13.17-.58-18.27-4.46-30.57,3S48.35,84.15,55.38,73.37Z" transform="translate(0 14.18)"/><path class="cls-15" d="M56.15,73.1l-.86-4.49-.8-.32.68-.32L55,67c-.8-.35-1.28-.7-.21-1.09l-.22-1.16c-.63.1-1.15.1-.12-.62l-.23-1.24c-.65.09-1.24.84-2,0l1.8-.83-.29-1.54c-.29-.38-.48-1-.86-1.15a.73.73,0,0,1,.44-1.08l-.48-2.49a.78.78,0,0,1-.57-.44l.53.21-.16-.82-1.37-.54c-.31-.73.87-.38,1.13-.7l-.38-2-1-.39c-.2-.46.29-.67.75-.88l-.38-2-1.24-.48a1.48,1.48,0,0,1,1-.83l-.35-1.82c-1.07-.11-.63-.52-.18-1l-.46-2.43-.65-.25c-.18.11-.33.11-.45-.18l.45.18c.16-.1.34-.31.51-.44l-.33-1.75c-.49-.2-.47-.25-.24-.85-.23.6-.25.65.24.85l-.5-2.63a1.34,1.34,0,0,0-1.37.39,1.51,1.51,0,0,1,1.27-.89l-.33-1.76L47,33.67c.34-.86,1-.27,1.65-.14l-.35-1.84c-.48.16-.95.29-1.16-.23s.6-.45,1-.61l-.42-2.17c-.35.09-.66.07-.82-.33a.56.56,0,0,0,.73-.16L45.08,15c3.44-12.74-9.81,16-6.41,30S64.28,83.06,56.15,73.1Z" transform="translate(0 14.18)"/><path class="cls-15" d="M23.33,122.72l2.45-3.86-.37-.78.72.23.55-.86c-.35-.8-.46-1.38.59-.93l.64-1c-.53-.36-.91-.71.34-.53l.67-1.07c-.53-.37-1.48-.23-1.44-1.32l1.88.64.84-1.32c.05-.48.34-1.06.16-1.43a.73.73,0,0,1,1.06-.49l1.36-2.14a.79.79,0,0,1-.11-.71l.24.51.45-.7-.64-1.33c.28-.74.9.32,1.31.27l1.11-1.74-.46-1c.18-.47.67-.29,1.15-.13l1.09-1.71-.57-1.2a1.54,1.54,0,0,1,1.29.07l1-1.55c-.7-.82-.1-.81.53-.83l1.32-2.09-.3-.63c-.2,0-.31-.14-.2-.43l.2.43c.2,0,.46,0,.68,0l1-1.51c-.22-.47-.18-.5.41-.78-.59.28-.63.31-.41.78l1.44-2.26A1.36,1.36,0,0,0,42,90.75a1.52,1.52,0,0,1,1.54.23l1-1.51-.83-1.76c.84-.4,1,.53,1.29,1l1-1.58c-.46-.21-.88-.44-.69-1s.75.08,1.15.24l1.19-1.87c-.32-.18-.53-.4-.38-.8a.56.56,0,0,0,.64.38l7.21-11.31c11.23-6.91-18.14,5-25.26,17.47S22.42,135.55,23.33,122.72Z" transform="translate(0 14.18)"/><ellipse class="cls-13" cx="419.42" cy="30.67" rx="5.59" ry="4.32" transform="translate(308.56 450.51) rotate(-78.9)"/><ellipse class="cls-13" cx="424.53" cy="36.35" rx="5.59" ry="4.32" transform="translate(307.11 460.11) rotate(-78.9)"/><path class="cls-14" d="M467.57,68.48c4.39,12.58-.72-19.29-11.87-28.59S411,24.94,424,28" transform="translate(0 14.18)"/><path class="cls-14" d="M423.31,28c8.82,10-8-17.58-21.8-22s-47.05,3.06-33.9,1" transform="translate(0 14.18)"/><path class="cls-15" d="M396.67,39.71l.1-.52C396.5,39.37,396.53,39.54,396.67,39.71Z" transform="translate(0 14.18)"/><path class="cls-15" d="M365.05,53.18l4.5-1.82.18-.92.46.66,1-.4c.22-.93.5-1.52,1.09-.44l1.17-.48c-.22-.65-.31-1.2.62-.25l1.24-.5c-.21-.67-1.1-1.16-.38-2.09l1.19,1.77,1.54-.63c.34-.38.95-.71,1-1.15a.75.75,0,0,1,1.19.25l2.5-1a.88.88,0,0,1,.36-.7l-.12.6.81-.33.31-1.58c.71-.47.56.86.94,1.08l2-.82.23-1.14c.45-.3.74.18,1.05.62l2-.8.28-1.43a1.56,1.56,0,0,1,1,.89l1.82-.73c-.07-1.17.43-.78,1-.39l2.43-1,.15-.74c-.14-.17-.17-.34.1-.52l-.1.52c.14.15.38.31.55.46l1.75-.71c.12-.56.17-.56.84-.43-.67-.13-.72-.13-.84.43l2.64-1.07A1.49,1.49,0,0,0,401,37a1.62,1.62,0,0,1,1.15,1.19l1.77-.71.41-2.08c.95.18.46,1.07.43,1.73l1.85-.74c-.25-.48-.47-1,0-1.29s.58.55.82.95l2.17-.88c-.15-.36-.18-.7.19-1a.62.62,0,0,0,.3.75l13.22-5.35c13.83,1.13-18.41-7.27-32.31-.81S356.17,63.9,365.05,53.18Z" transform="translate(0 14.18)"/><path class="cls-15" d="M424.28,27.66,425.65,32l.83.22-.64.4.3,1c.84.25,1.36.55.33,1.05l.36,1.14c.61-.18,1.13-.24.19.6l.37,1.2c.63-.16,1.14-1,1.94-.25l-1.69,1,.46,1.49c.33.35.6.94,1,1a.73.73,0,0,1-.31,1.12l.76,2.42a.77.77,0,0,1,.62.37l-.55-.15.25.8,1.43.37c.38.69-.83.48-1.05.83l.61,2,1,.27c.25.45-.21.7-.64,1l.6,1.93,1.29.34a1.51,1.51,0,0,1-.89.94l.55,1.76c1.08,0,.69.45.3.94l.73,2.35.68.18c.16-.12.31-.15.46.12l-.46-.12a5.73,5.73,0,0,0-.47.5l.54,1.7c.5.14.5.19.33.81.17-.62.17-.67-.33-.81l.8,2.56a1.39,1.39,0,0,0,1.32-.55,1.52,1.52,0,0,1-1.17,1l.53,1.72,1.88.49c-.23.9-1,.39-1.62.33l.56,1.79c.46-.21.91-.39,1.18.09s-.55.53-.92.73l.66,2.1c.33-.12.64-.14.85.24a.55.55,0,0,0-.7.24l4,12.8c-2,13,7.9-17.06,2.92-30.57S415.06,18.7,424.28,27.66Z" transform="translate(0 14.18)"/><path class="cls-15" d="M424.4,28.47l4.57,0,.47-.73c.05.24.11.48.18.73h1c.49-.72.93-1.13,1.1,0h1.19c0-.64.12-1.14.63,0h1.26c0-.65-.59-1.38.35-1.92l.47,1.92h1.56c.43-.2,1.08-.28,1.3-.62a.73.73,0,0,1,1,.64H442a.79.79,0,0,1,.54-.48l-.31.48h.83l.8-1.25c.77-.16.21.93.47,1.25h2.05l.57-.9c.5-.1.61.42.73.91h2l.71-1.12a1.46,1.46,0,0,1,.63,1.13h1.85c.32-1,.63-.52,1,0l2.47,0,.37-.59c-.07-.19,0-.35.26-.41l-.26.41c.07.18.23.4.33.59h1.79c.28-.44.33-.42.87-.07-.54-.35-.59-.37-.87.07l2.68,0a1.39,1.39,0,0,0-.12-1.43,1.56,1.56,0,0,1,.62,1.43h1.79l1.05-1.64c.78.5.06,1.08-.19,1.64h1.88c-.06-.5-.1-1,.45-1.09s.33.68.41,1.1h2.2c0-.36.07-.66.48-.74a.57.57,0,0,0,0,.74l13.41.08c11.84,5.83-13.85-12.72-28.23-12.08S413.05,34.54,424.4,28.47Z" transform="translate(0 14.18)"/><path class="cls-15" d="M382-13.29l3.31,3.15.84-.21c-.12.22-.25.43-.37.66l.74.7c.85-.18,1.45-.18.8.76l.86.82c.45-.45.87-.75.46.44l.91.87c.47-.45.52-1.41,1.57-1.17l-1,1.73,1.13,1.08c.46.14,1,.53,1.37.43A.74.74,0,0,1,393-2.9l1.83,1.75a.81.81,0,0,1,.73,0L395-1l.6.58L397-.78c.67.42-.49.82-.52,1.24L398,1.87l1-.26c.43.27.16.71-.09,1.15l1.47,1.4,1.28-.33a1.46,1.46,0,0,1-.31,1.25l1.33,1.28c.94-.53.82,0,.71.67l1.79,1.71.68-.18c.08-.18.2-.28.47-.11l-.47.11a5.8,5.8,0,0,0-.16.66L407,10.45c.51-.12.53-.07.68.55-.15-.62-.17-.67-.68-.55l1.94,1.85a1.36,1.36,0,0,0,.88-1.12,1.49,1.49,0,0,1-.52,1.46l1.3,1.24,1.88-.48c.23.9-.7.84-1.26,1.08l1.36,1.29c.3-.41.6-.79,1.08-.49s-.22.72-.46,1.08l1.6,1.52c.24-.27.5-.44.86-.21a.54.54,0,0,0-.49.56l9.71,9.24c4.62,12.36-1.37-18.75-12.28-28.15S369.61-16.65,382-13.29Z" transform="translate(0 14.18)"/><rect class="cls-4" x="284.32" y="135.08" width="20.52" height="8.12" rx="3.67" transform="translate(29.57 342.81) rotate(-60.85)"/><rect class="cls-4" x="293.74" y="140.33" width="20.52" height="8.12" rx="3.67" transform="translate(29.81 353.73) rotate(-60.85)"/><polygon class="cls-16" points="299.94 144.57 294 146.25 291.58 152.26 291.69 153.1 294.71 147.3 299.26 146.37 299.59 150.66 296.59 154.81 296.69 155.6 300.73 150.63 299.94 144.57"/><polygon class="cls-16" points="309.31 149.79 303.37 151.47 300.95 157.49 301.06 158.33 304.08 152.52 308.63 151.59 308.96 155.88 305.96 160.04 306.06 160.82 310.1 155.85 309.31 149.79"/></g></svg>