<?xml version="1.0" encoding="UTF-8"?><svg id="Layer_2" xmlns="http://www.w3.org/2000/svg" viewBox="0 0 480 360" width="480px" height="360px"><rect y="-.35" width="480" height="136.49" style="fill:#cdf3fc;"/><polygon points="346.62 80.51 360.23 68.94 367.38 55.32 376.59 67.91 385.62 75.74 388.23 62.81 403.47 44.78 443.98 35.41 480 0 480 140.76 380.8 154.72 346.62 80.51" style="fill:#dcccb3;"/><polygon points="217.94 64.15 242.79 57.55 249.94 49.19 256.06 44.78 261.65 41.02 266.96 32.85 280.57 29.34 296.97 31.15 304.06 37.62 318.36 46.74 336.06 54.53 347.3 73.7 369.43 100.83 406.96 131.91 320.4 160.28 198.19 115.57 217.94 64.15" style="fill:#e1c6b1;"/><path d="M17.48,64.15l25.3-9.62,5.91-9.75,14.91-7.33,4.56-22.42s4.42-2.09,11.23-5.11C109.14-3.25,117,0,117,0h52.09s5.11,11.03,9.7,16.07l4.6,5.04,5.62,2.13,5.62,12.07,14.83,5.21,5.59,14.02,34.21,22.25,3.06,19.23,59.74,54.47-147.29,44.28L39,107.91l-21.53-43.76Z" style="fill:#fedfc0;"/><path d="M0,49.19s57.77,49.02,77.17,68.43,61.28,14.97,79.15,19.23,79.02,17.59,83.68,23.44-63.77,6.87-63.77,6.87h-83.23l100.6,22.97,46.4,90.84-33.64,79.04H0V49.19Z" style="fill:#515d13;"/><path d="M215.04,166.13s-151.45-21.12-178.15-5.89c-14.85,8.47-8.55,21.16,3.1,27.56s70.88,11.48,66.29,22.48-69.14,29.28-78.1,39.49c-15.34,17.47-17.84,45.11-7.91,67.03s31.04,43.2,31.04,43.2h132.59l20.43-155.4-79.15-24.6-.51-15.72,90.38,1.85Z" style="fill:#25300e; opacity:.65;"/><path d="M480,107.91s-42.83,13.79-59.17,17.87-46.47,13.43-58.21,11.06-59.23,11.6-67.4,13.8-26.21.67-37.28,4.07-32.17,9.87-32.17,9.87c0,0,38.3,2.55-36.77,3.57l-75.06,1.02,109.79,25.59,150.93,109.22,105.35,17.37V107.91Z" style="fill:#cad64c;"/><polygon points="246.96 160.24 267.89 160.24 326.36 154.72 361.6 152.08 375.2 154.72 358.02 168.94 318.45 176.34 289.6 176.34 246.96 170.02 232.91 166.64 246.96 160.24" style="fill:#98ae41;"/><path d="M439.72,172.25c-12.16,4.51-49.98-1.16-63.13.31-13.15,1.47-40.91,6.5-47.68,4.79s-105.7-7.33-105.7-7.33l-98.46-2.87s-38.37-1.1,3.48,9.19c178,43.75,178.21,42.89,178.21,42.89l11.23,87.83,162.32,23.04v-173.17s-24.38,9.42-40.28,15.32Z" style="fill:#3d5313; opacity:.65;"/><path d="M250.96,160.85s39.15-.34,53.79-2.04c14.64-1.7,66.72-7.49,66.04-3.74s-40.85,20.09-64.68,18.38-119.15-11.57-148.77-13.28-104.14-7.88-104.85,6.47c-1.36,27.57,160.68,33.02,130.04,49.87-26.48,14.56-120.51,22.98-135.49,56.51-14.11,31.6,47.32,86.98,47.32,86.98h385.64v-51.75s-125.12-23.99-137.47-38.47c-19.74-23.15,21.02-39.54-13.62-66.72-26.89-21.11-194.72-31.32-188.26-32.34s146.04,8.85,177.36,9.28,70.47-9.96,75.23-22.89-82.72-2.72-91.23-1.02c-8.51,1.7-55.15,2.04-55.15,2.04l4.09,2.72Z" style="fill:#506079;"/><path d="M293.79,367.48c-14.77-9-29.27-18.4-43.45-28.3-14.09-10.06-28.28-20.15-40.22-32.83-6.92-7.46-10.69-14.75-4.81-24.26,2.32-3.82,5.32-7.05,8.42-10.1,9.26-9,20.02-16.57,28.48-26.26,4.14-4.81,7.7-10.23,8.4-16.63.91-6.16,1.17-12.89-1.82-18.47-6.28-11.24-20.9-14.72-32.67-17.16-5.25-1.22-145.65-18.76-121.51-26.35,4.33-.85,8.65-.91,13.01-1.07,21.6-.4,43.19.61,64.75,1.49,10.49.47,31.79,1.56,42.02,1.97,29.05,2.04,58.03,5.41,87.16,6.21,12.87.24,25.95.8,38.64-1.61,4.15-1.03,8.3-2.31,12.41-3.56,4.12-1.28,8.21-2.64,12.25-4.12,5.95-2.32,12.23-4.44,17.31-8.38,4.94-4.4-4.32-4.76-7.13-4.96-10.77-.53-21.55.1-32.31.74-8.61.57-17.21,1.27-25.78,2.26-4.31.4-8.5,1.51-12.81,1.84-21.53,1.47-43.16,1.62-64.73,1.06,0,0,.02-.25.02-.25,21.54.51,43.17.31,64.67-1.21,4.31-.34,8.5-1.46,12.8-1.87,8.58-1.01,17.18-1.74,25.8-2.33,10.77-.67,21.58-1.32,32.37-.82,10.98.35,12.54,4.19,1.96,9.46-11.71,5.63-24.18,9.4-36.69,12.82-12.78,2.46-25.88,1.93-38.82,1.72-29.12-.74-58.13-4.02-87.16-6-37.23-1.31-75.95-4.39-113.15-2.92-2.77.23-5.92.38-8.12,1.39.14.3.65.64,1.1.9,2.32,1.25,4.89,1.97,7.43,2.72,4.13,1.16,8.33,2.12,12.54,3.03,33.71,7.13,68.17,11.23,102.25,16.27,16.98,3.15,37.69,9.94,36.51,30.89-.25,4.41-.57,8.85-2.25,12.99-5.34,12.17-16.51,20.33-26.08,28.88-3.26,2.82-6.5,5.65-9.56,8.64-4.4,4.45-8.98,9.24-10.44,15.42-1.53,6.35,2.96,11.86,6.97,16.31,11.78,12.46,25.99,22.54,39.96,32.46,14.15,9.84,28.65,19.2,43.38,28.13l-1.11,1.85h0Z" style="fill:#ebf700;"/><path d="M18.29,42.6s-6.64.34-8.34-3.06-2.72-9.36-2.72-12.09,1.19-9.7,0-10.55-2.72-1.7-3.4,1.02-.51,9.02-1.36,8.68-3.62-3.4-4.19-4.43v7.16s3.68.84,4.36,3.39,0,9.53.68,11.23,10.21,11.06,11.91,10.55,5.62-10.72,3.06-11.91Z" style="fill:#4a2c12;"/><path d="M59.99,200.22s-19.91-96.51-19.91-107.74c0-11.23-7.15-33.19-5.62-43.4s0-25.02,5.11-42.89-20.94-25.02-20.94-25.02c0,0-4.09,31.66-5.11,52.09s1.02,69.45,3.06,90.89c2.04,21.45,6.13,70.47,2.04,76.09-4.09,5.62,14.3,15.32,22.47,13.79,8.17-1.53,18.89-13.79,18.89-13.79Z" style="fill:#a26143;"/><path d="M52.33,14.51s3.06,13.28,3.4,16.34,1.7,5.79,0,14.64c-1.7,8.85-2.38,16-5.45,21.11s-6.09,9.77-8.85,11.91-4.09,3.06-8.17,5.79-7.15,8.17-1.7,9.53,9.87-2.04,12.6-5.79,13.28-21.11,13.96-24.85.68-21.62,1.87-24.17,3.23-8.85,4.77-11.91,8-5.62,9.7-7.49,4.94-8,4.94-9.7-2.89.34-3.74,2.89-1.19,3.74-3.23,5.11-6.3,5.45-6.13,3.91,1.19-4.94,1.87-6.81.85-3.23,0-3.57-1.53.34-2.38,2.04-1.19,5.96-1.53,7.66-1.19,6.64-2.04,7.66-2.89,6.64-3.57,4.26-1.87-10.04-2.21-13.45,1.87-7.83-.17-9.36-4.23,2.89-3.91,4.26Z" style="fill:#4a2c12;"/><path d="M15.43,9.29c8.63.13,21.24,9.01,27.02,6.77s15.32,2.53,17.53,1.85,12.77-6.13,13.79-7.15,1.2,6.42,16.26,2.87c15.06-3.55,15.52-11.38,14.95-14.44s24.28-5.45,23.94-18.04-6.13-22.81-18.38-22.64c-12.26.17-112.28,0-112.28,0V29.34s6.63-9,10.43-13.27-.88-6.89,6.74-6.77Z" style="fill:#49490d;"/><path d="M77.86,1.58c5.34,6.41,18.15-6.81,17.93-12.26s1.13-21.79-4.82-21.45-2.55,8.17-6.3,13.28-12.26,4.77-16.34,0-7.19-11.23-14.32-3.74-10.19,12.94-3.38,18.72c6.81,5.79,23.83,1.36,27.23,5.45Z" style="fill:#6b7016; opacity:.65;"/><path d="M-1.74,4.98S12.48-4.21,19.13-1.83s9.29-13.28,9.5-17.02,2.15-7.83,7.99-10.89c5.84-3.06-5.4-11.7-5.4-11.7l-32.96-.05V4.98Z" style="fill:#9f9b16; opacity:.65;"/><path d="M39,205.59c4.47-2.19,5.31-4.74,7.82-4.23s8.39,1.05,11.2,4.23,7.66,11.69,4.6,13.18-23.41-.81-23.41-.81l-.2-12.36Z" style="fill:#afa5b0;"/><path d="M262.47,181.96c-1.42-3.27-1.13-11.4,1.94-14.13s5.93-8.25,11.05-7.45,12.22.4,13.63-.08,11.23,6.5,12.77,8.38,10.72,13.62,7.15,17.53-21.96-.51-24.85-1.36-19.97,1.05-21.68-2.89Z" style="fill:#afa5b0;"/><path d="M0,197.53s11.3-7.66,14.62-7.4,15.59,6.13,17.88,7.4,6.96,5.62,7.81,9.19,6.27,10.39-.16,13.43-17.67-2.51-22.11-2.48-18.04,1.84-18.04,1.84v-21.98Z" style="fill:#928d93;"/><path d="M209.94,175.66c-1.97-4.19,2.55-15.66,4.09-18.04s3.74-2.04,3.57-3.57-.17-9.36,6.64-9.02,19.4,6.3,22.13,9.7,10.89,7.66,13.62,7.83,4.94,2.04,6.3,3.4,10.72,14.04,6.47,17.19c-1.78,1.32-26.38-.85-29.45-3.15s-30.93.84-33.36-4.34Z" style="fill:#928d93;"/><path d="M24.77,244.22c-.27.02-.52.06-.75.13.54-.97,1.64-1.27,1.21-1.56-.48-.32-2.38-.65-2.8.6-.13.39-.22.72-.26,1.01-.16-.28-.39-.59-.68-.94-.88-1.04-2.52-.1-2.85.35-.29.4.81.33,1.67,1.02-.19.02-.39.05-.6.1-1.07.3-1.8,1.06-1.64,1.7.17.65,1.12.73,2.19.44.59-.16,1.09-.41,1.4-.71-.04.23-.04.49,0,.77.12.96.52,1.02,1.08.99.56-.02,1.08-.14.95-1.1-.05-.37-.16-.71-.31-.98.4.15,1.02.15,1.7.11,1.12-.06,1.98-.19,1.89-.84-.08-.67-1.06-1.16-2.18-1.1Z" style="fill:#c0cf7c;"/><path d="M37.66,250.28c-.12-.77-1.24-1.21-2.51-.97-.31.06-.59.15-.85.27.57-1.25,1.82-1.77,1.32-2.05-.56-.31-2.72-.43-3.16,1.15-.14.48-.22.9-.27,1.26-.19-.31-.46-.65-.8-1.02-1.03-1.1-2.86.26-3.22.85-.32.52.93.27,1.93.96-.22.05-.44.11-.68.21-1.21.52-2.01,1.55-1.8,2.29.21.74,1.29.71,2.5.19.66-.28,1.22-.65,1.56-1.05-.03.27-.03.59.02.9.17,1.14.62,1.15,1.25,1.02.63-.12,1.22-.33,1.05-1.47-.06-.44-.2-.81-.38-1.13.46.12,1.16.02,1.92-.12,1.27-.23,2.24-.51,2.12-1.29Z" style="fill:#c0cf7c;"/><path d="M21.77,245.34c.03.23.32.4.65.38.33-.02.57-.21.54-.44-.03-.23-.32-.4-.65-.38-.33.02-.57.22-.54.44Z" style="fill:#ffd93b;"/><path d="M31.76,250.88c.03.18.32.27.66.21.34-.06.59-.27.56-.45-.03-.18-.32-.28-.66-.21-.34.06-.59.26-.56.44Z" style="fill:#ffc639;"/><path d="M112.53,208.99c-.27.01-.52.06-.75.13.54-.97,1.64-1.27,1.21-1.55-.48-.32-2.38-.65-2.8.6-.13.39-.22.72-.27,1.01-.15-.27-.39-.59-.69-.94-.88-1.03-2.52-.1-2.85.35-.29.4.81.33,1.68,1.02-.19.02-.4.04-.6.1-1.07.3-1.81,1.06-1.64,1.7.17.65,1.12.73,2.19.44.6-.16,1.1-.4,1.4-.7-.03.23-.04.49-.01.77.12.96.52,1.02,1.07.99.56-.02,1.08-.15.96-1.1-.05-.37-.16-.71-.31-.98.4.15,1.02.15,1.69.11,1.12-.06,1.98-.19,1.9-.85-.06-.67-1.04-1.16-2.16-1.1Z" style="fill:#bacf86;"/><path d="M104.42,208.23c-.12-.77-1.24-1.21-2.51-.97-.31.06-.59.15-.85.27.58-1.24,1.82-1.77,1.32-2.05-.56-.31-2.73-.42-3.16,1.15-.14.48-.23.9-.27,1.25-.19-.31-.45-.65-.8-1.02-1.03-1.1-2.86.26-3.23.85-.32.52.92.27,1.93.98-.22.05-.44.1-.68.21-1.21.52-2.02,1.54-1.81,2.29.22.75,1.29.71,2.5.19.66-.28,1.23-.65,1.56-1.05-.03.28-.02.59.02.91.17,1.13.61,1.15,1.25,1.02.64-.12,1.23-.33,1.05-1.47-.06-.44-.2-.82-.39-1.13.46.11,1.16.02,1.92-.13,1.28-.24,2.25-.52,2.13-1.3Z" style="fill:#b1c661;"/><path d="M109.53,210.11c.03.23.32.4.65.38.33-.02.56-.22.54-.44-.03-.23-.32-.4-.65-.38-.33.01-.57.21-.54.44Z" style="fill:#ffd93b;"/><path d="M98.51,208.83c.02.19.31.28.66.21.34-.06.59-.27.56-.44-.03-.19-.32-.27-.66-.21-.34.06-.59.26-.56.44Z" style="fill:#ffc639;"/><path d="M465.33,285.29c-.3,1-2.35.34-4.89-.43-2.54-.77-4.06-3.2-4.06-3.2,0,0,2.61-1.2,5.15-.44,2.55.77,4.11,3.07,3.8,4.07Z" style="fill:#669303;"/><path d="M438.8,274.41c.27-1.01,2.34-.4,4.9.29,2.56.69,4.14,3.08,4.14,3.08,0,0-2.56,1.27-5.13.59-2.56-.69-4.18-2.94-3.91-3.96Z" style="fill:#669303;"/><path d="M460.02,288.94c-.94.47-2.11-.92-3.3-3.3-1.18-2.38.19-3.6.19-3.6,0,0,2.83.48,4.02,2.85,1.18,2.38.04,3.58-.9,4.05Z" style="fill:#618400;"/><path d="M444.01,270.61c.93-.49,2.15.86,3.4,3.2s-.08,3.6-.08,3.6c0,0-2.85-.4-4.1-2.73-1.24-2.35-.14-3.59.79-4.08Z" style="fill:#618400;"/><path d="M442.84,277.16c-.17-1.15-2.34-1.8-4.85-1.44-.48.07-.93.17-1.35.29,1.27-1.76,3.65-2.5,2.7-2.9-1.07-.47-5.31-.65-6.32,1.68-.34.78-.56,1.45-.68,2.02-.34-.42-.8-.88-1.39-1.39-1.92-1.66-5.66.35-6.42,1.23-.69.8,1.91.4,3.84,1.52-.55.06-1.12.19-1.71.39-2.42.78-4.09,2.31-3.73,3.43.36,1.1,2.28.64,4.7-.15,1.46-.47,2.77-.95,3.49-1.5-.09.56-.05,1.18.15,1.8.52,1.62,1.72,1.4,2.93,1.01,1.21-.4,1.98-.8,1.47-2.43-.15-.45-.36-.85-.62-1.19.89.23,2.15.22,3.52.02,2.52-.37,4.46-1.25,4.29-2.41Z" style="fill:#bacf86;"/><path d="M460.85,276.86c-.48-.08-.94-.12-1.36-.14,1.75-1.28,4.23-1.26,3.46-1.94-.88-.77-4.85-2.26-6.53-.35-.56.65-.98,1.21-1.27,1.71-.19-.51-.49-1.09-.9-1.74-1.31-2.18-5.49-1.4-6.49-.8-.9.55,1.7.97,3.19,2.64-.54-.1-1.13-.15-1.74-.15-2.54,0-4.6.94-4.6,2.11s1.97,1.31,4.51,1.31c1.54,0,2.92-.06,3.79-.35-.26.5-.41,1.1-.41,1.76,0,1.71,1.2,1.85,2.48,1.85s2.15-.15,2.15-1.85c0-.48-.08-.93-.23-1.33.78.48,1.98.87,3.35,1.1,2.51.43,4.61.19,4.81-.97.18-1.16-1.69-2.43-4.2-2.86Z" style="fill:#b1c661;"/><path d="M452.77,283.19c-.6-.08-1.19-.1-1.75-.07,1.69-1.46,4.32-1.53,3.51-2.19-.91-.73-4.95-2.04-6.54-.06-.48.6-.86,1.15-1.11,1.61-.21-.53-.56-1.15-1.03-1.85-1.41-2.11-5.55-1.16-6.52-.52-.85.57,1.6.88,3.18,2.38-.44-.05-.9-.06-1.37-.05-2.54.1-4.56,1.11-4.52,2.28.05,1.17,2.1,1.69,4.65,1.59,1.39-.05,2.62-.27,3.46-.65-.19.38-.34.81-.4,1.29-.23,1.69.61,1.95,1.88,2.12,1.27.17,2.48.18,2.69-1.52.09-.65.02-1.27-.18-1.8.81.41,2.18.65,3.71.85,2.52.33,4.49.45,4.65-.71.14-1.15-1.78-2.36-4.29-2.7Z" style="fill:#c0cf7c;"/><path d="M432.45,277.72c.71-.23,1.39-.1,1.51.28.12.39-.35.88-1.06,1.11-.71.23-1.4.1-1.52-.27-.11-.38.36-.88,1.07-1.11Z" style="fill:#ffd93b;"/><path d="M455.08,276.93c.68,0,1.23.22,1.23.5s-.55.5-1.23.5-1.23-.23-1.23-.5c0-.27.55-.5,1.23-.5Z" style="fill:#ffc639;"/><path d="M446.85,284.79c-.98-.13-1.73-.55-1.68-.94.06-.4.89-.61,1.86-.48.97.13,1.72.56,1.67.95-.04.38-.87.6-1.84.47Z" style="fill:#ffdb45;"/><path d="M55.79,217.04c.15.76-1.41,1.04-3.34,1.43-1.93.4-3.76-.68-3.76-.68,0,0,1.28-1.69,3.21-2.08,1.93-.39,3.74.56,3.9,1.33Z" style="fill:#669303;"/><path d="M36.46,225.55c-.62.48-1.56-.81-2.75-2.37-1.2-1.56-1.05-3.68-1.05-3.68,0,0,2.08.41,3.28,1.96,1.2,1.56,1.14,3.61.52,4.08Z" style="fill:#669303;"/><path d="M53.6,221.28c-.45.63-1.71.14-3.31-1s-1.14-2.41-1.14-2.41c0,0,2.01-.68,3.61.46,1.6,1.14,1.28,2.32.83,2.96Z" style="fill:#618400;"/><path d="M31.69,225.45c-.77-.12-.87-1.47-.55-3.41.32-1.94,1.67-2.08,1.67-2.08,0,0,1.5,1.51,1.18,3.45-.32,1.94-1.53,2.17-2.29,2.04Z" style="fill:#618400;"/><path d="M37.81,215.46c-.23-.83-1.88-1.1-3.7-.61-.34.09-.66.21-.96.34.78-1.4,2.45-2.17,1.72-2.38-.83-.24-3.96,0-4.49,1.8-.18.6-.28,1.12-.32,1.54-.29-.27-.67-.57-1.14-.9-1.56-1.05-4.12.77-4.61,1.49-.43.65,1.44.12,2.96.77-.39.1-.81.24-1.22.44-1.71.79-2.79,2.07-2.43,2.85.36.78,1.73.27,3.44-.52,1.03-.48,1.94-.94,2.43-1.42-.02.42.07.86.27,1.31.53,1.15,1.39.87,2.24.48.85-.4,1.39-.77.86-1.91-.15-.32-.35-.6-.57-.82.67.08,1.6-.03,2.59-.31,1.81-.51,3.16-1.33,2.93-2.17Z" style="fill:#bacf86;"/><path d="M51.02,213.61c-.35-.02-.69,0-1.01.02,1.17-1.1,3-1.31,2.37-1.73-.71-.48-3.77-1.22-4.83.34-.36.52-.61.98-.78,1.37-.19-.35-.46-.75-.81-1.2-1.17-1.48-4.16-.53-4.84,0-.61.48,1.33.56,2.58,1.65-.4-.02-.84-.01-1.29.04-1.87.23-3.29,1.11-3.19,1.97.1.86,1.57.78,3.43.56,1.13-.15,2.14-.31,2.75-.6-.14.4-.2.85-.14,1.32.15,1.26,1.05,1.26,1.99,1.15.94-.11,1.56-.3,1.4-1.56-.04-.35-.14-.67-.29-.95.61.28,1.53.46,2.55.51,1.88.09,3.41-.28,3.45-1.15.04-.87-1.45-1.64-3.33-1.72Z" style="fill:#b1c661;"/><path d="M45.65,218.99c-.46,0-.89.03-1.29.1,1.11-1.23,3.04-1.52,2.37-1.93-.73-.46-3.82-1.05-4.81.55-.3.49-.53.91-.67,1.29-.21-.37-.51-.79-.93-1.27-1.23-1.42-4.18-.35-4.84.21-.57.5,1.26.5,2.55,1.46-.32.02-.66.04-1.01.1-1.86.3-3.25,1.23-3.11,2.09.14.85,1.7,1.05,3.56.75,1.01-.16,1.9-.44,2.48-.79-.11.3-.17.63-.18.98-.01,1.27.63,1.38,1.57,1.39.94,0,1.83-.1,1.84-1.35,0-.48-.1-.93-.29-1.31.64.23,1.66.27,2.8.28,1.88.02,3.34-.07,3.35-.94,0-.88-1.51-1.59-3.39-1.61Z" style="fill:#c0cf7c;"/><path d="M30.21,216.81c.5-.23,1.01-.2,1.14.07s-.18.68-.68.91c-.5.23-1.01.2-1.14-.07-.13-.27.18-.68.68-.91Z" style="fill:#ffd93b;"/><path d="M46.78,214.18c.5-.06.92.05.94.25.03.2-.36.42-.85.48-.5.06-.92-.05-.94-.26-.02-.2.36-.42.86-.48Z" style="fill:#ffc639;"/><path d="M41.46,220.69c-.73,0-1.31-.25-1.31-.54,0-.3.59-.53,1.32-.52s1.31.25,1.31.55c0,.29-.59.53-1.32.52Z" style="fill:#ffdb45;"/><path d="M391.63,220.46c-.16.52-1.23.18-2.56-.22s-2.12-1.68-2.12-1.68c0,0,1.35-.63,2.69-.23,1.34.4,2.15,1.6,1.99,2.13Z" style="fill:#669303;"/><path d="M377.75,214.77c.14-.53,1.22-.21,2.56.15,1.34.36,2.17,1.61,2.17,1.61,0,0-1.35.67-2.69.31-1.34-.36-2.19-1.54-2.04-2.07Z" style="fill:#669303;"/><path d="M388.85,222.38c-.49.24-1.1-.48-1.73-1.73-.62-1.24.1-1.88.1-1.88,0,0,1.48.24,2.1,1.48.62,1.25.02,1.89-.47,2.13Z" style="fill:#618400;"/><path d="M380.47,212.78c.48-.26,1.12.45,1.77,1.68.65,1.23-.04,1.89-.04,1.89,0,0-1.49-.21-2.15-1.43-.65-1.23-.07-1.88.41-2.13Z" style="fill:#618400;"/><path d="M379.86,216.21c-.09-.6-1.23-.94-2.54-.75-.23.04-.48.09-.69.15.67-.92,1.9-1.31,1.41-1.52-.56-.24-2.78-.34-3.31.88-.18.42-.3.77-.35,1.06-.19-.23-.42-.47-.73-.73-1.01-.87-2.96.19-3.36.65-.35.42.99.21,2.01.8-.28.04-.58.1-.9.2-1.27.41-2.14,1.21-1.95,1.79.19.58,1.19.34,2.46-.07.77-.25,1.44-.5,1.83-.79-.05.29-.02.62.07.94.27.85.9.73,1.53.52s1.04-.42.77-1.27c-.07-.24-.19-.45-.33-.62.47.12,1.13.11,1.85,0,1.29-.19,2.31-.65,2.22-1.25Z" style="fill:#bacf86;"/><path d="M385.06,219.37c-.31-.04-.63-.05-.91-.04.9-.76,2.27-.8,1.83-1.15-.48-.38-2.59-1.06-3.42-.03-.26.32-.45.6-.58.85-.11-.28-.29-.6-.54-.98-.74-1.1-2.9-.6-3.41-.27-.45.3.84.46,1.66,1.24-.23-.02-.47-.03-.72-.02-1.33.05-2.4.58-2.37,1.19.02.61,1.1.88,2.43.83.73-.02,1.38-.15,1.81-.34-.1.2-.18.43-.21.68-.12.89.32,1.02.98,1.11s1.29.09,1.41-.79c.05-.34,0-.66-.09-.94.43.21,1.14.34,1.94.44,1.31.18,2.35.23,2.43-.37.08-.6-.92-1.24-2.24-1.41Z" style="fill:#bacf86;"/><path d="M389.29,216.05c-.24-.04-.48-.06-.71-.07.92-.67,2.22-.65,1.81-1.01-.46-.4-2.54-1.18-3.42-.18-.3.34-.52.64-.66.9-.1-.27-.25-.57-.47-.92-.69-1.15-2.88-.73-3.4-.43-.47.29.89.52,1.66,1.39-.27-.06-.59-.08-.9-.08-1.33,0-2.41.5-2.41,1.1s1.03.69,2.35.69c.81,0,1.53-.02,1.98-.19-.14.26-.22.58-.22.92,0,.9.63.98,1.3.98s1.12-.07,1.12-.98c0-.25-.05-.48-.12-.69.41.26,1.04.46,1.75.57,1.31.23,2.42.1,2.52-.51.1-.6-.88-1.26-2.19-1.49Z" style="fill:#b1c661;"/><path d="M374.4,216.53c.37-.12.73-.05.79.15.06.2-.18.46-.56.58-.37.12-.73.06-.79-.15-.07-.2.18-.46.56-.58Z" style="fill:#ffd93b;"/><path d="M386.26,216.09c.35,0,.65.12.65.26s-.29.26-.65.26-.64-.11-.64-.26c0-.14.29-.26.64-.26Z" style="fill:#ffc639;"/><path d="M381.94,220.21c-.52-.07-.9-.29-.87-.5.02-.21.46-.32.97-.25.51.07.9.29.87.5-.03.21-.46.32-.97.25Z" style="fill:#ffdb45;"/><path d="M408.96,246.24c.22.96-1.53,1.15-3.69,1.44-2.15.29-4.31-1.22-4.31-1.22,0,0,1.35-1.98,3.49-2.27,2.17-.29,4.28,1.09,4.5,2.05Z" style="fill:#669303;"/><path d="M383.9,255.22c-.96-.23-.38-1.88.3-3.94.67-2.06,2.96-3.31,2.96-3.31,0,0,1.2,2.08.53,4.14-.67,2.05-2.82,3.34-3.79,3.11Z" style="fill:#669303;"/><path d="M406.75,251.29c-.47.74-1.92,0-3.8-1.58-1.89-1.58-1.44-3.12-1.44-3.12,0,0,2.23-.64,4.12.94,1.88,1.58,1.59,3.02,1.12,3.76Z" style="fill:#618400;"/><path d="M380.3,251c-.46-.75.83-1.72,3.07-2.71,2.23-.99,3.43.09,3.43.09,0,0-.39,2.29-2.62,3.28-2.24.99-3.41.09-3.88-.66Z" style="fill:#618400;"/><path d="M396.01,246.55c-.38-.09-.74-.15-1.1-.18,1.6-1.12,3.64-1.02,3.1-1.67-.61-.75-3.67-2.28-5.31-.57-.55.58-.98,1.09-1.27,1.55-.09-.48-.25-1.03-.49-1.67-.79-2.07-4.31-1.51-5.21-.99-.81.48,1.25.97,2.24,2.57-.42-.11-.9-.19-1.4-.21-2.08-.1-3.9.7-4.06,1.79-.16,1.09,1.44,1.29,3.52,1.39,1.26.06,2.4.06,3.15-.18-.28.45-.48,1.01-.57,1.62-.23,1.59.73,1.77,1.77,1.81,1.04.06,1.77-.06,2-1.65.06-.44.06-.86,0-1.24.57.48,1.5.88,2.59,1.15,2,.49,3.76.35,4.08-.72.32-1.05-1.04-2.31-3.04-2.8Z" style="fill:#bacf86;"/><path d="M389.97,240.25c-.33-1.06-2.21-1.49-4.19-.96-.48.13-.92.3-1.31.5.69-1.82,2.59-2.74,1.73-3.05-.95-.34-4.44-.18-4.85,2.06-.12.69-.19,1.27-.19,1.77-.36-.4-.85-.82-1.48-1.28-1.85-1.39-4.54.78-5.01,1.67-.41.77,1.52.23,3.26,1.04-.34.1-.69.23-1.02.4-1.85.9-2.94,2.45-2.46,3.45.48,1,2.19.78,4.02-.12,1-.48,1.83-1.09,2.3-1.69.01.4.06.82.2,1.25.48,1.55,1.2,1.51,2.19,1.24.99-.27,1.9-.65,1.4-2.2-.19-.59-.48-1.11-.81-1.51.76.09,1.85-.15,3.06-.46,1.99-.52,3.49-1.06,3.16-2.12Z" style="fill:#b1c661;"/><path d="M402.72,241.34c-.36-.14-.72-.24-1.06-.31,1.6-.98,3.56-.61,3.06-1.36-.57-.84-3.5-2.77-5.13-1.2-.56.53-.98,1.01-1.28,1.44-.07-.51-.21-1.09-.43-1.77-.7-2.22-4.15-2.06-5.03-1.62-.8.4,1.19,1.14,2.1,2.9-.4-.16-.86-.3-1.35-.38-2.02-.34-3.8.27-3.99,1.37-.19,1.1,1.36,1.49,3.38,1.84,1.23.21,2.33.34,3.06.18-.28.44-.5.98-.6,1.6-.27,1.6.65,1.9,1.67,2.08,1.01.17,1.73.15,1.99-1.46.07-.45.08-.88.02-1.28.54.56,1.44,1.08,2.48,1.48,1.92.73,3.64.79,3.98-.27.33-1.04-.95-2.49-2.87-3.23Z" style="fill:#c0cf7c;"/><path d="M392.15,247.23c-.05.38-.59.66-1.2.63-.6-.02-1.06-.35-1.01-.73.06-.38.6-.66,1.21-.63.61.02,1.06.35,1.01.73Z" style="fill:#ffd93b;"/><path d="M398.11,240.62c.54.09.94.37.9.63-.04.26-.52.39-1.05.3-.54-.09-.94-.37-.9-.63.05-.26.52-.39,1.05-.3Z" style="fill:#ffc639;"/><path d="M380.44,242.32c.11.36.83.49,1.59.29.77-.2,1.3-.66,1.19-1.02-.11-.36-.82-.49-1.59-.29-.77.2-1.3.66-1.19,1.02Z" style="fill:#ffdb45;"/><path d="M17.79,327.75c-.23,1,1.48,1.01,3.58,1.09,2.09.08,4.2-1.67,4.2-1.67,0,0-1.29-1.86-3.38-1.94-2.09-.08-4.17,1.52-4.39,2.52Z" style="fill:#669303;"/><path d="M52.69,327.91c.63-.81-.89-1.56-2.73-2.53-1.84-.97-4.47-.29-4.47-.29,0,0,.35,2.26,2.19,3.23,1.84.97,4.38.41,5.01-.4Z" style="fill:#669303;"/><path d="M19.9,332.65c.45.7,1.87-.19,3.72-1.98,1.85-1.79,1.43-3.3,1.43-3.3,0,0-2.17-.43-4.02,1.35-1.85,1.79-1.58,3.22-1.13,3.92Z" style="fill:#618400;"/><path d="M52.9,322.55c-.1-.83-1.76-.63-4.18.2-2.42.83-2.69,2.39-2.69,2.39,0,0,1.76,1.32,4.18.5,2.42-.83,2.79-2.25,2.69-3.08Z" style="fill:#618400;"/><path d="M39.67,327.79c-.15-1.14-1.85-1.99-3.79-1.89-.47.02-.91.1-1.31.22.93-1.69,2.86-2.2,2.1-2.7-.84-.55-4.14-1.14-4.88,1.04-.23.67-.38,1.24-.46,1.75-.28-.48-.68-1.02-1.19-1.63-1.53-1.8-4.39-.19-4.96.6-.5.69,1.39.58,2.9,1.77-.33.02-.68.09-1.03.19-1.87.52-3.14,1.85-2.85,2.96.3,1.12,1.94,1.27,3.81.76,1.02-.28,1.89-.7,2.42-1.21-.06.4-.06.84,0,1.31.22,1.67.9,1.78,1.87,1.73.98-.06,1.88-.24,1.66-1.92-.08-.65-.28-1.23-.54-1.7.7.26,1.77.26,2.95.19,1.95-.12,3.44-.33,3.29-1.48Z" style="fill:#bacf86;"/><path d="M44.92,322.78c-.32-.18-.65-.32-.96-.43,1.62-.85,3.43-.28,3.04-1.1-.44-.93-2.95-3.21-4.68-1.76-.58.48-1.04.94-1.38,1.35,0-.52-.07-1.15-.19-1.85-.39-2.36-3.64-2.54-4.53-2.18-.8.32.98,1.29,1.62,3.2-.36-.21-.78-.4-1.23-.52-1.86-.56-3.61-.1-3.92,1.02-.31,1.11,1.09,1.69,2.95,2.23,1.12.33,2.15.59,2.86.48-.32.42-.59.97-.77,1.59-.45,1.63.39,2.03,1.32,2.31.93.28,1.6.32,2.06-1.31.13-.45.18-.9.19-1.31.44.63,1.21,1.26,2.15,1.77,1.72.95,3.32,1.18,3.77.12.45-1.05-.58-2.68-2.3-3.63Z" style="fill:#b1c661;"/><path d="M33.04,321.18c-.17-1.15-1.85-1.8-3.73-1.44-.46.09-.88.23-1.27.4.86-1.85,2.72-2.64,1.97-3.06-.83-.46-4.04-.63-4.7,1.71-.2.71-.33,1.32-.4,1.85-.28-.45-.68-.95-1.19-1.51-1.53-1.65-4.26.38-4.8,1.27-.47.77,1.37.4,2.86,1.43-.32.07-.66.18-.99.33-1.8.77-3,2.3-2.68,3.41.32,1.1,1.92,1.06,3.72.27.98-.42,1.81-.97,2.32-1.56-.05.42-.04.88.03,1.35.25,1.69.92,1.71,1.86,1.53.95-.19,1.82-.49,1.56-2.19-.1-.65-.3-1.23-.57-1.68.68.17,1.72.03,2.86-.19,1.89-.34,3.33-.76,3.16-1.91Z" style="fill:#c0cf7c;"/><path d="M30.65,327.86c.05.4.56.69,1.13.66.57-.02.99-.38.94-.77-.05-.4-.56-.69-1.13-.66-.57.03-.99.38-.94.77Z" style="fill:#ffd93b;"/><path d="M24.24,322.07c.04.27.48.41.98.31.5-.1.88-.4.83-.67s-.48-.41-.98-.31c-.5.1-.88.39-.83.67Z" style="fill:#ffc639;"/><path d="M41.61,322.68c-.1.38-.77.52-1.49.31-.72-.21-1.21-.69-1.11-1.07.11-.38.77-.52,1.49-.31.72.21,1.21.69,1.1,1.07Z" style="fill:#ffdb45;"/><path d="M372.61,260.4c-.21-.12-.42-.2-.63-.27,1.05-.55,2.23-.19,1.98-.71-.28-.6-1.9-2.07-3.02-1.14-.39.32-.68.61-.9.89,0-.35-.04-.73-.12-1.21-.25-1.52-2.35-1.64-2.93-1.4-.52.21.63.83,1.05,2.06-.23-.14-.5-.25-.79-.34-1.2-.35-2.33-.06-2.53.65-.19.72.7,1.09,1.9,1.44.73.22,1.4.38,1.85.31-.21.27-.39.62-.5,1.03-.29,1.05.25,1.31.85,1.49.6.18,1.03.21,1.33-.85.08-.3.11-.59.11-.85.28.4.79.81,1.39,1.15,1.11.61,2.15.77,2.44.08.28-.66-.39-1.71-1.5-2.33Z" style="fill:#c0cf7c;"/><path d="M370.47,260.34c-.06.25-.49.33-.96.19-.46-.14-.77-.44-.71-.69.07-.25.5-.33.96-.2.46.14.78.45.71.7Z" style="fill:#ffdb45;"/><path d="M356.83,177.19s3.4-8,6.13-10.21,4.77-5.79,8.68-5.79,7.97-.29,9.43-.91,5.37,6.19,7.16,10.1,3.32,6.13-3.83,6.81-9.36-1.36-12.6,1.19-13.28,1.36-14.98-1.19Z" style="fill:#928d93;"/><path d="M459.98,84.08s6.64.34,8.34-3.06,2.72-9.36,2.72-12.09-1.19-9.7,0-10.55,2.72-1.7,3.4,1.02.51,9.02,1.36,8.68,3.62-3.4,4.19-4.43v7.16s-3.68.84-4.36,3.39,0,9.53-.68,11.23-10.21,11.06-11.91,10.55-5.62-10.72-3.06-11.91Z" style="fill:#4a2c12;"/><path d="M418.28,241.7s19.91-96.51,19.91-107.74,7.15-33.19,5.62-43.4,0-25.02-5.11-42.89,20.94-25.02,20.94-25.02c0,0,4.09,31.66,5.11,52.09s-1.02,69.45-3.06,90.89-6.13,70.47-2.04,76.09-14.3,15.32-22.47,13.79-18.89-13.79-18.89-13.79Z" style="fill:#a26143;"/><path d="M425.94,56s-3.06,13.28-3.4,16.34-1.7,5.79,0,14.64,2.38,16,5.45,21.11,6.09,9.77,8.85,11.91,4.09,3.06,8.17,5.79,7.15,8.17,1.7,9.53-9.87-2.04-12.6-5.79-13.28-21.11-13.96-24.85-.68-21.62-1.87-24.17-3.23-8.85-4.77-11.91-8-5.62-9.7-7.49-4.94-8-4.94-9.7,2.89.34,3.74,2.89,1.19,3.74,3.23,5.11,6.3,5.45,6.13,3.91-1.19-4.94-1.87-6.81-.85-3.23,0-3.57,1.53.34,2.38,2.04,1.19,5.96,1.53,7.66,1.19,6.64,2.04,7.66,2.89,6.64,3.57,4.26,1.87-10.04,2.21-13.45-1.87-7.83.17-9.36,4.23,2.89,3.91,4.26Z" style="fill:#4a2c12;"/><path d="M462.83,50.78c-8.63.13-21.24,9.01-27.02,6.77s-15.32,2.53-17.53,1.85-12.77-6.13-13.79-7.15-1.2,6.42-16.26,2.87c-15.06-3.55-15.52-11.38-14.95-14.44s-24.28-5.45-23.94-18.04S355.47-.17,367.72,0s112.28,0,112.28,0v70.82s-6.63-9-10.43-13.27.88-6.89-6.74-6.77Z" style="fill:#49490d;"/><path d="M400.4,43.06c-5.34,6.41-18.15-6.81-17.93-12.26s-1.13-21.79,4.82-21.45,2.55,8.17,6.3,13.28,12.26,4.77,16.34,0,7.19-11.23,14.32-3.74,10.19,12.94,3.38,18.72-23.83,1.36-27.23,5.45Z" style="fill:#6b7016; opacity:.65;"/><path d="M480,46.47s-14.21-9.19-20.86-6.81-9.29-13.28-9.5-17.02-2.15-7.83-7.99-10.89S447.04.05,447.04.05l32.96-.05v46.47Z" style="fill:#9f9b16; opacity:.65;"/></svg>