<?xml version="1.0" encoding="UTF-8"?>
<svg id="Layer_1" data-name="Layer 1" xmlns="http://www.w3.org/2000/svg" viewBox="0 0 1044 1367" width="80px" height="101px">
  <defs>
    <style>
      .cls-1 {
        fill: #020202;
      }

      .cls-1, .cls-2, .cls-3, .cls-4, .cls-5, .cls-6, .cls-7, .cls-8, .cls-9, .cls-10, .cls-11, .cls-12, .cls-13, .cls-14, .cls-15, .cls-16, .cls-17, .cls-18, .cls-19, .cls-20, .cls-21, .cls-22 {
        stroke-width: 0px;
      }

      .cls-2 {
        fill: #030505;
      }

      .cls-3 {
        fill: #fcfcfc;
      }

      .cls-4 {
        fill: #363735;
      }

      .cls-5 {
        fill: #005ebe;
      }

      .cls-6 {
        fill: #030507;
      }

      .cls-7 {
        fill: #005cba;
      }

      .cls-8 {
        fill: #fbc900;
      }

      .cls-9 {
        fill: #45b3fd;
      }

      .cls-10 {
        fill: #0097fb;
      }

      .cls-11 {
        fill: #fc9700;
      }

      .cls-12 {
        fill: #0098fd;
      }

      .cls-13 {
        fill: #fdfdfd;
      }

      .cls-14 {
        fill: #fcfc00;
      }

      .cls-15 {
        fill: #979797;
      }

      .cls-16 {
        fill: #fdfd00;
      }

      .cls-17 {
        fill: #fac801;
      }

      .cls-18 {
        fill: #fc8200;
      }

      .cls-19 {
        fill: #fcc900;
      }

      .cls-20 {
        fill: #005dbd;
      }

      .cls-21 {
        fill: #0097fc;
      }

      .cls-22 {
        fill: #005dbc;
      }
    </style>
  </defs>
  <path class="cls-2" d="M1012.1,134.5c-1.27,5.4-2.19,10.92-3.87,16.19-3.02,9.47-6.63,18.75-9.7,28.21-.82,2.52-1.29,5.52-.76,8.06,12.89,61.45,3.26,118.81-31.79,171.19-13.51,20.19-31.3,36.73-49.95,52.18-19.26,15.96-39.9,29.94-61.83,42.01-1.27.7-2.25,3.42-2.06,5.05,3.34,28.1,6.89,56.18,10.4,84.26,3.84,30.72,7.71,61.44,11.54,92.17,1.46,11.73,2.87,23.46,4.3,35.2,2.05,16.84-7.54,31.02-23.93,35.3-4,1.05-8.05,1.94-12.11,2.92.98,8.48,2.03,16.68,2.85,24.91,2.06,20.43-.23,40.56-4.5,60.51-1.42,6.65-3.68,13.13-5,19.8-1.21,6.12-2.49,12.42-2.29,18.59.68,20.81.65,41.78,3.42,62.35,3.76,27.85-3.03,53.45-12.46,78.85-17.79,47.95-47.22,87.98-84.83,123.04,1.29,1.5,2.4,2.85,3.56,4.15,31.09,35.01,62.17,70.02,93.29,105,4.59,5.16,7.03,11.26,7.71,17.95.96,9.4-3.81,15.31-12.94,17.12-66.06,13.1-132.11,26.26-198.17,39.4-4.08.81-8.19,1.5-12.2,2.57-4.04,1.07-6.81-.09-9.59-3.23-27.9-31.6-55.94-63.07-83.93-94.59-14.16-15.94-28.32-31.89-42.61-47.99-3.81,4.17-7.58,8.29-11.67,12.78-.07-.09.5.65,1.12,1.35,31.97,36.01,64.08,71.88,95.8,108.11,7.01,8,9.78,20.27,3.89,28.01-1.71,2.24-4.62,4.37-7.32,4.92-37.46,7.7-74.98,15.13-112.49,22.6-33.76,6.72-67.52,13.42-101.28,20.15-.57.11-1.06.6-1.59.91h-3c-8.8-9.69-17.69-19.3-26.39-29.09-47.94-53.92-95.89-107.84-143.66-161.91-3.75-4.25-7.14-9.34-8.98-14.63-3.05-8.78,2.89-17.47,11.91-19.26,40.62-8.05,81.23-16.14,121.86-24.14,2.49-.49,3.6-1.33,3.78-4.11,1.63-26.29,10.98-50.2,23.55-72.91,9.52-17.2,20.02-33.87,34.81-47.21,4.67-4.21,10.12-7.53,15.01-11.51,1.28-1.04,2.6-3.05,2.53-4.55-.72-14.64-1.59-29.28-2.74-43.9-.29-3.72-1.21-7.58-2.71-11-11.79-26.82-15.13-55.08-13.8-83.94.37-8.06-3.68-11.47-8.54-14.64-2.63,8.25-4.32,16.83-8.01,24.42-7.12,14.67-19.77,24.09-34.95,28.62-13.52,4.04-25.69-1.48-35.29-11.36-5.48-5.64-9.86-12.34-14.78-18.61-2.05,13.94-2.94,28.29-.02,42.66,2.66,13.08-4.8,19.93-17.66,16.01-21.55-6.57-38.99-18.81-52.36-37.07-12.96-17.71-12.92-36.74-6.67-56.55,3.38-10.71,8.58-20.49,16.63-29.76-6.85-.54-13.01-.95-19.16-1.52-24.7-2.32-49.61-3.36-74.03-7.39-27.16-4.48-50.67-17.37-67.31-40.08-11.51-15.71-14.16-39.87,3.26-57.58,18.21-18.52,38.77-34.08,59.93-48.85,36.89-25.75,76.33-47.18,116.85-66.6,3.96-1.9,4.33-3.63,3.32-7.46-9.38-35.51-18.9-70.99-27.65-106.66-4.36-17.77-.11-26.35,16.42-32.1,17.2-5.99,35.11-10.04,52.88-14.25,57.42-13.61,114.93-26.88,172.37-40.42,2.59-.61,5.24-2.19,7.21-4.01,15.52-14.37,30.88-28.92,45.84-42.99,6.01,5.78,12.18,11.72,18.16,17.48-4.68,4.85-9.6,9.95-14.52,15.05.17.37.34.74.51,1.11,61.96-14.47,123.92-28.94,186.53-43.57-14.56-13.49-30.5-24.4-47.72-34.36,4.54-7.56,8.95-14.9,13.5-22.47,16.75,9.28,32.14,19.95,46.31,32.31,7.4,6.45,14.15,13.64,21.49,20.17,2.31,2.05,5.46,3.34,8.43,4.45,7.11,2.65,14.84,4.05,21.43,7.6,24.13,13.02,47.74,27.02,71.88,40.03,12.64,6.82,20.51,15.94,20.53,30.85,0,3.62.85,7.23,1.44,11.87,20.19-12.91,37.92-27.66,51.11-47.18,18.11-26.8,28.49-56.12,27.62-88.54-9.71.8-18.98,2.34-28.22,2.17-21.21-.39-41.31-5.09-58.1-19.07-11.16-9.29-16.93-21.24-15.74-35.99.86-10.61,7.83-17.61,15.78-23.16,8.27-5.77,17.42-10.26,26.17-15.34,3.78-2.19,7.72-2.27,11.43-.29,5.54,2.96,11.16,5.91,16.24,9.58,8.23,5.93,16,12.49,24.06,18.67,1.96,1.5,4.18,2.76,6.45,3.74,12.02,5.16,22.4-2.72,20.46-15.78-1.77-11.94-8.23-21.8-16.04-30.51-5.85-6.52-12.77-12.1-19.45-17.83-5.9-5.07-11.39-10.38-13.18-18.26-2.42-10.7,1.45-19.74,8.55-27.39,11.09-11.94,24.73-19.44,40.94-22.04.53-.09.99-.62,1.49-.95,1.67,0,3.33,0,5,0,.82.33,1.63.71,2.47.97,6.14,1.93,12.67,3.08,18.38,5.89,19.49,9.6,31.8,25.94,39.55,45.68,3.45,8.79,5.12,18.29,7.6,27.47v22ZM403.33,1148.72c3.77-.52,7.66-.64,11.28-1.7,2.27-.66,4.91-2.25,6.08-4.21,30.93-51.48,61.69-103.05,92.47-154.62,1.75-2.94,3.39-5.95,5.42-9.53-5.04.74-9.27,1.63-13.53,1.91-5.76.37-9.57,2.59-10.99,8.57-.64,2.69-2.13,5.24-3.52,7.69-21.15,37.14-42.28,74.29-63.57,111.36-7.77,13.54-15.94,26.85-23.92,40.27-.14.2-.28.41-.42.61.24-.11.47-.23.71-.34ZM757.06,837.66c-16.87,2.77-33.73,5.54-50.85,8.35.75,14.36,1.48,28.28,2.24,42.68,39.79-7.01,79.18-13.95,118.88-20.95-.75-14.02-1.48-27.45-2.22-41.22-10.61,1.77-20.75,3.47-30.88,5.16.33-3.48.67-6.95,1-10.43,9.35-1.46,18.73-2.79,28.03-4.51,1.46-.27,3.34-2.06,3.75-3.51,2.43-8.45,4.79-16.94,6.59-25.54,4.16-19.78,5.8-39.74,3.16-60.51-44.34,6.61-88.44,13.19-132.88,19.82,3.42,29.99,3.13,59.51-.19,89.54,18.16-3.05,35.64-5.99,53.13-8.93.07,3.35.15,6.7.22,10.04ZM527.14,883.56c.33-3.38.66-6.76,1-10.14,9.03-1.43,18.04-2.99,27.09-4.22,3.02-.41,4.02-2.04,4.8-4.6,6.91-22.74,10.86-45.93,10.44-69.75-.09-5.07-.6-10.13-.9-15.09-45.58,3.88-88.78,15.83-131.91,26.58v81.99c16.55-2.69,33.94-5.52,51.32-8.34.33,3.27.65,6.54.98,9.81-16.88,2.71-33.75,5.41-51.18,8.21.76,14.4,1.5,28.42,2.25,42.76,39.95-7.03,79.22-13.94,118.82-20.91-.72-13.9-1.42-27.41-2.13-41.19-10.59,1.7-20.59,3.3-30.59,4.91ZM322.82,736.78c.49.14.97.28,1.46.42-.11-.39-.21-.78-.32-1.16-16.77-23.7-37.25-41.9-67.3-46.56-40.44-6.27-81.17-7.83-122-8.05-.95,0-2.09.15-2.81.68-5.75,4.22-11.58,8.35-17.05,12.91-3.3,2.75-6.06,7.03-3.59,10.93,1.7,2.69,5.99,4.61,9.4,5.17,7.85,1.3,15.86,1.8,23.83,2.2,43.91,2.2,87.78,4.93,131.34,11.2,16.13,2.32,32.34,4.42,47.03,12.26ZM731.59,281.89c-.43-.04-.85-.08-1.28-.11.17.33.34.67.51,1,6.63,9.25,13.25,18.5,20,27.91-7.76,5.25-14.76,9.98-21.35,14.44-8.96-11.48-17.14-23.05-26.45-33.65-13.9-15.83-8.27-14.17-28.97-9.49-63.26,14.3-126.34,29.41-189.46,44.33-2.6.62-5.29,2.02-7.31,3.79-15.19,13.26-30.1,26.84-45.35,40.02-9.9,8.56-20.22,16.62-30.61,25.11-5.7-6.97-11.05-13.53-16.59-20.31,13.64-11.31,27.12-22.49,40.6-33.67-1.9-.66-3.19-.45-4.47-.15-59.28,13.84-118.58,27.53-177.79,41.65-10.76,2.56-21.42,6.13-31.54,10.57-8.04,3.53-7.61,8.28.07,12.65,26.04,14.8,52.14,29.48,78.09,44.43,9.06,5.22,18.75,7.48,29,8.08,18.46,1.09,36.54-.98,54.4-5.75,4.18-1.12,6.86-3.07,9.25-6.59,13.61-20.08,31.73-35.04,53.89-44.65,36.72-15.93,72.93-13.04,108.5,4.31,2.28,1.11,5.46,1.46,7.93.89,13.93-3.24,27.8-6.72,41.59-10.52,2.57-.71,5.34-2.74,6.83-4.96,32.32-47.95,93.5-67.33,146.74-44.78,12.34,5.23,22.97,6.04,35.01,1.87,10.34-3.58,20.97-6.32,31.29-9.97,2.49-.88,4.23-3.87,6.32-5.88-2.07-1.77-3.91-3.94-6.24-5.26-24.6-13.95-49.27-27.8-73.96-41.58-2.73-1.52-5.77-2.5-8.66-3.72ZM773.8,360.3c28.2,22.67,45.9,50.33,48.9,85.93,2.97,35.18-6.32,66.67-30.48,93-22.25,24.24-49.72,38.36-82.81,39.88-40.4,1.86-74.15-12.55-100.67-43.93-10.53,71.64-83.58,119.36-154.13,100.87-33.13-8.68-58.29-27.91-75.81-56.97-22.39-37.15-22.34-75.92-6.38-116.1-2.32.43-4.05.79-5.79,1.06-7.88,1.22-15.75,2.62-23.66,3.56-7.24.86-11.09,3.69-11.69,11.03-.54,6.58-.73,13.41.41,19.88,4.95,28.18,10.37,56.28,15.73,84.38,13.18,69.12,26.44,138.22,39.6,207.35,2.83,14.88,5.88,17.07,20.49,13.5,147.81-36.11,295.61-72.23,443.41-108.36,13.11-3.2,19.68-12.79,18-26.34-5.65-45.59-11.3-91.19-17.06-136.77-7.24-57.3-14.58-114.6-21.91-171.89-.81-6.32-1.82-12.62-2.85-19.73-7.54,7.25-16.25,10.03-25.08,12.44-8.95,2.44-17.97,4.61-28.22,7.22ZM601.51,514.23c.76-60.77-51.52-113.08-113.09-114.72-58.55-1.57-116.49,45.19-118.78,113.18-1.92,57.05,43.59,116.52,113.01,118.9,58.95,2.02,119.62-45.77,118.86-117.35ZM694.76,570.7c33.53-.21,52.44-6.04,73.35-21.17,44.13-31.91,56.54-84.9,39.85-130.51-18.43-50.34-69.63-79.92-122.84-72.27-48.96,7.04-89.43,48.77-94.68,97.73-.18,1.71-.14,3.85.72,5.2,13.66,21.61,19.79,45.17,18.97,70.66-.06,1.78.84,3.92,1.97,5.37,22.91,29.39,52.78,44.91,82.68,44.98ZM184.84,1116.93c.97,1.28,1.5,2.09,2.13,2.79,53.54,60.3,107.1,120.57,160.6,180.91,1.87,2.11,3.48,2.68,6.38,2.1,52.99-10.66,106.02-21.15,159.04-31.68,16.23-3.23,32.45-6.49,49.44-9.89-32.38-36.44-64.26-72.33-96.11-108.18-8.48,6.84-8.53,6.83-8.97,16.9-.48,10.98-.98,21.97-1.2,32.96-.08,4.16-1.5,6.52-5.73,7.3-29.27,5.43-58.52,11.02-87.82,16.29-2.09.37-5.38-.79-6.76-2.4-17.91-20.85-35.62-41.87-53.23-62.98-1.56-1.87-2.9-4.73-2.81-7.06.63-15.31,1.51-30.61,2.71-45.89.4-5.08-1.25-11.03,5.12-14.45-.32-.32-.64-.64-.96-.96-40.35,8.03-80.69,16.06-121.83,24.25ZM734.07,1101.24c-7.38,3.2-9.41,8.56-9.28,16.03.18,11.3-1.05,22.62-1.31,33.95-.1,4.43-2.11,6.18-6.11,6.92-28.95,5.39-57.88,10.85-86.8,16.34-3.27.62-5.57-.15-7.82-2.83-17.51-20.97-35.24-41.76-52.69-62.78-1.72-2.07-2.89-5.37-2.78-8.04.53-13.48,1.3-26.96,2.53-40.39.6-6.53-1.9-13.89,4.43-19.44-7.68,1.11-14.94,2.66-22.26,3.92-3.09.53-4.71,1.98-6.14,4.85-8.89,17.91-18.64,35.33-31.25,50.97-4.87,6.04-9.75,12.07-14.64,18.11.94,1.09,1.59,1.84,2.25,2.59,36.95,41.61,73.97,83.16,110.76,124.91,3.42,3.88,6.39,4.84,11.36,3.83,54.45-11.04,108.94-21.83,163.42-32.7,13.77-2.74,27.53-5.51,42.12-8.42-32.41-36.48-64.23-72.3-95.8-107.83ZM383.03,801.79c.35-.44.71-.87,1.06-1.31-.62-2.22-1.41-4.41-1.84-6.67-6.42-33.64-12.76-67.31-19.18-100.95-10.82-56.67-21.74-113.33-32.52-170.01-1.96-10.29-4.16-20.61-4.91-31.01-.56-7.67,1.05-15.49,1.72-23.5-1.24,0-3.41.12-5.56-.02-12.18-.82-24.13-2.34-35.03-8.64-20.18-11.66-40.5-23.08-60.77-34.59-6.12-3.48-12.27-6.92-19.45-10.96,9.52,36.54,18.71,71.85,28,107.5,7.98-3.2,15.62-5.97,23-9.34,4.49-2.05,7.99-1.56,11.99,1.2,15.91,10.95,31.95,21.72,48.08,32.35,3.44,2.27,5.08,5.04,5.21,8.99.14,4.33-.1,8.74.69,12.96,1.02,5.45-1.1,8.22-5.79,10.58-18.73,9.44-37.29,19.2-55.93,28.81-2.51,1.29-4.45,2.43-3.5,6.01,6.12,22.98,12.02,46.01,18.14,68.99.4,1.51,1.77,3.26,3.16,3.92,34.29,16.45,56.68,43.91,69.85,78.63,3.95,10.4,8.93,18.32,17.57,24.6,5.47,3.97,10.68,8.29,16.01,12.45ZM309.7,551.37c-14.62-9.85-28.51-19.02-42.16-28.53-3.45-2.4-6.18-2.47-9.98-.98-43.64,17.19-84.42,39.93-124.32,64.29-26.91,16.43-52.1,35.31-75.46,56.51-6.74,6.11-13.44,12.52-15.86,21.93-5.15,20.01,12.73,48.57,34.34,54.32-3.75-17.75,3.64-31.55,16.32-42.57,10.39-9.03,21.5-17.4,33.02-24.94,49.21-32.2,101.66-58.59,154.08-84.99,9.76-4.92,19.54-9.8,30.02-15.04ZM857.02,144.45c-.43-.3-.86-.6-1.29-.9-7.21,4.94-14.6,9.66-21.61,14.88-12.89,9.6-10.73,23.83-4.4,33.83,7.88,12.47,20.29,18.38,33.82,22.22,18.16,5.16,36.42,5.55,54.69.27,5.1-1.47,7.18-.02,7.91,5.16.44,3.12.94,6.28.91,9.42-.33,34.28-11.82,64.87-31.56,92.45-13.55,18.94-31.26,33.57-50.81,46.01-2.37,1.51-4.07,2.87-3.52,6.25,1.31,8.05,2.17,16.17,3.24,24.26.8,6.02,1.64,12.04,2.53,18.56,29.27-16.69,56.39-34.95,79.19-59.01,12.25-12.93,22.1-27.5,28.82-44.03,13.37-32.92,17.12-67.23,14.02-102.4-.47-5.39-1.88-10.69-2.87-16.07-1.35.17-2.03.16-2.65.36-28.26,8.72-54.61,3.48-79.56-11.13-15.32-8.97-27.3-20.39-26.87-40.13ZM552.49,1036.81c7.18-1.42,14.26-2.83,20.68-4.1,1.26-8.19,1.94-15.84,3.66-23.24,7.21-31.11,21.83-58.73,40.85-84.12,8.03-10.72,17.31-20.28,29.07-27.01,2.68-1.53,3.62-3.17,3.38-6.25-1.11-14.28-1.86-28.59-3.02-42.86-.3-3.72-1.04-7.61-2.55-10.98-6.92-15.5-10.88-31.72-12.51-48.53-.97-10.03-1.62-20.09-2.43-30.44-17.48,4.27-34.87,8.53-52.06,12.73-.26.64-.51.94-.49,1.23.32,4.48.74,8.96,1,13.44,1.64,28.43-2.87,56.03-11.34,83.08-.64,2.03-1.29,4.22-1.19,6.3.97,20.3,1.38,40.66,3.36,60.86,2.22,22.75,2.38,45.11-5,67.01-3.65,10.82-7.46,21.59-11.37,32.89ZM313.53,558.61c-1.3.52-2.67.98-3.96,1.61-51.73,25.56-103.41,51.25-152.96,80.87-18.81,11.24-36.67,24.15-54.46,36.99-8.97,6.47-16.52,14.96-18.38,26.46-2.53,15.65,2.09,22.29,13.72,25.08,7.58,1.82,15.2,3.96,22.92,4.64,34.67,3.04,69.37,5.6,104.06,8.35,11.78.93,23.58,1.77,35.34,2.98,1.77.18,4.07,1.83,4.78,3.4.5,1.1-1.07,3.4-2.13,4.87-1.55,2.12-3.75,3.79-5.19,5.97-10.38,15.69-17.72,32.75-21.7,51.13-3.25,14.97-3.95,30,1.29,44.82,1.93,5.45,5.94,8.32,11.23,9.54,4.6,1.06,5.97-.23,5.01-4.86-2.84-13.71-2.6-27.49-.98-41.27,2.1-17.85,6.79-34.91,16.44-50.31,7.85-12.52,18.06-17.6,30.02-14.44,10.28,2.71,18.87,8.38,25.11,17.05,9.79,13.59,8.97,26.46-2.22,38.95-2.44,2.72-4.98,5.42-7.79,7.74-4.73,3.92-9.84,7.39-14.52,11.37-1.26,1.07-1.97,3.28-2.04,5-.03.64,2.44,1.91,3.83,1.99,3.12.18,6.62.64,9.36-.49,18.17-7.52,31.11-19.65,33.77-40.27,1.66-12.87,1.31-25.52-7.65-35.93-6.88-7.99-14.99-15.33-25.19-18.26-13.67-3.92-27.72-7.41-41.83-8.82-40.58-4.06-81.27-6.97-121.91-10.38-10.11-.85-20.3-1.22-30.28-2.91-16.01-2.71-20.93-17.15-10.06-29.19,4.07-4.5,8.97-8.49,14.08-11.78,59.53-38.26,121.74-71.8,184.58-104.2,9.14-4.71,9.19-4.62,8.11-14.92-.02-.14-.13-.28-.39-.78ZM865.78,140.14c-2.36,12.26,1.37,22.75,11.07,30.11,25.04,19.01,52.54,27.42,83.83,18.29,9.53-2.78,10.86-1.91,13.46,7.8.43,1.6.69,3.25.98,4.88,3.92,22.21,2.95,44.41.06,66.64-6.15,47.15-27.72,85.52-64.77,115.36-18.47,14.87-37.97,28.13-58.66,39.68-1.97,1.1-4.23,1.83-3.63,5.07.95,5.16,1.48,10.39,2.26,16.09,1.79-.9,3.18-1.41,4.37-2.23,18.92-12.99,38.37-25.27,56.54-39.24,18.38-14.13,34.99-30.59,47.87-50.01,33.63-50.67,42.41-106.04,29.75-165.22-.7-3.29,0-7.15.98-10.47,3.73-12.55,9.39-24.72,11.51-37.5,5.84-35.18-4.22-65.25-32.85-87.76-8.25-6.49-17.89-10.07-28.76-9.51-3.54.18-5.05,1.88-5.68,5.01-.86,4.23-.14,7.75,3.5,10.64,8.61,6.83,17.26,13.63,25.53,20.87,20.55,17.99,25.1,41.02,19.9,66.7-3.02,14.9-12.58,23.89-27.22,27.23-7.43,1.69-15.02,2.83-22.59,3.7-10.5,1.22-20.2-1.36-28.66-7.78-7.83-5.93-15.38-12.22-23.25-18.09-4.72-3.52-9.83-6.53-15.52-10.27ZM644.23,1121.67c1.39-2.03,2.47-3.48,3.41-5.02,19.28-31.49,38.95-62.76,57.7-94.56,15.96-27.06,31.06-54.63,46.14-82.2,3.91-7.15,6.33-15.12,9.43-22.72-.39-.53-.78-1.06-1.18-1.59-5.86.52-11.82.5-17.55,1.67-19.56,4-34.27,15.88-46.56,30.75-22.65,27.42-40.06,57.94-51.95,91.51-6.72,18.97-11.45,38.29-8.51,58.65,1.18,8.21,2.76,16.38,9.06,23.52ZM376.64,1173.95c1.4-2.04,2.49-3.49,3.44-5.04,19.03-31.05,38.43-61.88,56.94-93.24,16.14-27.33,31.46-55.15,46.71-82.99,4.06-7.41,6.53-15.69,9.92-24.06-10.69-1.61-19.73.09-28.52,3.45-15.36,5.88-27.44,16.26-37.63,28.78-22.32,27.45-39.65,57.79-51.46,91.2-5.92,16.73-10.1,33.81-8.93,51.74.69,10.49,2.28,20.81,9.53,30.15ZM413.65,1169.93c14.03-.71,25.36-5.97,35.26-13.64,33.13-25.68,60.39-56.68,81.04-93.19,16.48-29.14,28.94-59.83,32.73-93.48.88-7.76,1.03-15.37-5.7-21.14-3.4-2.91-6.3-3.08-9.04.94-5.61,8.25-11.84,16.11-16.98,24.63-38.52,63.97-76.83,128.05-115.2,192.11-.58.96-1.11,1.95-2.13,3.77ZM681.21,1117.85c14.02-.73,25.06-6.36,35.29-13.63,16.25-11.55,29.75-26.09,43.06-40.81,31.7-35.06,53.97-75.34,65.94-121.05,2.88-10.98,3.88-22.59,4.42-33.97.19-3.94-3.12-8.48-5.79-12.01-2.49-3.29-5.92-3.03-8.54.76-5.67,8.21-11.93,16.06-17.06,24.58-38.53,63.98-76.84,128.09-115.21,192.16-.58.96-1.06,1.98-2.11,3.96ZM695.73,935.67c-10.54-3.72-21.05-7.26-31.4-11.2-3.43-1.31-5.22-.54-7.49,2.17-32.36,38.71-52.56,83.27-63.77,132.16-.43,1.88.14,4.64,1.33,6.14,9.57,12.17,19.39,24.15,29.16,36.16,1.2,1.48,2.58,2.82,3.18,3.47,0-8.47-.42-17.28.08-26.03,1.32-22.98,9.56-44.11,18.77-64.78,12.66-28.43,29.36-54.37,50.14-78.1ZM359.39,1156.88c0-9.73-.71-19.08.13-28.28,2.47-26.92,12.61-51.56,24.63-75.35,11.87-23.49,26.18-45.5,44.2-65.45-10.45-3.69-20.67-7.05-30.67-10.95-3.92-1.53-6.07-.87-8.74,2.34-32.12,38.65-52.1,83.11-63.42,131.74-.44,1.88.34,4.64,1.56,6.21,8.91,11.41,18.07,22.63,27.18,33.88,1.63,2.02,3.41,3.92,5.12,5.87ZM926.46,45.7c-10.96,4.4-19.48,10.22-25.77,18.92-6.89,9.52-6.04,18.07,2.42,26.31,2.25,2.2,4.77,4.15,7.3,6.03,9.03,6.72,16.95,14.57,23.03,24.03,9.16,14.26,18.17,28.71,8.2,47.14,7.64-1.92,15.22-3.83,22.07-7.23,3.71-1.85,7.1-5.76,9.02-9.56,10-19.72,3.82-50.75-12.8-65.29-8.01-7.01-16.31-13.7-24.73-20.22-6.36-4.92-10.65-10.55-8.74-20.14ZM248.76,614.01c-33.83,19.21-67.23,38.17-100.63,57.13,39.75,2.78,79.08,3.5,118.45,11.28-5.97-22.93-11.8-45.33-17.82-68.41ZM354.05,1325.29c69.18-13.81,138.42-27.63,207.65-41.47,5.36-1.07,7.74-3.52,7.17-8.12-.39-3.15-1.75-6.18-2.66-9.23-71.23,14.19-141.58,28.21-211.22,42.08-.33,5.86-.62,11.07-.94,16.74ZM833.42,1214.42c-70.82,14.12-141.15,28.14-211.62,42.19v16.06c1.34-.11,2.82-.08,4.23-.36,67.46-13.44,134.92-26.9,202.37-40.38,7.31-1.46,9.48-5.39,7.12-12.52-.52-1.56-1.27-3.04-2.1-4.99ZM228.78,857.65c-9.78-38.71,3.85-71.84,22.73-104.24-10.64-.7-20.64-.98-30.53-2.16-5.92-.7-9.85,1.5-13.4,5.65-9.91,11.6-15.6,25.08-17.36,40.1-1.16,9.88-.41,19.73,4.96,28.5,8.23,13.44,19.09,24.22,33.6,32.14ZM680.42,1103.41c-4.2.79-7.59,1.71-11.02,1.99-4.22.34-6.87,2.26-8.98,5.92-3.15,5.47-6.79,10.65-10.28,15.92-3.01,4.54-5.08,5.11-9.27,1.7-3.07-2.49-5.54-5.73-9.03-9.44v46.68c27.85-5.25,55.73-10.51,84.37-15.91v-35.81c-5.27,2.43-10.88,5.22-16.66,7.63-7.49,3.12-15.32,4.59-23.42,3.1-5.44-1-6.57-3.73-3.77-8.5,2.5-4.25,5.11-8.43,8.06-13.27ZM448.68,1166.22c-2.17,1.18-4.15,2.35-6.2,3.36-9.92,4.9-20.01,9.11-31.46,8.01-7.94-.76-9.34-3.44-5.28-10.16,2.29-3.79,4.58-7.57,7.21-11.94-4.14.76-7.53,1.61-10.97,1.95-4.15.4-6.9,2.2-8.99,5.92-3.01,5.35-6.61,10.38-9.99,15.53-3.41,5.19-5.65,5.69-10.37,1.6-2.73-2.37-4.9-5.39-8.1-9v46.74c27.72-5.24,55.56-10.49,84.14-15.89v-36.13ZM442.81,975.04c3.68-2.19,6.62-4.04,9.65-5.72,11.89-6.61,24.54-10.06,38.25-9.01,10.75.82,11.22,1.4,9.56,12.16-.04.23.3.53.52.9,6.68-1.05,13.45-1.9,20.1-3.3,1.96-.41,4.05-2.05,5.3-3.72,4.89-6.52,9.3-13.4,14.2-19.92,7.34-9.75,8.79-10.05,19.83-5.71.14.06.33-.01.83-.04-.38-5.38-.77-10.75-1.16-16.36-39.82,7.02-79.12,13.95-118.69,20.93.54,9.97,1.06,19.53,1.61,29.78ZM768,921.34c7.08-1.13,13.83-2.02,20.48-3.39,1.82-.37,3.81-1.83,4.95-3.37,4.97-6.67,9.47-13.69,14.47-20.33,7.19-9.53,8.37-9.75,19.43-5.87.13.05.32-.07.95-.23-.23-5.09-.47-10.27-.73-15.84-5.12.85-9.53,1.54-13.93,2.31-33.75,5.95-67.5,11.88-101.22,17.97-1.31.24-3.38,1.97-3.36,2.97.16,8.91.71,17.81,1.18,27.49,3.46-2.11,6.21-3.9,9.06-5.5,11.84-6.65,24.45-10.47,38.15-9.35,11.12.91,11.11,1.11,10.58,13.13ZM671.53,749.07c0,8.19.11,16.31-.02,24.43-.43,26.78-.92,53.56-1.46,80.33-.06,3.08,1.72,4.3,3.97,3.31,3.68-1.61,7.84-3.34,10.32-6.27,7.86-9.28,11.94-20.82,12.49-32.54.99-21.2.17-42.49-.06-63.74-.04-3.68-.93-7.36-1.47-11.39-8.11,2-15.48,3.82-23.76,5.87ZM786.17,926.44c-6.36,1.05-12.14,1.73-17.75,3.09-1.99.49-4.28,2.28-5.23,4.11-4.62,8.84-8.29,18.22-13.29,26.82-25.51,43.91-51.34,87.64-77.04,131.43-.79,1.35-1.49,2.75-2.37,4.39,9.26.47,15.35-1.56,17.94-5.85,24.76-41.07,49.57-82.11,74.22-123.25,7.95-13.26,15.48-26.77,23.54-40.75ZM286.39,830.32c3.46-3.47,6.23-6.41,9.17-9.16,7.49-7.03,15.36-13.68,22.47-21.05,4.57-4.73,4.41-10.95,2.01-16.91-4.01-9.96-11.82-15.87-21.53-19.5-7.37-2.76-13.9-1.66-18.24,4.9-5.36,8.08-9.28,17.12-13.76,25.79-.35.67-.35,1.66-.18,2.44,2.92,13.79,9.2,25.51,20.06,33.5ZM429.5,808.28c-8.2,1.95-15.34,3.5-22.37,5.45-1.22.34-2.8,2.33-2.83,3.59-.63,29.46-1.03,58.92-1.58,88.38-.06,3.36,1.54,4.07,4.32,3.59,5.5-.95,9.67-4.25,11.97-8.97,3.48-7.12,6.86-14.46,8.9-22.08,4.54-16.92,3.32-34.32,2.75-51.6-.19-5.92-.74-11.83-1.16-18.36ZM388.21,908.79c1.12,17.59,2.39,34.51,3.14,51.46.23,5.27,2.37,7.67,7.26,8.72,3.06.66,5.96,2.08,8.94,3.12,7.9,2.75,15.81,5.48,24.18,8.38-1.68-25.88-3.31-50.97-4.97-76.67-11.18,14.87-23.45,18.42-38.55,4.99ZM699.21,928.47c-1.68-25.58-3.31-50.53-5.03-76.75-11.38,15.15-23.7,18.24-38.48,5.15,1.21,19.35,2.31,37.45,3.57,55.53.07,1,1.25,2.42,2.23,2.78,12.33,4.45,24.72,8.74,37.72,13.29ZM355.02,1211c.69-.08,1.39-.17,2.08-.25,0-13.93.06-27.86-.09-41.78-.02-1.46-1.05-3.09-2.03-4.32-9.45-11.85-18.99-23.63-28.51-35.43-5.16-6.39-10.32-12.78-16.09-19.92-.81,12.44-1.16,23.74-2.4,34.94-.83,7.52,1.24,13.13,6.27,18.81,13.92,15.69,27.22,31.93,40.77,47.95ZM622.41,1158.85c.67-.16,1.33-.32,2-.49,0-13.62.08-27.24-.09-40.85-.02-1.79-.96-3.85-2.1-5.29-9.39-11.86-18.92-23.61-28.43-35.38-4.98-6.15-10-12.27-15.54-19.05-.44,2.26-.84,3.52-.92,4.8-.75,11.78-1.66,23.55-2,35.34-.08,2.78,1.25,6.03,2.92,8.35,3.69,5.11,7.99,9.78,12.07,14.61,10.69,12.66,21.4,25.31,32.1,37.96ZM347.78,1322.86c1.5-5.84,2.35-10.49-1.39-14.69-54.62-61.51-109.24-123.04-163.85-184.57-1.26-1.42-2.37-2.97-3.53-4.43-5.02,5.03-2.58,10.63,2,15.94,12.61,14.63,25.63,28.9,38.45,43.35,33.17,37.36,66.32,74.74,99.49,112.09,9.37,10.55,18.79,21.07,28.81,32.31ZM383.23,958.06c-.5-.35-1-.7-1.5-1.05-6.41,5.94-13.53,11.3-19.12,17.94-21.95,26.08-37.73,55.5-45.74,88.82-2.95,12.27-3.73,24.65-.84,37.06.37,1.58,1.08,3.08,1.85,5.22.73-1.22.97-1.48,1.04-1.78,11.97-48.16,32.29-92.19,64.34-130.44.69-.82,1.45-2.01,1.38-2.97-.31-4.28-.91-8.53-1.41-12.79ZM650.58,904.73c-4.3,3.34-8.23,5.82-11.49,9-25.95,25.39-42.56,56.27-52.94,90.76-3.48,11.58-5.09,23.41-3.97,35.47.43,4.67,1.62,9.27,2.46,13.9,3.64-9.11,6.01-18.11,8.88-26.93,12.43-38.18,30.53-73.31,56.4-104.23.99-1.18,2-2.86,1.96-4.27-.11-4.13-.74-8.25-1.31-13.7ZM664.12,750.91c-7.52,1.81-14.35,3.77-21.32,5.03-4.1.74-5.08,2.69-4.79,6.43.5,6.64.52,13.32,1.09,19.95,1.58,18.68,5.09,36.94,13.35,53.95,2.39,4.93,5.58,9.47,8.4,14.19.44-.19.87-.37,1.31-.56.65-32.72,1.3-65.45,1.96-98.99ZM393.3,902.34c.51-.15,1.02-.3,1.53-.45.51-28.86,1.01-57.71,1.5-85.45-9.03-3.68-17.07-6.95-25.53-10.4-.14,34.05,2.58,67.23,22.51,96.3ZM614.37,1269.85c.46-.22.93-.44,1.39-.66.78-5.33,1.01-10.1-3.34-14.94-31.15-34.69-62-69.65-92.97-104.51-7.81-8.8-15.68-17.55-23.69-26.51-2.16,2.37-3.93,4.31-5.91,6.48,41.66,46.89,83.09,93.51,124.51,140.13ZM713.07,738.82l.05.87c41.21-6.16,82.43-12.33,124.32-18.59-.52-4.2-.99-7.99-1.53-12.29-41.52,10.15-82.18,20.08-122.84,30.02ZM582.64,435.92c2.72-8.96,5.73-18.89,8.84-29.13-10.44,2.66-20.81,5.31-29.6,7.56,6.82,7.09,14.03,14.57,20.76,21.57Z"/>
  <path class="cls-3" d="M1012.1,112.5c-2.48-9.18-4.15-18.67-7.6-27.47-7.75-19.74-20.06-36.08-39.55-45.68-5.71-2.81-12.23-3.96-18.38-5.89-.84-.26-1.65-.64-2.47-.97,22.67,0,45.33,0,68,0v80Z"/>
  <path class="cls-12" d="M773.8,360.3c10.24-2.61,19.27-4.78,28.22-7.22,8.83-2.41,17.54-5.19,25.08-12.44,1.03,7.11,2.04,13.41,2.85,19.73,7.33,57.29,14.67,114.59,21.91,171.89,5.76,45.58,11.4,91.18,17.06,136.77,1.68,13.55-4.89,23.14-18,26.34-147.8,36.13-295.6,72.26-443.41,108.36-14.61,3.57-17.65,1.38-20.49-13.5-13.16-69.12-26.42-138.23-39.6-207.35-5.36-28.11-10.78-56.2-15.73-84.38-1.13-6.46-.95-13.29-.41-19.88.6-7.34,4.45-10.17,11.69-11.03,7.92-.94,15.78-2.34,23.66-3.56,1.74-.27,3.46-.63,5.79-1.06-15.96,40.17-16.01,78.95,6.38,116.1,17.52,29.06,42.67,48.29,75.81,56.97,70.55,18.49,143.61-29.23,154.13-100.87,26.52,31.38,60.27,45.79,100.67,43.93,33.09-1.53,60.56-15.65,82.81-39.88,24.16-26.32,33.45-57.82,30.48-93-3-35.6-20.71-63.27-48.9-85.93ZM680.2,634.94c-.08-9.8-1.41-20.12-5.64-29.92-3.15-7.28-5.3-7.34-11.13-2.19-9.56,8.45-19.13,17.06-29.61,24.26-18.43,12.65-39.44,18.81-61.51,21.56-5.78.72-7.16,3.06-5.25,8.47.44,1.25.9,2.51,1.49,3.69,19.32,39.01,69.64,36.78,93.87,17.12,13.27-10.77,17.51-25.75,17.78-42.99Z"/>
  <path class="cls-13" d="M601.51,514.23c.76,71.59-59.91,119.37-118.86,117.35-69.43-2.38-114.94-61.85-113.01-118.9,2.29-67.99,60.24-114.74,118.78-113.18,61.57,1.65,113.85,53.96,113.09,114.72ZM429.96,514.72c-.25,13.35,10.23,24.36,23.46,24.67,14.08.32,25.13-10.39,25.28-24.52.14-12.92-10.8-23.92-24.11-24.27-13.25-.34-24.38,10.55-24.63,24.12Z"/>
  <path class="cls-9" d="M731.59,281.89c2.89,1.23,5.93,2.2,8.66,3.72,24.7,13.79,49.36,27.63,73.96,41.58,2.33,1.32,4.17,3.49,6.24,5.26-2.09,2.02-3.83,5-6.32,5.88-10.32,3.65-20.95,6.39-31.29,9.97-12.04,4.17-22.67,3.36-35.01-1.87-53.24-22.55-114.43-3.17-146.74,44.78-1.5,2.22-4.27,4.25-6.83,4.96-13.78,3.79-27.66,7.27-41.59,10.52-2.47.57-5.65.22-7.93-.89-35.57-17.34-71.77-20.23-108.5-4.31-22.16,9.61-40.28,24.57-53.89,44.65-2.38,3.52-5.07,5.47-9.25,6.59-17.86,4.78-35.95,6.85-54.4,5.75-10.26-.61-19.94-2.86-29-8.08-25.95-14.96-52.05-29.64-78.09-44.43-7.68-4.36-8.12-9.12-.07-12.65,10.12-4.44,20.78-8,31.54-10.57,59.21-14.12,118.52-27.82,177.79-41.65,1.27-.3,2.57-.51,4.47.15-13.48,11.18-26.96,22.36-40.6,33.67,5.54,6.79,10.9,13.34,16.59,20.31,10.38-8.49,20.71-16.55,30.61-25.11,15.25-13.19,30.16-26.77,45.35-40.02,2.02-1.76,4.71-3.17,7.31-3.79,63.12-14.92,126.2-30.04,189.46-44.33,20.7-4.68,15.07-6.34,28.97,9.49,9.31,10.59,17.49,22.17,26.45,33.65,6.6-4.46,13.6-9.2,21.35-14.44-6.75-9.41-13.37-18.66-20-27.91.26-.3.51-.59.77-.89Z"/>
  <path class="cls-13" d="M694.76,570.7c-29.9-.07-59.77-15.59-82.68-44.98-1.13-1.45-2.02-3.59-1.97-5.37.82-25.49-5.31-49.05-18.97-70.66-.86-1.36-.9-3.49-.72-5.2,5.25-48.96,45.72-90.69,94.68-97.73,53.21-7.65,104.42,21.92,122.84,72.27,16.69,45.61,4.28,98.6-39.85,130.51-20.91,15.12-39.82,20.95-73.35,21.17ZM648.94,454.74c.08,13.25,10.9,24.11,24.09,24.16,13.48.06,24.71-10.93,24.73-24.19.02-13.53-10.85-24.56-24.24-24.61-13.89-.05-24.65,10.74-24.57,24.64Z"/>
  <path class="cls-12" d="M184.84,1116.93c41.14-8.19,81.49-16.22,121.83-24.25.32.32.64.64.96.96-6.37,3.43-4.73,9.38-5.12,14.45-1.2,15.27-2.07,30.58-2.71,45.89-.1,2.34,1.24,5.19,2.81,7.06,17.6,21.11,35.31,42.13,53.23,62.98,1.38,1.61,4.67,2.77,6.76,2.4,29.3-5.26,58.55-10.85,87.82-16.29,4.23-.79,5.65-3.15,5.73-7.3.21-10.99.72-21.98,1.2-32.96.44-10.06.49-10.06,8.97-16.9,31.86,35.86,63.74,71.74,96.11,108.18-16.98,3.4-33.21,6.66-49.44,9.89-53.02,10.54-106.05,21.02-159.04,31.68-2.9.58-4.51.02-6.38-2.1-53.5-60.33-107.06-120.61-160.6-180.91-.63-.71-1.16-1.51-2.13-2.79Z"/>
  <path class="cls-12" d="M734.07,1101.24c31.57,35.54,63.39,71.35,95.8,107.83-14.59,2.92-28.35,5.68-42.12,8.42-54.48,10.86-108.98,21.66-163.42,32.7-4.97,1.01-7.95.04-11.36-3.83-36.79-41.76-73.8-83.31-110.76-124.91-.66-.74-1.31-1.5-2.25-2.59,4.89-6.04,9.77-12.07,14.64-18.11,12.61-15.64,22.37-33.06,31.25-50.97,1.42-2.87,3.04-4.32,6.14-4.85,7.31-1.26,14.57-2.81,22.26-3.92-6.34,5.55-3.83,12.91-4.43,19.44-1.23,13.43-2,26.91-2.53,40.39-.1,2.67,1.06,5.97,2.78,8.04,17.45,21.02,35.18,41.81,52.69,62.78,2.24,2.68,4.55,3.45,7.82,2.83,28.93-5.49,57.86-10.95,86.8-16.34,4-.75,6.01-2.49,6.11-6.92.26-11.32,1.5-22.64,1.31-33.95-.12-7.48,1.9-12.83,9.28-16.03Z"/>
  <path class="cls-5" d="M383.03,801.79c-5.33-4.16-10.55-8.47-16.01-12.45-8.64-6.28-13.62-14.2-17.57-24.6-13.18-34.72-35.56-62.17-69.85-78.63-1.39-.67-2.76-2.42-3.16-3.92-6.12-22.98-12.02-46.01-18.14-68.99-.95-3.58.98-4.72,3.5-6.01,18.64-9.6,37.2-19.37,55.93-28.81,4.69-2.37,6.82-5.13,5.79-10.58-.79-4.22-.54-8.63-.69-12.96-.13-3.95-1.77-6.73-5.21-8.99-16.13-10.63-32.16-21.4-48.08-32.35-4-2.76-7.5-3.24-11.99-1.2-7.38,3.36-15.02,6.14-23,9.34-9.29-35.65-18.48-70.96-28-107.5,7.18,4.05,13.32,7.48,19.45,10.96,20.27,11.51,40.58,22.93,60.77,34.59,10.9,6.29,22.85,7.82,35.03,8.64,2.15.14,4.32.02,5.56.02-.67,8.01-2.27,15.84-1.72,23.5.76,10.4,2.96,20.73,4.91,31.01,10.78,56.68,21.69,113.33,32.52,170.01,6.43,33.64,12.76,67.3,19.18,100.95.43,2.26,1.22,4.45,1.84,6.67-.35.44-.71.87-1.06,1.31Z"/>
  <path class="cls-16" d="M309.7,551.37c-10.48,5.25-20.26,10.13-30.02,15.04-52.42,26.41-104.88,52.79-154.08,84.99-11.52,7.54-22.63,15.91-33.02,24.94-12.68,11.02-20.07,24.82-16.32,42.57-21.61-5.75-39.49-34.3-34.34-54.32,2.43-9.42,9.13-15.82,15.86-21.93,23.36-21.2,48.55-40.08,75.46-56.51,39.9-24.36,80.68-47.1,124.32-64.29,3.8-1.5,6.53-1.43,9.98.98,13.65,9.51,27.53,18.68,42.16,28.53Z"/>
  <path class="cls-14" d="M857.02,144.45c-.44,19.73,11.54,31.15,26.87,40.13,24.95,14.61,51.3,19.85,79.56,11.13.62-.19,1.3-.18,2.65-.36.98,5.38,2.39,10.69,2.87,16.07,3.1,35.18-.66,69.48-14.02,102.4-6.71,16.53-16.56,31.1-28.82,44.03-22.8,24.06-49.92,42.32-79.19,59.01-.89-6.53-1.73-12.54-2.53-18.56-1.07-8.09-1.93-16.21-3.24-24.26-.55-3.38,1.15-4.75,3.52-6.25,19.55-12.44,37.26-27.06,50.81-46.01,19.73-27.58,31.23-58.17,31.56-92.45.03-3.14-.46-6.3-.91-9.42-.73-5.18-2.82-6.63-7.91-5.16-18.28,5.28-36.54,4.88-54.69-.27-13.53-3.84-25.94-9.75-33.82-22.22-6.32-10-8.48-24.22,4.4-33.83,7.01-5.22,14.39-9.94,21.61-14.88.43.3.86.6,1.29.9Z"/>
  <path class="cls-17" d="M313.53,558.61c.25.5.37.63.39.78,1.08,10.31,1.03,10.21-8.11,14.92-62.84,32.4-125.05,65.94-184.58,104.2-5.12,3.29-10.02,7.28-14.08,11.78-10.87,12.04-5.96,26.48,10.06,29.19,9.97,1.69,20.17,2.06,30.28,2.91,40.64,3.4,81.33,6.31,121.91,10.38,14.11,1.41,28.15,4.89,41.83,8.82,10.2,2.93,18.31,10.27,25.19,18.26,8.96,10.41,9.31,23.05,7.65,35.93-2.66,20.62-15.6,32.76-33.77,40.27-2.73,1.13-6.24.67-9.36.49-1.38-.08-3.86-1.35-3.83-1.99.08-1.72.78-3.93,2.04-5,4.68-3.98,9.79-7.45,14.52-11.37,2.81-2.33,5.35-5.02,7.79-7.74,11.19-12.49,12.01-25.36,2.22-38.95-6.24-8.67-14.83-14.34-25.11-17.05-11.95-3.15-22.17,1.93-30.02,14.44-9.65,15.4-14.34,32.46-16.44,50.31-1.62,13.78-1.86,27.56.98,41.27.96,4.62-.41,5.92-5.01,4.86-5.29-1.22-9.31-4.09-11.23-9.54-5.24-14.82-4.53-29.85-1.29-44.82,3.98-18.37,11.32-35.43,21.7-51.13,1.44-2.18,3.64-3.85,5.19-5.97,1.06-1.46,2.63-3.76,2.13-4.87-.71-1.57-3.01-3.22-4.78-3.4-11.76-1.21-23.55-2.05-35.34-2.98-34.69-2.74-69.4-5.31-104.06-8.35-7.72-.68-15.34-2.82-22.92-4.64-11.63-2.79-16.26-9.43-13.72-25.08,1.86-11.5,9.41-19.99,18.38-26.46,17.79-12.84,35.65-25.75,54.46-36.99,49.55-29.62,101.23-55.31,152.96-80.87,1.28-.63,2.66-1.09,3.96-1.61Z"/>
  <path class="cls-8" d="M865.78,140.14c5.7,3.74,10.8,6.75,15.52,10.27,7.87,5.87,15.43,12.16,23.25,18.09,8.47,6.42,18.17,8.99,28.66,7.78,7.57-.88,15.16-2.01,22.59-3.7,14.65-3.33,24.21-12.32,27.22-27.23,5.2-25.68.65-48.7-19.9-66.7-8.27-7.24-16.92-14.04-25.53-20.87-3.64-2.89-4.35-6.41-3.5-10.64.64-3.13,2.15-4.83,5.68-5.01,10.87-.56,20.51,3.02,28.76,9.51,28.63,22.52,38.68,52.59,32.85,87.76-2.12,12.78-7.78,24.96-11.51,37.5-.99,3.32-1.69,7.18-.98,10.47,12.66,59.18,3.88,114.55-29.75,165.22-12.89,19.42-29.49,35.87-47.87,50.01-18.17,13.97-37.62,26.25-56.54,39.24-1.19.82-2.59,1.33-4.37,2.23-.78-5.69-1.32-10.93-2.26-16.09-.59-3.24,1.67-3.97,3.63-5.07,20.69-11.55,40.19-24.8,58.66-39.68,37.05-29.84,58.63-68.21,64.77-115.36,2.9-22.23,3.86-44.43-.06-66.64-.29-1.64-.55-3.28-.98-4.88-2.6-9.71-3.93-10.58-13.46-7.8-31.29,9.13-58.8.72-83.83-18.29-9.69-7.36-13.43-17.85-11.07-30.11Z"/>
  <path class="cls-14" d="M756.84,827.61c-17.49,2.94-34.97,5.88-53.13,8.93,3.32-30.03,3.61-59.55.19-89.54,44.43-6.63,88.54-13.21,132.88-19.82,2.64,20.77.99,40.73-3.16,60.51-1.81,8.6-4.17,17.09-6.59,25.54-.42,1.45-2.3,3.24-3.75,3.51-9.3,1.71-18.68,3.05-28.03,4.51.6-11.92.02-23.65-6.78-34.04-4.69-7.18-12.64-8.04-18.58-1.87-2.7,2.8-4.92,6.29-6.57,9.83-4.77,10.24-6.39,21.21-6.46,32.44Z"/>
  <path class="cls-16" d="M488.98,879.97c-17.39,2.83-34.77,5.65-51.32,8.34v-81.99c43.12-10.75,86.32-22.7,131.91-26.58.31,4.96.81,10.02.9,15.09.42,23.83-3.53,47.01-10.44,69.75-.78,2.56-1.78,4.19-4.8,4.6-9.06,1.23-18.07,2.79-27.09,4.22-.04-3.32.07-6.65-.16-9.96-.61-8.49-1.95-16.84-6.85-24.1-4.96-7.34-12.85-8.17-18.94-1.72-2.46,2.6-4.44,5.79-6.05,9.01-5.21,10.46-6.24,21.89-7.14,33.32Z"/>
  <path class="cls-21" d="M644.23,1121.67c-6.3-7.14-7.88-15.31-9.06-23.52-2.93-20.36,1.8-39.68,8.51-58.65,11.89-33.58,29.3-64.09,51.95-91.51,12.29-14.87,27-26.75,46.56-30.75,5.72-1.17,11.69-1.14,17.55-1.67.39.53.78,1.06,1.18,1.59-3.1,7.6-5.52,15.57-9.43,22.72-15.08,27.57-30.18,55.14-46.14,82.2-18.76,31.8-38.42,63.07-57.7,94.56-.94,1.54-2.03,2.99-3.41,5.02Z"/>
  <path class="cls-21" d="M376.64,1173.95c-7.25-9.34-8.84-19.66-9.53-30.15-1.17-17.93,3.01-35,8.93-51.74,11.81-33.41,29.15-63.75,51.46-91.2,10.19-12.53,22.27-22.91,37.63-28.78,8.78-3.36,17.83-5.07,28.52-3.45-3.39,8.36-5.86,16.65-9.92,24.06-15.25,27.84-30.57,55.66-46.71,82.99-18.51,31.36-37.91,62.19-56.94,93.24-.94,1.54-2.03,2.99-3.44,5.04Z"/>
  <path class="cls-21" d="M413.65,1169.93c1.02-1.81,1.55-2.8,2.13-3.77,38.37-64.05,76.68-128.14,115.2-192.11,5.13-8.53,11.36-16.39,16.98-24.63,2.74-4.03,5.63-3.86,9.04-.94,6.73,5.76,6.58,13.37,5.7,21.14-3.8,33.64-16.25,64.34-32.73,93.48-20.65,36.51-47.91,67.51-81.04,93.19-9.9,7.67-21.23,12.94-35.26,13.64Z"/>
  <path class="cls-21" d="M681.21,1117.85c1.05-1.98,1.54-3,2.11-3.96,38.37-64.07,76.68-128.18,115.21-192.16,5.13-8.53,11.39-16.38,17.06-24.58,2.62-3.79,6.05-4.05,8.54-.76,2.67,3.54,5.98,8.07,5.79,12.01-.54,11.38-1.55,22.99-4.42,33.97-11.97,45.71-34.24,85.99-65.94,121.05-13.31,14.72-26.81,29.25-43.06,40.81-10.23,7.27-21.27,12.9-35.29,13.63Z"/>
  <path class="cls-19" d="M695.73,935.67c-20.77,23.72-37.48,49.67-50.14,78.1-9.21,20.68-17.45,41.81-18.77,64.78-.5,8.75-.08,17.56-.08,26.03-.6-.65-1.97-1.99-3.18-3.47-9.77-12.01-19.59-23.99-29.16-36.16-1.18-1.5-1.76-4.26-1.33-6.14,11.2-48.88,31.4-93.45,63.77-132.16,2.27-2.71,4.06-3.48,7.49-2.17,10.35,3.94,20.86,7.47,31.4,11.2Z"/>
  <path class="cls-19" d="M359.39,1156.88c-1.71-1.95-3.48-3.85-5.12-5.87-9.11-11.25-18.27-22.47-27.18-33.88-1.22-1.56-1.99-4.33-1.56-6.21,11.31-48.62,31.29-93.09,63.42-131.74,2.67-3.22,4.82-3.88,8.74-2.34,10,3.9,20.21,7.26,30.67,10.95-18.03,19.96-32.34,41.96-44.2,65.45-12.02,23.8-22.16,48.43-24.63,75.35-.84,9.2-.13,18.55-.13,28.28Z"/>
  <path class="cls-11" d="M322.82,736.78c-14.7-7.85-30.9-9.94-47.03-12.26-43.56-6.27-87.43-9-131.34-11.2-7.97-.4-15.98-.9-23.83-2.2-3.41-.56-7.7-2.48-9.4-5.17-2.47-3.9.28-8.18,3.59-10.93,5.47-4.56,11.3-8.69,17.05-12.91.72-.53,1.86-.69,2.81-.68,40.83.22,81.56,1.78,122,8.05,30.05,4.66,50.52,22.86,67.3,46.56-.38.25-.76.5-1.14.74Z"/>
  <path class="cls-11" d="M926.46,45.7c-1.91,9.59,2.38,15.21,8.74,20.14,8.42,6.52,16.72,13.22,24.73,20.22,16.62,14.54,22.79,45.57,12.8,65.29-1.92,3.8-5.31,7.71-9.02,9.56-6.84,3.4-14.43,5.32-22.07,7.23,9.96-18.44.96-32.88-8.2-47.14-6.08-9.46-14-17.31-23.03-24.03-2.53-1.88-5.05-3.84-7.3-6.03-8.46-8.24-9.31-16.79-2.42-26.31,6.29-8.7,14.81-14.52,25.77-18.92Z"/>
  <path class="cls-10" d="M527.14,883.56c10-1.6,20-3.21,30.59-4.91.71,13.78,1.41,27.29,2.13,41.19-39.59,6.97-78.86,13.88-118.82,20.91-.75-14.34-1.49-28.36-2.25-42.76,17.42-2.79,34.3-5.5,51.18-8.21,2.18,6.88,3.42,14.26,6.77,20.51,4.06,7.58,12.35,7.94,18.42,1.74,2.28-2.33,4.52-5.1,5.64-8.1,2.49-6.65,4.27-13.57,6.33-20.37Z"/>
  <path class="cls-10" d="M794.23,831.68c10.13-1.69,20.27-3.39,30.88-5.16.74,13.77,1.46,27.2,2.22,41.22-39.7,7-79.1,13.94-118.88,20.95-.76-14.4-1.49-28.32-2.24-42.68,17.12-2.81,33.98-5.58,50.85-8.35,1.58,5.73,2.45,11.78,4.89,17.11,5.47,11.96,17.15,12.9,23.55,1.46,4.18-7.48,5.91-16.32,8.74-24.55Z"/>
  <path class="cls-22" d="M354.05,1325.29c.32-5.67.61-10.88.94-16.74,69.64-13.88,139.99-27.89,211.22-42.08.92,3.05,2.27,6.08,2.66,9.23.57,4.6-1.81,7.05-7.17,8.12-69.23,13.84-138.46,27.66-207.65,41.47Z"/>
  <path class="cls-22" d="M833.42,1214.42c.83,1.96,1.58,3.43,2.1,4.99,2.37,7.13.19,11.06-7.12,12.52-67.45,13.49-134.91,26.94-202.37,40.38-1.42.28-2.89.25-4.23.36v-16.06c70.47-14.05,140.79-28.07,211.62-42.19Z"/>
  <path class="cls-11" d="M228.78,857.65c-14.51-7.92-25.37-18.71-33.6-32.14-5.37-8.77-6.12-18.62-4.96-28.5,1.77-15.02,7.46-28.51,17.36-40.1,3.55-4.16,7.48-6.35,13.4-5.65,9.89,1.18,19.89,1.46,30.53,2.16-18.88,32.4-32.51,65.53-22.73,104.24Z"/>
  <path class="cls-10" d="M680.42,1103.41c-2.95,4.84-5.57,9.02-8.06,13.27-2.8,4.77-1.67,7.5,3.77,8.5,8.1,1.49,15.93.02,23.42-3.1,5.78-2.4,11.4-5.2,16.66-7.63v35.81c-28.64,5.4-56.52,10.66-84.37,15.91v-46.68c3.5,3.71,5.96,6.94,9.03,9.44,4.19,3.41,6.26,2.84,9.27-1.7,3.49-5.27,7.13-10.45,10.28-15.92,2.11-3.65,4.75-5.58,8.98-5.92,3.44-.27,6.82-1.2,11.02-1.99Z"/>
  <path class="cls-10" d="M448.68,1166.22v36.13c-28.58,5.4-56.42,10.65-84.14,15.89v-46.74c3.2,3.61,5.37,6.63,8.1,9,4.72,4.08,6.96,3.59,10.37-1.6,3.38-5.15,6.97-10.17,9.99-15.53,2.09-3.72,4.84-5.52,8.99-5.92,3.44-.34,6.83-1.19,10.97-1.95-2.64,4.36-4.92,8.15-7.21,11.94-4.06,6.72-2.66,9.4,5.28,10.16,11.45,1.1,21.55-3.11,31.46-8.01,2.05-1.01,4.03-2.18,6.2-3.36Z"/>
  <path class="cls-10" d="M442.81,975.04c-.56-10.24-1.07-19.81-1.61-29.78,39.57-6.98,78.87-13.9,118.69-20.93.4,5.61.78,10.98,1.16,16.36-.5.03-.69.09-.83.04-11.04-4.34-12.5-4.04-19.83,5.71-4.9,6.51-9.31,13.39-14.2,19.92-1.25,1.66-3.33,3.31-5.3,3.72-6.65,1.4-13.42,2.25-20.1,3.3-.23-.38-.56-.67-.52-.9,1.66-10.76,1.19-11.33-9.56-12.16-13.71-1.05-26.36,2.39-38.25,9.01-3.03,1.68-5.96,3.53-9.65,5.72Z"/>
  <path class="cls-10" d="M768,921.34c.53-12.02.55-12.22-10.58-13.13-13.7-1.12-26.31,2.7-38.15,9.35-2.85,1.6-5.6,3.39-9.06,5.5-.47-9.68-1.02-18.58-1.18-27.49-.02-1,2.05-2.74,3.36-2.97,33.72-6.09,67.47-12.02,101.22-17.97,4.4-.77,8.81-1.46,13.93-2.31.26,5.57.49,10.75.73,15.84-.63.16-.81.27-.95.23-11.05-3.88-12.24-3.65-19.43,5.87-5.01,6.64-9.51,13.65-14.47,20.33-1.14,1.53-3.12,2.99-4.95,3.37-6.65,1.37-13.4,2.26-20.48,3.39Z"/>
  <path class="cls-20" d="M671.53,749.07c8.28-2.04,15.65-3.86,23.76-5.87.54,4.03,1.43,7.71,1.47,11.39.24,21.25,1.06,42.54.06,63.74-.55,11.72-4.63,23.26-12.49,32.54-2.48,2.93-6.64,4.66-10.32,6.27-2.25.98-4.04-.23-3.97-3.31.55-26.78,1.03-53.55,1.46-80.33.13-8.12.02-16.23.02-24.43Z"/>
  <path class="cls-22" d="M403.04,1148.45c7.99-13.42,16.15-26.73,23.92-40.27,21.29-37.06,42.42-74.22,63.57-111.36,1.39-2.45,2.88-5,3.52-7.69,1.42-5.98,5.23-8.2,10.99-8.57,4.27-.27,8.49-1.17,13.53-1.91-2.03,3.58-3.67,6.59-5.42,9.53-30.78,51.57-61.54,103.15-92.47,154.62-1.17,1.95-3.81,3.55-6.08,4.21-3.62,1.05-7.5,1.18-11.28,1.7,0,0-.29-.27-.29-.27Z"/>
  <path class="cls-22" d="M786.17,926.44c-8.06,13.98-15.59,27.49-23.54,40.75-24.65,41.13-49.46,82.18-74.22,123.25-2.59,4.29-8.67,6.32-17.94,5.85.88-1.64,1.58-3.05,2.37-4.39,25.71-43.8,51.53-87.52,77.04-131.43,5-8.61,8.67-17.98,13.29-26.82.95-1.83,3.24-3.62,5.23-4.11,5.61-1.37,11.39-2.04,17.75-3.09Z"/>
  <path class="cls-18" d="M286.39,830.32c-10.85-8-17.13-19.71-20.06-33.5-.16-.77-.17-1.77.18-2.44,4.48-8.66,8.4-17.7,13.76-25.79,4.34-6.55,10.87-7.66,18.24-4.9,9.71,3.64,17.52,9.55,21.53,19.5,2.4,5.96,2.55,12.17-2.01,16.91-7.12,7.38-14.99,14.03-22.47,21.05-2.94,2.76-5.71,5.69-9.17,9.16Z"/>
  <path class="cls-20" d="M429.5,808.28c.42,6.52.97,12.43,1.16,18.36.56,17.28,1.78,34.68-2.75,51.6-2.04,7.62-5.43,14.96-8.9,22.08-2.3,4.72-6.47,8.02-11.97,8.97-2.77.48-4.38-.23-4.32-3.59.55-29.46.95-58.92,1.58-88.38.03-1.26,1.61-3.25,2.83-3.59,7.03-1.95,14.17-3.5,22.37-5.45Z"/>
  <path class="cls-20" d="M388.21,908.79c15.1,13.44,27.37,9.88,38.55-4.99,1.67,25.7,3.29,50.79,4.97,76.67-8.37-2.9-16.28-5.63-24.18-8.38-2.98-1.04-5.88-2.46-8.94-3.12-4.89-1.05-7.02-3.46-7.26-8.72-.75-16.95-2.03-33.87-3.14-51.46Z"/>
  <path class="cls-20" d="M699.21,928.47c-13-4.55-25.39-8.84-37.72-13.29-.98-.35-2.16-1.78-2.23-2.78-1.26-18.08-2.36-36.18-3.57-55.53,14.78,13.09,27.1,10,38.48-5.15,1.72,26.22,3.35,51.16,5.03,76.75Z"/>
  <path class="cls-20" d="M355.02,1211c-13.55-16.02-26.85-32.25-40.77-47.95-5.03-5.68-7.11-11.29-6.27-18.81,1.24-11.2,1.59-22.5,2.4-34.94,5.77,7.14,10.93,13.53,16.09,19.92,9.52,11.8,19.06,23.58,28.51,35.43.98,1.22,2.01,2.86,2.03,4.32.15,13.93.09,27.85.09,41.78-.69.08-1.39.17-2.08.25Z"/>
  <path class="cls-20" d="M622.41,1158.85c-10.7-12.65-21.41-25.3-32.1-37.96-4.08-4.83-8.38-9.49-12.07-14.61-1.67-2.32-3-5.57-2.92-8.35.34-11.79,1.25-23.56,2-35.34.08-1.28.47-2.54.92-4.8,5.54,6.79,10.57,12.9,15.54,19.05,9.51,11.77,19.04,23.52,28.43,35.38,1.14,1.44,2.08,3.5,2.1,5.29.17,13.62.09,27.24.09,40.85-.67.16-1.33.32-2,.49Z"/>
  <path class="cls-7" d="M347.78,1322.86c-10.03-11.24-19.44-21.75-28.81-32.31-33.17-37.36-66.32-74.74-99.49-112.09-12.83-14.44-25.85-28.72-38.45-43.35-4.58-5.31-7.02-10.92-2-15.94,1.16,1.47,2.27,3.02,3.53,4.43,54.61,61.53,109.22,123.05,163.85,184.57,3.73,4.2,2.88,8.85,1.39,14.69Z"/>
  <path class="cls-22" d="M383.23,958.06c.5,4.26,1.1,8.52,1.41,12.79.07.96-.69,2.15-1.38,2.97-32.06,38.25-52.38,82.28-64.34,130.44-.07.3-.32.56-1.04,1.78-.77-2.14-1.48-3.64-1.85-5.22-2.89-12.42-2.11-24.79.84-37.06,8.01-33.32,23.79-62.73,45.74-88.82,5.59-6.64,12.7-11.99,19.12-17.94.5.35,1,.7,1.5,1.05Z"/>
  <path class="cls-22" d="M650.58,904.73c.57,5.45,1.2,9.57,1.31,13.7.04,1.42-.97,3.09-1.96,4.27-25.87,30.93-43.97,66.06-56.4,104.23-2.87,8.83-5.24,17.82-8.88,26.93-.84-4.63-2.03-9.23-2.46-13.9-1.12-12.07.48-23.9,3.97-35.47,10.38-34.49,26.99-65.38,52.94-90.76,3.25-3.18,7.18-5.66,11.49-9Z"/>
  <path class="cls-22" d="M664.12,750.91c-.67,33.55-1.31,66.27-1.96,98.99-.44.19-.87.37-1.31.56-2.82-4.72-6-9.27-8.4-14.19-8.26-17.01-11.77-35.27-13.35-53.95-.56-6.63-.58-13.31-1.09-19.95-.28-3.74.7-5.69,4.79-6.43,6.96-1.26,13.8-3.21,21.32-5.03Z"/>
  <path class="cls-22" d="M393.3,902.34c-19.93-29.07-22.65-62.25-22.51-96.3,8.47,3.45,16.5,6.72,25.53,10.4-.49,27.74-.99,56.6-1.5,85.45-.51.15-1.02.3-1.53.45Z"/>
  <path class="cls-7" d="M614.37,1269.85c-41.42-46.62-82.85-93.24-124.51-140.13,1.98-2.17,3.75-4.11,5.91-6.48,8.01,8.96,15.88,17.71,23.69,26.51,30.96,34.86,61.82,69.81,92.97,104.51,4.35,4.84,4.12,9.61,3.34,14.94-.46.22-.93.44-1.39.66Z"/>
  <path class="cls-4" d="M527.14,883.56c-2.07,6.81-3.84,13.73-6.33,20.37-1.12,3-3.36,5.77-5.64,8.1-6.07,6.21-14.36,5.84-18.42-1.74-3.35-6.25-4.59-13.63-6.77-20.51-.33-3.27-.66-6.54-.98-9.82.9-11.43,1.93-22.86,7.14-33.32,1.6-3.22,3.59-6.41,6.05-9.01,6.09-6.44,13.98-5.62,18.94,1.72,4.9,7.26,6.24,15.6,6.85,24.1.24,3.31.12,6.64.16,9.96-.33,3.38-.66,6.76-1,10.14ZM496.93,879.29c-.07,9.57.48,18.17,5.04,25.91,2.47,4.2,5.46,4.52,8.72.94,1.32-1.45,2.35-3.22,3.26-4.98,5.45-10.62,7.1-22.18,6.71-33.82-.24-6.99-2.27-13.99-4.15-20.81-.61-2.21-3.59-5.59-4.96-5.35-2.48.43-4.72,3-6.74,5-1.12,1.11-1.7,2.83-2.36,4.35-4.1,9.44-5.75,19.36-5.52,28.75Z"/>
  <path class="cls-4" d="M794.23,831.68c-2.83,8.23-4.56,17.07-8.74,24.55-6.39,11.44-18.07,10.5-23.55-1.46-2.44-5.33-3.31-11.38-4.89-17.11-.07-3.35-.15-6.7-.22-10.04.07-11.23,1.69-22.2,6.46-32.44,1.65-3.54,3.87-7.03,6.57-9.83,5.95-6.17,13.89-5.3,18.58,1.87,6.79,10.39,7.38,22.12,6.78,34.04-.33,3.48-.67,6.95-1,10.43ZM789.25,816.79c-1.68-7.38-3.05-14.85-5.22-22.08-.7-2.33-3.41-5.48-5.38-5.62-1.98-.14-4.88,2.6-6.2,4.78-7.59,12.59-9.12,26.61-8.02,40.86.45,5.82,2.21,11.74,4.45,17.18,2.51,6.08,6.42,6.16,10.32.86,1.17-1.59,2.08-3.4,2.93-5.2,4.55-9.67,5.88-19.98,7.12-30.78Z"/>
  <path class="cls-7" d="M713.07,738.82c40.66-9.94,81.32-19.88,122.84-30.02.54,4.31,1.01,8.09,1.53,12.29-41.89,6.27-83.11,12.43-124.32,18.59l-.05-.87Z"/>
  <path class="cls-10" d="M582.64,435.92c-6.74-7-13.94-14.48-20.76-21.57,8.79-2.24,19.16-4.89,29.6-7.56-3.11,10.24-6.12,20.17-8.84,29.13Z"/>
  <path class="cls-9" d="M730.82,282.78l-.51-1c.43.04.85.08,1.28.11-.26.3-.51.59-.77.89Z"/>
  <path class="cls-22" d="M403.33,1148.72c-.24.11-.47.23-.71.34.14-.2.28-.41.42-.61,0,0,.29.27.29.27Z"/>
  <path class="cls-11" d="M323.95,736.04c.11.39.21.78.32,1.16-.49-.14-.97-.28-1.46-.42.38-.25.76-.5,1.14-.74Z"/>
  <path class="cls-6" d="M680.2,634.94c-.27,17.23-4.51,32.22-17.78,42.99-24.23,19.67-74.55,21.89-93.87-17.12-.59-1.19-1.05-2.44-1.49-3.69-1.91-5.41-.54-7.75,5.25-8.47,22.07-2.75,43.09-8.91,61.51-21.56,10.49-7.2,20.06-15.8,29.61-24.26,5.83-5.15,7.98-5.09,11.13,2.19,4.23,9.79,5.56,20.11,5.64,29.92ZM576.23,656.71c10.48,24.12,42.47,33,70.7,21.03,26.44-11.21,28.87-44.58,20.67-66.53-25.4,25.2-55.66,40.55-91.37,45.49Z"/>
  <path class="cls-1" d="M429.96,514.72c.25-13.57,11.38-24.46,24.63-24.12,13.31.35,24.25,11.35,24.11,24.27-.15,14.13-11.2,24.84-25.28,24.52-13.23-.3-23.71-11.32-23.46-24.67Z"/>
  <path class="cls-1" d="M648.94,454.74c-.08-13.89,10.69-24.69,24.57-24.64,13.4.05,24.26,11.08,24.24,24.61-.02,13.26-11.25,24.24-24.73,24.19-13.19-.05-24.02-10.91-24.09-24.16Z"/>
  <path class="cls-15" d="M496.93,879.29c-.23-9.39,1.42-19.3,5.52-28.75.66-1.52,1.23-3.24,2.36-4.35,2.02-2,4.26-4.58,6.74-5,1.37-.24,4.35,3.15,4.96,5.35,1.88,6.82,3.91,13.82,4.15,20.81.39,11.64-1.26,23.2-6.71,33.82-.9,1.76-1.94,3.53-3.26,4.98-3.26,3.58-6.24,3.26-8.72-.94-4.56-7.74-5.11-16.35-5.04-25.91Z"/>
  <path class="cls-15" d="M789.25,816.79c-1.24,10.8-2.57,21.12-7.12,30.78-.85,1.8-1.75,3.61-2.93,5.2-3.91,5.29-7.81,5.22-10.32-.86-2.24-5.43-4-11.35-4.45-17.18-1.1-14.25.43-28.27,8.02-40.86,1.32-2.19,4.21-4.92,6.2-4.78,1.97.14,4.68,3.29,5.38,5.62,2.17,7.23,3.54,14.7,5.22,22.08Z"/>
  <path class="cls-3" d="M576.23,656.71c35.7-4.94,65.96-20.29,91.37-45.49,8.21,21.94,5.78,55.31-20.67,66.53-28.23,11.97-60.22,3.08-70.7-21.03Z"/>
</svg>