<?xml version="1.0" encoding="UTF-8"?>
<svg
  id="Layer_1"
  data-name="Layer 1"
  xmlns="http://www.w3.org/2000/svg"
  xmlns:xlink="http://www.w3.org/1999/xlink"
  viewBox="0 0 553.4 437.05"
>
  <defs>
    <style>
      .cls-1 {
        fill: none;
      }
      .cls-2 {
        clip-path: url(#clip-path);
      }
      .cls-3 {
        fill: #cdcccc;
      }
      .cls-4 {
        fill: #e5e6e2;
      }
      .cls-5 {
        fill: #683e1b;
      }
      .cls-6 {
        fill: #3f484d;
      }
      .cls-7 {
        fill: #cccdcf;
      }
      .cls-8 {
        fill: #d4bd9e;
      }
      .cls-9 {
        fill: #a08864;
      }
      .cls-10 {
        fill: #857145;
      }
      .cls-11 {
        fill: #b49e7b;
      }
      .cls-12 {
        fill: #867144;
      }
      .cls-13 {
        fill: #b59d7b;
      }
      .cls-14 {
        fill: #d3bb9a;
      }
      .cls-15 {
        fill: #8fa8ba;
      }
      .cls-16 {
        fill: #839cae;
      }
      .cls-17 {
        fill: #449235;
      }
      .cls-18 {
        fill: #aaca45;
      }
      .cls-19 {
        fill: #304721;
      }
      .cls-20 {
        fill: #6a8531;
      }
      .cls-21 {
        fill: #eb5a32;
      }
      .cls-22 {
        fill: #f7f1f1;
      }
      .cls-23 {
        fill: #0f384c;
      }
      .cls-24 {
        fill: #f29431;
      }
      .cls-25 {
        fill: #f7b87a;
      }
      .cls-26 {
        fill: #10374d;
      }
      .cls-27 {
        fill: #f39332;
      }
      .cls-28 {
        fill: #577330;
      }
    </style>
    <clipPath id="clip-path" transform="translate(47.9 40.34)">
      <rect class="cls-1" width="482" height="359.69" />
    </clipPath>
   
  </defs>
  <g class="cls-2">
    <rect class="cls-3" x="47.9" y="40.6" width="185.04" height="128.75" />
    <path
      class="cls-4"
      d="M59.9,39.55H193.77a12,12,0,0,1,12,12v34.9a63.06,63.06,0,0,1-63.06,63.06H59.9a12,12,0,0,1-12-12v-86A12,12,0,0,1,59.9,39.55Z"
    />
    <path
      class="cls-5"
      d="M45.62,34.41H184.33a12,12,0,0,1,12,12v34.9a63.06,63.06,0,0,1-63.06,63.06H45.62a12,12,0,0,1-12-12v-86a12,12,0,0,1,12-12Z"
    />
    <rect class="cls-6" x="47.9" y="176.73" width="482" height="107.32" />
    <rect class="cls-6" x="239.02" y="40.34" width="111.77" height="359.69" />
    <rect class="cls-7" x="290.95" y="73.03" width="4.94" height="17.94" />
    <rect class="cls-7" x="290.95" y="98.35" width="4.94" height="16.6" />
    <rect class="cls-7" x="290.95" y="122.33" width="4.94" height="19.8" />
    <rect class="cls-7" x="290.95" y="149.51" width="4.94" height="23.68" />
    <rect class="cls-7" x="290.95" y="180.57" width="4.94" height="18.03" />
    <rect class="cls-7" x="290.95" y="205.99" width="4.94" height="19.44" />
    <rect class="cls-7" x="290.95" y="232.81" width="4.94" height="18.38" />
    <rect class="cls-7" x="290.95" y="258.58" width="4.94" height="16.62" />
    <rect class="cls-7" x="290.95" y="311.88" width="4.94" height="15.21" />
    <rect class="cls-7" x="290.95" y="334.47" width="4.94" height="18.38" />
    <rect class="cls-7" x="290.95" y="360.24" width="4.94" height="17.68" />
    <rect class="cls-7" x="290.95" y="385.3" width="4.94" height="14.23" />
    <rect class="cls-7" x="290.95" y="282.58" width="4.94" height="21.91" />
    <rect class="cls-7" x="47.9" y="226.45" width="15.63" height="5.63" />
    <path
      class="cls-7"
      d="M98.89,186.1H75.78v5.63H98.93C98.91,189.86,98.9,188,98.89,186.1Z"
      transform="translate(47.9 40.34)"
    />
    <path
      class="cls-7"
      d="M128.07,186.1H106.29l0,5.63h21.75Z"
      transform="translate(47.9 40.34)"
    />
    <rect class="cls-7" x="210.05" y="226.45" width="19.3" height="5.63" />
    <rect class="cls-7" x="236.75" y="226.45" width="18.68" height="5.63" />
    <rect class="cls-7" x="262.82" y="226.45" width="17.73" height="5.63" />
    <rect class="cls-7" x="309.97" y="226.45" width="15.5" height="5.63" />
    <rect class="cls-7" x="333.06" y="226.45" width="20.6" height="5.63" />
    <rect class="cls-7" x="362.76" y="226.45" width="19.46" height="5.63" />
    <rect class="cls-7" x="390.69" y="226.45" width="20.22" height="5.63" />
    <rect class="cls-7" x="418.63" y="226.45" width="17.19" height="5.63" />
    <rect class="cls-7" x="441" y="226.45" width="18.06" height="5.63" />
    <rect class="cls-7" x="466.45" y="226.45" width="38.37" height="5.63" />
    <path
      class="cls-7"
      d="M471.2,186.1c0,1.88-.05,3.76-.06,5.63H482V186.1Z"
      transform="translate(47.9 40.34)"
    />
    <rect class="cls-7" x="183.36" y="226.45" width="19.3" height="5.63" />
    <rect class="cls-7" x="70.91" y="178.5" width="45.37" height="11.09" />
    <rect class="cls-7" x="69.6" y="202.47" width="45.37" height="11.09" />
    <rect class="cls-7" x="69.6" y="223.71" width="45.37" height="11.09" />
    <rect class="cls-7" x="70.37" y="244.96" width="45.37" height="11.09" />
    <rect class="cls-7" x="70.88" y="266.2" width="45.37" height="11.09" />
    <rect class="cls-7" x="462.95" y="180.51" width="45.37" height="11.09" />
    <rect class="cls-7" x="462.95" y="203.48" width="45.37" height="11.09" />
    <rect class="cls-7" x="462.95" y="226.45" width="45.37" height="11.09" />
    <rect class="cls-7" x="462.95" y="249.42" width="45.37" height="11.09" />
    <rect class="cls-7" x="462.95" y="272.39" width="45.37" height="11.09" />
    <rect
      class="cls-7"
      x="179.85"
      y="-8.71"
      width="45.31"
      height="11.11"
      transform="translate(253.56 239.7) rotate(-90)"
    />
    <rect
      class="cls-7"
      x="202.9"
      y="-8.71"
      width="45.31"
      height="11.11"
      transform="translate(276.6 262.75) rotate(-90)"
    />
    <rect
      class="cls-7"
      x="225.95"
      y="-8.71"
      width="45.31"
      height="11.11"
      transform="translate(299.65 285.79) rotate(-90)"
    />
    <rect
      class="cls-7"
      x="247.08"
      y="-8.71"
      width="45.31"
      height="11.11"
      transform="translate(320.78 306.92) rotate(-90)"
    />
    <rect
      class="cls-7"
      x="269.85"
      y="-8.71"
      width="45.31"
      height="11.11"
      transform="translate(343.55 329.69) rotate(-90)"
    />
    <rect class="cls-3" x="47.9" y="291.63" width="183.16" height="109.95" />
    <rect class="cls-3" x="357.81" y="289.51" width="172.08" height="110.52" />
    <rect class="cls-3" x="356.48" y="40.6" width="173.41" height="130.29" />
    <path
      class="cls-4"
      d="M335.19-1.41h99a63.06,63.06,0,0,1,63.06,63.06v34.9a12,12,0,0,1-12,12h-150a12,12,0,0,1-12-12v-86A12,12,0,0,1,335.19-1.41Z"
      transform="translate(868.32 147.49) rotate(180)"
    />
    <path
      class="cls-4"
      d="M55.07,319.11h87.65a63.06,63.06,0,0,1,63.06,63.06v34.9a12,12,0,0,1-12,12H55.07a12,12,0,0,1-12-12v-86A12,12,0,0,1,55.07,319.11Z"
    />
    <path
      class="cls-4"
      d="M344.22,273.75H478.1a12,12,0,0,1,12,12v34.9A63.06,63.06,0,0,1,427,383.71H344.22a12,12,0,0,1-12-12v-86A12,12,0,0,1,344.22,273.75Z"
      transform="translate(870.21 697.81) rotate(180)"
    />
    <path
      class="cls-5"
      d="M45.62,327.09h87.65a63.06,63.06,0,0,1,63.06,63.06V425a12,12,0,0,1-12,12H45.62a12,12,0,0,1-12-12v-86a12,12,0,0,1,12-12Z"
    />
    <path
      class="cls-5"
      d="M354.8,282.59H493.5a12,12,0,0,1,12,12v34.9a63.06,63.06,0,0,1-63.06,63.06H354.8a12,12,0,0,1-12-12v-86A12,12,0,0,1,354.8,282.59Z"
      transform="translate(896.2 715.49) rotate(180)"
    />
    <path
      class="cls-5"
      d="M349.2-8.18h87.65A63.06,63.06,0,0,1,499.9,54.88v34.9a12,12,0,0,1-12,12H349.2a12,12,0,0,1-12-12v-86A12,12,0,0,1,349.2-8.18Z"
      transform="translate(885 133.95) rotate(180)"
    />
    <polygon
      class="cls-8"
      points="101.92 331.1 47.9 331.1 47.9 369.07 89.74 369.07 101.92 331.1"
    />
    <polygon
      class="cls-9"
      points="47.9 369.07 89.74 369.07 101.92 400.03 47.9 400.03 47.9 369.07"
    />
    <polygon
      class="cls-10"
      points="89.74 369.07 101.92 331.1 101.92 400.03 89.74 369.07"
    />
    <polygon
      class="cls-8"
      points="398.73 347.04 479.9 347.04 466.64 399.73 412.53 400 398.73 347.04"
    />
    <polygon
      class="cls-11"
      points="398.73 347.04 412.53 400 398.73 400 398.73 347.04"
    />
    <polygon
      class="cls-12"
      points="479.9 347.04 479.9 400 466.64 399.73 479.9 347.04"
    />
    <polygon
      class="cls-13"
      points="501.69 66.34 501.69 140.49 529.74 133.12 529.74 73.93 501.69 66.34"
    />
    <polygon
      class="cls-14"
      points="501.69 66.34 529.74 66.34 529.74 73.93 501.69 66.34"
    />
    <polygon
      class="cls-9"
      points="529.74 133.12 501.69 140.49 529.9 140.49 529.74 133.12"
    />
    <polygon
      class="cls-15"
      points="491.62 348.29 529.9 348.29 529.9 400.03 504.77 400.03 491.62 348.29"
    />
    <polygon
      class="cls-16"
      points="504.77 400.03 491.62 400 491.62 348.29 504.77 400.03"
    />
    <polygon
      class="cls-17"
      points="410.21 332.74 407.83 325.35 409.14 322.93 411.38 324.26 413.44 332.19 415.99 325.06 418.71 323.82 419.31 326.42 416.45 332.87 422.33 331.72 425 333.15 423.26 335.11 417.25 335.33 422.11 338.64 422.82 341 420.11 341.7 415.08 337.56 418.25 343.85 417.25 346.61 414.32 345.22 412.53 338.88 410.44 344.88 407.25 346.18 406.67 342.54 408.67 338.4 401.47 337.58 400.06 335.58 402.54 334.17 408.34 334.81 403.31 330.8 402.59 327.56 405.74 328 410.21 332.74"
    />
    <polygon
      class="cls-18"
      points="410.85 333.9 408.18 329.92 408.55 328.25 410.1 328.66 412.68 333.02 412.98 328.35 414.38 327.15 415.18 328.59 414.58 332.92 417.88 331.23 419.71 331.63 419.01 333.08 415.48 334.24 418.93 335.38 419.75 336.66 418.26 337.54 414.57 335.94 417.53 339.14 417.4 340.94 415.43 340.62 413.28 337.16 413.06 341.08 411.39 342.39 410.42 340.32 410.9 337.53 406.49 338.26 405.3 337.31 406.53 336.05 410.09 335.45 406.42 333.92 405.44 332.12 407.39 331.84 410.85 333.9"
    />
    <polygon
      class="cls-17"
      points="518.25 333.05 517.95 325.29 519.88 323.32 521.67 325.2 521.51 333.39 525.89 327.21 528.85 326.75 528.72 329.41 524.22 334.85 530.19 335.33 532.37 337.43 530.18 338.85 524.32 337.43 528.11 341.94 528.15 344.39 525.35 344.34 521.63 339 522.98 345.92 521.27 348.3 518.83 346.18 518.82 339.59 515.18 344.8 511.77 345.19 512.19 341.52 515.23 338.08 508.53 335.35 507.71 333.04 510.47 332.35 515.88 334.54 512.13 329.32 512.32 326.01 515.23 327.28 518.25 333.05"
    />
    <polygon
      class="cls-18"
      points="516.97 334.85 512.68 332.69 512.18 331.06 513.74 330.65 518.13 333.19 516.09 328.97 516.73 327.24 518.13 328.1 519.73 332.16 521.78 329.08 523.57 328.53 523.68 330.14 521.16 332.88 524.74 332.18 526.08 332.9 525.21 334.39 521.21 334.8 525.35 336.15 526.13 337.78 524.25 338.46 520.68 336.5 522.41 340.02 521.6 341.99 519.74 340.66 518.79 337.99 515.3 340.79 513.81 340.54 514.26 338.84 517.07 336.57 513.11 337.03 511.38 335.94 512.94 334.75 516.97 334.85"
    />
    <polygon
      class="cls-19"
      points="146.4 388.98 142.37 376.47 144.6 372.37 148.39 374.63 151.88 388.04 156.19 375.97 160.8 373.88 161.81 378.27 156.97 389.19 166.92 387.25 171.44 389.67 168.5 392.98 158.31 393.35 166.55 398.96 167.75 402.94 163.16 404.14 154.65 397.13 160.01 407.78 158.31 412.45 153.37 410.1 150.33 399.37 146.79 409.52 141.4 411.71 140.41 405.55 143.8 398.56 131.62 397.16 129.23 393.78 133.42 391.38 143.24 392.48 134.73 385.68 133.52 380.21 138.85 380.95 146.4 388.98"
    />
    <polygon
      class="cls-19"
      points="386.01 112.92 383.63 105.53 384.95 103.11 387.19 104.44 389.25 112.37 391.8 105.23 394.52 104 395.12 106.59 392.26 113.05 398.13 111.9 400.8 113.33 399.07 115.28 393.05 115.5 397.92 118.82 398.62 121.17 395.91 121.88 390.89 117.74 394.05 124.03 393.05 126.79 390.13 125.4 388.33 119.06 386.24 125.06 383.06 126.35 382.47 122.71 384.47 118.58 377.28 117.76 375.87 115.76 378.34 114.34 384.14 114.99 379.12 110.97 378.4 107.74 381.55 108.18 386.01 112.92"
    />
    <polygon
      class="cls-20"
      points="386.66 112.86 383.98 108.88 384.35 107.21 385.91 107.62 388.48 111.98 388.78 107.31 390.19 106.11 390.99 107.55 390.39 111.88 393.69 110.19 395.52 110.59 394.82 112.05 391.28 113.2 394.74 114.34 395.56 115.62 394.07 116.5 390.38 114.9 393.33 118.1 393.21 119.91 391.23 119.58 389.08 116.12 388.86 120.04 387.19 121.35 386.23 119.28 386.71 116.49 382.29 117.22 381.11 116.27 382.34 115.01 385.9 114.41 382.23 112.88 381.25 111.08 383.2 110.8 386.66 112.86"
    />
    <rect
      class="cls-21"
      x="247.66"
      y="91.97"
      width="34.65"
      height="74.08"
      rx="12"
    />
    <rect
      class="cls-22"
      x="249.99"
      y="93.91"
      width="29.99"
      height="69.15"
      rx="12"
    />
    <rect class="cls-21" x="254.12" y="100.1" width="21.66" height="36.38" />
    <path
      class="cls-23"
      d="M232.09,104.74a8.64,8.64,0,0,1-8.33,8.86H210.42a8.64,8.64,0,0,1-8.33-8.86"
      transform="translate(47.9 40.34)"
    />
    <rect class="cls-21" x="256.64" y="138.39" width="16.7" height="7.47" />
    <polygon
      class="cls-21"
      points="249.21 152.67 259.93 144.27 259.29 143.45 248.56 151.85 249.21 152.67"
    />
    <polygon
      class="cls-21"
      points="281.01 152.6 270.28 144.2 270.82 143.52 281.54 151.92 281.01 152.6"
    />
    <rect
      class="cls-21"
      x="195.62"
      y="110.14"
      width="5.42"
      height="1.76"
      rx="0.81"
      transform="translate(92.34 -15.91) rotate(18.15)"
    />
    <rect
      class="cls-21"
      x="233.31"
      y="110.14"
      width="6.03"
      height="1.76"
      rx="0.81"
      transform="translate(543.36 183.25) rotate(161.85)"
    />
    <rect
      class="cls-24"
      x="378.19"
      y="245.72"
      width="65.46"
      height="26.42"
      rx="12"
    />
    <rect
      class="cls-25"
      x="381.06"
      y="248.43"
      width="59.71"
      height="21"
      rx="9.68"
    />
    <rect
      class="cls-26"
      x="386.66"
      y="248.43"
      width="35.09"
      height="21"
      rx="9.68"
    />
    <rect class="cls-27" x="396.21" y="251.47" width="15.98" height="14.93" />
    <polygon
      class="cls-24"
      points="397.58 252.96 390.49 246.61 390.94 246.1 398.04 252.45 397.58 252.96"
    />
    <polygon
      class="cls-24"
      points="415.51 269.83 408.42 263.48 408.88 262.97 415.97 269.31 415.51 269.83"
    />
    <polygon
      class="cls-24"
      points="416.83 246.92 409.74 253.27 410.2 253.78 417.29 247.43 416.83 246.92"
    />
    <polygon
      class="cls-24"
      points="391.65 271.12 398.75 264.77 398.29 264.26 391.19 270.61 391.65 271.12"
    />
    <ellipse
      class="cls-24"
      cx="379.5"
      cy="204.8"
      rx="1.05"
      ry="2.79"
      transform="translate(14.35 369.06) rotate(-45.05)"
    />
    <ellipse
      class="cls-24"
      cx="381.76"
      cy="232.38"
      rx="2.79"
      ry="1.05"
      transform="translate(-4.71 377.94) rotate(-44.95)"
    />
   
    <polygon
      class="cls-28"
      points="145.47 389.8 137.36 379.45 138.04 374.83 142.36 375.64 150.28 387.03 150.16 374.21 153.76 370.67 156.22 374.43 155.46 386.36 164.12 381.1 169.2 381.82 167.59 385.93 158.16 389.8 167.82 392.22 170.32 395.55 166.43 398.25 156.02 394.61 164.74 402.75 164.76 407.72 159.31 407.22 152.75 398.19 152.93 408.94 148.63 412.86 145.57 407.42 146.33 399.69 134.42 402.58 131 400.22 134.11 396.53 143.71 394.18 133.38 390.73 130.34 386.01 135.6 384.87 145.47 389.8"
    />
    <polygon
      class="cls-20"
      points="148.66 391.54 145.98 387.55 146.35 385.89 147.9 386.3 150.48 390.66 150.78 385.99 152.19 384.79 152.98 386.23 152.39 390.55 155.68 388.87 157.51 389.27 156.82 390.72 153.28 391.88 156.73 393.02 157.56 394.3 156.06 395.18 152.37 393.57 155.33 396.77 155.2 398.58 153.23 398.26 151.08 394.79 150.86 398.71 149.19 400.03 148.22 397.96 148.71 395.17 144.29 395.9 143.11 394.95 144.34 393.69 147.9 393.09 144.22 391.56 143.25 389.76 145.19 389.48 148.66 391.54"
    />
    <polygon
      class="cls-17"
      points="432.92 324.24 438.33 318.66 441.09 318.68 440.96 321.28 434.93 326.83 442.44 325.71 444.81 327.53 442.8 329.28 435.75 329.8 439.53 334.44 439.52 337.46 436.98 336.86 433.95 331.66 433.32 337.5 431.57 339.23 429.67 337.18 430.96 330.8 426.89 336.56 423.99 336.97 423.83 333.75 428.59 329.18 422.31 330.16 419.66 327.96 422.6 325.73 427.19 325.55 424.54 318.82 425.64 316.64 428.05 318.15 430.21 323.57 431.39 317.25 433.91 315.09 435.01 318.07 432.92 324.24"
    />
    <polygon
      class="cls-18"
      points="428.71 327.7 424.03 326.64 423.15 325.18 424.56 324.41 429.44 325.81 426.44 322.21 426.64 320.37 428.2 320.87 430.75 324.42 431.98 320.94 433.59 319.97 434.08 321.5 432.31 324.77 435.6 323.23 437.08 323.59 436.6 325.26 432.81 326.63 437.17 326.92 438.32 328.32 436.66 329.44 432.72 328.4 435.25 331.4 434.94 333.5 432.82 332.66 431.25 330.3 428.55 333.86 427.03 333.99 427.06 332.23 429.23 329.35 425.51 330.75 423.56 330.12 424.78 328.58 428.71 327.7"
    />
   
    <polygon
      class="cls-28"
      points="87.42 71.96 79.32 61.61 79.99 57 84.32 57.81 92.23 69.2 92.11 56.38 95.72 52.83 98.18 56.6 97.41 68.52 106.08 63.27 111.16 63.99 109.55 68.1 100.11 71.96 109.78 74.39 112.28 77.71 108.39 80.42 97.98 76.77 106.7 84.92 106.72 89.88 101.27 89.39 94.7 80.36 94.89 91.11 90.59 95.03 87.53 89.58 88.29 81.86 76.38 84.74 72.96 82.39 76.07 78.7 85.66 76.34 75.33 72.89 72.3 68.18 77.56 67.03 87.42 71.96"
    />
    <polygon
      class="cls-20"
      points="86.06 72.61 79.35 67.65 78.98 64.71 81.77 64.48 88.53 70.1 86.29 62.28 87.89 59.51 90.03 61.39 91.58 68.81 95.99 64.14 99.22 63.72 98.93 66.5 93.82 70.46 100.14 70.31 102.23 71.92 100.31 74.23 93.33 73.76 100.04 77.27 100.89 80.3 97.48 80.92 91.94 76.51 93.87 83.05 91.91 86.17 89.11 83.36 88.27 78.51 81.48 82.29 78.99 81.42 80.26 78.64 85.73 75.58 78.83 75.22 76.17 72.85 79.19 71.26 86.06 72.61"
    />
    <polygon
      class="cls-28"
      points="90.61 71.97 87.94 67.98 88.31 66.32 89.86 66.73 92.44 71.09 92.74 66.42 94.14 65.22 94.94 66.66 94.34 70.98 97.64 69.3 99.47 69.7 98.78 71.15 95.23 72.31 98.69 73.45 99.51 74.73 98.02 75.61 94.33 74 97.29 77.2 97.16 79.01 95.19 78.69 93.04 75.22 92.82 79.14 91.15 80.46 90.18 78.39 90.66 75.6 86.25 76.33 85.06 75.38 86.3 74.12 89.85 73.52 86.18 71.99 85.2 70.19 87.15 69.91 90.61 71.97"
    />
  </g>
</svg>
