<?xml version="1.0" encoding="UTF-8"?>
<svg
  id="Layer_1"
  data-name="Layer 1"
  xmlns="http://www.w3.org/2000/svg"
  xmlns:xlink="http://www.w3.org/1999/xlink"
  viewBox="0 70 480 300" width="640" height="480"
>
  <defs>
    <style>
      .cls-1 {
        fill: none;
      }
      .cls-2 {
        clip-path: url(#clip-path);
      }
      .cls-3 {
        fill: #3f484d;
      }
      .cls-4 {
        fill: #cdcccc;
      }
      .cls-5 {
        fill: #e5e6e2;
      }
      .cls-6 {
        fill: #683e1b;
      }
      .cls-7 {
        fill: #cccdcf;
      }
      .cls-8 {
        fill: #d4bd9e;
      }
      .cls-9 {
        fill: #a08864;
      }
      .cls-10 {
        fill: #857145;
      }
      .cls-11 {
        fill: #b49e7b;
      }
      .cls-12 {
        fill: #867144;
      }
      .cls-13 {
        fill: #b59d7b;
      }
      .cls-14 {
        fill: #d3bb9a;
      }
      .cls-15 {
        fill: #8fa8ba;
      }
      .cls-16 {
        fill: #839cae;
      }
      .cls-17 {
        fill: #449235;
      }
      .cls-18 {
        fill: #aaca45;
      }
      .cls-19 {
        fill: #304721;
      }
      .cls-20 {
        fill: #6a8531;
      }
      .cls-21 {
        fill: #eb5a32;
      }
      .cls-22 {
        fill: #f7f1f1;
      }
      .cls-23 {
        fill: #0f384c;
      }
      .cls-24 {
        fill: #f29431;
      }
      .cls-25 {
        fill: #f7b87a;
      }
      .cls-26 {
        fill: #10374d;
      }
      .cls-27 {
        fill: #f39332;
      }
      .cls-28 {
        fill: #577330;
      }
      .cls-29 {
        fill: #e30613;
      }
      .cls-30 {
        fill: #eb5e5b;
      }
      .cls-31 {
        fill: #fbb800;
      }
      .cls-32 {
        fill: #ffee89;
      }
    </style>
    <clipPath id="clip-path" transform="translate(2.83 38.71)">
      <rect class="cls-1" x="-2.83" width="482.14" height="362" />
    </clipPath>
   
  </defs>
  <g class="cls-2">
    <rect class="cls-3" x="159.52" y="323.82" width="62.62" height="75.45" />
    <rect
      class="cls-3"
      x="338.82"
      y="199.02"
      width="62.62"
      height="91.29"
      transform="translate(743.08 528.04) rotate(180)"
    />
    <rect class="cls-4" x="234.56" y="40.63" width="103.67" height="72.13" />
    <path
      class="cls-5"
      d="M243.91,40h69.75A9.35,9.35,0,0,1,323,49.39v3.12a49.14,49.14,0,0,1-49.14,49.14h-30a9.35,9.35,0,0,1-9.35-9.35V49.39A9.35,9.35,0,0,1,243.91,40Z"
    />
    <path
      class="cls-6"
      d="M235.91,37.16h72.46a9.35,9.35,0,0,1,9.35,9.35v3.12a49.14,49.14,0,0,1-49.14,49.14H235.91a9.35,9.35,0,0,1-9.35-9.35V46.51a9.35,9.35,0,0,1,9.35-9.35Z"
    />
    <rect class="cls-3" x="3.63" y="116.89" width="500.98" height="60.13" />
    <rect class="cls-3" x="341.64" y="40.48" width="62.62" height="201.52" />
    <rect class="cls-7" x="370.73" y="58.79" width="2.77" height="10.05" />
    <rect class="cls-7" x="370.73" y="72.98" width="2.77" height="9.3" />
    <rect class="cls-7" x="370.73" y="86.42" width="2.77" height="11.09" />
    <rect class="cls-7" x="370.73" y="101.64" width="2.77" height="13.27" />
    <rect class="cls-7" x="370.73" y="119.05" width="2.77" height="10.1" />
    <rect class="cls-7" x="370.73" y="133.28" width="2.77" height="10.89" />
    <rect class="cls-7" x="370.73" y="148.31" width="2.77" height="10.3" />
    <rect class="cls-7" x="370.73" y="162.75" width="2.77" height="9.31" />
    <rect class="cls-7" x="370.73" y="192.61" width="2.77" height="8.52" />
    <rect class="cls-7" x="370.73" y="205.27" width="2.77" height="10.3" />
    <rect class="cls-7" x="370.73" y="219.7" width="2.77" height="9.9" />
    <rect class="cls-7" x="370.73" y="233.75" width="2.77" height="7.97" />
    <rect class="cls-7" x="370.73" y="176.2" width="2.77" height="12.28" />
    <rect class="cls-7" x="234.56" y="144.75" width="8.75" height="3.15" />
    <path
      class="cls-7"
      d="M287.14,106H274.19v3.16h13C287.15,108.14,287.15,107.09,287.14,106Z"
      transform="translate(2.83 38.71)"
    />
    <path
      class="cls-7"
      d="M303.49,106H291.28c0,1.06,0,2.11,0,3.16h12.19Z"
      transform="translate(2.83 38.71)"
    />
    <rect class="cls-7" x="325.41" y="144.75" width="10.82" height="3.15" />
    <rect class="cls-7" x="340.37" y="144.75" width="10.46" height="3.15" />
    <rect class="cls-7" x="354.97" y="144.75" width="9.94" height="3.15" />
    <rect class="cls-7" x="381.39" y="144.75" width="8.68" height="3.15" />
    <rect class="cls-7" x="394.32" y="144.75" width="11.54" height="3.15" />
    <rect class="cls-7" x="410.97" y="144.75" width="10.91" height="3.15" />
    <rect class="cls-7" x="426.62" y="144.75" width="11.33" height="3.15" />
    <rect class="cls-7" x="442.27" y="144.75" width="9.63" height="3.15" />
    <rect class="cls-7" x="454.8" y="144.75" width="10.12" height="3.15" />
    <rect class="cls-7" x="469.06" y="144.75" width="21.5" height="3.15" />
    <path
      class="cls-7"
      d="M495.73,106c0,1.06,0,2.11,0,3.16h6.08V106Z"
      transform="translate(2.83 38.71)"
    />
    <rect class="cls-7" x="310.45" y="144.75" width="10.82" height="3.15" />
    <rect class="cls-7" x="247.46" y="117.88" width="25.42" height="6.21" />
    <rect class="cls-7" x="246.72" y="131.32" width="25.42" height="6.21" />
    <rect class="cls-7" x="246.72" y="143.22" width="25.42" height="6.21" />
    <rect class="cls-7" x="247.15" y="155.12" width="25.42" height="6.21" />
    <rect class="cls-7" x="247.44" y="167.02" width="25.42" height="6.21" />
    <rect class="cls-7" x="467.1" y="119.01" width="25.42" height="6.21" />
    <rect class="cls-7" x="467.1" y="131.88" width="25.42" height="6.21" />
    <rect class="cls-7" x="467.1" y="144.75" width="25.42" height="6.21" />
    <rect class="cls-7" x="467.1" y="157.62" width="25.42" height="6.21" />
    <rect class="cls-7" x="467.1" y="170.49" width="25.42" height="6.21" />
    <rect
      class="cls-7"
      x="332.5"
      y="-3.11"
      width="25.39"
      height="6.22"
      transform="translate(348.02 383.9) rotate(-90)"
    />
    <rect
      class="cls-7"
      x="345.41"
      y="-3.11"
      width="25.39"
      height="6.22"
      transform="translate(360.93 396.82) rotate(-90)"
    />
    <rect
      class="cls-7"
      x="358.33"
      y="-3.11"
      width="25.39"
      height="6.22"
      transform="translate(373.84 409.73) rotate(-90)"
    />
    <rect
      class="cls-7"
      x="370.16"
      y="-3.11"
      width="25.39"
      height="6.22"
      transform="translate(385.68 421.57) rotate(-90)"
    />
    <rect
      class="cls-7"
      x="382.92"
      y="-3.11"
      width="25.39"
      height="6.22"
      transform="translate(398.44 434.33) rotate(-90)"
    />
    <rect class="cls-4" x="226.56" y="181.27" width="110.61" height="81.51" />
    <rect class="cls-4" x="408.19" y="180.08" width="96.41" height="87.65" />
    <rect class="cls-4" x="407.45" y="40.63" width="97.16" height="72.99" />
    <path
      class="cls-5"
      d="M422.16,1h39a49.14,49.14,0,0,1,49.14,49.14v3.12A9.35,9.35,0,0,1,501,62.59H422.16a9.35,9.35,0,0,1-9.35-9.35V10.33A9.35,9.35,0,0,1,422.16,1Z"
      transform="translate(925.95 102.28) rotate(-180)"
    />
    <path
      class="cls-5"
      d="M241.2,196.67h32.67A49.14,49.14,0,0,1,323,245.8v3.12a9.35,9.35,0,0,1-9.35,9.35H241.2a9.35,9.35,0,0,1-9.35-9.35V206A9.35,9.35,0,0,1,241.2,196.67Z"
    />
    <path
      class="cls-5"
      d="M428.7,155.14h66.78A10.84,10.84,0,0,1,506.32,166v3.62a56.95,56.95,0,0,1-56.95,56.95H428.7a10.84,10.84,0,0,1-10.84-10.84V166a10.84,10.84,0,0,1,10.84-10.84Z"
      transform="translate(927.01 420.39) rotate(-180)"
    />
    <path
      class="cls-6"
      d="M235.91,201.13h32.67a49.14,49.14,0,0,1,49.14,49.14v3.12a9.35,9.35,0,0,1-9.35,9.35H235.91a9.35,9.35,0,0,1-9.35-9.35V210.48A9.35,9.35,0,0,1,235.91,201.13Z"
    />
    <path
      class="cls-6"
      d="M433.14,160.09H505.6a9.35,9.35,0,0,1,9.35,9.35v3.12a49.14,49.14,0,0,1-49.14,49.14H433.14a9.35,9.35,0,0,1-9.35-9.35V169.44A9.35,9.35,0,0,1,433.14,160.09Z"
      transform="translate(941.56 420.51) rotate(180)"
    />
    <path
      class="cls-6"
      d="M430-2.81h32.67a49.14,49.14,0,0,1,49.14,49.14v3.12a9.35,9.35,0,0,1-9.35,9.35H430a9.35,9.35,0,0,1-9.35-9.35V6.54A9.35,9.35,0,0,1,430-2.81Z"
      transform="translate(935.29 94.69) rotate(-180)"
    />
    <polygon
      class="cls-8"
      points="264.82 203.38 234.56 203.38 234.56 224.66 258 224.66 264.82 203.38"
    />
    <polygon
      class="cls-9"
      points="234.56 224.66 258 224.66 264.82 242 234.56 242 234.56 224.66"
    />
    <polygon
      class="cls-10"
      points="258 224.66 264.82 203.38 264.82 242 258 224.66"
    />
    <polygon
      class="cls-8"
      points="431.12 224.66 476.6 224.66 469.17 241.89 438.85 241.98 431.12 224.66"
    />
    <polygon
      class="cls-11"
      points="431.12 224.66 438.85 241.98 431.12 241.98 431.12 224.66"
    />
    <polygon
      class="cls-12"
      points="476.6 224.66 476.6 241.98 469.17 241.89 476.6 224.66"
    />
    <polygon
      class="cls-13"
      points="488.8 55.05 488.8 96.59 504.52 92.46 504.52 59.3 488.8 55.05"
    />
    <polygon
      class="cls-14"
      points="488.8 55.05 504.52 55.05 504.52 59.3 488.8 55.05"
    />
    <polygon
      class="cls-9"
      points="504.52 92.46 488.8 96.59 504.61 96.59 504.52 92.46"
    />
    <polygon
      class="cls-15"
      points="483.16 213.01 504.61 213.01 504.61 242 490.53 242 483.16 213.01"
    />
    <polygon
      class="cls-16"
      points="490.53 242 483.16 241.98 483.16 213.01 490.53 242"
    />
    <polygon
      class="cls-17"
      points="437.55 204.3 436.21 200.16 436.95 198.81 438.21 199.55 439.36 203.99 440.79 200 442.31 199.31 442.65 200.76 441.05 204.37 444.34 203.73 445.84 204.53 444.86 205.63 441.49 205.75 444.22 207.61 444.61 208.93 443.09 209.32 440.28 207 442.05 210.53 441.49 212.07 439.86 211.29 438.85 207.74 437.68 211.1 435.89 211.83 435.57 209.79 436.69 207.47 432.66 207.01 431.86 205.89 433.25 205.1 436.5 205.46 433.69 203.21 433.28 201.4 435.05 201.65 437.55 204.3"
    />
    <polygon
      class="cls-18"
      points="437.91 204.95 436.41 202.72 436.62 201.79 437.49 202.02 438.93 204.46 439.1 201.84 439.89 201.17 440.33 201.98 440 204.4 441.85 203.46 442.87 203.68 442.48 204.49 440.5 205.14 442.44 205.78 442.9 206.5 442.06 206.99 439.99 206.09 441.65 207.88 441.58 208.9 440.47 208.71 439.27 206.77 439.15 208.97 438.21 209.71 437.67 208.55 437.94 206.98 435.46 207.39 434.8 206.86 435.49 206.16 437.49 205.82 435.43 204.96 434.88 203.95 435.97 203.8 437.91 204.95"
    />
    <polygon
      class="cls-17"
      points="498.08 204.47 497.91 200.13 498.99 199.02 500 200.08 499.91 204.66 502.36 201.2 504.02 200.95 503.95 202.43 501.43 205.48 504.77 205.75 506 206.93 504.76 207.72 501.48 206.93 503.61 209.45 503.63 210.83 502.06 210.8 499.98 207.81 500.73 211.68 499.77 213.02 498.41 211.83 498.4 208.14 496.36 211.06 494.45 211.27 494.69 209.22 496.39 207.29 492.63 205.76 492.18 204.47 493.73 204.08 496.76 205.31 494.65 202.38 494.76 200.53 496.39 201.24 498.08 204.47"
    />
    <polygon
      class="cls-18"
      points="497.36 205.48 494.96 204.27 494.68 203.36 495.56 203.13 498.01 204.55 496.87 202.19 497.23 201.22 498.02 201.7 498.91 203.98 500.06 202.25 501.06 201.94 501.12 202.84 499.71 204.38 501.71 203.99 502.47 204.39 501.98 205.23 499.74 205.46 502.06 206.21 502.5 207.13 501.44 207.51 499.44 206.41 500.41 208.38 499.96 209.48 498.92 208.74 498.38 207.24 496.43 208.81 495.59 208.67 495.85 207.72 497.42 206.45 495.2 206.71 494.23 206.09 495.11 205.43 497.36 205.48"
    />
    <polygon
      class="cls-19"
      points="289.75 235.81 287.49 228.8 288.74 226.5 290.86 227.77 292.81 235.28 295.23 228.52 297.81 227.35 298.38 229.81 295.67 235.93 301.24 234.84 303.77 236.2 302.13 238.05 296.42 238.26 301.04 241.4 301.71 243.63 299.13 244.3 294.37 240.38 297.37 246.34 296.42 248.96 293.65 247.64 291.95 241.63 289.96 247.32 286.95 248.55 286.39 245.09 288.29 241.18 281.47 240.4 280.13 238.5 282.47 237.16 287.98 237.77 283.21 233.96 282.53 230.9 285.52 231.31 289.75 235.81"
    />
    <polygon
      class="cls-19"
      points="424 81.14 422.66 77 423.4 75.65 424.65 76.39 425.81 80.83 427.24 76.84 428.76 76.15 429.09 77.6 427.49 81.21 430.79 80.57 432.28 81.37 431.31 82.47 427.94 82.59 430.66 84.45 431.06 85.77 429.54 86.16 426.72 83.84 428.5 87.37 427.94 88.91 426.3 88.14 425.29 84.58 424.12 87.94 422.34 88.67 422.01 86.63 423.13 84.31 419.1 83.85 418.31 82.73 419.7 81.94 422.95 82.3 420.13 80.05 419.73 78.24 421.49 78.49 424 81.14"
    />
    <polygon
      class="cls-20"
      points="424.36 81.11 422.86 78.88 423.06 77.94 423.93 78.17 425.38 80.62 425.55 78 426.33 77.33 426.78 78.14 426.44 80.56 428.29 79.61 429.32 79.84 428.93 80.65 426.94 81.3 428.88 81.94 429.34 82.66 428.51 83.15 426.44 82.25 428.09 84.04 428.02 85.06 426.92 84.87 425.71 82.93 425.59 85.13 424.65 85.86 424.11 84.71 424.38 83.14 421.91 83.55 421.25 83.02 421.94 82.31 423.93 81.98 421.87 81.12 421.32 80.11 422.42 79.96 424.36 81.11"
    />
    <rect
      class="cls-21"
      x="346.48"
      y="69.4"
      width="19.41"
      height="41.51"
      rx="9.21"
    />
    <rect
      class="cls-22"
      x="347.79"
      y="70.49"
      width="16.8"
      height="38.74"
      rx="7.98"
    />
    <rect class="cls-21" x="350.1" y="73.96" width="12.13" height="20.38" />
    <path
      class="cls-23"
      d="M361.77,60.45a4.83,4.83,0,0,1-4.67,5h-7.48a4.83,4.83,0,0,1-4.66-5"
      transform="translate(2.83 38.71)"
    />
    <rect class="cls-21" x="351.51" y="95.41" width="9.36" height="4.18" />
    <polygon
      class="cls-21"
      points="347.35 103.41 353.36 98.71 353 98.25 346.99 102.95 347.35 103.41"
    />
    <polygon
      class="cls-21"
      points="365.16 103.37 359.15 98.67 359.45 98.29 365.46 102.99 365.16 103.37"
    />
    <rect
      class="cls-21"
      x="341.33"
      y="63.47"
      width="3.04"
      height="0.99"
      rx="0.47"
      transform="translate(39.81 -64.9) rotate(18.15)"
    />
    <rect
      class="cls-21"
      x="362.45"
      y="63.47"
      width="3.38"
      height="0.99"
      rx="0.47"
      transform="translate(732.91 50.04) rotate(161.85)"
    />
    <rect
      class="cls-24"
      x="419.61"
      y="155.55"
      width="36.67"
      height="14.8"
      rx="7.03"
    />
    <rect
      class="cls-25"
      x="421.22"
      y="157.07"
      width="33.46"
      height="11.76"
      rx="5.58"
    />
    <rect
      class="cls-26"
      x="424.36"
      y="157.07"
      width="19.66"
      height="11.76"
      rx="5.58"
    />
    <rect class="cls-27" x="429.71" y="158.77" width="8.95" height="8.36" />
    <polygon
      class="cls-24"
      points="430.47 159.6 426.5 156.04 426.76 155.76 430.73 159.31 430.47 159.6"
    />
    <polygon
      class="cls-24"
      points="440.52 169.05 436.55 165.5 436.8 165.21 440.78 168.77 440.52 169.05"
    />
    <polygon
      class="cls-24"
      points="441.26 156.22 437.29 159.78 437.55 160.06 441.52 156.51 441.26 156.22"
    />
    <polygon
      class="cls-24"
      points="427.15 169.78 431.13 166.22 430.87 165.93 426.89 169.49 427.15 169.78"
    />
    <ellipse
      class="cls-24"
      cx="444.36"
      cy="116.51"
      rx="0.59"
      ry="1.56"
      transform="translate(50.81 387.42) rotate(-45.05)"
    />
    <ellipse
      class="cls-24"
      cx="445.62"
      cy="131.96"
      rx="1.56"
      ry="0.59"
      transform="translate(39.82 392.08) rotate(-44.95)"
    />
    <polygon
      class="cls-28"
      points="289.22 236.27 284.68 230.47 285.06 227.88 287.49 228.34 291.92 234.72 291.85 227.53 293.87 225.55 295.25 227.66 294.82 234.34 299.68 231.4 302.52 231.8 301.62 234.1 296.33 236.27 301.75 237.62 303.15 239.49 300.97 241 295.14 238.96 300.02 243.53 300.03 246.31 296.98 246.03 293.3 240.97 293.41 247 291 249.19 289.28 246.14 289.71 241.81 283.04 243.43 281.12 242.11 282.86 240.04 288.24 238.72 282.45 236.79 280.75 234.15 283.7 233.51 289.22 236.27"
    />
    <polygon
      class="cls-20"
      points="291.01 237.24 289.51 235.01 289.72 234.08 290.59 234.31 292.03 236.75 292.2 234.13 292.99 233.46 293.44 234.27 293.1 236.69 294.95 235.75 295.97 235.97 295.58 236.79 293.6 237.43 295.54 238.07 296 238.79 295.16 239.28 293.09 238.38 294.75 240.18 294.68 241.19 293.57 241.01 292.37 239.07 292.25 241.26 291.31 242 290.77 240.84 291.04 239.28 288.56 239.69 287.9 239.16 288.59 238.45 290.58 238.11 288.53 237.25 287.98 236.25 289.07 236.09 291.01 237.24"
    />
    <polygon
      class="cls-17"
      points="450.27 199.54 453.3 196.41 454.85 196.43 454.78 197.88 451.4 200.99 455.61 200.36 456.93 201.38 455.81 202.36 451.86 202.65 453.98 205.25 453.97 206.95 452.55 206.61 450.85 203.69 450.5 206.97 449.52 207.94 448.45 206.79 449.18 203.21 446.9 206.44 445.27 206.67 445.18 204.86 447.85 202.3 444.33 202.85 442.85 201.62 444.49 200.38 447.07 200.27 445.58 196.5 446.19 195.28 447.55 196.13 448.76 199.16 449.42 195.62 450.83 194.41 451.44 196.08 450.27 199.54"
    />
    <polygon
      class="cls-18"
      points="447.92 201.48 445.29 200.88 444.8 200.06 445.59 199.63 448.32 200.42 446.64 198.4 446.75 197.37 447.63 197.65 449.06 199.64 449.75 197.69 450.65 197.15 450.92 198 449.93 199.84 451.78 198.97 452.6 199.18 452.34 200.11 450.21 200.88 452.65 201.04 453.3 201.82 452.37 202.45 450.16 201.87 451.58 203.55 451.41 204.72 450.22 204.26 449.34 202.93 447.82 204.93 446.98 205 446.99 204.01 448.21 202.4 446.12 203.19 445.03 202.83 445.71 201.97 447.92 201.48"
    />
    
    
    <polygon
      class="cls-28"
      points="256.7 58.2 252.16 52.4 252.54 49.81 254.97 50.27 259.4 56.65 259.33 49.46 261.35 47.48 262.73 49.59 262.3 56.27 267.16 53.33 270 53.73 269.1 56.03 263.81 58.2 269.23 59.55 270.63 61.42 268.45 62.93 262.62 60.89 267.5 65.46 267.51 68.24 264.46 67.96 260.78 62.9 260.89 68.92 258.48 71.12 256.76 68.07 257.19 63.74 250.52 65.36 248.6 64.04 250.34 61.97 255.72 60.65 249.93 58.72 248.23 56.08 251.18 55.44 256.7 58.2"
    />
    <polygon
      class="cls-20"
      points="255.94 58.56 252.18 55.78 251.97 54.13 253.53 54 257.33 57.15 256.07 52.77 256.96 51.22 258.17 52.27 259.04 56.43 261.51 53.81 263.31 53.58 263.15 55.14 260.29 57.35 263.83 57.27 265 58.17 263.93 59.47 260.01 59.2 263.77 61.17 264.25 62.87 262.34 63.21 259.23 60.74 260.32 64.41 259.22 66.16 257.65 64.58 257.18 61.86 253.37 63.98 251.98 63.5 252.69 61.94 255.75 60.22 251.89 60.02 250.4 58.69 252.09 57.8 255.94 58.56"
    />
    <polygon
      class="cls-28"
      points="258.49 58.2 256.99 55.97 257.2 55.03 258.07 55.27 259.51 57.71 259.68 55.09 260.47 54.42 260.92 55.23 260.58 57.65 262.43 56.7 263.45 56.93 263.06 57.74 261.08 58.39 263.02 59.03 263.48 59.74 262.64 60.24 260.57 59.34 262.23 61.13 262.16 62.15 261.06 61.96 259.85 60.02 259.73 62.22 258.79 62.95 258.25 61.8 258.52 60.23 256.05 60.64 255.38 60.11 256.07 59.41 258.07 59.07 256.01 58.21 255.46 57.2 256.55 57.05 258.49 58.2"
    />
    <rect class="cls-1" x="234.56" y="40.48" width="270.05" height="201.52" />
    <rect
      class="cls-3"
      x="217.12"
      y="230.18"
      width="184.31"
      height="60.13"
      transform="translate(621.39 559.21) rotate(180)"
    />
    <rect class="cls-7" x="371.06" y="286.3" width="2.77" height="8.52" />
    <rect class="cls-7" x="371.06" y="271.87" width="2.77" height="10.3" />
    <rect class="cls-7" x="371.06" y="257.83" width="2.77" height="9.9" />
    <rect class="cls-7" x="371.06" y="245.72" width="2.77" height="7.97" />
    <rect class="cls-7" x="371.06" y="298.96" width="2.77" height="12.28" />
    <polygon
      class="cls-8"
      points="476.6 253.97 431.12 253.97 438.55 241.78 468.86 241.72 476.6 253.97"
    />
    <polygon
      class="cls-11"
      points="431.12 253.97 438.85 241.72 431.12 241.72 431.12 253.97"
    />
    <polygon
      class="cls-12"
      points="476.6 253.69 476.6 241.72 469.17 241.78 476.6 253.69"
    />
    <rect class="cls-3" x="158.13" y="38.71" width="62.62" height="290.31" />
    <rect class="cls-3" y="117.12" width="66.25" height="211.14" />
    <rect
      class="cls-3"
      x="0.81"
      y="230.18"
      width="184.31"
      height="60.13"
      transform="translate(188.75 559.21) rotate(180)"
    />
    <rect class="cls-4" x="71.06" y="181.27" width="81.51" height="81.51" />
    <rect class="cls-4" x="5.69" y="37.77" width="146.88" height="72.99" />
    <path
      class="cls-5"
      d="M19.33-1.88H94.55a49.14,49.14,0,0,1,49.14,49.14v3.12a9.35,9.35,0,0,1-9.35,9.35h-115A9.35,9.35,0,0,1,10,50.38V7.47a9.35,9.35,0,0,1,9.35-9.35Z"
      transform="translate(156.49 96.57) rotate(-180)"
    />
    <path
      class="cls-6"
      d="M27.18-5.67H94.55a49.14,49.14,0,0,1,49.14,49.14v3.12a9.35,9.35,0,0,1-9.35,9.35H27.18a9.35,9.35,0,0,1-9.35-9.35V3.68a9.35,9.35,0,0,1,9.35-9.35Z"
      transform="translate(164.34 88.99) rotate(-180)"
    />
    <polygon
      class="cls-13"
      points="85.97 52.2 85.97 93.74 101.69 89.61 101.69 56.44 85.97 52.2"
    />
    <polygon
      class="cls-14"
      points="85.97 52.2 101.69 52.2 101.69 56.44 85.97 52.2"
    />
    <polygon
      class="cls-9"
      points="101.69 89.61 85.97 93.74 101.78 93.74 101.69 89.61"
    />
    <polygon
      class="cls-19"
      points="21.17 78.29 19.83 74.15 20.57 72.79 21.82 73.54 22.98 77.98 24.41 73.98 25.93 73.29 26.27 74.74 24.66 78.36 27.96 77.72 29.45 78.52 28.48 79.61 25.11 79.74 27.84 81.59 28.23 82.91 26.71 83.31 23.9 80.99 25.67 84.52 25.11 86.06 23.48 85.28 22.47 81.73 21.3 85.09 19.51 85.81 19.18 83.78 20.3 81.46 16.27 81 15.48 79.88 16.87 79.09 20.12 79.45 17.31 77.2 16.9 75.39 18.67 75.63 21.17 78.29"
    />
    <polygon
      class="cls-20"
      points="21.53 78.26 20.03 76.02 20.24 75.09 21.11 75.32 22.55 77.77 22.72 75.15 23.51 74.48 23.95 75.28 23.62 77.7 25.47 76.76 26.49 76.98 26.1 77.8 24.12 78.45 26.05 79.09 26.52 79.8 25.68 80.3 23.61 79.4 25.27 81.19 25.2 82.2 24.09 82.02 22.89 80.08 22.77 82.28 21.83 83.01 21.29 81.86 21.56 80.29 19.08 80.7 18.42 80.17 19.11 79.46 21.1 79.12 19.05 78.27 18.5 77.26 19.59 77.1 21.53 78.26"
    />
   
    <path
      class="cls-6"
      d="M84.17,181.15h7.24a61.16,61.16,0,0,1,61.16,61.16v3.88a11.64,11.64,0,0,1-11.64,11.64H84.17a11.64,11.64,0,0,1-11.64-11.64v-53.4a11.64,11.64,0,0,1,11.64-11.64Z"
    />
    <polygon
      class="cls-13"
      points="117.34 52.21 117.34 93.75 101.62 89.62 101.62 56.46 117.34 52.21"
    />
    <polygon
      class="cls-14"
      points="117.34 52.2 101.62 52.2 101.62 56.44 117.34 52.2"
    />
    <polygon
      class="cls-9"
      points="101.67 89.61 117.38 93.74 101.58 93.74 101.67 89.61"
    />
    
    <polygon
      class="cls-8"
      points="98.71 225.06 124.91 225.06 120.63 242.3 103.16 242.39 98.71 225.06"
    />
    <polygon
      class="cls-11"
      points="98.71 225.06 103.16 242.39 98.71 242.39 98.71 225.06"
    />
    <polygon
      class="cls-12"
      points="124.91 225.06 124.91 242.39 120.63 242.3 124.91 225.06"
    />
    <polygon
      class="cls-8"
      points="124.91 254.38 98.71 254.38 102.99 242.19 120.46 242.12 124.91 254.38"
    />
    <polygon
      class="cls-11"
      points="98.71 254.38 103.16 242.12 98.71 242.12 98.71 254.38"
    />
    <polygon
      class="cls-12"
      points="124.91 254.1 124.91 242.12 120.63 242.19 124.91 254.1"
    />
    <rect class="cls-7" x="187.62" y="55.73" width="2.77" height="8.52" />
    <rect class="cls-7" x="187.62" y="68.38" width="2.77" height="10.3" />
    <rect class="cls-7" x="187.62" y="82.82" width="2.77" height="9.9" />
    <rect class="cls-7" x="187.62" y="96.86" width="2.77" height="7.97" />
    <rect class="cls-7" x="187.62" y="39.31" width="2.77" height="12.28" />
    <rect class="cls-7" x="187.94" y="149.42" width="2.77" height="8.52" />
    <rect class="cls-7" x="187.94" y="134.98" width="2.77" height="10.3" />
    <rect class="cls-7" x="187.94" y="120.94" width="2.77" height="9.9" />
    <rect class="cls-7" x="187.94" y="108.84" width="2.77" height="7.97" />
    <rect class="cls-7" x="187.94" y="162.08" width="2.77" height="12.28" />
    <rect class="cls-7" x="187.78" y="194.92" width="2.77" height="8.52" />
    <rect class="cls-7" x="187.78" y="207.57" width="2.77" height="10.3" />
    <rect class="cls-7" x="187.78" y="222.01" width="2.77" height="9.9" />
    <rect class="cls-7" x="187.78" y="236.05" width="2.77" height="7.97" />
    <rect class="cls-7" x="187.78" y="178.5" width="2.77" height="12.28" />
    <rect class="cls-7" x="188.11" y="288.61" width="2.77" height="8.52" />
    <rect class="cls-7" x="188.11" y="274.17" width="2.77" height="10.3" />
    <rect class="cls-7" x="188.11" y="260.13" width="2.77" height="9.9" />
    <rect class="cls-7" x="188.11" y="248.03" width="2.77" height="7.97" />
    <rect class="cls-7" x="188.11" y="301.27" width="2.77" height="12.28" />
    <rect class="cls-7" x="115.12" y="145.41" width="8.52" height="2.77" />
    <rect class="cls-7" x="100.68" y="145.41" width="10.3" height="2.77" />
    <rect class="cls-7" x="86.64" y="145.41" width="9.9" height="2.77" />
    <rect class="cls-7" x="74.53" y="145.41" width="7.97" height="2.77" />
    <rect class="cls-7" x="127.77" y="145.41" width="12.28" height="2.77" />
    <rect class="cls-7" x="21.42" y="145.73" width="8.52" height="2.77" />
    <rect class="cls-7" x="34.08" y="145.73" width="10.3" height="2.77" />
    <rect class="cls-7" x="48.52" y="145.73" width="9.9" height="2.77" />
    <rect class="cls-7" x="62.56" y="145.73" width="7.97" height="2.77" />
    <rect class="cls-7" x="5.01" y="145.73" width="12.28" height="2.77" />
    <rect class="cls-7" x="338.49" y="296.15" width="8.52" height="2.77" />
    <rect class="cls-7" x="324.06" y="296.15" width="10.3" height="2.77" />
    <rect class="cls-7" x="310.02" y="296.15" width="9.9" height="2.77" />
    <rect class="cls-7" x="297.91" y="296.15" width="7.97" height="2.77" />
    <rect class="cls-7" x="351.15" y="296.15" width="12.28" height="2.77" />
    <rect class="cls-7" x="244.8" y="296.47" width="8.52" height="2.77" />
    <rect class="cls-7" x="257.46" y="296.47" width="10.3" height="2.77" />
    <rect class="cls-7" x="271.89" y="296.47" width="9.9" height="2.77" />
    <rect class="cls-7" x="285.93" y="296.47" width="7.97" height="2.77" />
    <rect class="cls-7" x="228.39" y="296.47" width="12.28" height="2.77" />
    <rect class="cls-7" x="115.12" y="297.37" width="8.52" height="2.77" />
    <rect class="cls-7" x="100.68" y="297.37" width="10.3" height="2.77" />
    <rect class="cls-7" x="86.64" y="297.37" width="9.9" height="2.77" />
    <rect class="cls-7" x="74.53" y="297.37" width="7.97" height="2.77" />
    <rect class="cls-7" x="127.77" y="297.37" width="12.28" height="2.77" />
    <rect class="cls-7" x="21.42" y="297.7" width="8.52" height="2.77" />
    <rect class="cls-7" x="34.08" y="297.7" width="10.3" height="2.77" />
    <rect class="cls-7" x="48.52" y="297.7" width="9.9" height="2.77" />
    <rect class="cls-7" x="62.56" y="297.7" width="7.97" height="2.77" />
    <rect class="cls-7" x="5.01" y="297.7" width="12.28" height="2.77" />
    <rect class="cls-7" x="172.44" y="297.37" width="8.52" height="2.77" />
    <rect class="cls-7" x="158.01" y="297.37" width="10.3" height="2.77" />
    <rect class="cls-7" x="143.97" y="297.37" width="9.9" height="2.77" />
    <rect class="cls-7" x="171.05" y="145.57" width="7.97" height="2.77" />
    <rect class="cls-7" x="189" y="317.68" width="2.77" height="12.28" />
    <rect class="cls-7" x="145.03" y="145.9" width="9.9" height="2.77" />
    <rect class="cls-7" x="159.07" y="145.9" width="7.97" height="2.77" />
    <rect class="cls-7" x="209.65" y="296.47" width="10.3" height="2.77" />
    <rect class="cls-7" x="194.38" y="296.47" width="9.9" height="2.77" />
    <rect class="cls-7" x="219.74" y="144.81" width="7.97" height="2.77" />
    <rect class="cls-7" x="193.72" y="145.13" width="9.9" height="2.77" />
    <rect class="cls-7" x="207.76" y="145.13" width="7.97" height="2.77" />
    <rect
      class="cls-7"
      x="148.51"
      y="202.41"
      width="25.39"
      height="6.22"
      transform="translate(-41.48 405.44) rotate(-90)"
    />
    <rect
      class="cls-7"
      x="161.43"
      y="202.41"
      width="25.39"
      height="6.22"
      transform="translate(-28.57 418.35) rotate(-90)"
    />
    <rect
      class="cls-7"
      x="174.34"
      y="202.41"
      width="25.39"
      height="6.22"
      transform="translate(-15.66 431.27) rotate(-90)"
    />
    <rect
      class="cls-7"
      x="186.18"
      y="202.41"
      width="25.39"
      height="6.22"
      transform="translate(-3.82 443.1) rotate(-90)"
    />
    <rect
      class="cls-7"
      x="198.94"
      y="202.41"
      width="25.39"
      height="6.22"
      transform="translate(8.94 455.86) rotate(-90)"
    />
    <rect class="cls-4" x="235.95" y="335.07" width="103.67" height="72.13" />
    <path
      class="cls-5"
      d="M245.3,334.47H315a9.35,9.35,0,0,1,9.35,9.35v3.12a49.14,49.14,0,0,1-49.14,49.14h-30a9.35,9.35,0,0,1-9.35-9.35V343.83a9.35,9.35,0,0,1,9.35-9.35Z"
    />
    <path
      class="cls-6"
      d="M237.3,331.59h72.46a9.35,9.35,0,0,1,9.35,9.35v3.12A49.14,49.14,0,0,1,270,393.2H237.3a9.35,9.35,0,0,1-9.35-9.35V340.95a9.35,9.35,0,0,1,9.35-9.35Z"
    />
    <rect class="cls-3" x="343.03" y="323.82" width="61.23" height="81.39" />
    <rect
      class="cls-21"
      x="347.87"
      y="363.84"
      width="19.41"
      height="41.51"
      rx="9.21"
    />
    <rect
      class="cls-22"
      x="349.17"
      y="364.93"
      width="16.8"
      height="38.74"
      rx="7.98"
    />
    <rect class="cls-21" x="351.49" y="368.4" width="12.13" height="20.38" />
    <path
      class="cls-23"
      d="M363.16,354.89a4.84,4.84,0,0,1-4.67,5H351a4.83,4.83,0,0,1-4.66-5"
      transform="translate(2.83 38.71)"
    />
    <rect class="cls-21" x="352.9" y="389.85" width="9.36" height="4.18" />
    <polygon
      class="cls-21"
      points="348.74 397.85 354.75 393.15 354.38 392.69 348.37 397.39 348.74 397.85"
    />
    <rect
      class="cls-21"
      x="342.72"
      y="357.91"
      width="3.04"
      height="0.99"
      rx="0.47"
      transform="translate(131.59 -50.68) rotate(18.15)"
    />

    <polygon
      class="cls-28"
      points="258.09 352.63 253.55 346.84 253.93 344.25 256.36 344.7 260.79 351.09 260.72 343.9 262.74 341.92 264.12 344.03 263.69 350.71 268.55 347.76 271.39 348.17 270.49 350.47 265.2 352.63 270.62 353.99 272.02 355.86 269.84 357.37 264.01 355.33 268.89 359.89 268.9 362.68 265.85 362.4 262.17 357.34 262.27 363.36 259.87 365.56 258.15 362.51 258.58 358.18 251.91 359.8 249.99 358.48 251.73 356.41 257.11 355.09 251.32 353.16 249.62 350.51 252.57 349.87 258.09 352.63"
    />
    <polygon
      class="cls-20"
      points="257.33 353 253.57 350.22 253.36 348.57 254.92 348.44 258.72 351.59 257.46 347.21 258.35 345.66 259.56 346.71 260.43 350.87 262.89 348.25 264.7 348.01 264.54 349.58 261.68 351.79 265.22 351.71 266.39 352.61 265.31 353.91 261.4 353.64 265.16 355.61 265.64 357.31 263.73 357.65 260.62 355.18 261.71 358.85 260.61 360.6 259.04 359.02 258.57 356.3 254.76 358.42 253.37 357.94 254.08 356.38 257.14 354.66 253.28 354.46 251.79 353.13 253.48 352.24 257.33 353"
    />
    <polygon
      class="cls-28"
      points="259.88 352.64 258.38 350.41 258.59 349.47 259.46 349.7 260.9 352.15 261.07 349.53 261.86 348.86 262.31 349.66 261.97 352.09 263.82 351.14 264.84 351.37 264.45 352.18 262.47 352.83 264.41 353.47 264.87 354.19 264.03 354.68 261.96 353.78 263.62 355.57 263.55 356.58 262.44 356.4 261.24 354.46 261.12 356.66 260.18 357.39 259.64 356.24 259.91 354.67 257.43 355.08 256.77 354.55 257.46 353.84 259.45 353.51 257.4 352.65 256.85 351.64 257.94 351.49 259.88 352.64"
    />
    <rect class="cls-1" x="235.95" y="334.92" width="270.05" height="201.52" />
    <rect class="cls-4" x="7.08" y="332.21" width="146.88" height="72.99" />
    <path
      class="cls-5"
      d="M20.72,292.56H95.94a49.14,49.14,0,0,1,49.14,49.14v3.12a9.35,9.35,0,0,1-9.35,9.35h-115a9.35,9.35,0,0,1-9.35-9.35V301.91a9.35,9.35,0,0,1,9.35-9.35Z"
      transform="translate(159.27 685.45) rotate(-180)"
    />
    <path
      class="cls-6"
      d="M28.57,288.77H95.94a49.14,49.14,0,0,1,49.14,49.14V341a9.35,9.35,0,0,1-9.35,9.35H28.57A9.35,9.35,0,0,1,19.22,341V298.12a9.35,9.35,0,0,1,9.35-9.35Z"
      transform="translate(167.12 677.86) rotate(180)"
    />
    <polygon
      class="cls-13"
      points="87.36 346.63 87.36 388.18 103.08 384.05 103.08 350.88 87.36 346.63"
    />
    <polygon
      class="cls-14"
      points="87.36 346.63 103.08 346.63 103.08 350.88 87.36 346.63"
    />
    <polygon
      class="cls-9"
      points="103.08 384.05 87.36 388.18 103.17 388.18 103.08 384.05"
    />
    <polygon
      class="cls-19"
      points="22.56 372.73 21.22 368.59 21.96 367.23 23.21 367.98 24.37 372.42 25.8 368.42 27.32 367.73 27.66 369.18 26.05 372.8 29.35 372.16 30.84 372.96 29.87 374.05 26.5 374.18 29.23 376.03 29.62 377.35 28.1 377.75 25.29 375.43 27.06 378.95 26.5 380.5 24.86 379.72 23.86 376.17 22.68 379.53 20.9 380.25 20.57 378.22 21.69 375.9 17.66 375.44 16.87 374.32 18.26 373.53 21.51 373.89 18.69 371.64 18.29 369.83 20.06 370.07 22.56 372.73"
    />
    <polygon
      class="cls-20"
      points="22.92 372.7 21.42 370.46 21.63 369.53 22.5 369.76 23.94 372.2 24.11 369.58 24.9 368.92 25.34 369.72 25.01 372.14 26.86 371.2 27.88 371.42 27.49 372.24 25.51 372.89 27.44 373.52 27.91 374.24 27.07 374.74 25 373.84 26.66 375.63 26.59 376.64 25.48 376.46 24.28 374.52 24.15 376.72 23.22 377.45 22.68 376.29 22.95 374.73 20.47 375.14 19.81 374.61 20.5 373.9 22.49 373.56 20.44 372.71 19.89 371.7 20.98 371.54 22.92 372.7"
    />

    <polygon
      class="cls-13"
      points="118.73 346.65 118.73 388.19 103.01 384.06 103.01 350.9 118.73 346.65"
    />
    <polygon
      class="cls-14"
      points="118.73 346.63 103.01 346.63 103.01 350.88 118.73 346.63"
    />
    <polygon
      class="cls-9"
      points="103.05 384.05 118.77 388.18 102.97 388.18 103.05 384.05"
    />
    <rect class="cls-7" x="189.01" y="350.17" width="2.77" height="8.52" />
    <rect class="cls-7" x="189.01" y="362.82" width="2.77" height="10.3" />
    <rect class="cls-7" x="189.01" y="377.26" width="2.77" height="9.9" />
    <rect class="cls-7" x="189.01" y="391.3" width="2.77" height="7.97" />
    <rect class="cls-7" x="189.01" y="333.75" width="2.77" height="12.28" />
    <rect class="cls-7" x="189.33" y="403.27" width="2.77" height="7.97" />
   
    <rect class="cls-7" x="370.89" y="316.04" width="2.77" height="12.28" />
    <rect class="cls-7" x="370.9" y="348.52" width="2.77" height="8.52" />
    <rect class="cls-7" x="370.9" y="361.18" width="2.77" height="10.3" />
    <rect class="cls-7" x="370.9" y="375.62" width="2.77" height="9.9" />
    <rect class="cls-7" x="370.9" y="389.66" width="2.77" height="7.97" />
    <rect class="cls-7" x="370.9" y="332.11" width="2.77" height="12.28" />
    <rect class="cls-7" x="371.22" y="401.63" width="2.77" height="7.97" />
    <rect class="cls-7" x="28.4" y="159.24" width="2.77" height="12.28" />
    <rect class="cls-7" x="28.4" y="191.72" width="2.77" height="8.52" />
    <rect class="cls-7" x="28.4" y="204.38" width="2.77" height="10.3" />
    <rect class="cls-7" x="28.4" y="218.81" width="2.77" height="9.9" />
    <rect class="cls-7" x="28.4" y="232.85" width="2.77" height="7.97" />
    <rect class="cls-7" x="28.4" y="175.31" width="2.77" height="12.28" />
    <rect class="cls-7" x="28.73" y="244.83" width="2.77" height="7.97" />
    <rect class="cls-7" x="28.56" y="263.23" width="2.77" height="12.28" />
    <rect class="cls-7" x="29.46" y="309.6" width="2.77" height="7.97" />
    <rect class="cls-7" x="28.57" y="279.3" width="2.77" height="12.28" />
    <rect class="cls-4" x="407.99" y="267.31" width="97.16" height="72.99" />
    <path
      class="cls-5"
      d="M422.7,227.66h39a49.14,49.14,0,0,1,49.14,49.14v3.12a9.35,9.35,0,0,1-9.35,9.35H422.7a9.35,9.35,0,0,1-9.35-9.35V237a9.35,9.35,0,0,1,9.35-9.35Z"
      transform="translate(927.03 555.64) rotate(180)"
    />
    <path
      class="cls-6"
      d="M430.55,223.87h32.67A49.14,49.14,0,0,1,512.36,273v3.12a9.35,9.35,0,0,1-9.35,9.35H430.55a9.35,9.35,0,0,1-9.35-9.35V233.22a9.35,9.35,0,0,1,9.35-9.35Z"
      transform="translate(936.38 548.06) rotate(-180)"
    />
    <polygon
      class="cls-13"
      points="489.35 281.73 489.35 323.27 505.06 319.14 505.06 285.98 489.35 281.73"
    />
    <polygon
      class="cls-14"
      points="489.35 281.73 505.06 281.73 505.06 285.98 489.35 281.73"
    />
    <polygon
      class="cls-9"
      points="505.06 319.14 489.35 323.27 505.15 323.27 505.06 319.14"
    />
    <polygon
      class="cls-19"
      points="424.54 307.83 423.2 303.69 423.94 302.33 425.19 303.08 426.35 307.52 427.78 303.52 429.3 302.83 429.64 304.28 428.03 307.9 431.33 307.26 432.82 308.06 431.85 309.15 428.48 309.27 431.21 311.13 431.6 312.45 430.08 312.85 427.27 310.53 429.04 314.05 428.48 315.6 426.84 314.82 425.84 311.27 424.67 314.63 422.88 315.35 422.55 313.31 423.67 311 419.64 310.54 418.85 309.42 420.24 308.62 423.49 308.99 420.68 306.74 420.27 304.93 422.04 305.17 424.54 307.83"
    />
    <polygon
      class="cls-20"
      points="424.9 307.79 423.4 305.56 423.61 304.63 424.48 304.86 425.92 307.3 426.09 304.68 426.88 304.01 427.32 304.82 426.99 307.24 428.84 306.3 429.86 306.52 429.47 307.34 427.49 307.98 429.43 308.62 429.88 309.34 429.05 309.83 426.98 308.93 428.64 310.73 428.57 311.74 427.46 311.56 426.26 309.62 426.13 311.81 425.2 312.55 424.66 311.39 424.93 309.83 422.45 310.24 421.79 309.71 422.48 309 424.47 308.66 422.42 307.8 421.87 306.8 422.96 306.64 424.9 307.79"
    />
    
    <rect class="cls-3" x="396.46" y="340.59" width="85.69" height="60.13" />
    <rect class="cls-7" x="482.27" y="372.48" width="10.1" height="2.77" />
    <rect class="cls-7" x="467.24" y="372.48" width="10.89" height="2.77" />
    <rect class="cls-7" x="378.93" y="372.29" width="8.68" height="3.15" />
    <rect class="cls-7" x="391.86" y="372.29" width="11.54" height="3.15" />
    <rect class="cls-7" x="408.5" y="372.29" width="10.91" height="3.15" />
    <rect class="cls-7" x="424.15" y="372.29" width="11.33" height="3.15" />
    <rect class="cls-7" x="439.8" y="372.29" width="9.63" height="3.15" />
    <rect class="cls-7" x="452.34" y="372.29" width="10.12" height="3.15" />
    <rect class="cls-7" x="15.93" y="205.4" width="3.15" height="21.5" />
    <rect
      class="cls-7"
      x="13.31"
      y="174.33"
      width="25.42"
      height="6.21"
      transform="translate(206.28 190.13) rotate(90)"
    />
    <rect
      class="cls-7"
      x="0.44"
      y="174.33"
      width="25.42"
      height="6.21"
      transform="translate(193.41 203) rotate(90)"
    />
    <rect
      class="cls-7"
      x="-12.43"
      y="174.33"
      width="25.42"
      height="6.21"
      transform="translate(180.54 215.87) rotate(90)"
    />
    <rect
      class="cls-29"
      x="133.78"
      y="83.03"
      width="36.67"
      height="14.8"
      rx="7.03"
      transform="translate(307.05 219.58) rotate(-180)"
    />
    <rect
      class="cls-30"
      x="135.38"
      y="84.55"
      width="33.46"
      height="11.76"
      rx="5.58"
      transform="translate(307.05 219.58) rotate(-180)"
    />
    <rect
      class="cls-26"
      x="146.04"
      y="84.55"
      width="19.66"
      height="11.76"
      rx="5.58"
      transform="translate(314.57 219.58) rotate(-180)"
    />
    <rect
      class="cls-29"
      x="151.4"
      y="86.25"
      width="8.95"
      height="8.36"
      transform="translate(314.57 219.58) rotate(180)"
    />
    <polygon
      class="cls-29"
      points="162.41 132.5 166.38 136.05 166.13 136.34 162.15 132.78 162.41 132.5"
    />
    <polygon
      class="cls-29"
      points="152.36 123.05 156.34 126.6 156.08 126.89 152.11 123.33 152.36 123.05"
    />
    <polygon
      class="cls-29"
      points="151.62 135.88 155.59 132.32 155.34 132.03 151.36 135.59 151.62 135.88"
    />
    <polygon
      class="cls-29"
      points="165.73 122.32 161.76 125.88 162.01 126.16 165.99 122.61 165.73 122.32"
    />
    <ellipse
      class="cls-29"
      cx="142.88"
      cy="98.16"
      rx="0.59"
      ry="1.56"
      transform="translate(-24.71 168.65) rotate(-45.05)"
    />
    <ellipse
      class="cls-29"
      cx="141.61"
      cy="82.71"
      rx="1.56"
      ry="0.59"
      transform="translate(-14.22 162.93) rotate(-44.95)"
    />
    <rect class="cls-7" x="51.07" y="205.52" width="3.15" height="21.5" />
    <rect
      class="cls-7"
      x="48.03"
      y="174.86"
      width="25.42"
      height="5.38"
      transform="translate(241.12 155.53) rotate(90)"
    />
    <rect
      class="cls-7"
      x="35.58"
      y="174.45"
      width="25.42"
      height="6.21"
      transform="translate(228.66 167.98) rotate(90)"
    />
    <rect
      class="cls-7"
      x="22.71"
      y="174.45"
      width="25.42"
      height="6.21"
      transform="translate(215.8 180.85) rotate(90)"
    />
    <rect
      class="cls-31"
      x="27.36"
      y="216.06"
      width="36.67"
      height="14.8"
      rx="7.03"
      transform="translate(-174.94 307.86) rotate(-90)"
    />
    <rect
      class="cls-32"
      x="28.96"
      y="217.57"
      width="33.46"
      height="11.76"
      rx="5.58"
      transform="translate(-174.94 307.86) rotate(-90)"
    />
    <rect
      class="cls-26"
      x="35.86"
      y="221.33"
      width="19.66"
      height="11.76"
      rx="5.58"
      transform="translate(-178.7 311.62) rotate(-90)"
    />
    <rect
      class="cls-31"
      x="41.22"
      y="223.03"
      width="8.95"
      height="8.36"
      transform="translate(-178.7 311.62) rotate(-90)"
    />
    <polygon
      class="cls-31"
      points="45.17 269.64 41.61 273.62 41.33 273.36 44.88 269.38 45.17 269.64"
    />
    <polygon
      class="cls-31"
      points="54.62 259.59 51.06 263.57 50.78 263.31 54.34 259.34 54.62 259.59"
    />
    <polygon
      class="cls-31"
      points="41.79 258.85 45.35 262.83 45.63 262.57 42.08 258.6 41.79 258.85"
    />
    <polygon
      class="cls-31"
      points="55.34 272.96 51.79 268.99 51.5 269.25 55.06 273.22 55.34 272.96"
    />
    <ellipse
      class="cls-31"
      cx="37.97"
      cy="214.22"
      rx="1.56"
      ry="0.59"
      transform="translate(-137.65 128.47) rotate(-45.05)"
    />
    <ellipse
      class="cls-31"
      cx="53.42"
      cy="212.96"
      rx="0.59"
      ry="1.56"
      transform="translate(-132.01 138.68) rotate(-44.95)"
    />
  </g>
</svg>
