<?xml version="1.0" encoding="UTF-8"?>
<svg id="Octopus" xmlns="http://www.w3.org/2000/svg" viewBox="0 0 595.28 595.28" width="80px" height="101px">
  <defs>
    <style>
      .cls-1 {
        fill: #e2752a;
      }

      .cls-1, .cls-2, .cls-3, .cls-4, .cls-5, .cls-6, .cls-7 {
        stroke-width: 0px;
      }

      .cls-2 {
        fill: #f68b3a;
      }

      .cls-3 {
        fill: #f58a8a;
      }

      .cls-4 {
        fill: #991e1f;
      }

      .cls-5 {
        fill: #ef4342;
      }

      .cls-6 {
        fill: #fff;
      }

      .cls-7 {
        fill: #efa3a3;
      }
    </style>
  </defs>
  <path class="cls-7" d="M564.96,316.3c-14.98,22.62-33.71,16.16-38.47,2.2-4.25-12.44,1.23-19.47,8.5-20.61.9-.07,1.81-.12,2.73-.16-.93-.04-1.84.01-2.73.16-28.57,2.03-44.21,17.07-63.99,33.27-8.84,7.24-17.1,11.91-24.73,14.67,5.54,10.06,7.66,21.12,7.71,26.97.04,4.92-1.68,14.37-5.97,24.68,11.06,12.59,19.19,29.47,16.18,52.76-6.47,50.05-22.47,57.19-33.02,61.62-25.21,10.57-52.94,6.47-53.96-4.09-1.02-10.55,1.32-15.03,10.04-19.23,9.19-4.42,29.45-2.89,36.94-11.06,2.04-2.22,10.07-22.62-4.08-45.51-8.19,5-18.14,8.23-30.13,8.4-45.77.63-57.88-19.51-74.87-46.6-5.27,11.84-12.21,25.04-20.33,34.86-18.85,22.8-16.12,55.66-11.53,67.74,4.6,12.09,7.32,26.21-7.49,29.45-14.8,3.23-37.51-47.09-40-56.51-3.18-12.07-4.12-22.3-3.57-31.27-14.63,7.86-30.01,11.23-41.53,10.42-29.06-2.06-64.34-11.24-71.49-57.96-.86-5.61-1.01-10.79-.58-15.53-5.93-6.3-14.63-11.52-27-10.77-28.9,1.76-41.47,18.36-41.86,18.88,12-10.95,21.44-1.01,23.74,9.21,1.15,5.11-4.6,21.7-20.17,24-15.58,2.29-24.32-11.93-26.56-20.43-3.83-14.55-2.55-52.34,45.96-73.79,12.06-5.33,23.21-6.54,33.17-5.35.02-1.07.03-2.19.02-3.33-.14-19.92-32.68-45.44-36.76-46.69-4.09-1.25-22.47,16.05-31.66,9.93-9.2-6.13,4.08-35.75,31.14-41.88,27.07-6.12,36.77,8.17,62.81,35.75,26.05,27.57,44.43,35.23,64.85,25.53,17.25-8.19,7.92-26.97,4.6-32.61-.01-.02-.02-.03-.03-.05-.05-.09-.11-.19-.16-.27-.19-.33-.36-.6-.5-.81-.04-.07-.08-.13-.12-.19-.06-.09-.11-.16-.14-.21-.04-.07-.07-.11-.07-.11-11.83-19.23-18.64-41.86-18.64-66.09,0-69.8,56.58-126.38,126.38-126.38s126.39,56.58,126.39,126.38c0,27.33-8.68,52.63-23.43,73.31,0,0,0,0-.02.02-.34.65-8.67,16.69,6,25.67,14.98,9.17,96-35.09,118.81-29.98s44.59,28.96,29.62,51.59Z"/>
  <path class="cls-3" d="M209.55,178.58c-1.02,97.54,44.17,96.26.77,121.79-32.75,19.26-70.56-21.36-71.51-22.39,22.25,21.42,39.03,26.81,57.46,18.05,17.25-8.19,7.92-26.97,4.6-32.61-.01-.02-.02-.03-.03-.05-.05-.09-.11-.19-.16-.27-.19-.33-.36-.6-.5-.81-.04-.07-.08-.13-.12-.19-.06-.09-.11-.16-.14-.21-.04-.07-.07-.11-.07-.11-11.83-19.23-18.64-41.86-18.64-66.09,0-69.8,56.58-126.38,126.38-126.38,2.06,0,4.11.05,6.15.14-39.66,12.09-103.49,41.96-104.19,109.13Z"/>
  <path class="cls-5" d="M544.47,267.77c-11.13.67-22.03,3.72-29.05,5.28-9.19,2.04-76.08,38.81-94.52,40.34-18.43,1.53-32.12-10.21-36.35-28.08-4.24-17.88,15.47-58.22,18.02-67.41,2.56-9.19,12.77-53.61-33.19-100.59-30.89-31.58-91.54-32.24-127.99-29.29,19.25-11.86,41.93-18.71,66.2-18.71,69.8,0,126.39,56.58,126.39,126.38,0,27.33-8.68,52.63-23.43,73.31,0,0,0,0-.02.02-.34.65-8.67,16.69,6,25.67,14.98,9.17,96-35.09,118.81-29.98,3.09.69,6.16,1.73,9.13,3.06Z"/>
  <path class="cls-5" d="M537.72,297.73c-.92.04-1.83.09-2.73.16.89-.15,1.8-.2,2.73-.16Z"/>
  <path class="cls-2" d="M394.78,325.76c-1.91.79-3.67,1.71-5.28,2.77-.31.19-.61.4-.9.61-.09.06-.17.12-.25.18-8.13-7.81-10.42-16.07-11.02-20.9,4.26,5.59,10.24,12.29,17.45,17.34Z"/>
  <path class="cls-2" d="M537.45,295.72c-.93-.02-1.83.04-2.7.18-1.53.11-3.03.26-4.49.45h-.01c-.12.01-.25.02-.37.04-.09.01-.19.02-.29.04-.03,0-.05,0-.08,0-.04.01-.07.01-.11.02h-.01c-.79.1-1.56.21-2.33.34h-.01c-.29.05-.58.1-.87.15-.06.01-.13.02-.19.04-.44.07-.88.15-1.31.24-.55.09-1.09.2-1.62.32-.43.1-.85.19-1.27.3-1.18.27-2.33.57-3.46.9-.38.1-.76.21-1.14.33-.31.1-.62.19-.92.29-.06.02-.11.03-.17.05-.04.01-.07.02-.11.04-.12.04-.24.07-.35.11-.11.03-.23.07-.35.11-.03,0-.05.02-.08.03-.06.02-.11.04-.17.06h-.01c-.57.19-1.13.39-1.69.59-.16.06-.33.12-.49.17-.66.25-1.31.51-1.96.77h-.01c-.36.14-.72.29-1.08.45-.06.03-.12.05-.18.08-.4.16-.8.33-1.19.51-.51.22-1.01.45-1.51.69-.53.24-1.05.49-1.56.75-.48.24-.95.48-1.43.73h-.01c-.36.18-.7.37-1.05.56-1,.53-1.98,1.08-2.94,1.65-.33.19-.66.38-.98.59-.32.19-.64.39-.96.58-.57.35-1.13.71-1.69,1.07-.33.21-.65.42-.97.63-.7.46-1.39.93-2.08,1.41-.31.21-.62.43-.93.65-1.26.88-2.5,1.79-3.74,2.72-.29.21-.57.43-.86.64-1.9,1.45-3.79,2.94-5.69,4.48-.27.22-.55.44-.83.67-.04.03-.07.06-.11.09-.97.79-1.95,1.6-2.94,2.41-.27.22-.54.45-.81.67-.26.21-.52.43-.77.64h0c-.58.48-1.16.96-1.74,1.44-1.42,1.17-2.84,2.35-4.3,3.55-.25.2-.51.41-.77.63-.01,0-.02.01-.03.02-.7.57-1.39,1.12-2.08,1.66-.68.53-1.35,1.04-2.03,1.55-.01.01-.03.02-.04.03-.09.06-.17.13-.26.19-.43.32-.85.63-1.28.93-1.01.72-2.01,1.41-3.02,2.08h-.01c-.72.47-1.43.93-2.14,1.37-.17.11-.33.21-.49.31h-.01c-1,.61-1.99,1.19-2.98,1.73-.1.06-.19.11-.28.15-.04.03-.09.06-.14.08-.04.03-.09.05-.14.07-.09.05-.18.1-.26.15-.09.05-.18.09-.26.13h0s-.11.07-.16.09c-.36.19-.71.38-1.07.56-.33.17-.66.34-.99.49-.32.17-.64.32-.96.47-.36.17-.73.33-1.09.5-.08.04-.17.07-.25.11-.88.39-1.75.75-2.63,1.1-.29-.49-.59-.98-.9-1.48-.18-.3-.38-.6-.58-.9-.07-.11-.14-.21-.22-.32,0-.01-.01-.01-.01-.02-.17-.26-.34-.52-.53-.77-.04-.05-.07-.1-.11-.15-.04-.06-.08-.12-.13-.18l-.15-.21c-.17-.26-.36-.52-.56-.77,0-.01,0-.01,0-.02-.08-.11-.17-.22-.25-.33-.19-.27-.4-.53-.61-.8-.34-.43-.68-.86-1.05-1.28-.36-.43-.73-.85-1.11-1.26-.23-.25-.46-.5-.7-.75-.17-.18-.35-.37-.54-.55-.18-.18-.37-.36-.55-.54-.01-.02-.03-.03-.05-.05-.37-.35-.74-.71-1.13-1.05,1.02-.19,2.03-.39,3.03-.61.33-.07.66-.14.98-.21,2.35-.53,4.65-1.12,6.91-1.77.47-.14.94-.28,1.42-.42,1.48-.45,2.95-.92,4.38-1.41.48-.16.95-.32,1.41-.48,2.29-.82,4.49-1.67,6.6-2.57.18-.07.35-.14.53-.22,1.39-.59,2.75-1.2,4.05-1.81.17-.09.34-.17.5-.25,2.29-1.09,4.42-2.21,6.36-3.33.18-.1.35-.2.52-.3,1.28-.75,2.48-1.49,3.58-2.24.17-.1.34-.22.5-.33.23-.16.46-.31.68-.47,1.97-1.39,4.01-2.78,6.08-4.15.16-.1.32-.21.48-.31,1.23-.81,2.46-1.61,3.7-2.39.16-.1.32-.2.48-.3,2.48-1.55,4.95-3.04,7.35-4.41.18-.1.35-.2.53-.3,1.19-.67,2.36-1.32,3.5-1.92.18-.1.36-.19.54-.29,2.66-1.4,5.17-2.6,7.41-3.53.19-.07.37-.15.55-.22,1.43-.57,2.75-1.03,3.92-1.33.19-.06.38-.1.56-.14.32-.08.61-.14.9-.19,1.61-.28,3.73-.58,6.1-.81.23-.02.47-.05.71-.06,1.01-.1,2.05-.17,3.13-.22h.01c.23-.02.47-.03.7-.04h.01c3.9-.16,7.99,0,11.37.82Z"/>
  <path class="cls-4" d="M276.9,373.93c-.14.39-.29.78-.43,1.17.26-.45.44-.95.55-1.48-.04.1-.08.21-.12.31Z"/>
  <path class="cls-2" d="M451.98,372.82c.04,4.84-1.74,14.1-5.82,23.89-4.31,10.4-12.51,24.65-27.09,33.55-8.56,5.23-18.36,7.96-29.12,8.11-44.16.62-56.07-18.42-72.58-44.76l-.56-.9c-1.34-2.13-2.71-4.31-4.13-6.53-7.68-11.97-16.26-20.87-25.53-26.47,3.4-7.08,6.57-11.88,9.79-15.23,8,4.25,19.66,12.13,24.65,23.81,7.96,18.63,22.85,52.85,51.53,55.91,28.69,3.06,49.8-1.98,62.86-27.67,8.91-17.53,7.71-40.82,4.01-56.59,1.79,2.25,3.28,4.59,4.53,6.85,5.05,9.18,7.41,19.92,7.46,26.03Z"/>
  <path class="cls-2" d="M312.85,393.93c-2.86,6.36-5.77,12.12-8.71,17.28-.33.58-.66,1.16-.99,1.72-3.28,5.58-6.58,10.41-9.91,14.43-19.66,23.77-16.38,57.83-11.86,69.72,3.82,10.04,4.52,17.05,2.15,21.43-.39.72-.87,1.38-1.43,1.96-6-9.71-10.58-25.98-12.55-31.16-2.81-7.41-6.64-26.81-4.08-38.73,2.55-11.92,18.38-37.36,24.76-46.04,3.95-5.37,9.18-17.11,12.58-25.28,2.14,2.66,4.32,5.68,6.5,9.08,1.21,1.89,2.39,3.75,3.54,5.59Z"/>
  <path class="cls-2" d="M442.4,478.33c-3.32,5.62-11.05,17.62-22.76,19.4-8,1.22-28.47,5.06-40.62,4.44.32-5.88,2.84-8.81,9.1-11.83,3.37-1.62,8.57-2.41,14.08-3.25,9.08-1.38,18.46-2.8,23.46-8.26,2.83-3.07,9.02-20.89-.29-41.27-.74-1.63-1.59-3.28-2.54-4.94.39-.26.77-.52,1.15-.78.45-.31.91-.63,1.35-.96.75-.54,1.47-1.1,2.18-1.67.74-.6,1.47-1.21,2.17-1.83.63-.55,1.25-1.12,1.85-1.69.25-.23.49-.46.72-.69.16-.16.32-.31.47-.47,2.73-2.73,5.14-5.6,7.25-8.51,2.97,7.88,5.67,16.47,6.01,22.36.76,13.65-.26,34.33-3.58,39.95Z"/>
  <path class="cls-2" d="M298.13,338.15c-1.66,1.21-3.28,2.68-4.9,4.48-3.18,3.55-6.31,8.39-9.56,15.1h-.02s-.44.96-.44.96l-.46.99c-1.87,4.03-3.81,8.75-5.85,14.25-1.72,4.65-3.52,9.86-5.42,15.69-6.36,19.57-20.65,36.13-40.24,46.66-12.2,6.55-25.79,10.29-37.1,10.29-1.14,0-2.25-.03-3.34-.11-26.49-1.87-62.53-9.75-69.65-56.26-.81-5.25-1-10.31-.57-15.05,1.57-17.33,11.79-30.74,27.36-35.87h.01c.65-.22,1.3-.41,1.96-.59-9.94,11.19-23.6,30.6-17.98,47.89,8.51,26.22,22.81,41.54,43.58,44.26,20.76,2.72,61.27-7.81,74.55-29.61,13.28-21.8,22.81-48.69,26.9-51.75,3.29-2.47,9.46-11.36,21.17-11.33Z"/>
  <path class="cls-2" d="M125.23,351.03c-.36.48-.71.97-1.04,1.47-.2.3-.39.62-.58.92-.35.55-.68,1.1-1,1.67-.2.34-.39.69-.57,1.05-.3.55-.58,1.11-.85,1.67-.18.37-.35.74-.52,1.11-.26.59-.51,1.18-.75,1.78-.14.37-.29.73-.43,1.1-.25.67-.47,1.35-.69,2.03-.1.32-.21.63-.3.95-.3,1.01-.58,2.04-.81,3.08-.03.1-.04.21-.06.31-.19.86-.37,1.72-.52,2.6-6.05-5.28-13.09-8.16-21.02-8.59-1.51-.08-3.05-.08-4.62.02-24.54,1.5-37.8,13.53-41.93,18.02.23-.55,7.73-18.08,21.97-24.62,13.11-6.01,35.03-7.84,53.72-4.57Z"/>
  <path class="cls-2" d="M132.15,323.6c-1.2-.69-2.43-1.35-3.69-1.99-.28-.14-.56-.27-.83-.4-.64-.31-1.28-.63-1.93-.92-.36-.16-.73-.32-1.1-.47-.58-.26-1.17-.51-1.77-.76-.41-.16-.82-.31-1.23-.47-.32-.12-.63-.24-.95-.35-.26-.1-.53-.19-.79-.29-.44-.15-.89-.3-1.34-.44-.26-.09-.51-.17-.77-.25-.32-.11-.64-.21-.97-.3-.46-.14-.93-.27-1.4-.4-.59-.16-1.18-.31-1.77-.46-.49-.12-.98-.22-1.47-.33-.6-.13-1.2-.26-1.81-.37-.5-.1-1.01-.18-1.52-.27-.31-.05-.61-.11-.92-.16v-1.59c-.15-21.02-33.78-47.25-38.18-48.59-2.22-.68-4.96.85-10.48,4.1-5.16,3.03-11.82,6.94-16.8,7.06,2.48-5.86,6.84-12.63,14.44-17.01,15.83-9.12,30.38-1.97,35.49,1.6,5.11,3.58,22.49,17.11,31.15,40.09,3.24,8.6,5.84,15.52,7.82,20.8h0c.29.76.56,1.48.82,2.17Z"/>
  <path class="cls-5" d="M260.6,294.55c-5.59.5-12.24,2.72-17.92,9.17-.01.01-.02.02-.03.03,0,0-.02.02-.03.03-1.32,1.51-2.54,3.2-3.63,5-4.53,7.49-6.16,17.01-7.89,27.09-2.89,16.89-6.17,36.02-23.89,51.6-14.21,12.48-28.3,11.63-35.44,10.01-6.07-1.38-11.58-4.21-15.69-7.88,5.77,2.28,13.87,3.37,23.23-1.41,5.3-2.7,9.49-8.71,11.47-15.9,4.86-2.33,9.3-6.41,12.39-13.2,11.74-25.78,21.41-49.27,30.87-56.17,9.46-6.88,16.18-9.22,26.56-8.37Z"/>
  <path class="cls-5" d="M201.15,321.39c-.3-.18-.66-.29-1.04-.29h-.07c-1.1.03-1.97.96-1.93,2.06,0,.16.34,15.73-10.49,24.21-2.63-4.19-6.37-7.69-11.09-10.21-6.24-3.34-14.05-4.53-21.91-3.49-2.27.29-4.55.78-6.79,1.45-.16-.14-.33-.29-.49-.43-.25-.23-.5-.45-.76-.68-.34-.3-.69-.6-1.05-.91-.26-.23-.53-.45-.8-.68-.37-.31-.75-.62-1.13-.93-.28-.23-.56-.46-.85-.68-.4-.32-.81-.64-1.22-.95-.29-.22-.57-.44-.87-.66-.43-.33-.88-.65-1.33-.97-.3-.21-.58-.42-.88-.63-.49-.34-.98-.67-1.48-1.01-.29-.19-.56-.38-.85-.56-.57-.38-1.17-.75-1.77-1.12-.22-.13-.44-.28-.67-.41-.5-.3-1.01-.61-1.53-.9-.26-.69-.53-1.41-.82-2.16,4.37,2.79,10.5,5.77,18.82,7.95,20.76,5.45,37.78-5.96,41.02-10.04,3.23-4.09,4.93-6.64,8.17-5.11,1.96.93,2.04,4.49,1.81,7.15Z"/>
  <path class="cls-5" d="M415.06,373.69c-4.11,10.92-13.34,22.18-34.05,17.91-.91-.18-1.74-.39-2.58-.64-10.23-2.84-17.49-9.69-21.6-20.35-3.11-8.05-4.45-18.34-4-30.59.35-9.52-1.98-18.27-6.54-24.62t-.01-.02c-4.13-5.75-9.96-9.27-17.04-10.4.79-.09,21.57-2.2,29.42,21.01,7.99,23.64,9.83,32.69,19.96,36.34,1.06,3.29,2.55,5.97,4.13,7.6,7.58,7.85,20.41,13.3,32.31,3.76Z"/>
  <path class="cls-3" d="M114.86,320.56s-23.76-2.69-48.8,11.98c-16.33,9.58-25.27,22.09-29.5,29.63-2.14,3.81-3.35,8.06-3.6,12.41-.36,6.11-.67,15.65.42,21.54.81,4.4,3.89,9.98,5.89,13.27.37.6.48,1.28.37,1.92-6.45-4.36-9.94-12.06-10.97-15.96-.49-1.89-11.52-46.53,44.84-71.45.51-.23,1.03-.45,1.54-.66,7.92-3.28,15.9-4.94,23.83-4.94,2.25,0,4.51.14,6.75.41,1.07.12,2.12.28,3.16.46.36.07.7.14,1.05.21.68.13,1.36.26,2.03.42.41.09.81.2,1.21.3.43.11.85.21,1.27.33.17.04.34.08.51.13Z"/>
  <path class="cls-3" d="M140.41,282.23c-3.52.25-19.2-17.09-24.05-21.43-4.85-4.34-22.07-21.77-31.4-22.47-18.64-1.4-32.9,6.71-33.66,6.98,4.81-3.87,10.75-7.02,17.75-8.61,23.27-5.26,32.79,4.97,53.64,27.39,2.29,2.46,4.7,5.06,7.28,7.78,3.62,3.83,7.09,7.28,10.44,10.36Z"/>
  <g>
    <path class="cls-1" d="M448.66,332.12c-2.72,0-4.93,2.21-4.93,4.93,0,.53.08,1.04.24,1.51.61.8,1.18,1.61,1.71,2.42.83.64,1.86,1.01,2.98,1.01,2.72,0,4.93-2.22,4.93-4.94s-2.21-4.93-4.93-4.93ZM448.66,340.99c-2.17,0-3.93-1.77-3.93-3.94s1.76-3.93,3.93-3.93,3.93,1.76,3.93,3.93-1.76,3.94-3.93,3.94Z"/>
    <path class="cls-1" d="M441.98,331.11c-.32.07-.65.14-.98.21.02.15.03.3.03.45,0,.89-.29,1.7-.79,2.35.24.25.47.5.7.75.68-.84,1.09-1.92,1.09-3.1,0-.23-.02-.45-.05-.66Z"/>
    <path class="cls-1" d="M454.69,327.51c-.71.98-1.86,1.61-3.16,1.61-.42,0-.83-.07-1.22-.2-.48.14-.95.28-1.42.42.76.49,1.67.78,2.64.78,2.07,0,3.84-1.28,4.57-3.09-.46.16-.93.32-1.41.48Z"/>
    <path class="cls-1" d="M460.96,326.18c-2.72,0-4.93,2.22-4.93,4.94s2.21,4.93,4.93,4.93h.08s.01,0,.01-.01c1.52-.99,3.01-2.06,4.53-3.19.21-.54.32-1.12.32-1.73,0-2.72-2.22-4.94-4.94-4.94ZM460.96,335.05c-2.17,0-3.93-1.76-3.93-3.93s1.76-3.94,3.93-3.94,3.94,1.77,3.94,3.94-1.77,3.93-3.94,3.93Z"/>
    <path class="cls-1" d="M473.31,321.25c-2.72,0-4.93,2.21-4.93,4.93,0,1.32.52,2.53,1.38,3.41.26-.22.52-.43.77-.63-.71-.71-1.15-1.7-1.15-2.78,0-2.17,1.76-3.93,3.93-3.93,1.35,0,2.55.68,3.26,1.72.25-.21.51-.43.77-.64-.9-1.26-2.37-2.08-4.03-2.08Z"/>
    <path class="cls-1" d="M485.83,313.52c-2.73,0-4.94,2.22-4.94,4.94,0,.6.11,1.17.31,1.7.28-.23.56-.45.83-.67-.09-.33-.14-.67-.14-1.03,0-2.17,1.77-3.94,3.94-3.94.68,0,1.33.18,1.89.49.29-.21.57-.43.86-.64-.78-.53-1.73-.85-2.75-.85Z"/>
    <path class="cls-1" d="M497.17,305.88c-2.72,0-4.93,2.21-4.93,4.93,0,.29.02.57.08.84.31-.22.62-.44.93-.65-.01-.06-.01-.13-.01-.19,0-2.17,1.76-3.93,3.93-3.93.64,0,1.25.15,1.78.43.32-.21.65-.4.98-.59-.79-.53-1.74-.84-2.76-.84Z"/>
    <path class="cls-1" d="M507.8,300.21c-2.7,0-4.89,2.17-4.93,4.86.35-.19.69-.38,1.05-.56h.01c.29-1.87,1.92-3.3,3.87-3.3.73,0,1.42.2,2,.54.36-.16.72-.31,1.08-.45-.85-.69-1.92-1.09-3.08-1.09Z"/>
    <path class="cls-1" d="M519.75,297.27c.74,0,1.45.21,2.04.58.42-.11.84-.2,1.27-.3-.87-.8-2.04-1.28-3.31-1.28-2.22,0-4.1,1.48-4.71,3.5.41-.14.82-.28,1.23-.4.67-1.25,1.98-2.1,3.48-2.1Z"/>
    <path class="cls-1" d="M380.49,315.29c-.49,0-.95.13-1.35.36.07.18.14.35.21.53.33-.2.72-.32,1.14-.32,1.23,0,2.22.99,2.22,2.21,0,.97-.61,1.78-1.47,2.09.08.16.18.33.28.5,1.03-.41,1.76-1.41,1.76-2.59,0-1.53-1.25-2.78-2.79-2.78Z"/>
    <path class="cls-1" d="M467.78,322.18c-.16.08-.33.16-.5.25.14.29.22.62.22.96,0,1.23-1,2.22-2.22,2.22-.93,0-1.72-.56-2.05-1.37-.18.08-.35.15-.53.22.42,1.01,1.42,1.72,2.58,1.72,1.53,0,2.78-1.25,2.78-2.79,0-.44-.1-.85-.28-1.21Z"/>
    <path class="cls-1" d="M478.74,315.98c-.16.11-.33.23-.5.33.06.18.08.37.08.56,0,1.23-1,2.22-2.22,2.22-.55,0-1.06-.2-1.44-.54-.17.1-.34.2-.52.3.5.5,1.19.81,1.96.81,1.53,0,2.78-1.25,2.78-2.79,0-.31-.05-.61-.14-.89Z"/>
    <path class="cls-1" d="M490.16,308.36c-.16.1-.32.2-.48.3.16.3.25.64.25,1,0,1.23-1,2.22-2.22,2.22-.7,0-1.32-.32-1.73-.83-.16.1-.32.21-.48.31.52.66,1.31,1.09,2.21,1.09,1.53,0,2.78-1.25,2.78-2.79,0-.47-.12-.91-.33-1.3Z"/>
    <path class="cls-1" d="M502.08,301.44c-.18.1-.36.19-.54.29v.11c0,1.22-.99,2.22-2.22,2.22-.48,0-.92-.15-1.28-.41-.18.1-.35.2-.53.3.48.42,1.11.67,1.81.67,1.54,0,2.79-1.24,2.79-2.78,0-.14-.01-.27-.03-.4Z"/>
    <path class="cls-1" d="M525.37,294.94h-.01c-.4.47-1,.77-1.67.77-.57,0-1.07-.21-1.46-.55-.24.01-.48.04-.71.06.5.64,1.29,1.05,2.17,1.05,1.01,0,1.91-.55,2.38-1.37-.23.01-.47.02-.7.04Z"/>
    <path class="cls-1" d="M457.03,336.71c-1.54,0-2.78,1.25-2.78,2.78,0,.19.02.38.06.56.17-.09.34-.18.52-.28-.01-.09-.02-.19-.02-.28,0-1.22.99-2.22,2.22-2.22.51,0,.97.17,1.35.46.16-.1.32-.2.49-.31-.49-.44-1.14-.71-1.84-.71Z"/>
    <path class="cls-1" d="M513.96,296.36c-.05,1.19-1.03,2.13-2.22,2.13-.69,0-1.3-.31-1.7-.8-.18.07-.36.15-.55.22.5.7,1.32,1.15,2.25,1.15,1.53,0,2.78-1.25,2.78-2.79v-.05c-.18.04-.37.08-.56.14Z"/>
    <path class="cls-1" d="M528.49,295.71c-.96,0-1.81.49-2.31,1.24.29-.05.58-.1.87-.15h.01c.39-.33.89-.53,1.43-.53.32,0,.63.07.9.19h.01c.29-.05.57-.09.86-.11-.48-.4-1.1-.64-1.77-.64Z"/>
    <path class="cls-1" d="M377.68,310.6c.05.25.11.52.17.79.48.4.78,1.01.78,1.68,0,.26-.05.51-.13.74.08.25.17.5.26.76.28-.43.44-.95.44-1.5,0-1.08-.62-2.01-1.52-2.47Z"/>
    <path class="cls-1" d="M385.49,320.86c-1.23,0-2.28.81-2.65,1.93.14.22.29.43.45.65.1-1.13,1.05-2.02,2.2-2.02,1.23,0,2.22,1,2.22,2.22s-.99,2.22-2.22,2.22c-.13,0-.27-.01-.39-.04.17.21.34.41.51.61,1.48-.06,2.67-1.29,2.67-2.79s-1.25-2.78-2.79-2.78Z"/>
    <path class="cls-1" d="M391.06,324.8c-1.53,0-2.78,1.25-2.78,2.78,0,.54.15,1.05.43,1.48.15-.11.3-.21.46-.32-.21-.33-.33-.73-.33-1.16,0-1.22,1-2.21,2.22-2.21.85,0,1.59.48,1.96,1.18.17-.09.35-.17.52-.24-.46-.9-1.4-1.51-2.48-1.51Z"/>
    <path class="cls-1" d="M297.64,357.15c-2.72,0-4.93-2.21-4.93-4.93s2.21-4.93,4.93-4.93,4.93,2.21,4.93,4.93-2.21,4.93-4.93,4.93ZM297.64,348.28c-2.17,0-3.93,1.76-3.93,3.93s1.76,3.93,3.93,3.93,3.93-1.76,3.93-3.93-1.76-3.93-3.93-3.93Z"/>
    <path class="cls-1" d="M308.22,365.31c-2.72,0-4.93-2.21-4.93-4.93s2.21-4.93,4.93-4.93,4.93,2.21,4.93,4.93-2.21,4.93-4.93,4.93ZM308.22,356.44c-2.17,0-3.93,1.76-3.93,3.93s1.76,3.93,3.93,3.93,3.93-1.76,3.93-3.93-1.76-3.93-3.93-3.93Z"/>
    <path class="cls-1" d="M315.27,376.37c-2.72,0-4.93-2.21-4.93-4.93s2.21-4.93,4.93-4.93,4.93,2.21,4.93,4.93-2.21,4.93-4.93,4.93ZM315.27,367.5c-2.17,0-3.93,1.76-3.93,3.93s1.76,3.93,3.93,3.93,3.93-1.76,3.93-3.93-1.76-3.93-3.93-3.93Z"/>
    <path class="cls-1" d="M321.86,389.13c-2.72,0-4.93-2.21-4.93-4.93s2.21-4.93,4.93-4.93,4.93,2.21,4.93,4.93-2.21,4.93-4.93,4.93ZM321.86,380.26c-2.17,0-3.93,1.76-3.93,3.93s1.76,3.93,3.93,3.93,3.93-1.76,3.93-3.93-1.76-3.93-3.93-3.93Z"/>
    <path class="cls-1" d="M328.8,401.88c-2.72,0-4.93-2.21-4.93-4.93s2.21-4.93,4.93-4.93,4.93,2.21,4.93,4.93-2.21,4.93-4.93,4.93ZM328.8,393.02c-2.17,0-3.93,1.76-3.93,3.93s1.76,3.93,3.93,3.93,3.93-1.76,3.93-3.93-1.76-3.93-3.93-3.93Z"/>
    <path class="cls-1" d="M337,412.79c-2.72,0-4.93-2.21-4.93-4.93s2.21-4.93,4.93-4.93,4.93,2.21,4.93,4.93-2.21,4.93-4.93,4.93ZM337,403.92c-2.17,0-3.93,1.76-3.93,3.93s1.76,3.93,3.93,3.93,3.93-1.76,3.93-3.93-1.76-3.93-3.93-3.93Z"/>
    <path class="cls-1" d="M334.74,415.02c-.83,0-1.6.2-2.29.56.22.26.44.53.67.79.49-.23,1.04-.35,1.62-.35,2.17,0,3.93,1.76,3.93,3.93,0,.67-.16,1.29-.45,1.84.25.23.5.46.75.69.45-.74.7-1.61.7-2.53,0-2.72-2.21-4.93-4.93-4.93Z"/>
    <path class="cls-1" d="M345.93,423.16c-2.72,0-4.93-2.21-4.93-4.93s2.21-4.93,4.93-4.93,4.93,2.21,4.93,4.93-2.21,4.93-4.93,4.93ZM345.93,414.29c-2.17,0-3.93,1.76-3.93,3.93s1.76,3.93,3.93,3.93,3.93-1.76,3.93-3.93-1.76-3.93-3.93-3.93Z"/>
    <path class="cls-1" d="M346.87,424.52c-1.42,0-2.7.6-3.59,1.56.26.21.53.41.8.6.71-.72,1.7-1.16,2.79-1.16,2.17,0,3.94,1.76,3.94,3.93,0,.45-.08.88-.22,1.28.29.16.59.31.89.46h.01c.21-.54.32-1.13.32-1.74,0-2.72-2.22-4.93-4.94-4.93Z"/>
    <path class="cls-1" d="M357.05,430.73c-2.72,0-4.93-2.21-4.93-4.93s2.21-4.93,4.93-4.93,4.93,2.21,4.93,4.93-2.21,4.93-4.93,4.93ZM357.05,421.86c-2.17,0-3.93,1.76-3.93,3.93s1.76,3.93,3.93,3.93,3.93-1.76,3.93-3.93-1.76-3.93-3.93-3.93Z"/>
    <path class="cls-1" d="M361.98,432.04c-1.6,0-3.03.77-3.93,1.95.33.13.67.24,1.02.36.71-.81,1.75-1.31,2.91-1.31,1.91,0,3.51,1.38,3.87,3.18.34.08.69.16,1.04.23-.26-2.48-2.36-4.41-4.91-4.41Z"/>
    <path class="cls-1" d="M370.5,434.39c-2.72,0-4.93-2.21-4.93-4.93s2.21-4.93,4.93-4.93,4.93,2.21,4.93,4.93-2.21,4.93-4.93,4.93ZM370.5,425.52c-2.17,0-3.93,1.76-3.93,3.93s1.76,3.93,3.93,3.93,3.93-1.76,3.93-3.93-1.76-3.93-3.93-3.93Z"/>
    <path class="cls-1" d="M376.56,433.45c-2.35,0-4.32,1.65-4.82,3.85.33.05.66.1,1,.14.42-1.71,1.98-2.99,3.82-2.99,2.1,0,3.81,1.66,3.92,3.72.33.02.66.04,1,.06-.07-2.65-2.25-4.78-4.92-4.78Z"/>
    <path class="cls-1" d="M385.42,435.67c-2.72,0-4.93-2.21-4.93-4.93s2.21-4.93,4.93-4.93,4.93,2.21,4.93,4.93-2.21,4.93-4.93,4.93ZM385.42,426.8c-2.17,0-3.93,1.76-3.93,3.93s1.76,3.93,3.93,3.93,3.93-1.76,3.93-3.93-1.76-3.93-3.93-3.93Z"/>
    <path class="cls-1" d="M392.85,434.66c-2.3,0-4.23,1.59-4.77,3.72.34,0,.69,0,1.04,0,.51-1.57,1.99-2.71,3.73-2.71,1.58,0,2.95.94,3.57,2.29.35-.04.69-.08,1.03-.13-.71-1.85-2.51-3.16-4.6-3.16Z"/>
    <path class="cls-1" d="M399.45,435.11c-2.72,0-4.93-2.21-4.93-4.93s2.21-4.93,4.93-4.93,4.93,2.21,4.93,4.93-2.21,4.93-4.93,4.93ZM399.45,426.24c-2.17,0-3.93,1.76-3.93,3.93s1.76,3.93,3.93,3.93,3.93-1.76,3.93-3.93-1.76-3.93-3.93-3.93Z"/>
    <path class="cls-1" d="M407.69,432.04c-2.7,0-4.88,2.16-4.93,4.83.34-.08.68-.16,1.01-.24.17-2,1.87-3.59,3.92-3.59,1.2,0,2.27.54,2.99,1.4.32-.13.65-.26.97-.4-.89-1.21-2.34-2-3.96-2Z"/>
    <path class="cls-1" d="M419.61,429.92c1.56-.98,3.05-2.02,4.47-3.11-2.03.04-3.77,1.32-4.47,3.11Z"/>
    <path class="cls-1" d="M413.69,431.73c-2.72,0-4.93-2.21-4.93-4.93s2.21-4.93,4.93-4.93,4.93,2.21,4.93,4.93-2.21,4.93-4.93,4.93ZM413.69,422.86c-2.17,0-3.93,1.76-3.93,3.93s1.76,3.93,3.93,3.93,3.93-1.76,3.93-3.93-1.76-3.93-3.93-3.93Z"/>
    <path class="cls-1" d="M425.19,414.65c-2.72,0-4.93,2.21-4.93,4.93s2.21,4.94,4.93,4.94c.87,0,1.69-.23,2.4-.63h.01c.7-.4,1.3-.96,1.73-1.63.51-.77.8-1.69.8-2.68,0-2.72-2.22-4.93-4.94-4.93ZM425.19,423.52c-2.17,0-3.93-1.77-3.93-3.94s1.76-3.93,3.93-3.93,3.94,1.76,3.94,3.93-1.77,3.94-3.94,3.94Z"/>
    <path class="cls-1" d="M435.06,405.78c-2.72,0-4.93,2.21-4.93,4.93s2.21,4.94,4.93,4.94c.06,0,.13,0,.19-.01.3-.38.59-.76.87-1.14-.33.1-.69.15-1.06.15-2.17,0-3.93-1.77-3.93-3.94s1.76-3.93,3.93-3.93,3.77,1.6,3.92,3.64c.26-.41.52-.81.77-1.22-.64-1.99-2.5-3.42-4.69-3.42Z"/>
    <path class="cls-1" d="M441.28,394.98c-2.72,0-4.93,2.22-4.93,4.94s2.21,4.93,4.93,4.93c.37,0,.73-.04,1.07-.12.24-.43.47-.86.68-1.29-.53.26-1.12.41-1.75.41-2.16,0-3.93-1.76-3.93-3.93s1.77-3.94,3.93-3.94c1.89,0,3.47,1.34,3.85,3.12.2-.45.4-.9.58-1.34-.79-1.64-2.48-2.78-4.43-2.78Z"/>
    <path class="cls-1" d="M446.22,382.66c-2.72,0-4.93,2.21-4.93,4.93s2.21,4.94,4.93,4.94c.58,0,1.14-.1,1.66-.29h0c.17-.45.32-.9.47-1.34-.61.4-1.34.63-2.13.63-2.17,0-3.93-1.77-3.93-3.94s1.76-3.93,3.93-3.93c1.62,0,3.01.98,3.61,2.38.13-.46.25-.91.36-1.37h0c-.9-1.22-2.35-2.01-3.97-2.01Z"/>
    <path class="cls-1" d="M447.95,371.33c2.16,0,3.91,1.75,3.93,3.91.07-.89.11-1.71.1-2.42,0-.13,0-.26-.01-.4-.89-1.26-2.36-2.09-4.02-2.09-2.72,0-4.94,2.22-4.94,4.94s2.22,4.93,4.94,4.93c1.36,0,2.59-.55,3.48-1.44.16-.96.28-1.86.37-2.7-.37,1.79-1.95,3.14-3.85,3.14-2.17,0-3.94-1.76-3.94-3.93s1.77-3.94,3.94-3.94Z"/>
    <path class="cls-1" d="M451.36,366.58c-.66.52-1.51.83-2.41.83-2.17,0-3.94-1.77-3.94-3.94s1.77-3.93,3.94-3.93c.27,0,.54.03.8.08-.09-.35-.2-.7-.31-1.05-.16-.02-.32-.03-.49-.03-2.72,0-4.94,2.21-4.94,4.93s2.22,4.94,4.94,4.94c.95,0,1.83-.27,2.58-.74-.05-.35-.11-.72-.17-1.09Z"/>
    <path class="cls-1" d="M448.31,355.22c-.12.01-.24.02-.36.02-2.17,0-3.94-1.76-3.94-3.93,0-1.17.52-2.23,1.34-2.95-.16-.31-.31-.61-.48-.91-1.13.91-1.86,2.3-1.86,3.86,0,2.72,2.22,4.93,4.94,4.93.24,0,.48-.02.71-.06-.11-.32-.22-.64-.35-.96Z"/>
    <path class="cls-1" d="M441.31,341.68c.14,1.66,1.11,3.08,2.49,3.85-.75-1.28-1.58-2.57-2.49-3.85Z"/>
    <path class="cls-1" d="M317.1,391.01c-.43,0-.85.06-1.25.17.19.3.37.6.56.89.22-.04.45-.06.69-.06,2.17,0,3.94,1.77,3.94,3.93,0,.86-.28,1.66-.75,2.31.19.3.38.6.56.89.75-.86,1.19-1.98,1.19-3.2,0-2.72-2.21-4.93-4.94-4.93Z"/>
    <path class="cls-1" d="M324.87,402.92c-.5,0-.99.08-1.45.21.2.3.4.6.59.89.28-.07.57-.1.86-.1,2.17,0,3.93,1.76,3.93,3.93,0,.8-.24,1.55-.65,2.17.21.28.41.56.62.84.65-.84,1.03-1.88,1.03-3.01,0-2.72-2.21-4.93-4.93-4.93Z"/>
    <path class="cls-1" d="M310.34,380.25c-.54,0-1.06.09-1.54.25.21.29.41.58.61.87.3-.08.61-.12.93-.12,2.17,0,3.93,1.76,3.93,3.93,0,.86-.28,1.66-.76,2.31.19.3.39.6.57.9.74-.86,1.19-1.98,1.19-3.21,0-2.72-2.21-4.93-4.93-4.93Z"/>
    <path class="cls-1" d="M303.96,369.43c-1.27,0-2.43.48-3.31,1.29.23.24.45.48.68.72.69-.63,1.61-1.01,2.63-1.01,2.17,0,3.93,1.76,3.93,3.93,0,1.23-.57,2.33-1.45,3.04.21.26.41.52.62.79,1.11-.9,1.83-2.28,1.83-3.83,0-2.72-2.21-4.93-4.93-4.93Z"/>
    <path class="cls-1" d="M295.91,359.37c-2.08,0-3.87,1.3-4.58,3.13.28.2.55.4.83.62.5-1.59,1.99-2.75,3.75-2.75,2.17,0,3.94,1.76,3.94,3.93,0,1.52-.87,2.84-2.14,3.5.25.24.5.47.75.72,1.43-.86,2.39-2.43,2.39-4.22,0-2.72-2.21-4.93-4.94-4.93Z"/>
    <path class="cls-1" d="M305.29,398.39c-2.72,0-4.93-2.21-4.93-4.93s2.21-4.93,4.93-4.93,4.93,2.21,4.93,4.93-2.21,4.93-4.93,4.93ZM305.29,389.53c-2.17,0-3.93,1.76-3.93,3.93s1.76,3.93,3.93,3.93,3.93-1.76,3.93-3.93-1.76-3.93-3.93-3.93Z"/>
    <path class="cls-1" d="M308.15,386.56c-1.65-.46-2.86-1.97-2.86-3.77,0-.1,0-.19.01-.28-.26-.37-.54-.74-.81-1.1-.13.44-.2.9-.2,1.38,0,2.6,2.04,4.74,4.6,4.91-.25-.39-.5-.77-.74-1.14Z"/>
    <path class="cls-1" d="M297.13,409.91c-2.72,0-4.93-2.21-4.93-4.93s2.21-4.93,4.93-4.93,4.93,2.21,4.93,4.93-2.21,4.93-4.93,4.93ZM297.13,401.04c-2.17,0-3.93,1.76-3.93,3.93s1.76,3.93,3.93,3.93,3.93-1.76,3.93-3.93-1.76-3.93-3.93-3.93Z"/>
    <path class="cls-1" d="M309.23,399.19c-2.72,0-4.94,2.21-4.94,4.93,0,1.49.66,2.82,1.71,3.73.17-.3.33-.6.49-.91-.74-.71-1.2-1.72-1.2-2.82,0-2.17,1.77-3.93,3.94-3.93.22,0,.45.02.66.06.16-.31.31-.62.45-.93-.35-.09-.73-.13-1.11-.13Z"/>
    <path class="cls-1" d="M290.98,420.96c-2.72,0-4.93-2.21-4.93-4.93s2.21-4.93,4.93-4.93,4.93,2.21,4.93,4.93-2.21,4.93-4.93,4.93ZM290.98,412.09c-2.17,0-3.93,1.76-3.93,3.93s1.76,3.93,3.93,3.93,3.93-1.76,3.93-3.93-1.76-3.93-3.93-3.93Z"/>
    <path class="cls-1" d="M283.44,431.17c-2.72,0-4.93-2.21-4.93-4.93s2.21-4.93,4.93-4.93,4.93,2.21,4.93,4.93-2.21,4.93-4.93,4.93ZM283.44,422.3c-2.17,0-3.93,1.76-3.93,3.93s1.76,3.93,3.93,3.93,3.93-1.76,3.93-3.93-1.76-3.93-3.93-3.93Z"/>
    <path class="cls-1" d="M277.72,442.91c-2.72,0-4.93-2.21-4.93-4.93s2.21-4.93,4.93-4.93,4.93,2.21,4.93,4.93-2.21,4.93-4.93,4.93ZM277.72,434.04c-2.17,0-3.93,1.76-3.93,3.93s1.76,3.93,3.93,3.93,3.93-1.76,3.93-3.93-1.76-3.93-3.93-3.93Z"/>
    <path class="cls-1" d="M272.78,454.65c-2.72,0-4.93-2.21-4.93-4.93s2.21-4.93,4.93-4.93,4.93,2.21,4.93,4.93-2.21,4.93-4.93,4.93ZM272.78,445.79c-2.17,0-3.93,1.76-3.93,3.93s1.76,3.93,3.93,3.93,3.93-1.76,3.93-3.93-1.76-3.93-3.93-3.93Z"/>
    <path class="cls-1" d="M271.18,469c-2.72,0-4.93-2.21-4.93-4.93s2.21-4.93,4.93-4.93,4.93,2.21,4.93,4.93-2.21,4.93-4.93,4.93ZM271.18,460.13c-2.17,0-3.93,1.76-3.93,3.93s1.76,3.93,3.93,3.93,3.93-1.76,3.93-3.93-1.76-3.93-3.93-3.93Z"/>
    <path class="cls-1" d="M272.78,481.46c-2.72,0-4.93-2.21-4.93-4.93s2.21-4.93,4.93-4.93,4.93,2.21,4.93,4.93-2.21,4.93-4.93,4.93ZM272.78,472.59c-2.17,0-3.93,1.76-3.93,3.93s1.76,3.93,3.93,3.93,3.93-1.76,3.93-3.93-1.76-3.93-3.93-3.93Z"/>
    <path class="cls-1" d="M279.6,490.79c-.65,1.26-1.97,2.12-3.49,2.12-2.17,0-3.93-1.76-3.93-3.93s1.76-3.94,3.93-3.94c1.02,0,1.96.39,2.66,1.05-.06-.45-.12-.91-.18-1.37-.73-.43-1.58-.68-2.48-.68-2.72,0-4.93,2.22-4.93,4.94s2.21,4.93,4.93,4.93c1.53,0,2.89-.69,3.79-1.78-.1-.43-.2-.88-.3-1.34Z"/>
    <path class="cls-1" d="M283.12,502.15c-.6,1.4-1.99,2.39-3.61,2.39-2.17,0-3.94-1.77-3.94-3.94s1.77-3.93,3.94-3.93c.69,0,1.34.18,1.9.49,0-.03-.02-.05-.03-.08-.14-.37-.28-.77-.43-1.19-.45-.14-.94-.22-1.44-.22-2.72,0-4.94,2.21-4.94,4.93s2.22,4.94,4.94,4.94c1.65,0,3.11-.81,4-2.06-.12-.43-.25-.88-.39-1.33Z"/>
    <path class="cls-1" d="M284.24,515.05c-2.17,0-3.93-1.77-3.93-3.94s1.76-3.93,3.93-3.93c.05,0,.1,0,.14,0-.06-.33-.13-.66-.21-1.01-2.69.04-4.86,2.23-4.86,4.93s2.21,4.94,4.93,4.94c.08,0,.16,0,.23-.01.09-.33.16-.67.21-1.02-.14.02-.29.03-.44.03Z"/>
    <path class="cls-1" d="M280.25,454.08c.08-.33.16-.66.24-.99-.06-.01-.12-.01-.18-.01-2.72,0-4.94,2.21-4.94,4.93,0,2.15,1.38,3.98,3.3,4.66.04-.34.09-.68.14-1.02-1.43-.59-2.44-2-2.44-3.64,0-2.15,1.74-3.9,3.88-3.93Z"/>
    <path class="cls-1" d="M280.31,447.7c0,1.05.33,2.02.89,2.81.13-.44.26-.89.4-1.33-.19-.46-.29-.96-.29-1.48,0-1.49.83-2.79,2.04-3.45,0-.01.01-.01.01-.01.16-.43.33-.86.52-1.29-2.06.6-3.57,2.5-3.57,4.75Z"/>
    <path class="cls-1" d="M303.06,410.6c-2.72,0-4.93,2.21-4.93,4.93,0,1.3.5,2.48,1.32,3.36.19-.29.38-.58.57-.88-.56-.67-.89-1.54-.89-2.48,0-2.17,1.76-3.93,3.93-3.93.28,0,.55.03.81.09.09-.16.18-.32.27-.48.08-.14.16-.28.24-.43-.42-.12-.86-.18-1.32-.18Z"/>
    <path class="cls-1" d="M295.91,422.14c-2.72,0-4.93,2.21-4.93,4.93,0,.86.22,1.67.62,2.38.21-.3.44-.59.67-.89-.19-.46-.29-.96-.29-1.49,0-2.17,1.76-3.93,3.93-3.93.19,0,.38.01.56.04.23-.29.44-.59.64-.89-.38-.1-.79-.15-1.2-.15Z"/>
    <path class="cls-1" d="M286.05,437.38c0,.27.02.53.07.79.38-.75.79-1.5,1.21-2.24,0-.01,0-.01,0-.02h0c.15-.38.36-.72.61-1.03.42-.71.85-1.41,1.31-2.11-1.88.69-3.21,2.5-3.21,4.61Z"/>
    <path class="cls-1" d="M50.7,270.79c-2.61,0-4.75,2.05-4.91,4.62.34-.1.69-.2,1.04-.32.3-1.87,1.92-3.3,3.87-3.3.81,0,1.57.24,2.19.66.32-.16.65-.33.97-.51-.86-.72-1.96-1.15-3.16-1.15Z"/>
    <path class="cls-1" d="M60.17,259.49c-2.72,0-4.94,2.21-4.94,4.93,0,2.24,1.5,4.14,3.55,4.74.15-.1.3-.18.45-.27.31-.18.61-.36.9-.53-2.15-.02-3.9-1.78-3.9-3.94s1.77-3.93,3.94-3.93,3.93,1.76,3.93,3.93c0,.73-.2,1.42-.55,2.01.49-.27.94-.5,1.37-.71.12-.41.18-.85.18-1.3,0-2.72-2.21-4.93-4.93-4.93Z"/>
    <path class="cls-1" d="M72.24,261.22c-2.24,0-4.14,1.5-4.74,3.55.39-.09.76-.14,1.11-.14.6-1.41,2-2.41,3.63-2.41,2.17,0,3.93,1.77,3.93,3.94,0,.83-.26,1.61-.71,2.25.26.2.52.4.79.61.58-.8.92-1.79.92-2.86,0-2.72-2.21-4.94-4.93-4.94Z"/>
    <path class="cls-1" d="M85.5,267.86c-2.72,0-4.93-2.21-4.93-4.93s2.21-4.93,4.93-4.93,4.93,2.21,4.93,4.93-2.21,4.93-4.93,4.93ZM85.5,259c-2.17,0-3.93,1.76-3.93,3.93s1.76,3.93,3.93,3.93,3.93-1.76,3.93-3.93-1.76-3.93-3.93-3.93Z"/>
    <path class="cls-1" d="M84.4,270.09c-1.71,0-3.21.87-4.1,2.18.26.21.52.43.78.65.7-1.1,1.93-1.83,3.32-1.83,2.17,0,3.93,1.77,3.93,3.94,0,1.26-.59,2.38-1.51,3.09.24.24.48.47.73.71,1.09-.91,1.78-2.27,1.78-3.8,0-2.72-2.21-4.94-4.93-4.94Z"/>
    <path class="cls-1" d="M93.26,278.96c-1.53,0-2.89.69-3.8,1.78.24.24.47.48.71.73.72-.92,1.84-1.51,3.09-1.51,2.17,0,3.94,1.77,3.94,3.93,0,1.4-.74,2.64-1.85,3.33.22.26.43.52.65.78,1.32-.89,2.2-2.4,2.2-4.11,0-2.72-2.22-4.93-4.94-4.93Z"/>
    <path class="cls-1" d="M100.79,289.87c-.99,0-1.92.29-2.69.8.2.26.4.53.6.8.61-.38,1.33-.6,2.09-.6,2.17,0,3.93,1.76,3.93,3.93,0,1.34-.67,2.53-1.7,3.24.17.29.33.58.49.87,1.33-.89,2.21-2.4,2.21-4.11,0-2.72-2.21-4.93-4.93-4.93Z"/>
    <path class="cls-1" d="M104.72,300.61c-.11,0-.22,0-.32.02.17.33.33.66.48.99,2.1.08,3.78,1.81,3.78,3.93,0,1.18-.53,2.24-1.36,2.96.08.37.16.73.22,1.1,1.29-.89,2.14-2.38,2.14-4.06,0-2.73-2.22-4.94-4.94-4.94Z"/>
    <path class="cls-1" d="M108.66,312.99c-.27,0-.53.02-.78.07.01.11.01.21.01.32v.69c.25-.05.5-.08.77-.08,1.35,0,2.54.69,3.25,1.73.08.02.15.03.23.05.35.08.71.15,1.06.24-.75-1.77-2.5-3.02-4.54-3.02Z"/>
    <path class="cls-1" d="M122.48,313.37c-2.35,0-4.32,1.65-4.81,3.86.03.01.05.02.08.03.26.08.51.16.77.25.03.01.07.02.1.03.36-1.81,1.95-3.17,3.86-3.17,2.17,0,3.94,1.76,3.94,3.93,0,.75-.21,1.45-.59,2.05.31.14.61.28.91.43.44-.73.68-1.57.68-2.48,0-2.72-2.22-4.93-4.94-4.93Z"/>
    <path class="cls-1" d="M96.29,276.73c-2.72,0-4.93-2.21-4.93-4.93s2.21-4.93,4.93-4.93,4.93,2.21,4.93,4.93-2.21,4.93-4.93,4.93ZM96.29,267.86c-2.17,0-3.93,1.76-3.93,3.93s1.76,3.93,3.93,3.93,3.93-1.76,3.93-3.93-1.76-3.93-3.93-3.93Z"/>
    <path class="cls-1" d="M105.16,286.6c-2.72,0-4.93-2.21-4.93-4.93s2.21-4.93,4.93-4.93,4.93,2.21,4.93,4.93-2.21,4.93-4.93,4.93ZM105.16,277.73c-2.17,0-3.93,1.76-3.93,3.93s1.76,3.93,3.93,3.93,3.93-1.76,3.93-3.93-1.76-3.93-3.93-3.93Z"/>
    <path class="cls-1" d="M112.95,298.1c-2.72,0-4.93-2.21-4.93-4.93s2.21-4.93,4.93-4.93,4.93,2.21,4.93,4.93-2.21,4.93-4.93,4.93ZM112.95,289.23c-2.17,0-3.93,1.76-3.93,3.93s1.76,3.93,3.93,3.93,3.93-1.76,3.93-3.93-1.76-3.93-3.93-3.93Z"/>
    <path class="cls-1" d="M70.65,366.53c-.12-2.61-2.28-4.69-4.92-4.69s-4.94,2.21-4.94,4.93c0,1.42.6,2.7,1.57,3.6.31-.18.62-.35.94-.52-.92-.71-1.51-1.83-1.51-3.08,0-2.17,1.77-3.93,3.94-3.93s3.93,1.76,3.93,3.93c0,.05,0,.1,0,.14.33-.13.66-.26,1-.38Z"/>
    <path class="cls-1" d="M110.31,361.84c-1.78,0-3.34.95-4.2,2.36.32.11.64.23.95.36.7-1.04,1.9-1.72,3.25-1.72,2.17,0,3.93,1.76,3.93,3.93,0,.54-.11,1.06-.31,1.52.28.18.55.38.83.58.31-.64.48-1.35.48-2.1,0-2.72-2.21-4.93-4.93-4.93Z"/>
    <path class="cls-1" d="M76.11,355.55c-2.72,0-4.94,2.22-4.94,4.94,0,2.2,1.45,4.06,3.44,4.7,1.62-.51,3.32-.96,5.11-1.36.83-.88,1.32-2.05,1.32-3.34,0-2.72-2.21-4.94-4.93-4.94ZM76.11,364.42c-2.17,0-3.94-1.76-3.94-3.93s1.77-3.94,3.94-3.94,3.93,1.77,3.93,3.94-1.76,3.93-3.93,3.93Z"/>
    <path class="cls-1" d="M90.15,361.49c-2.72,0-4.93-2.21-4.93-4.93s2.21-4.93,4.93-4.93,4.93,2.21,4.93,4.93-2.21,4.93-4.93,4.93ZM90.15,352.62c-2.17,0-3.93,1.76-3.93,3.93s1.76,3.93,3.93,3.93,3.93-1.76,3.93-3.93-1.76-3.93-3.93-3.93Z"/>
    <path class="cls-1" d="M104.44,360.49c-2.72,0-4.93-2.21-4.93-4.93s2.21-4.93,4.93-4.93,4.93,2.21,4.93,4.93-2.21,4.93-4.93,4.93ZM104.44,351.62c-2.17,0-3.93,1.76-3.93,3.93s1.76,3.93,3.93,3.93,3.93-1.76,3.93-3.93-1.76-3.93-3.93-3.93Z"/>
    <path class="cls-1" d="M118.57,351.62c-2.72,0-4.93,2.21-4.93,4.93s2.21,4.94,4.93,4.94c.38,0,.74-.04,1.09-.13.09-.22.18-.44.26-.66.07-.18.15-.36.23-.54-.48.21-1.02.33-1.58.33-2.16,0-3.93-1.77-3.93-3.94s1.77-3.93,3.93-3.93c1.82,0,3.35,1.23,3.8,2.91.07-.15.15-.3.24-.44.13-.23.26-.46.4-.69-.8-1.65-2.49-2.78-4.44-2.78Z"/>
    <path class="cls-1" d="M117.88,310.48c-2.72,0-4.93-2.21-4.93-4.93s2.21-4.93,4.93-4.93,4.93,2.21,4.93,4.93-2.21,4.93-4.93,4.93ZM117.88,301.62c-2.17,0-3.93,1.76-3.93,3.93s1.76,3.93,3.93,3.93,3.93-1.76,3.93-3.93-1.76-3.93-3.93-3.93Z"/>
    <path class="cls-1" d="M141.22,342.18c-.29.15-.59.32-.87.49.42.63.67,1.38.67,2.2,0,2.17-1.77,3.94-3.94,3.94-1.26,0-2.38-.6-3.1-1.53-.25.22-.5.45-.75.68.91,1.13,2.3,1.85,3.85,1.85,2.72,0,4.94-2.22,4.94-4.94,0-.99-.29-1.91-.8-2.69Z"/>
    <path class="cls-1" d="M129.82,351.63c-.08.08-.15.17-.22.26-.21.26-.41.52-.6.79.2-.04.42-.06.63-.06,2.17,0,3.93,1.76,3.93,3.93s-1.76,3.93-3.93,3.93c-1.83,0-3.36-1.25-3.8-2.94-.22.38-.43.77-.62,1.17.79,1.64,2.47,2.77,4.42,2.77,2.72,0,4.93-2.21,4.93-4.93s-2.11-4.82-4.74-4.92Z"/>
    <path class="cls-1" d="M125.7,363.94c-1.16,0-2.23.4-3.08,1.08-.61,1.87-1.09,3.81-1.45,5.82.77,1.74,2.51,2.96,4.53,2.96,2.72,0,4.93-2.21,4.93-4.93s-2.21-4.93-4.93-4.93ZM125.7,372.8c-2.17,0-3.94-1.76-3.94-3.93s1.77-3.93,3.94-3.93,3.93,1.76,3.93,3.93-1.76,3.93-3.93,3.93Z"/>
    <path class="cls-1" d="M125.23,381.35c-2.2,0-4.06,1.44-4.69,3.43.08,1.29.22,2.6.4,3.92.84,1.5,2.45,2.52,4.29,2.52,2.72,0,4.93-2.22,4.93-4.94s-2.21-4.93-4.93-4.93ZM125.23,390.22c-2.17,0-3.93-1.77-3.93-3.94s1.76-3.93,3.93-3.93,3.93,1.76,3.93,3.93-1.76,3.94-3.93,3.94Z"/>
    <path class="cls-1" d="M129.63,406.36c-2.72,0-4.93-2.21-4.93-4.93s2.21-4.93,4.93-4.93,4.93,2.21,4.93,4.93-2.21,4.93-4.93,4.93ZM129.63,397.49c-2.17,0-3.93,1.76-3.93,3.93s1.76,3.93,3.93,3.93,3.93-1.76,3.93-3.93-1.76-3.93-3.93-3.93Z"/>
    <path class="cls-1" d="M137.08,419.47c-2.72,0-4.93-2.21-4.93-4.93s2.21-4.93,4.93-4.93,4.93,2.21,4.93,4.93-2.21,4.93-4.93,4.93ZM137.08,410.6c-2.17,0-3.93,1.76-3.93,3.93s1.76,3.93,3.93,3.93,3.93-1.76,3.93-3.93-1.76-3.93-3.93-3.93Z"/>
    <path class="cls-1" d="M145.95,429.34c-2.72,0-4.93-2.21-4.93-4.93s2.21-4.93,4.93-4.93,4.93,2.21,4.93,4.93-2.21,4.93-4.93,4.93ZM145.95,420.47c-2.17,0-3.93,1.76-3.93,3.93s1.76,3.93,3.93,3.93,3.93-1.76,3.93-3.93-1.76-3.93-3.93-3.93Z"/>
    <path class="cls-1" d="M157.78,437.37c-2.72,0-4.93-2.21-4.93-4.93s2.21-4.93,4.93-4.93,4.93,2.21,4.93,4.93-2.21,4.93-4.93,4.93ZM157.78,428.5c-2.17,0-3.93,1.76-3.93,3.93s1.76,3.93,3.93,3.93,3.93-1.76,3.93-3.93-1.76-3.93-3.93-3.93Z"/>
    <path class="cls-1" d="M170.21,441.31c-2.72,0-4.93-2.21-4.93-4.93s2.21-4.93,4.93-4.93,4.93,2.21,4.93,4.93-2.21,4.93-4.93,4.93ZM170.21,432.44c-2.17,0-3.93,1.76-3.93,3.93s1.76,3.93,3.93,3.93,3.93-1.76,3.93-3.93-1.76-3.93-3.93-3.93Z"/>
    <path class="cls-1" d="M185.25,443.32c-2.72,0-4.93-2.21-4.93-4.93s2.21-4.93,4.93-4.93,4.93,2.21,4.93,4.93-2.21,4.93-4.93,4.93ZM185.25,434.45c-2.17,0-3.93,1.76-3.93,3.93s1.76,3.93,3.93,3.93,3.93-1.76,3.93-3.93-1.76-3.93-3.93-3.93Z"/>
    <path class="cls-1" d="M199.29,442.31c-2.72,0-4.93-2.21-4.93-4.93s2.21-4.93,4.93-4.93,4.93,2.21,4.93,4.93-2.21,4.93-4.93,4.93ZM199.29,433.44c-2.17,0-3.93,1.76-3.93,3.93s1.76,3.93,3.93,3.93,3.93-1.76,3.93-3.93-1.76-3.93-3.93-3.93Z"/>
    <path class="cls-1" d="M212.48,438.39c-2.72,0-4.93-2.21-4.93-4.93s2.21-4.93,4.93-4.93,4.93,2.21,4.93,4.93-2.21,4.93-4.93,4.93ZM212.48,429.52c-2.17,0-3.93,1.76-3.93,3.93s1.76,3.93,3.93,3.93,3.93-1.76,3.93-3.93-1.76-3.93-3.93-3.93Z"/>
    <path class="cls-1" d="M209.13,441.64c-2.43,0-4.44,1.75-4.86,4.05.36-.07.72-.13,1.08-.2.46-1.65,1.98-2.85,3.78-2.85,1.16,0,2.21.51,2.93,1.32.35-.09.7-.19,1.05-.3-.9-1.22-2.35-2.02-3.98-2.02Z"/>
    <path class="cls-1" d="M193,443.67c-1.9,0-3.54,1.07-4.36,2.63.37.03.74.05,1.1.08h.01c.71-1.03,1.9-1.71,3.25-1.71s2.65.74,3.34,1.86c.36-.02.73-.04,1.1-.06-.79-1.66-2.48-2.8-4.44-2.8Z"/>
    <path class="cls-1" d="M176.38,441.64c-1.77,0-3.32.93-4.19,2.33.36.08.71.15,1.07.22.71-.94,1.85-1.55,3.12-1.55,1.75,0,3.24,1.14,3.74,2.72h.01c.36.05.71.1,1.07.15-.49-2.21-2.47-3.87-4.82-3.87Z"/>
    <path class="cls-1" d="M227.24,433.27c-2.72,0-4.93-2.21-4.93-4.93s2.21-4.93,4.93-4.93,4.93,2.21,4.93,4.93-2.21,4.93-4.93,4.93ZM227.24,424.4c-2.17,0-3.93,1.76-3.93,3.93s1.76,3.93,3.93,3.93,3.93-1.76,3.93-3.93-1.76-3.93-3.93-3.93Z"/>
    <path class="cls-1" d="M239.85,425.4c-2.72,0-4.93-2.21-4.93-4.93s2.21-4.93,4.93-4.93,4.93,2.21,4.93,4.93-2.21,4.93-4.93,4.93ZM239.85,416.54c-2.17,0-3.93,1.76-3.93,3.93s1.76,3.93,3.93,3.93,3.93-1.76,3.93-3.93-1.76-3.93-3.93-3.93Z"/>
    <path class="cls-1" d="M251.42,414.84c-2.72,0-4.93-2.21-4.93-4.93s2.21-4.93,4.93-4.93,4.93,2.21,4.93,4.93-2.21,4.93-4.93,4.93ZM251.42,405.97c-2.17,0-3.93,1.76-3.93,3.93s1.76,3.93,3.93,3.93,3.93-1.76,3.93-3.93-1.76-3.93-3.93-3.93Z"/>
    <path class="cls-1" d="M251.42,417.4c-2.72,0-4.93,2.21-4.93,4.93,0,1.07.34,2.06.92,2.87.26-.2.52-.43.77-.66-.44-.63-.69-1.39-.69-2.21,0-2.17,1.77-3.93,3.93-3.93.88,0,1.69.29,2.34.78.23-.25.46-.5.68-.75-.83-.65-1.88-1.03-3.02-1.03Z"/>
    <path class="cls-1" d="M262.31,404.97c-2.72,0-4.93,2.21-4.93,4.93,0,1.34.53,2.56,1.4,3.44.21-.26.42-.53.62-.8-.63-.69-1.02-1.63-1.02-2.64,0-2.17,1.76-3.93,3.93-3.93.5,0,.99.1,1.43.27.18-.28.36-.57.53-.86-.6-.27-1.26-.41-1.96-.41Z"/>
    <path class="cls-1" d="M267.24,397.29c0,.67.13,1.31.38,1.9.23-.46.45-.92.66-1.39-.03-.16-.04-.34-.04-.51,0-1.29.63-2.44,1.6-3.15h0c.2-.48.38-.96.56-1.44-1.85.71-3.16,2.5-3.16,4.59Z"/>
    <path class="cls-1" d="M272.18,382.54c0,.97.28,1.88.77,2.64.15-.45.3-.9.46-1.34-.15-.41-.23-.85-.23-1.3,0-1.39.72-2.61,1.81-3.31.16-.45.32-.9.47-1.34-1.91.68-3.28,2.5-3.28,4.65Z"/>
    <path class="cls-1" d="M259.69,403.33c-2.72,0-4.93-2.21-4.93-4.93s2.21-4.93,4.93-4.93,4.93,2.21,4.93,4.93-2.21,4.93-4.93,4.93ZM259.69,394.46c-2.17,0-3.93,1.76-3.93,3.93s1.76,3.93,3.93,3.93,3.93-1.76,3.93-3.93-1.76-3.93-3.93-3.93Z"/>
    <path class="cls-1" d="M265.53,391.22c-2.72,0-4.93-2.21-4.93-4.93s2.21-4.93,4.93-4.93,4.93,2.21,4.93,4.93-2.21,4.93-4.93,4.93ZM265.53,382.35c-2.17,0-3.93,1.76-3.93,3.93s1.76,3.93,3.93,3.93,3.93-1.76,3.93-3.93-1.76-3.93-3.93-3.93Z"/>
    <path class="cls-1" d="M271.81,367.5c-2.72,0-4.94,2.22-4.94,4.94s2.22,4.93,4.94,4.93c1.84,0,3.44-1.01,4.29-2.5.26-.45.44-.95.55-1.48.06-.31.09-.62.09-.95,0-2.72-2.21-4.94-4.93-4.94ZM271.81,376.37c-2.17,0-3.94-1.76-3.94-3.93s1.77-3.94,3.94-3.94,3.93,1.77,3.93,3.94-1.76,3.93-3.93,3.93Z"/>
    <path class="cls-1" d="M278.78,354.85c-2.72,0-4.93,2.22-4.93,4.94s2.21,4.93,4.93,4.93c.68,0,1.33-.14,1.92-.39.22-.54.45-1.07.67-1.59-.69.61-1.59.98-2.59.98-2.17,0-3.93-1.76-3.93-3.93s1.76-3.94,3.93-3.94,3.92,1.75,3.94,3.9c.01-.02.02-.05.03-.07l.46-.99.23-.51c-.66-1.94-2.51-3.33-4.66-3.33Z"/>
    <path class="cls-1" d="M287.15,343.49c-2.72,0-4.93,2.21-4.93,4.93,0,2.32,1.61,4.27,3.78,4.79.17-.31.34-.62.51-.92-1.87-.3-3.29-1.92-3.29-3.87,0-2.17,1.76-3.93,3.93-3.93,1.34,0,2.52.67,3.23,1.69.21-.28.41-.56.61-.83-.89-1.14-2.28-1.86-3.84-1.86Z"/>
    <path class="cls-1" d="M222.97,434.15c-2.72,0-4.93,2.21-4.93,4.93,0,1,.3,1.94.82,2.72.33-.11.65-.23.98-.36-.51-.66-.8-1.48-.8-2.36,0-2.17,1.76-3.93,3.93-3.93,1.97,0,3.61,1.45,3.89,3.34.31-.15.63-.3.94-.46-.49-2.22-2.47-3.88-4.83-3.88Z"/>
    <path class="cls-1" d="M238.67,427.33c-2.72,0-4.94,2.22-4.94,4.94,0,.83.21,1.6.57,2.29.29-.17.58-.34.86-.51-.28-.53-.43-1.14-.43-1.78,0-2.17,1.77-3.94,3.94-3.94,1.21,0,2.29.55,3.01,1.41.27-.19.54-.39.8-.59-.9-1.11-2.27-1.82-3.81-1.82Z"/>
    <path class="cls-1" d="M77.24,260.78c-1.53,0-2.78-1.25-2.78-2.78s1.25-2.78,2.78-2.78,2.78,1.25,2.78,2.78-1.25,2.78-2.78,2.78ZM77.24,255.78c-1.22,0-2.22,1-2.22,2.22s1,2.22,2.22,2.22,2.22-1,2.22-2.22-1-2.22-2.22-2.22Z"/>
    <path class="cls-1" d="M67.3,261.58c-1.53,0-2.78-1.25-2.78-2.78s1.25-2.78,2.78-2.78,2.78,1.25,2.78,2.78-1.25,2.78-2.78,2.78ZM67.3,256.57c-1.22,0-2.22,1-2.22,2.22s1,2.22,2.22,2.22,2.22-1,2.22-2.22-1-2.22-2.22-2.22Z"/>
    <path class="cls-1" d="M136.35,421.62c-.8,0-1.52.34-2.02.88.11.15.23.29.35.44.41-.47,1-.76,1.67-.76,1.22,0,2.22,1,2.22,2.22,0,.75-.38,1.42-.96,1.83.12.14.25.27.39.4.69-.5,1.13-1.31,1.13-2.23,0-1.53-1.25-2.78-2.78-2.78Z"/>
    <path class="cls-1" d="M127.42,409.6c-.27,0-.53.04-.78.11.08.18.15.35.24.52.17-.05.35-.07.54-.07,1.22,0,2.22,1,2.22,2.22,0,.71-.33,1.34-.85,1.74.09.16.18.33.28.49.69-.5,1.13-1.31,1.13-2.23,0-1.53-1.25-2.78-2.78-2.78Z"/>
    <path class="cls-1" d="M121.85,394.18c.06.31.12.62.19.93.3.38.48.85.48,1.37,0,.17-.02.34-.06.5.06.32.14.63.22.93.26-.42.4-.91.4-1.43,0-.96-.49-1.8-1.23-2.3Z"/>
    <path class="cls-1" d="M120.62,374.81c-.02.11-.03.23-.04.34-.01.08-.01.15-.02.23,1.1.12,1.96,1.06,1.96,2.2,0,1.2-.97,2.19-2.16,2.22v.56c1.5-.03,2.72-1.27,2.72-2.78,0-1.43-1.08-2.61-2.46-2.77Z"/>
    <path class="cls-1" d="M148.74,432.43c-.95,0-1.79.47-2.29,1.2.16.1.32.21.48.31.4-.57,1.06-.94,1.81-.94,1.22,0,2.22.99,2.22,2.22,0,.37-.09.71-.25,1.01.16.09.33.18.49.27.21-.38.32-.82.32-1.28,0-1.54-1.25-2.79-2.78-2.79Z"/>
    <path class="cls-1" d="M162.72,438.52c-1.25,0-2.31.83-2.66,1.98.18.07.35.14.53.2.26-.93,1.12-1.62,2.13-1.62,1.23,0,2.22,1,2.22,2.22,0,.28-.05.55-.14.79.17.05.35.11.53.15h0c.1-.29.16-.61.16-.94,0-1.53-1.24-2.78-2.78-2.78Z"/>
    <path class="cls-1" d="M294.92,339.62c-1.54,0-2.78,1.25-2.78,2.78,0,.42.09.82.26,1.18.14-.17.28-.33.41-.48-.07-.22-.11-.45-.11-.7,0-1.22,1-2.22,2.22-2.22.22,0,.44.03.64.09.15-.14.3-.28.46-.42-.33-.15-.71-.23-1.1-.23Z"/>
    <path class="cls-1" d="M57.5,370.96c-1.54,0-2.79,1.25-2.79,2.79,0,.51.14.99.39,1.4.15-.11.3-.23.45-.34-.17-.32-.27-.68-.27-1.06,0-1.23.99-2.22,2.22-2.22.66,0,1.25.29,1.66.75.15-.1.32-.21.48-.3-.51-.62-1.28-1.02-2.14-1.02Z"/>
    <path class="cls-1" d="M97.34,360.05c-1.29,0-2.38.89-2.69,2.08.19,0,.39.01.58.02.29-.89,1.13-1.53,2.11-1.53,1.12,0,2.06.84,2.2,1.92.19.02.38.05.57.09-.1-1.44-1.3-2.58-2.77-2.58Z"/>
    <path class="cls-1" d="M51.88,270.1c-1.53,0-2.78-1.25-2.78-2.78s1.25-2.78,2.78-2.78,2.78,1.25,2.78,2.78-1.25,2.78-2.78,2.78ZM51.88,265.09c-1.22,0-2.22,1-2.22,2.22s1,2.22,2.22,2.22,2.22-1,2.22-2.22-1-2.22-2.22-2.22Z"/>
    <path class="cls-1" d="M437.14,419.66c-.25.31-.51.62-.78.93,2.17.01,3.92,1.76,3.92,3.93s-1.76,3.93-3.93,3.93-3.76-1.6-3.92-3.63c-.06.06-.12.12-.18.18-.22.22-.45.44-.69.66.51,2.17,2.46,3.79,4.79,3.79,2.72,0,4.93-2.21,4.93-4.93,0-2.45-1.79-4.49-4.14-4.86Z"/>
    <path class="cls-1" d="M439.07,441.81c-2.72,0-4.93-2.21-4.93-4.93s2.21-4.93,4.93-4.93,4.93,2.21,4.93,4.93-2.21,4.93-4.93,4.93ZM439.07,432.94c-2.17,0-3.93,1.76-3.93,3.93s1.76,3.93,3.93,3.93,3.93-1.76,3.93-3.93-1.76-3.93-3.93-3.93Z"/>
    <path class="cls-1" d="M428.7,438.38c-.97,0-1.87.29-2.64.77.14.32.27.63.39.95.63-.46,1.41-.72,2.25-.72,2.17,0,3.94,1.77,3.94,3.94s-1.74,3.9-3.88,3.93c.08.33.16.65.23.98,2.59-.14,4.65-2.29,4.65-4.91s-2.21-4.94-4.94-4.94Z"/>
    <path class="cls-1" d="M429.68,451.79c.06.35.11.69.15,1.03,1.84.32,3.23,1.93,3.23,3.86,0,1.76-1.16,3.26-2.76,3.75,0,.35-.01.7-.02,1.04,2.17-.52,3.78-2.47,3.78-4.79,0-2.53-1.92-4.62-4.38-4.89Z"/>
    <path class="cls-1" d="M430.07,464.64c-.04.41-.08.8-.13,1.19.74.71,1.19,1.71,1.19,2.81,0,1.66-1.03,3.08-2.49,3.65-.11.4-.23.78-.36,1.15,2.21-.49,3.85-2.46,3.85-4.8,0-1.65-.81-3.11-2.06-4Z"/>
    <path class="cls-1" d="M421.23,482.19c-.61,1.39-2,2.37-3.61,2.37-.51,0-1-.1-1.45-.28h-.01c-.44.14-.89.27-1.35.39.8.56,1.77.89,2.81.89,2.43,0,4.47-1.78,4.86-4.1-.4.26-.82.5-1.25.73Z"/>
    <path class="cls-1" d="M411.08,485.57c-.68,1.16-1.95,1.94-3.39,1.94-.94,0-1.8-.33-2.48-.89h-.01c-.4.07-.8.13-1.21.2.9,1.04,2.22,1.69,3.7,1.69,2.12,0,3.93-1.33,4.62-3.21-.41.1-.82.19-1.23.27Z"/>
    <path class="cls-1" d="M399.8,487.46c-.67,1.21-1.96,2.03-3.44,2.03-.98,0-1.87-.35-2.55-.95-.4.09-.78.18-1.15.27.9,1.03,2.23,1.68,3.7,1.68,2.11,0,3.92-1.33,4.61-3.21-.39.06-.78.12-1.17.18Z"/>
    <path class="cls-1" d="M429.51,427.53c-.25.22-.51.44-.77.65.85.72,1.39,1.79,1.39,2.99,0,2.17-1.77,3.93-3.94,3.93-.94,0-1.8-.33-2.48-.89.25.48.5.96.74,1.44.03.05.06.11.08.16.52.19,1.08.29,1.66.29,2.73,0,4.94-2.21,4.94-4.93,0-1.44-.62-2.74-1.62-3.64Z"/>
    <path class="cls-1" d="M439.07,455.72c-2.72,0-4.93-2.21-4.93-4.93s2.21-4.93,4.93-4.93,4.93,2.21,4.93,4.93-2.21,4.93-4.93,4.93ZM439.07,446.86c-2.17,0-3.93,1.76-3.93,3.93s1.76,3.93,3.93,3.93,3.93-1.76,3.93-3.93-1.76-3.93-3.93-3.93Z"/>
    <path class="cls-1" d="M439.07,469.64c-2.72,0-4.93-2.21-4.93-4.93s2.21-4.93,4.93-4.93,4.93,2.21,4.93,4.93-2.21,4.93-4.93,4.93ZM439.07,460.77c-2.17,0-3.93,1.76-3.93,3.93s1.76,3.93,3.93,3.93,3.93-1.76,3.93-3.93-1.76-3.93-3.93-3.93Z"/>
    <path class="cls-1" d="M435.14,481.63c-2.72,0-4.93-2.21-4.93-4.93s2.21-4.93,4.93-4.93,4.93,2.21,4.93,4.93-2.21,4.93-4.93,4.93ZM435.14,472.76c-2.17,0-3.93,1.76-3.93,3.93s1.76,3.93,3.93,3.93,3.93-1.76,3.93-3.93-1.76-3.93-3.93-3.93Z"/>
    <path class="cls-1" d="M428.03,491.5c-2.72,0-4.93-2.21-4.93-4.93s2.21-4.93,4.93-4.93,4.93,2.21,4.93,4.93-2.21,4.93-4.93,4.93ZM428.03,482.63c-2.17,0-3.93,1.76-3.93,3.93s1.76,3.93,3.93,3.93,3.93-1.76,3.93-3.93-1.76-3.93-3.93-3.93Z"/>
    <path class="cls-1" d="M416.58,496.43c-2.72,0-4.93-2.21-4.93-4.93s2.21-4.93,4.93-4.93,4.93,2.21,4.93,4.93-2.21,4.93-4.93,4.93ZM416.58,487.56c-2.17,0-3.93,1.76-3.93,3.93s1.76,3.93,3.93,3.93,3.93-1.76,3.93-3.93-1.76-3.93-3.93-3.93Z"/>
    <path class="cls-1" d="M404.39,498.94c-2.72,0-4.93-2.21-4.93-4.93s2.21-4.93,4.93-4.93,4.93,2.21,4.93,4.93-2.21,4.93-4.93,4.93ZM404.39,490.07c-2.17,0-3.93,1.76-3.93,3.93s1.76,3.93,3.93,3.93,3.93-1.76,3.93-3.93-1.76-3.93-3.93-3.93Z"/>
    <path class="cls-1" d="M392.76,500.36c-2.72,0-4.93-2.21-4.93-4.93s2.21-4.93,4.93-4.93,4.93,2.21,4.93,4.93-2.21,4.93-4.93,4.93ZM392.76,491.5c-2.17,0-3.93,1.76-3.93,3.93s1.76,3.93,3.93,3.93,3.93-1.76,3.93-3.93-1.76-3.93-3.93-3.93Z"/>
    <path class="cls-1" d="M383.85,492.82c-.28.2-.55.41-.8.62.85.73,1.38,1.8,1.38,2.99,0,2.17-1.77,3.93-3.94,3.93-.44,0-.86-.07-1.25-.21-.06.32-.1.66-.13,1.01.44.13.9.2,1.38.2,2.72,0,4.94-2.21,4.94-4.93,0-1.42-.61-2.71-1.58-3.61Z"/>
    <path class="cls-1" d="M427.77,474.9c-.07.19-.14.37-.21.54.55.4.9,1.04.9,1.77,0,1.23-1,2.22-2.22,2.22-.34,0-.66-.08-.95-.21-.14.14-.28.28-.43.41.41.24.88.37,1.38.37,1.53,0,2.78-1.25,2.78-2.79,0-.96-.5-1.82-1.25-2.31Z"/>
  </g>
  <path class="cls-4" d="M569.67,289.68c-5.12-12.71-18.74-23.53-33.89-26.92-11.76-2.63-36.14,6.43-61.95,16.02-23.18,8.61-49.44,18.38-56.26,14.2-11.8-7.22-6.96-19.48-5.54-22.49l.52-.28v-.57c14.93-21.15,23-45.93,23.41-71.84,1.14-70.62-56.98-130.08-127.61-130.49-71.14-.41-129.14,57.34-129.14,128.38,0,23.78,6.55,47,18.94,67.14l-.05-.03.11.12c.03.06.08.13.17.27l.02.02c.15.26.3.51.46.76l.12.19s.01.01.01.02c.03.04.07.1.09.14l.08.13c2.18,3.72,6.97,13.15,4.57,20.95-1.16,3.79-3.96,6.75-8.32,8.82-16.57,7.87-31.85,3.79-52.15-14.8-3.32-3.04-6.77-6.46-10.39-10.29-2.56-2.72-4.97-5.31-7.25-7.76-21.26-22.87-31.94-34.34-57.45-28.57-8.54,1.94-15.64,6.04-21.2,10.98-8.05,7.15-12.85,16.05-14.06,22.62-1.02,5.51.21,9.73,3.45,11.89,1.41.94,2.97,1.43,4.62,1.58,1.96.19,4.04-.11,6.17-.72.37-.1.74-.22,1.11-.34,2.13-.7,4.28-1.67,6.36-2.75.34-.17.68-.35,1.01-.53,1.98-1.05,3.88-2.17,5.63-3.2,2.29-1.35,5.31-3.12,6.78-3.58.23-.08.42-.12.57-.12.29.1.69.31,1.21.62.22.13.45.28.71.45.57.37,1.24.83,1.98,1.37,2.02,1.46,4.59,3.51,7.39,5.99.94.82,1.91,1.7,2.89,2.63,1.92,1.8,3.89,3.76,5.82,5.83h0c.87.93,1.72,1.87,2.56,2.83h0c1.66,1.92,3.25,3.9,4.72,5.91.38.52.74,1.04,1.1,1.56.47.68.92,1.37,1.35,2.05.35.55.68,1.09,1,1.64h0c.56.98,1.08,1.94,1.56,2.91.17.35.33.69.49,1.04.01.01.01.03.02.04.88,1.93,1.56,3.86,1.98,5.74.08.37.16.74.22,1.11.18,1.03.27,2.05.28,3.06v1.1c-10.4-.86-20.91.95-31.28,5.42-.24.1-.48.2-.72.31-21.62,9.56-36.3,23.2-43.64,40.53-3.8,8.98-4.87,17.15-4.87,23.49,0,5.89.92,10.2,1.43,12.11,1.54,5.86,5.5,13.08,11.72,17.66,3.71,2.72,8.21,4.5,13.48,4.5,1.16,0,2.35-.08,3.58-.26,8.87-1.31,14.25-6.72,17.21-11.03,4-5.83,5.35-12.15,4.62-15.39-.15-.67-.33-1.33-.54-1.97-1.97-6.43-6.24-11.44-11.24-13.01-.97-.31-2.11-.53-3.39-.56,6.53-4.43,16.81-9.22,31.46-10.11,1.33-.08,2.64-.09,3.93-.02,3.53.18,6.86.89,9.98,2.14.48.19.95.4,1.41.62,1.12.51,2.2,1.1,3.26,1.76.43.26.85.54,1.27.83,1.74,1.2,3.39,2.6,4.97,4.2-.26,3.44-.22,7.03.13,10.71.13,1.44.31,2.89.53,4.36.22,1.44.47,2.85.75,4.22.05.33.12.66.2.98.12.61.25,1.21.39,1.81.07.34.15.67.24,1,7.92,32.67,30.77,44.58,52.88,49.16.38.08.77.16,1.16.23,2.15.43,4.3.78,6.42,1.08.39.06.78.11,1.17.16,2.71.36,5.37.63,7.96.84.38.04.75.07,1.13.09.34.03.69.06,1.03.08,1.16.09,2.36.13,3.57.13.77,0,1.54-.02,2.33-.05h.01c.37-.01.75-.03,1.13-.06,2.48-.14,5.05-.45,7.66-.9.38-.06.77-.13,1.15-.21,2.13-.39,4.29-.89,6.46-1.48.38-.09.75-.2,1.13-.3,5.4-1.54,10.85-3.63,16.1-6.21-.1,5.14.28,10.45,1.13,16,.63,4.02,1.51,8.15,2.64,12.45,1.88,7.12,23.46,58.14,40.59,58.14.59,0,1.18-.06,1.77-.19,3.42-.75,6.17-2.08,8.23-3.98,1.06-.97,1.94-2.09,2.63-3.37,1.18-2.18,1.8-4.71,1.85-7.68.03-1.17-.03-2.4-.19-3.72-.44-3.81-1.63-8.23-3.59-13.36-2.4-6.31-4.42-19.23-2.43-33.33.06-.45.13-.9.2-1.36.25-1.57.55-3.16.92-4.76.09-.44.2-.89.31-1.33.18-.76.38-1.52.6-2.28.08-.33.18-.65.28-.98.7-2.38,1.54-4.77,2.53-7.12.13-.31.27-.62.4-.93.27-.6.54-1.2.83-1.79.14-.3.29-.6.44-.89,1.15-2.31,2.47-4.58,3.97-6.78.18-.28.37-.55.57-.82.33-.48.67-.95,1.03-1.42.22-.3.45-.6.68-.89.29-.36.58-.72.87-1.08,1.09-1.33,2.19-2.73,3.27-4.22.23-.3.45-.61.68-.92.97-1.37,1.95-2.8,2.92-4.3.23-.35.47-.71.7-1.08.95-1.5,1.9-3.06,2.85-4.68.04-.07.08-.13.12-.2.21-.36.42-.73.64-1.11.81-1.41,1.62-2.88,2.43-4.39.21-.39.41-.78.62-1.18.82-1.56,1.64-3.16,2.45-4.81.19-.39.39-.79.58-1.2.28-.57.55-1.15.83-1.73.14-.31.29-.61.43-.92.19-.39.37-.78.55-1.18.39.62.78,1.25,1.17,1.86.22.35.44.69.65,1.03,1.06,1.67,2.12,3.3,3.18,4.91.22.35.45.69.68,1.04,1.13,1.69,2.26,3.33,3.42,4.94.24.34.48.67.73,1,1.53,2.09,3.09,4.1,4.73,6.02.28.34.57.67.86,1,1.25,1.42,2.54,2.8,3.88,4.11.31.31.63.61.94.91,1.99,1.88,4.1,3.64,6.36,5.26.4.3.82.59,1.24.87,1.26.86,2.54,1.67,3.9,2.44h.02c.44.25.88.5,1.33.74,2.67,1.42,5.54,2.69,8.66,3.77.37.13.75.26,1.13.38,1.98.65,4.05,1.23,6.23,1.73.38.09.77.18,1.16.26,2.23.48,4.58.89,7.04,1.21.56.07,1.12.14,1.69.2h.01c1.2.14,2.42.26,3.68.35h0c.55.05,1.11.09,1.67.12h.01c2.6.17,5.32.25,8.18.25h.83c.41,0,.82,0,1.23,0h.05c1.99-.03,3.96-.15,5.89-.35.43-.03.85-.08,1.27-.14,2.43-.29,4.81-.71,7.13-1.28.41-.09.82-.2,1.23-.31,1.96-.51,3.87-1.12,5.74-1.83h.01c.4-.14.79-.29,1.18-.46.87-.34,1.72-.71,2.57-1.1,1.47-.67,2.92-1.4,4.33-2.2,1,1.74,1.86,3.46,2.61,5.16,2.05,4.65,3.21,9.11,3.78,13.2.07.44.12.87.17,1.29.19,1.75.28,3.42.29,5.01,0,.45-.01.88-.02,1.31-.02,1.1-.08,2.16-.18,3.17-.03.36-.07.72-.11,1.07-.31,2.64-.82,4.9-1.34,6.69-.11.36-.22.7-.32,1.02-.65,1.95-1.27,3.17-1.57,3.51-.41.45-.88.87-1.39,1.25-.26.2-.53.4-.82.58-1.87,1.22-4.22,2.13-6.81,2.85-.32.09-.65.18-.98.26-.23.06-.45.12-.68.18-.34.08-.68.16-1.03.23-2.33.53-4.77.94-7.17,1.31h0c-.35.06-.69.11-1.03.17-.41.06-.81.12-1.21.18-.29.04-.58.09-.87.13-.36.06-.71.11-1.07.16-2.5.39-4.92.79-7.15,1.3-.35.08-.71.17-1.05.25-1.88.48-3.6,1.04-5.08,1.76-3.12,1.5-5.51,3.09-7.29,4.95-1.62,1.72-2.72,3.67-3.36,5.99-.35,1.24-.56,2.59-.66,4.07-.14,1.86-.07,3.91.15,6.21.29,3.03,2.25,5.72,5.66,7.75,4.49,2.69,11.75,4.34,20.41,4.34,9.19,0,19.96-1.86,30.65-6.35,5.15-2.16,12.05-5.05,18.48-13.86,6.43-8.8,12.41-23.52,15.75-49.34,2.24-17.31-1.18-32.55-10.44-46.3-1.62-2.41-3.42-4.77-5.4-7.09,4.22-10.54,5.69-19.63,5.65-24.33-.05-4.77-1.27-11.73-3.86-18.84-.16-.43-.32-.85-.49-1.27-.64-1.68-1.36-3.35-2.17-5-.12-.26-.25-.52-.38-.78.18-.07.36-.14.54-.22.94-.38,1.89-.79,2.83-1.24,6.55-3.03,13.2-7.3,19.82-12.72.69-.57,1.38-1.13,2.06-1.7,1.03-.84,2.04-1.69,3.05-2.52.16-.13.32-.27.48-.39h0s.01-.01.01-.01c2.08-1.73,4.11-3.41,6.14-5.05.31-.26.62-.51.93-.76,1.61-1.29,3.21-2.56,4.82-3.78.32-.24.63-.48.95-.71,1.27-.97,2.55-1.9,3.84-2.8.3-.22.61-.43.91-.64,1.85-1.28,3.73-2.49,5.65-3.64.31-.19.63-.38.95-.56.8-.47,1.6-.93,2.42-1.37.31-.17.63-.34.95-.5,2.04-1.08,4.13-2.07,6.3-2.97.33-.14.66-.27,1-.4.93-.38,1.88-.73,2.85-1.07.32-.12.65-.23.98-.34,2.28-.76,4.64-1.42,7.11-1.96.33-.08.67-.15,1.01-.22.39-.09.78-.16,1.18-.24-.26.35-.51.71-.74,1.09-1.84,3.06-3.43,8.48-.52,16.98,2.59,7.6,8.78,12.91,16.15,13.86,5.36.69,15.82-.42,25.88-15.61,5.78-8.73,6.83-18.32,3.04-27.72ZM119.92,360.7c-.08.22-.17.44-.26.66-.06.15-.11.29-.17.44-.25.67-.47,1.35-.69,2.03-.1.32-.21.63-.3.95-.3,1.01-.58,2.04-.81,3.08-.03.1-.04.21-.06.31-.19.86-.37,1.72-.52,2.6-.77-.67-1.55-1.3-2.35-1.9-.28-.2-.55-.4-.83-.58-2.18-1.53-4.47-2.77-6.87-3.73-.31-.13-.63-.25-.95-.36-1.93-.71-3.93-1.23-6-1.57-.19-.04-.38-.07-.57-.09-1.13-.18-2.28-.3-3.45-.36-.29-.02-.57-.03-.86-.03-.19-.01-.39-.02-.58-.02-1.05-.02-2.11,0-3.18.07-4.25.26-8.17.84-11.75,1.63-1.79.4-3.49.85-5.11,1.36-1.38.41-2.7.86-3.96,1.34-.34.12-.67.25-1,.38-2.31.92-4.43,1.91-6.35,2.94-.32.17-.63.34-.94.52-.96.52-1.86,1.06-2.72,1.61-.16.09-.33.2-.48.3-1.33.85-2.53,1.7-3.61,2.53-.15.11-.3.23-.45.34-2.58,2.02-4.42,3.83-5.56,5.07h-.01c-.81.89-.74,2.26.15,3.07.4.37.92.55,1.43.55.44,0,.89-.13,1.26-.4.04-.02.08-.04.11-.07,3.51-2.76,6.86-3.66,9.96-2.69,3.67,1.16,6.45,4.82,8.02,8.7.46,1.12.81,2.25,1.06,3.35.43,1.94-.54,7.17-4.02,12.25-2.51,3.65-7.05,8.23-14.49,9.33-5.4.79-9.83-.6-13.37-3-6.45-4.36-9.94-12.06-10.97-15.96-.49-1.89-11.52-46.53,44.84-71.45.51-.23,1.03-.45,1.54-.66,7.92-3.28,15.9-4.94,23.83-4.94,1.62,0,3.25.07,4.88.22.34.02.68.06,1.02.1.28.02.57.06.85.09,1.07.12,2.12.28,3.16.46.36.07.7.14,1.05.21.68.13,1.36.26,2.03.42.07.02.15.03.22.05.33.08.66.17.99.25.43.11.85.21,1.27.33.17.04.34.08.51.13.42.12.83.25,1.24.38.56.17,1.11.34,1.66.52.42.14.83.29,1.24.44.07.02.14.05.21.08.05.02.11.04.16.06.41.14.81.29,1.21.44.4.16.8.32,1.2.48.21.09.42.17.62.27.3.12.6.25.9.38.39.17.78.34,1.16.52.5.23,1,.47,1.49.71.36.18.73.35,1.09.54.5.25.99.52,1.48.78.33.18.67.36,1,.54.52.29,1.02.59,1.53.89.28.17.57.33.84.5.65.39,1.29.8,1.92,1.2.11.08.24.15.35.23.09.06.19.12.28.19.64.42,1.27.85,1.89,1.28.23.16.44.33.67.49.47.34.94.67,1.39,1.01.27.21.54.41.8.62.39.29.78.59,1.16.89.27.22.54.44.81.66.35.28.7.57,1.04.85.26.23.53.45.79.68.18.15.36.31.54.46-.96.4-1.89.83-2.8,1.28-.3.15-.58.31-.87.46-.62.33-1.23.65-1.82,1-.31.18-.6.37-.9.55-.03.02-.06.04-.09.06-.53.33-1.06.68-1.58,1.03-.33.23-.65.46-.97.69-.32.24-.64.48-.96.73-.18.13-.35.26-.52.4-.21.17-.43.35-.64.52-.09.08-.17.15-.26.22-.49.41-.97.85-1.44,1.29-.26.24-.53.47-.78.72-.55.53-1.08,1.09-1.6,1.66-.15.17-.31.32-.47.49-.66.75-1.29,1.52-1.9,2.31-.15.19-.29.4-.43.6-.09.12-.18.24-.27.37-.36.48-.71.97-1.04,1.47-.2.3-.39.62-.58.92-.21.32-.41.65-.6.98-.14.23-.27.46-.4.69-.09.14-.17.29-.24.44-.12.2-.23.4-.33.61-.3.55-.58,1.11-.85,1.67-.18.37-.35.74-.52,1.11-.18.41-.36.82-.52,1.24-.08.18-.16.36-.23.54ZM312.21,395.35c-.62,1.35-1.25,2.67-1.87,3.97-.14.31-.29.62-.45.93-1.12,2.32-2.26,4.55-3.4,6.69-.16.31-.32.61-.49.91-.54,1-1.08,1.98-1.62,2.93-.08.15-.16.29-.24.43-.09.16-.18.32-.27.48-.24.42-.48.83-.72,1.24-1.04,1.77-2.08,3.46-3.13,5.08-.19.3-.38.59-.57.88-.77,1.18-1.55,2.31-2.34,3.4-.2.3-.41.6-.64.89-1.07,1.48-2.15,2.87-3.23,4.18-.33.4-.65.8-.97,1.2-.23.3-.46.59-.67.89-.83,1.09-1.61,2.19-2.34,3.31h0c-.46.71-.89,1.41-1.31,2.12-.21.34-.41.68-.61,1.02h0s0,.02,0,.03c-.42.74-.83,1.49-1.21,2.24-.82,1.57-1.57,3.17-2.24,4.78-.19.43-.36.86-.52,1.29,0,0-.01,0-.01.01-.65,1.63-1.23,3.28-1.75,4.93-.14.44-.27.89-.4,1.33h0c-.25.87-.49,1.72-.71,2.58-.08.33-.16.66-.24.99-.61,2.54-1.09,5.07-1.44,7.57-.05.34-.1.68-.14,1.02-1.05,8.05-.87,15.71-.08,22.05.06.46.12.92.18,1.37.24,1.68.52,3.25.83,4.7.1.46.2.91.3,1.34.33,1.39.69,2.65,1.05,3.76.15.42.29.82.43,1.19.01.03.02.05.03.08.67,1.76,1.24,3.42,1.71,4.99.14.45.27.9.39,1.33.26.94.48,1.84.66,2.7.08.35.15.68.21,1.01.57,3.04.67,5.64.3,7.83-.05.35-.12.69-.21,1.02-.22.9-.54,1.72-.94,2.47-.39.72-.87,1.38-1.43,1.96-1.56,1.63-3.79,2.75-6.77,3.4-.33.07-.67.1-1.02.1-12.23,0-33.6-43.77-36.62-55.17-1.34-5.11-2.31-9.98-2.91-14.66-.66-5.16-.88-10.1-.65-14.88,1.25-.69,2.48-1.4,3.69-2.14.53-.33,1.06-.66,1.58-.99.86-.55,1.71-1.11,2.55-1.69.51-.34,1.02-.7,1.52-1.06,2.7-1.92,5.28-3.97,7.71-6.13.41-.37.82-.75,1.23-1.12.95-.88,1.87-1.77,2.78-2.68,0,0,.01,0,.01-.01.39-.39.78-.79,1.16-1.19,2.26-2.37,4.38-4.85,6.33-7.43.31-.4.61-.79.9-1.2.92-1.26,1.81-2.54,2.64-3.85.28-.41.55-.84.81-1.26,1.32-2.11,2.54-4.29,3.66-6.51.15-.3.3-.6.44-.91h0c1.14-2.34,2.17-4.73,3.06-7.17.13-.31.25-.63.36-.95.25-.7.49-1.4.72-2.11.38-1.17.76-2.32,1.14-3.45.1-.32.21-.64.32-.96.84-2.53,1.68-4.94,2.5-7.21.11-.33.22-.65.34-.97.04-.12.08-.23.12-.34,2.01-5.6,3.93-10.42,5.76-14.56,3.83,2.37,8.53,5.99,13.59,11.52.31.33.62.68.93,1.03.9,1.01,1.8,2.07,2.72,3.2.03.05.07.09.11.14.56.69,1.12,1.41,1.68,2.15.27.36.55.73.81,1.1.17.23.35.47.52.71.24.33.48.66.72.99.53.76,1.07,1.54,1.61,2.35.24.37.49.75.74,1.14.14.21.28.42.42.64.16.24.31.48.46.72.22.35.44.7.66,1.04.77,1.21,1.53,2.41,2.28,3.6.04.08.09.15.14.23-.21.48-.43.95-.64,1.42ZM453.64,408.33c7.76,12.44,10.57,26.17,8.57,41.65-6.38,49.36-21.69,55.78-31.81,60.04-18.86,7.9-38.94,7.36-47.47,2.26-1.58-.95-3.52-2.53-3.73-4.7-.2-2.05-.27-3.84-.18-5.41.02-.35.05-.68.09-1.01.03-.35.07-.69.13-1.01.48-2.84,1.67-4.91,3.81-6.71.25-.21.52-.42.8-.62,1.17-.86,2.59-1.67,4.27-2.48,1.28-.61,2.82-1.11,4.54-1.53.37-.09.75-.18,1.15-.27,1.85-.41,3.88-.75,5.99-1.08.39-.06.78-.12,1.17-.18.41-.06.82-.13,1.23-.19.6-.09,1.2-.18,1.79-.27.41-.07.81-.13,1.21-.2h.01c1.98-.31,3.96-.64,5.87-1.05.41-.08.82-.17,1.23-.27.85-.19,1.69-.4,2.5-.63.46-.12.91-.25,1.35-.39h.01c1.82-.57,3.52-1.25,5.06-2.09.43-.23.85-.47,1.25-.73.86-.55,1.66-1.15,2.38-1.83.15-.13.29-.27.43-.41.12-.13.25-.26.37-.39.55-.6,1.23-1.76,1.9-3.39.07-.17.14-.35.21-.54.18-.45.35-.93.51-1.45h0c.13-.38.25-.76.36-1.16.53-1.85,1-4.02,1.3-6.46.05-.39.09-.78.13-1.19.1-1.01.17-2.07.21-3.17.01-.34.02-.69.02-1.04.04-2.38-.1-4.93-.47-7.61-.04-.34-.09-.68-.15-1.03-.18-1.17-.41-2.36-.69-3.56-.07-.33-.15-.65-.23-.98-.57-2.32-1.33-4.71-2.31-7.15-.12-.32-.25-.63-.39-.95-.22-.53-.45-1.06-.69-1.59-.14-.32-.29-.64-.45-.96-.13-.26-.25-.52-.39-.79-.02-.05-.05-.11-.08-.16-.24-.48-.49-.96-.74-1.44-.28-.53-.58-1.06-.88-1.59.39-.26.77-.52,1.15-.78.45-.31.91-.63,1.35-.96.68-.49,1.34-1,1.99-1.52.07-.05.13-.1.19-.15.2-.16.4-.32.59-.49.22-.18.43-.35.64-.54.26-.21.52-.43.77-.65.06-.05.11-.1.17-.15.63-.55,1.25-1.12,1.85-1.69.01,0,.02-.02.03-.03.24-.22.47-.44.69-.66.06-.06.12-.12.18-.18.1-.1.2-.19.29-.29,1.28-1.28,2.5-2.6,3.64-3.94.27-.31.53-.62.78-.93,1-1.2,1.94-2.42,2.83-3.64.82-1.12,1.6-2.25,2.33-3.38.19-.29.38-.58.56-.87.55-.86,1.07-1.72,1.57-2.57.34-.58.67-1.16.98-1.73.29-.52.57-1.04.85-1.56.2-.38.4-.76.59-1.14.62-1.21,1.19-2.39,1.71-3.54,1.88,2.32,3.57,4.68,5.08,7.1ZM563.29,315.2c-6.56,9.91-14.39,14.83-22.02,13.84-5.85-.75-10.79-5.04-12.89-11.19-1.9-5.57-1.84-10.28.17-13.61,1.41-2.34,3.78-3.89,6.67-4.36h.01c.8-.07,1.59-.11,2.41-.15h.02c3.34.14,5.97,1.75,7.03,4.31.75,1.81.52,3.7-.61,4.94-.75.81-.7,2.08.12,2.82.38.36.87.53,1.35.53.54,0,1.08-.22,1.47-.65,2.2-2.4,2.72-5.91,1.36-9.17-1.65-3.99-5.7-6.58-10.57-6.78h-.07c-.1-.01-.19-.01-.29-.01-.93-.02-1.83.04-2.7.18-1.53.11-3.03.26-4.49.45h-.01c-.12.01-.25.02-.37.04-.09.01-.19.02-.29.04-.03,0-.05,0-.08,0-.04.01-.07.01-.11.02h-.01c-.79.1-1.56.21-2.33.34h-.01c-.29.05-.58.1-.87.15-.06.01-.13.02-.19.04-.44.07-.88.15-1.31.24-.55.09-1.09.2-1.62.32-.43.1-.85.19-1.27.3-1.18.27-2.33.57-3.46.9-.38.1-.76.21-1.14.33-.31.1-.62.19-.92.29-.06.02-.11.03-.17.05-.04.01-.07.02-.11.04-.12.04-.24.07-.35.11-.11.03-.23.07-.35.11-.03,0-.05.02-.08.03-.06.02-.11.04-.17.06h-.01c-.57.19-1.13.39-1.69.59-.16.06-.33.12-.49.17-.66.25-1.31.51-1.96.77h-.01c-.36.14-.72.29-1.08.45-.06.03-.12.05-.18.08-.4.16-.8.33-1.19.51-.51.22-1.01.45-1.51.69-.53.24-1.05.49-1.56.75-.48.24-.95.48-1.43.73h-.01c-.36.18-.7.37-1.05.56-1,.53-1.98,1.08-2.94,1.65-.33.19-.66.38-.98.59-.32.19-.64.39-.96.58-.57.35-1.13.71-1.69,1.07-.33.21-.65.42-.97.63-.7.46-1.39.93-2.08,1.41-.31.21-.62.43-.93.65-1.26.88-2.5,1.79-3.74,2.72-.29.21-.57.43-.86.64-1.9,1.45-3.79,2.94-5.69,4.48-.27.22-.55.44-.83.67-.04.03-.07.06-.11.09-.97.79-1.95,1.6-2.94,2.41-.27.22-.54.45-.81.67-.26.21-.52.43-.77.64h0c-.58.48-1.16.96-1.74,1.44-1.42,1.17-2.84,2.35-4.3,3.55-.25.2-.51.41-.77.63-.01,0-.02.01-.03.02-.7.57-1.39,1.12-2.08,1.66-.68.53-1.35,1.04-2.03,1.55-.01.01-.03.02-.04.03-.09.06-.17.13-.26.19-.43.32-.85.63-1.28.93-.33.24-.66.49-1,.72-.28.2-.56.4-.85.59-.38.26-.76.51-1.14.76,0,.01-.01.01-.01.01h-.03c-.72.47-1.43.93-2.14,1.37-.17.11-.33.21-.49.31h-.01c-1,.61-1.99,1.19-2.98,1.73-.1.06-.19.11-.28.15-.04.03-.09.06-.14.08-.04.03-.09.05-.14.08-.09.05-.18.1-.26.14-.09.05-.18.09-.26.14-.05.03-.11.06-.16.08-.36.19-.71.38-1.07.56-.33.17-.66.34-.99.49-.32.17-.64.32-.96.47-.36.17-.73.33-1.09.5-.08.04-.17.07-.25.11-.88.39-1.75.75-2.63,1.1-.29-.49-.59-.98-.9-1.48-.18-.3-.38-.6-.58-.9-.07-.11-.14-.21-.22-.32,0-.01-.01-.01-.01-.02-.17-.26-.34-.52-.53-.77-.04-.05-.07-.1-.11-.15-.04-.06-.08-.12-.13-.18l-.15-.21c-.18-.26-.37-.52-.56-.77,0-.01,0-.01,0-.02-.08-.11-.17-.22-.25-.33-.19-.27-.4-.53-.61-.8-.34-.43-.69-.86-1.05-1.28-.36-.43-.73-.85-1.11-1.26-.23-.25-.46-.5-.7-.75-.17-.18-.35-.37-.54-.55-.18-.18-.37-.36-.55-.54-.01-.02-.03-.03-.05-.05-.37-.35-.75-.7-1.13-1.05-.13-.12-.27-.24-.41-.36-1.02-.9-2.11-1.75-3.25-2.56-.28-.19-.56-.38-.85-.57-6.52-4.32-14.96-6.94-25.8-5.8-4.81.51-9.12,1.55-12.88,3.12-.42.17-.83.35-1.24.55-.17.07-.35.15-.52.24-1.24.59-2.42,1.25-3.52,1.98-.11.07-.22.14-.33.21-.16.11-.31.21-.46.32-.04.03-.07.05-.11.08-.09.06-.17.12-.25.18-1-.96-1.91-1.92-2.74-2.89-.17-.2-.34-.4-.51-.61-.66-.79-1.26-1.59-1.81-2.38-.16-.22-.31-.43-.45-.65-.48-.72-.92-1.43-1.32-2.13-.1-.17-.2-.34-.28-.5-.77-1.37-1.39-2.7-1.89-3.98-.07-.18-.14-.35-.21-.53-.14-.36-.27-.73-.38-1.08-.09-.26-.18-.51-.26-.76-.26-.85-.47-1.66-.65-2.42-.06-.27-.12-.54-.17-.79-.15-.79-.27-1.52-.35-2.18-.31-2.44-.19-4-.17-4.2.1-1.1-.7-2.07-1.8-2.18-.8-.08-1.53.32-1.91.97-.15.25-.24.53-.27.83-.03.29-.3,3.47.7,8.09.1.43.2.87.32,1.32.06.24.13.49.2.74.12.44.26.89.41,1.35,1.59,4.94,4.64,10.87,10.46,16.56-1.81,1.75-3.23,3.62-4.34,5.52-2.41,4.12-3.37,8.36-3.69,11.8-.45,4.78.19,9.35,1.38,13.11,1.06,3.29,2.55,5.97,4.13,7.6,7.58,7.85,20.41,13.3,32.31,3.76-4.11,10.92-13.34,22.18-34.05,17.91-.91-.18-1.74-.39-2.58-.64-10.23-2.84-17.49-9.69-21.6-20.35-3.11-8.05-4.45-18.34-4-30.59.35-9.52-1.98-18.27-6.54-24.62t-.01-.02c-4.13-5.75-9.96-9.27-17.04-10.4h-.02c-1.81-.3-3.7-.43-5.66-.4-1.11.02-1.99.93-1.97,2.03.02,1.1.91,1.97,2,1.97h.03c2.14-.04,4.15.14,6.04.52,5.57,1.1,10.05,3.99,13.38,8.62h0c3.99,5.57,6.1,13.64,5.79,22.16-.47,12.79.96,23.61,4.26,32.17,4.59,11.91,12.75,19.57,24.23,22.76.93.27,1.87.5,2.89.71,3.38.7,6.5,1.01,9.36,1.01,18.99,0,26.79-13.99,29.86-23.18.54-1.63.96-3.16,1.27-4.5.61-2.62.84-4.55.91-5.23l.04-.13v-.34c.42-4.75-2.32-9.83-7.35-13.59-1.45-1.09-5.08-3.53-7.36-2.62-1.03.42-1.53,1.58-1.12,2.6.38.94,1.37,1.44,2.33,1.2.94.13,4.08,1.75,6.6,4.65,1.5,1.72,3.22,4.41,2.92,7.48l-.03-.02v.16c-.13,1.11-.52,2.23-1.17,3.32-.44.75-1.01,1.49-1.7,2.22-.31.34-.65.68-1.02,1.01-13.1,11.86-25.72.07-28.12-2.41-.71-.73-1.39-1.77-2.01-3.04-1.74-3.59-2.91-9.03-2.4-14.51.24-2.57.89-5.65,2.41-8.73,1.27-2.6,3.16-5.18,5.93-7.44.42-.35.87-.69,1.34-1.02.25-.18.51-.35.77-.53,2.15-1.4,4.61-2.54,7.36-3.42,2.73-.87,5.75-1.49,9.05-1.84,10.26-1.09,18.15,1.6,24.15,5.89.13.09.25.18.38.27.33.24.65.49.97.73.82.65,1.6,1.32,2.34,2.02h.01c.41.38.82.78,1.2,1.18,1.03,1.04,1.98,2.12,2.86,3.23.46.58.9,1.16,1.32,1.74.91,1.28,1.74,2.57,2.49,3.85.25.42.49.84.72,1.26.12.22.24.44.35.66.17.3.32.6.48.91,1.14,2.24,2.13,4.56,2.96,6.86.13.32.24.64.35.96.28.8.54,1.6.78,2.39.11.35.22.7.31,1.05.71,2.44,1.24,4.8,1.61,6.96.06.37.12.74.17,1.09.26,1.76.41,3.37.44,4.75.01.14.01.27.01.4.01.71-.03,1.53-.1,2.42v.03c0,.27-.03.54-.08.79-.09.84-.21,1.74-.37,2.7-.29,1.79-.7,3.78-1.24,5.9h0c-.11.47-.23.92-.36,1.38-.43,1.57-.92,3.19-1.48,4.86-.15.44-.3.89-.47,1.33h0c-.52,1.48-1.09,2.97-1.72,4.48-.14.35-.29.69-.45,1.05-.18.44-.38.89-.58,1.34-.63,1.4-1.32,2.85-2.1,4.34-.21.43-.44.86-.68,1.29-.79,1.47-1.65,2.97-2.6,4.47-.25.41-.51.81-.77,1.22v.02c-.25.38-.5.74-.76,1.12-.66.98-1.36,1.97-2.1,2.94-.28.38-.57.76-.87,1.14-1.77,2.27-3.74,4.5-5.92,6.62-.56.55-1.14,1.09-1.73,1.62h-.01c-1.03.94-2.1,1.84-3.22,2.7-.09.08-.19.16-.29.23-.57.44-1.15.86-1.74,1.28-.88.63-1.79,1.24-2.73,1.83-.18.12-.36.23-.54.34-1.37.84-2.77,1.61-4.21,2.32-1.05.52-2.12,1.01-3.21,1.46-.32.14-.65.27-.97.4-2.24.87-4.54,1.61-6.91,2.19-.33.08-.67.16-1.01.24-1.74.4-3.51.72-5.31.95-.34.05-.68.09-1.03.13-2.11.25-4.27.39-6.47.42-.28,0-.56,0-.83,0-.35,0-.7,0-1.04,0-2.28.01-4.48-.04-6.6-.15-.34-.02-.67-.04-1-.06-2.72-.15-5.29-.4-7.74-.73-.34-.04-.67-.09-1-.14-1.68-.24-3.29-.53-4.85-.85-.35-.07-.7-.15-1.04-.23-2.39-.53-4.65-1.16-6.78-1.87-.35-.12-.69-.23-1.02-.36-2.33-.82-4.5-1.76-6.56-2.8h-.01c-.3-.15-.6-.3-.89-.46-2.32-1.22-4.48-2.57-6.51-4.05-.27-.19-.54-.39-.8-.6-1.51-1.13-2.94-2.33-4.31-3.6-.25-.23-.5-.46-.75-.69-1.78-1.71-3.48-3.52-5.1-5.42-.23-.26-.45-.53-.67-.79-1.26-1.52-2.48-3.09-3.68-4.72-.21-.28-.41-.56-.62-.84-1.4-1.93-2.77-3.93-4.14-6-.19-.29-.39-.59-.59-.89-.85-1.31-1.71-2.63-2.57-3.99-.18-.29-.37-.59-.56-.89-.96-1.52-1.93-3.07-2.92-4.64l-.56-.9c-.13-.21-.27-.42-.4-.64-.19-.29-.37-.59-.56-.89-.58-.92-1.17-1.85-1.77-2.79-.18-.3-.38-.6-.57-.9-.26-.41-.52-.82-.78-1.23-.02-.03-.03-.05-.05-.08-.17-.27-.34-.53-.51-.79-.9-1.38-1.82-2.73-2.76-4.02-.2-.29-.4-.58-.61-.87-.34-.46-.67-.91-1.01-1.36-.21-.28-.42-.55-.63-.82-.03-.04-.07-.09-.1-.13-.21-.27-.41-.53-.62-.79-.63-.8-1.26-1.58-1.9-2.34-.84-1-1.69-1.98-2.55-2.91-.22-.24-.44-.48-.66-.71-.23-.24-.45-.48-.68-.72-.72-.76-1.45-1.49-2.19-2.2-.25-.25-.5-.48-.75-.72-1.82-1.7-3.67-3.27-5.55-4.68-.28-.22-.55-.42-.83-.62-1.38-1.01-2.77-1.93-4.18-2.79,3.4-7.08,6.57-11.88,9.79-15.23,2.45-2.54,4.93-4.25,7.56-5.48,1.57-.73,3.2-1.3,4.91-1.78,1.06-.3,1.68-1.4,1.39-2.47-.3-1.06-1.4-1.68-2.47-1.39-3.63,1.02-6.98,2.42-10.2,4.79-.71.52-1.41,1.08-2.11,1.7-.16.14-.31.28-.46.42-.78.72-1.56,1.5-2.33,2.36-.14.15-.27.31-.42.47-.13.15-.27.31-.41.48-.46.56-.93,1.15-1.41,1.77-.2.27-.4.55-.61.83-1.28,1.78-2.57,3.8-3.87,6.11-.17.3-.34.61-.51.92-.78,1.4-1.55,2.91-2.33,4.52h-.02s-.21.45-.21.45l-.23.51-.46.99s-.02.05-.03.07c-.45.96-.89,1.95-1.35,2.99-.22.52-.45,1.05-.67,1.59-1.2,2.81-2.42,5.9-3.68,9.29-.11.53-.29,1.03-.55,1.48-.33.91-.67,1.84-1.01,2.79-.15.44-.31.89-.47,1.34-.52,1.48-1.05,3.02-1.58,4.61-.16.44-.31.89-.46,1.34-.48,1.44-.97,2.92-1.47,4.44-.34,1.04-.7,2.07-1.08,3.08-.18.48-.36.96-.56,1.43h0c-.48,1.25-1,2.46-1.56,3.67-.21.47-.43.93-.66,1.39-1.02,2.11-2.13,4.18-3.35,6.19-.17.29-.35.58-.53.86-1.34,2.17-2.78,4.27-4.34,6.3-.2.27-.41.54-.62.8-1.36,1.75-2.81,3.45-4.34,5.09-.22.25-.45.5-.68.75-1.77,1.86-3.63,3.65-5.58,5.36-.25.23-.51.46-.77.66-1.58,1.38-3.23,2.69-4.93,3.95-.26.2-.53.4-.8.59-2.09,1.52-4.27,2.96-6.52,4.31-.28.17-.57.34-.86.51-1,.59-2.02,1.16-3.06,1.72-1.14.61-2.28,1.2-3.44,1.75-.31.16-.63.31-.94.46-2.32,1.09-4.67,2.08-7.02,2.95-.33.13-.65.25-.98.36-1.92.7-3.84,1.32-5.75,1.86-.35.11-.7.21-1.05.3-2.26.62-4.5,1.13-6.71,1.53-.36.07-.72.13-1.08.2-2.33.38-4.62.65-6.83.78-.37.02-.74.04-1.1.06-.74.02-1.48.04-2.2.04-1.14,0-2.25-.03-3.34-.11-.35-.02-.69-.05-1.05-.08h-.01c-.36-.03-.73-.05-1.1-.08-2.42-.2-4.91-.46-7.44-.79-.36-.05-.71-.1-1.07-.15h-.01c-2.26-.32-4.56-.7-6.86-1.17-.36-.07-.71-.14-1.07-.22-2.28-.48-4.57-1.05-6.85-1.73h0c-.18-.04-.36-.1-.53-.15-1.41-.42-2.81-.89-4.21-1.39-.18-.06-.35-.13-.53-.2-3.02-1.11-5.98-2.43-8.86-4-.16-.09-.33-.18-.49-.27-1.28-.71-2.54-1.47-3.78-2.29-.16-.1-.32-.21-.48-.31-2.98-2.01-5.82-4.32-8.45-7-.14-.13-.27-.26-.39-.4-1.02-1.04-1.99-2.14-2.93-3.29-.12-.15-.24-.29-.35-.44-1.92-2.38-3.68-5-5.26-7.89-.1-.16-.19-.33-.28-.49-.67-1.25-1.31-2.54-1.91-3.89-.09-.17-.16-.34-.24-.52-1.57-3.57-2.91-7.49-3.96-11.8-.08-.3-.16-.61-.22-.93-.15-.61-.29-1.24-.42-1.87-.07-.31-.13-.62-.19-.93-.26-1.29-.49-2.62-.7-3.98-.08-.5-.15-1-.21-1.5-.18-1.32-.32-2.63-.4-3.92-.06-.73-.1-1.47-.13-2.19-.04-.75-.05-1.49-.05-2.23v-.56c.01-1.49.07-2.97.2-4.42.01-.08.01-.15.02-.23,0-.11.02-.23.04-.34.12-1.35.31-2.67.55-3.97.36-2.01.84-3.95,1.45-5.82.7-2.21,1.57-4.31,2.59-6.31.19-.4.4-.79.62-1.17.93-1.71,1.99-3.33,3.17-4.86.19-.27.39-.53.6-.79.07-.09.14-.18.22-.26,1.05-1.3,2.19-2.52,3.41-3.67.25-.23.5-.46.75-.68,1.09-.97,2.23-1.88,3.43-2.73.94-.67,1.92-1.3,2.94-1.88.28-.17.58-.34.87-.49,2.11-1.15,4.35-2.12,6.72-2.9h.01c.65-.22,1.3-.41,1.96-.59,8.74-2.4,17.86-1.68,24.74,1.99,5.28,2.83,8.52,6.54,10.49,10.29.04.13.11.26.18.38.01.01.02.01.02.02.5,1,.91,2,1.24,2.99,1.18,3.43,1.45,6.67,1.43,9.08-.04,3.7-.78,7.35-2.03,10.59-1.87,4.84-4.9,8.77-8.49,10.6-14.92,7.61-25.75-1.72-27.52-3.4-.11-.26-.22-.53-.32-.82-.16-.47-.3-.93-.42-1.39-1.51-5.43-.9-10.28,1.67-12.87,2.83-2.86,8.06-3.14,15.14-.82,1.04.34,2.17-.22,2.52-1.28.35-1.04-.23-2.18-1.28-2.52-10.87-3.57-16.45-.99-19.22,1.8-3.87,3.9-4.72,10.61-2.31,18.02.03.11.07.23.11.34.18.52.37,1,.58,1.47h0s.01.02.01.02c0,0,.01.02.01.03h0c3.66,8.51,13.24,15.63,24.41,18.17,3.06.69,6.12,1.03,9.17,1.03,10.53,0,20.86-4.09,29.8-11.94,18.78-16.51,22.19-36.39,25.19-53.92,1.66-9.7,3.23-18.86,7.37-25.7.99-1.63,2.09-3.14,3.27-4.49,5.7-6.48,12.44-8.01,17.55-8.01,1.12,0,2.16.07,3.1.18,2.77.33,4.61,1,4.82,1.07,1.03.39,2.18-.13,2.57-1.16.39-1.04-.13-2.19-1.16-2.58-.1-.04-5.24-1.91-11.92-1.31h-.04c-5.59.5-12.24,2.72-17.92,9.17-.01.01-.02.02-.03.03,0,0-.02.02-.03.03-1.32,1.51-2.54,3.2-3.63,5-4.53,7.49-6.16,17.01-7.89,27.09-2.89,16.89-6.17,36.02-23.89,51.6-14.21,12.48-28.3,11.63-35.44,10.01-6.07-1.38-11.58-4.21-15.69-7.88,5.77,2.28,13.87,3.37,23.23-1.41,5.3-2.7,9.49-8.71,11.47-15.9.76-2.8,1.2-5.78,1.23-8.81.03-3.03-.35-5.93-1.12-8.65-.36-1.33-.82-2.62-1.37-3.87,9.1-6.72,11.64-17.31,12.33-23.34.3-2.6.26-4.36.25-4.59-.02-.7-.4-1.3-.95-1.64-.3-.18-.66-.29-1.04-.29h-.07c-1.1.03-1.97.96-1.93,2.06,0,.16.34,15.73-10.49,24.21-2.63-4.19-6.37-7.69-11.09-10.21-6.24-3.34-14.05-4.53-21.91-3.49-2.27.29-4.55.78-6.79,1.45-.16-.14-.33-.29-.49-.43-.25-.23-.5-.45-.76-.68-.34-.3-.69-.6-1.05-.91-.26-.23-.53-.45-.8-.68-.37-.31-.75-.62-1.13-.93-.28-.23-.56-.46-.85-.68-.4-.32-.81-.64-1.22-.95-.29-.22-.57-.44-.87-.66-.43-.33-.88-.65-1.33-.97-.3-.21-.58-.42-.88-.63-.49-.34-.98-.67-1.48-1.01-.29-.19-.56-.38-.85-.56-.57-.38-1.17-.75-1.77-1.12-.22-.13-.44-.28-.67-.41-.5-.3-1.01-.61-1.53-.9-1.2-.69-2.43-1.35-3.69-1.99-.28-.14-.56-.27-.83-.4-.3-.14-.59-.29-.89-.43-.3-.15-.6-.29-.91-.43-.04-.02-.09-.04-.13-.06-.36-.16-.73-.32-1.1-.47-.58-.26-1.17-.51-1.77-.76-.41-.16-.82-.31-1.23-.47-.32-.12-.63-.24-.95-.35-.26-.1-.53-.19-.79-.29-.41-.14-.82-.28-1.24-.41-.03-.01-.07-.02-.1-.03-.26-.09-.51-.17-.77-.25-.03,0-.05-.02-.08-.03-.29-.1-.59-.19-.89-.27-.46-.14-.93-.27-1.4-.4-.59-.16-1.18-.31-1.77-.46-.14-.03-.27-.06-.41-.09-.35-.09-.71-.16-1.06-.24-.08-.02-.15-.03-.23-.05-.52-.11-1.05-.22-1.58-.32-.5-.1-1.01-.18-1.52-.27-.31-.05-.61-.11-.92-.16v-1.59c0-.11,0-.21-.01-.32-.02-1.14-.15-2.29-.36-3.45-.06-.37-.14-.73-.22-1.1-.51-2.28-1.34-4.58-2.42-6.89-.15-.33-.31-.66-.48-.99-.28-.58-.58-1.15-.89-1.72-.16-.29-.32-.58-.49-.87-1.27-2.22-2.73-4.42-4.32-6.57-.2-.27-.4-.54-.6-.8-.68-.9-1.38-1.79-2.1-2.67-.22-.26-.43-.52-.65-.78-1.67-1.99-3.41-3.92-5.18-5.75-.24-.25-.47-.49-.71-.73-.64-.65-1.28-1.29-1.91-1.91-.25-.24-.49-.47-.73-.71-1.97-1.89-3.91-3.63-5.74-5.2-.26-.22-.52-.44-.78-.65-1.44-1.22-2.8-2.31-4.05-3.25-.27-.21-.53-.41-.79-.61-2.77-2.06-4.86-3.35-5.75-3.62-.35-.11-.71-.16-1.1-.16-.35,0-.72.05-1.11.14-.75.16-1.6.48-2.58.95-.43.21-.88.44-1.37.71-1,.53-2.13,1.18-3.42,1.93-.29.17-.59.35-.9.53-.15.09-.3.17-.45.27-1.54.9-3.21,1.87-4.92,2.78-.32.18-.65.35-.97.51-2.03,1.06-4.09,2.01-6.06,2.64-.35.12-.7.22-1.04.32-1.18.32-2.31.51-3.36.54-1.45.03-2.76-.25-3.85-.98-1.8-1.2-2.43-4.06-1.74-7.84,1.18-6.36,6.11-15.13,14.44-21.81,0,0,.01,0,.02,0,4.81-3.87,10.75-7.02,17.75-8.61,23.27-5.26,32.79,4.97,53.64,27.39,2.29,2.46,4.7,5.06,7.28,7.78,3.62,3.83,7.09,7.28,10.44,10.36,21.77,20.02,38.36,24.33,56.72,15.61,5.41-2.57,8.92-6.36,10.43-11.27,2.85-9.29-2.48-19.92-4.94-24.11l-.07-.12c-.06-.11-.12-.21-.15-.26-.28-.47-.5-.82-.66-1.07-.01,0-.01-.02-.02-.02l-.06-.1c-.06-.08-.1-.16-.14-.21-11.98-19.49-18.31-41.97-18.31-64.99,0-70.14,58.36-126.91,129.07-124.29,66.35,2.45,119.45,57.43,119.7,123.82.1,26.18-7.86,51.27-22.99,72.53-.06.07-.12.14-.16.22l-.28.39v.14c-3.44,6.93-5.69,20.17,6.94,27.9,8.47,5.18,32.22-3.65,59.73-13.87,24.13-8.97,49.09-18.24,59.68-15.87,13.93,3.12,26.41,12.97,31.06,24.52,3.28,8.12,2.35,16.43-2.67,24.02Z"/>
  <circle class="cls-4" cx="260.1" cy="201.73" r="16"/>
  <circle class="cls-4" cx="348.48" cy="201.73" r="16"/>
  <path class="cls-4" d="M301.25,253.6c-12.25,0-22.21-9.97-22.21-22.21,0-.83.67-1.5,1.5-1.5s1.5.67,1.5,1.5c0,10.59,8.62,19.21,19.21,19.21s19.21-8.62,19.21-19.21c0-.83.67-1.5,1.5-1.5s1.5.67,1.5,1.5c0,12.25-9.96,22.21-22.21,22.21Z"/>
  <circle class="cls-6" cx="265.43" cy="204.19" r="4.15"/>
  <circle class="cls-6" cx="344.32" cy="204.19" r="4.15"/>
</svg>