<?xml version="1.0" encoding="UTF-8"?>
<svg id="Marty" xmlns="http://www.w3.org/2000/svg" viewBox="0 0 595.28 595.28" width="80px" height="101px">
  <defs>
    <style>
      .cls-1 {
        fill: #438ccb;
      }

      .cls-1, .cls-2, .cls-3, .cls-4, .cls-5, .cls-6, .cls-7, .cls-8, .cls-9, .cls-10, .cls-11, .cls-12, .cls-13, .cls-14, .cls-15, .cls-16, .cls-17, .cls-18, .cls-19 {
        stroke-width: 0px;
      }

      .cls-2 {
        fill: #282828;
      }

      .cls-3 {
        fill: #cbcaca;
      }

      .cls-4 {
        fill: #438bca;
      }

      .cls-5 {
        fill: #1b2f51;
      }

      .cls-6 {
        fill: #fcc90c;
      }

      .cls-7 {
        fill: #f1e408;
      }

      .cls-8 {
        fill: #010101;
      }

      .cls-9 {
        fill: #eeeded;
      }

      .cls-10 {
        fill: #f2971f;
      }

      .cls-11 {
        fill: #f4e11a;
      }

      .cls-12 {
        fill: #fbd224;
      }

      .cls-13 {
        fill: #2560aa;
      }

      .cls-14 {
        fill: #0b549f;
      }

      .cls-15 {
        fill: #0b55a0;
      }

      .cls-16 {
        fill: #fff;
      }

      .cls-17 {
        fill: #5dabdf;
      }

      .cls-18 {
        fill: #245fa9;
      }

      .cls-19 {
        fill: #ee8122;
      }
    </style>
  </defs>
  <g>
    <path class="cls-8" d="M505.19,55.23c-.47-2.24-.51-4.57-1.18-6.81-1.99-6.43-4.99-12.27-9.65-17.13-4.74-4.91-10.15-8.76-17.39-8.84-.89.04-1.82-.13-2.71.13-7.36.97-13.5,4.36-18.36,9.86-2.75,3.13-4.19,6.85-3.17,11.13.8,3.43,3.09,5.84,5.8,7.83,3.93,2.92,7.49,6.18,10.28,10.24,1.99,2.92,3.68,5.97,4.48,9.48.68,3.13-.47,5.5-2.88,7.4-2.16,1.69-4.15.38-6.13-.34-.85-.3-1.61-.85-2.37-1.35-3.64-2.33-6.81-5.25-10.15-7.95-2.12-1.69-4.36-3.09-6.9-4.02-1.4-.55-2.75-.8-4.27-.13-4.23,1.82-8.25,3.98-11.85,6.85-3.38,2.71-6.43,5.67-6.52,10.53-.13,7.4,3.47,12.65,9.43,16.37,9.9,6.13,20.69,7.28,31.94,5.12,1.65-.3,1.86.04,1.9,1.52.13,7.07-1.4,13.83-3.72,20.43-4.78,13.45-13.37,23.99-24.83,32.28-1.48,1.06-3,2.24-4.78,2.96-.34-2.16-.85-4.15-.85-6.18-.04-5.63-3.34-8.8-7.83-11.3-10.45-5.84-20.86-11.68-31.26-17.56-2.71-1.52-5.58-2.58-8.71-2.92-1.57-.17-2.71-.8-3.81-1.95-6.9-7.32-14.64-13.62-23.14-19-1.69-1.06-3.64-3.05-5.2-2.79-1.61.25-2.2,3.17-3.34,4.82-.08.13-.13.25-.21.38q-2.37,3.93,1.52,6.26c5.8,3.47,11.17,7.53,16.33,12.18-26.44,6.18-52.67,12.27-79.24,18.49,2.03-2.12,3.64-3.93,5.42-5.63.93-.89,1.18-1.44.08-2.45-1.95-1.78-3.77-3.64-5.5-5.58-.97-1.1-1.52-.89-2.45.04-5.92,6.05-12.1,11.8-18.36,17.51-.93.8-1.9,1.4-3.09,1.69-27.33,6.35-54.66,12.73-81.99,19.12-5.46,1.27-11.04,2.33-15.99,5.16-1.99,1.14-3.93,2.5-4.44,4.87-.55,2.54-.59,5.08.08,7.7,4.02,15.1,7.91,30.21,11.85,45.31.25,1.06.42,1.86-.93,2.5-12.99,5.97-25.43,12.99-37.65,20.35-12.56,7.57-24.33,16.29-35.2,26.19-3.98,3.64-7.36,7.78-7.78,13.58-.21.85-.21,1.69,0,2.54.51,3.85,1.44,7.62,3.85,10.79,7.19,9.48,17.01,14.81,28.47,17.01,10.32,1.99,20.81,2.41,31.31,3.09,2.62.17,5.25.42,8.17.63-3.34,3.89-5.54,8-7.02,12.52-2.03,6.26-2.88,12.69-.04,18.78,5.29,11.25,14.47,18.06,26.4,21.15,4.36,1.1,7.11-1.86,6.18-6.35-.97-4.44-.93-8.93-.72-13.45.08-1.9.17-3.77.85-5.88,1.52,3.38,3.47,6.09,5.92,8.46,4.15,4.02,9.14,6.43,14.76,4.87,6.3-1.73,11.34-5.75,14.76-11.55,2.03-3.43,2.71-7.28,3.17-11.21,2.96,1.61,4.78,3.64,3.98,7.11-.17.59-.08,1.27-.08,1.9.04,11.38,1.31,22.51,6.09,32.96.76,1.73,1.02,3.51,1.14,5.33.34,5.92.72,11.8,1.14,17.73.08,1.06-.13,1.61-1.1,2.16-2.37,1.27-4.44,2.96-6.43,4.78-6.18,5.75-10.66,12.73-14.68,20.01-5.29,9.6-9.26,19.71-9.94,30.84-.08,1.18-.55,1.52-1.61,1.73-17.13,3.34-34.18,6.94-51.36,10.07-4.87.89-6.73,6.6-4.82,9.9,1.1,1.9,2.45,3.6,3.89,5.25,19.88,22.38,39.77,44.8,59.69,67.18,3.85,4.32,7.57,8.84,11.72,12.95.3,0,.55,0,1.06.34.68-.8,1.65-.47,2.5-.63,13.79-2.79,27.63-5.5,41.42-8.25,15.99-3.22,32.03-6.43,48.02-9.6,1.23-.25,1.99-.8,2.67-1.82,2.41-3.55,1.44-8.59-1.61-12.1-12.52-14.34-25.21-28.51-37.86-42.73-1.14-1.23-3.09-2.5-3.13-3.81-.04-1.48,2.28-2.41,3.34-3.81,1.1-1.48,1.73-1.23,2.92.08,17.3,19.55,34.65,39.01,51.91,58.55,1.44,1.65,2.83,1.99,4.95,1.57,29.44-5.92,58.89-11.8,88.38-17.64,3.85-.76,5.88-3.26,5.46-7.23-.3-2.83-1.31-5.42-3.26-7.62-13.2-14.85-26.4-29.74-39.64-44.55-1.1-1.23-1.14-1.82.08-2.96,15.15-14.51,27.24-31.09,34.52-50.94,3.77-10.24,6.73-20.6,5.29-31.9-1.1-8.8-1.02-17.73-1.57-26.61-.21-3.22,0-6.26,1.06-9.35.93-2.58,1.48-5.29,2.07-7.95,2.33-10.87,3-21.75,1.06-32.74-.59-3.34-.55-3.34,2.92-4.19.55-.17,1.1-.3,1.65-.42,7.07-1.82,11.17-7.74,10.28-15.02-.85-7.15-1.73-14.26-2.62-21.41-1.65-13.07-3.26-26.14-4.91-39.22-1.23-9.65-2.37-19.29-3.64-28.94-.17-1.14,0-1.73,1.1-2.33,8.08-4.32,15.7-9.39,22.89-15.06,9.1-7.19,17.73-14.98,24.24-24.62,14.85-22.08,18.87-46.32,13.41-72.22-.3-1.31-.3-2.41.3-3.64,1.65-3.43,2.83-7.02,3.93-10.66.8-2.54.59-5.29,1.86-7.66v-4.23c-.34-.97-.34-1.99,0-2.96v-3.38ZM188.83,296.58c-2.07-.59-20.1-1.48-23.61-1.69-8.04-.51-25.68-.76-25.98-.8-1.1-.21-1.35-1.27-.21-1.78,1.95-.89,39.22-24.71,43.41-24.37,1.31.08,7.28,22.17,8.12,25.59.08.3.13,3.6-1.73,3.05ZM347.3,354.12c.47,3.43,4.65,9.6,4.48,13.07-.17,3.3.97,16.2.97,19.84,0,.8-11.13,9.35-13.96,13.16-3,4.02-9.31,14.17-10.66,17.6-7.83,19.76-8,29.02-8,29.02-3.3.38-5.03,1.02-10.41.8-2.24-.08,9.26-18.83,6.98-37.53-.25-2.2-2.5-30.54-1.57-32.53,4.78-10.11,5.8-35.92,5.71-40.32,0-.8,22.51-7.15,22.51-6.35.17,4.99,3.3,18.74,3.93,23.23Z"/>
    <path class="cls-2" d="M505.11,61.4c-.72-.97-.63-1.99,0-2.96v2.96Z"/>
    <path class="cls-3" d="M477.18,22.06v.34h-3v-.34h3Z"/>
    <path class="cls-9" d="M90.42,291.55v2.54h-.34v-2.54h.34Z"/>
    <path class="cls-4" d="M334.32,234.81c20.56,25.51,58.47,23.18,77.93,1.69,16.71-18.49,20.01-54.45-7.83-75.77,4.06-1.02,7.91-1.99,11.76-3,3.81-1.02,7.57-2.24,10.7-5.33.59,4.19,1.14,8.08,1.65,11.97,2.07,16.2,4.19,32.41,6.22,48.61,1.9,15.15,3.77,30.33,5.67,45.48,1.31,10.62,2.45,21.28,4.06,31.86,1.02,6.56-2.58,11.08-8.33,12.48-62.27,15.1-124.51,30.38-186.78,45.61-6.22,1.52-7.49.59-8.71-5.67-5.84-30.71-11.72-61.39-17.6-92.06-1.99-10.49-3.98-21.03-5.88-31.56-.51-2.71-.63-5.46-.17-8.21.51-3.17,1.95-4.53,5.16-4.7,4.1-.21,8.08-1.14,12.35-2.07-7.57,19.04-6.56,37.1,5.75,53.81,8.46,11.51,19.93,18.19,34.01,20.52,28.3,4.57,55.72-15.31,60.03-43.66Z"/>
    <path class="cls-16" d="M331.4,225.84c.34,30.33-25.38,50.51-50.26,49.67-29.4-1.02-48.65-26.19-47.85-50.3.97-28.81,25.51-48.69,50.22-47.89,29.61,1.02,48.27,25.85,47.89,48.52Z"/>
    <path class="cls-17" d="M256.77,152.83c-4.87,4.02-9.77,8.04-14.64,12.06q-2.45,1.99-.42,4.48c1.35,1.65,2.75,3.22,3.98,4.95.76,1.06,1.27,1.06,2.28.25,10.28-8.38,20.48-16.84,30.12-25.93,1.4-1.31,2.88-2.12,4.74-2.54,26.31-6.09,52.59-12.4,78.94-18.36,9.22-2.07,6.6-2.67,12.82,4.1,3.64,3.93,6.81,8.25,9.69,12.78.8,1.27,1.4,1.31,2.58.47,2.07-1.57,4.27-3,6.47-4.4,1.06-.63,1.06-1.14.42-2.12-2.33-3.43-4.74-6.81-7.32-10.07-.21-.25-.34-.55-.63-1.06,1.65.21,2.88.89,4.06,1.57,10.62,5.97,21.24,11.89,31.86,17.9,3.22,1.82,3.22,2.71-.04,4.57-2.28,1.31-4.82,1.99-7.32,2.62-4.15,1.1-8.33,2.07-12.48,3.22-1.48.42-2.67.21-3.98-.51-23.18-12.14-51.91-4.74-66.5,17.09-.76,1.14-1.61,1.82-2.92,2.16-5.97,1.44-11.89,2.96-17.81,4.53-1.1.3-2.03.21-3.05-.34-13.41-6.85-27.33-8.46-41.71-3.72-11.08,3.68-20.01,10.49-26.74,20.05-1.31,1.82-2.67,2.96-4.87,3.51-8.63,2.16-17.3,3.05-26.19,1.86-2.67-.38-5.2-1.14-7.57-2.5-11.42-6.52-22.89-12.99-34.35-19.5-2.75-1.57-2.83-3.3-.17-5.03,3-1.95,6.39-2.92,9.81-3.72,26.57-6.26,53.14-12.48,79.75-18.7.34-.08.68-.04,1.02-.08.04.13.04.25.17.42Z"/>
    <path class="cls-16" d="M375.1,249.75c-16.92-.04-29.49-6.6-39.18-18.91-.63-.8-.97-1.65-.93-2.71.38-10.62-2.2-20.48-7.95-29.44-.59-.89-.38-1.78-.3-2.62,2.71-20.94,19.16-37.99,39.94-40.99,26.4-3.77,47.72,12.82,53.39,34.86,7.62,29.53-12.27,54.79-37.86,59.27-2.71.47-5.46.68-7.11.55Z"/>
    <path class="cls-7" d="M155.03,480.86c16.75-3.34,33.08-6.6,49.46-9.9.47-.08.97-.17,1.44-.25.34-.08.72-.17.85.34.08.34-.08.55-.38.63-1.18.42-1.18,1.4-1.27,2.41-.42,7.32-.89,14.64-1.35,21.96-.08,1.35.25,2.45,1.14,3.47,7.53,8.88,15.06,17.73,22.46,26.69,1.1,1.31,2.24,1.23,3.6.97,10.7-2.03,21.45-4.06,32.15-6.09,1.4-.25,2.75-.55,4.15-.76,1.82-.25,2.62-1.23,2.67-3.13.13-5.5.59-11,.59-16.5,0-2.45,1.95-3.09,3.26-4.27.76-.68,1.18.51,1.57.93,5.88,6.56,11.72,13.16,17.56,19.76,6.98,7.87,13.96,15.7,20.9,23.56.25.3.51.63.93,1.18-6.35,1.27-12.44,2.45-18.53,3.68-23.06,4.61-46.11,9.18-69.13,13.79-1.48.3-2.37.08-3.43-1.1-21.83-24.66-43.7-49.24-65.53-73.87-.93-1.06-1.9-2.16-3.09-3.51Z"/>
    <path class="cls-7" d="M428.02,519.83c-24.66,4.91-48.91,9.73-73.1,14.55-5.12,1.02-10.24,1.99-15.31,3.05-1.06.21-1.65.04-2.37-.76-15.86-17.94-31.77-35.83-47.72-53.77-.76-.89-1.18-1.44-.17-2.58,7.66-8.55,13.83-18.11,18.74-28.47.3-.63.59-1.18,1.44-1.35,3.13-.55,6.22-1.23,9.31-1.86.34-.08.72-.3.93.17.17.38-.04.68-.42.85-1.06.51-1.14,1.52-1.18,2.5-.42,6.98-.8,13.92-1.31,20.9-.13,1.95.34,3.47,1.65,4.99,7.28,8.5,14.51,17.09,21.66,25.68,1.1,1.31,2.2,1.69,3.85,1.4,12.01-2.28,24.07-4.57,36.09-6.81,1.95-.38,2.88-1.18,2.92-3.34.08-5.58.42-11.13.68-16.67.04-1.02,2.54-4.02,3.43-4.1.68-.08.89.59,1.23.97,10.32,11.59,20.6,23.18,30.88,34.78,2.88,3.22,5.71,6.43,8.8,9.9Z"/>
    <path class="cls-13" d="M164.63,183.67c3.93,2.24,7.78,4.4,11.63,6.56,7.49,4.23,14.93,8.5,22.42,12.73,4.61,2.62,9.73,3.13,14.89,3.47.76.04,1.52,0,2.45,0-3.47,9.48.08,18.4,1.69,27.41,4.23,23.31,8.84,46.58,13.28,69.85,2.58,13.45,5.12,26.95,7.66,40.44.21,1.02.85,1.95.68,3.09-2.5-.89-4.27-2.75-6.3-4.27-4.06-3.05-6.64-6.64-8.5-11.68-4.99-13.62-13.92-24.45-26.86-31.39-2.96-1.61-4.02-3.51-4.74-6.39-2.12-8.46-4.32-16.88-6.6-25.34-.38-1.44-.25-2.2,1.23-2.96,7.87-3.98,15.61-8.12,23.48-12.06,2.12-1.06,3.22-2.2,2.75-4.7-.38-1.99-.3-4.06-.38-6.09-.04-1.23-.63-2.12-1.65-2.79-7.19-4.82-14.38-9.65-21.58-14.47-1.1-.72-2.12-.89-3.34-.34-3.05,1.31-6.13,2.5-9.18,3.77-.85.34-1.44.68-1.78-.68-3.72-14.43-7.49-28.85-11.25-43.28-.08-.21-.04-.42,0-.89Z"/>
    <path class="cls-7" d="M207.95,241.58c-6.47,3.22-12.65,6.26-18.78,9.39-19.93,10.15-39.85,20.39-58.64,32.53-4.44,2.88-8.71,5.92-12.82,9.31-7.02,5.8-9.05,10.41-8.67,19.63-9.01-4.1-15.02-12.01-14.85-19.88.13-5.46,3.43-8.97,7.02-12.27,9.86-9.01,20.52-16.96,31.9-23.95,16.92-10.36,34.27-20.01,52.8-27.33,1.61-.63,2.75-.55,4.23.47,5.8,4.06,11.63,7.95,17.81,12.1Z"/>
    <path class="cls-7" d="M439.49,69.14c-.21,8.5,4.78,13.41,11.25,17.22,10.41,6.13,21.41,8.42,33.21,4.91,1.57-.47,1.82.25,2.03,1.4.72,3.51,1.1,7.11,1.18,10.7.42,12.95-1.35,25.55-6.26,37.61-3.3,8.08-8.29,14.98-14.51,21.07-9.22,9.05-19.84,16.16-31.26,22.68-.55-4.23-1.06-8.25-1.57-12.27-.21-1.52-.21-3.13-.63-4.61-.63-2.16.21-3.26,1.99-4.4,9.9-6.35,18.45-14.13,24.41-24.41,6.05-10.41,9.73-21.49,9.73-33.63,0-1.31-.21-2.67-.38-3.98-.3-2.2-1.18-2.83-3.34-2.2-7.74,2.24-15.44,2.07-23.14-.13-5.71-1.61-10.96-4.1-14.3-9.39-2.67-4.19-3.51-10.15,1.78-14.34,3.05-2.41,6.22-4.48,9.81-6.22Z"/>
    <path class="cls-6" d="M145.93,278.01c8.55-5.33,17.47-9.98,26.36-14.6,11.68-6.09,23.44-11.93,35.16-17.9.68-.34,1.4-.59,2.03-.89.13.21.21.25.21.3.55,4.36.51,4.32-3.38,6.35-26.61,13.71-52.88,27.92-78.1,44.04-2.33,1.48-4.57,3.09-6.26,5.29-.93,1.18-1.65,2.45-1.9,3.93-.68,4.44,1.4,7.07,6.18,8.21,3.72.85,7.57.89,11.34,1.06,12.86.68,25.76,1.31,38.58,2.71,10.15,1.1,20.35,1.86,30.21,4.65,5.42,1.52,9.73,4.82,13.2,9.1,3.6,4.4,3.6,9.77,2.79,15.1-1.23,8.5-6.73,13.5-14.21,16.67-1.27.55-2.67.3-3.98.21-.68-.04-1.52.08-1.73-.85-.21-.89.04-1.65.89-2.16,2.12-1.4,4.23-2.83,6.05-4.61,1.14-1.14,2.37-2.24,3.43-3.43,4.87-5.42,5.08-11.3.59-17.01-2.58-3.3-6.01-5.54-10.03-6.68-5.08-1.44-9.56.72-12.9,6.05-4.1,6.52-6.09,13.75-6.98,21.28-.68,5.84-.8,11.68.42,17.47.42,1.95-.17,2.54-2.12,2.07-2.24-.51-3.93-1.73-4.78-4.02-2.24-6.26-1.95-12.61-.55-18.95,1.69-7.78,4.82-14.98,9.18-21.66.63-.93,1.27-1.86,2.24-2.5.76-.51,1.31-1.14.97-2.12-.34-.97-1.06-1.4-2.07-1.48-4.99-.38-9.98-.85-14.98-1.18-14.68-1.06-29.4-1.82-44.04-3.51-3.34-.38-6.68-.85-9.9-1.99-4.91-1.78-6.81-5.2-5.71-10.41,1.02-4.82,4.06-8.29,7.7-11.3,7.53-6.26,15.86-11.38,24.28-16.33.89.04,1.48-.25,1.82-.93Z"/>
    <path class="cls-6" d="M490.34,98.21c-.76-2.58-.68-5.29-1.57-7.87-1.06-3-1.65-3.43-4.61-2.5-13.41,4.15-25.26.76-36.13-7.4-3.6-2.71-5.42-6.39-5.25-11,.04-1.31.51-1.57,1.69-.97,1.86.89,3.55,1.99,5.16,3.3,2.03,1.65,4.06,3.26,6.01,4.99,5.92,5.29,12.69,7.36,20.52,5.71,1.78-.38,3.6-.68,5.37-1.14,5.75-1.61,9.77-4.95,11.13-10.91,2.5-11.08.59-20.98-8.25-28.81-3.47-3.09-7.15-5.92-10.79-8.84-1.52-1.23-1.82-2.71-1.48-4.48.25-1.31.89-2.03,2.41-2.12,4.61-.25,8.67,1.27,12.18,4.02,12.1,9.52,16.16,22.21,14,37.14-.8,5.54-2.67,10.79-5.03,15.82-.72,1.48-.8,2.88-.42,4.48,5.46,25,1.78,48.48-12.52,69.89-6.18,9.26-14.47,16.71-23.14,23.61-6.56,5.25-13.54,9.9-20.81,14.05-.59.34-1.23.63-2.03,1.1-.34-2.45-.59-4.74-.97-7.02-.21-1.27.72-1.52,1.48-1.95,8.76-4.91,17.01-10.49,24.83-16.8,15.7-12.61,24.83-28.85,27.46-48.78.8-6.01,1.1-12.06,1.14-18.11-.42-1.82.08-3.64-.38-5.42Z"/>
    <path class="cls-4" d="M396.38,358.73c-6.68,1.06-13.37,2.03-20.01,3.22-1.65.3-1.73-.17-1.57-1.52.97-7.91,1.14-15.86.85-23.82-.13-3.51-.47-7.02-.8-10.53-.13-1.27.13-1.78,1.57-1.99,17.56-2.58,35.07-5.2,52.59-7.87,1.44-.21,1.99-.08,2.16,1.65,1.06,11.93-.97,23.4-4.32,34.78-.25.93-.76,1.18-1.61,1.31-3.98.59-7.91,1.23-11.89,1.86-.97-.97-.63-2.24-.59-3.38.04-3.13-.55-6.13-1.78-9.05-.85-1.95-2.07-3.6-4.4-3.72-2.28-.13-3.85,1.27-4.95,3.05-2.5,4.1-3.51,8.71-3.81,13.45-.08,1.06.13,2.33-1.44,2.58Z"/>
    <path class="cls-4" d="M283.42,380.73c-6.73,1.06-13.5,2.07-20.22,3.22-1.44.25-1.78.17-1.61-1.44,1.27-10.45,1.44-20.94.38-31.43-.13-1.14-.04-1.73,1.31-2.07,10.87-2.5,21.62-5.63,32.62-7.7,6.77-1.31,13.62-2.07,20.43-3.22,1.73-.3,1.65.72,1.73,1.82.59,8.33.04,16.63-1.82,24.75-.72,3.22-1.69,6.39-2.45,9.6-.25,1.14-.89,1.57-1.99,1.73-3.81.55-7.66,1.18-11.46,1.82-.8-.8-.55-1.82-.59-2.79-.04-2.96-.59-5.84-1.57-8.67-.47-1.35-1.14-2.54-2.16-3.55-1.61-1.61-3.72-1.73-5.5-.3-1.48,1.23-2.62,2.71-3.38,4.48-1.61,3.72-2.28,7.66-2.75,11.63-.04.8.04,1.73-.97,2.12Z"/>
    <path class="cls-4" d="M345.27,468.13c0-6.98,1.65-13.54,3.93-19.93,5.08-14.26,12.44-27.24,22.08-38.92,5.2-6.3,11.46-11.25,19.71-12.99,1.9-.42,3.89-.59,5.88-.51,1.31.04,1.82.34,1.35,1.9-1.48,4.95-3.77,9.56-6.22,14.05-13.03,23.52-26.69,46.71-41.29,69.3-1.4,2.16-1.48,2.2-2.71-.17-2.16-4.02-2.67-8.42-2.75-12.73Z"/>
    <path class="cls-4" d="M232.15,489.71c-.08-6.81,1.65-13.24,3.89-19.55,4.91-13.92,12.18-26.57,21.41-38.08,4.44-5.5,9.69-10.03,16.37-12.61,3.13-1.18,6.35-1.69,9.69-1.69,1.57,0,2.07.42,1.48,2.12-1.61,4.82-3.77,9.39-6.22,13.83-13.03,23.52-26.69,46.66-41.25,69.25-1.4,2.16-1.61,2.2-2.83-.17-1.99-4.1-2.58-8.55-2.54-13.11Z"/>
    <path class="cls-4" d="M251.78,503.29c2.88-4.7,5.46-9.01,8.17-13.33,14.21-22.76,27.67-45.94,41.25-69.09,2.2-3.77,4.65-7.4,7.45-10.79,1.61-1.95,2.2-2.07,4.1-.38,2.75,2.5,2.58,5.75,2.2,9.01-1.65,14.26-6.94,27.24-13.96,39.56-8.76,15.36-20.22,28.43-34.23,39.26-4.19,3.26-8.97,5.46-14.98,5.75Z"/>
    <path class="cls-4" d="M365.07,481.08c4.65-7.62,9.05-14.98,13.62-22.25,12.14-19.38,23.44-39.3,35.07-58.97,2.45-4.15,5.03-8.17,8.12-11.85,1.61-1.9,2.24-1.95,4.1-.3,2.12,1.86,2.45,4.36,2.28,6.94-.51,8.38-2.79,16.33-5.75,24.11-8.08,21.32-21.58,38.75-38.5,53.69-4.19,3.72-8.97,6.56-14.38,8.17-1.44.42-2.83.59-4.57.47Z"/>
    <path class="cls-13" d="M342.74,475.96c-1.18-.59-1.65-1.4-2.24-2.07-4.06-4.95-8.08-9.98-12.14-14.93-.68-.8-.93-1.52-.68-2.67,4.82-20.65,13.37-39.51,27.03-55.93,1.06-1.27,1.86-1.48,3.34-.93,4.15,1.57,8.33,3,12.52,4.48.21.08.38.17.63.34-7.62,8.33-13.71,17.73-18.7,27.75-5.16,10.28-9.52,20.86-10.45,32.53-.25,3.72-.04,7.45.68,11.42Z"/>
    <path class="cls-13" d="M229.14,497.91c-.97-1.1-1.65-1.86-2.28-2.62-3.85-4.78-7.7-9.56-11.55-14.3-.68-.85-.93-1.61-.68-2.67,4.87-20.56,13.28-39.39,26.91-55.76,1.14-1.35,2.03-1.65,3.68-1.02,4.23,1.65,8.55,3.09,12.99,4.65-7.66,8.5-13.75,17.85-18.78,27.88-5.03,10.03-9.22,20.39-10.36,31.69-.3,2.88-.3,5.75.08,8.63.04,1.02.21,1.99,0,3.51Z"/>
    <path class="cls-10" d="M213.96,320.1c-8.38-4.36-17.6-4.91-26.61-6.09-18.66-2.5-37.48-3.3-56.27-4.32-1.61-.08-3.22-.42-4.78-.85-2.88-.85-3.55-3-1.78-5.5,1.48-2.03,3.6-3.34,5.54-4.82,1.95-1.48,3.98-1.99,6.43-1.95,15.65.21,31.26,1.06,46.79,3.05,10.87,1.4,19.42,6.64,26.48,14.72,1.61,1.73,3.3,3.43,4.19,5.75Z"/>
    <path class="cls-10" d="M474.86,79.3c4.1-6.09,1.82-11.42-1.02-16.58-2.83-5.2-6.68-9.56-11.42-13.11-1.23-.93-2.5-1.86-3.55-2.96-3.38-3.34-3.68-6.94-.97-10.83,2.41-3.43,5.71-5.75,9.48-7.53.97-.47,1.44-.38,1.35.85-.3,2.92,1.23,4.91,3.38,6.64,3.6,2.83,7.11,5.8,10.66,8.67,7.7,6.22,9.52,19.55,5.88,27.79-.76,1.73-1.99,3.05-3.55,4.06-3.05,1.86-6.39,2.58-10.24,3Z"/>
    <path class="cls-4" d="M299.92,382.08c3.89-.63,7.78-1.18,11.68-1.9,1.06-.21,1.35.08,1.4,1.1.21,4.91.47,9.86.76,14.76.08,1.06-.25,1.48-1.31,1.65-9.65,1.65-19.29,3.38-28.89,5.08-6.09,1.06-12.18,2.12-18.28,3.22-1.14.21-1.78.3-1.82-1.27-.17-4.99-.47-9.98-.76-14.98-.08-1.27.3-1.65,1.57-1.86,6.68-1.02,13.33-2.12,20.01-3.22.85.8.63,1.95.93,2.96.68,2.24,1.18,4.48,3,6.18,2.07,1.95,3.98,2.03,6.13.04,2.2-2.03,3.26-4.7,4.1-7.49.38-1.4.34-3.05,1.48-4.27Z"/>
    <path class="cls-4" d="M412.92,360.17c3.93-.63,7.91-1.27,11.85-1.99.93-.17,1.23-.04,1.31.93.21,4.99.51,9.98.8,14.98.08,1.1-.34,1.44-1.35,1.65-15.86,2.75-31.69,5.58-47.55,8.38-.97.17-1.4,0-1.44-1.1-.21-5.12-.47-10.28-.8-15.4-.08-1.23.42-1.48,1.52-1.65,6.68-1.06,13.33-2.16,19.97-3.26.8.63.85,1.57,1.02,2.45.42,2.07.97,4.1,2.28,5.84,2.2,3.05,5.42,3.05,7.74.08,2.03-2.54,2.96-5.54,3.81-8.63.17-.8.13-1.69.85-2.28Z"/>
    <path class="cls-6" d="M226.39,569.03c.51-2.2.93-4.15.47-6.22-.34-1.52,1.23-1.1,1.9-1.23,6.26-1.35,12.52-2.54,18.83-3.81,22.42-4.44,44.84-8.88,67.22-13.37,1.18-.25,1.73-.13,2.2,1.1,1.4,3.6.51,5.42-3.22,6.13-29.02,5.8-58.04,11.55-87.4,17.39Z"/>
    <path class="cls-6" d="M339.48,546.99c.72-1.86.97-3.64.59-5.33-.34-1.52.34-1.86,1.61-2.12,6.43-1.23,12.82-2.54,19.25-3.81,22.34-4.44,44.67-8.84,67.01-13.37,1.4-.3,1.86.13,2.28,1.27,1.31,3.43.47,5.2-3.05,5.92-27.24,5.42-54.45,10.83-81.69,16.25-1.95.38-3.85.76-6.01,1.18Z"/>
    <path class="cls-10" d="M173.72,371.17c-6.18-3.38-10.83-8-14.3-13.79-2.2-3.68-2.5-7.78-1.99-11.89.76-6.43,3.22-12.23,7.53-17.13,1.4-1.61,2.96-2.5,5.33-2.24,4.32.51,8.67.63,13.11.93-8.12,13.71-13.79,27.71-9.69,44.12Z"/>
    <path class="cls-4" d="M364.78,475.11c-1.23,1.99-2.28,3.72-3.3,5.46-1.31,2.24-.85,3.38,1.73,3.81,3.34.51,6.56-.13,9.69-1.35,2.45-.97,4.87-2.12,6.81-3.3v14.3c0,1.31-1.06,1.18-1.78,1.31-6.98,1.35-13.96,2.62-20.94,3.93-4.27.8-8.55,1.61-12.78,2.41v-19.38c1.57,1.23,2.45,2.83,3.98,3.81,1.57,1.02,2.67.85,3.68-.76,1.48-2.41,3.13-4.65,4.57-7.11.85-1.44,1.9-2.12,3.47-2.28,1.57-.13,3.05-.51,4.87-.85Z"/>
    <path class="cls-4" d="M251.61,497.15c-1.31,2.16-2.5,4.02-3.6,5.88-1.02,1.82-.63,2.75,1.4,3.22,2.58.59,5.2.38,7.74-.34,3.43-.97,6.68-2.54,9.98-4.48-.21,5.08-.47,9.81-.63,14.6-.04,1.31-.97,1.18-1.73,1.35-9.94,1.9-19.88,3.77-29.87,5.63-4.1.76-4.1.72-4.06-3.55.04-5.03,0-10.07.34-15.15,1.4,1.44,2.37,2.96,3.93,3.93,1.48.93,2.58.76,3.51-.76,1.48-2.37,3.13-4.65,4.57-7.11.85-1.48,1.99-2.2,3.68-2.37,1.52-.17,2.92-.51,4.74-.85Z"/>
    <path class="cls-4" d="M314.26,406.28c-.25,0-.38.04-.51,0-4.32-1.78-5.03-1.57-7.95,2.07-2.28,2.88-4.36,5.88-6.3,8.97-.55.89-1.18,1.31-2.16,1.44-2.58.38-5.16.8-7.7,1.27-1.02.17-1.18-.04-1.02-1.06.55-3.68.13-4.06-3.6-4.36-6.47-.51-12.4,1.14-17.85,4.48-.85.51-1.69,1.02-2.5,1.52-.68-.51-.51-1.18-.55-1.78-.21-3-.25-6.05-.51-9.05-.08-1.27.34-1.69,1.57-1.9,15.74-2.75,31.43-5.5,47.13-8.29,1.14-.21,1.65-.13,1.65,1.23,0,1.78.21,3.64.3,5.46Z"/>
    <path class="cls-4" d="M427.18,384.15c-4.99-1.61-5.37-1.48-8.76,2.83-2.03,2.62-3.89,5.33-5.67,8.17-.55.89-1.18,1.44-2.28,1.61-2.58.38-5.16.8-7.7,1.27-.85.17-1.18.08-.93-.89.17-.68.13-1.4.13-2.12,0-1.44-.72-2.16-2.16-2.33-6.81-.76-13.16.59-19,4.1-1.02.59-2.03,1.23-3.38,2.03-.21-4.15-.38-8.04-.55-11.93-.04-.89.72-.89,1.35-.97,10.45-1.82,20.94-3.68,31.39-5.5,5.2-.93,10.41-1.78,15.57-2.79,1.52-.3,2.07,0,2.03,1.57-.08,1.57-.04,3.17-.04,4.95Z"/>
    <path class="cls-13" d="M361.22,347.98c0-7.02.04-14.09-.04-21.11,0-1.23.25-1.9,1.61-2.2,2.33-.47,4.65-1.06,6.98-1.69,1.14-.34,1.52.13,1.61,1.18,1.02,10.11,1.61,20.22.42,30.33-.59,4.95-2.12,9.77-5.29,13.83-.97,1.27-2.24,2.12-3.81,2.54-1.48.38-2.37.13-2.33-1.78.08-7.02.85-14.09.85-21.11.25,0-.25,0,0,0Z"/>
    <path class="cls-13" d="M360.17,472.57c2.83-4.7,5.46-9.01,8.08-13.37,8.71-14.64,17.56-29.19,25.72-44.17,2.03-3.72,4.02-7.45,5.54-11.38.55-1.35,1.18-2.16,2.83-2.28,2.28-.21,4.57-.72,7.19-1.18-1.35,2.33-2.54,4.36-3.72,6.43-12.1,21.32-24.92,42.22-37.69,63.08-.63,1.06-1.35,1.69-2.58,1.86-1.61.25-3.26.63-5.37,1.02Z"/>
    <path class="cls-13" d="M247.46,494.49c.08-1.31.89-2.07,1.44-2.96,10.96-18.06,21.91-36.13,32.07-54.66,2.03-3.72,4.02-7.45,5.54-11.38.47-1.23,1.1-1.9,2.54-2.03,2.37-.21,4.7-.76,7.4-1.18-1.18,2.03-2.2,3.72-3.22,5.5-12.23,21.66-25.26,42.81-38.2,64.01-.63,1.02-1.35,1.69-2.58,1.86-1.69.21-3.3.55-4.99.85Z"/>
    <path class="cls-19" d="M198.68,360c-5.16-3.81-7.95-8.84-9.05-14.85-.13-.8.38-1.73.72-2.58,1.23-3.3,2.71-6.47,5.08-9.14,2.2-2.5,4.7-3.17,7.78-2.03,3.89,1.44,7.02,3.77,8.84,7.66,1.35,2.88,1.23,5.54-.76,8.12-2.58,3.38-5.75,6.18-9.31,8.5-1.61.97-2.88,2.16-3.3,4.32Z"/>
    <path class="cls-13" d="M247.93,372.73c0-6.13.04-12.23,0-18.36,0-1.18.3-1.73,1.57-1.95,2.62-.51,5.2-1.18,7.78-1.9,1.02-.3,1.48,0,1.52,1.02.47,9.56,1.4,19.12-.8,28.6-.76,3.22-1.86,6.35-3.72,9.14-1.27,1.86-2.79,3.38-5.12,3.72-1.06.17-1.9.13-1.9-1.44.08-6.26.68-12.56.68-18.83.17-.04-.25,0,0,0Z"/>
    <path class="cls-13" d="M241.16,392.83c7.15,5.16,10.75,4.7,16.33-2.2.72,10.96,1.4,21.58,2.12,32.49-4.23-1.48-8.25-2.88-12.27-4.27-4.78-1.69-4.7-1.73-4.95-6.81-.34-6.3-.8-12.65-1.23-19.21Z"/>
    <path class="cls-13" d="M354.33,371.04c7.78,4.7,11.04,4.23,16.29-2.45.72,11,1.44,21.58,2.16,32.49-1.9-.63-3.6-1.18-5.29-1.78-3.38-1.18-6.77-2.37-10.15-3.6-.72-.25-1.48-.38-1.57-1.44-.47-7.62-.93-15.27-1.44-23.23Z"/>
    <path class="cls-13" d="M321.67,455.9c4.23,5.2,8.25,10.2,12.27,15.15,2.07,2.58,4.15,5.16,6.22,7.74.47.59,1.02,1.14.97,2.03-.21,5.63-.34,11.25-.51,16.88,0,.25-.08.51-.21,1.1-3.93-4.65-7.7-9.1-11.46-13.54-2.62-3.13-5.25-6.26-7.91-9.39-.51-.59-.93-1.14-.89-2.03.38-5.71.72-11.38,1.06-17.09.08-.17.21-.34.47-.85Z"/>
    <path class="cls-13" d="M227.16,520.67c-2.67-3.13-5.33-6.26-8-9.43-3.68-4.36-7.32-8.71-11.04-13.07-.8-.93-1.1-1.78-.97-3.05.42-5.67.72-11.38,1.06-17.3,1.57,1.18,2.45,2.71,3.51,4.02,5.08,6.3,10.15,12.61,15.27,18.87.76.93,1.1,1.82,1.06,3.05-.04,5.54-.04,11.13-.04,16.67-.34.13-.55.21-.85.25Z"/>
    <path class="cls-6" d="M224.07,567.97c-4.27-4.78-8.25-9.22-12.23-13.71-12.99-14.64-26.02-29.32-39.01-43.96-6.47-7.28-12.95-14.51-19.38-21.83-1.14-1.31-2.2-2.83-1.99-4.74.08-.63.25-1.4.85-1.61.63-.25.89.55,1.23.93,5.97,6.68,11.89,13.37,17.85,20.05,13.07,14.68,26.1,29.4,39.13,44.12,4.32,4.87,8.59,9.69,12.9,14.55,1.65,1.73,1.27,3.72.63,6.18Z"/>
    <path class="cls-13" d="M211.71,475.87c-1.86-3.93-2.2-8.04-1.61-12.14,1.86-13.41,7.53-25.26,15.1-36.3,3.43-4.95,7.15-9.6,12.18-13.07.47-.3.93-.59,1.65-1.06.42,3.43.97,6.18-1.57,9.22-11.68,14.09-19.29,30.33-24.24,47.89-.59,1.82-1.06,3.64-1.52,5.46Z"/>
    <path class="cls-13" d="M324.67,454.63c-1.35-3.3-1.52-6.18-1.61-9.05-.17-8.25,2.5-15.82,5.71-23.18,4.19-9.73,9.73-18.74,17.22-26.36,1.48-1.48,3.26-2.71,4.87-4.02,1.1-.89,1.52-.59,1.52.8,0,1.27.13,2.54.34,3.77.17.93-.34,1.48-.8,2.03-9.1,10.83-15.95,22.97-21.07,36.13-2.41,6.3-4.4,12.73-6.18,19.88Z"/>
    <path class="cls-13" d="M356.61,367.99c-2.67-3.22-4.4-6.98-5.75-10.87-2.96-8.63-3.89-17.56-4.02-26.61,0-1.31.25-2.03,1.73-2.28,2.71-.51,5.33-1.27,8-1.95.97-.25,1.35-.08,1.31,1.06-.25,10.91-.42,21.83-.63,32.74-.04,2.58,0,5.2,0,7.78-.21.04-.42.08-.63.13Z"/>
    <path class="cls-13" d="M233.76,348.87c2.62,1.65,5.12,2.54,7.53,3.68,1.06.51,2.71-.21,3.17,1.1.38,1.06.08,2.37.08,3.55-.17,10.58-.34,21.15-.51,31.73,0,.38.17.85-.47,1.44-8.71-12.52-9.81-26.61-9.81-41.5Z"/>
    <path class="cls-6" d="M337.24,545.97c-5.63-6.3-10.91-12.27-16.16-18.19-11.89-13.37-23.78-26.78-35.62-40.15-1.1-1.27-.68-3.05.89-3.72.97-.42,1.18.55,1.57,1.02,6.35,7.07,12.65,14.17,19,21.32,9.69,10.91,19.33,21.87,29.11,32.66,1.86,2.07,1.82,4.15,1.23,7.07Z"/>
    <path class="cls-18" d="M382.46,319.98c15.48-3.81,31.01-7.62,46.49-11.46,1.23-.3,1.86-.13,1.86,1.23,0,.85.17,1.69.25,2.5.08.89-.34,1.18-1.18,1.31-11.3,1.65-22.55,3.38-33.8,5.03-4.1.59-8.21,1.14-12.31,1.73-.51.13-1.14.63-1.31-.34Z"/>
    <path class="cls-1" d="M313.5,183.88c4.87-1.23,9.26-2.37,14-3.55-1.86,4.36-3.22,8.5-3.98,13.28-3.05-3.64-6.18-6.73-10.03-9.73Z"/>
    <path class="cls-12" d="M490.34,98.21c.76,1.78.3,3.6.3,5.37-.47-1.78-.34-3.55-.3-5.37Z"/>
    <path class="cls-15" d="M382.46,319.98c.34.42.85.3,1.31.38-.93.55-1.99.38-3,.47-.08-.08-.13-.17-.13-.3.04-.08.04-.17.08-.17.59-.13,1.14-.25,1.73-.38Z"/>
    <path class="cls-5" d="M378.61,321.16c-.63.72-1.4.34-2.16.17.72-.17,1.48-.34,2.2-.51.13.08.17.17.13.25-.08.04-.13.08-.17.08Z"/>
    <path class="cls-11" d="M145.93,278.01c-.13,1.1-.72,1.4-1.69.93.55-.34,1.14-.63,1.69-.93Z"/>
    <path class="cls-14" d="M378.61,321.16c0-.13,0-.25.04-.38.68-.13,1.4-.3,2.07-.42v.42c-.63.51-1.4.34-2.12.38Z"/>
    <path class="cls-8" d="M364.69,276.65c-.13,7.57-1.9,13.88-7.53,18.45-10.15,8.25-31.48,9.31-39.68-7.28-.21-.42-.42-.89-.59-1.35-.93-2.54-.34-3.47,2.41-3.81,6.3-.76,12.44-2.33,18.23-4.95,7.49-3.43,14.21-7.95,19.84-14.05,2.62-2.83,3.64-2.67,5.12.97,1.65,4.06,2.16,8.29,2.2,12.01Z"/>
    <path class="cls-8" d="M268.95,236.51c-5.75-.08-10.28-4.65-10.15-10.41.08-5.67,4.65-10.24,10.2-10.24s10.49,4.7,10.45,10.24c-.04,5.88-4.65,10.45-10.49,10.41Z"/>
    <path class="cls-8" d="M361.82,190.27c5.67,0,10.28,4.61,10.28,10.36.04,5.58-4.7,10.28-10.41,10.28s-10.28-4.65-10.24-10.36c.04-5.8,4.57-10.28,10.36-10.28Z"/>
    <path class="cls-16" d="M359.36,266.8c3.51,10.03,2.33,23.73-9.18,28.43-11.89,4.82-25.26.89-29.44-9.05,7.28-1.23,14.43-3.05,20.98-6.47,6.52-3.38,12.52-7.49,17.64-12.9Z"/>
  </g>
  <g>
    <path class="cls-4" d="M398.58,350.61c-.71,3.94-.65,2.29-.78,5.74-.08,1.06.13,2.33-1.44,2.58-6.69,1.06-13.38,2.03-20.02,3.22-1.65.3-1.74-.17-1.57-1.52.97-7.92,1.14-15.88.85-23.83-.13-3.51-.47-7.03-.8-10.54-.13-1.27.13-1.78,1.57-1.99,17.57-2.58,35.09-5.21,52.62-7.87,1.44-.21,1.99-.08,2.16,1.65,1.06,11.94-.97,23.41-4.32,34.8-.25.93-.76,1.19-1.61,1.31-3.98.59-7.92,1.23-11.9,1.86-.97-.97-.64-2.24-.59-3.39-.35-1.7.43-1.14-.8-4.06"/>
    <path class="cls-4" d="M281.22,367.61c-.19,2.74-.28,7.36-.74,11.34-.04.8-.01,2.22-1.03,2.6-6.73,1.06-9.63,1.47-16.36,2.61-1.44.25-1.78.17-1.61-1.44,1.27-10.46,1.44-20.96.38-31.45-.13-1.14-.04-1.74,1.31-2.07,10.88-2.5,21.63-5.63,32.64-7.7,6.77-1.31,13.63-2.07,20.45-3.22,1.74-.3,1.65.72,1.74,1.82.59,8.34.04,16.64-1.82,24.77-.72,3.22-1.69,6.39-2.46,9.61-.25,1.14-.89,1.57-1.99,1.74-3.81.55-7.66,1.19-11.47,1.82-.8-.8-.23-2.1-.28-3.07-.04-2.96.22-6.54.16-9.67"/>
    <path class="cls-4" d="M299.84,382.08c3.89-.64,7.79-1.19,11.68-1.91,1.06-.21,1.35.08,1.4,1.1.21,4.91.47,9.86.76,14.77.08,1.06-.08,2.33.23,5.8-9.65,1.65-18.17,2.67-27.78,4.36-6.1,1.06-16.34,5.25-22.43,6.35-.19-1.16-.31-6.27-.35-7.83-.17-5-.47-9.99-.76-14.99-.08-1.27.3-1.65,1.57-1.86,6.69-1.02,13.34-2.12,20.02-3.22"/>
    <path class="cls-4" d="M412.93,360.16c3.94-.64,7.92-1.27,11.85-1.99.93-.17,1.23-.04,1.31.93.21,5,.51,9.99.8,14.99.08,1.1-.34,1.44-1.35,1.65-15.88,2.75-31.71,5.59-47.58,8.38-.97.17-1.4,0-1.44-1.1-.21-5.12-.47-10.29-.8-15.41-.08-1.23.42-1.48,1.52-1.65,6.69-1.06,13.34-2.16,19.98-3.26"/>
    <path class="cls-4" d="M314.19,406.51c-.25,0-.38.04-.51,0-4.32-1.78-5.04-1.57-7.96,2.07-2.29,2.88-4.36,5.88-6.31,8.97-.55.89-1.19,1.31-2.16,1.44-2.58.38-5.16.8-7.7,1.27-1.02.17-1.19-.04-1.02-1.06.55-3.68.13-4.06-3.6-4.36-6.48-.51-12.4,1.14-17.86,4.49-.85.51-1.69,1.02-2.5,1.52-.68-.51-.51-1.19-.55-1.78-.21-3.01-.25-6.05-.51-9.06-.08-1.27.34-1.69,1.57-1.91,15.75-2.75,31.45-5.5,47.16-8.3,1.14-.21,1.65-.13,1.65,1.23,0,1.78.21,3.64.3,5.46Z"/>
    <path class="cls-4" d="M427.18,384.37c-5-1.61-5.38-1.48-8.76,2.84-2.03,2.62-3.89,5.33-5.67,8.17-.55.89-1.19,1.44-2.29,1.61-2.58.38-5.16.8-7.7,1.27-.85.17-1.19.08-.93-.89.17-.68.13-1.4.13-2.12,0-1.44-.72-2.16-2.16-2.33-6.82-.76-13.17.59-19.01,4.11-1.02.59-2.03,1.23-3.39,2.03-.21-4.15-.38-8.04-.55-11.94-.04-.89-.64-6.12,0-6.21,10.46-1.82,19.04-3.02,29.5-4.84,5.21-.93,15.11-5.36,20.27-6.38-.02,2.43.65,8.15.61,9.72-.08,1.57-.04,3.18-.04,4.95Z"/>
    <g>
      <path class="cls-13" d="M299.58,357.09l-17.36,3.31c-.53.1-1.01-.31-.99-.85l.24-7.98c.01-.4.3-.73.69-.8l17.53-3.14c.53-.1,1.01.33.98.87l-.41,7.81c-.02.39-.3.71-.68.78Z"/>
      <path class="cls-8" d="M282.05,361.5c-.45,0-.89-.16-1.24-.46-.45-.38-.69-.93-.68-1.52l.24-7.98c.03-.9.69-1.67,1.58-1.83l17.53-3.14c.58-.1,1.17.06,1.61.45.44.39.68.95.65,1.54l-.41,7.81c-.05.89-.69,1.62-1.55,1.79h0l-17.37,3.31c-.12.02-.24.03-.36.03ZM282.53,351.81l-.22,7.47,16.87-3.22.38-7.3-17.03,3.05ZM282.54,351.61h0s0,0,0,0Z"/>
    </g>
    <g>
      <path class="cls-13" d="M300.64,378.96l-19.87,3.59.38-12.83c.03-.93.7-1.71,1.62-1.87l15.96-2.86c1.23-.22,2.35.75,2.31,2l-.39,11.97Z"/>
      <path class="cls-8" d="M279.65,383.86l.42-14.16c.04-1.43,1.1-2.66,2.51-2.91l15.96-2.86c.91-.17,1.83.09,2.53.69.7.6,1.08,1.48,1.06,2.4l-.43,12.85-22.04,3.98ZM299.08,366.05c-.05,0-.11,0-.16.01l-15.96,2.86c-.41.07-.71.43-.73.84l-.34,11.5,17.69-3.2.37-11.1c.01-.36-.19-.59-.3-.69-.1-.09-.29-.21-.57-.21Z"/>
    </g>
    <g>
      <path class="cls-13" d="M412.99,334.95l-17.36,3.31c-.53.1-1.01-.31-.99-.85l.24-7.98c.01-.4.3-.73.69-.8l17.53-3.14c.53-.1,1.01.33.98.87l-.41,7.81c-.02.39-.3.71-.68.78Z"/>
      <path class="cls-8" d="M395.46,339.36c-.45,0-.89-.16-1.24-.46-.45-.38-.69-.93-.67-1.52l.24-7.98c.03-.9.69-1.67,1.58-1.83l17.53-3.14c.58-.1,1.17.06,1.61.45.44.39.68.95.65,1.54l-.41,7.81c-.05.89-.69,1.62-1.56,1.79l-17.36,3.31c-.12.02-.24.03-.36.03ZM395.95,329.67l-.22,7.47,16.87-3.22.38-7.3-17.03,3.05ZM412.79,333.89s0,0,0,0h0ZM395.95,329.47h0s0,0,0,0Z"/>
    </g>
    <g>
      <path class="cls-13" d="M414.06,356.83l-19.87,3.59.38-12.83c.03-.93.7-1.71,1.62-1.87l15.96-2.86c1.23-.22,2.35.75,2.31,2l-.39,11.97Z"/>
      <path class="cls-8" d="M393.06,361.72l.42-14.16c.04-1.43,1.1-2.66,2.51-2.91l15.96-2.86c.91-.16,1.83.09,2.53.69.7.6,1.08,1.48,1.05,2.4l-.43,12.85-22.05,3.98ZM412.49,343.91c-.05,0-.11,0-.16.01l-15.96,2.86c-.41.07-.71.43-.72.84l-.34,11.5,17.69-3.2.37-11.1c.01-.36-.19-.59-.3-.69-.1-.09-.29-.22-.57-.22Z"/>
    </g>
  </g>
</svg>