<?xml version="1.0" encoding="UTF-8"?>
<svg id="Tree" xmlns="http://www.w3.org/2000/svg" viewBox="0 0 595.28 595.28" width="80px" height="101px">
  <defs>
    <style>
      .cls-1 {
        fill: #6b9c40;
      }

      .cls-1, .cls-2, .cls-3, .cls-4, .cls-5, .cls-6 {
        stroke-width: 0px;
      }

      .cls-2 {
        fill: #b85a3c;
      }

      .cls-3 {
        fill: #5d893d;
      }

      .cls-4 {
        fill: #70aa42;
      }

      .cls-5 {
        fill: #c46040;
      }

      .cls-6 {
        fill: #d87651;
      }

      .cls-7 {
        fill: none;
        stroke: #70aa42;
        stroke-miterlimit: 10;
      }
    </style>
  </defs>
  <g>
    <path class="cls-6" d="M259.17,465.7h76.93v95c0,11.77-9.56,21.33-21.33,21.33h-34.26c-11.77,0-21.33-9.56-21.33-21.33v-95h0Z"/>
    <g>
      <path class="cls-5" d="M267.39,564.72c-.55,0-1-.45-1-1v-95.49c0-.55.45-1,1-1s1,.45,1,1v95.49c0,.55-.45,1-1,1Z"/>
      <path class="cls-5" d="M319.34,570.16c-.55,0-1-.45-1-1v-100.93c0-.55.45-1,1-1s1,.45,1,1v100.93c0,.55-.45,1-1,1Z"/>
      <path class="cls-5" d="M290.64,572.62c-.55,0-1-.45-1-1v-103.39c0-.55.45-1,1-1s1,.45,1,1v103.39c0,.55-.45,1-1,1Z"/>
      <path class="cls-5" d="M275.23,538.96c-.55,0-1-.45-1-1v-95.49c0-.55.45-1,1-1s1,.45,1,1v95.49c0,.55-.45,1-1,1Z"/>
      <path class="cls-5" d="M311.35,576.85c-.55,0-1-.45-1-1v-64.26c0-.55.45-1,1-1s1,.45,1,1v64.26c0,.55-.45,1-1,1Z"/>
      <path class="cls-5" d="M300.24,554.11c-.55,0-1-.45-1-1v-95.5c0-.55.45-1,1-1s1,.45,1,1v95.5c0,.55-.45,1-1,1Z"/>
      <path class="cls-5" d="M275.23,572.62c-.55,0-1-.45-1-1v-24.57c0-.55.45-1,1-1s1,.45,1,1v24.57c0,.55-.45,1-1,1Z"/>
      <path class="cls-5" d="M311.35,500.62c-.55,0-1-.45-1-1v-24.57c0-.55.45-1,1-1s1,.45,1,1v24.57c0,.55-.45,1-1,1Z"/>
      <path class="cls-5" d="M300.24,576.85c-.55,0-1-.45-1-1v-17.87c0-.55.45-1,1-1s1,.45,1,1v17.87c0,.55-.45,1-1,1Z"/>
      <path class="cls-5" d="M281.94,558.98c-.55,0-1-.45-1-1v-50.08c0-.55.45-1,1-1s1,.45,1,1v50.08c0,.55-.45,1-1,1Z"/>
      <path class="cls-5" d="M327.88,513.03c-.55,0-1-.45-1-1v-50.08c0-.55.45-1,1-1s1,.45,1,1v50.08c0,.55-.45,1-1,1Z"/>
      <path class="cls-5" d="M327.88,533.93c-.55,0-1-.45-1-1v-14.26c0-.55.45-1,1-1s1,.45,1,1v14.26c0,.55-.45,1-1,1Z"/>
      <path class="cls-5" d="M327.88,566.24c-.55,0-1-.45-1-1v-23.32c0-.55.45-1,1-1s1,.45,1,1v23.32c0,.55-.45,1-1,1Z"/>
      <path class="cls-5" d="M281.94,576.09c-.55,0-1-.45-1-1v-11.87c0-.55.45-1,1-1s1,.45,1,1v11.87c0,.55-.45,1-1,1Z"/>
      <path class="cls-5" d="M281.94,498.85c-.55,0-1-.45-1-1v-50.08c0-.55.45-1,1-1s1,.45,1,1v50.08c0,.55-.45,1-1,1Z"/>
    </g>
    <path class="cls-4" d="M178.28,355.81l-1.47-.03c.3-.22.48-.34.53-.37h.01s110.6,2.22,110.6,2.22l9.69.2,101.45-2.05,2.43-.05,16.41-.33c-3.89,1.68-8.11,3.3-12.66,4.83-24.85,8.37-59.75,14.28-107.63,14.28-2.6,0-5.15-.02-7.67-.06-.1.01-.21.01-.32,0-51.65-.73-87.42-8.53-111.37-18.64Z"/>
    <path class="cls-4" d="M458.93,415.43c.18,21.69-43.35,60.71-170.98,62.58-127.62-1.87-171.16-40.89-170.98-62.58.1-12.31,27.89-35.57,45.72-49.25,22.89,13.66,62.61,25.55,126.96,26.46.11.01.22.01.32,0,2.52.04,5.07.06,7.67.06,58.98,0,98.27-8.97,123.32-20.45,17.14,13.75,37.88,32.54,37.97,43.18Z"/>
    <path class="cls-7" d="M289.65,374.45c-51.65-.73-87.42-8.53-111.37-18.64l99.98,2.02,9.69-.2,110.6-2.23s.19.13.54.38c.22.15.51.36.86.61,1.16.82,3,2.14,5.32,3.84-24.85,8.37-59.75,14.28-107.63,14.28-2.6,0-5.15-.02-7.67-.06-.1.01-.21.01-.32,0Z"/>
    <path class="cls-4" d="M292,265.6c-43.11-.37-73.52-5.23-94.6-12.11l92.41-1.62,7.83-.14,90.82,1.59,9.42.17c-3.47,1.13-7.19,2.21-11.18,3.22-21.24,5.39-50.08,8.91-88.77,8.91h-.58c-1.35,0-2.69,0-4.02-.02h-1.33Z"/>
    <path class="cls-4" d="M442.94,319.94c-2.86,10.39-14.81,24.51-41.42,35.79-.52.22-1.04.44-1.57.66-23.94,9.83-59.33,17.35-109.98,18.06-.1.01-.21.01-.32,0-51.65-.73-87.42-8.53-111.37-18.64-.32-.14-.63-.27-.94-.4-21.15-9.1-32.87-20-38.05-29.28-1.22-2.17-2.07-4.24-2.61-6.19-3.75-13.64,25.22-39.14,44.45-54.26,4.55,2.24,9.78,4.38,15.77,6.36,21.11,6.96,51.66,11.9,95.1,12.27h1.33c1.33.02,2.67.02,4.02.02h.58c46.31,0,78.5-5.05,100.46-12.29,1.94-.64,3.8-1.3,5.58-1.97,12.53,10.21,27.22,23.5,34.58,34.89,3.67,5.66,5.52,10.86,4.39,14.98Z"/>
    <path class="cls-4" d="M297.64,175.05c-21.14,0-59.92-5.57-87.74-15.4l82.77-1.2,4.97-.07,87.74,1.27c-2.27.81-4.62,1.58-7.03,2.33-27.02,8.37-61.3,13.07-80.71,13.07Z"/>
    <path class="cls-4" d="M431.22,215.6c0,1.03-.08,2.11-.27,3.21-1.77,10.8-12.71,24.68-42.49,34.51-1.45.48-2.95.95-4.5,1.41-20.88,6.21-50.17,10.52-90.63,10.87h-1.33c-43.11-.37-73.52-5.23-94.6-12.11-.28-.09-.55-.17-.81-.26-22.39-7.44-34.07-17.18-39.17-26.14-2.34-4.09-3.31-8.01-3.31-11.49.01-7.54,21.49-27.27,37.79-41.15,4.19,2.39,9.12,4.62,14.54,6.67,27.97,10.62,69.16,16.67,91.2,16.67s63.22-6.05,91.2-16.67c2.93-1.11,5.71-2.27,8.31-3.48,15.66,13.56,34.06,30.98,34.07,37.96Z"/>
    <path class="cls-4" d="M417.93,134.51c-.06,3.7-1.96,7.2-5.28,10.47-5.67,5.59-15.49,10.51-27.27,14.67-2.27.81-4.62,1.58-7.03,2.33-27.02,8.37-61.3,13.07-80.71,13.07-21.14,0-59.92-5.57-87.74-15.4-.14-.05-.27-.09-.41-.14-11.6-4.13-21.25-9.01-26.86-14.53-3.32-3.27-5.22-6.77-5.28-10.47-.27-17.06,93.48-121.27,120.29-121.27s120.56,104.21,120.29,121.27Z"/>
    <path class="cls-1" d="M441.17,215.6c0,3.48-.97,7.4-3.31,11.49-5.16,9.07-17.06,18.93-39.98,26.4-3.47,1.13-7.19,2.21-11.18,3.22-21.24,5.39-50.08,8.91-88.77,8.91h-.58c-1.35,0-2.69,0-4.02-.02,40.46-.35,69.75-4.66,90.63-10.87,1.55-.46,3.05-.93,4.5-1.41,29.78-9.83,40.72-23.71,42.49-34.51.19-1.1.27-2.18.27-3.21-.01-6.98-18.41-24.4-34.07-37.96-2.6,1.21-5.38,2.37-8.31,3.48-27.98,10.62-69.17,16.67-91.2,16.67s-63.23-6.05-91.2-16.67c-5.42-2.05-10.35-4.28-14.54-6.67,9.97-8.49,18-14.8,18-14.8,27.82,9.83,66.6,15.4,87.74,15.4,19.41,0,53.69-4.7,80.71-13.07,2.41-.75,4.76-1.52,7.03-2.33,0,0,8.03,6.31,18,14.8,16.3,13.88,37.78,33.61,37.79,41.15Z"/>
    <path class="cls-1" d="M458.6,319.94c-.54,1.95-1.39,4.03-2.6,6.2-5.2,9.28-16.92,20.17-38.07,29.26-3.89,1.68-8.11,3.3-12.66,4.83-24.85,8.37-59.75,14.28-107.63,14.28-2.6,0-5.15-.02-7.67-.06,50.65-.71,86.04-8.23,109.98-18.06.53-.22,1.05-.44,1.57-.66,26.61-11.28,38.56-25.4,41.42-35.79,1.13-4.12-.72-9.32-4.39-14.98-7.36-11.39-22.05-24.68-34.58-34.89-1.78.67-3.64,1.33-5.58,1.97-21.96,7.24-54.15,12.29-100.46,12.29h-.58c-1.35,0-2.69,0-4.02-.02h-1.33c-43.44-.37-73.99-5.31-95.1-12.27-5.99-1.98-11.22-4.12-15.77-6.36,9.27-7.3,16.27-12.19,16.27-12.19,21.08,6.88,51.49,11.74,94.6,12.11h1.33c1.33.02,2.67.02,4.02.02h.58c38.69,0,67.53-3.52,88.77-8.91,3.99-1.01,7.71-2.09,11.18-3.22,0,0,7,4.89,16.27,12.18,19.23,15.13,48.2,40.63,44.45,54.27Z"/>
    <path class="cls-1" d="M478.31,415.43c.18,22.23-45.55,62.66-180.67,62.66-3.28,0-6.51-.02-9.69-.08,127.63-1.87,171.16-40.89,170.98-62.58-.09-10.64-20.83-29.43-37.97-43.18-25.05,11.48-64.34,20.45-123.32,20.45-2.6,0-5.15-.02-7.67-.06-.1.01-.21.01-.32,0-64.35-.91-104.07-12.8-126.96-26.46,6.98-5.34,12.44-9.22,14.12-10.4l1.47.03c23.95,10.11,59.72,17.91,111.37,18.64.11.01.22.01.32,0,2.52.04,5.07.06,7.67.06,47.88,0,82.78-5.91,107.63-14.28,4.55-1.53,8.77-3.15,12.66-4.83,0,0,6.22,4.32,14.66,10.78,17.83,13.68,45.62,36.94,45.72,49.25Z"/>
  </g>
  <path class="cls-2" d="M334.11,475.03v85.68c0,10.66-8.68,19.33-19.34,19.33h-34.26c-10.66,0-19.33-8.67-19.33-19.33v-85.7c-1.35-.08-2.68-.16-4-.25v85.95c0,12.86,10.47,23.33,23.33,23.33h34.26c12.87,0,23.34-10.47,23.34-23.33v-85.94c-1.32.1-2.65.18-4,.26Z"/>
  <path class="cls-3" d="M433.81,364.59c-4.99-3.82-9.23-6.9-11.86-8.79,17.17-7.9,29.81-18,35.8-28.69,1.24-2.23,2.18-4.46,2.78-6.64,3.9-14.17-22.4-38.48-45.14-56.37-5.51-4.33-10.24-7.84-13.18-9.97,23.26-8.27,33.18-18.64,37.39-26.04,2.37-4.14,3.57-8.34,3.57-12.49,0-2.45-.01-9.9-38.49-42.67-6.42-5.47-12.07-10.05-15.27-12.63,11.35-4.29,19.64-8.96,24.65-13.9,3.83-3.78,5.81-7.77,5.88-11.86.17-10.61-29.18-46.88-57.66-75.81-14.06-14.28-48.49-47.5-64.63-47.5s-50.57,33.21-64.62,47.48c-28.48,28.93-57.84,65.2-57.67,75.82.07,4.1,2.04,8.09,5.88,11.86,5.03,4.95,13.32,9.62,24.64,13.9-3.21,2.57-8.85,7.16-15.27,12.62-38.48,32.77-38.49,40.22-38.49,42.67,0,4.14,1.2,8.34,3.57,12.48,4.21,7.39,14.12,17.78,37.39,26.05-2.94,2.14-7.67,5.64-13.18,9.98-22.75,17.88-49.04,42.18-45.14,56.37.6,2.18,1.54,4.41,2.79,6.63,5.96,10.67,18.59,20.79,35.77,28.7-2.58,1.85-6.78,4.91-11.85,8.79-21.15,16.24-46.4,38.23-46.5,50.82-.18,21.94,38.91,56.22,142.21,63.34,1.32.09,2.65.18,4,.26,8.48.52,17.39.86,26.73,1,2.88.05,5.98.08,9.73.08,13.07,0,25.21-.37,36.47-1.06,1.35-.08,2.68-.16,4-.26,86.3-5.88,119.92-30.07,131.04-41.27,7.25-7.31,11.22-15.16,11.16-22.09-.1-12.59-25.35-34.58-46.5-50.82ZM466.31,434.69c-10.78,10.87-43.5,34.3-128.2,40.08-1.32.1-2.65.18-4,.26-11.24.69-23.38,1.06-36.47,1.06-3.73,0-6.8-.03-9.66-.08-9.47-.14-18.39-.48-26.8-1-1.35-.08-2.68-.16-4-.25-51.84-3.59-83.56-13.78-101.79-22.42-26.97-12.77-36.5-27.43-36.42-36.89.07-8.45,16.45-25.82,44.94-47.68,6.46-4.94,11.51-8.56,13.52-9.98h.43s.07.04.11.05c.98.41,1.98.82,2.99,1.21.18.07.35.14.53.21.98.38,1.97.76,2.97,1.13.07.03.14.05.21.08,27.13,10,62.36,15.37,104.9,15.98.08,0,.17,0,.25,0,.12,0,.24,0,.35-.02,1.1-.11,1.93-1.08,1.82-2.18-.11-1.1-1.06-1.89-2.16-1.8h-.15c-16.94-.25-32.7-1.25-47.23-3-.06-.01-.12-.03-.18-.04-21.55-2.62-40.44-6.89-56.28-12.72-.22-.08-.43-.16-.65-.24-.81-.3-1.61-.61-2.41-.92-.3-.12-.6-.23-.89-.35-.87-.35-1.73-.7-2.58-1.06-.13-.05-.26-.1-.38-.16-.33-.14-.65-.28-.95-.4-24.31-10.46-33.68-22.29-37.1-28.42-1.09-1.94-1.91-3.87-2.42-5.74-2.55-9.28,13.4-28.29,43.76-52.16,7.35-5.78,13.31-10.08,15.39-11.56,9.34,2.98,20.06,5.45,31.88,7.31,18.01,2.85,38.99,4.39,62.35,4.59h.02c1.1,0,1.99-.88,2-1.98,0-1.1-.88-2.01-1.98-2.02-23.16-.2-43.94-1.73-61.76-4.54-12.02-1.9-22.87-4.41-32.24-7.47-.02,0-.03,0-.05,0l-.27-.09c-.16-.05-.31-.1-.48-.16-24.16-8.03-34.03-18.15-38.06-25.24-2.02-3.53-3.05-7.06-3.05-10.49,0-1.89,2.68-10.33,37.09-39.63,7.98-6.79,14.77-12.24,17.09-14.08,6.91,2.39,14.71,4.62,23.22,6.63.15.04.31.05.46.05.91,0,1.73-.62,1.94-1.54.25-1.08-.41-2.15-1.49-2.41-8.8-2.08-16.83-4.39-23.85-6.87l-.42-.14c-12.3-4.38-21.09-9.11-26.13-14.07-3.06-3.01-4.63-6.07-4.68-9.08-.13-8.14,26.28-42.23,56.52-72.95,28.53-28.99,51.62-46.29,61.77-46.29s33.25,17.31,61.78,46.3c30.23,30.71,56.64,64.8,56.51,72.94-.05,3.01-1.62,6.06-4.68,9.08-5.07,5-14,9.78-26.54,14.21-2.08.74-4.35,1.49-6.95,2.3-.66.21-1.14.72-1.32,1.34-.11.37-.12.77,0,1.17.06.2.16.37.27.54.01.02.03.04.04.06.12.16.25.29.41.41.01,0,.03.02.04.03.16.11.33.2.52.27,0,0,0,0,0,0,.19.06.38.09.58.09.01,0,.03,0,.04,0s.03,0,.04,0c.18,0,.37-.02.55-.08,2.23-.69,4.23-1.35,6.06-1.99,2.33,1.85,9.11,7.29,17.08,14.07,34.4,29.29,37.08,37.74,37.09,39.63,0,3.43-1.02,6.96-3.05,10.5-4.08,7.18-14.14,17.43-38.86,25.49-3.53,1.15-7.25,2.22-11.05,3.18-1.07.27-1.72,1.36-1.45,2.43.05.2.14.39.25.56.02.03.04.06.06.1.11.15.23.29.38.4.03.03.07.05.11.08.15.11.31.2.48.26.03,0,.05.01.08.02.17.05.34.08.51.09.03,0,.05.01.07.01.02,0,.03,0,.05,0,.15,0,.3-.02.45-.06,1.65-.42,3.29-.86,4.9-1.32.17-.05.35-.1.52-.14,1.53-.44,3.02-.89,4.5-1.36.14-.04.29-.08.43-.13,2.09,1.49,8.05,5.78,15.37,11.54,30.36,23.89,46.31,42.9,43.76,52.16-.52,1.87-1.33,3.81-2.42,5.76-3.41,6.09-12.73,17.84-36.77,28.25l-.34.15c-3.93,1.7-8.14,3.3-12.51,4.77-.32.11-.59.3-.81.54-.14.15-.26.31-.35.49-.22.46-.28.99-.1,1.51.07.19.16.36.27.51.02.03.04.06.06.09.11.14.24.27.38.37.03.02.06.03.09.05.13.09.27.16.42.21.03.01.06.03.09.03.17.05.35.08.54.08.01,0,.03,0,.04,0,.02,0,.03,0,.05,0,.2,0,.39-.03.59-.09,1.09-.37,2.18-.75,3.25-1.13.26-.09.51-.19.77-.28.75-.27,1.5-.55,2.24-.83.5-.19.98-.38,1.47-.57.53-.21,1.06-.41,1.58-.62.41-.17.81-.33,1.22-.5.41-.17.84-.34,1.25-.51,2.02,1.42,7.22,5.14,13.68,10.09,28.49,21.86,44.87,39.23,44.94,47.68.05,5.85-3.51,12.69-10,19.24Z"/>
</svg>