<?xml version="1.0" encoding="UTF-8"?><svg id="Unicorn" xmlns="http://www.w3.org/2000/svg" width="158px" height="200px" viewBox="0 0 595.28 595.28"><path d="M290.19,307.71c8.99,3.49,20.88,6.65,34.52,6.65h.71c2.44-.02,4.8-.22,7.09-.59,10.34-9.95,16.39-23.22,17.39-25.53.83-1.91,1.46-4.26,1.92-6.97.26-1.51.47-3.14.63-4.87.88-9.14.55-20.98.21-33.26-.16-5.6-.32-11.38-.38-17.14-.04-4.04-.02-7.89.09-11.55-1.25,1.71-2.81,3.44-4.76,4.96-1.34,2.44-10.25,19.23-10.47,32.13-.14,7.53-.38,21.26-6.78,32.16-.95,1.63-2.04,3.19-3.29,4.66-4,4.72-9.63,8.48-17.53,10.29-.86.2-1.72.37-2.57.5-1.13.33-9.09,2.82-16.78,8.56Z" style="fill:#27aae1;"/><path d="M449.88,102.56c9.05-1.38,17.33-4.36,24.19-7.6-.24-20.75-3.56-22.41-4.02-22.54-1.15-.33-6.97,0-20.17,30.14Z" style="fill:#ecf3fa;"/><path d="M441.34,123.69c12.12-.34,23.28-3.99,32.16-8.12.04-.61.07-1.21.1-1.82.31-5.93.46-11.02.47-15.37-7.28,3.32-16.02,6.28-25.61,7.46-1.6,3.78-3.31,7.97-5.12,12.63-.68,1.74-1.34,3.48-2,5.22Z" style="fill:#ecf3fa;"/><path d="M434.1,143.84c14.14,1.22,27.39-2.57,37.8-7.19.49-5.29.99-11.34,1.39-17.57-9.2,4.1-20.62,7.56-33.09,7.66-2.21,5.95-4.27,11.77-6.1,17.1Z" style="fill:#ecf3fa;"/><path d="M429.61,157.2c3.41,3.53,6.54,6.37,9.01,6.91,1.99.43,3.97.87,5.93,1.32,7.02-7.98,16.56-16.57,26.33-18.54.21-1.96.44-4.21.68-6.7-9.02,3.81-19.99,6.9-31.89,6.9-2.16,0-4.36-.1-6.58-.31-1.31,3.84-2.48,7.37-3.48,10.42Z" style="fill:#ecf3fa;"/><path d="M452.16,163.17c5.79-2.94,11.66-5.05,16.15-4.72,9.05.68,17.89,6.25,25.69,11.16,4.26,2.67,8.27,5.2,11.39,6.25,4.56,1.53,8.72,1.84,12.83,1.11-.71-.13-1.38-.29-2.01-.5-3.57-1.19-7.31-4.81-11.65-9.01-7.28-7.04-16.34-15.81-28.25-16.94-.6-.06-1.2-.07-1.8-.05-1.36.03-2.73.25-4.1.61-6.36,1.69-12.75,6.62-18.25,12.09Z" style="fill:#f7941d;"/><path d="M451.51,168.03c2.55.18,5.14.78,7.42,2.08,1.71.97,3.25,2.4,4.8,4.12,1.11,1.22,2.22,2.58,3.39,4.03,5.01,6.18,10.68,13.19,20.75,14.76,7.65,1.2,15.91,1.25,24.16-3.3,1.38-.75,2.77-1.65,4.15-2.69,2.58-1.93,5.16-4.38,7.7-7.45-3.26,1.16-6.51,1.78-9.88,1.78-3.16,0-6.42-.54-9.88-1.71-3.57-1.2-7.79-3.85-12.25-6.66-7.4-4.66-15.8-9.95-23.86-10.55-3.91-.3-9.52,1.86-15.22,4.9-.43.22-.85.45-1.28.69Z" style="fill:#fff200;"/><path d="M323.01,215.97c2.53,2.52,5.51,4.37,8.84,4.43,16.56.23,20.68-14.42,21.11-16.13.01-.01.01-.02.01-.03,1.33-14.26,4.82-25.01,12.72-32.33,8.11-7.51,18.94-9.06,27.03-8.93-.45-1.62-.87-3.19-1.22-4.73-8.87-1.27-20.8-1.91-28.08,2.08-12.64,6.91-20.73,29.77-21.45,35.76-.48,3.98-3.71,11.62-10.65,16.34-2.51,1.71-5.3,2.9-8.31,3.54Z" style="fill:#00a79d;"/><path d="M381,234.77c.19,3.82.37,7.57.46,11.37,11.35-17.56,18.33-35.96,18.31-40.24-.04-11.09-1.29-19.82-2.88-27.09-7.15,5.15-14.85,13.39-15.85,25.38-.95,11.49-.49,21.19-.04,30.58Z" style="fill:#f7941d;"/><path d="M339.78,312.01c21.36-7,34.77-28.32,36.74-44.42.37-3.03.62-5.93.77-8.74.14-2.36.2-4.65.21-6.91.04-5.76-.22-11.29-.49-16.98-.46-9.51-.93-19.35.05-31.11,1.2-14.43,10.64-23.82,18.83-29.32-.66-2.67-1.36-5.15-2.02-7.48-7.47-.28-17.96.85-25.46,7.8-7.13,6.6-10.29,16.65-11.51,30.15-.55,6.25-.7,13.24-.62,20.96.06,5.72.22,11.49.38,17.07.32,11.42.61,21.95.04,30.66-.12,1.79-.27,3.49-.47,5.12-.53,4.33-1.37,8.06-2.66,11.03-1.43,3.29-6.07,13.15-13.79,22.17Z" style="fill:#ec008c;"/><path d="M275.44,277.44c.29.56.59,1.11.91,1.65,2.23,3.81,4.78,6.98,7.59,9.48,1.59,1.42,3.26,2.62,5.01,3.61,5.84,3.31,12.52,4.22,19.7,2.57,4.79-1.1,8.65-2.98,11.76-5.44,1.76-1.39,3.28-2.97,4.58-4.71,6.55-8.64,7.94-21.1,8.15-33.13.17-10.01,4.96-21.72,8.21-28.57-2.59.94-5.59,1.51-9.05,1.51-.17,0-.34,0-.52-.01-1.4-.02-2.74-.27-4.02-.69-3.21.97-18.41,6.42-20.25,22.56-2.24,19.46-6.08,31.02-19.13,32.5-1.29.15-2.56.23-3.79.23-3.25,0-6.28-.51-9.15-1.56Z" style="fill:#fff200;"/><path d="M65.29,330.81c5.81-2.07,11.63-6.65,15.22-15.57,6.46-16.01,23.62-58.57,67.5-52.43,18.18,2.54,31.91,13.94,39.73,32.98,2.15,5.24,3.57,10.35,4.51,14.73.14-14.22-1.92-38.83-15.98-55-9.28-10.68-22.52-16.17-39.33-16.31h-.82c-49.96,0-58,39.31-63.87,68.05-2,9.79-3.75,18.32-6.96,23.55Z" style="fill:#27aae1;"/><path d="M36.24,360.88c7.97,10.9,22.23,16.28,37.18,14.04,11.21-1.68,20.43-7.27,25.9-15.44h0c.97-1.45,1.82-2.96,2.54-4.55.41-.88.77-1.79,1.09-2.71,12.61-36.3,20.65-52.35,44.67-53.69.7-.04,1.4-.05,2.09-.05,19.28,0,34.31,14.75,38.8,19.7.28-.28.57-.56.87-.83-2.09-14.07-10.32-46.16-41.92-50.58-36.16-5.06-52.79,24.05-63.24,49.97-6.12,15.18-17.93,19.38-27.02,19.51-.07.01-.13.01-.19.01-2.92.02-5.55-.37-7.61-.95-11.63-3.29-10.75-14.23-10.38-18.9.02-.32.05-.66.07-.99-1.84.39-4.12,2.31-6.03,5.21-4.62,7.01-9.16,23.39,3.18,40.25Z" style="fill:#00a79d;"/><path d="M70.58,394.02c.06.1.14.2.22.32,6.39,8.88,18.67,19.26,32.25,19.26,5.8,0,14.07-1.37,20.48-7.86,6.26-6.34,9.35-16.19,9.18-29.27-.36-27.83,1.41-48.39,11.21-58.31,4.45-4.5,10.29-6.69,17.85-6.69,11.33,0,18.86,4.94,23.61,10,.11-.13.22-.26.34-.39-4.03-4.43-19.28-19.6-37.88-18.55-21.7,1.2-28.85,15.7-41.11,51-.78,2.25-1.78,4.39-2.97,6.4h0c2.13,6.68,3.25,15.4-.21,24.38-4.51,11.76-18.86,10.63-27.42,9.96-1.95-.16-4.26-.34-5.55-.25Z" style="fill:#ec008c;"/><path d="M150.28,512.86c1.55,6.03,6.66,9.48,14.51,9.89h3.38c9.03-.44,17.54-3.03,25.46-7.73-7.7-3.19-18.57-10.43-29.16-26.85-1.07.68-2.16,1.28-3.25,1.82-7.96,3.9-13.08,14.59-10.94,22.87Z" style="fill:#fecf75;"/><path d="M212.53,504.53c.34,4.05.65,6.4.92,6.98,4.39,8.29,19.37,11.24,31.93,11.24,3.02,0,5.14-.76,6.29-2.25,2.52-3.24.82-9.83-.2-13.76-.2-.77-.38-1.45-.5-2.03-.58-2.59-1.17-6.06-1.75-10.03-6.81,2.87-17.79,6.2-32.06,6.2-.48,0-.97,0-1.46-.01-1.04,1.26-2.09,2.48-3.17,3.66Z" style="fill:#fecf75;"/><path d="M218.86,496.82c13.43-.3,23.71-3.66,29.78-6.31-2.3-17.1-4.38-40.36-4.91-46.45-.58-.14-1.18-.29-1.8-.44-4,19.61-12.33,38.68-23.07,53.2Z" style="fill:#f7f7cf;"/><path d="M375.13,518.91c.32,1.41,1.89,2.29,3.15,2.78,4.22,1.62,10.27,1.07,11.99-.15,5.96-4.23,9.14-14.99,9.53-16.37-2.13.18-4.48.3-7.01.3-5.09,0-10.95-.47-17.39-1.78-.66,10.92-.48,14.25-.27,15.22Z" style="fill:#fecf75;"/><path d="M375.66,499.63c10.17,2.12,18.9,2.03,25.29,1.34l13.37-48.86c-6.24-8.83-12.07-16.09-17.36-21.62-4.96,2.33-10.24,4.51-15.72,6.51-3.14,31.19-4.78,50.58-5.58,62.63Z" style="fill:#f7f7cf;"/><path d="M452.19,508.17c4.99,9.2,11.18,14.2,17.88,14.58h1.64c.95-.05,1.9-.18,2.86-.41,7.76-1.91,13.17-9.13,13.03-13.06-.16-4.62-6.35-12.36-10.46-17.5-4.93,5.93-12.92,12.86-24.95,16.39Z" style="fill:#fecf75;"/><path d="M167.77,485.9c11.45,17.72,23.18,24.07,30.12,26.34,3.85-2.72,7.55-5.98,11.09-9.76l.03-.03c.55-.59,1.09-1.19,1.64-1.8,1.08-1.24,2.15-2.52,3.2-3.86,11.65-14.76,20.65-35.14,24.55-56,.56-2.96.99-5.86,1.27-8.61.29-2.72.44-5.29.44-7.65,0-.92.57-1.77,1.45-2.01,1.33-.36,2.55.65,2.55,1.93,0,4.5-.5,9.73-1.44,15.23,1.2.3,2.32.57,3.38.81h.01c59.75,13.87,108.71,1.69,132.6-6.82h.05c5.31-1.91,10.41-3.99,15.23-6.2-4.96-4.76-9.42-7.91-13.28-9.37-1.41-.54-2.77-.86-4.03-.93-1.1-.07-1.94-1.02-1.88-2.12.07-1.1,1.02-1.95,2.12-1.88,1.68.1,3.44.51,5.22,1.2,4.7,1.77,9.86,5.49,15.71,11.29h.02s.97.98.97.98c.02.01.03.02.04.03h0c5.85,5.96,12.35,14,19.31,23.91l.54.77h0c15.34,21.99,28.2,46.19,31.69,53.2,12.1-3.31,19.79-10.21,24.31-15.88-.1-.13-.2-.26-.29-.38-19.21-25.42-29.61-79.65-32.94-121.92-3.01-38.28-1.59-88.22,11.76-107.63-6.07-1.45-12.69-3.36-19.92-5.85-1.04-.36-1.6-1.5-1.24-2.54.36-1.05,1.5-1.6,2.54-1.24,8.25,2.84,15.67,4.91,22.35,6.39.1.01.2.03.29.06,29.18,6.39,44.1,1.36,51.23-1.06,3-1.01,4.81-1.62,6.36-.8.53.29,1.24.88,1.56,2.05,1.44,5.26,5.76,10.32,11.26,13.2,2.61,1.36,11.38,1.18,20.38-2.74,5.32-2.31,14.69-7.77,17.58-18.29,5.32-19.33-5.46-28.15-21.78-41.5-5.78-4.73-15.18-9.8-27.22-14.84-7.02,4.68-14.07,6.13-20.67,6.13-3,0-5.91-.3-8.68-.74-11.58-1.81-18.05-9.78-23.24-16.19-2.57-3.17-4.79-5.91-7.05-7.19-3.9-2.21-9.23-1.77-12.96-1.04-.07.02-.14.03-.2.04-.05.06-.1.12-.14.18t-.01.01c-1.41.92-2.76,1.84-4.03,2.73-1.19.83-2.63-.65-1.76-1.81.36-.49.74-1,1.14-1.52.57-.74,1.17-1.51,1.8-2.3.23-.29.47-.58.72-.88.04-.05.08-.09.11-.14-1.28-.29-2.56-.57-3.85-.85-3.07-.66-6.19-3.17-9.56-6.52-1.03-1.02-2.07-2.11-3.15-3.26-.62-.66-1.26-1.35-1.9-2.04-6.1-6.57-13.02-14.02-20.17-15.76-3.17-.77-5.45-.61-6.77.49-1.59,1.31-2.24,4.27-1.99,9.03.08,1.56.29,3.13.59,4.75.26,1.38.58,2.8.95,4.25.36,1.37.75,2.79,1.16,4.25.16.58.33,1.17.5,1.77.22.78.45,1.58.68,2.39.44,1.58.89,3.22,1.33,4.95.35,1.32.69,2.7,1.02,4.13,1.78,7.77,3.25,17.19,3.3,29.44.03,6.13-8.68,28.09-22.28,47.33-.07,4.7-.35,9.58-1,14.87-2.31,18.86-19.23,44.36-45.94,49.4-2.4.45-4.89.74-7.45.84-.55.02-1.1.04-1.65.04h-.76c-15.4,0-28.53-3.76-38.07-7.72-1.41-.58-2.74-1.17-3.99-1.76,1.07-1.06,2.17-2.04,3.28-2.95,3.56-2.93,7.27-5.16,10.51-6.8-5.03-.88-9.69-3.04-13.86-6.43-21.56,1.82-44.78,4.55-65.26,12.42-8.26,3.17-15.34,7.06-21.22,11.67-.84.65-1.66,1.32-2.45,2-.64.56-1.27,1.13-1.88,1.7-.61.58-1.21,1.17-1.79,1.77-.71.72-1.39,1.46-2.06,2.22-.89,1.03-1.75,2.08-2.55,3.16-13.76,18.34-14.78,44.23-2.97,77.41,1.31,3.67,2.39,7.24,3.23,10.6,1.09,4.31,1.88,8.59,2.36,12.71,3.19,27.28-7.08,47.44-20.2,57.54Z" style="fill:#f9f9e2;"/><path d="M465.77,70.91s3.06,2.55,2.55,18.21c-.51,15.66-5.45,62.98-5.45,62.98l10.41-4.77,2.53-41.36-1.75-26.89s1.24-8.17-3.53-8.17-5.11,1.45-5.11,1.45" style="fill:#bfdcf3;"/><path d="M33.01,363.24c7.54,10.31,20.05,16.18,33.74,16.18,2.39,0,4.82-.18,7.26-.54,11.17-1.68,20.55-6.9,26.75-14.6,1.28,5.49,1.59,12.03-.94,18.6-3.45,8.97-14.97,8.06-23.38,7.4-5.34-.42-8.57-.68-9.85,1.6-1.09,1.94.45,4.09.96,4.8,7.28,10.11,20.42,20.92,35.5,20.92,6.57,0,15.94-1.57,23.32-9.05,7.04-7.13,10.52-17.94,10.34-32.13-.34-26.82,1.24-46.52,10.05-55.45,3.66-3.7,8.57-5.5,15.01-5.5,10.32,0,17,4.52,21.1,9.03-15.06,19.51-16.61,47.19-4.25,81.89,1.25,3.55,2.3,6.99,3.11,10.23,1.05,4.15,1.81,8.25,2.26,12.2,2.99,25.49-6.34,44.26-18.34,53.65-1.08.85-2.17,1.62-3.29,2.3-.96.6-1.92,1.14-2.9,1.62-9.69,4.75-15.67,17.33-13.06,27.46.96,3.74,2.98,6.73,5.88,8.9,2.84,2.73,12.65,4,12.65,4,.51.02,1.03.04,1.55.04.58,0,1.18-.01,1.78-.04,0,0,13.94-1.89,18.67-4,3.99-1.57,7.85-3.6,11.58-6.08,1.51-1,3-2.08,4.47-3.24,2-1.58,3.97-3.29,5.89-5.15.31,2.86.61,4.29,1.04,5.1,2.34,4.42,6.67,7.38,11.58,9.37,0,0,10.11,3.48,13.05,3.48,2.94,0,9.06,1.15,13.28.52,4.21-.63,7.15-4,7.15-4,3.52-4.81,1.56-12.43.37-17.01-.18-.72-.35-1.36-.47-1.89-.61-2.74-1.24-6.54-1.86-10.92-.2-1.36-.39-2.77-.58-4.23-.69-5.28-1.36-11.1-1.97-16.78-1.22-11.3-2.2-22.06-2.63-26.93,18.88,4.16,36.67,5.79,52.92,5.79,33,0,59.67-6.68,76.33-12.32-1.14,11.29-2.11,21.43-2.93,30.41-1.1,12.03-1.92,21.99-2.45,29.84-.1,1.43-.19,2.79-.26,4.08-.33,5.33-.49,9.47-.49,12.4,0,2.21.09,3.74.28,4.58.2.89.63,1.95,1.54,2.98,0,0,2.32,1.82,3.6,2.46,1.28.64,4.08,1.02,9.57,1.02s9.02-3.48,9.02-3.48c5.88-6.02,8.62-16.21,8.75-16.69l.38-1.39,1.18-4.29,12.03-43.98c13.8,20.21,25.26,41.57,29.06,49.08.4.78.71,1.41.93,1.87.3.63.6,1.24.91,1.83,0,0,8.21,12.97,11.02,14.76,2.81,1.78,9.19,2.64,12,2.85,2.81.21,8.68-1.45,11.77-4.04,5.31-3.74,8.76-9.36,8.61-13.61-.2-5.96-6.65-14.01-11.36-19.89-.2-.25-.4-.5-.59-.74-.77-.96-1.47-1.85-2.06-2.63-.15-.2-.3-.4-.45-.61-15.43-20.98-27.55-66.52-31.7-119.21-3.99-50.71.73-92.11,12.02-106.36,29.55,6.26,44.9,1.09,52.29-1.41.97-.33,2.04-.69,2.75-.86.07-.02.13-.04.19-.05,1.88,6.09,6.84,11.84,13.09,15.11,4.54,2.38,15.01,1.23,23.84-2.61,10.32-4.49,17.36-11.91,19.84-20.9,4-14.54-.07-23.83-8.23-32.49-4.09-4.35-9.22-8.55-14.87-13.17-5.76-4.72-14.67-9.65-26.01-14.54,3.75-3.14,7.46-7.29,11.07-12.73.02-.03.04-.05.06-.08,1.04-1.58,2.08-3.27,3.11-5.07-1.46.49-2.94.91-4.41,1.27-.39.09-.78.18-1.16.26-4.5.96-8.72,1.19-11.55.25-2.7-.9-6.14-4.24-10.13-8.09-7.72-7.48-17.34-16.79-30.65-18.05-.58-.06-1.16-.08-1.74-.08.25-2.37.53-5.13.81-8.16.11-1.17.22-2.38.34-3.63.47-5.38.95-11.4,1.31-17.53.07-1.05.13-2.11.18-3.16.01-.14.01-.28.02-.42.34-6.63.49-12.28.48-17.11,0-1.21-.02-2.36-.04-3.47-.4-19.61-3.78-23.54-6.93-24.42-4.36-1.21-11.65,1.45-25.85,34.55-.43,1.02-.87,2.07-1.32,3.15-1.39,3.31-2.83,6.89-4.34,10.78-.86,2.21-1.71,4.43-2.53,6.64-.37.99-.74,1.97-1.1,2.95-3.74,10.13-7.05,19.84-9.49,27.26-.13-.14-.26-.28-.39-.42-6.49-6.98-13.84-14.9-22.15-16.92-4.53-1.11-7.89-.69-10.27,1.28-3.51,2.91-3.64,8.43-3.44,12.33.07,1.31.21,2.61.42,3.92-9.27-1.21-21.29-1.57-29.16,2.74-14.9,8.15-22.82,33.14-23.5,38.79-.37,3.13-3.13,9.57-8.93,13.52-2.7,1.83-5.72,2.94-9.05,3.32-1.54.18-3.15.2-4.82.06.88,1.35,1.87,2.73,2.97,4.05,1.44,1.74,3.08,3.37,4.89,4.68-6.39,2.82-17.84,9.87-19.53,24.58-2.36,20.61-6.3,27.92-15.6,28.98-5.68.65-10.54-.29-14.99-2.97-1.94-1.18-3.81-2.69-5.63-4.56.61,2.37,1.37,4.78,2.34,7.17.9,2.26,1.97,4.5,3.25,6.68,1.75,2.98,3.68,5.62,5.78,7.9-20.83,1.86-42.97,4.74-62.82,12.36-7.43,2.85-13.95,6.3-19.57,10.32.32-14.57-1.54-41-16.99-58.79-10.07-11.59-24.31-17.54-42.32-17.7h-.86c-53.24,0-61.99,42.84-67.79,71.25-2.92,14.25-5.22,25.52-11.48,25.81h-.02c-2.43.01-4.62-.32-6.34-.81-7.81-2.21-7.98-8.49-7.48-14.73.19-2.42.37-4.71-1.81-5.21-3.75-.87-8.05,1.71-11.48,6.9-6.96,10.56-8.64,28.51,3.29,44.82ZM192.25,310.52c-.94-4.38-2.36-9.49-4.51-14.73-7.82-19.04-21.55-30.44-39.73-32.98-43.88-6.14-61.04,36.42-67.5,52.43-3.59,8.92-9.41,13.5-15.22,15.57,3.21-5.23,4.96-13.76,6.96-23.55,5.87-28.74,13.91-68.05,63.87-68.05h.82c16.81.14,30.05,5.63,39.33,16.31,14.06,16.17,16.12,40.78,15.98,55ZM327.76,223.71c1.28.42,2.62.67,4.02.69.18.01.35.01.52.01,3.46,0,6.46-.57,9.05-1.51-3.25,6.85-8.04,18.56-8.21,28.57-.21,12.03-1.6,24.49-8.15,33.13-1.3,1.74-2.82,3.32-4.58,4.71-3.11,2.46-6.97,4.34-11.76,5.44-7.18,1.65-13.86.74-19.7-2.57-1.75-.99-3.42-2.19-5.01-3.61-2.81-2.5-5.36-5.67-7.59-9.48-.32-.54-.62-1.09-.91-1.65,2.87,1.05,5.9,1.56,9.15,1.56,1.23,0,2.5-.08,3.79-.23,13.05-1.48,16.89-13.04,19.13-32.5,1.84-16.14,17.04-21.59,20.25-22.56ZM352.45,276.4c-.16,1.73-.37,3.36-.63,4.87-.46,2.71-1.09,5.06-1.92,6.97-1,2.31-7.05,15.58-17.39,25.53-2.29.37-4.65.57-7.09.59h-.71c-13.64,0-25.53-3.16-34.52-6.65,7.69-5.74,15.65-8.23,16.78-8.56.85-.13,1.71-.3,2.57-.5,7.9-1.81,13.53-5.57,17.53-10.29,1.25-1.47,2.34-3.03,3.29-4.66,6.4-10.9,6.64-24.63,6.78-32.16.22-12.9,9.13-29.69,10.47-32.13,1.95-1.52,3.51-3.25,4.76-4.96-.11,3.66-.13,7.51-.09,11.55.06,5.76.22,11.54.38,17.14.34,12.28.67,24.12-.21,33.26ZM353,204.14h0s1.95.43,1.95.43l-1.95-.43ZM392.72,162.98c-8.09-.13-18.92,1.42-27.03,8.93-7.9,7.32-11.39,18.07-12.72,32.33,0,0,0,.02-.01.03-.43,1.71-4.55,16.36-21.11,16.13-3.33-.06-6.31-1.91-8.84-4.43,3.01-.64,5.8-1.83,8.31-3.54,6.94-4.72,10.17-12.36,10.65-16.34.72-5.99,8.81-28.85,21.45-35.76,7.28-3.99,19.21-3.35,28.08-2.08.35,1.54.77,3.11,1.22,4.73ZM393.87,167.05c.66,2.33,1.36,4.81,2.02,7.48-8.19,5.5-17.63,14.89-18.83,29.32-.98,11.76-.51,21.6-.05,31.11.27,5.69.53,11.22.49,16.98-.01,2.26-.07,4.55-.21,6.91-.15,2.81-.4,5.71-.77,8.74-1.97,16.1-15.38,37.42-36.74,44.42,7.72-9.02,12.36-18.88,13.79-22.17,1.29-2.97,2.13-6.7,2.66-11.03.2-1.63.35-3.33.47-5.12.57-8.71.28-19.24-.04-30.66-.16-5.58-.32-11.35-.38-17.07-.08-7.72.07-14.71.62-20.96,1.22-13.5,4.38-23.55,11.51-30.15,7.5-6.95,17.99-8.08,25.46-7.8ZM381.04,204.19c1-11.99,8.7-20.23,15.85-25.38,1.59,7.27,2.84,16,2.88,27.09.02,4.28-6.96,22.68-18.31,40.24-.09-3.8-.27-7.55-.46-11.37-.45-9.39-.91-19.09.04-30.58ZM433.09,146.78c2.22.21,4.42.31,6.58.31,11.9,0,22.87-3.09,31.89-6.9-.24,2.49-.47,4.74-.68,6.7-9.77,1.97-19.31,10.56-26.33,18.54-1.96-.45-3.94-.89-5.93-1.32-2.47-.54-5.6-3.38-9.01-6.91,1-3.05,2.17-6.58,3.48-10.42ZM440.2,126.74c12.47-.1,23.89-3.56,33.09-7.66-.4,6.23-.9,12.28-1.39,17.57-10.41,4.62-23.66,8.41-37.8,7.19,1.83-5.33,3.89-11.15,6.1-17.1ZM474.07,94.96c-6.86,3.24-15.14,6.22-24.19,7.6,13.2-30.13,19.02-30.47,20.17-30.14.46.13,3.78,1.79,4.02,22.54ZM474.07,98.38c-.01,4.35-.16,9.44-.47,15.37-.03.61-.06,1.21-.1,1.82-8.88,4.13-20.04,7.78-32.16,8.12.66-1.74,1.32-3.48,2-5.22,1.81-4.66,3.52-8.85,5.12-12.63,9.59-1.18,18.33-4.14,25.61-7.46ZM518.22,176.97c-4.11.73-8.27.42-12.83-1.11-3.12-1.05-7.13-3.58-11.39-6.25-7.8-4.91-16.64-10.48-25.69-11.16-4.49-.33-10.36,1.78-16.15,4.72,5.5-5.47,11.89-10.4,18.25-12.09,1.37-.36,2.74-.58,4.1-.61.6-.02,1.2-.01,1.8.05,11.91,1.13,20.97,9.9,28.25,16.94,4.34,4.2,8.08,7.82,11.65,9.01.63.21,1.3.37,2.01.5ZM516.18,187.03c-1.38,1.04-2.77,1.94-4.15,2.69-8.25,4.55-16.51,4.5-24.16,3.3-10.07-1.57-15.74-8.58-20.75-14.76-1.17-1.45-2.28-2.81-3.39-4.03-1.55-1.72-3.09-3.15-4.8-4.12-2.28-1.3-4.87-1.9-7.42-2.08.43-.24.85-.47,1.28-.69,5.7-3.04,11.31-5.2,15.22-4.9,8.06.6,16.46,5.89,23.86,10.55,4.46,2.81,8.68,5.46,12.25,6.66,3.46,1.17,6.72,1.71,9.88,1.71,3.37,0,6.62-.62,9.88-1.78-2.54,3.07-5.12,5.52-7.7,7.45ZM452.19,508.17c12.03-3.53,20.02-10.46,24.95-16.39,4.11,5.14,10.3,12.88,10.46,17.5.14,3.93-5.27,11.15-13.03,13.06-.96.23-1.91.36-2.86.41h-1.64c-6.7-.38-12.89-5.38-17.88-14.58ZM375.4,503.69c6.44,1.31,12.3,1.78,17.39,1.78,2.53,0,4.88-.12,7.01-.3-.39,1.38-3.57,12.14-9.53,16.37-1.72,1.22-7.77,1.77-11.99.15-1.26-.49-2.83-1.37-3.15-2.78-.21-.97-.39-4.3.27-15.22ZM378.3,467.35h0c.79-8.62,1.76-18.66,2.94-30.35,5.48-2,10.76-4.18,15.72-6.51,3.56,3.72,7.36,8.22,11.37,13.46,1.95,2.55,3.95,5.27,5.99,8.16l-13.37,48.86c-6.39.69-15.12.78-25.29-1.34.5-7.53,1.33-17.92,2.64-32.28ZM248.64,490.51c-6.07,2.65-16.35,6.01-29.78,6.31,6.01-8.13,11.27-17.69,15.43-27.97,3.28-8.08,5.88-16.6,7.64-25.23.62.15,1.22.3,1.8.44.34,3.94,1.34,15.08,2.62,27.08.69,6.54,1.48,13.34,2.29,19.37ZM212.53,504.53c1.08-1.18,2.13-2.4,3.17-3.66.49.01.98.01,1.46.01,14.27,0,25.25-3.33,32.06-6.2.58,3.97,1.17,7.44,1.75,10.03.12.58.3,1.26.5,2.03,1.02,3.93,2.72,10.52.2,13.76-1.15,1.49-3.27,2.25-6.29,2.25-12.56,0-27.54-2.95-31.93-11.24-.27-.58-.58-2.93-.92-6.98ZM193.63,515.02c-7.92,4.7-16.43,7.29-25.46,7.73h-3.38c-7.85-.41-12.96-3.86-14.51-9.89-2.14-8.28,2.98-18.97,10.94-22.87,1.09-.54,2.18-1.14,3.25-1.82,10.59,16.42,21.46,23.66,29.16,26.85ZM185.35,327.64c.8-1.08,1.66-2.13,2.55-3.16.67-.76,1.35-1.5,2.06-2.22.58-.6,1.18-1.19,1.79-1.77.61-.57,1.24-1.14,1.88-1.7.79-.68,1.61-1.35,2.45-2,5.88-4.61,12.96-8.5,21.22-11.67,20.48-7.87,43.7-10.6,65.26-12.42,4.17,3.39,8.83,5.55,13.86,6.43-3.24,1.64-6.95,3.87-10.51,6.8-1.11.91-2.21,1.89-3.28,2.95,1.25.59,2.58,1.18,3.99,1.76,9.54,3.96,22.67,7.72,38.07,7.72h.76c.55,0,1.1-.02,1.65-.04,2.56-.1,5.05-.39,7.45-.84,26.71-5.04,43.63-30.54,45.94-49.4.65-5.29.93-10.17,1-14.87,13.6-19.24,22.31-41.2,22.28-47.33-.05-12.25-1.52-21.67-3.3-29.44-.33-1.43-.67-2.81-1.02-4.13-.44-1.73-.89-3.37-1.33-4.95-.23-.81-.46-1.61-.68-2.39-.17-.6-.34-1.19-.5-1.77-.41-1.46-.8-2.88-1.16-4.25-.37-1.45-.69-2.87-.95-4.25-.3-1.62-.51-3.19-.59-4.75-.25-4.76.4-7.72,1.99-9.03,1.32-1.1,3.6-1.26,6.77-.49,7.15,1.74,14.07,9.19,20.17,15.76.64.69,1.28,1.38,1.9,2.04,1.08,1.15,2.12,2.24,3.15,3.26,3.37,3.35,6.49,5.86,9.56,6.52,1.29.28,2.57.56,3.85.85-.03.05-.07.09-.11.14-.25.3-.49.59-.72.88-.63.79-1.23,1.56-1.8,2.3-.4.52-.78,1.03-1.14,1.52-.87,1.16.57,2.64,1.76,1.81,1.27-.89,2.62-1.81,4.03-2.73t.01-.01c.04-.06.09-.12.14-.18.06-.01.13-.02.2-.04,3.73-.73,9.06-1.17,12.96,1.04,2.26,1.28,4.48,4.02,7.05,7.19,5.19,6.41,11.66,14.38,23.24,16.19,2.77.44,5.68.74,8.68.74,6.6,0,13.65-1.45,20.67-6.13,12.04,5.04,21.44,10.11,27.22,14.84,4.59,3.75,8.73,7.14,12.21,10.51,8.9,8.63,13.4,17.09,9.57,30.99-2.89,10.52-12.26,15.98-17.58,18.29-9,3.92-17.77,4.1-20.38,2.74-5.5-2.88-9.82-7.94-11.26-13.2-.32-1.17-1.03-1.76-1.56-2.05-.37-.2-.75-.31-1.16-.36-1.32-.15-2.91.39-5.2,1.16-7.13,2.42-22.05,7.45-51.23,1.06-.09-.03-.19-.05-.29-.06-6.68-1.48-14.1-3.55-22.35-6.39-1.04-.36-2.18.19-2.54,1.24-.36,1.04.2,2.18,1.24,2.54,7.23,2.49,13.85,4.4,19.92,5.85-13.35,19.41-14.77,69.35-11.76,107.63,3.33,42.27,13.73,96.5,32.94,121.92.09.12.19.25.29.38-4.52,5.67-12.21,12.57-24.31,15.88-3.49-7.01-16.35-31.21-31.69-53.19h0s-.54-.78-.54-.78c-2.51-3.57-4.96-6.9-7.35-9.98-4.21-5.46-8.22-10.12-11.96-13.92h0s-.02-.03-.04-.04l-.97-.99h-.02c-5.84-5.78-10.99-9.49-15.68-11.27-.01,0-.02-.01-.03-.01-1.78-.69-3.54-1.1-5.22-1.2-1.1-.07-2.05.78-2.12,1.88-.06,1.1.78,2.05,1.88,2.12.74.04,1.51.17,2.31.38.56.14,1.14.33,1.72.55,3.86,1.46,8.32,4.61,13.28,9.37-4.82,2.21-9.92,4.29-15.23,6.19h-.05c-23.89,8.52-72.85,20.7-132.6,6.83h-.01c-1.06-.24-2.18-.51-3.38-.81.61-3.55,1.03-6.99,1.25-10.19.13-1.76.19-3.44.19-5.04,0-1.28-1.22-2.29-2.55-1.93-.88.24-1.45,1.09-1.45,2.01,0,1.04-.03,2.13-.09,3.25-.07,1.41-.19,2.88-.35,4.4-.28,2.75-.71,5.65-1.27,8.61-1.75,9.35-4.52,18.61-8.1,27.3-4.4,10.7-10.02,20.56-16.45,28.7-1.05,1.34-2.12,2.62-3.2,3.86-.55.61-1.09,1.21-1.64,1.8l-.03.03c-3.54,3.78-7.24,7.04-11.09,9.76-6.94-2.27-18.67-8.62-30.12-26.34,13.12-10.1,23.39-30.26,20.2-57.54-.48-4.12-1.27-8.4-2.36-12.71-.84-3.36-1.92-6.93-3.23-10.6-11.81-33.18-10.79-59.07,2.97-77.41ZM103.55,384.31c3.46-8.98,2.34-17.7.21-24.37h0c1.19-2.02,2.19-4.16,2.97-6.41,12.26-35.3,19.41-49.8,41.11-51,18.6-1.05,33.85,14.12,37.88,18.55-.12.13-.23.26-.34.39-4.75-5.06-12.28-10-23.61-10-7.56,0-13.4,2.19-17.85,6.69-9.8,9.92-11.57,30.48-11.21,58.31.17,13.08-2.92,22.93-9.18,29.27-6.41,6.49-14.68,7.86-20.48,7.86-13.58,0-25.86-10.38-32.25-19.26-.08-.12-.16-.22-.22-.32,1.29-.09,3.6.09,5.55.25,8.56.67,22.91,1.8,27.42-9.96ZM33.06,320.63c1.91-2.9,4.19-4.82,6.03-5.21-.02.33-.05.67-.07.99-.37,4.67-1.25,15.61,10.38,18.9,2.06.58,4.69.97,7.61.95.06,0,.12,0,.19-.01,9.09-.13,20.9-4.33,27.02-19.51,10.45-25.92,27.08-55.03,63.24-49.97,31.6,4.42,39.83,36.51,41.92,50.58-.3.27-.59.55-.87.83-4.49-4.95-19.52-19.7-38.8-19.7-.69,0-1.39.01-2.09.05-24.02,1.34-32.06,17.39-44.67,53.69-.32.92-.68,1.83-1.09,2.71-.72,1.59-1.57,3.1-2.54,4.54h0c-5.47,8.18-14.69,13.77-25.9,15.45-14.95,2.24-29.21-3.14-37.18-14.04-12.34-16.86-7.8-33.24-3.18-40.25Z" style="fill:#58595b;"/><path d="M242.67,439.68c1.2.3,2.32.57,3.38.81h.01c59.75,13.87,108.71,1.69,132.6-6.82h.05c5.31-1.91,10.41-3.99,15.23-6.2-4.96-4.76-9.42-7.91-13.28-9.37-.58-.22-1.16-.41-1.72-.55-4.67,4.3-6.1,6.56-17.68,9.62-17.42,4.61-72.16,11.91-90.55,8.17-7.93-1.61-21.04-3.55-26.79-5.85-.22,3.2-.64,6.64-1.25,10.19Z" style="fill:#edecbc;"/><path d="M432.91,193.8l5.26,3.4c-.13.15-.25.31-.38.48-.67.88-.5,2.13.38,2.8.47.36,1.07.48,1.62.36.46-.1.88-.36,1.18-.75,2.05-2.7,4.19-4.64,6.34-6h0c9.57-6.08,19.11-.67,19.6-.38.95.56,2.18.24,2.73-.72.56-.95.24-2.18-.72-2.73-.14-.08-11.4-6.47-22.69-.17l-5.71-3.68c-.92-.6-2.16-.33-2.76.6-.6.92-.34,2.17.59,2.76l4.31,2.78c-.61.49-1.21,1.03-1.81,1.63l-5.78-3.73c-.93-.6-2.18-.34-2.77.59-.6.92-.33,2.16.59,2.77Z" style="fill:#58595b;"/><circle cx="455.99" cy="205.04" r="9.57" style="fill:#58595b;"/><circle cx="457.43" cy="203.85" r="2.77" style="fill:#fff;"/><path d="M513.66,253.34c.41.05.79.16,1.16.36.53.29,1.24.88,1.56,2.05,1.44,5.26,5.76,10.32,11.26,13.2,2.61,1.36,11.38,1.18,20.38-2.74,5.32-2.31,14.69-7.77,17.58-18.29,3.83-13.9-.67-22.36-9.57-30.99-14.68,1.86-34.03,9.67-42.37,36.41Z" style="fill:#f5d9b7;"/><path d="M550.71,230.91c2.67-1.23,5.11,5.28,3.91,8.6-1.19,3.32-10.21-5.7-3.91-8.6Z" style="fill:#58595b;"/><path d="M423.39,167.77s-14.47-20.1-19.74-20.17c-8.34-.11,2.21,31.66,3.66,35.57,1.45,3.91,4.94-8.6,9.79-10.3s7.9-2.8,6.3-5.11Z" style="fill:#dddcb8;"/><path d="M269.42,314.36s-8.89-9.23-20.78-5.49c-11.9,3.74-23.81,5.11-16.66,19.4,7.15,14.3-7.15,17.36,1.77,22.81,18.83,11.5,8.78-18.76,21.72-20.27,12.94-1.51,19.97-6.28,13.96-16.45Z" style="fill:#edecbc;"/><path d="M215.97,328.62c-2.75,4.81,5.08,6.81,2.88,10.21-2.2,3.4-11.39.34-13.78,3.4s-9.87,8.85-11.23,2.04,6.13-6.13,8.17-11.23c2.04-5.11.68-12.9,7.49-12.24s9.19,3.04,6.47,7.81Z" style="fill:#edecbc;"/></svg>