<?xml version="1.0" encoding="UTF-8"?>
<svg id="Raccoon" xmlns="http://www.w3.org/2000/svg" viewBox="0 0 595.28 595.28" width="80px" height="101px">
  <defs>
    <style>
      .cls-1 {
        fill: #a39994;
      }

      .cls-1, .cls-2, .cls-3, .cls-4, .cls-5, .cls-6, .cls-7, .cls-8, .cls-9, .cls-10, .cls-11, .cls-12, .cls-13 {
        stroke-width: 0px;
      }

      .cls-2 {
        fill: #231f20;
      }

      .cls-3 {
        fill: #4c3836;
      }

      .cls-4 {
        fill: #3a3a3a;
      }

      .cls-5 {
        fill: #414042;
      }

      .cls-6 {
        fill: #a19d93;
      }

      .cls-7 {
        fill: #e5e1df;
      }

      .cls-8 {
        fill: #261819;
      }

      .cls-9 {
        fill: #262226;
      }

      .cls-10 {
        fill: #a39a95;
      }

      .cls-11 {
        fill: #978f8a;
      }

      .cls-12 {
        fill: #fff;
      }

      .cls-13 {
        fill: #faf5ef;
      }
    </style>
  </defs>
  <path class="cls-10" d="M518.96,239.36c-47.33-7.21-76.63,9.1-92.48,23.28,7.54-24.14,22.32-44.83,53.97-44.83,14.16,0,27.5,7.83,38.51,21.55Z"/>
  <path class="cls-3" d="M538.84,278.33c-65.95-12.68-103.44,7.64-119.34,20.11.03-.27.06-.53.09-.8,1.35-11.21,3.3-23.49,6.89-35,15.85-14.18,45.15-30.49,92.48-23.28,8.08,10.07,14.91,23.32,19.88,38.97Z"/>
  <path class="cls-10" d="M547.68,339.53c-56.09-19.21-102.73-3.58-123.98,6.36-3.43-17.29-5.7-33.63-4.2-47.45,15.9-12.47,53.39-32.79,119.34-20.11,2.91,9.15,5.19,19.13,6.71,29.78,1.35,9.45,2.06,20.09,2.13,31.42Z"/>
  <path class="cls-3" d="M547.68,339.53c.1,15.96-1.05,33.28-3.45,50.56-46.64-22.37-89.35-17.33-113.4-11.14-2.4-11.13-4.99-22.28-7.13-33.06,21.25-9.94,67.89-25.57,123.98-6.36Z"/>
  <path class="cls-10" d="M544.23,390.09c-3.37,24.41-9.22,48.74-17.46,69-33.85-42-71.91-39.54-88.78-35.7-.96-14.13-3.89-29.27-7.16-44.44,24.05-6.19,66.76-11.23,113.4,11.14Z"/>
  <path class="cls-3" d="M526.77,459.09c-5.28,12.96-11.53,24.25-18.75,32.85-2.15,2.56-4.37,5.08-6.64,7.55-16.78-41.11-47.46-52.16-63.96-55.11.52-2.81.84-5.95.9-9.46.07-3.75-.05-7.61-.33-11.53,16.87-3.84,54.93-6.3,88.78,35.7Z"/>
  <path class="cls-10" d="M501.38,499.49c-19.44,21.08-43.35,38.57-69.45,47.25,16.97-37.53-.82-73.25-6.53-83.1,5.46-3.23,10.12-9.07,12.02-19.26,16.5,2.95,47.18,14,63.96,55.11Z"/>
  <path class="cls-3" d="M431.93,546.74h-.01c-15.35,5.11-31.46,7.18-47.87,5.13,1.57-1.9,3.07-3.91,4.48-6.05,21.96-33.2,32.67-47.88,31.06-76.61-.03-.53-.07-1.05-.13-1.57,0-.01,0-.03,0-.04.03-.49.05-.98.06-1.48,2-.56,3.99-1.37,5.88-2.48,5.71,9.85,23.5,45.57,6.53,83.1Z"/>
  <path class="cls-10" d="M309.04,162.28c0,8.88-7.2,16.08-16.08,16.08s-16.09-7.2-16.09-16.08,7.2-16.09,16.09-16.09,16.08,7.2,16.08,16.09Z"/>
  <path class="cls-10" d="M209.98,162.28c0,8.88-7.2,16.08-16.09,16.08s-16.08-7.2-16.08-16.08,7.2-16.09,16.08-16.09,16.09,7.2,16.09,16.09Z"/>
  <path class="cls-10" d="M411.35,189.01s-12.4-4.3-26.64-10.75c-21.15-25.43-73.21-83.65-99.67-75.06-13.16,4.27-23.05,13.84-28.27,25.69-7.97-4.97-14.33-4.35-18.97-2.05,1.51-15.28-4.87-25.83-27.31-23.24-53.73,6.21-90.76,55.88-103.77,76.17-7.14,3.52-15.08,6.68-24.03,9.24,0,0,20.91-37.86,55.76-72,4.92-4.81,10.11-9.55,15.56-14.1,14.47-12.08,30.76-22.81,48.5-30.01,5.11-2.09,10.35-3.87,15.7-5.3,10.67-2.88,21.78-4.37,33.27-4.07,10.86.28,21.28,2.04,31.22,4.95,5.23,1.52,10.32,3.37,15.28,5.49,18.12,7.73,34.4,19.05,48.6,31.63,5.35,4.73,10.4,9.65,15.14,14.61,31.77,33.26,49.63,68.8,49.63,68.8Z"/>
  <path class="cls-6" d="M218.21,67.6c-5.35,1.43-10.59,3.21-15.7,5.3-17.74,7.2-34.03,17.93-48.5,30.01-5.45,4.55-10.64,9.29-15.56,14.1-5.85-17.77-24.55-83.23,11.12-101.89,36.01-18.84,62.38,37.49,68.64,52.48Z"/>
  <path class="cls-3" d="M202.51,72.9c-17.74,7.2-34.03,17.93-48.5,30.01-5.29-21.67-14.09-65.21-1.26-71.87,12.06-6.25,36.33,23.52,49.76,41.86Z"/>
  <path class="cls-6" d="M361.72,120.21c-4.74-4.96-9.79-9.88-15.14-14.61-14.2-12.58-30.48-23.9-48.6-31.63-4.96-2.12-10.05-3.97-15.28-5.49,5.54-13.51,32.25-72.59,69.01-53.36,38.4,20.09,13.78,94.42,10.01,105.09Z"/>
  <path class="cls-3" d="M346.58,105.6c-14.2-12.58-30.48-23.9-48.6-31.63,13.25-18.23,38.24-49.3,50.54-42.93,13.39,6.95,3.23,54.05-1.94,74.56Z"/>
  <path class="cls-13" d="M370.55,212.9c-.62.29-1.25.57-1.88.85-15.68,6.9-34.21,12.72-52.99,13.35-11.62.39-20.71-2.48-27.93-7.21-.42-.27-.82-.54-1.22-.82-6.09-4.28-10.81-9.89-14.62-15.93-16.66,3.7-47.83,4.88-58.39.98h-.01c-3.82,5.8-7.97,11.05-13.06,15.06-.37.29-.75.58-1.13.86-7.58,5.54-17.2,8.39-30.7,6.45-15.86-2.27-32.54-8.57-46.94-15.36-.83-.38-1.64-.77-2.45-1.16h-.02c-20.65-9.99-36.03-20.62-36.51-20.95.36.4,8.14,8.97,21.97,20.32.4.33.8.66,1.21,1,9.99,8.1,22.96,17.53,38.46,26.37.48.29.96.56,1.45.83,10.58,5.97,22.31,11.64,35.04,16.46,19.83,7.49,42.07,12.89,66.19,13.99,35.5,1.62,66.94-8.41,92.57-21.84,3.71-1.94,7.28-3.96,10.74-6.02h.02c.48-.28.96-.56,1.43-.85,36.68-22.18,58.7-49.2,59.54-50.24-.85.65-17.43,13.32-40.77,23.86ZM249.32,258.07h-.05c-.95,0-1.69-.6-2.28-1.08-.37-.31-.8-.65-1.06-.65-.42,0-1.1.39-1.69.73-.87.5-1.76,1-2.71.99-19.46-.47-39.17-4.58-39.17-11.55,0-.55.45-1,1-1s1,.45,1,1c0,4.18,14.96,9.02,37.22,9.55.39,0,1.06-.38,1.66-.72.45-.26.91-.52,1.38-.71v-8.48h-12.86c-7.83,0-14.17-6.34-14.17-14.17,0-3.92,1.59-7.46,4.15-10.02s6.1-4.15,10.02-4.15h28.34c7.83,0,14.17,6.34,14.17,14.17,0,3.92-1.59,7.46-4.15,10.02s-6.1,4.15-10.02,4.15h-13.48v8.29c.65.2,1.18.63,1.63,1,.37.29.78.63,1.02.63h.01c22.49-.49,37.6-5.34,37.6-9.56,0-.55.44-1,1-1s1,.45,1,1c0,7.03-19.9,11.13-39.56,11.56Z"/>
  <path class="cls-8" d="M271.91,203.14c-16.66,3.7-47.83,4.88-58.39.98,2.1-3.19,4.11-6.55,6.11-9.97,2.28-3.89,4.42-8.72,6.04-13.99h.01c2.22-7.21,3.47-15.23,2.74-22.72,4.78-10.69,8.48-21.49,9.38-30.6,4.64-2.3,11-2.92,18.97,2.05-6.37,14.47-5.79,32.34,4.3,48.18.16,1.02.35,2.03.58,3.03.56,2.51,1.33,4.94,2.29,7.24,2.17,5.2,4.74,10.65,7.97,15.8Z"/>
  <path class="cls-7" d="M237.8,126.84c-.9,9.11-4.6,19.91-9.38,30.6-.47-4.88-1.78-9.53-4.21-13.59-4.45-7.46-12.66-12.9-26.32-14.04-34.83-2.91-49.85,29.58-91.17,49.96,13.01-20.29,50.04-69.96,103.77-76.17,22.44-2.59,28.82,7.96,27.31,23.24Z"/>
  <path class="cls-7" d="M384.71,178.26c-11.7-5.32-24.64-12.1-32.94-19.17-18.39-15.66-56.17-37.11-73.2-27.24-.78.45-1.53.93-2.25,1.46-.2.13-.39.27-.58.42-.3.22-.6.45-.89.69-.03.02-.06.04-.09.07-.31.25-.62.52-.92.79-.46.41-.92.83-1.36,1.27-.35.35-.69.7-1.01,1.06-.35.38-.69.76-1.01,1.16-.34.39-.67.8-.97,1.21-.37.47-.72.95-1.05,1.44-.04.05-.07.1-.11.15-.32.46-.63.94-.92,1.42-.04.06-.07.12-.11.18-.23.36-.45.73-.65,1.1-.46.79-.89,1.61-1.29,2.45-.21.4-.4.8-.57,1.21-.03.05-.05.1-.08.16-.49,1.1-.94,2.22-1.34,3.37-.04.11-.08.23-.12.34-.17.48-.33.97-.48,1.47-.19.61-.37,1.22-.53,1.84-.07.25-.14.51-.2.77-.09.33-.17.66-.24,1-.04.17-.08.33-.12.5-.13.57-.25,1.15-.35,1.74-.01.01-.01.02-.01.04-.11.57-.2,1.14-.29,1.72-.02.15-.04.31-.07.46-.06.43-.12.88-.17,1.32-.09.85-.17,1.7-.23,2.55-.04.57-.07,1.14-.09,1.71v.04c-.03.65-.04,1.3-.04,1.95,0,2.75.21,5.49.64,8.16-10.09-15.84-10.67-33.71-4.3-48.18,5.22-11.85,15.11-21.42,28.27-25.69,26.46-8.59,78.52,49.63,99.67,75.06Z"/>
  <path class="cls-3" d="M228.42,157.44c-.47-4.88-1.78-9.53-4.21-13.59-4.45-7.46-12.66-12.9-26.32-14.04-34.83-2.91-49.85,29.58-91.17,49.96-7.14,3.52-15.08,6.68-24.03,9.24h.01c.48.34,15.86,10.97,36.51,20.96h.02c.81.39,1.62.78,2.45,1.16,14.4,6.79,31.08,13.09,46.94,15.36,13.5,1.94,23.12-.91,30.7-6.45.38-.28.76-.57,1.13-.86,5.09-4.01,9.24-9.26,13.06-15.06h.01c2.1-3.19,4.11-6.55,6.11-9.97,2.28-3.89,4.42-8.72,6.04-13.99h.01c2.22-7.21,3.47-15.23,2.74-22.72ZM193.89,178.36c-8.88,0-16.08-7.2-16.08-16.08s7.2-16.09,16.08-16.09,16.09,7.2,16.09,16.09-7.2,16.08-16.09,16.08Z"/>
  <path class="cls-3" d="M209.98,162.28c0,8.88-7.2,16.08-16.09,16.08s-16.08-7.2-16.08-16.08,7.2-16.09,16.08-16.09,16.09,7.2,16.09,16.09Z"/>
  <path class="cls-3" d="M384.71,178.26c-11.7-5.32-24.64-12.1-32.94-19.17-18.39-15.66-56.17-37.11-73.2-27.24-.78.45-1.53.93-2.25,1.46-.2.13-.39.27-.58.42-.3.22-.6.45-.89.69-.03.02-.06.04-.09.07-.31.25-.62.52-.92.79-.46.41-.92.83-1.36,1.27-.34.35-.68.7-1.01,1.06-.35.38-.68.77-1.01,1.16-.33.4-.66.8-.97,1.21-.36.47-.71.95-1.05,1.44-.04.05-.07.1-.11.15-.31.47-.62.94-.92,1.42-.04.06-.07.12-.11.18-.22.36-.44.73-.65,1.1-.46.79-.89,1.61-1.29,2.45-.2.39-.39.8-.57,1.21-.03.05-.05.1-.08.16-.49,1.1-.94,2.22-1.34,3.37-.04.11-.08.23-.12.34-.17.48-.33.97-.48,1.47-.19.61-.37,1.22-.53,1.84-.07.25-.14.51-.2.77-.09.33-.17.66-.24,1-.04.17-.08.33-.12.5-.13.58-.24,1.16-.35,1.74-.01.01-.01.02-.01.04-.11.57-.2,1.14-.29,1.72-.02.15-.04.31-.07.46-.06.43-.12.88-.17,1.32-.09.85-.17,1.7-.23,2.55-.04.57-.07,1.14-.09,1.71v.04c-.03.65-.04,1.3-.04,1.95,0,2.75.21,5.49.64,8.16.16,1.02.35,2.03.58,3.03.56,2.51,1.33,4.94,2.29,7.24,2.17,5.2,4.74,10.65,7.97,15.8,3.81,6.04,8.53,11.65,14.62,15.93.4.28.8.55,1.22.82,7.22,4.73,16.31,7.6,27.93,7.21,18.78-.63,37.31-6.45,52.99-13.35.63-.28,1.26-.56,1.88-.85,23.34-10.54,39.92-23.21,40.77-23.86l.03-.03s-12.4-4.3-26.64-10.75ZM292.96,178.36c-8.89,0-16.09-7.2-16.09-16.08s7.2-16.09,16.09-16.09,16.08,7.2,16.08,16.09-7.2,16.08-16.08,16.08Z"/>
  <path class="cls-3" d="M309.04,162.28c0,8.88-7.2,16.08-16.08,16.08s-16.09-7.2-16.09-16.08,7.2-16.09,16.09-16.09,16.08,7.2,16.08,16.09Z"/>
  <path class="cls-2" d="M209.98,162.28c0,8.88-7.2,16.08-16.09,16.08s-16.08-7.2-16.08-16.08,7.2-16.09,16.08-16.09,16.09,7.2,16.09,16.09Z"/>
  <path class="cls-2" d="M209.98,162.28c0,8.88-7.2,16.08-16.09,16.08s-16.08-7.2-16.08-16.08,7.2-16.09,16.08-16.09,16.09,7.2,16.09,16.09Z"/>
  <path class="cls-2" d="M309.04,162.28c0,8.88-7.2,16.08-16.08,16.08s-16.09-7.2-16.09-16.08,7.2-16.09,16.09-16.09,16.08,7.2,16.08,16.09Z"/>
  <circle class="cls-12" cx="198.67" cy="162.28" r="7.93"/>
  <circle class="cls-12" cx="287.53" cy="162.28" r="7.93"/>
  <path class="cls-11" d="M196.67,460.92c-.91-.94-15.42-16.18-19.54-26l19.54,26Z"/>
  <path class="cls-11" d="M205.37,457.85c-1.93-3.2-14.5-24.16-17.18-30.39l17.18,30.39Z"/>
  <path class="cls-11" d="M213.83,451.27c-.6-.91-10.4-15.62-12.7-23.81l12.7,23.81Z"/>
  <path class="cls-11" d="M264.11,546.55c-9.64,28.62-31.9,34.54-39.28,35.73,8.19-2.31-5.79-17.88-9.57-19.45-1.78-.74-6.95-1.67-13.59-1.85-14.62-12.38-42.06-50.89-48.03-91.43-3.06-20.77,4.67-32.98,13.67-40.08,7.64,16.95,17,31.82,29.39,31.49.35,0,.71-.03,1.07-.07,2.06-.19,4.2-.8,6.42-1.89.49-.24.97-.49,1.42-.74,3.69-2.01,6.37-4.37,8.25-6.95,3.38-4.64,4.17-10.02,3.52-15.49.92.83,1.85,1.7,2.78,2.58-.84,5-1.81,9.95-2.57,13.84-1.69,8.61-3.94,28.41-3.83,43.65.06,9.74,1.09,17.63,3.83,19.54,2.99,2.08,3.6-1.91,3.46-7.44-.19-7.49-1.77-17.79-.71-19.55,1.27-2.12,6.22,17.37,11.22,31.27,2.25,6.25,4.51,11.38,6.45,12.9,2.36,1.86,2.52-1.1,1.8-5.49-.47-2.89-1.33-6.41-2.19-9.59,1.13,3.43,2.61,7.46,4.38,11.33,2.84,6.15,6.44,11.9,10.61,14.18,3.17,1.74,7.24,2.82,11.5,3.51Z"/>
  <path class="cls-1" d="M403.34,398.23c-20.43-35.74-24.51-37.27-25.53-48-.82-8.64-13.92-60.07-31.27-92.53,1.04.59,1.84,1.49,2.42,2.36.26.4.87.16.78-.31-.41-2.01-1.08-4.7-2.06-6.79-1.79-3.83-8.09-6.81-8.09-6.81-25.63,13.43-57.07,23.46-92.57,21.84-24.12-1.1-46.36-6.5-66.19-13.99,0,0-.01,0-.01.01-.31.2-5.21,3.44-8.11,8.14-1.79,2.91-1.77,5.73-.65,6.78.76.71,2.01.62,3.54-.77.56-.51.97-.84,1.25-1,1.65-1-.84,3.33-.79,8.78.05,6.38.3,16.85,1.58,18.12,1.27,1.28.76-11.49,1.79-14.04,1.02-2.55,5.1,10.72,2.8,15.83-2.29,5.11,3.83-4.59,5.11-8.68,1.28-4.08.26,7.66-2.55,13.79s-3.83,11.49-3.07,14.04c.73,2.42,3.3-7.82,8.15-11.9-2.46,12.26-6.75,34.69-7.11,43.05-.34,8.02,7.41,28.68,14.74,45.04,3.41,7.58,6.72,14.24,9.1,18.28,1.13,1.92,2.41,4.13,3.69,6.52-3.81,5.01-6.85,9.26-6.93,11.47-.16,4.58,3.7-.69,9.45-6.43,2.16,4.67,3.97,9.77,4.57,14.79.65,5.47-.14,10.85-3.52,15.49-1.88,2.58-4.56,4.94-8.25,6.95-.45.25-.93.5-1.42.74-2.22,1.09-4.36,1.7-6.42,1.89,5.02,12.66,10.63,25.1,15.98,34.98.07,9.75,1.09,17.64,3.84,19.56,2.99,2.08,3.6-1.92,3.46-7.44,1.43,2.05,2.8,3.78,4.08,5.14,2.13,2.26,4.26,4.46,6.43,6.58,2.25,6.25,4.51,11.37,6.45,12.9,2.41,1.89,2.52-1.22,1.75-5.75.02.09.04.17.05.26.72.59,1.45,1.17,2.19,1.74-.11-.23-.2-.47-.31-.71,2.88,6.41,6.59,12.52,10.92,14.89,10.67,5.83,31.55,4.29,34.92,5.52,3.36,1.23,24.22,5.52,27.29,0,3.06-5.52,9.81-30.68,9.2-44.17-.45-9.77-5.07-29.18-11.55-41.02,17-21.17,42.94-27.18,58.7-28.37,11.07-.84,44.29,5.03,48.11,31.18.07.47.13.94.18,1.42.03-.49.05-.98.06-1.48.63-20.82-2.97-44.78-16.18-67.89ZM359.94,324.7c-4.52,22.57-18.48,68.55-31.79,95.28-2.76,5.56-5.51,10.28-8.13,13.79.19-2.43-.18-4.64-1.36-5.97-4.46-5.01-11.9-19.73-22.59-22.8-8.98-2.57,6.24-17.24,11.37-21.89,1.01-.92,1.43-2.31,1.08-3.62-.43-1.59-1.12-3.89-2.11-6.34,2.5-3.63,4.56-7.05,5.95-10.15,5.7-12.77,14.9-39.32,13.36-49.02-.08-.52-.23-1.13-.42-1.84,1.96.85,3.62.64,3.74-2.04.26-5.66-6.38-11.7-4.98-12.46,1.4-.77,5.24.25,7.28,2.3,2.04,2.04,4.6,4.34,4.55,2.04-.04-2.3-3.02-6.38-3.53-10.21-.51-3.83,1.53-17.62,3.53-13.54,2,4.09-.46,10.73,0,11.75.47,1.02,4.39-2.81,5.66-8.43,1.28-5.61-6.07-19.26-1.96-16.85,4.11,2.41,6.43,9.2,6.69,5.62.25-3.58-5.48-13.77-1.57-13.25h0c7.25,16.42,19.21,47.68,15.22,67.63Z"/>
  <path class="cls-1" d="M205.37,457.85c-1.93-3.2-14.5-24.16-17.18-30.39l17.18,30.39Z"/>
  <path class="cls-1" d="M213.83,451.27c-.6-.91-10.4-15.62-12.7-23.81l12.7,23.81Z"/>
  <path class="cls-1" d="M264.06,442.83l21.15-15.29c-3.13,4.49-20.09,14.66-21.15,15.29Z"/>
  <path class="cls-1" d="M269.12,460.44l25.79-22.38c-3.29,6.27-24.47,21.44-25.79,22.38Z"/>
  <path class="cls-1" d="M297.65,449.02c-5.3,5.28-19.28,15.08-20.67,16.05l20.53-16.21,1.15-.91c-.29.33-.63.69-1.01,1.07Z"/>
  <path class="cls-1" d="M320.02,433.77c-.53,6.72-5.36,15.09-9.19,10.83,2.64-2.94,5.25-6.02,7.83-9.09.45-.54.91-1.12,1.36-1.74Z"/>
  <path class="cls-13" d="M264.06,442.83l21.15-15.29c-3.13,4.49-20.09,14.66-21.15,15.29Z"/>
  <path class="cls-13" d="M269.12,460.44l25.79-22.38c-3.29,6.27-24.47,21.44-25.79,22.38Z"/>
  <path class="cls-13" d="M297.51,448.86s.09.11.14.16c-5.3,5.28-19.28,15.08-20.67,16.05l20.53-16.21Z"/>
  <path class="cls-13" d="M253.27,304.82c-.43.11-.87.15-1.32.1-5.46-.59-43.28-4.02-48.59,14.19-2.46,8.45-3.68,14.17-4.26,17.95-.36,2.33,2.43,3.8,4.14,2.17,4.87-4.63,2.59-1.99,4.77-2.78,0,0-7.86,9.58-10.52,22.47-2.66,12.88,1.66,11.85,9.02,8.17s-.93,14.65,0,22.29c.25,2.05.87,3.9,1.65,5.52,1.52,3.15,6.2,2.5,6.84-.94.81-4.29,1.81-9.2,2.57-11.66,1.52-4.91,9.61-1.85,8.02,8.89s-22.04,30.5-22.24,36.27,5.96-4.05,14.22-10.8,2.77,21.47,0,35.58c-2.77,14.11-7.04,58.28,0,63.19s.91-23.93,2.75-26.99,11.42,39.26,17.67,44.17-2.95-23.86-2.95-23.86c0,0,6.88,28.45,17.55,34.29,10.67,5.84,31.55,4.29,34.91,5.52,3.36,1.23,24.22,5.52,27.29,0,3.07-5.52,9.82-30.67,9.2-44.17s-9.2-45.4-19.63-50.31c-10.43-4.91-12.27-15.34-6.75-15.95,5.52-.61,7.98.68,13.19,6.47,5.21,5.8,12.29-11.8,7.83-16.81-4.46-5-11.9-19.73-22.59-22.8-8.98-2.57,6.24-17.24,11.38-21.89,1.01-.91,1.42-2.3,1.07-3.61-1.29-4.86-5.04-16.26-12.45-18.66-9.47-3.07,11.32-10.62,16.3-10.43,4.97.19,3.18-14.11-3.32-20.86-6.5-6.75-5.96-15.95-12.98-20.86s-33.71-6.07-42.79-3.86Z"/>
  <path class="cls-3" d="M217.38,435.82c-.6-5.02-2.41-10.12-4.57-14.79-.81-1.75-1.66-3.44-2.52-5.04-1.28-2.39-2.56-4.6-3.69-6.52-2.38-4.04-5.69-10.7-9.1-18.28-5.41.45-10.21,1.62-14.47,3.27-10.82,4.21-18.08,11.53-22.73,18.09,2.18,5.55,4.5,11.35,7.01,16.92,7.64,16.95,17,31.82,29.39,31.49.35,0,.71-.03,1.07-.07,2.06-.19,4.2-.8,6.42-1.89.49-.24.97-.49,1.42-.74,3.69-2.01,6.37-4.37,8.25-6.95,3.38-4.64,4.17-10.02,3.52-15.49ZM177.13,434.92l19.54,26c-.91-.94-15.42-16.18-19.54-26ZM188.19,427.46l17.18,30.39c-1.93-3.2-14.5-24.16-17.18-30.39ZM213.53,450.82c-.05-.09-.11-.19-.19-.3-.57-.86-1.54-2.37-2.71-4.25-.1-.17-.2-.34-.31-.51-.22-.35-.44-.7-.66-1.07-.16-.27-.33-.55-.5-.83-1-1.67-2.06-3.5-3.08-5.37-.2-.36-.4-.73-.6-1.1-.28-.54-.56-1.07-.84-1.61-1.1-2.15-2.08-4.26-2.79-6.16-.08-.2-.15-.4-.22-.6-.19-.54-.36-1.06-.5-1.56l12.67,23.76c-.06-.09-.15-.22-.27-.4Z"/>
  <path class="cls-3" d="M196.67,460.92c-.91-.94-15.42-16.18-19.54-26l19.54,26Z"/>
  <path class="cls-3" d="M205.37,457.85c-1.93-3.2-14.5-24.16-17.18-30.39l17.18,30.39Z"/>
  <path class="cls-3" d="M213.83,451.27c-.6-.91-10.4-15.62-12.7-23.81l12.7,23.81Z"/>
  <path class="cls-11" d="M197.5,391.19c-5.41.45-10.21,1.62-14.47,3.27-10.82,4.21-18.08,11.53-22.73,18.09-1.62-4.12-3.16-8.1-4.64-11.76-10.75-26.56-8.66-47.49-3.55-79.15,3.04-18.89,12.67-39.31,19.95-52.71.76.71,2.01.62,3.54-.77.56-.51.97-.84,1.25-1,1.65-1-.84,3.33-.79,8.78.05,6.38.3,16.85,1.58,18.12,1.27,1.28.76-11.49,1.79-14.04,1.02-2.55,5.1,10.72,2.8,15.83-2.29,5.11,3.83-4.59,5.11-8.68,1.28-4.08.26,7.66-2.55,13.79s-3.83,11.49-3.07,14.04c.73,2.42,3.3-7.82,8.15-11.9-2.46,12.26-6.75,34.69-7.11,43.05-.34,8.02,7.41,28.68,14.74,45.04Z"/>
  <path class="cls-3" d="M326.51,416.95c-.24-.43-.48-.85-.73-1.26-.1-.17-.2-.34-.3-.5-.21-.35-.42-.69-.63-1.02-.68-1.08-1.37-2.11-2.07-3.09-.31-.45-.63-.88-.95-1.31-.03-.04-.06-.08-.08-.11-.27-.36-.54-.7-.81-1.04-.19-.26-.4-.52-.6-.77-.01-.01-.01-.02-.02-.02-.61-.76-1.22-1.49-1.85-2.19-.22-.24-.43-.48-.65-.72-.65-.71-1.3-1.39-1.95-2.04-.22-.21-.43-.42-.64-.62-.5-.49-1.01-.96-1.52-1.41-.39-.36-.78-.7-1.17-1.03-.4-.33-.79-.66-1.18-.97-1.56-1.27-3.12-2.38-4.64-3.36-.32-.21-.64-.41-.96-.61-2.3-1.43-4.51-2.56-6.55-3.46-.36-.16-.72-.31-1.07-.46-.31-.13-.61-.25-.91-.36-.63-.25-1.24-.47-1.82-.67-.29-.11-.58-.2-.85-.29-.28-.09-.55-.18-.82-.26-5.65,6.71-11.65,13.45-16.87,19.58-7.25,8.53-12.47,22.14-12.86,33.9-.24,7.03,1.25,13.39,5.05,17.63h.01c.88.99,1.89,1.86,3.04,2.6,1.56,1.01,3.15,1.68,4.77,2.05h.01c8.16,1.93,16.96-3.61,25.74-11.99,2.74-2.62,5.48-5.51,8.2-8.55,2.64-2.94,5.25-6.02,7.83-9.09.45-.54.91-1.12,1.36-1.74,2.62-3.51,5.37-8.23,8.13-13.79-.53-1.04-1.08-2.06-1.64-3.03ZM268.33,440.21c-.21.13-.42.26-.61.39-1.69,1.04-2.95,1.81-3.46,2.11l20.95-15.17c-.24.35-.57.74-.97,1.15-.08.08-.17.16-.25.25-.43.42-.92.87-1.47,1.34-.19.16-.38.33-.58.49-.52.43-1.09.88-1.69,1.33-.19.15-.38.29-.58.44-2.21,1.67-4.75,3.41-7.14,4.97-.15.1-.3.2-.44.29-1.34.88-2.63,1.7-3.76,2.41ZM269.12,460.44l25.79-22.38c-3.29,6.27-24.47,21.44-25.79,22.38ZM297.65,449.02c-5.3,5.28-19.28,15.08-20.67,16.05l20.53-16.21,1.15-.91c-.29.33-.63.69-1.01,1.07Z"/>
  <path class="cls-3" d="M264.06,442.83l21.15-15.29c-3.13,4.49-20.09,14.66-21.15,15.29Z"/>
  <path class="cls-3" d="M269.12,460.44l25.79-22.38c-3.29,6.27-24.47,21.44-25.79,22.38Z"/>
  <path class="cls-3" d="M298.66,447.95c-.29.33-.63.69-1.01,1.07-5.3,5.28-19.28,15.08-20.67,16.05l20.53-16.21,1.15-.91Z"/>
  <path class="cls-11" d="M359.94,324.7c-4.52,22.57-18.48,68.55-31.79,95.28-.53-1.04-1.08-2.06-1.64-3.03-.24-.43-.48-.85-.73-1.26-.1-.17-.2-.34-.3-.5-.21-.35-.42-.69-.63-1.02-.68-1.08-1.37-2.11-2.07-3.09-.31-.45-.63-.88-.95-1.31-.03-.04-.06-.08-.08-.11-.27-.36-.54-.7-.81-1.04-.19-.26-.4-.52-.6-.77-.01-.01-.01-.02-.02-.02-.61-.76-1.22-1.49-1.85-2.19-.22-.24-.43-.48-.65-.72-.65-.71-1.3-1.39-1.95-2.04-.22-.21-.43-.42-.64-.62-.5-.49-1.01-.96-1.52-1.41-.39-.36-.78-.7-1.17-1.03-.4-.34-.79-.66-1.18-.97-1.56-1.27-3.12-2.38-4.64-3.36-.32-.22-.64-.42-.96-.61-2.3-1.43-4.51-2.56-6.55-3.46-.36-.16-.72-.31-1.07-.46-.31-.13-.61-.25-.91-.36-.63-.25-1.24-.47-1.82-.67-.29-.11-.58-.2-.85-.29-.28-.09-.55-.18-.82-.26,4.68-5.56,9.12-11.1,12.67-16.23,2.5-3.63,4.56-7.05,5.95-10.15,5.7-12.77,14.9-39.32,13.36-49.02-.08-.52-.23-1.13-.42-1.84,1.96.85,3.62.64,3.74-2.04.26-5.66-6.38-11.7-4.98-12.46,1.4-.77,5.24.25,7.28,2.3,2.04,2.04,4.6,4.34,4.55,2.04-.04-2.3-3.02-6.38-3.53-10.21-.51-3.83,1.53-17.62,3.53-13.54,2,4.09-.46,10.73,0,11.75.47,1.02,4.39-2.81,5.66-8.43,1.28-5.61-6.07-19.26-1.96-16.85,4.11,2.41,6.43,9.2,6.69,5.62.25-3.58-5.48-13.77-1.57-13.25h0c7.25,16.42,19.21,47.68,15.22,67.63Z"/>
  <path class="cls-11" d="M388.53,545.82c-1.41,2.14-2.91,4.15-4.48,6.05-19.19,23.32-48.42,29.15-57.02,30.4,8.12-2.34-5.83-17.87-9.6-19.44-.72-.3-2-.63-3.7-.93-3.57-3.57-6.64-7.1-9.24-10.61-1.36-1.84-2.59-3.67-3.7-5.5-12.91-21.27-9.23-42.36,2.98-68.41,2.48-5.28,5.42-9.93,8.7-14.01,17-21.17,42.94-27.18,58.7-28.37,11.07-.84,44.29,5.03,48.11,31.18.07.47.13.94.18,1.42,0,.01,0,.03,0,.04.06.52.1,1.04.13,1.57,1.61,28.73-9.1,43.41-31.06,76.61Z"/>
  <path class="cls-9" d="M288.88,246.51c0,7.03-19.9,11.13-39.56,11.56h-.05c-.95,0-1.69-.6-2.28-1.08-.37-.31-.8-.65-1.06-.65-.42,0-1.1.39-1.69.73-.87.5-1.76,1-2.71.99-19.46-.47-39.17-4.58-39.17-11.55,0-.55.45-1,1-1s1,.45,1,1c0,4.18,14.96,9.02,37.22,9.55.39,0,1.06-.38,1.66-.72.45-.26.91-.52,1.38-.71v-8.48h-12.86c-7.83,0-14.17-6.34-14.17-14.17,0-3.92,1.59-7.46,4.15-10.02s6.1-4.15,10.02-4.15h28.34c7.83,0,14.17,6.34,14.17,14.17,0,3.92-1.59,7.46-4.15,10.02s-6.1,4.15-10.02,4.15h-13.48v8.29c.65.2,1.18.63,1.63,1,.37.29.78.63,1.02.63h.01c22.49-.49,37.6-5.34,37.6-9.56,0-.55.44-1,1-1s1,.45,1,1Z"/>
  <path class="cls-4" d="M224.83,582.28s-.01.01-.02,0c-1.14.19-1.93.26-2.25.28-.05.01-.1.01-.16.01h-55.49s-10.53-8.51,5.8-16.34c9.24-4.43,20.33-5.48,28.96-5.25,6.64.18,11.81,1.11,13.59,1.85,3.78,1.57,17.76,17.14,9.57,19.45Z"/>
  <path class="cls-4" d="M224.81,582.28c-.62.18-1.36.28-2.25.28.32-.02,1.11-.09,2.25-.28Z"/>
  <path class="cls-4" d="M327.03,582.27h-.01c-1.18.17-1.97.26-2.29.29-.05.01-.1.01-.16.01h-55.48s-10.54-8.51,5.79-16.34c13.46-6.45,30.86-5.73,38.85-4.33,1.7.3,2.98.63,3.7.93,3.77,1.57,17.72,17.1,9.6,19.44Z"/>
  <path class="cls-4" d="M327.02,582.27c-.63.19-1.38.29-2.29.29.32-.03,1.11-.12,2.29-.29Z"/>
  <path class="cls-11" d="M196.67,460.92c-.91-.94-15.42-16.18-19.54-26l19.54,26Z"/>
  <path class="cls-11" d="M205.37,457.85c-1.93-3.2-14.5-24.16-17.18-30.39l17.18,30.39Z"/>
  <path class="cls-11" d="M213.83,451.27c-.6-.91-10.4-15.62-12.7-23.81l12.7,23.81Z"/>
  <path class="cls-11" d="M298.66,447.95c-.29.33-.63.69-1.01,1.07-5.3,5.28-19.28,15.08-20.67,16.05l20.53-16.21,1.15-.91Z"/>
  <path class="cls-11" d="M294.91,438.06c-3.29,6.27-24.47,21.44-25.79,22.38l25.79-22.38Z"/>
  <path class="cls-11" d="M285.21,427.54c-3.13,4.49-20.09,14.66-21.15,15.29l21.15-15.29Z"/>
  <path class="cls-5" d="M113.65,250.38c-.17,0-.33-.08-.43-.24-.15-.23-.07-.54.16-.69,19.8-12.24,90.31-14.03,93.3-14.11.27-.02.51.21.51.49,0,.28-.21.5-.49.51-.73.02-73.23,1.86-92.8,13.96-.08.05-.17.07-.26.07Z"/>
  <path class="cls-5" d="M204.8,224.64s-.05,0-.07,0c-.87-.12-86.95-12.23-104.81-10.21-.28.02-.52-.17-.55-.44-.03-.27.17-.52.44-.55,17.98-2.02,104.19,10.09,105.06,10.21.27.04.46.29.43.56-.04.25-.25.43-.49.43Z"/>
  <path class="cls-5" d="M372.55,248.13c-.06,0-.12-.01-.18-.03-16.33-6.28-90.75-8.62-91.5-8.65-.28,0-.49-.24-.48-.52,0-.28.29-.47.52-.48,3.07.09,75.34,2.37,91.82,8.71.26.1.39.39.29.65-.08.2-.27.32-.47.32Z"/>
  <path class="cls-5" d="M282.16,224.64c-.24,0-.45-.17-.49-.42-.05-.27.14-.53.41-.58.73-.12,73.42-12.17,98.77-5.21.27.07.42.35.35.61-.07.27-.35.42-.62.35-25.13-6.9-97.61,5.11-98.34,5.23-.03,0-.06,0-.08,0Z"/>
</svg>