<?xml version="1.0" encoding="UTF-8"?>
<svg id="Unicorn" xmlns="http://www.w3.org/2000/svg" viewBox="0 0 595.28 595.28" width="80px" height="101px">
  <defs>
    <style>
      .cls-1 {
        fill: #fff200;
      }

      .cls-1, .cls-2, .cls-3, .cls-4, .cls-5, .cls-6, .cls-7, .cls-8, .cls-9, .cls-10, .cls-11, .cls-12, .cls-13, .cls-14, .cls-15 {
        stroke-width: 0px;
      }

      .cls-2 {
        fill: #58595b;
      }

      .cls-3 {
        fill: #edecbc;
      }

      .cls-4 {
        fill: #f7941d;
      }

      .cls-5 {
        fill: #bfdcf3;
      }

      .cls-6 {
        fill: #dddcb8;
      }

      .cls-7 {
        fill: #fecf75;
      }

      .cls-8 {
        fill: #ec008c;
      }

      .cls-9 {
        fill: #27aae1;
      }

      .cls-10 {
        fill: #ecf3fa;
      }

      .cls-11 {
        fill: #f9f9e2;
      }

      .cls-12 {
        fill: #fff;
      }

      .cls-13 {
        fill: #f7f7cf;
      }

      .cls-14 {
        fill: #00a79d;
      }

      .cls-15 {
        fill: #f5d9b7;
      }
    </style>
  </defs>
  <g>
    <path class="cls-9" d="M305.09,307.71c-8.99,3.49-20.88,6.65-34.52,6.65h-.71c-2.44-.02-4.8-.22-7.09-.59-10.34-9.95-16.39-23.22-17.39-25.53-.83-1.91-1.46-4.26-1.92-6.97-.26-1.51-.47-3.14-.63-4.87-.88-9.14-.55-20.98-.21-33.26.16-5.6.32-11.38.38-17.14.04-4.04.02-7.89-.09-11.55,1.25,1.71,2.81,3.44,4.76,4.96,1.34,2.44,10.25,19.23,10.47,32.13.14,7.53.38,21.26,6.78,32.16.95,1.63,2.04,3.19,3.29,4.66,4,4.72,9.63,8.48,17.53,10.29.86.2,1.72.37,2.57.5,1.13.33,9.09,2.82,16.78,8.56Z"/>
    <path class="cls-10" d="M145.4,102.56c-9.05-1.38-17.33-4.36-24.19-7.6.24-20.75,3.56-22.41,4.02-22.54,1.15-.33,6.97,0,20.17,30.14Z"/>
    <path class="cls-10" d="M153.94,123.69c-12.12-.34-23.28-3.99-32.16-8.12-.04-.61-.07-1.21-.1-1.82-.31-5.93-.46-11.02-.47-15.37,7.28,3.32,16.02,6.28,25.61,7.46,1.6,3.78,3.31,7.97,5.12,12.63.68,1.74,1.34,3.48,2,5.22Z"/>
    <path class="cls-10" d="M161.18,143.84c-14.14,1.22-27.39-2.57-37.8-7.19-.49-5.29-.99-11.34-1.39-17.57,9.2,4.1,20.62,7.56,33.09,7.66,2.21,5.95,4.27,11.77,6.1,17.1Z"/>
    <path class="cls-10" d="M165.67,157.2c-3.41,3.53-6.54,6.37-9.01,6.91-1.99.43-3.97.87-5.93,1.32-7.02-7.98-16.56-16.57-26.33-18.54-.21-1.96-.44-4.21-.68-6.7,9.02,3.81,19.99,6.9,31.89,6.9,2.16,0,4.36-.1,6.58-.31,1.31,3.84,2.48,7.37,3.48,10.42Z"/>
    <path class="cls-4" d="M143.12,163.17c-5.79-2.94-11.66-5.05-16.15-4.72-9.05.68-17.89,6.25-25.69,11.16-4.26,2.67-8.27,5.2-11.39,6.25-4.56,1.53-8.72,1.84-12.83,1.11.71-.13,1.38-.29,2.01-.5,3.57-1.19,7.31-4.81,11.65-9.01,7.28-7.04,16.34-15.81,28.25-16.94.6-.06,1.2-.07,1.8-.05,1.36.03,2.73.25,4.1.61,6.36,1.69,12.75,6.62,18.25,12.09Z"/>
    <path class="cls-1" d="M143.77,168.03c-2.55.18-5.14.78-7.42,2.08-1.71.97-3.25,2.4-4.8,4.12-1.11,1.22-2.22,2.58-3.39,4.03-5.01,6.18-10.68,13.19-20.75,14.76-7.65,1.2-15.91,1.25-24.16-3.3-1.38-.75-2.77-1.65-4.15-2.69-2.58-1.93-5.16-4.38-7.7-7.45,3.26,1.16,6.51,1.78,9.88,1.78,3.16,0,6.42-.54,9.88-1.71,3.57-1.2,7.79-3.85,12.25-6.66,7.4-4.66,15.8-9.95,23.86-10.55,3.91-.3,9.52,1.86,15.22,4.9.43.22.85.45,1.28.69Z"/>
    <path class="cls-14" d="M272.27,215.97c-2.53,2.52-5.51,4.37-8.84,4.43-16.56.23-20.68-14.42-21.11-16.13-.01-.01-.01-.02-.01-.03-1.33-14.26-4.82-25.01-12.72-32.33-8.11-7.51-18.94-9.06-27.03-8.93.45-1.62.87-3.19,1.22-4.73,8.87-1.27,20.8-1.91,28.08,2.08,12.64,6.91,20.73,29.77,21.45,35.76.48,3.98,3.71,11.62,10.65,16.34,2.51,1.71,5.3,2.9,8.31,3.54Z"/>
    <path class="cls-4" d="M214.28,234.77c-.19,3.82-.37,7.57-.46,11.37-11.35-17.56-18.33-35.96-18.31-40.24.04-11.09,1.29-19.82,2.88-27.09,7.15,5.15,14.85,13.39,15.85,25.38.95,11.49.49,21.19.04,30.58Z"/>
    <path class="cls-8" d="M255.5,312.01c-21.36-7-34.77-28.32-36.74-44.42-.37-3.03-.62-5.93-.77-8.74-.14-2.36-.2-4.65-.21-6.91-.04-5.76.22-11.29.49-16.98.46-9.51.93-19.35-.05-31.11-1.2-14.43-10.64-23.82-18.83-29.32.66-2.67,1.36-5.15,2.02-7.48,7.47-.28,17.96.85,25.46,7.8,7.13,6.6,10.29,16.65,11.51,30.15.55,6.25.7,13.24.62,20.96-.06,5.72-.22,11.49-.38,17.07-.32,11.42-.61,21.95-.04,30.66.12,1.79.27,3.49.47,5.12.53,4.33,1.37,8.06,2.66,11.03,1.43,3.29,6.07,13.15,13.79,22.17Z"/>
    <path class="cls-1" d="M319.84,277.44c-.29.56-.59,1.11-.91,1.65-2.23,3.81-4.78,6.98-7.59,9.48-1.59,1.42-3.26,2.62-5.01,3.61-5.84,3.31-12.52,4.22-19.7,2.57-4.79-1.1-8.65-2.98-11.76-5.44-1.76-1.39-3.28-2.97-4.58-4.71-6.55-8.64-7.94-21.1-8.15-33.13-.17-10.01-4.96-21.72-8.21-28.57,2.59.94,5.59,1.51,9.05,1.51.17,0,.34,0,.52-.01,1.4-.02,2.74-.27,4.02-.69,3.21.97,18.41,6.42,20.25,22.56,2.24,19.46,6.08,31.02,19.13,32.5,1.29.15,2.56.23,3.79.23,3.25,0,6.28-.51,9.15-1.56Z"/>
    <path class="cls-9" d="M529.99,330.81c-5.81-2.07-11.63-6.65-15.22-15.57-6.46-16.01-23.62-58.57-67.5-52.43-18.18,2.54-31.91,13.94-39.73,32.98-2.15,5.24-3.57,10.35-4.51,14.73-.14-14.22,1.92-38.83,15.98-55,9.28-10.68,22.52-16.17,39.33-16.31h.82c49.96,0,58,39.31,63.87,68.05,2,9.79,3.75,18.32,6.96,23.55Z"/>
    <path class="cls-14" d="M559.04,360.88c-7.97,10.9-22.23,16.28-37.18,14.04-11.21-1.68-20.43-7.27-25.9-15.44h0c-.97-1.45-1.82-2.96-2.54-4.55-.41-.88-.77-1.79-1.09-2.71-12.61-36.3-20.65-52.35-44.67-53.69-.7-.04-1.4-.05-2.09-.05-19.28,0-34.31,14.75-38.8,19.7-.28-.28-.57-.56-.87-.83,2.09-14.07,10.32-46.16,41.92-50.58,36.16-5.06,52.79,24.05,63.24,49.97,6.12,15.18,17.93,19.38,27.02,19.51.07.01.13.01.19.01,2.92.02,5.55-.37,7.61-.95,11.63-3.29,10.75-14.23,10.38-18.9-.02-.32-.05-.66-.07-.99,1.84.39,4.12,2.31,6.03,5.21,4.62,7.01,9.16,23.39-3.18,40.25Z"/>
    <path class="cls-8" d="M524.7,394.02c-.06.1-.14.2-.22.32-6.39,8.88-18.67,19.26-32.25,19.26-5.8,0-14.07-1.37-20.48-7.86-6.26-6.34-9.35-16.19-9.18-29.27.36-27.83-1.41-48.39-11.21-58.31-4.45-4.5-10.29-6.69-17.85-6.69-11.33,0-18.86,4.94-23.61,10-.11-.13-.22-.26-.34-.39,4.03-4.43,19.28-19.6,37.88-18.55,21.7,1.2,28.85,15.7,41.11,51,.78,2.25,1.78,4.39,2.97,6.4h0c-2.13,6.68-3.25,15.4.21,24.38,4.51,11.76,18.86,10.63,27.42,9.96,1.95-.16,4.26-.34,5.55-.25Z"/>
    <path class="cls-7" d="M445,512.86c-1.55,6.03-6.66,9.48-14.51,9.89h-3.38c-9.03-.44-17.54-3.03-25.46-7.73,7.7-3.19,18.57-10.43,29.16-26.85,1.07.68,2.16,1.28,3.25,1.82,7.96,3.9,13.08,14.59,10.94,22.87Z"/>
    <path class="cls-7" d="M382.75,504.53c-.34,4.05-.65,6.4-.92,6.98-4.39,8.29-19.37,11.24-31.93,11.24-3.02,0-5.14-.76-6.29-2.25-2.52-3.24-.82-9.83.2-13.76.2-.77.38-1.45.5-2.03.58-2.59,1.17-6.06,1.75-10.03,6.81,2.87,17.79,6.2,32.06,6.2.48,0,.97,0,1.46-.01,1.04,1.26,2.09,2.48,3.17,3.66Z"/>
    <path class="cls-13" d="M376.42,496.82c-13.43-.3-23.71-3.66-29.78-6.31,2.3-17.1,4.38-40.36,4.91-46.45.58-.14,1.18-.29,1.8-.44,4,19.61,12.33,38.68,23.07,53.2Z"/>
    <path class="cls-7" d="M220.15,518.91c-.32,1.41-1.89,2.29-3.15,2.78-4.22,1.62-10.27,1.07-11.99-.15-5.96-4.23-9.14-14.99-9.53-16.37,2.13.18,4.48.3,7.01.3,5.09,0,10.95-.47,17.39-1.78.66,10.92.48,14.25.27,15.22Z"/>
    <path class="cls-13" d="M219.62,499.63c-10.17,2.12-18.9,2.03-25.29,1.34l-13.37-48.86c6.24-8.83,12.07-16.09,17.36-21.62,4.96,2.33,10.24,4.51,15.72,6.51,3.14,31.19,4.78,50.58,5.58,62.63Z"/>
    <path class="cls-7" d="M143.09,508.17c-4.99,9.2-11.18,14.2-17.88,14.58h-1.64c-.95-.05-1.9-.18-2.86-.41-7.76-1.91-13.17-9.13-13.03-13.06.16-4.62,6.35-12.36,10.46-17.5,4.93,5.93,12.92,12.86,24.95,16.39Z"/>
    <path class="cls-11" d="M427.51,485.9c-11.45,17.72-23.18,24.07-30.12,26.34-3.85-2.72-7.55-5.98-11.09-9.76l-.03-.03c-.55-.59-1.09-1.19-1.64-1.8-1.08-1.24-2.15-2.52-3.2-3.86-11.65-14.76-20.65-35.14-24.55-56-.56-2.96-.99-5.86-1.27-8.61-.29-2.72-.44-5.29-.44-7.65,0-.92-.57-1.77-1.45-2.01-1.33-.36-2.55.65-2.55,1.93,0,4.5.5,9.73,1.44,15.23-1.2.3-2.32.57-3.38.81h-.01c-59.75,13.87-108.71,1.69-132.6-6.82h-.05c-5.31-1.91-10.41-3.99-15.23-6.2,4.96-4.76,9.42-7.91,13.28-9.37,1.41-.54,2.77-.86,4.03-.93,1.1-.07,1.94-1.02,1.88-2.12-.07-1.1-1.02-1.95-2.12-1.88-1.68.1-3.44.51-5.22,1.2-4.7,1.77-9.86,5.49-15.71,11.29h-.02s-.97.98-.97.98c-.02.01-.03.02-.04.03h0c-5.85,5.96-12.35,14-19.31,23.91l-.54.77h0c-15.34,21.99-28.2,46.19-31.69,53.2-12.1-3.31-19.79-10.21-24.31-15.88.1-.13.2-.26.29-.38,19.21-25.42,29.61-79.65,32.94-121.92,3.01-38.28,1.59-88.22-11.76-107.63,6.07-1.45,12.69-3.36,19.92-5.85,1.04-.36,1.6-1.5,1.24-2.54-.36-1.05-1.5-1.6-2.54-1.24-8.25,2.84-15.67,4.91-22.35,6.39-.1.01-.2.03-.29.06-29.18,6.39-44.1,1.36-51.23-1.06-3-1.01-4.81-1.62-6.36-.8-.53.29-1.24.88-1.56,2.05-1.44,5.26-5.76,10.32-11.26,13.2-2.61,1.36-11.38,1.18-20.38-2.74-5.32-2.31-14.69-7.77-17.58-18.29-5.32-19.33,5.46-28.15,21.78-41.5,5.78-4.73,15.18-9.8,27.22-14.84,7.02,4.68,14.07,6.13,20.67,6.13,3,0,5.91-.3,8.68-.74,11.58-1.81,18.05-9.78,23.24-16.19,2.57-3.17,4.79-5.91,7.05-7.19,3.9-2.21,9.23-1.77,12.96-1.04.07.02.14.03.2.04.05.06.1.12.14.18t.01.01c1.41.92,2.76,1.84,4.03,2.73,1.19.83,2.63-.65,1.76-1.81-.36-.49-.74-1-1.14-1.52-.57-.74-1.17-1.51-1.8-2.3-.23-.29-.47-.58-.72-.88-.04-.05-.08-.09-.11-.14,1.28-.29,2.56-.57,3.85-.85,3.07-.66,6.19-3.17,9.56-6.52,1.03-1.02,2.07-2.11,3.15-3.26.62-.66,1.26-1.35,1.9-2.04,6.1-6.57,13.02-14.02,20.17-15.76,3.17-.77,5.45-.61,6.77.49,1.59,1.31,2.24,4.27,1.99,9.03-.08,1.56-.29,3.13-.59,4.75-.26,1.38-.58,2.8-.95,4.25-.36,1.37-.75,2.79-1.16,4.25-.16.58-.33,1.17-.5,1.77-.22.78-.45,1.58-.68,2.39-.44,1.58-.89,3.22-1.33,4.95-.35,1.32-.69,2.7-1.02,4.13-1.78,7.77-3.25,17.19-3.3,29.44-.03,6.13,8.68,28.09,22.28,47.33.07,4.7.35,9.58,1,14.87,2.31,18.86,19.23,44.36,45.94,49.4,2.4.45,4.89.74,7.45.84.55.02,1.1.04,1.65.04h.76c15.4,0,28.53-3.76,38.07-7.72,1.41-.58,2.74-1.17,3.99-1.76-1.07-1.06-2.17-2.04-3.28-2.95-3.56-2.93-7.27-5.16-10.51-6.8,5.03-.88,9.69-3.04,13.86-6.43,21.56,1.82,44.78,4.55,65.26,12.42,8.26,3.17,15.34,7.06,21.22,11.67.84.65,1.66,1.32,2.45,2,.64.56,1.27,1.13,1.88,1.7.61.58,1.21,1.17,1.79,1.77.71.72,1.39,1.46,2.06,2.22.89,1.03,1.75,2.08,2.55,3.16,13.76,18.34,14.78,44.23,2.97,77.41-1.31,3.67-2.39,7.24-3.23,10.6-1.09,4.31-1.88,8.59-2.36,12.71-3.19,27.28,7.08,47.44,20.2,57.54Z"/>
    <path class="cls-5" d="M129.51,70.91s-3.06,2.55-2.55,18.21,5.45,62.98,5.45,62.98l-10.41-4.77-2.53-41.36,1.75-26.89s-1.24-8.17,3.53-8.17,5.11,1.45,5.11,1.45"/>
    <path class="cls-2" d="M565.56,318.42c-3.43-5.19-7.73-7.77-11.48-6.9-2.18.5-2,2.79-1.81,5.21.5,6.24.33,12.52-7.48,14.73-1.72.49-3.91.82-6.34.81h-.02c-6.26-.29-8.56-11.56-11.48-25.81-5.8-28.41-14.55-71.25-67.79-71.25h-.86c-18.01.16-32.25,6.11-42.32,17.7-15.45,17.79-17.31,44.22-16.99,58.79-5.62-4.02-12.14-7.47-19.57-10.32-19.85-7.62-41.99-10.5-62.82-12.36,2.1-2.28,4.03-4.92,5.78-7.9,1.28-2.18,2.35-4.42,3.25-6.68.97-2.39,1.73-4.8,2.34-7.17-1.82,1.87-3.69,3.38-5.63,4.56-4.45,2.68-9.31,3.62-14.99,2.97-9.3-1.06-13.24-8.37-15.6-28.98-1.69-14.71-13.14-21.76-19.53-24.58,1.81-1.31,3.45-2.94,4.89-4.68,1.1-1.32,2.09-2.7,2.97-4.05-1.67.14-3.28.12-4.82-.06-3.33-.38-6.35-1.49-9.05-3.32-5.8-3.95-8.56-10.39-8.93-13.52-.68-5.65-8.6-30.64-23.5-38.79-7.87-4.31-19.89-3.95-29.16-2.74.21-1.31.35-2.61.42-3.92.2-3.9.07-9.42-3.44-12.33-2.38-1.97-5.74-2.39-10.27-1.28-8.31,2.02-15.66,9.94-22.15,16.92-.13.14-.26.28-.39.42-2.44-7.42-5.75-17.13-9.49-27.26-.36-.98-.73-1.96-1.1-2.95-.82-2.21-1.67-4.43-2.53-6.64-1.51-3.89-2.95-7.47-4.34-10.78-.45-1.08-.89-2.13-1.32-3.15-14.2-33.1-21.49-35.76-25.85-34.55-3.15.88-6.53,4.81-6.93,24.42-.02,1.11-.04,2.26-.04,3.47-.01,4.83.14,10.48.48,17.11.01.14.01.28.02.42.05,1.05.11,2.11.18,3.16.36,6.13.84,12.15,1.31,17.53.12,1.25.23,2.46.34,3.63.28,3.03.56,5.79.81,8.16-.58,0-1.16.02-1.74.08-13.31,1.26-22.93,10.57-30.65,18.05-3.99,3.85-7.43,7.19-10.13,8.09-2.83.94-7.05.71-11.55-.25-.38-.08-.77-.17-1.16-.26-1.47-.36-2.95-.78-4.41-1.27,1.03,1.8,2.07,3.49,3.11,5.07.02.03.04.05.06.08,3.61,5.44,7.32,9.59,11.07,12.73-11.34,4.89-20.25,9.82-26.01,14.54-5.65,4.62-10.78,8.82-14.87,13.17-8.16,8.66-12.23,17.95-8.23,32.49,2.48,8.99,9.52,16.41,19.84,20.9,8.83,3.84,19.3,4.99,23.84,2.61,6.25-3.27,11.21-9.02,13.09-15.11.06.01.12.03.19.05.71.17,1.78.53,2.75.86,7.39,2.5,22.74,7.67,52.29,1.41,11.29,14.25,16.01,55.65,12.02,106.36-4.15,52.69-16.27,98.23-31.7,119.21-.15.21-.3.41-.45.61-.59.78-1.29,1.67-2.06,2.63-.19.24-.39.49-.59.74-4.71,5.88-11.16,13.93-11.36,19.89-.15,4.25,3.3,9.87,8.61,13.61,3.09,2.59,8.96,4.25,11.77,4.04,2.81-.21,9.19-1.07,12-2.85,2.81-1.79,11.02-14.76,11.02-14.76.31-.59.61-1.2.91-1.83.22-.46.53-1.09.93-1.87,3.8-7.51,15.26-28.87,29.06-49.08l12.03,43.98,1.18,4.29.38,1.39c.13.48,2.87,10.67,8.75,16.69,0,0,3.53,3.48,9.02,3.48s8.29-.38,9.57-1.02,3.6-2.46,3.6-2.46c.91-1.03,1.34-2.09,1.54-2.98.19-.84.28-2.37.28-4.58,0-2.93-.16-7.07-.49-12.4-.07-1.29-.16-2.65-.26-4.08-.53-7.85-1.35-17.81-2.45-29.84-.82-8.98-1.79-19.12-2.93-30.41,16.66,5.64,43.33,12.32,76.33,12.32,16.25,0,34.04-1.63,52.92-5.79-.43,4.87-1.41,15.63-2.63,26.93-.61,5.68-1.28,11.5-1.97,16.78-.19,1.46-.38,2.87-.58,4.23-.62,4.38-1.25,8.18-1.86,10.92-.12.53-.29,1.17-.47,1.89-1.19,4.58-3.15,12.2.37,17.01,0,0,2.94,3.37,7.15,4,4.22.63,10.34-.52,13.28-.52s13.05-3.48,13.05-3.48c4.91-1.99,9.24-4.95,11.58-9.37.43-.81.73-2.24,1.04-5.1,1.92,1.86,3.89,3.57,5.89,5.15,1.47,1.16,2.96,2.24,4.47,3.24,3.73,2.48,7.59,4.51,11.58,6.08,4.73,2.11,18.67,4,18.67,4,.6.03,1.2.04,1.78.04.52,0,1.04-.02,1.55-.04,0,0,9.81-1.27,12.65-4,2.9-2.17,4.92-5.16,5.88-8.9,2.61-10.13-3.37-22.71-13.06-27.46-.98-.48-1.94-1.02-2.9-1.62-1.12-.68-2.21-1.45-3.29-2.3-12-9.39-21.33-28.16-18.34-53.65.45-3.95,1.21-8.05,2.26-12.2.81-3.24,1.86-6.68,3.11-10.23,12.36-34.7,10.81-62.38-4.25-81.89,4.1-4.51,10.78-9.03,21.1-9.03,6.44,0,11.35,1.8,15.01,5.5,8.81,8.93,10.39,28.63,10.05,55.45-.18,14.19,3.3,25,10.34,32.13,7.38,7.48,16.75,9.05,23.32,9.05,15.08,0,28.22-10.81,35.5-20.92.51-.71,2.05-2.86.96-4.8-1.28-2.28-4.51-2.02-9.85-1.6-8.41.66-19.93,1.57-23.38-7.4-2.53-6.57-2.22-13.11-.94-18.6,6.2,7.7,15.58,12.92,26.75,14.6,2.44.36,4.87.54,7.26.54,13.69,0,26.2-5.87,33.74-16.18,11.93-16.31,10.25-34.26,3.29-44.82ZM419.01,255.52c9.28-10.68,22.52-16.17,39.33-16.31h.82c49.96,0,58,39.31,63.87,68.05,2,9.79,3.75,18.32,6.96,23.55-5.81-2.07-11.63-6.65-15.22-15.57-6.46-16.01-23.62-58.57-67.5-52.43-18.18,2.54-31.91,13.94-39.73,32.98-2.15,5.24-3.57,10.35-4.51,14.73-.14-14.22,1.92-38.83,15.98-55ZM287.77,246.27c2.24,19.46,6.08,31.02,19.13,32.5,1.29.15,2.56.23,3.79.23,3.25,0,6.28-.51,9.15-1.56-.29.56-.59,1.11-.91,1.65-2.23,3.81-4.78,6.98-7.59,9.48-1.59,1.42-3.26,2.62-5.01,3.61-5.84,3.31-12.52,4.22-19.7,2.57-4.79-1.1-8.65-2.98-11.76-5.44-1.76-1.39-3.28-2.97-4.58-4.71-6.55-8.64-7.94-21.1-8.15-33.13-.17-10.01-4.96-21.72-8.21-28.57,2.59.94,5.59,1.51,9.05,1.51.17,0,.34,0,.52-.01,1.4-.02,2.74-.27,4.02-.69,3.21.97,18.41,6.42,20.25,22.56ZM242.62,243.14c.16-5.6.32-11.38.38-17.14.04-4.04.02-7.89-.09-11.55,1.25,1.71,2.81,3.44,4.76,4.96,1.34,2.44,10.25,19.23,10.47,32.13.14,7.53.38,21.26,6.78,32.16.95,1.63,2.04,3.19,3.29,4.66,4,4.72,9.63,8.48,17.53,10.29.86.2,1.72.37,2.57.5,1.13.33,9.09,2.82,16.78,8.56-8.99,3.49-20.88,6.65-34.52,6.65h-.71c-2.44-.02-4.8-.22-7.09-.59-10.34-9.95-16.39-23.22-17.39-25.53-.83-1.91-1.46-4.26-1.92-6.97-.26-1.51-.47-3.14-.63-4.87-.88-9.14-.55-20.98-.21-33.26ZM240.33,204.57l1.95-.44h0s-1.95.44-1.95.44ZM203.78,158.25c8.87-1.27,20.8-1.91,28.08,2.08,12.64,6.91,20.73,29.77,21.45,35.76.48,3.98,3.71,11.62,10.65,16.34,2.51,1.71,5.3,2.9,8.31,3.54-2.53,2.52-5.51,4.37-8.84,4.43-16.56.23-20.68-14.42-21.11-16.13-.01-.01-.01-.02-.01-.03-1.33-14.26-4.82-25.01-12.72-32.33-8.11-7.51-18.94-9.06-27.03-8.93.45-1.62.87-3.19,1.22-4.73ZM226.87,174.85c7.13,6.6,10.29,16.65,11.51,30.15.55,6.25.7,13.24.62,20.96-.06,5.72-.22,11.49-.38,17.07-.32,11.42-.61,21.95-.04,30.66.12,1.79.27,3.49.47,5.12.53,4.33,1.37,8.06,2.66,11.03,1.43,3.29,6.07,13.15,13.79,22.17-21.36-7-34.77-28.32-36.74-44.42-.37-3.03-.62-5.93-.77-8.74-.14-2.36-.2-4.65-.21-6.91-.04-5.76.22-11.29.49-16.98.46-9.51.93-19.35-.05-31.11-1.2-14.43-10.64-23.82-18.83-29.32.66-2.67,1.36-5.15,2.02-7.48,7.47-.28,17.96.85,25.46,7.8ZM214.28,234.77c-.19,3.82-.37,7.57-.46,11.37-11.35-17.56-18.33-35.96-18.31-40.24.04-11.09,1.29-19.82,2.88-27.09,7.15,5.15,14.85,13.39,15.85,25.38.95,11.49.49,21.19.04,30.58ZM165.67,157.2c-3.41,3.53-6.54,6.37-9.01,6.91-1.99.43-3.97.87-5.93,1.32-7.02-7.98-16.56-16.57-26.33-18.54-.21-1.96-.44-4.21-.68-6.7,9.02,3.81,19.99,6.9,31.89,6.9,2.16,0,4.36-.1,6.58-.31,1.31,3.84,2.48,7.37,3.48,10.42ZM161.18,143.84c-14.14,1.22-27.39-2.57-37.8-7.19-.49-5.29-.99-11.34-1.39-17.57,9.2,4.1,20.62,7.56,33.09,7.66,2.21,5.95,4.27,11.77,6.1,17.1ZM125.23,72.42c1.15-.33,6.97,0,20.17,30.14-9.05-1.38-17.33-4.36-24.19-7.6.24-20.75,3.56-22.41,4.02-22.54ZM146.82,105.84c1.6,3.78,3.31,7.97,5.12,12.63.68,1.74,1.34,3.48,2,5.22-12.12-.34-23.28-3.99-32.16-8.12-.04-.61-.07-1.21-.1-1.82-.31-5.93-.46-11.02-.47-15.37,7.28,3.32,16.02,6.28,25.61,7.46ZM79.07,176.47c3.57-1.19,7.31-4.81,11.65-9.01,7.28-7.04,16.34-15.81,28.25-16.94.6-.06,1.2-.07,1.8-.05,1.36.03,2.73.25,4.1.61,6.36,1.69,12.75,6.62,18.25,12.09-5.79-2.94-11.66-5.05-16.15-4.72-9.05.68-17.89,6.25-25.69,11.16-4.26,2.67-8.27,5.2-11.39,6.25-4.56,1.53-8.72,1.84-12.83,1.11.71-.13,1.38-.29,2.01-.5ZM71.4,179.58c3.26,1.16,6.51,1.78,9.88,1.78,3.16,0,6.42-.54,9.88-1.71,3.57-1.2,7.79-3.85,12.25-6.66,7.4-4.66,15.8-9.95,23.86-10.55,3.91-.3,9.52,1.86,15.22,4.9.43.22.85.45,1.28.69-2.55.18-5.14.78-7.42,2.08-1.71.97-3.25,2.4-4.8,4.12-1.11,1.22-2.22,2.58-3.39,4.03-5.01,6.18-10.68,13.19-20.75,14.76-7.65,1.2-15.91,1.25-24.16-3.3-1.38-.75-2.77-1.65-4.15-2.69-2.58-1.93-5.16-4.38-7.7-7.45ZM125.21,522.75h-1.64c-.95-.05-1.9-.18-2.86-.41-7.76-1.91-13.17-9.13-13.03-13.06.16-4.62,6.35-12.36,10.46-17.5,4.93,5.93,12.92,12.86,24.95,16.39-4.99,9.2-11.18,14.2-17.88,14.58ZM220.15,518.91c-.32,1.41-1.89,2.29-3.15,2.78-4.22,1.62-10.27,1.07-11.99-.15-5.96-4.23-9.14-14.99-9.53-16.37,2.13.18,4.48.3,7.01.3,5.09,0,10.95-.47,17.39-1.78.66,10.92.48,14.25.27,15.22ZM219.62,499.63c-10.17,2.12-18.9,2.03-25.29,1.34l-13.37-48.86c2.04-2.89,4.04-5.61,5.99-8.16,4.01-5.24,7.81-9.74,11.37-13.46,4.96,2.33,10.24,4.51,15.72,6.51,1.18,11.69,2.15,21.73,2.94,30.34h0c1.31,14.37,2.14,24.76,2.64,32.29ZM348.93,471.14c1.28-12,2.28-23.14,2.62-27.08.58-.14,1.18-.29,1.8-.44,1.76,8.63,4.36,17.15,7.64,25.23,4.16,10.28,9.42,19.84,15.43,27.97-13.43-.3-23.71-3.66-29.78-6.31.81-6.03,1.6-12.83,2.29-19.37ZM381.83,511.51c-4.39,8.29-19.37,11.24-31.93,11.24-3.02,0-5.14-.76-6.29-2.25-2.52-3.24-.82-9.83.2-13.76.2-.77.38-1.45.5-2.03.58-2.59,1.17-6.06,1.75-10.03,6.81,2.87,17.79,6.2,32.06,6.2.48,0,.97,0,1.46-.01,1.04,1.26,2.09,2.48,3.17,3.66-.34,4.05-.65,6.4-.92,6.98ZM430.81,488.17c1.07.68,2.16,1.28,3.25,1.82,7.96,3.9,13.08,14.59,10.94,22.87-1.55,6.03-6.66,9.48-14.51,9.89h-3.38c-9.03-.44-17.54-3.03-25.46-7.73,7.7-3.19,18.57-10.43,29.16-26.85ZM412.9,405.05c-1.31,3.67-2.39,7.24-3.23,10.6-1.09,4.31-1.88,8.59-2.36,12.71-3.19,27.28,7.08,47.44,20.2,57.54-11.45,17.72-23.18,24.07-30.12,26.34-3.85-2.72-7.55-5.98-11.09-9.76l-.03-.03c-.55-.59-1.09-1.19-1.64-1.8-1.08-1.24-2.15-2.52-3.2-3.86-6.43-8.14-12.05-18-16.45-28.7-3.58-8.69-6.35-17.95-8.1-27.3-.56-2.96-.99-5.86-1.27-8.61-.16-1.52-.28-2.99-.35-4.4-.06-1.12-.09-2.21-.09-3.25,0-.92-.57-1.77-1.45-2.01-1.33-.36-2.55.65-2.55,1.93,0,1.6.06,3.28.19,5.04.22,3.2.64,6.64,1.25,10.19-1.2.3-2.32.57-3.38.81h-.01c-59.75,13.87-108.71,1.69-132.6-6.82h-.05c-5.31-1.91-10.41-3.99-15.23-6.2,4.96-4.76,9.42-7.91,13.28-9.37.58-.22,1.16-.41,1.72-.55.8-.21,1.57-.34,2.31-.38,1.1-.07,1.94-1.02,1.88-2.12-.07-1.1-1.02-1.95-2.12-1.88-1.68.1-3.44.51-5.22,1.2-.01,0-.02.01-.03.01-4.69,1.78-9.84,5.49-15.68,11.28h-.02s-.97.98-.97.98c-.02.01-.03.02-.04.03h0c-3.74,3.81-7.75,8.47-11.96,13.93-2.39,3.08-4.84,6.41-7.35,9.98l-.54.77h0c-15.34,21.99-28.2,46.19-31.69,53.2-12.1-3.31-19.79-10.21-24.31-15.88.1-.13.2-.26.29-.38,19.21-25.42,29.61-79.65,32.94-121.92,3.01-38.28,1.59-88.22-11.76-107.63,6.07-1.45,12.69-3.36,19.92-5.85,1.04-.36,1.6-1.5,1.24-2.54-.36-1.05-1.5-1.6-2.54-1.24-8.25,2.84-15.67,4.91-22.35,6.39-.1.01-.2.03-.29.06-29.18,6.39-44.1,1.36-51.23-1.06-2.29-.77-3.88-1.31-5.2-1.16-.41.05-.79.16-1.16.36-.53.29-1.24.88-1.56,2.05-1.44,5.26-5.76,10.32-11.26,13.2-2.61,1.36-11.38,1.18-20.38-2.74-5.32-2.31-14.69-7.77-17.58-18.29-3.83-13.9.67-22.36,9.57-30.99,3.48-3.37,7.62-6.76,12.21-10.51,5.78-4.73,15.18-9.8,27.22-14.84,7.02,4.68,14.07,6.13,20.67,6.13,3,0,5.91-.3,8.68-.74,11.58-1.81,18.05-9.78,23.24-16.19,2.57-3.17,4.79-5.91,7.05-7.19,3.9-2.21,9.23-1.77,12.96-1.04.07.02.14.03.2.04.05.06.1.12.14.18t.01.01c1.41.92,2.76,1.84,4.03,2.73,1.19.83,2.63-.65,1.76-1.81-.36-.49-.74-1-1.14-1.52-.57-.74-1.17-1.51-1.8-2.3-.23-.29-.47-.58-.72-.88-.04-.05-.08-.09-.11-.14,1.28-.29,2.56-.57,3.85-.85,3.07-.66,6.19-3.17,9.56-6.52,1.03-1.02,2.07-2.11,3.15-3.26.62-.66,1.26-1.35,1.9-2.04,6.1-6.57,13.02-14.02,20.17-15.76,3.17-.77,5.45-.61,6.77.49,1.59,1.31,2.24,4.27,1.99,9.03-.08,1.56-.29,3.13-.59,4.75-.26,1.38-.58,2.8-.95,4.25-.36,1.37-.75,2.79-1.16,4.25-.16.58-.33,1.17-.5,1.77-.22.78-.45,1.58-.68,2.39-.44,1.58-.89,3.22-1.33,4.95-.35,1.32-.69,2.7-1.02,4.13-1.78,7.77-3.25,17.19-3.3,29.44-.03,6.13,8.68,28.09,22.28,47.33.07,4.7.35,9.58,1,14.87,2.31,18.86,19.23,44.36,45.94,49.4,2.4.45,4.89.74,7.45.84.55.02,1.1.04,1.65.04h.76c15.4,0,28.53-3.76,38.07-7.72,1.41-.58,2.74-1.17,3.99-1.76-1.07-1.06-2.17-2.04-3.28-2.95-3.56-2.93-7.27-5.16-10.51-6.8,5.03-.88,9.69-3.04,13.86-6.43,21.56,1.82,44.78,4.55,65.26,12.42,8.26,3.17,15.34,7.06,21.22,11.67.84.65,1.66,1.32,2.45,2,.64.56,1.27,1.13,1.88,1.7.61.58,1.21,1.17,1.79,1.77.71.72,1.39,1.46,2.06,2.22.89,1.03,1.75,2.08,2.55,3.16,13.76,18.34,14.78,44.23,2.97,77.41ZM519.15,394.27c1.95-.16,4.26-.34,5.55-.25-.06.1-.14.2-.22.32-6.39,8.88-18.67,19.26-32.25,19.26-5.8,0-14.07-1.37-20.48-7.86-6.26-6.34-9.35-16.19-9.18-29.27.36-27.83-1.41-48.39-11.21-58.31-4.45-4.5-10.29-6.69-17.85-6.69-11.33,0-18.86,4.94-23.61,10-.11-.13-.22-.26-.34-.39,4.03-4.43,19.28-19.6,37.88-18.55,21.7,1.2,28.85,15.7,41.11,51,.78,2.25,1.78,4.39,2.97,6.4h0c-2.13,6.68-3.25,15.4.21,24.38,4.51,11.76,18.86,10.63,27.42,9.96ZM559.04,360.88c-7.97,10.9-22.23,16.28-37.18,14.04-11.21-1.68-20.43-7.27-25.9-15.44h0c-.97-1.45-1.82-2.96-2.54-4.55-.41-.88-.77-1.79-1.09-2.71-12.61-36.3-20.65-52.35-44.67-53.69-.7-.04-1.4-.05-2.09-.05-19.28,0-34.31,14.75-38.8,19.7-.28-.28-.57-.56-.87-.83,2.09-14.07,10.32-46.16,41.92-50.58,36.16-5.06,52.79,24.05,63.24,49.97,6.12,15.18,17.93,19.38,27.02,19.51.07.01.13.01.19.01,2.92.02,5.55-.37,7.61-.95,11.63-3.29,10.75-14.23,10.38-18.9-.02-.32-.05-.66-.07-.99,1.84.39,4.12,2.31,6.03,5.21,4.62,7.01,9.16,23.39-3.18,40.25Z"/>
    <path class="cls-3" d="M352.61,439.68c-1.2.3-2.32.57-3.38.81h-.01c-59.75,13.87-108.71,1.69-132.6-6.82h-.05c-5.31-1.91-10.41-3.99-15.23-6.2,4.96-4.76,9.42-7.91,13.28-9.37.58-.22,1.16-.41,1.72-.55,4.67,4.3,6.1,6.56,17.68,9.62,17.42,4.61,72.16,11.91,90.55,8.17,7.93-1.61,21.04-3.55,26.79-5.85.22,3.2.64,6.64,1.25,10.19Z"/>
    <g>
      <path class="cls-2" d="M162.36,193.8l-5.26,3.4c.13.15.25.31.38.48.67.88.5,2.13-.38,2.8-.47.36-1.07.48-1.62.36-.46-.1-.88-.36-1.18-.75-2.05-2.7-4.19-4.64-6.34-6h0c-9.57-6.08-19.11-.67-19.6-.38-.95.56-2.18.24-2.73-.72-.56-.95-.24-2.18.72-2.73.14-.08,11.4-6.47,22.69-.17l5.71-3.68c.92-.6,2.16-.33,2.76.6.6.92.34,2.17-.59,2.76l-4.31,2.78c.61.49,1.21,1.03,1.81,1.63l5.78-3.73c.93-.6,2.18-.34,2.77.59.6.92.33,2.16-.59,2.77Z"/>
      <circle class="cls-2" cx="139.29" cy="205.04" r="9.57"/>
      <circle class="cls-12" cx="137.84" cy="203.85" r="2.77"/>
    </g>
    <path class="cls-15" d="M81.62,253.34c-.41.05-.79.16-1.16.36-.53.29-1.24.88-1.56,2.05-1.44,5.26-5.76,10.32-11.26,13.2-2.61,1.36-11.38,1.18-20.38-2.74-5.32-2.31-14.69-7.77-17.58-18.29-3.83-13.9.67-22.36,9.57-30.99,14.68,1.86,34.03,9.67,42.37,36.41Z"/>
    <path class="cls-2" d="M44.57,230.91c-2.67-1.23-5.11,5.28-3.91,8.6,1.19,3.32,10.21-5.7,3.91-8.6Z"/>
    <path class="cls-6" d="M171.89,167.77s14.47-20.1,19.74-20.17c8.34-.11-2.21,31.66-3.66,35.57-1.45,3.91-4.94-8.6-9.79-10.3-4.85-1.7-7.9-2.8-6.3-5.11Z"/>
  </g>
  <path class="cls-3" d="M325.85,314.36s8.89-9.23,20.78-5.49c11.9,3.74,23.81,5.11,16.66,19.4-7.15,14.3,7.15,17.36-1.77,22.81-18.83,11.5-8.78-18.76-21.72-20.27-12.94-1.51-19.97-6.28-13.96-16.45Z"/>
  <path class="cls-3" d="M379.3,328.62c2.75,4.81-5.08,6.81-2.88,10.21,2.2,3.4,11.39.34,13.78,3.4,2.38,3.06,9.87,8.85,11.23,2.04,1.36-6.81-6.13-6.13-8.17-11.23-2.04-5.11-.68-12.9-7.49-12.24s-9.19,3.04-6.47,7.81Z"/>
</svg>