<svg id="Layer_1" data-name="Layer 1" xmlns="http://www.w3.org/2000/svg" xmlns:xlink="http://www.w3.org/1999/xlink" viewBox="0 0 518.34 363.49"><defs><style>.cls-1{fill:none;}.cls-2{clip-path:url(#clip-path);}.cls-3{fill:#80c9c3;stroke-miterlimit:10;stroke:url(#linear-gradient);}.cls-4{fill:#61c1c9;}.cls-5{fill:#4cb6bd;}.cls-6{fill:#5ec1c9;}.cls-7{fill:#44a5aa;}.cls-8{fill:#3c908c;}.cls-9{fill:#5fc0c7;}.cls-10{fill:#4bb4be;}.cls-11{fill:#46a7a9;}.cls-12{fill:#5ec1ca;}.cls-13{fill:#3b8e8e;}.cls-14{fill:#60c1c6;}.cls-15{fill:#4aafb6;}.cls-16{fill:#fff;}.cls-17{fill:#c6e6ef;}.cls-18{fill:#c4e5ee;}.cls-19{fill:#abd298;}.cls-20{fill:#baddcc;}.cls-21{fill:#e6efd2;}.cls-22{fill:#91b8d8;}.cls-23{fill:#347f83;}.cls-24{fill:#9e6430;}.cls-25{fill:#d5ab77;}.cls-26{fill:#e3eff6;}.cls-27{fill:#58b0b9;}.cls-28{fill:#693716;}.cls-29{fill:#3d8533;}.cls-30{fill:#285526;}.cls-31{fill:#326c2e;}.cls-32{fill:#7bc5ae;}.cls-33{fill:#df5b2a;}.cls-34{fill:#ba4147;}.cls-35{fill:#b2b6c2;}.cls-36{fill:#edf7fa;}.cls-37{fill:#acb7c2;}.cls-38{fill:#d0523a;}.cls-39{fill:#facf88;}.cls-40{fill:#75482b;}.cls-41{fill:#7f5d3a;}.cls-42{fill:#7fcbd6;}.cls-43{fill:#a15848;}.cls-44{fill:#dbac63;}.cls-45{fill:#684024;}.cls-46{fill:#d25435;}.cls-47{fill:#97d5ec;}.cls-48{fill:#f18869;}.cls-49{fill:#775332;}.cls-50{fill:#68b42e;}.cls-51{fill:#469434;}.cls-52{fill:#1e4f55;}.cls-53{fill:#f49c87;}.cls-54{fill:#235d77;}.cls-55{fill:#4a87c7;}.cls-56{fill:#d7edf5;}.cls-57{fill:#4b88c7;}.cls-58{fill:#5e3414;}.cls-59{fill:#4ba451;}.cls-60{fill:#8c4119;}.cls-61{fill:#459435;}.cls-62{fill:#265325;}.cls-63{fill:#f49932;}.cls-64{fill:#5e3517;}.cls-65{fill:#da5f2e;}.cls-66{fill:#fae5ab;}.cls-67{fill:#46a69b;}.cls-68{fill:#5b3416;}.cls-69{fill:#449664;}.cls-70{fill:#8d4319;}.cls-71{fill:#466534;}.cls-72{fill:#51a133;}.cls-73{fill:#c8d8ec;}.cls-74{fill:#c0da97;}.cls-75{fill:#f6ac31;}.cls-76{fill:#f59d30;}.cls-77{fill:#69c0ae;}.cls-78{fill:#878787;}</style><clipPath id="clip-path" transform="translate(19.53 -1.82)"><rect class="cls-1" x="-1.75" y="2.32" width="482.48" height="362.49"/></clipPath><linearGradient id="linear-gradient" x1="480.67" y1="183.56" x2="-2.25" y2="183.56" gradientUnits="userSpaceOnUse"><stop offset="0" stop-color="#80c9c3"/><stop offset="1" stop-color="#80c9c3"/></linearGradient></defs><g class="cls-2"><path class="cls-3" d="M-1.75,2.32V364.8H480.17V2.32ZM21.11,322.05V309c0-4.76,7.39-4.75,7.39,0v13.09C28.5,326.81,21.11,326.81,21.11,322.05Zm9.51,20.68a3.7,3.7,0,1,1-7.39,0v-6.08a3.7,3.7,0,0,1,7.39,0Zm22.75-28.9v-6.69a3.7,3.7,0,1,1,7.39,0v6.69a3.7,3.7,0,1,1-7.39,0Zm10.91,30.42a3.7,3.7,0,1,1-7.39,0v-6.73a3.7,3.7,0,0,1,7.39,0Zm17.39-35c-.08-4.77,7.32-4.75,7.4,0,0,2.55.56,5.06.6,7.61.09,4.76-7.31,4.75-7.39,0C82.24,314.33,81.72,311.82,81.67,309.27ZM90.34,343c0,4.77-7.4,4.76-7.4,0V336c0-4.76,7.4-4.75,7.4,0Zm22.25,5.74c-1.75.48-4.25-.61-4.54-2.58a59.41,59.41,0,0,1-.35-9.24c0-4.76,7.42-4.76,7.39,0a49,49,0,0,0,.09,7.27C115.47,346.12,114.71,348.11,112.59,348.69Zm-1-26.6c-2.17,0-3.45-1.71-3.69-3.69a66.89,66.89,0,0,1-.61-7.61c0-4.77,7.35-4.75,7.39,0a66.89,66.89,0,0,0,.61,7.61C115.49,320.39,113.35,322.09,111.54,322.09Zm19.13-11.3c0-4.76,7.4-4.76,7.4,0v7.3c0,4.77-7.4,4.76-7.4,0Zm7.66,34.77c0,4.76-7.4,4.75-7.4,0v-8.69c0-4.76,7.4-4.75,7.4,0ZM154.61,320a17.94,17.94,0,0,1-2-9.47,3.77,3.77,0,0,1,3.69-3.7c1.87,0,3.88,1.71,3.7,3.7a10.37,10.37,0,0,0,1,5.74,3.78,3.78,0,0,1-1.33,5.06A3.73,3.73,0,0,1,154.61,320Zm4.12,33.2c-.37-5.51-2.43-10.72-2.39-16.29,0-4.76,7.43-4.76,7.39,0,0,5.52,2,10.79,2.39,16.29C166.44,357.91,159.05,357.88,158.73,353.16Zm24.54.44c-2.16,0-3.46-1.72-3.69-3.7-.48-4.06-1.44-8-1.31-12.16.15-4.75,7.54-4.76,7.39,0-.12,4.11.84,8.1,1.31,12.16C187.2,351.9,185.09,353.6,183.27,353.6Zm6.86-33.77a3.75,3.75,0,0,1-4.54-2.58,22.38,22.38,0,0,1-1.35-6.76,3.7,3.7,0,1,1,7.39,0,17.11,17.11,0,0,0,1.08,4.8A3.73,3.73,0,0,1,190.13,319.83Zm12.6,29.1c-1.12-3.43-2.77-6.65-4.13-10-.76-1.86.83-4.07,2.58-4.55,2.09-.57,3.79.74,4.55,2.59,1.36,3.34,3,6.55,4.12,10C211.33,351.51,204.19,353.43,202.73,348.93Zm10.84-30.32A3.81,3.81,0,0,1,209,316c-.81-2.11-2-4.09-3-6.11a3.7,3.7,0,1,1,6.38-3.73c1.31,2.6,2.67,5.15,3.72,7.88C216.87,315.94,215.35,318.13,213.57,318.61Zm17.25,40c-.33-7.58-2.25-15-2.17-22.59,0-4.76,7.44-4.75,7.39,0-.08,7.61,1.84,15,2.17,22.59C238.43,363.35,231,363.32,230.82,358.59ZM244.91,322c-1.79.5-4.2-.61-4.54-2.58a66.86,66.86,0,0,1-1.05-11c0-4.77,7.36-4.76,7.4,0a54,54,0,0,0,.78,9.06A3.78,3.78,0,0,1,244.91,322ZM258,351.86c0,4.76-7.4,4.75-7.4,0V335.57c0-4.77,7.4-4.76,7.4,0Zm9-34.68a52.26,52.26,0,0,1-.61-9.43,3.77,3.77,0,0,1,3.7-3.7,3.72,3.72,0,0,1,3.69,3.7,52.26,52.26,0,0,0,.61,9.43c.21,2-1.86,3.7-3.7,3.7A3.8,3.8,0,0,1,267,317.18Zm3.76,37.72c-.08-6.76-1-13.46-1.3-20.2-.2-4.76,7.19-4.74,7.39,0,.27,6.74,1.23,13.44,1.3,20.2C278.22,359.66,270.83,359.65,270.78,354.9Zm23.58-6.19c-1-4.65-2.2-9.24-2.52-14s7.08-4.72,7.39,0c.28,4.09,1.4,8.05,2.26,12.05C302.49,351.39,295.37,353.36,294.36,348.71Zm1.09-29c-.64-2.7-1.79-5.23-2.43-7.92-1.1-4.63,6-6.59,7.13-2,.64,2.69,1.79,5.22,2.43,7.91C303.68,322.35,296.56,324.31,295.45,319.69Zm21.22-3.38c-4.76,0-4.76-7.39,0-7.39S321.43,316.31,316.67,316.31Zm9.7,36.41c-.24-5.72-1.06-11.18-4.06-16.15-2.46-4.09,3.93-7.81,6.39-3.74,3.66,6.09,4.77,12.89,5.06,19.89C334,357.49,326.57,357.46,326.37,352.72Zm10.46-33.8a3.77,3.77,0,0,1-4.55-2.58,39.59,39.59,0,0,1-1.83-5.48,3.8,3.8,0,0,1,2.59-4.55,3.71,3.71,0,0,1,4.54,2.58,39.15,39.15,0,0,0,1.83,5.48A3.76,3.76,0,0,1,336.83,318.92Zm19.73,22.51a3.7,3.7,0,1,1-7.39,0v-5a3.7,3.7,0,1,1,7.39,0Zm13.07-25.73c-4.77,0-4.76-7.39,0-7.39S374.38,315.7,369.63,315.7Zm9.84,33.64c-1.74.48-4.27-.6-4.55-2.58a67.87,67.87,0,0,1-.34-9.67c0-4.76,7.41-4.76,7.39,0a54.94,54.94,0,0,0,.08,7.7C382.32,346.78,381.6,348.75,379.47,349.34Zm18.46-38.59c4.76,0,4.76,7.39,0,7.39S393.17,310.75,397.93,310.75Zm5.64,37.5c-1.75.49-4.25-.6-4.54-2.58a56.19,56.19,0,0,1-.35-8.8c0-4.76,7.42-4.76,7.39,0a44.62,44.62,0,0,0,.09,6.84C406.45,345.69,405.69,347.67,403.57,348.25ZM431,350.34c0,4.76-7.39,4.75-7.39,0v-13c0-4.77,7.39-4.76,7.39,0ZM429,316c-4.76,0-4.75-7.39,0-7.39S433.73,316,429,316Zm25.31,36.5c0,4.76-7.39,4.75-7.39,0V334.27c0-4.77,7.39-4.76,7.39,0Zm-1.57-36.81c-4.76,0-4.76-7.39,0-7.39S457.47,315.7,452.71,315.7Zm20.61,39.54c-1.91,4.35-8.28.58-6.39-3.73,2-4.63.44-10.85.37-15.72s7.32-4.76,7.39,0C474.79,342.42,476.08,349,473.32,355.24Zm-1.13-39.54c-4.77,0-4.76-7.39,0-7.39S477,315.7,472.19,315.7Z" transform="translate(19.53 -1.82)"/><rect class="cls-4" x="274.6" y="149.39" width="65.1" height="38.62"/><polygon class="cls-4" points="304.17 111.09 348.23 154.64 263.68 154.64 304.17 111.09"/><rect class="cls-4" x="281.98" y="119.79" width="6.97" height="23.1"/><rect class="cls-4" x="280.09" y="116.3" width="10.9" height="4.36"/><rect class="cls-4" x="208.69" y="132.87" width="60.96" height="48.88"/><rect class="cls-4" x="206.93" y="130.58" width="65.08" height="2.29"/><rect class="cls-4" x="204.14" y="126.99" width="69.39" height="3.6"/><rect class="cls-4" x="212.32" y="114.41" width="4.62" height="14"/><polygon class="cls-4" points="210.64 115.6 214.63 109.65 218.55 115.6 210.64 115.6"/><ellipse class="cls-4" cx="239.91" cy="134.64" rx="22.61" ry="25.53"/><rect class="cls-4" x="17.78" y="107.41" width="30.39" height="48.71"/><rect class="cls-4" x="21.68" y="97.18" width="20.19" height="1.8"/><rect class="cls-4" x="37.9" y="98.98" width="2.16" height="8.43"/><rect class="cls-4" x="25.83" y="102.26" width="12.08" height="5.16"/><rect class="cls-4" x="146.07" y="130.58" width="5.63" height="16.97"/><rect class="cls-4" x="187.43" y="130.58" width="6.47" height="16.97"/><polygon class="cls-4" points="148.89 123.64 144.38 131.72 153.39 131.72 148.89 123.64"/><polygon class="cls-4" points="187.43 130.58 190.66 123.64 193.9 130.58 187.43 130.58"/><rect class="cls-5" x="55.26" y="142.8" width="108.98" height="137.61"/><ellipse class="cls-4" cx="168.76" cy="152.01" rx="29.4" ry="14.96"/><polygon class="cls-6" points="48.18 92.25 107.45 92.25 70.09 104.05 48.18 92.25"/><rect class="cls-6" x="55.63" y="78.49" width="7.58" height="15.03"/><rect class="cls-6" x="93.13" y="78.49" width="6.6" height="15.03"/><polygon class="cls-5" points="48.18 92.25 70.09 104.05 69.92 189.35 48.18 189.35 48.18 92.25"/><polygon class="cls-7" points="114.89 123.64 146.07 141.89 146.07 267.11 114.89 267.11 114.89 123.64"/><rect class="cls-5" x="130.45" y="147.53" width="5.94" height="6.38"/><rect class="cls-5" x="130.45" y="158.43" width="5.94" height="6.38"/><rect class="cls-5" x="130.45" y="170.32" width="5.94" height="6.38"/><rect class="cls-5" x="130.53" y="181.74" width="5.94" height="6.38"/><rect class="cls-5" x="130.45" y="193.17" width="5.94" height="6.38"/><polygon class="cls-5" points="114.89 123.64 101.04 130.58 97.13 143.91 114.89 142.8 114.89 123.64"/><polygon class="cls-7" points="107.45 92.25 107.45 126.99 107.45 183.92 107.45 191.53 70.09 191.53 70.09 104.05 107.45 92.25"/><rect class="cls-5" x="344.95" y="153.88" width="33.08" height="61.02"/><rect class="cls-8" x="378.04" y="153.88" width="21.54" height="95.22"/><rect class="cls-5" x="384.28" y="161.77" width="4.6" height="4.6"/><rect class="cls-5" x="384.28" y="172.74" width="4.6" height="4.6"/><rect class="cls-5" x="384.28" y="183.71" width="4.6" height="4.6"/><rect class="cls-5" x="384.28" y="194.68" width="4.6" height="4.6"/><rect class="cls-5" x="384.28" y="206.85" width="4.6" height="4.6"/><polygon class="cls-9" points="377.58 134.22 337.88 154.64 378.04 153.88 377.58 134.22"/><polygon class="cls-10" points="377.58 134.22 411.35 153.88 378.04 153.88 377.58 134.22"/><rect class="cls-10" x="394.08" y="131.35" width="6.06" height="16.73"/><polygon class="cls-10" points="397.11 126.39 392.27 133.44 402.01 133.44 397.11 126.39"/><polygon class="cls-5" points="405.13 111.35 444.48 124.52 444.48 150.56 405.65 150.56 405.13 111.35"/><polygon class="cls-11" points="444.48 124.52 467.69 111.35 468.26 150.56 444.48 150.56 444.48 124.52"/><polygon class="cls-12" points="405.13 111.35 467.69 111.35 444.48 124.52 405.13 111.35"/><rect class="cls-13" x="468.26" y="137.74" width="44.04" height="115.82"/><rect class="cls-13" x="492.16" y="122.89" width="22.91" height="14.86"/><rect class="cls-13" x="487.88" y="121.38" width="30.47" height="3.14"/><rect class="cls-13" x="471.26" y="115.67" width="1.51" height="22.08"/><rect class="cls-13" x="458.18" y="118.51" width="0.53" height="22.93" transform="matrix(0.87, -0.5, 0.5, 0.87, 15.97, 244.82)"/><rect class="cls-13" x="463.43" y="112.97" width="0.47" height="29.07" transform="translate(890.61 -129.78) rotate(132.53)"/><rect class="cls-13" x="158.28" y="156.12" width="96.38" height="5.5"/><rect class="cls-13" x="196.7" y="141.89" width="23.11" height="14.23"/><rect class="cls-13" x="193.4" y="139.94" width="29.52" height="3.97"/><rect class="cls-13" x="176.36" y="134.64" width="3.01" height="21.48"/><rect class="cls-13" x="163.38" y="138.36" width="1.05" height="20.46" transform="translate(-30.17 89.19) rotate(-27.11)"/><rect class="cls-13" x="169.67" y="132.51" width="0.83" height="28.78" transform="translate(-32.85 176.97) rotate(-48.97)"/><rect class="cls-13" x="17.78" y="155.97" width="29.91" height="105.39"/><rect class="cls-13" x="17.78" y="152.01" width="34.41" height="3.96"/><rect class="cls-14" x="25.12" y="169.47" width="9.86" height="13.74"/><rect class="cls-14" x="25.12" y="191.12" width="9.86" height="13.74"/><rect class="cls-14" x="25.12" y="212.78" width="9.86" height="13.74"/><rect class="cls-15" x="27.38" y="132.34" width="14.62" height="1.44"/><rect class="cls-15" x="20.02" y="125.77" width="12.96" height="1.47"/><rect class="cls-13" x="32.74" y="130.58" width="0.69" height="4.55"/><rect class="cls-13" x="35.74" y="130.58" width="0.69" height="4.55"/><rect class="cls-13" x="40.46" y="130.58" width="0.69" height="4.55"/><rect class="cls-13" x="38.1" y="130.58" width="0.69" height="4.55"/><polygon class="cls-7" points="297.32 158.87 344.71 190.43 344.71 238.09 239.91 238.09 239.91 191.79 297.32 158.87"/><rect class="cls-13" x="30.43" y="123.95" width="0.69" height="4.55"/><rect class="cls-13" x="164.24" y="156.12" width="85.97" height="83.74"/><polygon class="cls-16" points="111.09 43.28 110.06 42.15 110.06 40.72 111.09 39.28 112.73 37.74 115.1 36.51 117.46 35.79 119.41 35.79 118.38 33.32 118.18 31.37 118.18 27.78 120.13 25.41 121.36 23.57 123.52 21.72 125.88 19.97 128.86 18.33 130.91 17.92 133.07 17.92 136.35 17.92 139.13 17.92 140.36 18.84 142 20.18 143.44 21.41 145.29 23.67 146 25.11 146.72 26.24 148.37 25.62 150.32 24.7 152.78 24.18 155.04 24.08 156.99 24.39 158.74 25.52 160.48 27.26 162.13 28.8 163.46 31.27 164.08 33.01 164.08 34.66 163.56 36.2 165.21 35.68 166.95 35.79 168.49 35.89 170.03 36.92 171.06 38.46 172.29 40.61 172.29 42.46 171.88 43.28 111.09 43.28"/><polygon class="cls-17" points="111.09 43.28 111.09 45.33 112.03 47.54 113.42 48.82 115.98 50.33 168.1 50.33 169.72 49.05 171.35 47.54 172.29 45.8 172.74 43.28 111.09 43.28"/><polygon class="cls-17" points="61.94 50.6 61.94 52.65 61 54.85 59.61 56.13 57.05 57.64 4.93 57.64 3.31 56.36 1.68 54.85 0.74 53.11 0.29 50.6 61.94 50.6"/><polygon class="cls-16" points="61.2 50.6 62.23 49.67 62.23 48.5 61.2 47.33 59.56 46.07 57.2 45.07 54.84 44.48 52.88 44.48 53.91 42.47 54.12 40.88 54.12 37.94 52.17 36.02 50.93 34.51 48.78 33 46.41 31.58 43.44 30.23 41.38 29.9 39.23 29.9 35.94 29.9 33.17 29.9 31.94 30.65 30.29 31.74 28.86 32.75 27.01 34.59 26.29 35.77 25.57 36.69 23.93 36.18 21.98 35.43 19.51 35.01 17.25 34.93 15.3 35.18 13.55 36.1 11.81 37.52 10.17 38.78 8.83 40.79 8.21 42.22 8.21 43.56 8.73 44.81 7.09 44.4 5.34 44.48 3.8 44.56 2.26 45.4 1.23 46.66 0 48.42 0 49.93 0.41 50.6 61.2 50.6"/><polygon class="cls-16" points="232.02 60.8 232.02 56.91 234.27 54.66 237.55 52.41 241.44 51.39 241.44 48.11 244.3 44.43 248.4 42.59 256.99 42.59 260.88 44.63 263.68 47.09 265.18 42.59 270.09 36.85 274.6 34.6 280.09 33.38 285.46 33.38 288.95 35.63 295.06 41.15 296.9 38.08 302.63 33.38 309.18 30.51 319.42 30.51 323.31 33.99 327.4 38.08 331.29 44.22 330.06 51.59 333.13 51.39 338.45 52.41 341.52 56.91 341.52 60.8 232.02 60.8"/><polygon class="cls-18" points="232.02 60.8 231 64.08 232.02 66.74 235.3 69.19 237.55 70.42 335.79 71.24 338.04 68.58 340.09 66.02 341.52 63.67 341.52 60.8 232.02 60.8"/><polygon class="cls-17" points="394.46 52.04 394.46 54.09 395.26 56.3 396.44 57.57 398.59 59.08 442.67 59.08 444.05 57.81 445.42 56.3 446.22 54.55 446.6 52.04 394.46 52.04"/><polygon class="cls-16" points="394.57 52.04 393.69 51.22 393.69 50.17 394.57 49.12 395.98 47.99 398.01 47.09 400.03 46.57 401.71 46.57 400.83 44.77 400.65 43.34 400.65 40.72 402.32 39 403.38 37.65 405.23 36.3 407.26 35.02 409.81 33.83 411.58 33.52 413.43 33.52 416.25 33.52 418.63 33.52 419.68 34.2 421.09 35.17 422.33 36.07 423.91 37.72 424.53 38.77 425.15 39.6 426.56 39.15 428.23 38.47 430.35 38.1 432.28 38.02 433.96 38.25 435.46 39.07 436.95 40.35 438.36 41.47 439.51 43.27 440.04 44.54 440.04 45.74 439.6 46.87 441.01 46.49 442.5 46.57 443.83 46.64 445.15 47.39 446.03 48.52 447.09 50.09 447.09 51.44 446.74 52.04 394.57 52.04"/><rect class="cls-19" x="33.43" y="191.53" width="58.33" height="103.32"/><rect class="cls-20" x="33.43" y="212.78" width="58.04" height="2.22"/><rect class="cls-20" x="33.43" y="236.32" width="58.04" height="2.22"/><rect class="cls-20" x="33.57" y="259.87" width="58.04" height="2.22"/><rect class="cls-21" x="38.55" y="196.02" width="11.17" height="15.02"/><rect class="cls-21" x="38.55" y="219.65" width="11.17" height="15.02"/><rect class="cls-21" x="56.86" y="196.02" width="11.17" height="15.02"/><rect class="cls-21" x="75.27" y="196.02" width="11.17" height="15.02"/><rect class="cls-21" x="56.86" y="219" width="11.17" height="15.02"/><rect class="cls-21" x="75.27" y="219.65" width="11.17" height="15.02"/><rect class="cls-21" x="38.55" y="242.67" width="11.17" height="15.02"/><rect class="cls-21" x="57.01" y="242.67" width="11.17" height="15.02"/><rect class="cls-21" x="75.27" y="243.22" width="11.17" height="15.02"/><rect class="cls-21" x="72" y="267.11" width="16.89" height="18.2"/><rect class="cls-21" x="34.66" y="267.11" width="16.89" height="18.2"/><rect class="cls-21" x="53.98" y="266.22" width="15.66" height="28.63"/><rect class="cls-22" x="33.43" y="294.85" width="18.79" height="6.91"/><rect class="cls-22" x="69.64" y="294.85" width="21.15" height="6.91"/><rect class="cls-21" x="47.95" y="297.55" width="26.53" height="4.21"/><rect class="cls-21" x="51.54" y="294.85" width="19.91" height="2.7"/><rect class="cls-23" x="40.51" y="197.99" width="7.17" height="11.26"/><rect class="cls-23" x="58.86" y="197.99" width="7.17" height="11.26"/><rect class="cls-23" x="77.27" y="197.99" width="7.17" height="11.26"/><rect class="cls-23" x="40.51" y="220.6" width="7.17" height="11.26"/><rect class="cls-23" x="59.01" y="220.6" width="7.17" height="11.26"/><rect class="cls-23" x="77.27" y="221.16" width="7.17" height="11.26"/><rect class="cls-23" x="40.51" y="244.55" width="7.17" height="11.26"/><rect class="cls-23" x="59.01" y="244.55" width="7.17" height="11.26"/><rect class="cls-23" x="77.27" y="244.55" width="7.17" height="11.26"/><rect class="cls-23" x="35.37" y="267.97" width="15.36" height="15.36"/><rect class="cls-23" x="74.01" y="268.71" width="13.26" height="14.62"/><rect class="cls-24" x="56.3" y="268.71" width="11.88" height="26.13"/><rect class="cls-25" x="58.91" y="271.87" width="2.48" height="8.67"/><rect class="cls-25" x="43.93" y="273.68" width="2.48" height="8.67" transform="translate(109.88 554.22) rotate(180)"/><rect class="cls-25" x="58.91" y="283.33" width="2.48" height="8.67"/><rect class="cls-25" x="63.47" y="283.33" width="2.48" height="8.67"/><rect class="cls-26" x="32.24" y="184.13" width="60.82" height="9.18"/><rect class="cls-27" x="35.38" y="185.88" width="1.22" height="4.11"/><rect class="cls-27" x="40.08" y="185.88" width="1.22" height="4.11"/><rect class="cls-27" x="44.82" y="185.88" width="1.22" height="4.11"/><rect class="cls-27" x="49.72" y="185.88" width="1.22" height="4.11"/><rect class="cls-27" x="54.28" y="185.88" width="1.22" height="4.11"/><rect class="cls-27" x="59.14" y="185.88" width="1.22" height="4.11"/><rect class="cls-27" x="63.78" y="185.88" width="1.22" height="4.11"/><rect class="cls-27" x="68.87" y="185.88" width="1.22" height="4.11"/><rect class="cls-27" x="74.05" y="185.88" width="1.22" height="4.11"/><rect class="cls-27" x="78.76" y="185.88" width="1.22" height="4.11"/><rect class="cls-27" x="83.36" y="185.88" width="1.22" height="4.11"/><rect class="cls-27" x="88.16" y="185.88" width="1.22" height="4.11"/><rect class="cls-27" x="32.15" y="187.26" width="59.61" height="2.09"/><rect class="cls-28" x="28.66" y="275.65" width="2.35" height="26.11"/><rect class="cls-28" x="14.91" y="273.91" width="2.35" height="16.17" transform="translate(205.09 54.21) rotate(40.13)"/><rect class="cls-28" x="4.42" y="274.76" width="2.35" height="16.17" transform="translate(211.71 493.67) rotate(139.87)"/><path class="cls-29" d="M6,280.77a7.08,7.08,0,0,0-1.14-9.94,7.08,7.08,0,0,0-9.93,1.26" transform="translate(19.53 -1.82)"/><path class="cls-30" d="M14.75,282a7,7,0,1,0,10.8-9" transform="translate(19.53 -1.82)"/><path class="cls-29" d="M14.73,282a7,7,0,1,1,11.08-8.69" transform="translate(19.53 -1.82)"/><path class="cls-30" d="M10.37,277.47a12.92,12.92,0,1,0,0-25.84" transform="translate(19.53 -1.82)"/><path class="cls-31" d="M10.65,277.47a12.92,12.92,0,1,1,0-25.84" transform="translate(19.53 -1.82)"/><rect class="cls-32" x="101.81" y="227.16" width="37.05" height="74.08"/><rect class="cls-33" x="101.81" y="221.16" width="37.05" height="6"/><rect class="cls-34" x="101.81" y="208.66" width="37.05" height="11.94"/><rect class="cls-35" x="107.07" y="204.86" width="3.8" height="3.8"/><rect class="cls-35" x="132.13" y="204.86" width="3.8" height="3.8"/><rect class="cls-14" x="104.23" y="232.42" width="10.25" height="10.25"/><rect class="cls-14" x="104.23" y="245.6" width="10.25" height="10.25"/><rect class="cls-14" x="104.23" y="259.87" width="10.25" height="10.25"/><rect class="cls-14" x="104.23" y="273.72" width="10.25" height="10.25"/><rect class="cls-14" x="116.34" y="232.42" width="10.25" height="10.25"/><rect class="cls-14" x="127.9" y="232.42" width="10.25" height="10.25"/><rect class="cls-14" x="115.68" y="245.6" width="10.25" height="10.25"/><rect class="cls-14" x="127.9" y="245.6" width="10.25" height="10.25"/><rect class="cls-14" x="115.68" y="259.87" width="10.25" height="10.25"/><rect class="cls-14" x="127.13" y="259.87" width="10.25" height="10.25"/><rect class="cls-14" x="116.23" y="273.72" width="10.25" height="10.25"/><rect class="cls-14" x="127.9" y="274.14" width="10.25" height="10.25"/><rect class="cls-36" x="106.46" y="235.28" width="5.5" height="5.5"/><rect class="cls-36" x="118.44" y="235.28" width="5.5" height="5.5"/><rect class="cls-36" x="130.28" y="234.68" width="5.5" height="5.5"/><rect class="cls-36" x="106.46" y="248.52" width="5.5" height="5.5"/><rect class="cls-36" x="118.05" y="248.52" width="5.5" height="5.5"/><rect class="cls-36" x="130.28" y="247.98" width="5.5" height="5.5"/><rect class="cls-36" x="106.46" y="262.77" width="5.5" height="5.5"/><rect class="cls-36" x="118.44" y="262.77" width="5.5" height="5.5"/><rect class="cls-36" x="130.28" y="262.24" width="5.5" height="5.5"/><rect class="cls-36" x="106.46" y="275.97" width="5.5" height="5.5"/><rect class="cls-36" x="118.05" y="276.51" width="5.5" height="5.5"/><rect class="cls-36" x="129.5" y="276.09" width="5.5" height="5.5"/><rect class="cls-37" x="101.81" y="292.97" width="38.88" height="8.66"/><rect class="cls-38" x="151.12" y="296.2" width="71.48" height="5.56"/><rect class="cls-16" x="177.13" y="276.16" width="19.76" height="25.46"/><rect class="cls-39" x="152.69" y="255.85" width="70.77" height="40.26"/><rect class="cls-40" x="180.38" y="275.51" width="13.36" height="20.6"/><rect class="cls-41" x="159.97" y="279.97" width="12.99" height="2.04"/><rect class="cls-42" x="159.97" y="264.66" width="12.99" height="15.31"/><rect class="cls-43" x="159.97" y="262.06" width="12.99" height="2.6"/><rect class="cls-43" x="201.53" y="262.06" width="12.99" height="2.6"/><rect class="cls-42" x="201.53" y="264.66" width="12.99" height="15.31"/><rect class="cls-41" x="201.53" y="279.97" width="12.99" height="2.04"/><polygon class="cls-39" points="186.53 202.09 157.46 231.17 215.61 231.17 186.53 202.09"/><rect class="cls-44" x="150.23" y="252.24" width="76.61" height="4.62"/><polygon class="cls-45" points="147.15 232.41 187.01 191.17 227.46 232.41 147.15 232.41"/><polygon class="cls-46" points="186.53 195.38 151.61 232.41 222.84 231.17 186.53 195.38"/><rect class="cls-39" x="157.46" y="231.17" width="58.15" height="21.08"/><rect class="cls-47" x="162.69" y="233.47" width="11.85" height="12.77"/><rect class="cls-47" x="181.14" y="233.48" width="11.85" height="12.77"/><rect class="cls-47" x="199.93" y="233.48" width="11.85" height="12.77"/><polygon class="cls-48" points="202.97 207.09 209.3 213.9 209.3 199.75 211.23 199.75 211.23 195.38 200.77 195.38 200.77 199.11 202.79 199.11 202.97 207.09"/><rect class="cls-49" x="210.92" y="277" width="7.87" height="24.62"/><path class="cls-50" d="M196.08,281.78c-10,0-18.06-10.62-18.06-23.72s8.09-23.72,18.06-23.72" transform="translate(19.53 -1.82)"/><path class="cls-51" d="M196.08,281.78c10,0,18.06-10.62,18.06-23.72s-8.09-23.72-18.06-23.72" transform="translate(19.53 -1.82)"/><rect class="cls-52" x="311.3" y="287.67" width="66.73" height="14.22"/><rect class="cls-53" x="311.3" y="231.3" width="66.73" height="56.38"/><polygon class="cls-54" points="310.1 214.9 379.15 214.9 387.05 232.07 304.17 232.07 310.1 214.9"/><polygon class="cls-55" points="314.46 214.59 319.04 214.59 313.32 231.55 308.64 231.55 314.46 214.59"/><polygon class="cls-55" points="324.45 214.59 329.02 214.59 323.31 231.55 318.63 231.55 324.45 214.59"/><polygon class="cls-55" points="366.07 215 361.49 215 367.21 231.96 371.89 231.96 366.07 215"/><polygon class="cls-55" points="375.85 214.59 371.27 214.59 376.99 231.55 381.67 231.55 375.85 214.59"/><rect class="cls-55" x="352.84" y="214.59" width="5.2" height="16.74"/><rect class="cls-55" x="342.27" y="214.59" width="5.2" height="16.74"/><rect class="cls-55" x="332.25" y="214.59" width="5.2" height="16.74"/><rect class="cls-56" x="319.04" y="236.88" width="11.73" height="11.73"/><rect class="cls-56" x="337.45" y="236.88" width="11.73" height="11.73"/><rect class="cls-56" x="357.74" y="236.88" width="11.73" height="11.73"/><rect class="cls-56" x="357.74" y="263" width="11.73" height="11.73"/><rect class="cls-56" x="321.03" y="267.34" width="26.44" height="23.62"/><path class="cls-57" d="M300.33,269.17a14.66,14.66,0,1,1,29.32,0" transform="translate(19.53 -1.82)"/><rect class="cls-57" x="355.44" y="235.91" width="2.3" height="16.79"/><rect class="cls-57" x="370.74" y="235.91" width="2.3" height="16.79"/><rect class="cls-57" x="355.44" y="261.79" width="2.3" height="16.79"/><rect class="cls-57" x="370.74" y="260.48" width="2.3" height="16.79"/><rect class="cls-57" x="317.72" y="278.58" width="32.6" height="3.99"/><rect class="cls-58" x="323.82" y="267.39" width="21.13" height="17.79"/><rect class="cls-59" x="378.04" y="248.62" width="21.54" height="53.27"/><polygon class="cls-60" points="385.06 302.24 385.06 280.22 380.18 274.41 384.29 272.64 386.59 277.67 393.07 271.1 395.41 274.41 390.73 280.22 390.73 302.24 385.06 302.24"/><path class="cls-61" d="M365.93,274.4a14.27,14.27,0,1,1-21.14-19.18" transform="translate(19.53 -1.82)"/><path class="cls-62" d="M363.54,264.72a14.28,14.28,0,1,0,20.79-19.57" transform="translate(19.53 -1.82)"/><path class="cls-61" d="M363.76,264.92a14.27,14.27,0,1,1,20.54-19.81" transform="translate(19.53 -1.82)"/><path class="cls-62" d="M365.14,275.17a14.27,14.27,0,0,0-20.45-19.91" transform="translate(19.53 -1.82)"/><rect class="cls-63" x="397.11" y="164.07" width="75.65" height="128.49"/><rect class="cls-64" x="397.11" y="292.56" width="75.65" height="9.67"/><rect class="cls-65" x="397.11" y="160.16" width="77.6" height="4.66"/><rect class="cls-65" x="396.76" y="190.9" width="77.95" height="3.78"/><rect class="cls-65" x="396.76" y="218.83" width="76.98" height="4.14"/><rect class="cls-65" x="396.76" y="246.11" width="77.95" height="4.9"/><rect class="cls-66" x="438.1" y="253.57" width="23.71" height="29"/><rect class="cls-66" x="407.74" y="224.47" width="13.45" height="19.84"/><rect class="cls-66" x="428.22" y="224.47" width="15.15" height="19.84"/><rect class="cls-66" x="449.96" y="224.47" width="14.27" height="19.84"/><rect class="cls-66" x="406.92" y="196.98" width="14.27" height="18.92"/><rect class="cls-66" x="428.22" y="196.98" width="15.15" height="18.92"/><rect class="cls-66" x="449.96" y="196.98" width="14.27" height="18.92"/><rect class="cls-66" x="407.74" y="168.7" width="13.45" height="19.31"/><rect class="cls-66" x="428.22" y="168.7" width="15.15" height="19.62"/><rect class="cls-66" x="449.96" y="168.7" width="14.27" height="19.31"/><rect class="cls-66" x="407.74" y="256.78" width="22.01" height="36.2"/><rect class="cls-66" x="400.69" y="296.64" width="35.1" height="4.08"/><rect class="cls-66" x="405.38" y="292.98" width="26.13" height="3.66"/><rect class="cls-66" x="407.74" y="290.96" width="22.01" height="1.6"/><rect class="cls-67" x="440.2" y="256.78" width="20.5" height="22.66"/><rect class="cls-67" x="408.9" y="226.44" width="10.98" height="16.31"/><rect class="cls-67" x="429.45" y="226.23" width="12.47" height="16.31"/><rect class="cls-67" x="451.6" y="226.44" width="10.98" height="16.31"/><rect class="cls-67" x="408.9" y="198.29" width="10.98" height="16.31"/><rect class="cls-67" x="429.45" y="197.84" width="12.47" height="16.31"/><rect class="cls-67" x="451.6" y="197.84" width="10.98" height="16.31"/><rect class="cls-67" x="451.6" y="170.2" width="10.98" height="16.31"/><rect class="cls-67" x="430.09" y="169.45" width="11.83" height="16.57"/><rect class="cls-67" x="408.41" y="169.19" width="10.98" height="16.82"/><rect class="cls-68" x="409.82" y="261.24" width="16.9" height="31.73"/><rect class="cls-69" x="462.58" y="252.24" width="43.73" height="49.65"/><polygon class="cls-70" points="479.82 301.5 479.82 282.83 484.04 277.33 481.93 275.63 476.97 280.65 471.39 276.53 469.53 277.33 472.01 284.12 471.51 300.47 471.76 301.89 479.82 301.5"/><path class="cls-71" d="M456.9,281.25c-8.69,0-15.74-10.74-15.74-24s7-24,15.74-24" transform="translate(19.53 -1.82)"/><path class="cls-72" d="M456.64,281.25c8.69,0,15.74-10.74,15.74-24s-7.05-24-15.74-24" transform="translate(19.53 -1.82)"/><path class="cls-73" d="M28,323.93a3.9,3.9,0,0,1-6.43,0H-.68v4.88h480.8v-4.88Z" transform="translate(19.53 -1.82)"/><path class="cls-73" d="M82.94,343v-4.71H64.28v4.88H83C83,343.06,82.94,343,82.94,343Z" transform="translate(19.53 -1.82)"/><path class="cls-73" d="M107.69,338.24H90.34V343c0,.06,0,.11,0,.17h17.43C107.67,341.5,107.68,339.88,107.69,338.24Z" transform="translate(19.53 -1.82)"/><path class="cls-73" d="M156.38,338.24h-18v4.88H157A36.17,36.17,0,0,1,156.38,338.24Z" transform="translate(19.53 -1.82)"/><path class="cls-73" d="M178.27,338.24h-14.5a35,35,0,0,0,.63,4.88h14.21A36.16,36.16,0,0,1,178.27,338.24Z" transform="translate(19.53 -1.82)"/><path class="cls-73" d="M228.69,338.24H206.26c.7,1.63,1.44,3.24,2.13,4.88h20.67C228.88,341.5,228.75,339.87,228.69,338.24Z" transform="translate(19.53 -1.82)"/><path class="cls-73" d="M250.58,338.24h-14.5c.06,1.63.19,3.26.37,4.88h14.13Z" transform="translate(19.53 -1.82)"/><path class="cls-73" d="M269.68,338.24H258v4.88h12.08C269.92,341.49,269.79,339.87,269.68,338.24Z" transform="translate(19.53 -1.82)"/><path class="cls-73" d="M292.23,338.24H277.07c.11,1.63.24,3.25.38,4.88h15.68C292.79,341.5,292.47,339.88,292.23,338.24Z" transform="translate(19.53 -1.82)"/><path class="cls-73" d="M323.23,338.24H299.67c.27,1.64.62,3.26,1,4.88h24.39A25.94,25.94,0,0,0,323.23,338.24Z" transform="translate(19.53 -1.82)"/><path class="cls-73" d="M349.17,341.43v-3.19H331.25a35.75,35.75,0,0,1,1.39,4.88h17A3.69,3.69,0,0,1,349.17,341.43Z" transform="translate(19.53 -1.82)"/><path class="cls-73" d="M374.57,338.24h-18v3.19a3.65,3.65,0,0,1-.43,1.69h18.48C374.55,341.5,374.56,339.88,374.57,338.24Z" transform="translate(19.53 -1.82)"/><path class="cls-73" d="M398.67,338.24H382c0,1.62-.12,3.26,0,4.88h16.86C398.66,341.49,398.66,339.88,398.67,338.24Z" transform="translate(19.53 -1.82)"/><path class="cls-73" d="M423.65,338.24H406a36.11,36.11,0,0,0,0,4.88h17.56Z" transform="translate(19.53 -1.82)"/><rect class="cls-73" x="450.58" y="336.42" width="15.84" height="4.88"/><path class="cls-73" d="M467.43,338.24H454.28v4.88h13.59C467.75,341.47,467.56,339.81,467.43,338.24Z" transform="translate(19.53 -1.82)"/><path class="cls-73" d="M474.77,338.24c.08,1.63.19,3.26.26,4.88h5.7v-4.88Z" transform="translate(19.53 -1.82)"/><path class="cls-73" d="M198.6,338.94a2.88,2.88,0,0,1-.18-.7H185.66a36.16,36.16,0,0,0,.34,4.88h14.41C199.8,341.73,199.17,340.35,198.6,338.94Z" transform="translate(19.53 -1.82)"/><path class="cls-73" d="M130.93,338.24H115.06a44.13,44.13,0,0,0,0,4.88h15.87Z" transform="translate(19.53 -1.82)"/><path class="cls-73" d="M23.23,342.73v-4.49H-.07v4.88H23.25C23.24,343,23.23,342.86,23.23,342.73Z" transform="translate(19.53 -1.82)"/><rect class="cls-73" x="17.35" y="309.78" width="23.29" height="2.44"/><path class="cls-73" d="M81.82,311.6H60.76v2.23a1.49,1.49,0,0,1,0,.21H82.08C82,313.23,81.9,312.41,81.82,311.6Z" transform="translate(19.53 -1.82)"/><path class="cls-73" d="M107.26,311.6h-18c.07.81.17,1.63.26,2.44h17.91C107.33,313.23,107.29,312.41,107.26,311.6Z" transform="translate(19.53 -1.82)"/><path class="cls-73" d="M130.67,311.6h-16c0,.81.06,1.63.13,2.44h15.88Z" transform="translate(19.53 -1.82)"/><path class="cls-73" d="M152.53,311.6H138.07V314H152.7A15.16,15.16,0,0,1,152.53,311.6Z" transform="translate(19.53 -1.82)"/><path class="cls-73" d="M184.3,311.6H159.93a10.38,10.38,0,0,0,.28,2.44h24.47A19.67,19.67,0,0,1,184.3,311.6Z" transform="translate(19.53 -1.82)"/><path class="cls-73" d="M239.44,311.6H215.1c.36.8.72,1.61,1,2.44h23.49C239.55,313.23,239.49,312.41,239.44,311.6Z" transform="translate(19.53 -1.82)"/><path class="cls-73" d="M266.44,311.6H246.83c0,.81.12,1.63.21,2.44h19.62C266.57,313.23,266.49,312.41,266.44,311.6Z" transform="translate(19.53 -1.82)"/><path class="cls-73" d="M320,314h11.43a23.19,23.19,0,0,1-.8-2.44h-10.5A4.23,4.23,0,0,1,320,314Z" transform="translate(19.53 -1.82)"/><path class="cls-73" d="M313.22,311.6H300.65c.25.82.53,1.63.81,2.44h11.89A4.31,4.31,0,0,1,313.22,311.6Z" transform="translate(19.53 -1.82)"/><path class="cls-73" d="M366.08,311.6H338.37c.3.81.63,1.62.92,2.44h27.3A4.13,4.13,0,0,1,366.08,311.6Z" transform="translate(19.53 -1.82)"/><path class="cls-73" d="M394.38,314a3.74,3.74,0,0,1,1.17-2.44H373.17a4.13,4.13,0,0,1-.51,2.44Z" transform="translate(19.53 -1.82)"/><path class="cls-73" d="M449.67,314a4.13,4.13,0,0,1-.51-2.44H432.48a4.17,4.17,0,0,1-.31,2.44Z" transform="translate(19.53 -1.82)"/><path class="cls-73" d="M469.15,314a4.13,4.13,0,0,1-.51-2.44H456.26a4.13,4.13,0,0,1-.51,2.44Z" transform="translate(19.53 -1.82)"/><path class="cls-73" d="M475.74,311.6a4.06,4.06,0,0,1-.52,2.44h3.4V311.6Z" transform="translate(19.53 -1.82)"/><path class="cls-73" d="M425.46,311.6H400.31a3.74,3.74,0,0,1,1.17,2.44h24.3A4.17,4.17,0,0,1,425.46,311.6Z" transform="translate(19.53 -1.82)"/><path class="cls-73" d="M293,311.77l0-.17H273.83c.05.81.13,1.63.22,2.44h19.62C293.43,313.29,293.2,312.54,293,311.77Z" transform="translate(19.53 -1.82)"/><path class="cls-73" d="M206.92,311.6H191.73a15.64,15.64,0,0,0,.59,2.44h15.83C207.75,313.22,207.34,312.41,206.92,311.6Z" transform="translate(19.53 -1.82)"/><path class="cls-73" d="M53.37,313.83V311.6H28.5V314H53.39C53.39,314,53.37,313.9,53.37,313.83Z" transform="translate(19.53 -1.82)"/><rect class="cls-74" x="239.91" y="228.32" width="60.11" height="73.44"/><polygon class="cls-75" points="269.64 191.17 239.91 228.32 300.02 228.32 269.64 191.17"/><rect class="cls-76" x="264.09" y="272.31" width="11.91" height="29.31"/><rect class="cls-77" x="248.18" y="274.74" width="8.76" height="7.83"/><rect class="cls-77" x="283.55" y="274.74" width="8.76" height="7.83"/><rect class="cls-77" x="248.85" y="241.71" width="7.43" height="13.66"/><rect class="cls-77" x="264.09" y="241.71" width="11.91" height="13.66"/><rect class="cls-77" x="284.21" y="241.71" width="7.43" height="13.66"/><rect class="cls-78" x="15.07" y="301.76" width="485.19" height="61.36"/><rect class="cls-16" x="17.78" y="326.99" width="480.37" height="4.71"/><path class="cls-16" d="M-1.72,315.86v3H16.43v-3Z" transform="translate(19.53 -1.82)"/><path class="cls-16" d="M-4.46,347.87v4.71H13.69v-4.71Z" transform="translate(19.53 -1.82)"/><path class="cls-16" d="M25.51,315.86v3H43.66v-3Z" transform="translate(19.53 -1.82)"/><path class="cls-16" d="M22.77,347.87v4.71H40.92v-4.71Z" transform="translate(19.53 -1.82)"/><path class="cls-16" d="M52.74,315.92v3H70.89v-3Z" transform="translate(19.53 -1.82)"/><path class="cls-16" d="M50,348v4.71H68.16V348Z" transform="translate(19.53 -1.82)"/><path class="cls-16" d="M80,315.92v3H98.12v-3Z" transform="translate(19.53 -1.82)"/><path class="cls-16" d="M77.24,348v4.71H95.39V348Z" transform="translate(19.53 -1.82)"/><path class="cls-16" d="M107.2,315.71v3h18.15v-3Z" transform="translate(19.53 -1.82)"/><path class="cls-16" d="M104.47,347.63v4.71h18.15v-4.71Z" transform="translate(19.53 -1.82)"/><path class="cls-16" d="M134.43,315.71v3h18.16v-3Z" transform="translate(19.53 -1.82)"/><path class="cls-16" d="M131.7,347.63v4.71h18.15v-4.71Z" transform="translate(19.53 -1.82)"/><path class="cls-16" d="M161.67,315.77v3h18.15v-3Z" transform="translate(19.53 -1.82)"/><path class="cls-16" d="M158.93,347.73v4.71h18.15v-4.71Z" transform="translate(19.53 -1.82)"/><path class="cls-16" d="M188.9,315.77v3h18.15v-3Z" transform="translate(19.53 -1.82)"/><path class="cls-16" d="M186.16,347.73v4.71h18.16v-4.71Z" transform="translate(19.53 -1.82)"/><path class="cls-16" d="M216.13,315.64v3h18.15v-3Z" transform="translate(19.53 -1.82)"/><path class="cls-16" d="M213.4,347.54v4.71h18.15v-4.71Z" transform="translate(19.53 -1.82)"/><path class="cls-16" d="M243.36,315.64v3h18.15v-3Z" transform="translate(19.53 -1.82)"/><path class="cls-16" d="M240.63,347.54v4.71h18.15v-4.71Z" transform="translate(19.53 -1.82)"/><path class="cls-16" d="M270.59,315.71v3h18.16v-3Z" transform="translate(19.53 -1.82)"/><path class="cls-16" d="M267.86,347.63v4.71H286v-4.71Z" transform="translate(19.53 -1.82)"/><path class="cls-16" d="M297.83,315.71v3H316v-3Z" transform="translate(19.53 -1.82)"/><path class="cls-16" d="M295.09,347.63v4.71h18.15v-4.71Z" transform="translate(19.53 -1.82)"/><path class="cls-16" d="M325.06,315.49v3h18.15v-3Z" transform="translate(19.53 -1.82)"/><path class="cls-16" d="M322.32,347.3V352h18.15V347.3Z" transform="translate(19.53 -1.82)"/><path class="cls-16" d="M352.29,315.49v3h18.15v-3Z" transform="translate(19.53 -1.82)"/><path class="cls-16" d="M349.55,347.3V352h18.16V347.3Z" transform="translate(19.53 -1.82)"/><path class="cls-16" d="M379.52,315.56v3h18.15v-3Z" transform="translate(19.53 -1.82)"/><path class="cls-16" d="M376.79,347.4v4.71h18.15V347.4Z" transform="translate(19.53 -1.82)"/><path class="cls-16" d="M406.75,315.56v3H424.9v-3Z" transform="translate(19.53 -1.82)"/><path class="cls-16" d="M404,347.4v4.71h18.15V347.4Z" transform="translate(19.53 -1.82)"/><path class="cls-16" d="M434.76,315.56v3h18.15v-3Z" transform="translate(19.53 -1.82)"/><path class="cls-16" d="M432,347.4v4.71h18.15V347.4Z" transform="translate(19.53 -1.82)"/><path class="cls-16" d="M462,315.56v3h18.15v-3Z" transform="translate(19.53 -1.82)"/><path class="cls-16" d="M459.26,347.4v4.71h18.15V347.4Z" transform="translate(19.53 -1.82)"/><path class="cls-62" d="M374.61,262.05a10.42,10.42,0,1,0,15.68,13.72" transform="translate(19.53 -1.82)"/><path class="cls-61" d="M390.27,275.71a10.42,10.42,0,1,0-15.95-13.4" transform="translate(19.53 -1.82)"/><rect class="cls-16" x="248.85" y="255.36" width="7.43" height="1.04"/><rect class="cls-16" x="264.09" y="255.36" width="11.91" height="1.04"/><rect class="cls-16" x="284.21" y="255.36" width="7.43" height="1.04"/><rect class="cls-16" x="283.55" y="282.41" width="8.76" height="1.04"/><rect class="cls-16" x="248.18" y="282.56" width="8.76" height="1.04"/><rect class="cls-15" x="26.61" y="126.84" width="1.05" height="25.16"/></g></svg>