<?xml version="1.0" encoding="UTF-8" standalone="no"?>
<!-- Created with Inkscape (http://www.inkscape.org/) -->

<svg
   xmlns:dc="http://purl.org/dc/elements/1.1/"
   xmlns:cc="http://creativecommons.org/ns#"
   xmlns:rdf="http://www.w3.org/1999/02/22-rdf-syntax-ns#"
   xmlns:svg="http://www.w3.org/2000/svg"
   xmlns="http://www.w3.org/2000/svg"
   xmlns:sodipodi="http://sodipodi.sourceforge.net/DTD/sodipodi-0.dtd"
   xmlns:inkscape="http://www.inkscape.org/namespaces/inkscape"
   version="1.1"
   id="svg15222"
   width="642.66669"
   height="484"
   viewBox="0 0 642.66669 484"
   sodipodi:docname="US Map.svg"
   inkscape:version="0.92.1 r15371">
  <metadata
     id="metadata15228">
    <rdf:RDF>
      <cc:Work
         rdf:about="">
        <dc:format>image/svg+xml</dc:format>
        <dc:type
           rdf:resource="http://purl.org/dc/dcmitype/StillImage" />
        <dc:title></dc:title>
      </cc:Work>
    </rdf:RDF>
  </metadata>
  <defs
     id="defs15226" />
  <sodipodi:namedview
     pagecolor="#ffffff"
     bordercolor="#666666"
     borderopacity="1"
     objecttolerance="10"
     gridtolerance="10"
     guidetolerance="10"
     inkscape:pageopacity="0"
     inkscape:pageshadow="2"
     inkscape:window-width="1920"
     inkscape:window-height="1001"
     id="namedview15224"
     showgrid="false"
     inkscape:zoom="0.97520661"
     inkscape:cx="666.27026"
     inkscape:cy="139.24657"
     inkscape:window-x="-9"
     inkscape:window-y="-9"
     inkscape:window-maximized="1"
     inkscape:current-layer="svg15222" />
  <rect
     style="opacity:1;fill:#009fe3;fill-opacity:1;stroke:none;stroke-width:0.30000001;stroke-linecap:round;stroke-linejoin:miter;stroke-miterlimit:4;stroke-dasharray:none;stroke-dashoffset:3.36000037;stroke-opacity:1;paint-order:markers fill stroke"
     id="rect15777"
     width="641.91528"
     height="486.05084"
     x="0.3757019"
     y="-1.0254211"
     ry="0" />
  <path
     style="fill:#068137;stroke:#068137;stroke-width:1px;stroke-linecap:butt;stroke-linejoin:miter;stroke-opacity:1;fill-opacity:1"
     d="m 44.73411,54.539723 13.843221,8.331568 c 3.103247,0.607631 5.074707,-0.07821 5.191207,-2.884004 l -2.371292,-7.626589 5.960275,-0.256356 c 9.477176,6.515402 21.471143,9.525273 33.262179,12.817797 l 57.1545,7.854089 c 24.96618,2.452106 48.57439,3.563716 73.7793,5.220063 l 23.20021,0.256356 16.02224,4.293962 12.36918,0.256356 30.8268,-2.114936 9.22881,2.371292 14.22776,-3.14036 8.97245,9.549258 5.51166,0.192267 4.10169,-1.089512 4.74259,0.640889 8.58792,5.639831 h 9.35699 l 1.1536,1.602224 0.0641,2.884005 -2.62765,3.653067 -3.84533,3.71717 -0.32045,4.29396 2.3072,1.66631 16.02225,-0.51271 5.12712,-4.35805 4.80667,0.32044 c 0,0 3.46081,-7.30614 3.33263,-6.9857 -0.12818,0.32045 5.70392,0.32045 5.70392,0.32045 l -4.35805,7.5625 8.1393,0.70498 2.37129,2.3072 h 4.55032 l 8.45974,-3.52489 13.3946,-0.19227 6.08846,4.22987 0.12817,3.14036 -6.92161,-0.25635 -7.69067,4.22987 -6.72935,-0.0641 -0.96133,1.34587 -4.6785,-0.0641 -2.75582,2.69174 -6.28073,8.7161 -1.53813,1.66631 0.19227,3.71716 2.17902,1.53814 4.16579,-3.07627 0.19226,5.31938 -3.78125,6.08846 -0.25635,3.4608 -1.66632,2.43538 0.5768,2.62765 2.30721,7.30615 0.19226,6.21663 -2.11493,2.05085 0.51271,7.30614 7.62659,8.07521 6.85752,0.25636 4.22987,-5.31939 -0.25635,-13.84322 -4.03761,-10.70286 0.44862,-9.48517 2.56356,-8.58792 2.3713,-2.69174 8.45974,-4.87076 4.99894,-5.96028 6.66526,0.12818 4.22987,4.35805 0.0641,4.48623 -3.07627,4.61441 0.0641,9.2929 2.3072,2.62765 3.4608,-3.78125 2.3713,-1.79449 1.79449,0.12817 4.48623,4.6785 0.12817,3.78125 1.53814,0.70498 0.25636,6.21663 -3.20445,5.44756 0.25635,4.48623 -1.98676,1.34587 0.76907,3.58898 1.1536,1.7945 0.38454,2.56356 6.28072,5.57574 4.99894,-0.32045 1.34587,-1.28178 3.26854,-0.96133 14.67637,-14.80456 6.72935,-5.25529 3.78125,-8.39566 1.1536,-3.39672 5.06303,-3.20445 3.14036,-1.7304 7.81885,0.83316 1.02543,-2.05085 3.78125,-0.70498 3.14036,-4.10169 2.94809,-5.19121 -0.25635,-6.79343 1.28177,-3.90943 2.43539,-3.65307 5.51165,-5.63983 5.06303,-3.20445 8.52383,-3.33263 5.63983,-3.26854 4.61441,-2.56356 7.43432,-6.344807 0.70498,-2.755826 6.4089,-6.985699 3.58898,-5.896187 2.3713,-4.742584 -0.19227,-4.806674 1.7304,-4.42214 1.02542,-2.948093 4.35806,-3.717161 4.22987,-0.256356 5.19121,3.396716 2.94809,3.717161 2.05085,3.588983 1.60222,2.435382 -0.51271,3.78125 1.28178,1.153601 2.884,4.293962 5.12712,8.075212 1.1536,1.730403 0.0641,6.601165 -1.34587,2.948092 -4.74258,4.80667 -4.6785,3.33263 -3.20445,2.24312 -5.25529,4.29396 -0.83316,2.62765 -1.34587,2.24311 -1.1536,5.70392 -1.79449,1.79449 0.44862,7.30615 1.21769,1.08951 1.53814,3.52489 3.01218,3.07627 6.60117,-0.64089 v 2.62765 l -1.98676,1.02543 0.25635,1.7304 4.87077,4.55032 -3.5249,3.14036 -5.63983,0.0641 -4.22987,-4.1017 -4.42214,1.98676 -2.94809,4.93485 -3.90943,0.0641 -4.35805,3.07627 v 2.81992 l 4.6144,0.70498 v 2.37129 l -3.26854,3.01218 h -3.58898 l -7.17796,3.78125 h -3.58899 l -0.38453,9.16472 -1.66631,2.81992 0.76906,9.16472 -6.85752,4.1017 0.38454,6.02436 3.58898,5.44757 0.12818,5.76801 -2.81992,3.52489 v 8.26748 l -2.37129,4.61441 -1.66631,-2.24312 -0.89725,-5.19121 -1.21769,-6.34481 -1.34587,-5.25529 -1.28178,-3.07627 -1.79449,-3.71716 -1.21769,-0.83316 -2.69174,-0.19227 -0.64089,7.04979 3.07627,5.19121 -0.19226,6.08845 1.21769,0.38453 0.32044,3.71717 1.21769,0.19226 -0.25635,6.60117 1.08951,0.12818 0.51271,2.56356 4.22987,1.60222 3.20445,4.6785 3.33263,6.79343 0.96133,5.96027 0.57681,6.28072 -6.85753,6.9857 -0.89724,2.30721 -4.61441,3.97351 -2.69174,0.76907 -2.69173,3.65307 -14.22776,23.32839 -2.81991,0.64089 -0.25636,2.17903 -9.2929,13.01006 -9.54926,18.00901 -0.32044,10.06197 1.98675,1.21769 0.89725,4.22987 1.66631,4.03761 5.63983,12.11281 2.17903,4.55032 5.38347,4.93485 1.28178,3.90943 1.28178,3.90943 7.11388,14.42002 1.08951,4.22987 1.28178,12.62553 1.21769,3.71716 1.53814,4.87077 0.25636,5.63983 -1.34587,3.14036 -7.62659,6.15254 -5.70392,0.12818 0.12818,-1.34587 4.16578,-5.31939 1.1536,-1.66631 0.70498,-4.80667 -2.43538,1.1536 -2.17903,-2.9481 0.0641,-2.94809 -2.37129,-2.3072 -3.01218,-0.12818 -0.25636,1.85858 -2.81991,-0.12818 0.25635,-5.38347 -3.20445,-3.97352 h -5.63983 l -3.14036,-4.22987 -2.24311,-3.90943 -1.7304,-3.84534 -1.21769,-3.39671 -3.84534,-5.19121 v -5.38348 l -3.20445,-2.05084 0.12817,-1.15361 1.47405,0.12818 0.12818,-5.76801 -5.76801,-4.10169 -1.47405,-0.19227 -5.83209,-7.69068 -1.73041,-0.19226 -2.37129,-1.21769 -0.96133,-1.28178 -5.57574,0.70497 -2.75583,4.93486 -4.55032,2.94809 h -3.90943 l -5.31938,-6.9857 -0.0641,-2.62765 -3.65307,-0.19226 -3.58899,-2.9481 -6.72934,0.0641 -6.34481,5.2553 -3.33263,1.34587 -4.35805,0.32044 1.73041,-2.17902 -1.66632,-3.71717 -0.25635,-1.28177 -9.80562,0.44862 -3.84534,3.01218 -0.89724,2.3072 -6.79344,-0.12817 -3.78125,2.75582 0.25636,5.70392 6.79343,-0.5768 -3.07627,4.29396 0.19227,2.24312 3.33263,1.40995 3.65307,0.0641 -0.19227,1.53814 -24.4179,0.12818 -1.21769,-1.66632 -40.56833,-0.0641 -2.37129,1.7945 -5.89619,0.76906 -4.74258,1.40996 -5.12712,3.14036 -4.22987,2.94809 -4.42214,3.39672 -3.84534,5.57574 -3.39672,5.8321 -3.33263,6.66525 -1.98675,6.92161 -2.88401,5.8321 -3.71716,5.06303 -3.84534,3.14036 -5.06303,0.12818 -4.99894,-3.58898 -5.70392,-6.28072 -7.94703,-13.3946 -7.04979,-11.47193 -7.24206,-7.04979 -8.97245,-5.25529 -0.25636,-1.60223 -19.54714,0.19227 -1.02542,-1.34587 h -5.57574 l -5.63983,-2.49947 -7.17797,-6.60117 -8.1393,-9.10063 -9.86971,-11.21557 -8.7161,-6.34481 h -4.42214 l -1.08951,-1.66632 -5.44756,0.12818 -1.79449,1.28178 -10.57469,0.19227 -1.7304,1.08951 -14.03549,0.44862 -1.34587,-1.92267 -3.90942,0.12818 -17.75265,-9.61335 -13.26642,-9.67743 -15.76589,-8.90837 -13.843221,-5.76801 -14.355933,-6.60116 -5.127118,-2.56356 -7.882945,-6.4089 -14.035488,-14.35593 -3.524894,-4.03761 -10.831038,-17.23994 -6.344809,-14.99682 -1.986759,-7.5625 -2.49947,-14.16366 -3.717161,-19.86759 -2.691737,-11.21557 -1.409958,-9.80562 0.448623,-16.91949 2.627648,-13.20233 2.179026,-7.88294 5.319385,-13.01007 3.076271,-7.88294 4.358051,-11.27966 3.717161,-14.29185 2.435382,-11.66419 1.474046,-0.961335 1.409958,-15.189089 1.28178,-7.434322 z"
     id="path15775"
     inkscape:connector-curvature="0"
     sodipodi:nodetypes="ccccccccccccccccccccccccccccccccccccccccccccccccccccccccccccccccccccccccccccccccccccccccccccccccccccccccccccccccccccccccccccccccccccccccccccccccccccccccccccccccccccccccccccccccccccccccccccccccccccccccccccccccccccccccccccccccccccccccccccccccccccccccccccccccccccccccccccccccccccccccccccccccccccccccccccccccccccccccccccccccccccccccccccccccccccccccccccc" />
</svg>
