<?xml version="1.0" encoding="UTF-8"?><svg id="Layer_1" xmlns="http://www.w3.org/2000/svg" viewBox="0 0 51 57"><path d="M35,20.53c-.16-.17-.34-.33-.52-.47-.55-.44-1.18-.81-1.86-1.07h-.01c-.37-.14-.75-.24-1.13-.32-.4-.07-.8-.11-1.2-.11h-1.8c-.81.43-1.74.67-2.72.68-.98,0-1.91-.25-2.73-.68h-2.04c-3.23,0-5.52,2.51-5.52,5.2v9.03c0,.59.16,1.13.52,1.45.11.1.23.18.38.23.14.06.3.09.48.09h.2c.21,0,.44-.04.68-.12.84-.25,1.74-.91,1.74-1.65v-7.32c0-.4.1-.73.5-.73s.5.33.5.73v12.08h11v-12.08c0-.24.04-.47.17-.6.05-.06.11-.1.19-.12.04,0,.09-.01.14-.01s.1.01.14.01c.12.03.2.11.26.2.08.14.1.32.1.52v7.32c0,.48.14.92.39,1.24.13.16.29.29.48.38.18.1.4.15.64.15h.2c.24,0,.5-.05.76-.15.78-.27,1.53-.91,1.53-1.62v-9.03c0-1.18-.56-2.32-1.47-3.23ZM25.76,8.45c-2.7,0-4.89,2.19-4.9,4.89.01,1.8.98,3.38,2.44,4.22.45.28.96.47,1.49.58.31.06.64.1.97.1.04,0,.08,0,.12,0,.86-.02,1.67-.26,2.36-.68,1.44-.85,2.41-2.42,2.41-4.21,0-2.7-2.19-4.89-4.89-4.89Z" style="fill:#34332b;"/><path d="M30.28,17.55h-.4c1.09-1.08,1.77-2.57,1.77-4.21,0-3.25-2.64-5.89-5.89-5.89s-5.89,2.65-5.9,5.89c.01,1.65.69,3.15,1.8,4.22h-.67c-3.78,0-6.52,2.68-6.52,6.2v9.03c0,1.63.75,2.77,2.38,2.77h.2c.65,0,1.42-.02,2.42-.37v3.36h13v-3.37c1,.36.86.37,1.51.37h.2c1.63,0,3.29-1.13,3.29-2.76v-9.03c0-3.19-3.09-6.21-7.19-6.21ZM20.86,13.34c.01-2.7,2.2-4.89,4.9-4.89s4.89,2.19,4.89,4.89c0,1.79-.97,3.36-2.41,4.21-.69.42-1.5.66-2.36.68-.04,0-.08,0-.12,0-.33,0-.66-.04-.97-.1-.53-.11-1.04-.3-1.49-.58-1.46-.84-2.43-2.42-2.44-4.22ZM36.47,32.79c0,.71-.75,1.35-1.53,1.62-.26.1-.52.15-.76.15h-.2c-.24,0-.46-.05-.64-.15-.19-.09-.35-.22-.48-.38-.25-.32-.39-.76-.39-1.24v-7.32c0-.2-.02-.38-.1-.52-.06-.09-.14-.17-.26-.2-.04,0-.09-.01-.14-.01s-.1.01-.14.01c-.08.02-.14.06-.19.12-.13.13-.17.36-.17.6v12.08h-11v-12.08c0-.4-.1-.73-.5-.73s-.5.33-.5.73v7.32c0,.74-.9,1.4-1.74,1.65-.24.08-.47.12-.68.12h-.2c-.18,0-.34-.03-.48-.09-.15-.05-.27-.13-.38-.23-.36-.32-.52-.86-.52-1.45v-9.03c0-2.69,2.29-5.2,5.52-5.2h2.04c.82.43,1.75.67,2.73.68.98,0,1.91-.25,2.72-.68.01,0,.02,0,.02-.01h1.79c.4,0,.8.04,1.19.12.38.07.76.18,1.13.32h.01c.69.25,1.32.62,1.86,1.07.18.14.36.3.52.47.91.91,1.47,2.05,1.47,3.23v9.03Z" style="fill:#a86aad;"/><path d="M11.05,43.19c-.17,0-.35-.05-.51-.13l-3.53-2.04c-.31-.18-.51-.52-.51-.89v-4.07c0-.36.2-.7.51-.89l3.52-2.04c.32-.18.7-.18,1.02,0l3.53,2.04c.32.18.51.52.51.89v4.07c0,.37-.2.71-.51.89l-3.53,2.04c-.16.09-.34.14-.51.14ZM7.78,39.98l3.27,1.89,3.27-1.89v-3.78l-2.37-1.36h-1.81l-2.37,1.36v3.78ZM11.05,33.85h0s0,0,0,0Z" style="fill:#a86aad;"/><path d="M14.95,35.42l-1.49-.86-.23-.13-1.81-1.04c-.12-.07-.24-.1-.37-.1s-.25.03-.37.1l-1.8,1.04-.23.13-1.49.86c-.23.13-.37.38-.37.64v4.07c0,.27.14.51.37.64l3.52,2.04c.12.07.24.1.37.1s.25-.03.37-.1l3.52-2.04c.23-.13.37-.38.37-.64v-4.07c0-.26-.14-.51-.37-.64ZM11.05,33.57c.16,0,.29.13.29.29,0,.1-.05.18-.12.23-.05.03-.1.05-.16.05-.07,0-.12-.02-.16-.05-.08-.05-.12-.14-.12-.23,0-.16.13-.29.29-.29ZM14.61,40.01c0,.09-.05.17-.12.21l-3.31,1.91c-.07.04-.17.04-.24,0l-3.31-1.91c-.07-.04-.12-.12-.12-.21v-3.83c0-.08.05-.17.12-.21l2.45-1.41h1.97l2.45,1.41c.07.04.12.12.12.21v3.83Z" style="fill:#34332b;"/><path d="M14.61,36.18v3.83c0,.09-.05.17-.12.21l-3.31,1.91c-.07.04-.17.04-.24,0l-3.31-1.91c-.07-.04-.12-.12-.12-.21v-3.83c0-.08.05-.17.12-.21l2.45-1.41h1.97l2.45,1.41c.07.04.12.12.12.21Z" style="fill:#fff;"/><path d="M11.05,39.18c-.6,0-1.09-.49-1.09-1.09s.49-1.09,1.09-1.09,1.09.49,1.09,1.09-.49,1.09-1.09,1.09ZM11.05,37.53c-.31,0-.56.25-.56.56s.25.56.56.56.56-.25.56-.56-.25-.56-.56-.56Z" style="fill:#a86aad;"/><circle cx="11.05" cy="38.09" r=".83" style="fill:#34332b;"/></svg>