<?xml version="1.0" encoding="UTF-8"?><svg id="Layer_1" xmlns="http://www.w3.org/2000/svg" xmlns:xlink="http://www.w3.org/1999/xlink" viewBox="0 0 51 57"><defs><linearGradient id="linear-gradient" x1="25.55" y1="1132.73" x2="25.55" y2="1112.23" gradientTransform="translate(0 -1091.28)" gradientUnits="userSpaceOnUse"><stop offset="0" stop-color="#fff"/><stop offset=".09" stop-color="#fff" stop-opacity=".91"/><stop offset="1" stop-color="#fff" stop-opacity="0"/></linearGradient></defs><path d="M21.63,41.49c-2.65,0-5.2-1.05-7.07-2.94-1.88-1.87-2.94-4.42-2.93-7.07,0-5.69,4.58-10.5,10-10.5h14.47s0,5.6,0,5.6h3.35s0,9.32,0,9.32h-3.35s0,5.59,0,5.59h-14.47Z" style="fill:url(#linear-gradient);"/><path d="M21.63,40.99c-5.24,0-9.5-4.27-9.5-9.51,0-5.24,4.27-10,9.5-10h13.97s0,5.6,0,5.6h3.35s0,8.33,0,8.33h-3.35s0,5.59,0,5.59c0,0-13.97,0-13.97,0Z" style="fill:#c9bf8b;"/><path d="M21.63,40.49c-2.39,0-4.68-.95-6.36-2.64-1.69-1.68-2.64-3.97-2.64-6.36,0-4.96,4.04-8.5,9-8.5h13.47s0,5.6,0,5.6h3.35s0,6.33,0,6.33h-3.35s0,5.59,0,5.59c0,0-13.47,0-13.47,0Z" style="fill:#34332b;"/><path d="M11.05,50.59c-.17,0-.35-.05-.51-.13l-3.53-2.04c-.31-.18-.51-.52-.51-.89v-4.07c0-.36.2-.7.51-.89l3.52-2.04c.32-.18.7-.18,1.02,0l3.53,2.04c.32.18.51.52.51.89v4.07c0,.37-.2.71-.51.89l-3.53,2.04c-.16.09-.34.14-.51.14ZM7.78,47.39l3.27,1.89,3.27-1.89v-3.78l-2.37-1.36h-1.81l-2.37,1.36v3.78ZM11.05,41.26h0s0,0,0,0Z" style="fill:#c9bf8b;"/><path d="M14.95,42.82l-1.49-.86-.23-.13-1.81-1.04c-.12-.07-.24-.1-.37-.1s-.25.03-.37.1l-1.8,1.04-.23.13-1.49.86c-.23.13-.37.38-.37.64v4.07c0,.27.14.51.37.64l3.52,2.04c.12.07.24.1.37.1s.25-.03.37-.1l3.52-2.04c.23-.13.37-.38.37-.64v-4.07c0-.26-.14-.51-.37-.64ZM11.05,40.97c.16,0,.29.13.29.29,0,.1-.05.18-.12.23-.05.03-.1.05-.16.05-.07,0-.12-.02-.16-.05-.08-.05-.12-.14-.12-.23,0-.16.13-.29.29-.29ZM14.61,47.41c0,.09-.05.17-.12.21l-3.31,1.91c-.07.04-.17.04-.24,0l-3.31-1.91c-.07-.04-.12-.12-.12-.21v-3.83c0-.08.05-.17.12-.21l2.45-1.41h1.97l2.45,1.41c.07.04.12.12.12.21v3.83Z" style="fill:#34332b;"/><path d="M14.61,43.59v3.83c0,.09-.05.17-.12.21l-3.31,1.91c-.07.04-.17.04-.24,0l-3.31-1.91c-.07-.04-.12-.12-.12-.21v-3.83c0-.08.05-.17.12-.21l2.45-1.41h1.97l2.45,1.41c.07.04.12.12.12.21Z" style="fill:#fff;"/><path d="M11.05,46.59c-.6,0-1.09-.49-1.09-1.09s.49-1.09,1.09-1.09,1.09.49,1.09,1.09-.49,1.09-1.09,1.09ZM11.05,44.94c-.31,0-.56.25-.56.56s.25.56.56.56.56-.25.56-.56-.25-.56-.56-.56Z" style="fill:#c9bf8b;"/><circle cx="11.05" cy="45.5" r=".83" style="fill:#34332b;"/></svg>