<?xml version="1.0" encoding="UTF-8"?><svg id="Layer_1" xmlns="http://www.w3.org/2000/svg" xmlns:xlink="http://www.w3.org/1999/xlink" viewBox="0 0 51 57"><defs><linearGradient id="linear-gradient" x1="21.54" y1="-541.16" x2="21.54" y2="-509.65" gradientTransform="translate(0 -496.72) scale(1 -1)" gradientUnits="userSpaceOnUse"><stop offset="0" stop-color="#fff"/><stop offset=".09" stop-color="#fff" stop-opacity=".91"/><stop offset="1" stop-color="#fff" stop-opacity="0"/></linearGradient></defs><path d="M25.16,45.5l-9.03-8.5h-4.57v-11h4.59l9-9h3.41v10.3l.48.22c1.5.7,2.46,2.2,2.48,3.85,0,1.66-.94,3.17-2.43,3.89l-.52.25v9.99h-3.4Z" style="fill:url(#linear-gradient); isolation:isolate; opacity:.3;"/><path d="M31.01,31.38c-.02-1.46-.87-2.78-2.19-3.4l-.45-.21-.31.67v-10.93h-2.71l-8.79,8.79v.21h-4.5v10h4.5v.22l8.8,8.28h2.7v-10.72l.36.75.45-.22c1.32-.63,2.15-1.97,2.15-3.43ZM28.06,32.78v-2.75c.48.29.78.81.79,1.37,0,.57-.3,1.09-.79,1.39Z" style="fill:#5db27f;"/><path d="M35.76,31.34c-.02-3.27-1.96-6.28-4.94-7.67l-.45-.21-1.4,3.02.45.21c1.82.85,2.99,2.66,3.01,4.67,0,2.01-1.14,3.83-2.95,4.71l-.45.22,1.44,3,.45-.22c2.96-1.43,4.86-4.46,4.84-7.73Z" style="fill:#5db27f;"/><path d="M32.63,19.77l-.45-.21-1.4,3.02.45.21c3.32,1.55,5.48,4.9,5.5,8.54.02,3.64-2.09,7.02-5.39,8.61l-.45.22,1.44,3,.45-.22c4.46-2.15,7.31-6.72,7.28-11.64-.03-4.92-2.95-9.45-7.43-11.54Z" style="fill:#5db27f;"/><path d="M30.51,31.38c-.01-1.27-.75-2.42-1.9-2.95l-.49,1.06c.74.34,1.22,1.08,1.23,1.9,0,.82-.47,1.56-1.2,1.92l.51,1.06c1.14-.55,1.87-1.71,1.86-2.98Z" style="fill:#34332b;"/><path d="M35.26,31.35c-.02-3.2-1.93-5.95-4.65-7.22l-.98,2.11c2,.93,3.28,2.92,3.3,5.12.02,2.27-1.31,4.24-3.23,5.16l1.01,2.1c2.7-1.31,4.57-4.08,4.55-7.28Z" style="fill:#34332b;"/><path d="M39.56,31.32c-.03-4.92-2.96-9.14-7.15-11.09l-.98,2.11c3.4,1.58,5.77,5.01,5.79,8.99.03,3.99-2.3,7.44-5.68,9.07l1.01,2.1c4.16-2.01,7.03-6.27,7-11.18Z" style="fill:#34332b;"/><path d="M12.56,28h3.5v8h-3.5v-8Z" style="fill:#34332b;"/><path d="M25.56,19l-8.5,8.5v9l8.5,8h2v-25.5h-2Z" style="fill:#34332b;"/><path d="M11.05,50.59c-.17,0-.35-.05-.51-.13l-3.53-2.04c-.31-.18-.51-.52-.51-.89v-4.07c0-.36.2-.7.51-.89l3.52-2.04c.32-.18.7-.18,1.02,0l3.53,2.04c.32.18.51.52.51.89v4.07c0,.37-.2.71-.51.89l-3.53,2.04c-.16.09-.34.14-.51.14ZM7.78,47.39l3.27,1.89,3.27-1.89v-3.78l-2.37-1.36h-1.81l-2.37,1.36v3.78ZM11.05,41.26h0s0,0,0,0Z" style="fill:#5db27f;"/><path d="M14.95,42.82l-1.49-.86-.23-.13-1.81-1.04c-.12-.07-.24-.1-.37-.1s-.25.03-.37.1l-1.8,1.04-.23.13-1.49.86c-.23.13-.37.38-.37.64v4.07c0,.27.14.51.37.64l3.52,2.04c.12.07.24.1.37.1s.25-.03.37-.1l3.52-2.04c.23-.13.37-.38.37-.64v-4.07c0-.26-.14-.51-.37-.64ZM11.05,40.97c.16,0,.29.13.29.29,0,.1-.05.18-.12.23-.05.03-.1.05-.16.05-.07,0-.12-.02-.16-.05-.08-.05-.12-.14-.12-.23,0-.16.13-.29.29-.29ZM14.61,47.41c0,.09-.05.17-.12.21l-3.31,1.91c-.07.04-.17.04-.24,0l-3.31-1.91c-.07-.04-.12-.12-.12-.21v-3.83c0-.08.05-.17.12-.21l2.45-1.41h1.97l2.45,1.41c.07.04.12.12.12.21v3.83Z" style="fill:#34332b;"/><path d="M14.61,43.59v3.83c0,.09-.05.17-.12.21l-3.31,1.91c-.07.04-.17.04-.24,0l-3.31-1.91c-.07-.04-.12-.12-.12-.21v-3.83c0-.08.05-.17.12-.21l2.45-1.41h1.97l2.45,1.41c.07.04.12.12.12.21Z" style="fill:#fff;"/><path d="M11.05,46.59c-.6,0-1.09-.49-1.09-1.09s.49-1.09,1.09-1.09,1.09.49,1.09,1.09-.49,1.09-1.09,1.09ZM11.05,44.94c-.31,0-.56.25-.56.56s.25.56.56.56.56-.25.56-.56-.25-.56-.56-.56Z" style="fill:#5db27f;"/><circle cx="11.05" cy="45.5" r=".83" style="fill:#34332b;"/></svg>